<svg width="585" height="466" viewBox="0 0 585 466" fill="none" xmlns="http://www.w3.org/2000/svg">
<path d="M500.342 60.7675C500.342 62.2127 499.762 63.4306 498.892 63.6215C498.814 63.6308 498.735 63.6308 498.657 63.6215C498.375 63.611 498.101 63.52 497.868 63.359C497.636 63.198 497.454 62.9737 497.343 62.7126C497.027 62.13 496.862 61.4766 496.863 60.8129C496.863 59.2314 497.57 57.9407 498.53 57.9226C499.49 57.9044 500.297 59.1133 500.342 60.7675Z" fill="#321951"/>
<path d="M512.374 65.9939C512.374 65.9939 505.045 63.5853 507.944 51.8239L506.014 52.0784C505.049 52.4468 503.998 52.5258 502.989 52.3056C501.942 52.0773 500.991 51.5321 500.263 50.7437C499.536 49.9553 499.067 48.9617 498.921 47.8974C497.826 48.7718 496.55 49.389 495.186 49.7036C493.822 50.0182 492.406 50.0221 491.04 49.7152C488.632 49.1763 486.531 47.7092 485.191 45.6302C483.851 43.5513 483.379 41.0272 483.877 38.6024C484.375 36.1776 485.803 34.0463 487.853 32.6684C489.903 31.2905 492.411 30.7764 494.836 31.2369C496.263 29.99 497.97 29.1069 499.81 28.6623C501.65 28.2177 503.57 28.2247 505.407 28.6828C511.35 29.9917 515.372 35.0452 514.403 39.9352C517.309 38.3937 520.665 37.9303 523.878 38.6264C531.741 40.3715 536.615 48.6245 534.749 57.0411C534.301 59.0864 533.468 61.027 532.294 62.7582C532.845 63.5951 533.258 64.5159 533.517 65.4849C533.955 66.9809 534.001 68.5647 533.653 70.0841C533.157 72.3775 531.817 74.3992 529.902 75.7466C528.832 76.4916 527.618 77.0041 526.339 77.2514C525.06 77.4987 523.744 77.4753 522.474 77.1827C521.539 76.9649 520.648 76.59 519.838 76.0738C519.256 75.7081 518.7 75.3043 518.171 74.865C517.242 74.1052 516.411 73.2319 515.698 72.2654C515.888 72.2654 516.079 72.2654 516.287 72.2654C518.832 72.2654 520.871 70.384 520.816 68.1571C520.762 65.9303 518.669 64.167 516.133 64.2579C514.831 64.2655 513.584 64.788 512.663 65.7122C512.561 65.7999 512.464 65.8941 512.374 65.9939Z" fill="#321951"/>
<path d="M489.509 57.8952C489.564 57.5862 489.6 57.2954 489.627 56.9863C489.968 57.0006 490.292 57.1434 490.533 57.3863C491.128 58.0487 491.451 58.9123 491.439 59.804C491.439 61.3037 490.85 62.5307 489.998 62.6762H489.763C489.528 62.6806 489.298 62.6141 489.102 62.4853L489.183 61.5127L489.509 57.8952Z" fill="#321951"/>
<path d="M498.53 57.8952C497.57 57.8952 496.827 59.2041 496.863 60.7856C496.862 61.4492 497.027 62.1026 497.344 62.6852C497.454 62.9464 497.636 63.1706 497.868 63.3316C498.101 63.4926 498.375 63.5837 498.657 63.5941C498.735 63.6035 498.814 63.6035 498.893 63.5941C499.799 63.4033 500.36 62.1853 500.342 60.7401C500.297 59.1132 499.527 57.8952 498.53 57.8952ZM502.987 52.269C503.996 52.4892 505.048 52.4102 506.013 52.0418L507.942 51.7873C505.044 63.5487 512.372 65.9573 512.372 65.9573C512.456 65.8424 512.546 65.7331 512.644 65.6301C513.582 64.7315 514.835 64.2386 516.132 64.2577C518.686 64.2577 520.788 65.9573 520.815 68.1751C520.842 70.3928 518.831 72.238 516.286 72.2834C516.077 72.2834 515.887 72.2834 515.697 72.2834C516.41 73.2499 517.241 74.1232 518.17 74.8829C518.699 75.316 519.256 75.7138 519.837 76.0736L519.773 76.1827C520.624 78.7668 522.373 80.9574 524.701 82.3542C525.318 82.093 525.979 81.9512 526.649 81.9361L526.694 82.6814C527.736 92.316 521.06 98.2421 515.688 99.4782C509.347 100.933 502.706 96.2243 502.272 90.7708C502.316 89.9494 502.295 89.1257 502.208 88.3076C502.063 86.8352 501.791 85.2446 501.565 84.0993C498.958 84.4547 496.313 83.8051 494.164 82.2815C493.891 82.0936 493.639 81.8773 493.412 81.6362C490.948 79.3639 489.707 75.71 489.2 71.6381C488.845 68.6032 488.784 65.541 489.019 62.4943C489.215 62.6231 489.445 62.6896 489.68 62.6852H489.915C490.767 62.4943 491.374 61.3128 491.356 59.813C491.368 58.9213 491.045 58.0578 490.45 57.3953C490.209 57.1525 489.885 57.0097 489.544 56.9954C489.801 54.614 490.24 52.256 490.857 49.9422L490.93 49.6513C492.296 49.9583 493.712 49.9543 495.076 49.6397C496.44 49.3252 497.716 48.708 498.811 47.8335C498.952 48.9241 499.431 49.9426 500.18 50.7451C500.93 51.5476 501.912 52.0934 502.987 52.3054V52.269Z" fill="#FDC8B4"/>
<path d="M489.627 56.9863C489.627 57.2954 489.564 57.5862 489.509 57.8952L489.129 61.5309L489.047 62.5035C488.95 62.4469 488.862 62.3765 488.785 62.2944C488.71 62.218 488.668 62.1152 488.668 62.0081C488.668 61.901 488.71 61.7982 488.785 61.7218C488.737 61.6561 488.718 61.5745 488.73 61.4946C488.83 60.2493 488.957 59.0132 489.102 57.8589C489.125 57.7748 489.173 57.6991 489.237 57.6408C489.237 57.6408 489.237 57.6407 489.237 57.5589C489.224 57.4939 489.225 57.4268 489.24 57.3622C489.255 57.2975 489.284 57.2369 489.324 57.1843C489.365 57.1318 489.416 57.0885 489.474 57.0575C489.533 57.0265 489.597 57.0084 489.663 57.0045L489.627 56.9863Z" fill="#321951"/>
<path d="M551.759 130.263C541.411 138.797 528.64 143.832 515.271 144.648C501.901 145.464 488.616 142.02 477.313 134.808C474.795 91.1797 501.953 88.2621 501.953 88.2621H502.234C502.321 89.0801 502.342 89.9038 502.298 90.7253C502.732 96.1788 509.354 100.887 515.714 99.4327C521.086 98.1966 527.762 92.2704 526.72 82.6359L526.675 81.8906H527.227C545.227 81.2907 557.729 88.5438 566.353 99.4509C567.767 101.249 569.077 103.127 570.275 105.077C566.276 114.881 559.914 123.535 551.759 130.263Z" fill="#F4825C"/>
<path d="M501.637 84.054C501.864 85.1993 502.136 86.7808 502.28 88.2623H502C502 88.2623 474.823 91.2072 477.36 134.808C467.153 128.303 459.006 119.013 453.876 108.026C448.746 97.0398 446.845 84.8134 448.396 72.7813C449.947 60.7492 454.886 49.4104 462.633 40.0952C470.381 30.78 480.615 23.8748 492.135 20.1896C503.656 16.5044 515.985 16.1922 527.676 19.2894C539.367 22.3867 549.936 28.765 558.141 37.6762C566.347 46.5873 571.85 57.6616 574.004 69.5999C576.158 81.5382 574.874 93.8453 570.303 105.077C569.105 103.127 567.796 101.249 566.381 99.4511C557.757 88.5441 545.256 81.2728 527.256 81.8908H526.703C526.033 81.9059 525.373 82.0477 524.755 82.3089C522.4 80.9253 520.624 78.7331 519.755 76.1374L519.818 76.0283C520.631 76.5623 521.529 76.9527 522.473 77.1826C523.753 77.4662 525.078 77.4768 526.362 77.2138C527.646 76.9507 528.861 76.4199 529.928 75.6556C531.843 74.3083 533.182 72.2865 533.678 69.9931C534.027 68.4737 533.98 66.8899 533.542 65.3939C533.284 64.4249 532.871 63.5041 532.319 62.6672C533.477 60.9443 534.298 59.0165 534.738 56.9865C536.55 48.5517 531.713 40.3169 523.868 38.5718C520.654 37.8756 517.299 38.3391 514.392 39.8806C515.298 34.9543 511.339 29.937 505.397 28.6282C503.56 28.1701 501.64 28.1631 499.799 28.6077C497.959 29.0523 496.253 29.9354 494.825 31.1823C492.376 30.6748 489.826 31.1645 487.736 32.5434C485.646 33.9224 484.188 36.0778 483.683 38.5354C483.177 40.993 483.665 43.5515 485.039 45.6481C486.414 47.7447 488.562 49.2077 491.011 49.7151L490.939 50.006C490.325 52.296 489.886 54.6296 489.625 56.9865H489.571C489.505 56.9903 489.44 57.0084 489.382 57.0394C489.324 57.0705 489.272 57.1137 489.232 57.1663C489.192 57.2188 489.163 57.2795 489.148 57.3441C489.133 57.4087 489.132 57.4758 489.145 57.5409C489.145 57.5409 489.145 57.5409 489.145 57.6227C489.08 57.6811 489.033 57.7567 489.009 57.8408C488.864 59.0224 488.738 60.2586 488.638 61.4765C488.626 61.5565 488.645 61.6381 488.692 61.7037C488.618 61.7802 488.576 61.883 488.576 61.99C488.576 62.0971 488.618 62.1999 488.692 62.2764C488.769 62.3584 488.858 62.4289 488.955 62.4854C488.721 65.532 488.781 68.5943 489.136 71.6291C489.643 75.6556 490.884 79.3095 493.348 81.6272C493.576 81.8683 493.828 82.0846 494.1 82.2726C496.29 83.8177 498.99 84.4558 501.637 84.054Z" fill="white"/>
<path d="M447.782 80.9367C447.775 91.6905 450.479 102.271 455.642 111.695C460.806 121.119 468.261 129.079 477.314 134.836C489.236 142.428 503.337 145.826 517.395 144.493C531.454 143.161 544.671 137.174 554.965 127.476C565.26 117.778 572.046 104.919 574.256 90.9253C576.466 76.9316 573.974 62.5979 567.172 50.1816C560.37 37.7653 549.645 27.972 536.686 22.344C523.727 16.716 509.27 15.5732 495.593 19.0955C481.915 22.6179 469.794 30.6052 461.138 41.7996C452.482 52.9939 447.783 66.7593 447.782 80.9276V80.9367ZM511.402 151.432C497.506 151.434 483.921 147.301 472.365 139.556C460.81 131.811 451.803 120.802 446.484 107.921C441.164 95.0393 439.772 80.8646 442.482 67.1892C445.192 53.5138 451.883 40.9518 461.708 31.0919C471.534 21.232 484.053 14.517 497.683 11.7962C511.312 9.07534 525.44 10.4709 538.278 15.8062C551.117 21.1416 562.091 30.1772 569.812 41.7704C577.532 53.3636 581.653 66.9935 581.653 80.9367C581.653 99.6317 574.252 117.561 561.078 130.781C547.903 144.002 530.035 151.43 511.402 151.432Z" fill="#00DA9C"/>
<path d="M489.625 56.9863C489.882 54.605 490.321 52.2469 490.939 49.9331" stroke="#321951" stroke-width="1.2" stroke-linecap="round" stroke-linejoin="round"/>
<path d="M508.055 82.4361C505.987 83.2708 503.813 83.8123 501.596 84.0449C498.989 84.4003 496.344 83.7507 494.195 82.2271C493.923 82.0392 493.671 81.8229 493.443 81.5818C490.979 79.3095 489.738 75.6556 489.231 71.5837C488.876 68.5488 488.815 65.4866 489.05 62.4399" stroke="#321951" stroke-width="1.2" stroke-linecap="round" stroke-linejoin="round"/>
<path d="M501.637 84.0542C501.863 85.1994 502.135 86.781 502.28 88.2625C502.366 89.0805 502.388 89.9042 502.343 90.7257" stroke="#321951" stroke-width="1.2" stroke-linecap="round" stroke-linejoin="round"/>
<path d="M526.72 82.6362C527.761 92.2708 521.085 98.1969 515.713 99.433C509.372 100.887 502.732 96.1791 502.297 90.7256" stroke="#321951" stroke-width="1.2" stroke-linecap="round" stroke-linejoin="round"/>
<path d="M496.003 75.6556C495.825 75.9365 495.578 76.1673 495.287 76.3263C494.995 76.4853 494.668 76.5673 494.336 76.5645C494.006 76.5573 493.684 76.4648 493.4 76.2961C493.116 76.1273 492.88 75.888 492.715 75.6011" stroke="#321951" stroke-width="1.2" stroke-linecap="round" stroke-linejoin="round"/>
<path d="M496.922 56.1866C497.088 55.8965 497.326 55.655 497.614 55.486C497.902 55.317 498.228 55.2264 498.562 55.2231C498.894 55.2299 499.219 55.322 499.506 55.4906C499.793 55.6593 500.033 55.8989 500.201 56.1866" stroke="#321951" stroke-width="1.2" stroke-linecap="round" stroke-linejoin="round"/>
<path d="M491.916 56.0049C491.75 55.7143 491.512 55.472 491.224 55.3015C490.937 55.131 490.61 55.0383 490.277 55.0324C490.165 55.0185 490.053 55.0185 489.941 55.0324" stroke="#321951" stroke-width="1.2" stroke-linecap="round" stroke-linejoin="round"/>
<path d="M492.976 61.8311L492.496 69.8204C492.674 69.8341 492.853 69.8341 493.031 69.8204V69.8204C493.745 69.8631 494.459 69.7353 495.114 69.4478" stroke="#321951" stroke-width="1.2" stroke-linecap="round" stroke-linejoin="round"/>
<path d="M570.302 105.087C569.104 103.137 567.795 101.258 566.38 99.4605C557.756 88.5535 545.255 81.2822 527.255 81.9002H526.702C526.032 81.9153 525.372 82.0571 524.754 82.3183C522.398 80.9325 520.621 78.7368 519.754 76.1377" stroke="#321951" stroke-width="1.2" stroke-linecap="round" stroke-linejoin="round"/>
<path d="M537.871 113.339C537.871 113.339 545.019 118.484 551.74 130.227" stroke="#321951" stroke-width="1.2" stroke-linecap="round" stroke-linejoin="round"/>
<path d="M487.879 115.912C488.315 124.415 489.222 132.887 490.597 141.289" stroke="#321951" stroke-width="1.2" stroke-linecap="round" stroke-linejoin="round"/>
<path d="M515.679 72.2108C516.392 73.1773 517.223 74.0505 518.152 74.8103V74.8103C518.685 75.269 519.248 75.6911 519.837 76.0737C520.647 76.5898 521.538 76.9648 522.473 77.1826C523.753 77.4661 525.078 77.4768 526.362 77.2137C527.647 76.9507 528.862 76.4198 529.928 75.6556V75.6556C531.843 74.3082 533.183 72.2864 533.679 69.993C534.027 68.4736 533.981 66.8899 533.543 65.3939C533.284 64.4248 532.871 63.504 532.32 62.6671C533.477 60.9442 534.298 59.0165 534.739 56.9864C536.55 48.5516 531.713 40.3168 523.868 38.5717C520.654 37.8756 517.299 38.339 514.393 39.8805C515.298 34.9542 511.34 29.937 505.397 28.6281C503.56 28.1701 501.64 28.163 499.8 28.6076C497.96 29.0522 496.253 29.9354 494.825 31.1822C492.376 30.6748 489.826 31.1644 487.736 32.5434C485.647 33.9224 484.189 36.0777 483.683 38.5353C483.177 40.9929 483.665 43.5515 485.04 45.6481C486.414 47.7447 488.562 49.2076 491.012 49.715V49.715C492.377 50.022 493.794 50.018 495.158 49.7034C496.522 49.3889 497.798 48.7717 498.893 47.8972C499.03 48.9685 499.493 49.9712 500.22 50.7684C500.946 51.5655 501.9 52.1182 502.951 52.3509C503.96 52.5711 505.012 52.4921 505.977 52.1237L507.906 51.8692C505.008 63.6306 512.336 66.0392 512.336 66.0392C512.42 65.9243 512.51 65.815 512.608 65.712C513.07 65.2479 513.62 64.8804 514.225 64.6307C514.83 64.3811 515.478 64.2543 516.132 64.2577C518.686 64.2577 520.788 65.9574 520.815 68.1752C520.842 70.3929 518.831 72.238 516.286 72.2835C516.077 72.2835 515.887 72.2835 515.697 72.2835C514.659 72.195 513.676 71.7781 512.889 71.0928" stroke="#321951" stroke-width="1.2" stroke-linecap="round" stroke-linejoin="round"/>
<path d="M477.314 134.844C489.236 142.437 503.337 145.834 517.395 144.502C531.453 143.17 544.671 137.183 554.965 127.485C565.259 117.787 572.046 104.928 574.256 90.9343C576.466 76.9406 573.974 62.6068 567.172 50.1905C560.37 37.7742 549.645 27.9809 536.686 22.3529C523.727 16.725 509.27 15.5822 495.592 19.1045C481.915 22.6268 469.793 30.6142 461.138 41.8085C452.482 53.0029 447.783 66.7682 447.782 80.9365C447.737 91.6989 450.424 102.295 455.591 111.727C460.758 121.159 468.234 129.114 477.314 134.844" stroke="#321951" stroke-width="1.2" stroke-linecap="round" stroke-linejoin="round"/>
<path d="M441.133 80.9363C441.131 94.8791 445.25 108.509 452.969 120.103C460.688 131.697 471.66 140.734 484.497 146.071C497.335 151.409 511.462 152.807 525.091 150.088C538.721 147.37 551.241 140.658 561.068 130.8C570.896 120.942 577.589 108.382 580.302 94.7074C583.014 81.0329 581.625 66.8584 576.309 53.9763C570.992 41.0942 561.988 30.0831 550.435 22.3354C538.882 14.5878 525.298 10.4515 511.402 10.4497C502.175 10.4485 493.039 12.2708 484.514 15.8124C475.989 19.354 468.243 24.5457 461.718 31.091C455.193 37.6363 450.017 45.407 446.485 53.9595C442.953 62.512 441.134 71.6787 441.133 80.9363V80.9363Z" stroke="#321951" stroke-width="1.2" stroke-linecap="round" stroke-linejoin="round"/>
<path d="M501.955 88.2896C501.955 88.2896 474.779 91.2344 477.316 134.835" stroke="#321951" stroke-width="1.2" stroke-linecap="round" stroke-linejoin="round"/>
<path d="M400.07 38.5809C400.065 45.913 402.227 53.0819 406.283 59.1809C410.339 65.2799 416.107 70.035 422.856 72.8446C429.606 75.6542 437.035 76.3921 444.203 74.965C451.37 73.5379 457.955 70.0099 463.124 64.8272C468.294 59.6446 471.815 53.0402 473.242 45.8494C474.67 38.6586 473.94 31.2045 471.145 24.4301C468.349 17.6556 463.614 11.8651 457.539 7.79108C451.463 3.71704 444.32 1.54248 437.012 1.54248C427.219 1.54007 417.825 5.44068 410.897 12.3865C403.97 19.3323 400.075 28.7545 400.07 38.5809Z" fill="#00DA9C" stroke="#321951" stroke-width="1.2" stroke-linecap="round" stroke-linejoin="round"/>
<path d="M425.997 40.8441H419.565V47.1611H414.791V40.8441H408.387V36.2995H414.791V30.0098H419.565V36.3177H425.997V40.8441Z" fill="white" stroke="#321951" stroke-width="1.5" stroke-linecap="round" stroke-linejoin="round"/>
<path d="M438.917 25.5923V51.5783H432.92V30.4186H427.738V25.5923H438.917Z" fill="white" stroke="#321951" stroke-width="1.5" stroke-linecap="round" stroke-linejoin="round"/>
<path d="M448.796 50.4238C447.064 49.3014 445.694 47.697 444.856 45.8065C443.844 43.5202 443.355 41.0357 443.424 38.5352C443.363 36.0529 443.851 33.5878 444.856 31.3184C445.694 29.4254 447.063 27.818 448.796 26.692C450.527 25.6451 452.51 25.0918 454.531 25.0918C456.551 25.0918 458.534 25.6451 460.265 26.692C461.996 27.8204 463.364 29.4271 464.205 31.3184C465.206 33.5886 465.692 36.0536 465.628 38.5352C465.7 41.0351 465.214 43.5195 464.205 45.8065C463.364 47.6953 461.995 49.299 460.265 50.4238C458.534 51.4708 456.551 52.024 454.531 52.024C452.51 52.024 450.527 51.4708 448.796 50.4238ZM458.254 44.8976C459.16 43.5342 459.603 41.4346 459.603 38.5352C459.603 35.6357 459.151 33.5907 458.254 32.2273C457.861 31.5972 457.31 31.0812 456.657 30.7305C456.004 30.3797 455.271 30.2064 454.531 30.2277C453.792 30.2127 453.063 30.3939 452.417 30.7531C451.771 31.1123 451.231 31.6366 450.853 32.2727C449.947 33.6361 449.494 35.7388 449.494 38.5806C449.494 41.4346 449.947 43.5342 450.853 44.9431C451.237 45.5697 451.78 46.0837 452.426 46.4331C453.071 46.7825 453.797 46.9552 454.531 46.9336C455.275 46.952 456.011 46.7736 456.664 46.4162C457.318 46.0588 457.866 45.535 458.254 44.8976Z" fill="white" stroke="#321951" stroke-width="1.5" stroke-linecap="round" stroke-linejoin="round"/>
<path d="M583.039 403.966H582.976C585.168 397.14 581.726 388.914 578.646 382.843C575.928 377.453 570.402 368.809 563.762 368.182C554.033 356.366 539.303 360.229 539.303 360.229C530.335 357.329 517.843 363.092 512.462 367.945C509.499 370.585 507.059 373.761 505.269 377.307L505.342 377.444C501.03 379.761 498.865 384.842 497.189 389.332C495.241 394.586 494.127 400.539 496.5 405.884C494.888 411.801 496.826 418.436 500.631 423.153H500.722C500.975 427.78 505.251 432.406 508.231 435.033C514.274 440.332 521.348 445.294 529.411 446.849C531.175 447.28 533.025 447.201 534.746 446.621L534.81 446.503C540.97 450.048 551.007 447.867 556.651 444.067V443.722C559.839 443.495 566.045 441.641 573.763 432.442C587.351 416.145 583.039 403.966 583.039 403.966Z" fill="#FBC22D"/>
<path d="M504.638 390.441C503.525 392.384 502.854 394.549 502.674 396.782C502.494 399.015 502.809 401.261 503.596 403.357" stroke="#321951" stroke-width="1.2" stroke-linecap="round" stroke-linejoin="round"/>
<path d="M509.683 396.922C509.683 398.127 509.206 399.283 508.356 400.136C507.507 400.988 506.355 401.467 505.153 401.467C504.347 401.47 503.555 401.253 502.861 400.84C502.325 398.119 502.554 395.302 503.523 392.705C504.044 392.507 504.596 392.406 505.153 392.405C506.35 392.405 507.498 392.88 508.347 393.726C509.195 394.573 509.676 395.722 509.683 396.922Z" fill="#321951"/>
<path d="M541.065 360.919C540.479 360.636 539.873 360.396 539.253 360.201C530.285 357.302 517.792 363.064 512.411 367.918C509.449 370.558 507.009 373.734 505.219 377.28" stroke="#321951" stroke-width="1.2" stroke-linecap="round" stroke-linejoin="round"/>
<path d="M507.86 376.453C506.972 376.66 506.116 376.984 505.314 377.417C501.002 379.734 498.837 384.815 497.161 389.305C495.214 394.559 494.099 400.512 496.473 405.857" stroke="#321951" stroke-width="1.2" stroke-linecap="round" stroke-linejoin="round"/>
<path d="M497.41 403.357C497.037 404.163 496.733 404.999 496.504 405.857C494.892 411.774 496.83 418.409 500.635 423.126" stroke="#321951" stroke-width="1.2" stroke-linecap="round" stroke-linejoin="round"/>
<path d="M500.915 420.936C500.74 421.652 500.673 422.39 500.715 423.126C500.969 427.752 505.245 432.379 508.225 435.006C514.267 440.305 521.342 445.267 529.405 446.821C531.169 447.253 533.019 447.174 534.74 446.594" stroke="#321951" stroke-width="1.2" stroke-linecap="round" stroke-linejoin="round"/>
<path d="M532.789 444.967C533.393 445.551 534.069 446.055 534.8 446.467C540.96 450.012 550.997 447.831 556.641 444.031" stroke="#321951" stroke-width="1.2" stroke-linecap="round" stroke-linejoin="round"/>
<path d="M539.277 360.202C539.277 360.202 554.034 356.357 563.736 368.155C564.18 368.7 564.642 369.273 565.041 369.882" stroke="#321951" stroke-width="1.2" stroke-linecap="round" stroke-linejoin="round"/>
<path d="M563.766 368.155C570.406 368.782 575.913 377.426 578.649 382.816C581.729 388.887 585.172 397.113 582.979 403.939C582.649 404.982 582.186 405.978 581.602 406.902" stroke="#321951" stroke-width="1.2" stroke-linecap="round" stroke-linejoin="round"/>
<path d="M583.04 403.966C583.04 403.966 587.352 416.146 573.719 432.406C566.001 441.605 559.795 443.459 556.607 443.686C555.826 443.773 555.036 443.73 554.27 443.559" stroke="#321951" stroke-width="1.2" stroke-linecap="round" stroke-linejoin="round"/>
<path d="M530.317 397.358C530.323 398.317 530.061 399.257 529.561 400.074C529.061 400.89 528.343 401.55 527.488 401.978C526.634 402.405 525.677 402.584 524.726 402.494C523.775 402.404 522.869 402.048 522.109 401.467C522.801 400.168 523.214 398.739 523.322 397.27C523.429 395.802 523.229 394.327 522.734 392.941C523.491 392.511 524.347 392.285 525.217 392.287C526.561 392.289 527.85 392.823 528.804 393.772C529.759 394.721 530.302 396.01 530.317 397.358Z" fill="#321951"/>
<path d="M521.429 390.441C525.261 394.241 522.906 401.058 520.125 404.448" stroke="#321951" stroke-width="1.2" stroke-linecap="round" stroke-linejoin="round"/>
<path d="M532.628 370.127C529.812 370.044 527.008 370.521 524.377 371.532C521.746 372.543 519.341 374.067 517.301 376.017" stroke="#321951" stroke-width="1.2" stroke-linecap="round" stroke-linejoin="round"/>
<path d="M529.928 370.236C526.084 370.609 522.41 372.006 519.284 374.281C518.731 373.375 518.44 372.334 518.441 371.272C518.438 369.82 518.978 368.419 519.953 367.346C520.929 366.273 522.27 365.605 523.712 365.475C525.154 365.345 526.592 365.762 527.742 366.643C528.893 367.524 529.673 368.806 529.928 370.236Z" fill="#321951"/>
<path d="M540.473 379.116C543.045 382.561 547.312 384.979 551.669 384.233" stroke="#321951" stroke-width="1.2" stroke-linecap="round" stroke-linejoin="round"/>
<path d="M549.841 384.37C549.818 385.143 549.605 385.898 549.221 386.569C548.838 387.24 548.295 387.805 547.641 388.215C546.987 388.624 546.243 388.866 545.474 388.918C544.704 388.969 543.934 388.83 543.232 388.512C542.529 388.193 541.916 387.706 541.446 387.092C540.977 386.479 540.665 385.759 540.539 384.996C540.414 384.233 540.477 383.451 540.725 382.718C540.973 381.986 541.397 381.326 541.96 380.798C544.053 382.931 546.863 384.205 549.841 384.37Z" fill="#321951"/>
<path d="M546.023 368.746C547.954 368.73 549.865 369.139 551.621 369.945C553.377 370.751 554.936 371.933 556.187 373.408" stroke="#321951" stroke-width="1.2" stroke-linecap="round" stroke-linejoin="round"/>
<path d="M555.602 369.891C555.603 370.688 555.373 371.468 554.941 372.136C552.871 370.271 550.269 369.108 547.504 368.809C547.766 367.843 548.369 367.005 549.2 366.451C550.032 365.897 551.035 365.665 552.025 365.797C553.014 365.929 553.922 366.417 554.58 367.17C555.238 367.923 555.601 368.89 555.602 369.891Z" fill="#321951"/>
<path d="M567.051 383.352C568.705 384.461 570.057 385.967 570.983 387.734C571.908 389.501 572.378 391.472 572.35 393.468" stroke="#321951" stroke-width="1.2" stroke-linecap="round" stroke-linejoin="round"/>
<path d="M575.434 386.924C575.434 387.86 575.089 388.764 574.466 389.46C573.842 390.157 572.983 390.597 572.055 390.696C571.561 388.371 570.373 386.253 568.648 384.624C569.127 383.992 569.792 383.527 570.548 383.294C571.305 383.061 572.115 383.073 572.865 383.327C573.615 383.581 574.266 384.065 574.727 384.71C575.188 385.356 575.435 386.13 575.434 386.924Z" fill="#321951"/>
<path d="M565.804 399.776C564.465 402.078 563.675 404.658 563.496 407.317C563.317 409.976 563.753 412.64 564.771 415.101" stroke="#321951" stroke-width="1.2" stroke-linecap="round" stroke-linejoin="round"/>
<path d="M563.937 412.665C562.83 413.397 561.531 413.786 560.205 413.782C559.091 413.784 557.993 413.514 557.007 412.995C556.021 412.475 555.175 411.723 554.544 410.802C553.912 409.881 553.514 408.82 553.383 407.71C553.253 406.6 553.393 405.475 553.793 404.432C554.193 403.389 554.84 402.459 555.679 401.723C556.517 400.987 557.522 400.467 558.605 400.209C559.689 399.95 560.819 399.96 561.898 400.237C562.977 400.515 563.972 401.053 564.798 401.803C563.35 405.235 563.048 409.046 563.937 412.665Z" fill="#321951"/>
<path d="M570.197 426.316C569.544 428.407 568.431 430.324 566.94 431.924C565.449 433.524 563.617 434.767 561.582 435.56" stroke="#321951" stroke-width="1.2" stroke-linecap="round" stroke-linejoin="round"/>
<path d="M569.345 428.507C568.001 431.19 565.862 433.391 563.221 434.806C562.438 434.544 561.733 434.087 561.174 433.477C560.615 432.867 560.219 432.125 560.024 431.32C559.829 430.515 559.842 429.673 560.06 428.874C560.278 428.075 560.695 427.344 561.272 426.751C561.848 426.158 562.566 425.722 563.356 425.483C564.147 425.244 564.986 425.211 565.793 425.387C566.6 425.562 567.349 425.941 567.97 426.486C568.592 427.032 569.065 427.727 569.345 428.507Z" fill="#321951"/>
<path d="M530.906 419.49C534.05 418.854 537.746 419.699 539.594 422.508" stroke="#321951" stroke-width="1.2" stroke-linecap="round" stroke-linejoin="round"/>
<path d="M539.596 418.173C539.59 418.71 539.456 419.237 539.205 419.712C538.955 420.186 538.595 420.593 538.155 420.899C536.693 419.824 534.922 419.253 533.109 419.272C532.943 418.812 532.88 418.321 532.923 417.833C532.967 417.345 533.116 416.873 533.361 416.449C533.606 416.026 533.94 415.661 534.34 415.381C534.741 415.101 535.197 414.912 535.678 414.828C536.159 414.744 536.652 414.766 537.123 414.894C537.594 415.021 538.032 415.25 538.405 415.566C538.779 415.881 539.079 416.275 539.284 416.719C539.49 417.163 539.596 417.647 539.596 418.136V418.173Z" fill="#321951"/>
<path d="M546.851 439.887C542.014 442.204 536.307 442.077 532.031 438.587" stroke="#321951" stroke-width="1.2" stroke-linecap="round" stroke-linejoin="round"/>
<path d="M544.957 438.059C544.955 439.06 544.686 440.043 544.178 440.904C540.871 441.907 537.308 441.608 534.213 440.068C533.961 439.429 533.832 438.747 533.833 438.059C533.802 437.311 533.923 436.563 534.188 435.863C534.453 435.162 534.856 434.522 535.374 433.982C535.891 433.441 536.512 433.011 537.199 432.717C537.886 432.423 538.625 432.272 539.372 432.272C540.119 432.272 540.858 432.423 541.545 432.717C542.233 433.011 542.853 433.441 543.371 433.982C543.888 434.522 544.291 435.162 544.556 435.863C544.821 436.563 544.942 437.311 544.912 438.059H544.957Z" fill="#321951"/>
<path d="M506.016 421.908C510.681 422.726 514.612 425.817 515.319 430.643" stroke="#321951" stroke-width="1.2" stroke-linecap="round" stroke-linejoin="round"/>
<path d="M518.605 423.581C518.606 424.713 518.229 425.814 517.535 426.706C516.841 427.599 515.868 428.233 514.773 428.507C514.221 427.138 513.383 425.903 512.316 424.886C511.249 423.868 509.977 423.092 508.586 422.608C508.823 421.367 509.514 420.26 510.522 419.503C511.53 418.746 512.784 418.394 514.037 418.516C515.29 418.637 516.453 419.224 517.298 420.161C518.143 421.098 518.609 422.317 518.605 423.581Z" fill="#321951"/>
<path d="M403.414 171.374C363.945 207.34 342.657 248.387 355.919 263.038C369.181 277.69 411.939 260.412 451.435 224.437C490.932 188.462 518.027 153.614 498.922 132.772C479.816 111.931 442.911 135.399 403.414 171.374Z" fill="#FDC8B4" stroke="black" stroke-width="1.2" stroke-linecap="round" stroke-linejoin="round"/>
<path d="M416.982 134.89V466.072H173.48V134.89C173.504 127.448 176.461 120.319 181.705 115.057C186.95 109.795 194.056 106.828 201.472 106.804H388.99C396.406 106.828 403.512 109.795 408.757 115.057C414.001 120.319 416.958 127.448 416.982 134.89Z" fill="#F1E6FF" stroke="#321951" stroke-width="1.2" stroke-miterlimit="10"/>
<path d="M459.137 411.91C479.664 396.867 493.161 380.534 483.124 366.573C472.254 351.467 453.303 360.683 432.784 375.735C412.266 390.787 398.361 406.829 408.806 421.072C419.251 435.315 438.618 426.962 459.137 411.91Z" fill="#FDC8B4" stroke="#321951" stroke-width="1.2" stroke-linecap="round" stroke-linejoin="round"/>
<path d="M366.372 338.133H224.094C219.091 338.133 215.035 342.203 215.035 347.222V400.303C215.035 405.323 219.091 409.392 224.094 409.392H366.372C371.375 409.392 375.431 405.323 375.431 400.303V347.222C375.431 342.203 371.375 338.133 366.372 338.133Z" fill="white"/>
<path d="M366.372 338.133H224.094C219.091 338.133 215.035 342.203 215.035 347.222V400.303C215.035 405.323 219.091 409.392 224.094 409.392H366.372C371.375 409.392 375.431 405.323 375.431 400.303V347.222C375.431 342.203 371.375 338.133 366.372 338.133Z" stroke="black" stroke-width="1.2" stroke-linecap="round" stroke-linejoin="round"/>
<path d="M288.991 372.781C286.322 370.545 282.185 369.427 276.581 369.427H273.356L273.981 361.847H290.568V354.439H266.299L264.297 376.926H274.461C277.867 376.926 280.262 377.362 281.645 378.234C282.305 378.633 282.845 379.204 283.209 379.885C283.572 380.567 283.746 381.334 283.71 382.106C283.736 382.86 283.567 383.608 283.219 384.277C282.871 384.946 282.357 385.513 281.726 385.924C280.094 386.921 278.199 387.4 276.291 387.296C274.23 387.309 272.18 387.003 270.213 386.387C268.337 385.806 266.573 384.912 264.995 383.743L261.371 390.805C263.463 392.268 265.802 393.339 268.274 393.968C270.966 394.708 273.745 395.081 276.536 395.077C279.692 395.169 282.828 394.547 285.712 393.259C287.984 392.24 289.909 390.574 291.247 388.469C292.459 386.471 293.086 384.172 293.059 381.834C293.123 380.112 292.788 378.399 292.083 376.829C291.377 375.258 290.319 373.873 288.991 372.781Z" fill="#FBC22D" stroke="black" stroke-width="1.2" stroke-linecap="round" stroke-linejoin="round"/>
<path d="M327.29 376.571C326.056 375.048 324.466 373.855 322.661 373.099C320.481 372.212 318.229 371.515 315.93 371.018V361.329C318.997 361.713 321.953 362.722 324.617 364.292L327.462 357.284C323.957 355.202 319.998 354.011 315.93 353.812V347.604H310.25V353.921C305.938 354.418 302.635 355.796 300.34 358.057C299.24 359.098 298.367 360.357 297.776 361.754C297.185 363.151 296.889 364.656 296.907 366.173C296.797 368.373 297.461 370.541 298.782 372.299C300.025 373.833 301.624 375.038 303.438 375.808C305.646 376.714 307.925 377.437 310.25 377.971V387.487C308.211 387.299 306.207 386.837 304.289 386.115C302.489 385.465 300.787 384.566 299.235 383.443L296.109 390.387C297.963 391.758 300.038 392.8 302.242 393.468C304.835 394.313 307.528 394.811 310.25 394.95V401.158H315.93V394.795C320.218 394.268 323.494 392.892 325.759 390.669C326.849 389.643 327.714 388.402 328.3 387.024C328.887 385.645 329.181 384.16 329.165 382.661C329.272 380.473 328.608 378.317 327.29 376.571ZM310.25 369.591C309.118 369.289 308.057 368.767 307.125 368.055C306.78 367.773 306.504 367.416 306.317 367.012C306.13 366.607 306.038 366.165 306.047 365.719C306.038 364.754 306.405 363.824 307.071 363.128C307.946 362.281 309.053 361.715 310.25 361.501V369.591ZM319.001 385.779C318.135 386.55 317.071 387.063 315.93 387.26V379.398C317.032 379.732 318.062 380.272 318.965 380.989C319.305 381.273 319.576 381.631 319.758 382.035C319.94 382.44 320.028 382.881 320.016 383.325C320.023 383.781 319.936 384.235 319.762 384.657C319.587 385.079 319.328 385.461 319.001 385.779Z" fill="#FBC22D" stroke="black" stroke-width="1.2" stroke-linecap="round" stroke-linejoin="round"/>
<path d="M449.17 371.036C475.123 353.058 492.407 333.261 480.422 315.592C467.45 296.505 443.644 307.284 417.699 325.263C391.755 343.241 373.936 362.665 386.455 380.707C398.975 398.749 423.225 389.005 449.17 371.036Z" fill="#FDC8B4" stroke="#321951" stroke-width="1.2" stroke-linecap="round" stroke-linejoin="round"/>
<path d="M418.776 248.668C413.404 252.731 407.905 257.412 402.379 262.457C376.027 286.461 358.996 310.884 375.683 329.153C392.369 347.422 418.069 332.925 444.421 308.921C470.773 284.916 487.142 260.166 471.117 242.224C457.402 226.891 438.922 233.426 418.776 248.668Z" fill="#FDC8B4" stroke="#321951" stroke-width="1.2" stroke-linecap="round" stroke-linejoin="round"/>
<path d="M278.637 121.165C278.637 122.382 278.996 123.572 279.67 124.584C280.344 125.596 281.302 126.384 282.423 126.85C283.543 127.316 284.776 127.438 285.966 127.2C287.156 126.963 288.248 126.377 289.106 125.516C289.964 124.656 290.548 123.559 290.785 122.366C291.021 121.172 290.9 119.935 290.436 118.81C289.971 117.686 289.185 116.725 288.177 116.049C287.168 115.373 285.983 115.012 284.77 115.012C283.144 115.014 281.585 115.663 280.436 116.817C279.286 117.97 278.639 119.534 278.637 121.165Z" fill="#321951" stroke="#321951" stroke-width="1.2" stroke-miterlimit="10"/>
<path d="M299.555 121.165C299.555 122.382 299.914 123.572 300.588 124.584C301.262 125.596 302.22 126.384 303.341 126.85C304.461 127.316 305.694 127.438 306.884 127.2C308.074 126.963 309.166 126.377 310.024 125.516C310.882 124.656 311.466 123.559 311.703 122.366C311.939 121.172 311.818 119.935 311.354 118.81C310.889 117.686 310.103 116.725 309.095 116.049C308.086 115.373 306.9 115.012 305.688 115.012C304.062 115.014 302.503 115.663 301.354 116.817C300.204 117.97 299.557 119.534 299.555 121.165Z" fill="#321951" stroke="#321951" stroke-width="1.2" stroke-miterlimit="10"/>
<path d="M249.089 466.073H119.484C115.688 442.686 105.28 385.179 88.6841 342.36C74.7335 306.294 141.488 318.219 173.457 374.963C179.761 386.169 184.29 398.29 186.882 410.892L194.129 438.887C194.129 438.887 233.299 444.55 249.089 466.073Z" fill="#FDC8B4" stroke="#321951" stroke-width="1.2" stroke-linecap="round" stroke-linejoin="round"/>
<path d="M312.182 293.769C312.143 297.127 311.111 300.398 309.218 303.169C307.325 305.939 304.656 308.083 301.548 309.331C298.44 310.579 295.033 310.874 291.758 310.178C288.483 309.483 285.487 307.828 283.15 305.424C280.812 303.02 279.237 299.975 278.625 296.673C278.013 293.37 278.391 289.96 279.71 286.874C281.03 283.787 283.233 281.162 286.039 279.332C288.846 277.501 292.131 276.547 295.478 276.59C297.699 276.616 299.894 277.082 301.936 277.959C303.978 278.837 305.828 280.11 307.379 281.705C308.931 283.301 310.153 285.187 310.978 287.257C311.802 289.327 312.211 291.54 312.182 293.769Z" fill="#00DA9C" stroke="#321951" stroke-width="1.2" stroke-linecap="round" stroke-linejoin="round"/>
<path d="M324.159 274.818C326.483 274.862 328.732 273.994 330.428 272.4C332.167 270.751 333.184 268.479 333.259 266.079C333.334 263.68 332.459 261.348 330.827 259.594C326.261 254.682 320.77 250.726 314.672 247.955C308.574 245.185 301.989 243.654 295.298 243.451C288.607 243.248 281.942 244.377 275.689 246.774C269.435 249.17 263.716 252.786 258.863 257.412C257.915 258.208 257.139 259.191 256.583 260.3C256.027 261.408 255.704 262.619 255.632 263.858C255.561 265.097 255.743 266.337 256.167 267.503C256.592 268.668 257.25 269.734 258.1 270.635C258.951 271.536 259.976 272.252 261.114 272.74C262.251 273.228 263.475 273.478 264.712 273.473C265.949 273.468 267.172 273.209 268.305 272.712C269.438 272.215 270.458 271.49 271.301 270.582C274.425 267.592 278.11 265.254 282.141 263.704C286.172 262.154 290.47 261.422 294.786 261.551C299.101 261.681 303.348 262.669 307.28 264.458C311.212 266.247 314.751 268.801 317.691 271.973C318.519 272.865 319.52 273.577 320.632 274.066C321.745 274.556 322.945 274.811 324.159 274.818Z" fill="#00DA9C" stroke="#321951" stroke-width="1.2" stroke-linecap="round" stroke-linejoin="round"/>
<path d="M346.588 252.895C348.357 252.907 350.091 252.399 351.575 251.434C353.06 250.469 354.23 249.089 354.942 247.464C355.654 245.839 355.876 244.041 355.581 242.291C355.287 240.541 354.488 238.916 353.283 237.616C345.884 229.662 336.974 223.274 327.078 218.826C317.182 214.378 306.499 211.961 295.658 211.716C284.818 211.471 274.037 213.404 263.952 217.401C253.867 221.398 244.68 227.378 236.931 234.989C235.973 235.791 235.191 236.783 234.633 237.902C234.075 239.022 233.753 240.245 233.688 241.495C233.623 242.745 233.816 243.995 234.255 245.166C234.694 246.338 235.369 247.406 236.239 248.303C237.108 249.201 238.153 249.909 239.308 250.382C240.463 250.856 241.703 251.085 242.95 251.055C244.197 251.025 245.425 250.737 246.556 250.209C247.687 249.681 248.697 248.925 249.523 247.987C255.553 242.055 262.705 237.395 270.559 234.281C278.412 231.166 286.807 229.66 295.249 229.851C303.691 230.043 312.01 231.928 319.714 235.395C327.419 238.863 334.354 243.842 340.111 250.041C340.945 250.928 341.948 251.638 343.061 252.128C344.173 252.619 345.373 252.879 346.588 252.895Z" fill="#00DA9C" stroke="#321951" stroke-width="1.2" stroke-linecap="round" stroke-linejoin="round"/>
<path d="M369.069 230.899C370.84 230.913 372.575 230.405 374.062 229.44C375.548 228.474 376.72 227.093 377.432 225.466C378.144 223.84 378.366 222.039 378.069 220.288C377.773 218.536 376.971 216.91 375.763 215.611C365.528 204.617 353.198 195.794 339.505 189.665C325.811 183.535 311.032 180.223 296.04 179.925C281.049 179.627 266.15 182.348 252.225 187.928C238.3 193.508 225.631 201.833 214.969 212.412C214.045 213.228 213.295 214.225 212.768 215.342C212.24 216.459 211.945 217.672 211.9 218.907C211.856 220.142 212.063 221.373 212.509 222.525C212.955 223.678 213.63 224.726 214.494 225.608C215.357 226.489 216.391 227.184 217.531 227.651C218.672 228.118 219.895 228.347 221.127 228.323C222.358 228.299 223.572 228.024 224.694 227.514C225.816 227.003 226.822 226.269 227.652 225.355C236.593 216.461 247.224 209.46 258.913 204.765C270.602 200.071 283.111 197.78 295.7 198.027C308.288 198.275 320.698 201.056 332.195 206.206C343.692 211.356 354.041 218.77 362.628 228.009C363.454 228.898 364.45 229.613 365.557 230.109C366.663 230.605 367.857 230.874 369.069 230.899Z" fill="#00DA9C" stroke="#321951" stroke-width="1.2" stroke-linecap="round" stroke-linejoin="round"/>
<path d="M308.389 50.8879C306.035 46.8337 304.769 42.2364 304.715 37.5449C304.661 32.8533 305.821 28.2279 308.081 24.1203C308.081 24.1203 288.948 28.8103 277.607 19.5757C277.607 19.5757 284.528 34.8092 275.469 45.3253C275.469 45.3708 293.985 38.3176 308.389 50.8879Z" fill="white"/>
<path d="M308.076 24.1199C308.076 24.1199 288.944 28.8099 277.602 19.5753C277.602 19.5753 284.523 34.8087 275.465 45.3249C275.465 45.3249 293.981 38.2717 308.384 50.8421C306.039 46.7933 304.778 42.2043 304.724 37.5216C304.67 32.8389 305.825 28.2219 308.076 24.1199ZM256.242 19.2753L256.287 19.1844C256.58 18.3591 256.934 17.557 257.347 16.7849C264.721 2.96023 286.399 0.224384 305.793 10.6588C323.911 20.3842 333.604 38.1172 328.767 51.6873C328.454 52.6594 328.056 53.6022 327.58 54.505C320.197 68.2933 298.519 71.0655 279.133 60.6311C260.898 50.8511 251.196 32.8636 256.242 19.2753Z" fill="#FBC22D"/>
<path d="M274.93 71.6017C294.334 81.9997 315.984 79.2639 323.385 65.4483C324.735 62.9215 328.594 54.5413 328.821 51.7055H328.775C328.462 52.6776 328.065 53.6204 327.589 54.5231C320.206 68.3114 298.528 71.0836 279.142 60.6493C260.907 50.8693 251.205 32.8818 256.251 19.2935L252.727 26.2467C245.344 40.0441 255.535 61.1673 274.93 71.6017Z" fill="#FBC22D"/>
<path d="M308.441 50.9334C308.423 50.9278 308.404 50.9278 308.387 50.9334" stroke="#321951" stroke-width="1.5" stroke-linecap="round" stroke-linejoin="round"/>
<path d="M308.389 50.8879C306.035 46.8337 304.769 42.2364 304.715 37.5449C304.661 32.8533 305.821 28.2279 308.081 24.1203C308.081 24.1203 288.948 28.8103 277.607 19.5757C277.607 19.5757 284.528 34.8092 275.469 45.3253C275.469 45.3708 293.985 38.3176 308.389 50.8879Z" stroke="#321951" stroke-width="1.5" stroke-linecap="round" stroke-linejoin="round"/>
<path d="M256.287 19.1844C256.58 18.3591 256.934 17.557 257.347 16.7849C264.721 2.96023 286.399 0.224384 305.793 10.6588C323.911 20.3842 333.604 38.1172 328.767 51.6873C328.454 52.6594 328.056 53.6022 327.58 54.505C320.197 68.2933 298.519 71.0655 279.133 60.6311C260.898 50.8511 251.196 32.8636 256.242 19.2753" stroke="#321951" stroke-width="1.5" stroke-linecap="round" stroke-linejoin="round"/>
<path d="M256.291 19.1846L256.246 19.2755L252.722 26.2287C245.348 40.0442 255.539 61.1675 274.934 71.6019C294.329 82.0363 315.989 79.2641 323.39 65.4485C324.74 62.9217 328.599 54.5415 328.825 51.7057" stroke="#321951" stroke-width="1.5" stroke-linecap="round" stroke-linejoin="round"/>
<path d="M30.5781 417.209C33.0521 414.004 34.6555 410.209 35.2318 406.196C35.8081 402.184 35.3377 398.089 33.8665 394.313C33.8665 394.313 49.7285 400.503 60.4813 393.932C60.4813 393.932 52.8266 406.184 59.4033 416.227C59.3942 416.227 44.3294 408.074 30.5781 417.209Z" fill="white"/>
<path d="M30.5768 417.209C44.3371 408.074 59.4019 416.227 59.4019 416.227C52.8162 406.184 60.4709 393.931 60.4709 393.931C49.7181 400.503 33.8561 394.313 33.8561 394.313C35.3285 398.088 35.8004 402.182 35.2257 406.195C34.651 410.208 33.0492 414.002 30.5768 417.209ZM54.5374 428.879C36.7458 435.624 18.4923 430.77 13.7727 418.127C13.4577 417.3 13.2212 416.445 13.0661 415.573C10.4571 403.393 20.7751 389.305 37.389 383.034C55.1805 376.308 73.4431 381.116 78.199 393.795C78.4561 394.509 78.6709 395.237 78.8422 395.977V396.058C81.5961 408.274 71.2509 422.581 54.5283 428.879H54.5374Z" fill="#FBC22D"/>
<path d="M56.8956 438.732C39.0859 445.431 20.8414 440.623 16.0674 427.944C15.1616 425.626 12.8425 418.009 12.9784 415.555C13.1335 416.427 13.3701 417.282 13.685 418.109C18.4499 430.752 36.7034 435.606 54.495 428.862C71.2176 422.563 81.5627 408.256 78.7726 396.041L81.0011 402.403C85.8385 415.101 74.6871 432.025 56.8956 438.732Z" fill="#FBC22D"/>
<path d="M30.5195 417.245C30.5195 417.245 30.5195 417.245 30.5738 417.245" stroke="#321951" stroke-width="1.5" stroke-linecap="round" stroke-linejoin="round"/>
<path d="M30.5781 417.209C33.0521 414.004 34.6555 410.209 35.2318 406.196C35.8081 402.184 35.3377 398.089 33.8665 394.313C33.8665 394.313 49.7285 400.503 60.4813 393.932C60.4813 393.932 52.8266 406.184 59.4033 416.227C59.3942 416.227 44.3294 408.074 30.5781 417.209Z" stroke="#321951" stroke-width="1.5" stroke-linecap="round" stroke-linejoin="round"/>
<path d="M78.7914 396.013C78.6201 395.274 78.4053 394.546 78.1482 393.832C73.3923 381.152 55.1297 376.344 37.3382 383.07C20.7243 389.342 10.4063 403.43 13.0153 415.609C13.1704 416.481 13.407 417.336 13.7219 418.163C18.4868 430.807 36.7403 435.66 54.5319 428.916C71.2545 422.617 81.5996 408.311 78.8095 396.095" stroke="#321951" stroke-width="1.5" stroke-linecap="round" stroke-linejoin="round"/>
<path d="M78.7921 396.013V396.095L81.0206 402.457C85.7856 415.137 74.6794 432.07 56.8789 438.814C39.0783 445.558 20.8429 440.65 16.087 427.971C15.1811 425.653 12.862 418.036 12.9979 415.582" stroke="#321951" stroke-width="1.5" stroke-linecap="round" stroke-linejoin="round"/>
<path d="M510.416 255.358C510.416 255.358 517.482 240.515 506.883 226.154C506.883 226.154 528.316 228.39 539.295 216.729C539.295 216.729 534.023 234.298 545.437 244.387C545.437 244.387 524.203 239.479 510.416 255.358Z" fill="white"/>
<path d="M549.94 272.827C530.373 286.97 506.458 287.215 496.384 273.327C494.509 270.791 489.083 262.284 488.395 259.212C488.911 260.202 489.496 261.156 490.143 262.066C500.198 275.945 524.141 275.699 543.671 261.493C562.124 248.059 569.942 227.009 562.333 213.066H562.387L567.252 220.201C577.352 234.089 569.417 258.575 549.94 272.827Z" fill="#FBC22D"/>
<path d="M545.439 244.387C534.025 234.298 539.297 216.729 539.297 216.729C528.318 228.39 506.885 226.154 506.885 226.154C517.484 240.515 510.418 255.358 510.418 255.358C524.205 239.479 545.439 244.387 545.439 244.387ZM562.379 213.084C570.016 227.027 562.171 248.078 543.718 261.511C524.187 275.736 500.236 275.963 490.189 262.084C489.542 261.174 488.958 260.22 488.441 259.23C481.194 245.178 489.139 224.418 507.365 211.203C526.841 196.969 550.847 196.715 560.875 210.639C561.452 211.405 561.956 212.223 562.379 213.084Z" fill="#FBC22D"/>
<path d="M539.295 216.729C539.295 216.729 534.023 234.298 545.437 244.387C545.437 244.387 524.203 239.479 510.416 255.358C510.416 255.358 517.482 240.515 506.883 226.154C506.883 226.154 528.316 228.39 539.295 216.729Z" stroke="#321951" stroke-width="1.5" stroke-linecap="round" stroke-linejoin="round"/>
<path d="M488.441 259.23C488.958 260.221 489.542 261.174 490.19 262.084C500.245 275.963 524.187 275.718 543.718 261.512C562.171 248.078 569.989 227.027 562.379 213.084C561.956 212.224 561.452 211.405 560.876 210.639C550.856 196.715 526.842 197.006 507.365 211.203C489.139 224.419 481.212 245.178 488.441 259.23Z" stroke="#321951" stroke-width="1.5" stroke-linecap="round" stroke-linejoin="round"/>
<path d="M562.432 213.057L567.297 220.192C577.352 234.089 569.417 258.575 549.94 272.827C530.464 287.079 506.458 287.215 496.384 273.327C494.509 270.791 489.083 262.284 488.395 259.211" stroke="#321951" stroke-width="1.5" stroke-linecap="round" stroke-linejoin="round"/>
<path d="M63.9337 221.328V244.869H58.4984V225.7H53.7969V221.328H63.9337Z" fill="white" stroke="black" stroke-width="1.2" stroke-linecap="round" stroke-linejoin="round"/>
<path d="M72.8842 243.833C71.3209 242.822 70.0816 241.379 69.315 239.679C67.5877 235.488 67.5877 230.781 69.315 226.591C70.0759 224.879 71.3159 223.427 72.8842 222.41C74.4513 221.458 76.2479 220.956 78.0794 220.956C79.9109 220.956 81.7076 221.458 83.2747 222.41C84.8429 223.427 86.0829 224.879 86.8438 226.591C88.5711 230.781 88.5711 235.488 86.8438 239.679C86.0831 241.393 84.8432 242.848 83.2747 243.869C81.7055 244.815 79.9097 245.314 78.0794 245.314C76.2491 245.314 74.4533 244.815 72.8842 243.869V243.833ZM81.4448 238.816C82.2601 237.604 82.6677 235.698 82.6677 233.098C82.6677 230.517 82.2601 228.617 81.4448 227.381C81.0868 226.814 80.5919 226.348 80.0059 226.024C79.4199 225.7 78.7619 225.531 78.093 225.531C77.4242 225.531 76.7662 225.7 76.1802 226.024C75.5942 226.348 75.0992 226.814 74.7412 227.381C73.9259 228.617 73.5183 230.517 73.5183 233.098C73.5183 235.68 73.9259 237.588 74.7412 238.816C75.0992 239.382 75.5942 239.849 76.1802 240.173C76.7662 240.496 77.4242 240.666 78.093 240.666C78.7619 240.666 79.4199 240.496 80.0059 240.173C80.5919 239.849 81.0868 239.382 81.4448 238.816Z" fill="white" stroke="black" stroke-width="1.2" stroke-linecap="round" stroke-linejoin="round"/>
<path d="M95.6498 243.833C94.0788 242.815 92.8383 241.359 92.0806 239.643C90.3533 235.452 90.3533 230.745 92.0806 226.554C92.8384 224.841 94.0791 223.388 95.6498 222.373C97.2169 221.422 99.0135 220.919 100.845 220.919C102.677 220.919 104.473 221.422 106.04 222.373C107.609 223.391 108.849 224.843 109.609 226.554C111.337 230.745 111.337 235.452 109.609 239.643C108.849 241.357 107.609 242.812 106.04 243.833C104.471 244.778 102.675 245.278 100.845 245.278C99.0148 245.278 97.2189 244.778 95.6498 243.833ZM104.21 238.816C105.026 237.604 105.433 235.698 105.433 233.099C105.433 230.517 105.026 228.618 104.21 227.382C103.852 226.815 103.357 226.348 102.771 226.024C102.185 225.701 101.527 225.531 100.859 225.531C100.19 225.531 99.5318 225.701 98.9458 226.024C98.3598 226.348 97.8648 226.815 97.5069 227.382C96.6916 228.618 96.2839 230.517 96.2839 233.099C96.2839 235.68 96.6916 237.589 97.5069 238.816C97.8648 239.383 98.3598 239.85 98.9458 240.173C99.5318 240.497 100.19 240.666 100.859 240.666C101.527 240.666 102.185 240.497 102.771 240.173C103.357 239.85 103.852 239.383 104.21 238.816Z" fill="white" stroke="black" stroke-width="1.2" stroke-linecap="round" stroke-linejoin="round"/>
<path d="M151.304 232.744L131.9 283.734C131.9 283.734 103.727 296.305 100.493 295.378C97.2588 294.451 92.3398 295.841 92.3398 295.841C92.3398 295.841 87.6202 289.206 88.2634 286.816C88.4717 286.043 89.8034 285.225 91.4883 284.234C93.6746 283.106 95.7133 281.711 97.5577 280.081C97.9647 279.691 98.3319 279.262 98.6538 278.799C99.8587 277.081 97.5034 272.936 98.3096 271.219C99.2919 269.319 100.483 267.535 101.861 265.901L102.051 265.656C103.056 264.42 104.153 263.193 105.249 262.02C107.06 260.112 108.872 258.33 110.303 256.93C112.224 255.113 113.583 253.904 113.583 253.904C113.583 253.904 113.42 244.306 114.724 241.47C115.857 239.007 119.19 236.38 122.488 234.198C124.671 232.744 126.845 231.472 128.367 230.563C128.992 230.19 129.825 229.726 130.758 229.254C134.21 227.436 138.975 225.282 138.975 225.282C138.975 225.282 140.515 218.756 142.037 218.074C143.296 217.52 147.599 222.237 147.599 222.237L151.304 232.744Z" fill="#FBC22D" stroke="#321951" stroke-width="1.2" stroke-linecap="round" stroke-linejoin="round"/>
<path d="M160.371 252.322C164.33 258.248 160.905 268.628 158.296 274.527C155.37 281.162 150.904 289.543 143.802 292.315C142.721 292.746 141.588 293.033 140.432 293.169L143.811 292.397C143.811 292.397 136.664 304.167 114.098 303.785C101.335 303.567 95.6366 299.668 93.2632 297.187C92.6695 296.592 92.1768 295.905 91.8047 295.151C92.0538 293.946 92.3991 292.764 92.8374 291.615C95.555 286.534 104.55 283.371 104.55 282.717C104.55 280.808 101.19 277.508 102.005 275.782C106.244 266.838 117.233 259.476 117.233 259.476C117.233 259.476 116.798 248.923 118.465 245.978C122.179 239.434 142.761 228.291 142.761 228.291C142.761 228.291 144.237 222.192 144.726 221.701C146.611 219.81 149.509 224.337 150.406 226.673C150.656 227.312 150.862 227.968 151.022 228.636L150.406 226.673C150.406 226.673 163.496 236.325 160.317 252.331C160.172 253.065 159.99 253.81 159.773 254.567" fill="#FBC22D"/>
<path d="M160.371 252.322C164.33 258.248 160.905 268.628 158.296 274.527C155.37 281.162 150.904 289.543 143.802 292.315C142.721 292.746 141.588 293.033 140.432 293.169L143.811 292.397C143.811 292.397 136.664 304.167 114.098 303.785C101.335 303.567 95.6366 299.668 93.2632 297.187C92.6695 296.592 92.1768 295.905 91.8047 295.151C92.0538 293.946 92.3991 292.764 92.8374 291.615C95.555 286.534 104.55 283.371 104.55 282.717C104.55 280.808 101.19 277.508 102.005 275.782C106.244 266.838 117.233 259.476 117.233 259.476C117.233 259.476 116.798 248.923 118.465 245.978C122.179 239.434 142.761 228.291 142.761 228.291C142.761 228.291 144.237 222.192 144.726 221.701C146.611 219.81 149.509 224.337 150.406 226.673C150.656 227.312 150.862 227.968 151.022 228.636L150.406 226.673C150.406 226.673 163.496 236.325 160.317 252.331C160.172 253.065 159.99 253.81 159.773 254.567" stroke="#321951" stroke-width="1.2" stroke-linecap="round" stroke-linejoin="round"/>
<path d="M135.663 240.379C134.558 244.824 135.436 249.986 138.978 253.104" stroke="#321951" stroke-width="1.2" stroke-linecap="round" stroke-linejoin="round"/>
<path d="M137.658 251.677C137.006 252.179 136.24 252.511 135.429 252.645C134.618 252.779 133.786 252.709 133.008 252.443C132.23 252.176 131.529 251.721 130.969 251.117C130.408 250.514 130.005 249.781 129.795 248.984C129.585 248.186 129.574 247.349 129.764 246.546C129.954 245.744 130.338 245.001 130.883 244.383C131.428 243.765 132.117 243.292 132.888 243.006C133.659 242.72 134.489 242.629 135.303 242.742C134.944 245.911 135.785 249.1 137.658 251.677Z" fill="#321951"/>
<path d="M147.938 237.979C149.251 239.568 150.2 241.428 150.719 243.426C151.237 245.423 151.311 247.511 150.936 249.541" stroke="#321951" stroke-width="1.2" stroke-linecap="round" stroke-linejoin="round"/>
<path d="M153.463 246.723C152.803 247.258 152.005 247.592 151.162 247.687C151.309 244.713 150.52 241.768 148.906 239.27C149.878 238.85 150.969 238.796 151.978 239.118C152.986 239.44 153.845 240.117 154.396 241.023C154.947 241.93 155.153 243.006 154.977 244.053C154.801 245.1 154.253 246.049 153.436 246.723H153.463Z" fill="#321951"/>
<path d="M150.067 265.274C150.268 267.393 149.936 269.527 149.102 271.484C148.268 273.44 146.958 275.155 145.293 276.472" stroke="#321951" stroke-width="1.2" stroke-linecap="round" stroke-linejoin="round"/>
<path d="M152.795 274.6C152.023 275.231 151.046 275.552 150.052 275.501C149.058 275.451 148.118 275.033 147.414 274.327C149.006 272.36 149.955 269.948 150.132 267.42C150.975 267.393 151.805 267.632 152.506 268.103C153.206 268.574 153.742 269.254 154.037 270.047C154.332 270.84 154.372 271.706 154.151 272.523C153.929 273.339 153.458 274.066 152.804 274.6H152.795Z" fill="#321951"/>
<path d="M135.663 275.281C132.872 275.72 130.219 276.799 127.911 278.433C125.603 280.068 123.702 282.215 122.355 284.707" stroke="#321951" stroke-width="1.2" stroke-linecap="round" stroke-linejoin="round"/>
<path d="M123.811 282.398C122.51 281.98 121.351 281.205 120.467 280.159C119.583 279.114 119.009 277.841 118.809 276.485C118.609 275.129 118.792 273.744 119.337 272.487C119.882 271.23 120.768 270.151 121.893 269.373C123.018 268.596 124.337 268.15 125.702 268.086C127.067 268.022 128.422 268.344 129.614 269.014C130.806 269.684 131.787 270.676 132.446 271.877C133.104 273.078 133.414 274.44 133.341 275.809C129.538 276.914 126.194 279.226 123.811 282.398Z" fill="#321951"/>
<path d="M116.772 296.768C114.61 297.633 112.283 298.001 109.961 297.844C107.639 297.686 105.382 297.008 103.355 295.859" stroke="#321951" stroke-width="1.2" stroke-linecap="round" stroke-linejoin="round"/>
<path d="M114.399 297.541C111.282 298.227 108.029 297.929 105.087 296.687C104.779 295.861 104.685 294.971 104.814 294.099C104.942 293.227 105.289 292.402 105.822 291.701C106.355 291.001 107.057 290.447 107.861 290.093C108.666 289.739 109.546 289.595 110.421 289.675C111.296 289.755 112.136 290.057 112.863 290.552C113.59 291.047 114.18 291.719 114.577 292.505C114.975 293.291 115.167 294.165 115.136 295.046C115.105 295.927 114.851 296.785 114.399 297.541Z" fill="#321951"/>
<path d="M130.416 232.78C130.062 233.477 129.551 234.081 128.922 234.544C128.294 235.007 127.566 235.316 126.797 235.446C126.028 235.576 125.24 235.523 124.495 235.292C123.75 235.061 123.07 234.659 122.508 234.116C124.691 232.662 126.865 231.39 128.387 230.481C129.012 230.108 129.845 229.645 130.779 229.172C131.112 230.378 130.983 231.665 130.416 232.78Z" fill="#321951"/>
<path d="M110.824 261.093C110.389 265.32 107.2 267.865 103.64 266.783C102.984 266.598 102.369 266.289 101.828 265.874C101.888 265.79 101.954 265.711 102.027 265.638C102.535 265.056 103.839 263.629 105.225 262.002C107.037 260.093 108.849 258.312 110.28 256.912C110.76 258.25 110.945 259.676 110.824 261.093Z" fill="#321951"/>
<path d="M98.3224 284.389C97.3621 286.134 94.9615 286.643 92.9595 285.534C92.3702 285.219 91.8593 284.775 91.4648 284.234C93.6512 283.106 95.6898 281.711 97.5343 280.081C98.1145 280.615 98.5053 281.325 98.6475 282.102C98.7897 282.88 98.6756 283.682 98.3224 284.389Z" fill="#321951"/>
<path d="M83.364 288.252L67.5745 297.541C67.5745 297.541 17.4248 280.99 16.7635 280.326C16.1022 279.663 10.0781 258.33 10.0781 258.33L12.216 227.527C12.216 227.527 16.7001 222.592 20.6769 218.611C21.4922 217.793 30.9225 218.956 33.2144 221.483C34.9537 223.391 34.0115 230.408 34.0115 230.408L39.9722 239.57L44.1031 246.951C44.1031 246.951 48.8136 246.387 50.2449 246.951C50.7105 247.169 51.1459 247.447 51.5404 247.778C53.3343 249.344 55.0004 251.052 56.5227 252.886L58.2258 255.531L67.0128 269.101C67.0128 269.101 72.1582 265.565 73.8432 266.329C76.3434 267.447 77.5392 276.681 77.5392 276.681L80.9453 282.571C80.9453 282.571 83.7264 281.953 84.3605 282.989C85.3117 284.553 83.364 288.252 83.364 288.252Z" fill="#FBC22D" stroke="#321951" stroke-width="1.2" stroke-linecap="round" stroke-linejoin="round"/>
<path d="M7.71516 276.863C7.72754 277.808 7.81844 278.751 7.98692 279.681C9.18268 286.116 14.1197 291.569 19.9627 294.323L19.2199 292.087C19.3845 292.855 19.6624 293.593 20.0442 294.278C22.4267 298.595 28.6501 301.049 32.7266 302.167C40.9792 304.44 50.0561 305.894 58.508 303.621C60.4025 303.21 62.1404 302.264 63.5175 300.895L60.8995 300.258C61.7515 300.532 62.6338 300.7 63.5266 300.758C70.4022 301.231 78.1475 295.668 82.2421 289.933C82.6497 289.37 83.456 288.352 83.3473 288.243C82.4414 287.288 78.0026 287.806 78.0026 287.806C78.0026 287.806 73.917 275.127 71.3443 273.2C69.9221 272.164 64.4143 274.482 64.4143 274.482C64.4143 274.482 52.7738 256.303 52.0943 255.876C51.4149 255.449 39.2761 251.568 39.2761 251.568L30.9057 236.171C30.9057 236.171 31.7482 224.991 28.5957 222.491C26.8655 221.119 20.6783 218.61 20.6783 218.61C13.703 222.719 7.90539 230.481 5.71316 235.88C4.09036 239.792 3.21754 243.977 3.14045 248.214L5.27833 246.196C4.5224 246.812 3.84943 247.524 3.27633 248.314C0.21445 252.549 0.504332 258.43 0.993509 263.511C1.55516 269.455 3.2401 275.69 7.98692 279.699" fill="#FBC22D"/>
<path d="M7.71516 276.863C7.72754 277.808 7.81844 278.751 7.98692 279.681C9.18269 286.116 14.1197 291.569 19.9627 294.323L19.2199 292.087C19.3845 292.855 19.6624 293.593 20.0442 294.278C22.4267 298.595 28.6501 301.049 32.7266 302.167C40.9792 304.44 50.0561 305.894 58.508 303.621C60.4025 303.21 62.1404 302.264 63.5175 300.895L60.8995 300.258C61.7515 300.532 62.6338 300.7 63.5266 300.758C70.4022 301.231 78.1475 295.668 82.2421 289.933C82.6497 289.37 83.456 288.352 83.3473 288.243C82.4414 287.288 78.0026 287.806 78.0026 287.806C78.0026 287.806 73.917 275.127 71.3443 273.2C69.9221 272.164 64.4143 274.482 64.4143 274.482C64.4143 274.482 52.7737 256.303 52.0943 255.876C51.4149 255.449 39.2761 251.568 39.2761 251.568L30.9057 236.171C30.9057 236.171 31.7482 224.991 28.5957 222.491C26.8655 221.119 20.6783 218.61 20.6783 218.61C13.703 222.719 7.90539 230.481 5.71316 235.88C4.09036 239.792 3.21754 243.977 3.14045 248.214L5.27833 246.196C4.5224 246.812 3.84943 247.524 3.27633 248.314C0.21445 252.549 0.504332 258.43 0.993509 263.511C1.55516 269.455 3.2401 275.69 7.98692 279.699" stroke="#321951" stroke-width="1.2" stroke-linecap="round" stroke-linejoin="round"/>
<path d="M8.65601 261.103C8.49108 263.486 8.85299 265.876 9.71586 268.102C10.5787 270.329 11.9213 272.337 13.6474 273.982" stroke="#321951" stroke-width="1.2" stroke-linecap="round" stroke-linejoin="round"/>
<path d="M16.4934 264.938C16.8629 265.704 17.0241 266.555 16.9609 267.404C16.8977 268.253 16.6122 269.07 16.1333 269.773C15.6544 270.475 14.9991 271.039 14.2336 271.406C13.4681 271.773 12.6195 271.931 11.7737 271.864C10.0012 269.502 8.919 266.691 8.64844 263.747C9.18167 263.174 9.84594 262.74 10.5838 262.483C11.3217 262.225 12.111 262.152 12.8835 262.269C13.6559 262.386 14.3883 262.691 15.0173 263.156C15.6463 263.621 16.1529 264.232 16.4934 264.938Z" fill="#321951"/>
<path d="M36.4947 255.767C36.9363 256.683 37.1137 257.705 37.007 258.716C36.9002 259.728 36.5135 260.69 35.8906 261.492C35.2677 262.295 34.4334 262.907 33.4819 263.259C32.5305 263.611 31.5 263.689 30.5068 263.484C30.5679 261.916 30.3022 260.353 29.7266 258.894C29.151 257.436 28.2782 256.114 27.1641 255.013C27.6835 254.234 28.3992 253.606 29.2385 253.195C29.8832 252.885 30.5824 252.706 31.2962 252.667C32.01 252.629 32.7244 252.732 33.3984 252.971C34.0724 253.21 34.6929 253.58 35.2242 254.059C35.7555 254.539 36.1872 255.12 36.4947 255.767Z" fill="#321951"/>
<path d="M24.7656 253.313C30.2009 255.131 31.1068 262.802 30.0016 267.347" stroke="#321951" stroke-width="1.2" stroke-linecap="round" stroke-linejoin="round"/>
<path d="M26.1059 228.563C23.3664 229.796 20.8971 231.561 18.8402 233.756C16.7833 235.951 15.1795 238.532 14.1211 241.351" stroke="#321951" stroke-width="1.2" stroke-linecap="round" stroke-linejoin="round"/>
<path d="M23.5574 229.935C20.0435 232.085 17.1661 235.139 15.2233 238.779C14.4626 238.286 13.8196 237.631 13.3397 236.86C12.8598 236.09 12.5549 235.223 12.4466 234.32C12.3383 233.418 12.4293 232.503 12.7131 231.64C12.997 230.778 13.4667 229.988 14.0888 229.328C14.711 228.668 15.4705 228.153 16.3132 227.82C17.156 227.488 18.0614 227.345 18.9652 227.403C19.8689 227.461 20.7489 227.718 21.5425 228.156C22.3362 228.593 23.0241 229.201 23.5574 229.935Z" fill="#321951"/>
<path d="M47.3125 276.709C50.0301 274.636 53.9617 273.727 57.0507 275.554" stroke="#321951" stroke-width="1.2" stroke-linecap="round" stroke-linejoin="round"/>
<path d="M55.04 271.391C55.2885 271.914 55.4091 272.488 55.3918 273.067C55.3745 273.645 55.2197 274.211 54.9403 274.718C53.0381 274.366 51.0733 274.643 49.342 275.509C49.0461 275.224 48.8037 274.889 48.6263 274.518C48.3954 274.093 48.2529 273.625 48.2073 273.143C48.1618 272.661 48.2142 272.174 48.3614 271.713C48.5085 271.252 48.7474 270.825 49.0636 270.459C49.3798 270.093 49.7666 269.795 50.2008 269.584C50.6349 269.372 51.1074 269.251 51.5895 269.228C52.0716 269.205 52.5535 269.28 53.0058 269.449C53.4582 269.618 53.8717 269.877 54.2213 270.211C54.571 270.545 54.8495 270.946 55.04 271.391Z" fill="#321951"/>
<path d="M72.0534 288.843C68.4842 293.315 62.9945 295.851 57.2422 294.505" stroke="#321951" stroke-width="1.2" stroke-linecap="round" stroke-linejoin="round"/>
<path d="M69.3872 287.97C69.8525 288.929 70.0497 289.997 69.9579 291.06C67.2621 293.551 63.721 294.916 60.0566 294.878C59.5197 294.385 59.0829 293.792 58.7703 293.132C58.0879 291.72 57.9928 290.093 58.5059 288.61C59.019 287.127 60.0981 285.909 61.506 285.225C62.9139 284.54 64.5352 284.445 66.0132 284.96C67.4912 285.474 68.7049 286.557 69.3872 287.97Z" fill="#321951"/>
<path d="M24.5547 290.642C29.4102 289.251 34.619 290.379 37.5269 294.678" stroke="#321951" stroke-width="1.2" stroke-linecap="round" stroke-linejoin="round"/>
<path d="M37.4081 286.379C37.9315 287.464 38.0785 288.692 37.8257 289.87C37.5729 291.047 36.9349 292.106 36.0131 292.878C34.8467 291.831 33.4706 291.045 31.9769 290.575C30.4833 290.105 28.9067 289.96 27.3528 290.151C27.0214 288.856 27.1803 287.483 27.7989 286.298C28.4174 285.113 29.4518 284.2 30.702 283.735C31.9523 283.271 33.3298 283.288 34.5683 283.783C35.8069 284.278 36.8186 285.216 37.4081 286.416V286.379Z" fill="#321951"/>
<path d="M58.2281 255.522C57.1412 255.937 55.9501 255.992 54.8299 255.678C53.7096 255.364 52.7194 254.697 52.0047 253.777C51.3479 252.931 50.9537 251.911 50.8716 250.842C50.7894 249.774 51.0228 248.705 51.5427 247.769C53.3367 249.335 55.0028 251.043 56.525 252.877L58.2281 255.522Z" fill="#321951"/>
<path d="M35.3531 237.17C34.0396 235.698 32.6355 236.47 32.2188 238.879L36.422 246.587C36.7707 245.994 36.9928 245.334 37.0743 244.651C37.4729 242.042 36.7029 238.697 35.3531 237.17Z" fill="#321951"/>
<path d="M63.6083 265.538C62.2948 264.256 60.6008 265.02 59.8398 267.238L63.708 273.436C64.1155 272.971 64.4237 272.426 64.6138 271.837C65.3748 269.673 64.9309 266.81 63.6083 265.538Z" fill="#321951"/>
<path d="M79.4984 201.077C79.1722 197.987 81.2648 192.333 84.1093 192.761C87.5698 193.27 89.5446 197.305 92.3347 199.287C92.9145 199.696 90.0881 205.649 85.3956 204.74C84.5713 203.477 84.2271 201.841 83.4752 200.696C82.1744 201.012 80.8353 201.14 79.4984 201.077Z" fill="#FBC22D" stroke="#321951" stroke-width="1.2" stroke-linecap="round" stroke-linejoin="round"/>
<path d="M39.0586 186.962C42.4375 186.271 42.5462 182.417 44.2946 182.499C46.1788 182.617 49.7299 187.662 49.7299 187.662C49.7299 187.662 45.898 188.334 45.3635 189.379C45.0465 189.988 45.5356 193.924 45.5356 193.924L40.0188 191.043L39.0586 186.962Z" fill="#FBC22D" stroke="#321951" stroke-width="1.2" stroke-linecap="round" stroke-linejoin="round"/>
<path d="M122.634 167.575C123.205 166.666 125.705 166.166 129.437 171.292C130.633 172.919 123.477 176.746 123.477 176.746L121.312 181.363C121.312 181.363 118.494 173.755 119.79 173.055C121.085 172.356 122.77 171.238 122.77 171.238L122.634 167.575Z" fill="#FBC22D" stroke="#321951" stroke-width="1.2" stroke-linecap="round" stroke-linejoin="round"/>
<path d="M100.532 134.499C108.812 135.899 121.63 126.555 121.63 126.555H121.675C121.73 129.409 121.675 132.454 121.548 135.69C114.701 141.783 106.633 146.335 97.8867 149.042C98.6477 144.043 99.5535 139.153 100.532 134.499Z" fill="#FDC8B4"/>
<path d="M109.01 54.4506C109.074 54.4593 109.136 54.481 109.191 54.5145C109.246 54.5481 109.294 54.5926 109.332 54.6455C109.369 54.6983 109.395 54.7583 109.408 54.8218C109.422 54.8852 109.422 54.9507 109.409 55.0141C109.409 55.0141 109.409 55.0141 109.364 55.0869C109.395 55.1143 109.421 55.1476 109.44 55.1851C109.458 55.2225 109.469 55.2632 109.472 55.305C109.608 56.4684 109.69 57.6864 109.771 58.9407C109.784 59.0235 109.765 59.1081 109.717 59.177C109.773 59.2632 109.798 59.3659 109.788 59.4683C109.778 59.5706 109.734 59.6666 109.663 59.7405C109.588 59.8227 109.499 59.8905 109.4 59.9405C109.4 59.6223 109.4 59.2951 109.4 58.9679L109.101 55.3323C109.101 55.0505 109.019 54.7415 108.992 54.4233L109.01 54.4506Z" fill="#321951"/>
<path d="M108.541 60.0404C107.717 59.8314 107.164 58.677 107.21 57.1955C107.21 56.3252 107.533 55.4862 108.115 54.8414C108.224 54.7237 108.356 54.6299 108.502 54.5658C108.649 54.5016 108.807 54.4686 108.967 54.4688C108.967 54.7505 109.03 55.0595 109.076 55.3777L109.375 59.0133C109.375 59.3406 109.375 59.6678 109.375 59.9859C109.186 60.1083 108.965 60.1715 108.741 60.1677C108.664 60.1433 108.596 60.0994 108.541 60.0404Z" fill="#321951"/>
<path d="M100.387 55.1685C99.4811 55.1685 98.6658 56.2956 98.5752 57.8953C98.5118 59.3223 99.0643 60.5221 99.8978 60.7311C99.9756 60.7457 100.055 60.7457 100.133 60.7311C100.41 60.7199 100.677 60.6279 100.903 60.4665C101.128 60.305 101.301 60.0811 101.402 59.8222C101.713 59.2655 101.887 58.6422 101.909 58.0044C101.999 56.4956 101.302 55.1685 100.387 55.1685ZM86.9346 62.8034H87.6502V61.4219C87.6502 58.4134 87.6502 51.551 88.1757 51.9055C88.8369 52.3509 93.5475 51.342 93.5475 51.342L94.1545 44.6523L96.8721 49.3514C100.216 49.2672 103.52 48.603 106.638 47.3882L107.879 47.4973C108.435 49.791 108.81 52.125 109.002 54.4777C108.842 54.4776 108.684 54.5106 108.537 54.5748C108.391 54.6389 108.259 54.7327 108.15 54.8504C107.568 55.4952 107.245 56.3342 107.244 57.2045C107.199 58.686 107.752 59.8404 108.576 60.0494C108.65 60.0683 108.728 60.0683 108.803 60.0494C109.027 60.0533 109.248 59.99 109.437 59.8676C109.603 62.8713 109.488 65.8839 109.092 68.8659C108.558 72.5561 107.408 75.9282 105.297 78.1369C105.161 78.2823 105.007 78.4277 104.862 78.555C104.629 78.7758 104.381 78.9793 104.119 79.164C102.034 80.6073 99.4708 81.1809 96.9718 80.7637C96.8902 81.1727 96.7815 81.6726 96.6909 82.1543C96.3399 83.8558 96.1609 85.5885 96.1565 87.3261C95.6311 92.6705 89.1721 97.1606 83.1027 95.6063C77.9754 94.2793 71.6795 88.335 72.8844 78.8368V78.1005H72.9478C73.5632 78.0658 74.1793 78.1554 74.7595 78.3641C75.7936 77.6438 76.6667 76.7151 77.3232 75.6374L77.9029 75.8373C80.3692 76.8093 82.9418 77.4836 85.5667 77.846L86.0649 71.8381L86.1102 71.22L86.382 67.7116C85.4683 68.4845 84.2963 68.8808 83.1027 68.8205C82.5433 68.8662 81.9806 68.7923 81.4518 68.6037C80.9229 68.415 80.44 68.116 80.0348 67.7262C79.6297 67.3365 79.3116 66.865 79.1015 66.3428C78.8914 65.8206 78.7941 65.2596 78.816 64.6969C78.838 64.1342 78.9786 63.5826 79.2288 63.0784C79.4789 62.5743 79.8328 62.1291 80.267 61.7724C80.7013 61.4156 81.206 61.1553 81.7479 61.0087C82.2898 60.8621 82.8566 60.8326 83.4107 60.922C84.0334 60.9397 84.6463 61.0814 85.214 61.3389C85.7816 61.5963 86.2925 61.9644 86.7172 62.4217L86.9346 62.8034Z" fill="#FDC8B4"/>
<path d="M99.9252 60.7588C99.0918 60.5497 98.5392 59.3499 98.6026 57.9229C98.666 56.296 99.436 55.1417 100.414 55.1962C101.393 55.2507 102.027 56.5232 101.963 58.0865C101.941 58.7244 101.767 59.3477 101.456 59.9044C101.356 60.1633 101.182 60.3872 100.957 60.5487C100.732 60.7101 100.465 60.8021 100.188 60.8133C100.097 60.8138 100.008 60.7953 99.9252 60.7588Z" fill="#321951"/>
<path d="M87.6525 61.4218V62.8034H86.9821L86.7285 62.4853C86.3038 62.028 85.7929 61.6599 85.2252 61.4024C84.6576 61.145 84.0447 61.0033 83.422 60.9855C82.8679 60.8961 82.3011 60.9257 81.7592 61.0723C81.2173 61.2189 80.7125 61.4792 80.2783 61.8359C79.844 62.1927 79.4902 62.6378 79.24 63.142C78.9899 63.6461 78.8492 64.1978 78.8273 64.7605C78.8054 65.3232 78.9026 65.8842 79.1127 66.4063C79.3228 66.9285 79.641 67.4001 80.0461 67.7898C80.4513 68.1795 80.9342 68.4786 81.463 68.6672C81.9919 68.8558 82.5546 68.9297 83.114 68.884C84.3076 68.9443 85.4795 68.548 86.3933 67.7752L86.1215 71.2836L86.0762 71.9017L85.578 77.9096C82.9531 77.5471 80.3804 76.8728 77.9142 75.9009L77.3345 75.7009C73.8649 74.4557 70.8574 73.1287 70.8574 73.1287C70.7125 72.7379 70.5766 72.3288 70.4588 71.8835C70.4045 71.7017 70.341 71.5017 70.2867 71.3018C69.4486 68.0648 69.0016 64.7386 68.955 61.3946C68.6289 49.1242 72.7598 33.6089 88.7758 31.7184C109.122 29.3188 110.408 45.8248 110.408 45.8248C110.408 45.8248 109.312 46.3429 107.691 46.9882C107.355 47.1245 107.002 47.2518 106.622 47.379C103.504 48.5938 100.2 49.258 96.8562 49.3423L94.1386 44.6432L93.5316 51.3328C93.5316 51.3328 88.821 52.3417 88.1598 51.8964C87.6525 51.5419 87.6253 58.4042 87.6343 61.4127L87.6525 61.4218Z" fill="#321951"/>
<path d="M50.5076 133.935C38.7311 127.628 32.7976 119.247 30.5782 115.484C30.1902 114.839 29.8393 114.171 29.5273 113.485C31.2098 108.327 33.5126 103.395 36.3849 98.7967L36.4302 98.7422C43.7316 87.3625 55.037 79.2004 72.2488 78.1733H72.7832V78.9096C71.5784 88.3805 77.8743 94.3612 83.0016 95.6791C89.071 97.2334 95.5299 92.7433 96.0554 87.3989C96.0598 85.6613 96.2388 83.9286 96.5898 82.2271C98.5918 82.2817 120.804 83.8632 121.628 126.573H121.583C121.583 126.573 108.765 135.917 100.485 134.517C99.5068 139.171 98.6009 144.061 97.8399 149.06C89.558 151.604 80.8443 152.419 72.2363 151.455C63.6283 150.49 55.3084 147.767 47.7899 143.452C48.5171 140.231 49.4244 137.054 50.5076 133.935Z" fill="#FBC22D"/>
<path d="M30.5801 115.484C32.7905 119.247 38.7331 127.627 50.5095 133.935C49.4263 137.054 48.519 140.231 47.7919 143.452C39.4166 138.647 32.2053 132.042 26.6758 124.11C27.418 120.513 28.3677 116.962 29.5203 113.476C29.8322 114.162 30.1831 114.829 30.5711 115.475L30.5801 115.484Z" fill="#FDC8B4"/>
<path d="M72.2505 78.1737C55.0387 79.2008 43.7152 87.3629 36.4138 98.7698L36.3685 98.8243C33.502 103.412 31.2023 108.332 29.52 113.476C28.3675 116.963 27.4177 120.513 26.6755 124.11C18.7282 112.726 14.485 99.1535 14.5277 85.2542C14.5277 48.4702 43.5159 18.6577 79.2801 18.6577C115.044 18.6577 144.014 48.4702 144.014 85.2542C144.05 94.7789 142.064 104.202 138.191 112.898C134.318 121.594 128.645 129.363 121.549 135.69C121.694 132.454 121.73 129.409 121.675 126.555C120.851 83.8363 98.6388 82.2638 96.6368 82.2093C96.7274 81.7094 96.8361 81.2277 96.9177 80.8186C99.4168 81.2358 101.98 80.6622 104.065 79.2189C104.327 79.0343 104.575 78.8308 104.808 78.61C104.953 78.4827 105.107 78.3373 105.243 78.1919C107.353 75.9832 108.504 72.6111 109.038 68.9209C109.434 65.9389 109.549 62.9262 109.383 59.9226C109.482 59.8726 109.571 59.8049 109.645 59.7226C109.717 59.6487 109.761 59.5528 109.771 59.4504C109.781 59.3481 109.755 59.2454 109.7 59.1591C109.747 59.0902 109.767 59.0056 109.754 58.9228C109.672 57.7048 109.591 56.4869 109.455 55.2871C109.452 55.2454 109.441 55.2046 109.422 55.1672C109.404 55.1298 109.378 55.0964 109.346 55.069C109.346 55.069 109.392 55.069 109.392 54.9963C109.405 54.9328 109.405 54.8673 109.391 54.8039C109.378 54.7405 109.352 54.6805 109.314 54.6276C109.277 54.5748 109.229 54.5302 109.174 54.4967C109.119 54.4632 109.057 54.4414 108.993 54.4327H108.93C108.738 52.08 108.363 49.746 107.806 47.4523L106.565 47.3432C106.946 47.2159 107.299 47.0887 107.634 46.9523C109.292 46.307 110.352 45.7889 110.352 45.7889C110.352 45.7889 109.12 29.3193 88.7738 31.7189C72.7578 33.6094 68.627 49.1247 68.9078 61.3951C68.9543 64.7391 69.4014 68.0654 70.2394 71.3023C70.2938 71.5022 70.3572 71.7022 70.4115 71.884C70.5293 72.3293 70.6652 72.7384 70.8101 73.1292C70.8101 73.1292 73.8177 74.4562 77.2872 75.7014C76.6308 76.7792 75.7576 77.7079 74.7236 78.4282C74.1433 78.2195 73.5272 78.1298 72.9118 78.1646H72.8484L72.2505 78.1737Z" fill="white"/>
<path d="M79.2799 18.6575C43.5157 18.6575 14.5274 48.47 14.5274 85.254C14.4901 99.1553 18.7397 112.728 26.6934 124.11C32.2177 132.04 39.4226 138.646 47.7914 143.452C55.3148 147.768 63.6399 150.49 72.2529 151.452C80.8659 152.413 89.5838 151.593 97.8686 149.042C106.615 146.335 114.682 141.783 121.53 135.69C128.626 129.363 134.299 121.593 138.173 112.898C142.046 104.202 144.031 94.7787 143.996 85.254C144.014 48.47 115.026 18.6575 79.2799 18.6575ZM7.76953 85.254C7.76953 44.6435 39.7744 11.7134 79.2799 11.7134C118.785 11.7134 150.781 44.6435 150.781 85.254C150.781 125.864 118.767 158.785 79.2799 158.785C39.7925 158.785 7.76953 125.864 7.76953 85.254Z" fill="#00DA9C"/>
<path d="M108.948 54.4688C108.756 52.116 108.38 49.782 107.824 47.4883" stroke="#321951" stroke-width="1.2" stroke-linecap="round" stroke-linejoin="round"/>
<path d="M104.074 79.2187C104.336 79.0341 104.584 78.8305 104.817 78.6097C104.962 78.4825 105.116 78.337 105.252 78.1916C107.363 75.9829 108.513 72.6109 109.047 68.9206C109.443 65.9386 109.558 62.926 109.392 59.9224" stroke="#321951" stroke-width="1.2" stroke-linecap="round" stroke-linejoin="round"/>
<path d="M90.75 79.0825C92.7171 79.9427 94.793 80.5269 96.9191 80.8186C99.4181 81.2358 101.981 80.6621 104.066 79.2189" stroke="#321951" stroke-width="1.2" stroke-linecap="round" stroke-linejoin="round"/>
<path d="M96.9169 80.8184C96.8353 81.2274 96.7266 81.7273 96.636 82.209C96.285 83.9105 96.106 85.6432 96.1016 87.3808" stroke="#321951" stroke-width="1.2" stroke-linecap="round" stroke-linejoin="round"/>
<path d="M72.8297 78.8916C71.6248 88.3625 77.9207 94.3432 83.048 95.6612C89.1174 97.2154 95.5764 92.7253 96.1018 87.3809" stroke="#321951" stroke-width="1.2" stroke-linecap="round" stroke-linejoin="round"/>
<path d="M102.449 72.6655C102.607 72.9508 102.836 73.1897 103.114 73.3587C103.392 73.5277 103.71 73.6209 104.035 73.629C104.354 73.6303 104.668 73.5469 104.944 73.3873C105.221 73.2276 105.451 72.9975 105.611 72.7201" stroke="#321951" stroke-width="1.2" stroke-linecap="round" stroke-linejoin="round"/>
<path d="M101.981 53.4691C101.818 53.1966 101.588 52.9702 101.314 52.8112C101.04 52.6522 100.73 52.5658 100.413 52.5601C100.093 52.5573 99.7768 52.6399 99.4983 52.7996C99.2198 52.9593 98.9885 53.1903 98.8281 53.4691" stroke="#321951" stroke-width="1.2" stroke-linecap="round" stroke-linejoin="round"/>
<path d="M106.781 53.4144C106.942 53.1356 107.173 52.9046 107.451 52.7449C107.73 52.5852 108.046 52.5026 108.367 52.5054C108.477 52.514 108.586 52.5322 108.693 52.56" stroke="#321951" stroke-width="1.2" stroke-linecap="round" stroke-linejoin="round"/>
<path d="M105.632 59.1226L105.94 67.0029C105.94 67.0029 103.893 67.0029 103.395 66.5666" stroke="#321951" stroke-width="1.2" stroke-linecap="round" stroke-linejoin="round"/>
<path d="M77.2865 75.7012C76.6301 76.7789 75.757 77.7076 74.7229 78.4279C74.1426 78.2192 73.5265 78.1296 72.9111 78.1643H72.8477H72.3132C55.1015 79.1914 43.7779 87.3535 36.4765 98.7604L36.4312 98.815C33.5648 103.402 31.2651 108.322 29.5828 113.467C28.4302 116.953 27.4805 120.504 26.7383 124.101" stroke="#321951" stroke-width="1.2" stroke-linecap="round" stroke-linejoin="round"/>
<path d="M64.7834 110.022C64.7834 110.022 56.25 117.593 50.5067 133.936C49.4235 137.054 48.5162 140.231 47.7891 143.452" stroke="#321951" stroke-width="1.2" stroke-linecap="round" stroke-linejoin="round"/>
<path d="M29.5391 113.476C29.851 114.162 30.2019 114.829 30.5899 115.475V115.475C32.8002 119.238 38.7428 127.618 50.5193 133.926" stroke="#321951" stroke-width="1.2" stroke-linecap="round" stroke-linejoin="round"/>
<path d="M107.335 107.795C107.027 108.84 106.692 109.967 106.339 111.185C104.59 117.275 102.434 125.41 100.532 134.499C99.5535 139.153 98.6477 144.043 97.8867 149.042" stroke="#321951" stroke-width="1.2" stroke-linecap="round" stroke-linejoin="round"/>
<path d="M86.9352 62.8034L86.6815 62.4853C86.2569 62.028 85.7459 61.6599 85.1783 61.4025C84.6107 61.145 83.9977 61.0033 83.3751 60.9856C82.8209 60.8961 82.2542 60.9257 81.7123 61.0723C81.1704 61.2189 80.6656 61.4792 80.2314 61.8359C79.7971 62.1927 79.4432 62.6379 79.1931 63.142C78.943 63.6461 78.8023 64.1978 78.7804 64.7605C78.7584 65.3232 78.8557 65.8842 79.0658 66.4064C79.2759 66.9286 79.594 67.4001 79.9992 67.7898C80.4043 68.1795 80.8873 68.4786 81.4161 68.6672C81.9449 68.8558 82.5077 68.9297 83.0671 68.884" stroke="#321951" stroke-width="1.2" stroke-linecap="round" stroke-linejoin="round"/>
<path d="M87.6504 62.8033V61.4217C87.6504 58.4132 87.6504 51.5508 88.1758 51.9053C88.8371 52.3507 93.5477 51.3418 93.5477 51.3418L94.1547 44.6522L96.8723 49.3513C100.216 49.267 103.52 48.6028 106.638 47.388C107.018 47.2608 107.371 47.1335 107.707 46.9972C109.364 46.3518 110.424 45.8338 110.424 45.8338C110.424 45.8338 109.12 29.3187 88.7737 31.7182C72.7577 33.6088 68.6269 49.124 68.9077 61.3944C68.9542 64.7384 69.4013 68.0647 70.2394 71.3016C70.2937 71.5016 70.3571 71.7016 70.4115 71.8833C70.5292 72.3287 70.6651 72.7377 70.8101 73.1286C70.8101 73.1286 73.8176 74.4556 77.2871 75.7008L77.8669 75.9008C80.3331 76.8727 82.9057 77.547 85.5307 77.9095L86.0289 71.9015L86.0742 71.2835L86.3459 67.775C85.4322 68.5479 84.2603 68.9442 83.0667 68.8839" stroke="#321951" stroke-width="1.2" stroke-linecap="round" stroke-linejoin="round"/>
<path d="M121.549 135.69C128.644 129.363 134.318 121.594 138.191 112.898C142.064 104.202 144.049 94.7789 144.014 85.2542C144.014 48.4702 115.026 18.6577 79.2801 18.6577C43.5339 18.6577 14.5276 48.4702 14.5276 85.2542C14.4903 99.1555 18.7399 112.728 26.6936 124.11C32.2179 132.041 39.4228 138.646 47.7916 143.452C55.3149 147.768 63.6401 150.49 72.2531 151.452C80.8661 152.413 89.584 151.593 97.8688 149.042C106.621 146.338 114.695 141.785 121.549 135.69V135.69Z" stroke="#321951" stroke-width="1.2" stroke-linecap="round" stroke-linejoin="round"/>
<path d="M79.2799 158.795C118.774 158.795 150.79 125.869 150.79 85.254C150.79 44.6386 118.774 11.7134 79.2799 11.7134C39.7858 11.7134 7.76953 44.6386 7.76953 85.254C7.76953 125.869 39.7858 158.795 79.2799 158.795Z" stroke="#321951" stroke-width="1.2" stroke-linecap="round" stroke-linejoin="round"/>
<path d="M96.5039 82.209H96.6398C98.6418 82.2635 120.854 83.845 121.678 126.555C121.733 129.409 121.678 132.454 121.552 135.69C121.552 135.762 121.552 135.826 121.552 135.899" stroke="#321951" stroke-width="1.2" stroke-linecap="round" stroke-linejoin="round"/>
<path d="M121.629 126.555C121.629 126.555 108.811 135.899 100.531 134.499" stroke="#321951" stroke-width="1.2" stroke-linecap="round" stroke-linejoin="round"/>
<path d="M126.902 44.2616C126.902 51.4325 129.022 58.4424 132.992 64.4048C136.963 70.3672 142.607 75.0143 149.209 77.7585C155.812 80.5027 163.078 81.2207 170.088 79.8217C177.097 78.4228 183.536 74.9696 188.59 69.899C193.643 64.8284 197.085 58.3681 198.479 51.335C199.874 44.3019 199.158 37.0118 196.423 30.3868C193.688 23.7617 189.056 18.0992 183.114 14.1152C177.171 10.1313 170.185 8.00488 163.038 8.00488C158.292 8.00369 153.593 8.94068 149.208 10.7623C144.823 12.584 140.839 15.2546 137.484 18.6216C134.128 21.9886 131.466 25.986 129.651 30.3854C127.835 34.7848 126.901 39.5 126.902 44.2616Z" fill="#00DA9C" stroke="#321951" stroke-width="1.2" stroke-linecap="round" stroke-linejoin="round"/>
<path d="M152.27 46.452H145.929V52.6235H141.264V46.452H135.004V42.0256H141.264V35.854H145.929V42.0256H152.27V46.452Z" fill="white" stroke="#321951" stroke-width="1.5" stroke-linecap="round" stroke-linejoin="round"/>
<path d="M164.903 31.5366V56.9863H159.033V36.2539H153.969V31.5366H164.903Z" fill="white" stroke="#321951" stroke-width="1.5" stroke-linecap="round" stroke-linejoin="round"/>
<path d="M174.559 55.8233C172.861 54.7178 171.523 53.138 170.709 51.2787C169.734 49.0717 169.257 46.6755 169.314 44.2619C169.251 41.8302 169.728 39.4148 170.709 37.1905C171.523 35.3312 172.861 33.7514 174.559 32.6459C176.253 31.6215 178.193 31.0801 180.171 31.0801C182.149 31.0801 184.089 31.6215 185.783 32.6459C187.481 33.7514 188.819 35.3312 189.633 37.1905C190.615 39.4148 191.091 41.8302 191.028 44.2619C191.092 46.6907 190.615 49.1032 189.633 51.3242C188.819 53.1835 187.481 54.7632 185.783 55.8688C184.089 56.8932 182.149 57.4346 180.171 57.4346C178.193 57.4346 176.253 56.8932 174.559 55.8688V55.8233ZM183.808 50.3698C184.69 49.0367 185.131 46.9796 185.131 44.1983C185.131 41.4079 184.687 39.3537 183.808 38.0176C183.421 37.4057 182.885 36.9019 182.252 36.5529C181.618 36.2039 180.907 36.0209 180.185 36.0209C179.462 36.0209 178.751 36.2039 178.118 36.5529C177.484 36.9019 176.949 37.4057 176.561 38.0176C175.655 39.3537 175.239 41.4079 175.239 44.1983C175.239 46.9886 175.682 49.0337 176.561 50.3698C176.947 50.9837 177.482 51.4896 178.116 51.8401C178.749 52.1906 179.461 52.3745 180.185 52.3745C180.908 52.3745 181.62 52.1906 182.254 51.8401C182.887 51.4896 183.422 50.9837 183.808 50.3698Z" fill="white" stroke="#321951" stroke-width="1.5" stroke-linecap="round" stroke-linejoin="round"/>
</svg>
