<svg width="40" height="23" viewBox="0 0 40 23" fill="none" xmlns="http://www.w3.org/2000/svg">
<path d="M29.3853 6.71008L29.1361 7.14863L29.5768 7.39396C35.0018 10.4138 38.7512 15.9417 39.4511 22.5H0.550342C1.2692 15.9222 5.03731 10.3933 10.4438 7.37318L10.8824 7.1282L10.6354 6.69079L7.32079 0.822069C7.28951 0.758303 7.28589 0.693493 7.29898 0.643001C7.31171 0.593939 7.3387 0.56 7.37767 0.538944L7.38764 0.53356L7.39735 0.52773C7.44807 0.497279 7.49518 0.495135 7.53289 0.505888C7.57113 0.516792 7.60985 0.543893 7.63617 0.594625L7.64064 0.603242L7.64544 0.611679L11.0254 6.55123L11.2534 6.95186L11.6712 6.75713C14.1444 5.60444 17.0122 4.94655 20 4.94656L20.0034 4.94654C22.9275 4.92664 25.7545 5.56303 28.3693 6.7778L28.7847 6.97079L29.0133 6.57384L32.4333 0.634291L32.4507 0.604142L32.4637 0.571879C32.4735 0.547649 32.4896 0.532915 32.5159 0.52519C32.5442 0.51688 32.5901 0.516567 32.6427 0.54814L32.6426 0.548222L32.6511 0.553084C32.723 0.594365 32.7788 0.719782 32.7194 0.842174L29.3853 6.71008ZM27.04 15.4888C27.04 16.7021 28.0221 17.6829 29.22 17.6829C30.4179 17.6829 31.4 16.7021 31.4 15.4888C31.4 14.2677 30.41 13.3151 29.22 13.3151C28.03 13.3151 27.04 14.2677 27.04 15.4888ZM8.64 15.4888C8.64 16.7021 9.62206 17.6829 10.82 17.6829C12.0257 17.6829 12.98 16.6942 12.98 15.4888C12.98 14.2754 12.0178 13.3151 10.82 13.3151C9.63001 13.3151 8.64 14.2677 8.64 15.4888Z" fill="#4A2577" stroke="#4A2577"/>
</svg>
