<svg width="28" height="28" viewBox="0 0 28 28" fill="none" xmlns="http://www.w3.org/2000/svg">
<path fill-rule="evenodd" clip-rule="evenodd" d="M23.4188 24.8467C23.8179 25.2372 24.465 25.2372 24.8641 24.8467C25.2632 24.4562 25.2632 23.823 24.8641 23.4325L15.2509 14.0261L24.9721 4.51409C25.3712 4.12356 25.3712 3.4904 24.9721 3.09987C24.573 2.70935 23.9259 2.70935 23.5268 3.09987L13.8056 12.6119L3.90712 2.92637C3.50801 2.53585 2.86092 2.53585 2.46181 2.92637C2.0627 3.3169 2.0627 3.95006 2.46181 4.34059L12.3603 14.0261L2.34381 23.8272C1.9447 24.2177 1.9447 24.8508 2.34381 25.2414C2.74292 25.6319 3.39001 25.6319 3.78912 25.2414L13.8056 15.4404L23.4188 24.8467Z" fill="#414141"/>
</svg>
