<svg width="30" height="30" viewBox="0 0 30 30" fill="none" xmlns="http://www.w3.org/2000/svg">
<path fill-rule="evenodd" clip-rule="evenodd" d="M23.248 0.978181C19.5886 1.51363 15.9523 2.04488 15.1673 2.15881L13.7402 2.3659V8.36878V14.3717L14.5768 14.3508C15.0369 14.3393 18.3543 14.312 21.9488 14.2901C25.5433 14.2683 28.8253 14.2399 29.2421 14.227L30 14.2036V7.09952C30 1.43992 29.99 -0.00368461 29.9508 7.05664e-06C29.9237 0.00255981 26.9075 0.442732 23.248 0.978181ZM6.7126 3.33394C3.74606 3.73975 1.02217 4.11127 0.659449 4.15954L0 4.24735V9.34983V14.4523L3.86811 14.4297C5.99555 14.4172 8.75047 14.3964 9.99016 14.3835L12.2441 14.3599V8.47364C12.2441 2.89219 12.2405 2.58763 12.1752 2.59175C12.1373 2.59415 9.67913 2.92813 6.7126 3.33394ZM0 20.7656C0 25.239 0.0072441 25.8763 0.0579528 25.8763C0.0898425 25.8763 2.82161 26.2475 6.12858 26.7011C9.43559 27.1547 12.1644 27.5258 12.1927 27.5258C12.2348 27.5258 12.2441 26.456 12.2441 21.64V15.7542L9.79331 15.7295C8.44535 15.7159 5.69043 15.6936 3.67126 15.6799L0 15.6549V20.7656ZM13.7402 21.7705V27.7186L13.8681 27.7411C14.08 27.7785 29.8961 30 29.9501 30C29.9902 30 30 28.6161 30 22.9373V15.8747L25.5413 15.8486C23.0891 15.8342 19.4306 15.8225 17.4114 15.8224H13.7402V21.7705Z" fill="#4A2577"/>
</svg>
