<svg width="307" height="208" viewBox="0 0 307 208" fill="none" xmlns="http://www.w3.org/2000/svg">
<g clip-path="url(#clip0_2051_111950)">
<path d="M48.9705 206.013V205.674H0.762649C0.560382 205.674 0.366399 205.754 0.223375 205.897C0.0803505 206.04 0 206.234 0 206.436C0 206.639 0.0803505 206.833 0.223375 206.976C0.366399 207.119 0.560382 207.199 0.762649 207.199H55.8428C48.9705 207.013 48.9705 206.835 48.9705 206.013Z" fill="black"/>
<path d="M306.229 205.674H240.7C238.883 206.24 236.994 206.54 235.091 206.564C233.556 206.568 232.028 206.348 230.557 205.911L229.862 205.674H198.644C196.775 206.495 194.755 206.919 192.713 206.92H112.736C111.939 206.912 111.143 206.844 110.355 206.716C110.24 206.828 110.091 206.9 109.932 206.92C108.949 207.021 106.983 207.123 104.296 207.199H306.229C306.431 207.199 306.625 207.119 306.768 206.976C306.911 206.833 306.991 206.639 306.991 206.436C306.991 206.234 306.911 206.04 306.768 205.897C306.625 205.754 306.431 205.674 306.229 205.674Z" fill="black"/>
<path d="M100.059 104.267C103.682 107.217 106.602 110.936 108.608 115.156C110.613 119.375 111.654 123.988 111.654 128.659C111.654 133.331 110.613 137.944 108.608 142.163C106.602 146.382 103.682 150.102 100.059 153.051V158.432C103.245 158.517 106.525 158.627 109.881 158.754C109.881 158.754 109.948 158.754 109.991 158.754H110.126L110.279 158.847L110.355 158.89C110.397 158.94 110.433 158.994 110.465 159.051L110.525 159.144C110.547 159.204 110.561 159.267 110.567 159.33C110.567 159.33 110.567 159.398 110.567 159.432V205.242C111.27 205.36 111.981 205.422 112.694 205.428H192.679C199.678 205.428 205.39 200.064 205.39 193.48V13.995C205.39 7.40236 199.704 2.04688 192.679 2.04688H112.736C105.745 2.04688 100.025 7.40236 100.025 13.995L100.059 104.267ZM128.226 199.505C128.229 199.304 128.31 199.111 128.452 198.968C128.595 198.826 128.788 198.745 128.989 198.742H176.443C176.632 198.762 176.808 198.852 176.935 198.993C177.063 199.135 177.133 199.319 177.133 199.509C177.133 199.7 177.063 199.884 176.935 200.025C176.808 200.167 176.632 200.256 176.443 200.276H128.989C128.786 200.274 128.592 200.192 128.449 200.047C128.307 199.903 128.226 199.708 128.226 199.505ZM153.021 195.455C153.021 195.252 153.101 195.058 153.244 194.915C153.387 194.772 153.581 194.692 153.784 194.692H162.122C162.324 194.692 162.518 194.772 162.661 194.915C162.804 195.058 162.885 195.252 162.885 195.455C162.885 195.657 162.804 195.851 162.661 195.994C162.518 196.137 162.324 196.217 162.122 196.217H153.784C153.684 196.217 153.584 196.198 153.492 196.159C153.399 196.121 153.315 196.065 153.244 195.994C153.174 195.923 153.117 195.839 153.079 195.746C153.041 195.654 153.021 195.555 153.021 195.455ZM152.326 167.491C147.585 167.491 142.95 166.085 139.008 163.451C135.065 160.817 131.993 157.073 130.178 152.692C128.364 148.312 127.889 143.492 128.814 138.841C129.739 134.191 132.022 129.92 135.375 126.567C138.728 123.214 142.999 120.931 147.649 120.006C152.3 119.081 157.12 119.556 161.5 121.37C165.88 123.185 169.624 126.257 172.259 130.2C174.893 134.142 176.299 138.777 176.299 143.518C176.301 149.88 173.777 155.982 169.282 160.484C164.787 164.985 158.688 167.518 152.326 167.525V167.491ZM156.673 6.84309C157.089 6.84476 157.494 6.96944 157.838 7.20137C158.183 7.4333 158.451 7.7621 158.609 8.14625C158.767 8.53039 158.807 8.95267 158.725 9.35976C158.643 9.76686 158.442 10.1405 158.148 10.4336C157.854 10.7266 157.479 10.9259 157.072 11.0063C156.664 11.0868 156.242 11.0446 155.859 10.8853C155.475 10.726 155.147 10.4567 154.917 10.1113C154.686 9.76586 154.563 9.35989 154.563 8.94461C154.572 8.39168 154.799 7.86454 155.194 7.47749C155.589 7.09045 156.12 6.87468 156.673 6.87698V6.84309ZM149.301 6.33466C149.817 6.33466 150.322 6.48773 150.751 6.77451C151.18 7.0613 151.515 7.46892 151.712 7.94582C151.91 8.42273 151.961 8.9475 151.861 9.45379C151.76 9.96007 151.512 10.4251 151.146 10.7901C150.781 11.1551 150.316 11.4037 149.81 11.5044C149.304 11.6051 148.779 11.5534 148.302 11.3559C147.825 11.1584 147.418 10.8238 147.131 10.3946C146.844 9.96542 146.691 9.46081 146.691 8.94461C146.7 8.2583 146.979 7.60312 147.467 7.12097C147.956 6.63881 148.615 6.36849 149.301 6.36855V6.33466ZM130.04 17.2914H177.494C177.696 17.2914 177.89 17.3717 178.033 17.5148C178.176 17.6578 178.256 17.8518 178.256 18.054C178.256 18.2563 178.176 18.4503 178.033 18.5933C177.89 18.7363 177.696 18.8167 177.494 18.8167H130.04C129.838 18.8167 129.644 18.7363 129.501 18.5933C129.358 18.4503 129.277 18.2563 129.277 18.054C129.277 17.8518 129.358 17.6578 129.501 17.5148C129.644 17.3717 129.838 17.2914 130.04 17.2914ZM160.698 22.1045C160.698 22.3068 160.618 22.5008 160.475 22.6438C160.332 22.7868 160.138 22.8672 159.936 22.8672H147.649C147.446 22.8672 147.252 22.7868 147.109 22.6438C146.966 22.5008 146.886 22.3068 146.886 22.1045C146.886 21.9023 146.966 21.7083 147.109 21.5653C147.252 21.4222 147.446 21.3419 147.649 21.3419H159.936C160.138 21.3419 160.332 21.4222 160.475 21.5653C160.618 21.7083 160.698 21.9023 160.698 22.1045ZM112.168 51.7631C112.171 49.5388 113.055 47.4063 114.628 45.8336C116.201 44.2608 118.333 43.3762 120.558 43.374H184.959C187.183 43.3762 189.316 44.2608 190.889 45.8336C192.461 47.4063 193.346 49.5388 193.348 51.7631V85.6586C193.346 87.8828 192.461 90.0154 190.889 91.5881C189.316 93.1609 187.183 94.0455 184.959 94.0477H120.558C118.333 94.0455 116.201 93.1609 114.628 91.5881C113.055 90.0154 112.171 87.8828 112.168 85.6586V51.7631Z" fill="#F1E6FF"/>
<path d="M130.04 18.8163H177.494C177.696 18.8163 177.89 18.736 178.033 18.5929C178.176 18.4499 178.256 18.2559 178.256 18.0537C178.256 17.8514 178.176 17.6574 178.033 17.5144C177.89 17.3714 177.696 17.291 177.494 17.291H130.04C129.838 17.291 129.644 17.3714 129.501 17.5144C129.358 17.6574 129.277 17.8514 129.277 18.0537C129.277 18.2559 129.358 18.4499 129.501 18.5929C129.644 18.736 129.838 18.8163 130.04 18.8163Z" fill="#321951"/>
<path d="M147.632 21.3584C147.43 21.3584 147.236 21.4387 147.093 21.5818C146.949 21.7248 146.869 21.9188 146.869 22.121C146.869 22.3233 146.949 22.5173 147.093 22.6603C147.236 22.8033 147.43 22.8837 147.632 22.8837H159.919C160.121 22.8837 160.315 22.8033 160.458 22.6603C160.601 22.5173 160.682 22.3233 160.682 22.121C160.682 21.9188 160.601 21.7248 160.458 21.5818C160.315 21.4387 160.121 21.3584 159.919 21.3584H147.632Z" fill="#321951"/>
<path d="M162.122 196.217C162.324 196.217 162.518 196.136 162.661 195.993C162.804 195.85 162.885 195.656 162.885 195.454C162.885 195.252 162.804 195.058 162.661 194.915C162.518 194.772 162.324 194.691 162.122 194.691H153.784C153.581 194.691 153.387 194.772 153.244 194.915C153.101 195.058 153.021 195.252 153.021 195.454C153.021 195.656 153.101 195.85 153.244 195.993C153.387 196.136 153.581 196.217 153.784 196.217H162.122Z" fill="#321951"/>
<path d="M176.477 200.276C176.667 200.256 176.842 200.167 176.969 200.025C177.097 199.883 177.167 199.7 177.167 199.509C177.167 199.319 177.097 199.135 176.969 198.993C176.842 198.852 176.667 198.762 176.477 198.742H129.023C128.834 198.762 128.659 198.852 128.531 198.993C128.404 199.135 128.333 199.319 128.333 199.509C128.333 199.7 128.404 199.883 128.531 200.025C128.659 200.167 128.834 200.256 129.023 200.276H176.477Z" fill="#321951"/>
<path d="M113.677 75.2183H191.806V51.7711C191.806 49.9507 191.083 48.2048 189.796 46.9176C188.509 45.6304 186.763 44.9072 184.943 44.9072H120.541C118.721 44.9095 116.977 45.6333 115.69 46.9201C114.403 48.2068 113.679 49.9514 113.677 51.7711V75.2183ZM118.423 51.4406C118.425 50.5648 118.774 49.7255 119.393 49.1062C120.012 48.4869 120.852 48.138 121.727 48.1358H132.354C133.23 48.1358 134.071 48.484 134.691 49.1037C135.31 49.7235 135.658 50.5641 135.658 51.4406V56.1012C135.658 56.5352 135.573 56.965 135.407 57.3659C135.241 57.7669 134.997 58.1312 134.691 58.4381C134.384 58.7449 134.019 58.9884 133.618 59.1545C133.217 59.3205 132.788 59.406 132.354 59.406H121.719C120.843 59.4038 120.004 59.0549 119.385 58.4356C118.765 57.8163 118.416 56.977 118.414 56.1012L118.423 51.4406Z" fill="#8B6FE2"/>
<path d="M120.541 92.539H184.943C186.763 92.539 188.509 91.8158 189.796 90.5286C191.083 89.2414 191.806 87.4955 191.806 85.6751V85.3955H113.677V85.6751C113.679 87.4949 114.403 89.2394 115.69 90.5261C116.977 91.8129 118.721 92.5367 120.541 92.539Z" fill="#8B6FE2"/>
<path d="M120.541 94.0566H184.942C187.167 94.0544 189.299 93.1698 190.872 91.597C192.445 90.0242 193.329 87.8917 193.332 85.6675V51.7719C193.329 49.5477 192.445 47.4152 190.872 45.8424C189.299 44.2696 187.167 43.3851 184.942 43.3828H120.541C118.317 43.3851 116.184 44.2696 114.611 45.8424C113.039 47.4152 112.154 49.5477 112.152 51.7719V85.6675C112.154 87.8917 113.039 90.0242 114.611 91.597C116.184 93.1698 118.317 94.0544 120.541 94.0566ZM113.677 85.3878H191.806V85.6675C191.806 87.4879 191.083 89.2337 189.796 90.5209C188.509 91.8081 186.763 92.5313 184.942 92.5313H120.541C118.721 92.5291 116.977 91.8052 115.69 90.5184C114.403 89.2317 113.679 87.4872 113.677 85.6675V85.3878ZM120.541 44.9081H184.942C186.763 44.9081 188.509 45.6313 189.796 46.9185C191.083 48.2057 191.806 49.9515 191.806 51.7719V75.2192H113.677V51.7719C113.679 49.9522 114.403 48.2077 115.69 46.921C116.977 45.6342 118.721 44.9104 120.541 44.9081Z" fill="#321951"/>
<path d="M132.362 49.6611H121.727C120.744 49.6611 119.948 50.4578 119.948 51.4406V56.0589C119.948 57.0417 120.744 57.8384 121.727 57.8384H132.362C133.345 57.8384 134.141 57.0417 134.141 56.0589V51.4406C134.141 50.4578 133.345 49.6611 132.362 49.6611Z" fill="white"/>
<path d="M121.719 59.3636H132.345C133.222 59.3636 134.062 59.0154 134.682 58.3957C135.302 57.7759 135.65 56.9353 135.65 56.0588V51.4406C135.65 50.5641 135.302 49.7235 134.682 49.1037C134.062 48.4839 133.222 48.1357 132.345 48.1357H121.719C120.843 48.138 120.004 48.4869 119.384 49.1062C118.765 49.7255 118.416 50.5648 118.414 51.4406V56.1012C118.427 56.9696 118.781 57.7981 119.399 58.4083C120.017 59.0184 120.85 59.3615 121.719 59.3636ZM119.939 51.4406C119.939 50.9686 120.127 50.516 120.461 50.1822C120.794 49.8485 121.247 49.661 121.719 49.661H132.345C132.817 49.661 133.27 49.8485 133.603 50.1822C133.937 50.516 134.125 50.9686 134.125 51.4406V56.1012C134.122 56.5725 133.934 57.0238 133.601 57.357C133.268 57.6903 132.816 57.8785 132.345 57.8807H121.719C121.248 57.8785 120.796 57.6903 120.463 57.357C120.13 57.0238 119.942 56.5725 119.939 56.1012V51.4406Z" fill="#321951"/>
<path d="M152.326 121.113C147.886 121.113 143.546 122.43 139.854 124.897C136.163 127.364 133.286 130.87 131.587 134.972C129.888 139.075 129.444 143.588 130.311 147.943C131.178 152.298 133.316 156.297 136.457 159.436C139.597 162.575 143.597 164.712 147.952 165.578C152.307 166.443 156.821 165.997 160.922 164.297C165.024 162.596 168.529 159.718 170.995 156.025C173.46 152.333 174.775 147.992 174.774 143.552C174.765 137.602 172.396 131.899 168.188 127.692C163.98 123.486 158.276 121.12 152.326 121.113ZM164.783 133.214L152.919 157.975C152.861 158.091 152.775 158.191 152.668 158.267C152.562 158.342 152.439 158.39 152.309 158.407H152.225C152.108 158.406 151.994 158.379 151.89 158.327C151.786 158.276 151.694 158.202 151.623 158.11L139.98 143.052C139.879 142.919 139.824 142.757 139.824 142.59C139.824 142.423 139.879 142.261 139.98 142.128L143.852 136.942C143.949 136.816 144.082 136.723 144.234 136.674C144.385 136.626 144.548 136.625 144.7 136.671C144.86 136.73 144.999 136.837 145.098 136.976L151.03 144.696L158.427 129.316C158.446 129.246 158.478 129.18 158.521 129.121C158.608 128.983 158.738 128.878 158.891 128.821C159.044 128.765 159.212 128.76 159.368 128.808L159.512 128.858L159.665 128.952L164.529 132.256C164.678 132.36 164.786 132.513 164.832 132.688C164.879 132.864 164.861 133.05 164.783 133.214Z" fill="#00DA9C"/>
<path d="M176.299 143.552C176.299 138.81 174.893 134.176 172.259 130.233C169.624 126.291 165.88 123.218 161.5 121.404C157.12 119.589 152.3 119.115 147.649 120.04C142.999 120.965 138.728 123.248 135.375 126.601C132.022 129.953 129.739 134.225 128.814 138.875C127.889 143.525 128.364 148.345 130.178 152.726C131.993 157.106 135.065 160.85 139.008 163.484C142.95 166.118 147.585 167.524 152.326 167.524C158.683 167.52 164.778 164.993 169.272 160.498C173.767 156.003 176.294 149.908 176.299 143.552ZM152.326 165.999C147.886 165.999 143.547 164.682 139.855 162.216C136.164 159.749 133.287 156.244 131.588 152.142C129.889 148.04 129.444 143.527 130.31 139.172C131.176 134.818 133.314 130.818 136.453 127.679C139.593 124.54 143.593 122.402 147.947 121.536C152.301 120.67 156.815 121.114 160.916 122.813C165.018 124.512 168.524 127.389 170.99 131.081C173.457 134.772 174.773 139.112 174.773 143.552C174.767 149.503 172.4 155.209 168.191 159.417C163.983 163.625 158.277 165.992 152.326 165.999Z" fill="#321951"/>
<path d="M159.478 130.672L151.852 146.459C151.798 146.577 151.714 146.679 151.608 146.755C151.503 146.831 151.379 146.878 151.25 146.891C151.12 146.905 150.988 146.884 150.868 146.832C150.748 146.781 150.643 146.698 150.564 146.594L144.42 138.654L141.522 142.535L152.047 156.161L163.122 133.104L159.478 130.672Z" fill="white"/>
<path d="M164.52 132.214L159.656 128.909L159.504 128.816L159.36 128.765C159.204 128.717 159.036 128.722 158.883 128.779C158.73 128.835 158.6 128.941 158.512 129.078C158.47 129.137 158.438 129.203 158.419 129.273L151.022 144.653L145.09 136.934C144.991 136.794 144.852 136.688 144.692 136.629C144.54 136.582 144.377 136.583 144.225 136.632C144.074 136.68 143.941 136.774 143.844 136.9L139.972 142.086C139.871 142.219 139.816 142.381 139.816 142.548C139.816 142.715 139.871 142.877 139.972 143.01L151.615 158.068C151.686 158.159 151.777 158.233 151.882 158.285C151.986 158.336 152.1 158.363 152.216 158.364H152.301C152.43 158.348 152.554 158.299 152.66 158.224C152.766 158.149 152.853 158.048 152.911 157.932L164.775 133.171C164.853 133.008 164.871 132.821 164.824 132.646C164.778 132.47 164.67 132.317 164.52 132.214ZM141.522 142.535L144.454 138.62L150.598 146.56C150.677 146.664 150.782 146.746 150.902 146.798C151.022 146.85 151.154 146.87 151.284 146.857C151.414 146.843 151.537 146.796 151.643 146.721C151.748 146.645 151.832 146.543 151.886 146.424L159.512 130.638L163.156 133.104L152.081 156.161L141.522 142.535Z" fill="#321951"/>
<path d="M207.305 169.846C207.974 185.227 218.609 200.751 231.032 204.445C232.359 204.844 233.738 205.047 235.124 205.047C236.742 205.029 238.35 204.793 239.904 204.344C238.436 204.232 236.984 203.962 235.574 203.539C222.592 199.675 211.465 183.523 210.771 167.542C210.474 160.551 212.186 154.483 215.618 150.255C210.042 153.644 206.898 160.923 207.305 169.846Z" fill="#FBC22D"/>
<path d="M231.803 168.432L231.913 168.61L231.803 168.432Z" fill="#FBC22D"/>
<path d="M232.836 166.762C233.87 170.016 235.997 174.515 240.319 177.515C240.353 177.536 240.382 177.565 240.404 177.6C241.149 177.241 241.947 177.007 242.768 176.905C239.744 174.774 237.341 171.879 235.802 168.516C235.081 167.042 234.475 165.515 233.989 163.948C233.69 164.919 233.304 165.86 232.836 166.762Z" fill="#FBC22D"/>
<path d="M217.635 150.221C213.855 154.162 211.957 160.288 212.262 167.474C212.932 182.854 223.566 198.378 235.989 202.073C241.963 203.853 247.556 202.548 251.437 198.497C255.318 194.447 257.114 188.43 256.801 181.253C256.132 165.864 245.497 150.34 233.074 146.645C231.401 146.135 229.663 145.869 227.914 145.857C225.992 145.835 224.086 146.212 222.317 146.963C220.548 147.714 218.954 148.824 217.635 150.221ZM233.167 160.576C233.187 160.393 233.273 160.222 233.408 160.096C233.544 159.97 233.72 159.897 233.905 159.89C234.09 159.882 234.272 159.942 234.416 160.059C234.56 160.176 234.655 160.342 234.684 160.526C234.684 160.661 237.167 174.296 247.192 177.338C247.368 177.37 247.528 177.463 247.642 177.601C247.757 177.739 247.819 177.913 247.819 178.092C247.814 178.296 247.73 178.49 247.584 178.632C247.439 178.775 247.243 178.855 247.039 178.855C246.969 178.867 246.897 178.867 246.827 178.855C245.883 178.562 244.901 178.405 243.912 178.389C236.896 178.389 235.887 188.074 235.879 188.176C235.86 188.36 235.775 188.532 235.64 188.658C235.504 188.784 235.327 188.857 235.142 188.862C234.962 188.863 234.788 188.801 234.65 188.686C234.513 188.571 234.419 188.412 234.388 188.235C234.388 188.091 231.888 174.397 221.812 171.398C221.656 171.349 221.52 171.253 221.422 171.122C221.325 170.991 221.272 170.832 221.27 170.669C221.257 170.596 221.257 170.521 221.27 170.449C221.297 170.352 221.343 170.263 221.405 170.185C221.468 170.107 221.545 170.042 221.632 169.994C221.72 169.945 221.816 169.915 221.915 169.905C222.015 169.894 222.115 169.903 222.211 169.932C226.566 171.228 229.786 169.779 231.735 165.635C232.471 164.033 232.954 162.327 233.167 160.576Z" fill="#FBC22D"/>
<path d="M239.031 178.456C235.752 175.941 233.269 172.534 231.879 168.643L231.769 168.465C231.138 169.379 230.325 170.153 229.379 170.737C228.434 171.32 227.378 171.701 226.278 171.854C229.301 173.985 231.705 176.88 233.243 180.244C233.962 181.718 234.568 183.245 235.057 184.811C235.713 182.341 237.098 180.126 239.031 178.456Z" fill="white"/>
<path d="M231.743 165.601C229.794 169.744 226.574 171.193 222.219 169.897C222.123 169.868 222.023 169.859 221.923 169.87C221.824 169.88 221.728 169.911 221.64 169.959C221.553 170.007 221.476 170.072 221.414 170.15C221.352 170.228 221.305 170.318 221.278 170.414C221.265 170.487 221.265 170.561 221.278 170.634C221.28 170.797 221.333 170.956 221.431 171.087C221.528 171.218 221.665 171.314 221.821 171.363C231.896 174.363 234.379 188.056 234.396 188.2C234.428 188.377 234.521 188.537 234.659 188.651C234.797 188.766 234.971 188.828 235.15 188.827C235.335 188.822 235.512 188.75 235.648 188.623C235.784 188.497 235.869 188.326 235.887 188.141C235.887 188.039 236.904 178.354 243.92 178.354C244.909 178.37 245.891 178.527 246.835 178.82C246.905 178.832 246.977 178.832 247.047 178.82C247.251 178.82 247.447 178.74 247.593 178.598C247.738 178.455 247.822 178.261 247.827 178.057C247.828 177.878 247.765 177.704 247.651 177.566C247.536 177.428 247.376 177.335 247.2 177.303C237.175 174.261 234.709 160.626 234.692 160.491C234.663 160.308 234.568 160.141 234.424 160.024C234.28 159.907 234.098 159.847 233.913 159.855C233.728 159.862 233.552 159.935 233.417 160.061C233.281 160.187 233.196 160.358 233.175 160.542C232.962 162.292 232.479 163.998 231.743 165.601ZM235.057 184.768C234.568 183.203 233.962 181.676 233.243 180.201C231.705 176.838 229.301 173.943 226.278 171.812C227.378 171.658 228.434 171.278 229.379 170.694C230.325 170.111 231.138 169.337 231.769 168.422L231.845 168.634C233.235 172.525 235.718 175.933 238.997 178.447C237.082 180.113 235.709 182.315 235.057 184.768ZM233.989 163.948C234.475 165.515 235.081 167.042 235.802 168.516C237.341 171.879 239.745 174.774 242.768 176.905C241.947 177.007 241.149 177.241 240.404 177.6C240.382 177.565 240.353 177.536 240.319 177.515C235.997 174.515 233.87 170.015 232.837 166.761C233.305 165.86 233.69 164.919 233.989 163.948Z" fill="#321951"/>
<path d="M109.084 205.462V199.234C105.033 199.53 93.5514 199.725 80.1203 199.725C71.9938 199.725 64.3589 199.657 58.6136 199.522C54.1817 199.42 51.7836 199.335 50.4956 199.191V205.411C53.0378 205.682 64.2487 205.954 80.1542 205.954C93.4497 205.954 105.22 205.75 109.084 205.462Z" fill="#FBC22D"/>
<path d="M110.355 206.716C111.142 206.844 111.939 206.912 112.736 206.92H192.721C194.763 206.919 196.783 206.495 198.653 205.674C201.076 204.666 203.152 202.972 204.624 200.799C206.097 198.626 206.902 196.071 206.94 193.446V177.82C210.143 190.633 219.338 202.166 229.871 205.674L230.565 205.911C232.037 206.348 233.564 206.568 235.099 206.564C237.002 206.54 238.892 206.24 240.709 205.674C242.671 205.075 244.59 204.344 246.454 203.488C248.76 202.677 250.839 201.329 252.521 199.556C256.589 195.319 258.648 188.786 258.317 181.185C257.623 165.194 246.496 149.043 233.514 145.179C231.7 144.631 229.817 144.345 227.922 144.332C225.891 144.324 223.878 144.704 221.99 145.45H221.931C221.385 145.669 220.853 145.921 220.337 146.204L216.753 147.899C212.059 149.89 208.661 154.161 206.966 159.763V13.9949C206.966 6.56336 200.593 0.521484 192.755 0.521484H112.736C104.906 0.521484 98.534 6.56336 98.534 13.9949V103.098C94.8893 100.486 90.7287 98.6823 86.3306 97.8081C81.9326 96.9339 77.3986 97.0091 73.0319 98.0286C68.6653 99.0481 64.5668 100.989 61.0106 103.72C57.4544 106.451 54.5226 109.911 52.4114 113.867C50.3001 117.823 49.0581 122.184 48.7684 126.659C48.4787 131.133 49.1481 135.618 50.7317 139.813C52.3153 144.009 54.7766 147.817 57.9509 150.984C61.1253 154.151 64.9394 156.604 69.1382 158.178C57.2747 158.288 49.8347 158.61 49.6991 158.619C49.654 158.614 49.6086 158.614 49.5635 158.619H49.4195C49.3736 158.637 49.3329 158.666 49.3008 158.703C49.2122 158.746 49.1406 158.818 49.0975 158.907C49.0672 158.946 49.0416 158.989 49.0212 159.034C49.0164 159.082 49.0164 159.13 49.0212 159.178C49.0172 159.223 49.0172 159.268 49.0212 159.313V205.92C49.0212 206.767 49.0212 206.92 55.885 207.106L58.6644 207.182C64.4097 207.309 72.0447 207.386 80.1711 207.386C89.9754 207.386 98.7459 207.284 104.347 207.106C107.033 207.03 108.999 206.928 109.982 206.826C110.114 206.824 110.243 206.786 110.355 206.716ZM50.538 205.411V199.191C51.826 199.336 54.2241 199.42 58.656 199.522C64.4013 199.658 72.0362 199.725 80.1627 199.725C93.5938 199.725 105.076 199.53 109.126 199.234V205.462C105.262 205.75 93.4921 205.954 80.1627 205.954C64.2487 205.954 52.9954 205.682 50.538 205.411ZM80.1966 98.6829C86.1265 98.6829 91.9233 100.441 96.8538 103.736C101.784 107.031 105.627 111.714 107.896 117.192C110.165 122.671 110.758 128.7 109.6 134.515C108.443 140.331 105.587 145.673 101.393 149.866C97.1993 154.058 91.8565 156.913 86.0403 158.069C80.2241 159.225 74.1957 158.63 68.7176 156.359C63.2395 154.089 58.5578 150.245 55.2645 145.314C51.9712 140.382 50.2143 134.585 50.216 128.655C50.225 120.707 53.3868 113.088 59.0075 107.468C64.6283 101.849 72.2488 98.6896 80.1966 98.6829ZM112.779 2.08068H192.764C199.763 2.08068 205.474 7.43617 205.474 14.0288V193.446C205.474 200.03 199.788 205.394 192.764 205.394H112.736C112.023 205.388 111.312 205.326 110.609 205.208V159.483C110.609 159.483 110.609 159.415 110.609 159.381C110.603 159.318 110.589 159.255 110.567 159.195L110.508 159.102C110.476 159.045 110.439 158.991 110.397 158.941L110.321 158.898L110.169 158.805H110.033C110.033 158.805 109.957 158.805 109.923 158.805C106.533 158.678 103.288 158.568 100.102 158.483V153.102C103.724 150.152 106.644 146.433 108.65 142.214C110.655 137.995 111.696 133.382 111.696 128.71C111.696 124.038 110.655 119.426 108.65 115.206C106.644 110.987 103.724 107.268 100.102 104.318V13.9949C100.059 7.40227 105.745 2.04678 112.736 2.04678L112.779 2.08068ZM50.538 160.33C51.826 160.474 54.2241 160.559 58.656 160.661C64.4013 160.788 72.0362 160.864 80.1627 160.864C93.5768 160.864 105.067 160.669 109.126 160.373V166.677C105.271 166.965 93.4921 167.169 80.1627 167.169C64.2911 167.169 53.0463 166.898 50.5041 166.626L50.538 160.33ZM91.0177 158.263C93.7108 157.276 96.2544 155.921 98.5764 154.238V158.424C95.9495 158.33 93.4243 158.28 90.9753 158.237L91.0177 158.263ZM58.6136 168.465C64.3589 168.601 71.9939 168.669 80.1203 168.669C93.5514 168.669 105.033 168.474 109.084 168.186V174.405C105.228 174.694 93.4497 174.897 80.1203 174.897C64.2487 174.897 53.0039 174.626 50.4617 174.355V168.135C51.7837 168.279 54.1818 168.364 58.6136 168.465ZM58.6136 176.219C64.3589 176.346 71.9939 176.422 80.1203 176.422C93.5514 176.422 105.033 176.227 109.084 175.931V182.159C105.22 182.447 93.4497 182.65 80.1203 182.65C64.2487 182.65 53.0039 182.379 50.4617 182.108V175.888C51.7837 176.032 54.1818 176.117 58.6136 176.219ZM58.6136 183.972C64.3589 184.1 71.9939 184.176 80.1203 184.176C93.5429 184.176 105.033 183.981 109.084 183.684V189.989C105.228 190.277 93.4497 190.48 80.1203 190.48C64.2487 190.48 53.0039 190.218 50.4617 189.938V183.676C51.7837 183.786 54.1818 183.862 58.6136 183.972ZM58.6136 191.768C64.3589 191.904 71.9939 191.98 80.1203 191.98C93.5514 191.98 105.033 191.777 109.084 191.489V197.709C105.228 197.997 93.4497 198.2 80.1203 198.2C64.2487 198.2 53.0039 197.929 50.4617 197.658V191.438C51.7837 191.582 54.1818 191.684 58.6136 191.768ZM233.074 146.645C245.479 150.34 256.114 165.864 256.801 181.252C257.114 188.43 255.207 194.556 251.437 198.497C247.666 202.437 241.963 203.852 235.989 202.073C223.583 198.378 212.948 182.854 212.262 167.474C211.957 160.288 213.855 154.161 217.634 150.221C218.953 148.823 220.548 147.714 222.317 146.963C224.086 146.211 225.991 145.835 227.913 145.857C229.662 145.869 231.401 146.134 233.074 146.645ZM215.584 150.255C212.194 154.492 210.44 160.551 210.737 167.542C211.431 183.523 222.558 199.675 235.54 203.539C236.95 203.962 238.402 204.232 239.87 204.344C238.316 204.793 236.708 205.029 235.091 205.047C233.704 205.047 232.325 204.844 230.998 204.445C218.592 200.751 207.957 185.227 207.271 169.846C206.898 160.923 210.042 153.644 215.584 150.255Z" fill="#321951"/>
<path d="M50.5381 197.657C53.0802 197.928 64.2912 198.2 80.1966 198.2C93.5261 198.2 105.305 197.996 109.16 197.708V191.488C105.11 191.776 93.6277 191.98 80.1966 191.98C72.0702 191.98 64.4352 191.904 58.69 191.768C54.2581 191.666 51.86 191.582 50.572 191.438L50.5381 197.657Z" fill="#FBC22D"/>
<path d="M50.5381 189.904C53.0802 190.183 64.2912 190.446 80.1966 190.446C93.5261 190.446 105.305 190.243 109.16 189.955V183.684C105.11 183.981 93.6193 184.175 80.1966 184.175C72.0702 184.175 64.4352 184.099 58.69 183.972C54.2581 183.862 51.86 183.786 50.572 183.642L50.5381 189.904Z" fill="#FBC22D"/>
<path d="M50.5381 182.109C53.0802 182.38 64.2912 182.651 80.1966 182.651C93.5261 182.651 105.296 182.447 109.16 182.159V175.931C105.11 176.228 93.6277 176.423 80.1966 176.423C72.0702 176.423 64.4352 176.346 58.69 176.219C54.2581 176.117 51.86 176.033 50.572 175.889L50.5381 182.109Z" fill="#FBC22D"/>
<path d="M50.5381 174.355C53.0802 174.626 64.2912 174.897 80.1966 174.897C93.5261 174.897 105.305 174.694 109.16 174.405V168.186C105.11 168.474 93.6277 168.669 80.1966 168.669C72.0702 168.669 64.4352 168.601 58.69 168.465C54.2581 168.364 51.86 168.279 50.572 168.135L50.5381 174.355Z" fill="#FBC22D"/>
<path d="M109.084 166.652V160.33C105.025 160.627 93.5344 160.822 80.1203 160.822C71.9938 160.822 64.3589 160.746 58.6136 160.619C54.1817 160.517 51.7836 160.432 50.4956 160.288V166.584C53.0378 166.855 64.2487 167.126 80.1542 167.126C93.4497 167.11 105.228 166.94 109.084 166.652Z" fill="#FBC22D"/>
<path d="M80.1969 158.636C86.1265 158.636 91.9229 156.878 96.8532 153.583C101.783 150.289 105.626 145.607 107.895 140.128C110.164 134.65 110.758 128.622 109.601 122.806C108.445 116.991 105.589 111.649 101.396 107.456C97.2035 103.263 91.8615 100.408 86.0458 99.2509C80.2301 98.0941 74.202 98.6878 68.7238 100.957C63.2456 103.226 58.5632 107.069 55.2689 111.999C51.9746 116.929 50.2163 122.726 50.2163 128.655C50.2253 136.604 53.3868 144.224 59.0073 149.845C64.6278 155.465 72.2483 158.627 80.1969 158.636ZM79.4427 113.724C79.4728 113.546 79.5651 113.385 79.7032 113.268C79.8413 113.152 80.0163 113.088 80.1969 113.089C80.3765 113.089 80.5503 113.153 80.687 113.269C80.8237 113.386 80.9143 113.547 80.9426 113.724C81.4746 116.272 82.4714 118.699 83.883 120.885C85.2401 123.101 87.1605 124.918 89.4484 126.151C91.7363 127.383 94.31 127.987 96.9074 127.901C97.1096 127.901 97.3036 127.982 97.4466 128.125C97.5897 128.268 97.67 128.462 97.67 128.664C97.67 128.866 97.5897 129.06 97.4466 129.203C97.3036 129.346 97.1096 129.427 96.9074 129.427C94.3103 129.342 91.7372 129.947 89.4496 131.18C87.162 132.412 85.2414 134.228 83.883 136.443C82.4747 138.631 81.4781 141.057 80.9426 143.603C80.916 143.781 80.8258 143.944 80.6887 144.061C80.5517 144.178 80.377 144.241 80.1969 144.239C80.0158 144.241 79.84 144.178 79.7015 144.061C79.563 143.945 79.4712 143.782 79.4427 143.603C78.9079 141.058 77.9144 138.632 76.5107 136.443C75.1509 134.227 73.2289 132.411 70.9398 131.179C68.6507 129.946 66.0762 129.342 63.4779 129.427C63.2757 129.427 63.0817 129.346 62.9386 129.203C62.7956 129.06 62.7153 128.866 62.7153 128.664C62.7153 128.462 62.7956 128.268 62.9386 128.125C63.0817 127.982 63.2757 127.901 63.4779 127.901C76.8751 127.893 79.3495 113.86 79.4003 113.724H79.4427Z" fill="#FBC22D"/>
<path d="M80.1965 140.628C81.4506 137.01 84.5775 130.807 91.5769 128.655C84.5775 126.502 81.4506 120.308 80.1965 116.689C78.9339 120.308 75.8155 126.502 68.8076 128.655C75.7731 130.807 78.8915 137.01 80.1965 140.628Z" fill="white"/>
<path d="M62.6729 128.655C62.6729 128.857 62.7532 129.051 62.8962 129.194C63.0392 129.337 63.2332 129.418 63.4355 129.418C66.0338 129.333 68.6083 129.937 70.8974 131.17C73.1864 132.402 75.1085 134.218 76.4683 136.434C77.872 138.623 78.8655 141.05 79.4003 143.594C79.4287 143.773 79.5206 143.936 79.6591 144.053C79.7976 144.169 79.9734 144.232 80.1544 144.23C80.3345 144.232 80.5093 144.169 80.6463 144.052C80.7834 143.935 80.8736 143.773 80.9002 143.594C81.4357 141.048 82.4322 138.622 83.8406 136.434C85.199 134.219 87.1196 132.403 89.4072 131.171C91.6948 129.938 94.2679 129.334 96.8649 129.418C97.0672 129.418 97.2612 129.337 97.4042 129.194C97.5472 129.051 97.6276 128.857 97.6276 128.655C97.6276 128.453 97.5472 128.259 97.4042 128.116C97.2612 127.973 97.0672 127.892 96.8649 127.892C94.2676 127.978 91.6939 127.374 89.4059 126.142C87.118 124.909 85.1977 123.092 83.8406 120.876C82.429 118.69 81.4322 116.263 80.9002 113.716C80.8719 113.538 80.7813 113.377 80.6446 113.26C80.5079 113.144 80.3341 113.08 80.1544 113.08C79.9738 113.08 79.7989 113.143 79.6608 113.26C79.5227 113.376 79.4304 113.538 79.4003 113.716C79.4003 113.86 76.8581 127.892 63.4355 127.892C63.2332 127.892 63.0392 127.973 62.8962 128.116C62.7532 128.259 62.6729 128.453 62.6729 128.655ZM80.1968 116.69C81.451 120.308 84.5778 126.503 91.5772 128.655C84.5778 130.807 81.451 137.01 80.1968 140.629C78.9342 137.01 75.8158 130.807 68.8079 128.655C75.7735 126.503 78.8918 120.308 80.1968 116.69Z" fill="#321951"/>
<path d="M149.301 11.5881C149.818 11.5881 150.322 11.435 150.751 11.1482C151.181 10.8614 151.515 10.4538 151.713 9.9769C151.91 9.5 151.962 8.97522 151.861 8.46894C151.76 7.96266 151.512 7.49761 151.147 7.1326C150.782 6.76759 150.317 6.51902 149.811 6.41831C149.304 6.31761 148.779 6.36929 148.303 6.56684C147.826 6.76438 147.418 7.0989 147.131 7.52811C146.844 7.95731 146.691 8.46192 146.691 8.97812C146.691 9.32086 146.759 9.66025 146.89 9.9769C147.021 10.2936 147.213 10.5813 147.456 10.8236C147.698 11.066 147.986 11.2582 148.303 11.3894C148.619 11.5206 148.959 11.5881 149.301 11.5881Z" fill="#321951"/>
<path d="M156.673 11.08C157.089 11.0783 157.494 10.9536 157.839 10.7217C158.183 10.4898 158.451 10.161 158.609 9.77682C158.767 9.39267 158.807 8.9704 158.725 8.5633C158.643 8.15621 158.442 7.78254 158.148 7.48949C157.854 7.19643 157.479 6.99712 157.072 6.91672C156.664 6.83632 156.242 6.87842 155.859 7.03773C155.475 7.19703 155.148 7.46639 154.917 7.8118C154.687 8.15721 154.563 8.56318 154.563 8.97846C154.563 9.25515 154.618 9.52911 154.724 9.78464C154.83 10.0402 154.986 10.2722 155.182 10.4675C155.378 10.6627 155.611 10.8173 155.867 10.9224C156.123 11.0276 156.397 11.0811 156.673 11.08Z" fill="#321951"/>
</g>
<defs>
<clipPath id="clip0_2051_111950">
<rect width="307" height="206.957" fill="white" transform="translate(0 0.521484)"/>
</clipPath>
</defs>
</svg>
