<svg width="307" height="207" viewBox="0 0 307 207" fill="none" xmlns="http://www.w3.org/2000/svg">
<g clip-path="url(#clip0_741_58725)">
<path d="M210.737 167.054C210.44 160.062 212.152 153.993 215.584 149.764C210.042 153.154 206.898 160.434 207.288 169.359C207.957 184.743 218.592 200.27 231.015 203.965C232.342 204.364 233.721 204.567 235.108 204.567C236.725 204.549 238.333 204.313 239.887 203.864C238.419 203.752 236.967 203.482 235.557 203.058C222.558 199.193 211.432 183.039 210.737 167.054Z" fill="#FBC22D"/>
<path d="M256.784 180.768C256.114 165.376 245.48 149.849 233.057 146.153C231.384 145.643 229.646 145.377 227.896 145.365C225.975 145.343 224.069 145.72 222.3 146.471C220.531 147.222 218.937 148.332 217.618 149.73C213.838 153.671 211.94 159.799 212.245 166.986C212.915 182.37 223.549 197.897 235.972 201.592C241.946 203.372 247.539 202.067 251.42 198.016C255.301 193.964 257.097 187.947 256.784 180.768Z" fill="#FBC22D"/>
<path d="M58.6138 199.041C54.182 198.94 51.7839 198.855 50.4958 198.711V204.932C53.038 205.203 64.2489 205.474 80.1544 205.474C93.4838 205.474 105.254 205.271 109.118 204.983V198.753C105.068 199.05 93.5855 199.245 80.1544 199.245C71.9941 199.245 64.3591 199.177 58.6138 199.041Z" fill="#FBC22D"/>
<path d="M58.6138 191.287C54.182 191.185 51.7839 191.1 50.4958 190.956V197.177C53.038 197.448 64.2489 197.72 80.1544 197.72C93.4838 197.72 105.263 197.516 109.118 197.228V191.007C105.068 191.295 93.5855 191.498 80.1544 191.498C71.9941 191.498 64.3591 191.422 58.6138 191.287Z" fill="#FBC22D"/>
<path d="M58.6138 183.489C54.182 183.379 51.7839 183.302 50.4958 183.158V189.422C53.038 189.701 64.2489 189.964 80.1544 189.964C93.4838 189.964 105.263 189.761 109.118 189.473V183.201C105.068 183.497 93.577 183.692 80.1544 183.692C71.9941 183.692 64.3591 183.616 58.6138 183.489Z" fill="#FBC22D"/>
<path d="M58.6138 175.734C54.182 175.632 51.7839 175.547 50.4958 175.403V181.624C53.038 181.896 64.2489 182.167 80.1544 182.167C93.4838 182.167 105.254 181.963 109.118 181.675V175.446C105.068 175.742 93.5855 175.937 80.1544 175.937C71.9941 175.946 64.3591 175.861 58.6138 175.734Z" fill="#FBC22D"/>
<path d="M58.6138 167.978C54.182 167.876 51.7839 167.792 50.4958 167.647V173.869C53.038 174.14 64.2489 174.411 80.1544 174.411C93.4838 174.411 105.263 174.208 109.118 173.919V167.698C105.068 167.986 93.5855 168.181 80.1544 168.181C71.9941 168.181 64.3591 168.114 58.6138 167.978Z" fill="#FBC22D"/>
<path d="M58.6138 160.147C54.182 160.045 51.7839 159.96 50.4958 159.816V166.114C53.038 166.385 64.2489 166.656 80.1544 166.656C93.4838 166.656 105.263 166.453 109.118 166.165V159.842C105.059 160.138 93.5686 160.333 80.1544 160.333C71.9941 160.35 64.3591 160.274 58.6138 160.147Z" fill="#FBC22D"/>
<path d="M80.1968 98.1816C74.2665 98.18 68.4689 99.9374 63.5373 103.232C58.6057 106.526 54.7617 111.209 52.4915 116.689C50.2213 122.169 49.6269 128.199 50.7834 134.016C51.94 139.834 54.7955 145.178 58.9889 149.372C63.1823 153.566 68.5251 156.423 74.3415 157.579C80.158 158.736 86.1867 158.142 91.6653 155.871C97.1439 153.6 101.826 149.755 105.12 144.823C108.413 139.89 110.171 134.091 110.169 128.16C110.158 120.213 106.996 112.594 101.378 106.974C95.7595 101.355 88.1425 98.1929 80.1968 98.1816Z" fill="#FBC22D"/>
<path d="M48.9705 205.533V205.194H0.762649C0.560382 205.194 0.366399 205.275 0.223375 205.418C0.0803505 205.561 0 205.755 0 205.957C0 206.159 0.0803505 206.353 0.223375 206.497C0.366399 206.64 0.560382 206.72 0.762649 206.72H55.8428C48.9705 206.533 48.9705 206.356 48.9705 205.533Z" fill="black"/>
<path d="M306.229 205.194H240.7C238.883 205.761 236.994 206.06 235.091 206.084C233.556 206.089 232.028 205.869 230.557 205.432L229.862 205.194H198.644C196.775 206.016 194.755 206.44 192.713 206.44H112.736C111.939 206.433 111.143 206.365 110.355 206.237C110.24 206.349 110.091 206.42 109.932 206.44C108.949 206.542 106.983 206.644 104.296 206.72H306.229C306.431 206.72 306.625 206.64 306.768 206.497C306.911 206.353 306.991 206.159 306.991 205.957C306.991 205.755 306.911 205.561 306.768 205.418C306.625 205.275 306.431 205.194 306.229 205.194Z" fill="black"/>
<path d="M192.721 1.52546H183.29C183.08 1.51054 182.869 1.5377 182.669 1.60536C182.469 1.67303 182.285 1.77984 182.128 1.91954C181.97 2.05923 181.841 2.22902 181.75 2.41895C181.659 2.60887 181.606 2.81513 181.595 3.02565V4.93266C181.555 6.36023 180.951 7.71381 179.916 8.6971C178.88 9.68038 177.498 10.2133 176.07 10.1791H129.345C127.918 10.2133 126.535 9.68038 125.5 8.6971C124.464 7.71381 123.86 6.36023 123.82 4.93266V3.0426C123.81 2.83208 123.757 2.62582 123.666 2.4359C123.574 2.24597 123.446 2.07619 123.288 1.93649C123.13 1.79679 122.946 1.68998 122.746 1.62232C122.547 1.55465 122.336 1.52749 122.125 1.54241H112.736C105.746 1.54241 100.026 6.899 100.026 13.493V103.767C103.648 106.717 106.568 110.437 108.574 114.657C110.579 118.877 111.62 123.491 111.62 128.164C111.62 132.836 110.579 137.45 108.574 141.67C106.568 145.89 103.648 149.611 100.026 152.561V157.943C103.212 158.028 106.491 158.138 109.847 158.265C109.847 158.265 109.915 158.265 109.957 158.265H110.093L110.245 158.358L110.321 158.401C110.363 158.451 110.4 158.505 110.432 158.562L110.491 158.655C110.513 158.715 110.527 158.778 110.533 158.841C110.533 158.841 110.533 158.909 110.533 158.943V204.762C111.236 204.88 111.947 204.943 112.66 204.949H192.645C199.645 204.949 205.356 199.584 205.356 192.998V13.4761C205.407 6.88205 199.721 1.52546 192.721 1.52546Z" fill="#F1E6FF"/>
<path d="M184.942 44.3955H120.541C118.721 44.3978 116.977 45.1218 115.69 46.4088C114.403 47.6958 113.679 49.4407 113.677 51.2608V74.7128H191.806V51.2608C191.806 49.44 191.083 47.6938 189.796 46.4063C188.509 45.1188 186.763 44.3955 184.942 44.3955Z" fill="#8B6FE2"/>
<path d="M113.677 85.1635C113.679 86.9836 114.403 88.7285 115.69 90.0155C116.977 91.3025 118.721 92.0265 120.541 92.0287H184.942C186.763 92.0287 188.509 91.3054 189.796 90.0179C191.083 88.7305 191.806 86.9843 191.806 85.1635V84.8838H113.677V85.1635Z" fill="#8B6FE2"/>
<path d="M152.326 120.616C147.886 120.616 143.546 121.933 139.855 124.401C136.163 126.868 133.286 130.375 131.587 134.478C129.888 138.581 129.444 143.096 130.311 147.451C131.178 151.807 133.317 155.807 136.457 158.947C139.597 162.087 143.597 164.224 147.952 165.09C152.307 165.955 156.821 165.509 160.923 163.809C165.024 162.108 168.529 159.229 170.995 155.536C173.46 151.842 174.775 147.501 174.774 143.06C174.765 137.109 172.397 131.404 168.189 127.197C163.981 122.989 158.276 120.623 152.326 120.616Z" fill="#00DA9C"/>
<path d="M132.362 49.1504H121.727C120.744 49.1504 119.948 49.9473 119.948 50.9303V55.5495C119.948 56.5325 120.744 57.3294 121.727 57.3294H132.362C133.345 57.3294 134.142 56.5325 134.142 55.5495V50.9303C134.142 49.9473 133.345 49.1504 132.362 49.1504Z" fill="white"/>
<path d="M151.886 145.934C151.832 146.052 151.748 146.154 151.642 146.23C151.537 146.306 151.413 146.353 151.284 146.366C151.154 146.38 151.022 146.359 150.902 146.307C150.782 146.256 150.677 146.173 150.598 146.069L144.454 138.128L141.522 142.043L152.047 155.672L163.122 132.61L159.478 130.144L151.886 145.934Z" fill="white"/>
<path d="M231.879 168.156L231.769 167.979C231.138 168.893 230.325 169.667 229.379 170.251C228.434 170.834 227.378 171.215 226.278 171.369C229.301 173.5 231.705 176.395 233.243 179.76C233.962 181.235 234.568 182.762 235.057 184.328C235.72 181.873 237.105 179.673 239.031 178.014C235.746 175.487 233.262 172.064 231.879 168.156Z" fill="white"/>
<path d="M80.1968 116.192C78.9341 119.811 75.8158 126.007 68.8079 128.16C75.8158 130.313 78.9341 136.517 80.1968 140.136C81.4509 136.517 84.5777 130.313 91.5772 128.16C84.5354 126.007 81.4085 119.811 80.1968 116.192Z" fill="white"/>
<path d="M130.04 18.299H177.494C177.696 18.299 177.89 18.2187 178.033 18.0756C178.176 17.9326 178.256 17.7386 178.256 17.5362C178.256 17.3339 178.176 17.1399 178.033 16.9969C177.89 16.8538 177.696 16.7734 177.494 16.7734H130.04C129.838 16.7734 129.644 16.8538 129.501 16.9969C129.358 17.1399 129.277 17.3339 129.277 17.5362C129.277 17.7386 129.358 17.9326 129.501 18.0756C129.644 18.2187 129.838 18.299 130.04 18.299Z" fill="#321951"/>
<path d="M147.632 20.8418C147.43 20.8418 147.236 20.9222 147.093 21.0652C146.949 21.2083 146.869 21.4023 146.869 21.6046C146.869 21.8069 146.949 22.0009 147.093 22.144C147.236 22.287 147.43 22.3674 147.632 22.3674H159.919C160.121 22.3674 160.315 22.287 160.458 22.144C160.601 22.0009 160.682 21.8069 160.682 21.6046C160.682 21.4023 160.601 21.2083 160.458 21.0652C160.315 20.9222 160.121 20.8418 159.919 20.8418H147.632Z" fill="#321951"/>
<path d="M154.826 194.21H153.784C153.582 194.21 153.388 194.29 153.245 194.433C153.102 194.576 153.021 194.77 153.021 194.973C153.021 195.175 153.102 195.369 153.245 195.512C153.388 195.655 153.582 195.736 153.784 195.736H162.122C162.324 195.736 162.518 195.655 162.661 195.512C162.804 195.369 162.885 195.175 162.885 194.973C162.885 194.77 162.804 194.576 162.661 194.433C162.518 194.29 162.324 194.21 162.122 194.21H154.826Z" fill="#321951"/>
<path d="M176.477 198.262H129.023C128.834 198.282 128.658 198.371 128.531 198.513C128.403 198.654 128.333 198.838 128.333 199.029C128.333 199.219 128.403 199.403 128.531 199.545C128.658 199.686 128.834 199.776 129.023 199.796H176.477C176.666 199.776 176.842 199.686 176.969 199.545C177.097 199.403 177.167 199.219 177.167 199.029C177.167 198.838 177.097 198.654 176.969 198.513C176.842 198.371 176.666 198.282 176.477 198.262Z" fill="#321951"/>
<path d="M184.942 42.8779H120.541C118.316 42.8802 116.184 43.7649 114.611 45.338C113.038 46.9111 112.154 49.0441 112.152 51.2688V85.1713C112.154 87.396 113.038 89.5289 114.611 91.102C116.184 92.6751 118.316 93.5599 120.541 93.5621H184.942C187.166 93.5599 189.299 92.6751 190.872 91.102C192.445 89.5289 193.329 87.396 193.331 85.1713V51.2688C193.329 49.0441 192.445 46.9111 190.872 45.338C189.299 43.7649 187.166 42.8802 184.942 42.8779ZM191.806 85.1713C191.806 86.992 191.083 88.7382 189.796 90.0257C188.508 91.3132 186.763 92.0365 184.942 92.0365H120.541C118.721 92.0343 116.976 91.3102 115.69 90.0232C114.403 88.7362 113.679 86.9913 113.677 85.1713V84.8916H191.806V85.1713ZM191.806 74.7208H113.677V51.2603C113.679 49.4402 114.403 47.6953 115.69 46.4083C116.976 45.1213 118.721 44.3973 120.541 44.3951H184.942C186.763 44.3951 188.508 45.1184 189.796 46.4058C191.083 47.6933 191.806 49.4395 191.806 51.2603V74.7208Z" fill="#321951"/>
<path d="M132.353 47.624H121.719C120.843 47.6263 120.004 47.9752 119.384 48.5947C118.765 49.2141 118.416 50.0535 118.414 50.9295V55.5911C118.416 56.4671 118.765 57.3066 119.384 57.926C120.004 58.5454 120.843 58.8944 121.719 58.8966H132.345C132.779 58.8966 133.209 58.8111 133.61 58.645C134.011 58.4789 134.375 58.2354 134.682 57.9284C134.989 57.6215 135.232 57.2571 135.398 56.8561C135.564 56.455 135.65 56.0252 135.65 55.5911V50.9295C135.65 50.0543 135.303 49.2148 134.685 48.5952C134.067 47.9755 133.228 47.6263 132.353 47.624ZM134.133 55.5487C134.131 56.0201 133.942 56.4715 133.609 56.8048C133.276 57.1381 132.825 57.3264 132.353 57.3286H121.719C121.247 57.3264 120.796 57.1381 120.463 56.8048C120.13 56.4715 119.941 56.0201 119.939 55.5487V50.9295C119.939 50.4575 120.127 50.0047 120.46 49.671C120.794 49.3372 121.247 49.1496 121.719 49.1496H132.345C132.817 49.1496 133.269 49.3372 133.603 49.671C133.937 50.0047 134.124 50.4575 134.124 50.9295L134.133 55.5487Z" fill="#321951"/>
<path d="M176.299 143.06C176.299 138.317 174.893 133.681 172.259 129.738C169.625 125.795 165.881 122.722 161.5 120.907C157.12 119.092 152.3 118.618 147.65 119.543C142.999 120.468 138.728 122.752 135.375 126.105C132.023 129.458 129.739 133.731 128.814 138.382C127.889 143.033 128.364 147.854 130.179 152.235C131.993 156.617 135.066 160.361 139.008 162.996C142.95 165.631 147.585 167.037 152.326 167.037C158.683 167.033 164.778 164.505 169.273 160.009C173.767 155.514 176.294 149.417 176.299 143.06ZM152.326 165.512C147.887 165.512 143.547 164.195 139.855 161.728C136.164 159.261 133.287 155.754 131.588 151.652C129.889 147.549 129.444 143.035 130.31 138.679C131.177 134.324 133.314 130.324 136.454 127.184C139.593 124.044 143.593 121.905 147.947 121.039C152.301 120.173 156.815 120.617 160.917 122.317C165.018 124.016 168.524 126.894 170.991 130.586C173.457 134.278 174.774 138.619 174.774 143.06C174.767 149.012 172.4 154.719 168.192 158.928C163.983 163.137 158.278 165.505 152.326 165.512Z" fill="#321951"/>
<path d="M164.52 131.719L159.656 128.414L159.504 128.321L159.36 128.27C159.204 128.222 159.036 128.227 158.883 128.284C158.73 128.34 158.6 128.446 158.512 128.583C158.47 128.642 158.438 128.708 158.419 128.778L151.021 144.162L145.09 136.44C144.991 136.301 144.852 136.194 144.691 136.135C144.539 136.089 144.377 136.09 144.225 136.138C144.074 136.187 143.941 136.28 143.844 136.406L139.971 141.594C139.87 141.726 139.816 141.889 139.816 142.055C139.816 142.222 139.87 142.385 139.971 142.517L151.615 157.579C151.686 157.67 151.777 157.744 151.881 157.796C151.986 157.847 152.1 157.874 152.216 157.875H152.301C152.43 157.859 152.553 157.81 152.66 157.735C152.766 157.66 152.852 157.559 152.911 157.443L164.774 132.677C164.853 132.513 164.871 132.327 164.824 132.151C164.777 131.976 164.67 131.823 164.52 131.719ZM152.047 155.672L141.522 142.043L144.454 138.127L150.598 146.069C150.677 146.173 150.782 146.255 150.902 146.307C151.022 146.359 151.154 146.379 151.284 146.365C151.413 146.352 151.537 146.305 151.642 146.229C151.748 146.153 151.832 146.051 151.886 145.933L159.512 130.143L163.156 132.609L152.047 155.672Z" fill="#321951"/>
<path d="M247.191 176.853C237.167 173.81 234.701 160.172 234.684 160.037C234.655 159.854 234.559 159.687 234.415 159.57C234.272 159.453 234.09 159.393 233.904 159.401C233.72 159.408 233.543 159.481 233.408 159.607C233.273 159.733 233.187 159.904 233.167 160.088C232.953 161.826 232.473 163.521 231.743 165.114C229.794 169.258 226.574 170.708 222.219 169.411C222.123 169.382 222.023 169.373 221.923 169.384C221.824 169.394 221.728 169.425 221.64 169.473C221.553 169.521 221.476 169.586 221.414 169.664C221.352 169.742 221.305 169.832 221.278 169.928C221.265 170.001 221.265 170.075 221.278 170.148C221.28 170.312 221.333 170.47 221.431 170.601C221.528 170.732 221.665 170.829 221.821 170.877C231.896 173.878 234.379 187.574 234.396 187.718C234.428 187.895 234.521 188.054 234.659 188.169C234.797 188.284 234.971 188.346 235.15 188.345C235.335 188.34 235.512 188.268 235.648 188.141C235.784 188.015 235.869 187.843 235.887 187.659C235.887 187.557 236.904 177.87 243.92 177.87C244.909 177.886 245.891 178.043 246.835 178.336C246.905 178.348 246.977 178.348 247.047 178.336C247.251 178.336 247.447 178.256 247.593 178.113C247.738 177.971 247.822 177.777 247.827 177.573C247.82 177.398 247.752 177.231 247.637 177.1C247.521 176.969 247.364 176.882 247.191 176.853ZM235.057 184.286C234.568 182.719 233.962 181.192 233.243 179.717C231.705 176.353 229.301 173.457 226.278 171.326C227.378 171.173 228.434 170.792 229.379 170.208C230.325 169.625 231.138 168.851 231.769 167.936L231.845 168.148C233.235 172.04 235.718 175.448 238.997 177.963C237.082 179.63 235.709 181.832 235.057 184.286ZM240.404 177.115C240.382 177.081 240.353 177.052 240.319 177.03C235.997 174.03 233.87 169.53 232.837 166.275C233.305 165.374 233.69 164.432 233.989 163.461C234.475 165.028 235.081 166.556 235.802 168.029C237.341 171.394 239.745 174.289 242.768 176.42C241.947 176.522 241.149 176.757 240.404 177.115Z" fill="#321951"/>
<path d="M258.309 180.7C257.614 164.707 246.488 148.552 233.506 144.687C231.692 144.139 229.809 143.853 227.913 143.84C225.883 143.832 223.87 144.212 221.982 144.958H221.922C221.376 145.177 220.844 145.429 220.329 145.713L216.745 147.408C212.05 149.4 208.652 153.671 206.958 159.274V13.4762C206.958 6.04311 200.585 0 192.747 0H112.736C104.907 0 98.5343 6.04311 98.5343 13.4762V102.597C94.8895 99.9848 90.7289 98.181 86.3309 97.3066C81.9328 96.4322 77.3988 96.5074 73.0322 97.5272C68.6655 98.5469 64.567 100.488 61.0108 103.22C57.4547 105.952 54.5229 109.412 52.4116 113.369C50.3003 117.325 49.0583 121.687 48.7687 126.163C48.479 130.639 49.1483 135.125 50.7319 139.321C52.3155 143.517 54.7769 147.326 57.9512 150.494C61.1255 153.661 64.9397 156.115 69.1384 157.689C57.275 157.799 49.8349 158.121 49.6993 158.13C49.6543 158.125 49.6088 158.125 49.5638 158.13H49.4197C49.3739 158.148 49.3332 158.177 49.3011 158.214C49.2124 158.257 49.1408 158.329 49.0977 158.418C49.0674 158.457 49.0418 158.5 49.0214 158.545C49.0167 158.593 49.0167 158.641 49.0214 158.689C49.0174 158.734 49.0174 158.779 49.0214 158.825V205.44C49.0214 206.288 49.0214 206.441 55.8853 206.627L58.6647 206.703C64.41 206.83 72.0449 206.907 80.1714 206.907C89.9757 206.907 98.7461 206.805 104.347 206.627C107.034 206.551 109 206.449 109.982 206.347C110.142 206.328 110.291 206.256 110.406 206.144C111.194 206.272 111.99 206.34 112.787 206.347H192.772C194.814 206.347 196.834 205.923 198.704 205.101C201.127 204.093 203.203 202.398 204.675 200.225C206.148 198.052 206.953 195.496 206.991 192.871V177.335C210.195 190.15 219.389 201.686 229.922 205.195L230.617 205.432C232.088 205.869 233.615 206.089 235.15 206.085C237.053 206.061 238.943 205.761 240.76 205.195C242.722 204.595 244.641 203.865 246.505 203.008C248.811 202.197 250.89 200.849 252.572 199.075C256.581 194.829 258.64 188.303 258.309 180.7ZM50.1739 128.151C50.1756 122.223 51.9342 116.428 55.2277 111.498C58.5212 106.569 63.2016 102.727 68.6775 100.457C74.1534 98.1878 80.179 97.5927 85.993 98.7472C91.8069 99.9018 97.1482 102.754 101.342 106.944C105.536 111.134 108.393 116.473 109.554 122.287C110.715 128.101 110.127 134.128 107.864 139.608C105.601 145.087 101.765 149.773 96.8407 153.073C91.9162 156.373 86.1242 158.138 80.1968 158.147C72.2409 158.149 64.6095 154.992 58.9799 149.369C53.3502 143.746 50.1829 136.117 50.1739 128.16V128.151ZM98.5343 153.714V157.901C95.9921 157.833 93.45 157.782 90.9756 157.74C93.6682 156.755 96.2118 155.403 98.5343 153.722V153.714ZM109.084 204.974C105.22 205.262 93.45 205.466 80.1206 205.466C64.249 205.466 53.0042 205.195 50.462 204.923V198.702C51.75 198.846 54.1481 198.931 58.58 199.033C64.3252 199.169 71.9602 199.236 80.0867 199.236C93.5177 199.236 105 199.041 109.05 198.745L109.084 204.974ZM109.084 197.219C105.229 197.507 93.45 197.711 80.1206 197.711C64.249 197.711 53.0042 197.439 50.462 197.168V190.947C51.75 191.091 54.1481 191.176 58.58 191.278C64.3252 191.413 71.9602 191.49 80.0867 191.49C93.5177 191.49 105 191.286 109.05 190.998L109.084 197.219ZM109.084 189.464C105.229 189.752 93.45 189.956 80.1206 189.956C64.249 189.956 53.0042 189.693 50.462 189.413V183.15C51.75 183.294 54.1481 183.37 58.58 183.48C64.3252 183.607 71.9602 183.684 80.0867 183.684C93.5093 183.684 105 183.489 109.05 183.192L109.084 189.464ZM109.084 181.666C105.22 181.955 93.45 182.158 80.1206 182.158C64.249 182.158 53.0042 181.887 50.462 181.616V175.394C51.75 175.539 54.1481 175.623 58.58 175.725C64.3252 175.852 71.9602 175.928 80.0867 175.928C93.5177 175.928 105 175.733 109.05 175.437L109.084 181.666ZM109.084 173.911C105.229 174.199 93.45 174.403 80.1206 174.403C64.249 174.403 53.0042 174.132 50.462 173.86V167.639C51.75 167.783 54.1481 167.868 58.58 167.97C64.3252 168.105 71.9602 168.173 80.0867 168.173C93.5177 168.173 105 167.978 109.05 167.69L109.084 173.911ZM109.084 166.156C105.229 166.444 93.45 166.648 80.1206 166.648C64.249 166.648 53.0042 166.376 50.462 166.105V159.842C51.75 159.986 54.1481 160.07 58.58 160.172C64.3252 160.299 71.9602 160.376 80.0867 160.376C93.5008 160.376 104.991 160.181 109.05 159.884L109.084 166.156ZM205.407 192.956C205.407 199.541 199.721 204.907 192.696 204.907H112.736C112.024 204.9 111.313 204.838 110.61 204.72V158.994C110.61 158.994 110.61 158.926 110.61 158.892C110.604 158.829 110.589 158.766 110.567 158.706L110.508 158.613C110.476 158.556 110.439 158.502 110.398 158.452L110.321 158.409L110.169 158.316H110.033C110.033 158.316 109.957 158.316 109.923 158.316C106.534 158.189 103.288 158.079 100.102 157.994V152.612C103.725 149.662 106.645 145.941 108.65 141.721C110.656 137.501 111.696 132.887 111.696 128.215C111.696 123.542 110.656 118.928 108.65 114.708C106.645 110.488 103.725 106.768 100.102 103.818V13.4762C100.102 6.8822 105.788 1.52561 112.813 1.52561H122.227C122.437 1.51068 122.649 1.53785 122.848 1.60551C123.048 1.67318 123.232 1.77999 123.39 1.91968C123.547 2.05938 123.676 2.22916 123.767 2.41909C123.859 2.60902 123.911 2.81528 123.922 3.02579V4.93281C123.96 6.344 124.548 7.6843 125.562 8.66655C126.576 9.6488 127.934 10.1948 129.345 10.1877H176.113C177.54 10.2219 178.923 9.689 179.958 8.70572C180.994 7.72243 181.598 6.36885 181.638 4.94128V3.04275C181.648 2.83223 181.701 2.62597 181.792 2.43604C181.884 2.24611 182.012 2.07633 182.17 1.93663C182.328 1.79694 182.512 1.69013 182.711 1.62246C182.911 1.5548 183.122 1.52763 183.332 1.54256H192.764C199.763 1.54256 205.475 6.89915 205.475 13.4932L205.407 192.956ZM235.065 204.559C233.679 204.559 232.3 204.356 230.972 203.957C218.567 200.262 207.932 184.735 207.246 169.351C206.856 160.426 210 153.146 215.542 149.756C212.152 153.993 210.398 160.054 210.694 167.046C211.389 183.031 222.516 199.185 235.497 203.05C236.908 203.474 238.359 203.744 239.828 203.856C238.288 204.304 236.694 204.543 235.091 204.567L235.065 204.559ZM251.42 197.982C247.539 202.033 241.946 203.339 235.972 201.559C223.566 197.863 212.932 182.336 212.245 166.953C211.94 159.765 213.838 153.638 217.618 149.696C218.937 148.298 220.531 147.189 222.3 146.437C224.069 145.686 225.975 145.309 227.896 145.331C229.646 145.343 231.384 145.609 233.057 146.12C245.463 149.815 256.098 165.342 256.784 180.734C257.097 187.947 255.191 194.075 251.42 197.982Z" fill="#321951"/>
<path d="M80.9002 143.103C81.4357 140.556 82.4322 138.129 83.8406 135.941C85.199 133.725 87.1196 131.909 89.4072 130.676C91.6948 129.444 94.2679 128.839 96.8649 128.923C97.0672 128.923 97.2612 128.843 97.4042 128.7C97.5472 128.557 97.6276 128.363 97.6276 128.16C97.6276 127.958 97.5472 127.764 97.4042 127.621C97.2612 127.478 97.0672 127.397 96.8649 127.397C94.2676 127.483 91.6939 126.879 89.4059 125.646C87.118 124.414 85.1977 122.596 83.8406 120.38C82.429 118.193 81.4322 115.765 80.9002 113.218C80.8719 113.04 80.7813 112.879 80.6446 112.762C80.5079 112.646 80.3341 112.582 80.1544 112.582C79.9738 112.582 79.7989 112.645 79.6608 112.762C79.5227 112.878 79.4304 113.04 79.4003 113.218C79.4003 113.362 76.8581 127.397 63.4355 127.397C63.2332 127.397 63.0392 127.478 62.8962 127.621C62.7532 127.764 62.6729 127.958 62.6729 128.16C62.6729 128.363 62.7532 128.557 62.8962 128.7C63.0392 128.843 63.2332 128.923 63.4355 128.923C66.0338 128.838 68.6083 129.443 70.8974 130.675C73.1864 131.908 75.1085 133.725 76.4683 135.941C77.872 138.13 78.8655 140.557 79.4003 143.103C79.4287 143.282 79.5206 143.444 79.6591 143.561C79.7976 143.678 79.9734 143.741 80.1544 143.738C80.3345 143.74 80.5093 143.677 80.6463 143.56C80.7834 143.443 80.8736 143.281 80.9002 143.103ZM68.7656 128.16C75.7735 126.007 78.8918 119.812 80.1544 116.193C81.4086 119.812 84.5354 126.007 91.5349 128.16C84.5354 130.313 81.4086 136.517 80.1544 140.136C78.8918 136.517 75.7735 130.313 68.7656 128.16Z" fill="#321951"/>
</g>
<defs>
<clipPath id="clip0_741_58725">
<rect width="307" height="207" fill="white"/>
</clipPath>
</defs>
</svg>
