<svg width="309" height="208" viewBox="0 0 309 208" fill="none" xmlns="http://www.w3.org/2000/svg">
<g clip-path="url(#clip0_741_58398)">
<path d="M199.99 156.006L207.521 156.16C208.979 156.181 210.422 156.455 211.786 156.97V13.559C211.786 6.92443 206.054 1.5349 198.992 1.5349H189.533C189.321 1.51869 189.108 1.54519 188.907 1.61282C188.706 1.68046 188.52 1.78785 188.361 1.92863C188.202 2.06941 188.073 2.24071 187.981 2.43236C187.889 2.62401 187.837 2.83211 187.827 3.04431V4.96305C187.785 6.40015 187.175 7.76205 186.132 8.75116C185.088 9.74026 183.696 10.2761 182.258 10.2417H135.229C133.792 10.2761 132.4 9.73996 131.358 8.75063C130.316 7.7613 129.708 6.39939 129.668 4.96305V3.06136C129.657 2.84955 129.604 2.64202 129.512 2.45093C129.42 2.25983 129.291 2.08901 129.132 1.94845C128.973 1.80789 128.788 1.70043 128.587 1.63235C128.386 1.56426 128.173 1.53693 127.962 1.55195H118.512C111.467 1.55195 105.718 6.94148 105.718 13.5761V85.354C110.062 86.5583 114.04 88.8168 117.301 91.9289C120.781 95.2417 123.318 99.4202 124.65 104.036C125.983 108.652 126.065 113.539 124.886 118.197C123.707 122.855 121.311 127.116 117.943 130.542C114.574 133.969 110.355 136.438 105.718 137.697V194.151C105.718 200.777 111.441 206.175 118.512 206.175H199.018C206.054 206.175 211.811 200.777 211.811 194.151V192.974C210.305 193.558 208.701 193.847 207.086 193.827H206.813L199.273 193.682C199.173 193.68 199.073 193.658 198.981 193.617C198.889 193.576 198.805 193.518 198.736 193.445C198.666 193.372 198.611 193.286 198.575 193.192C198.538 193.098 198.521 192.998 198.523 192.897L199.248 156.731C199.258 156.539 199.341 156.359 199.478 156.224C199.615 156.09 199.798 156.012 199.99 156.006Z" fill="#F1E6FF"/>
<path d="M183.008 93.072C179.29 85.3117 169.447 85.542 166.803 85.7552V86.1133C166.839 87.2123 166.653 88.3073 166.257 89.333C165.86 90.3588 165.262 91.2944 164.497 92.0844C163.732 92.8744 162.816 93.5025 161.803 93.9314C160.791 94.3604 159.702 94.5815 158.602 94.5815C157.503 94.5815 156.414 94.3604 155.402 93.9314C154.389 93.5025 153.473 92.8744 152.708 92.0844C151.943 91.2944 151.344 90.3588 150.948 89.333C150.552 88.3073 150.366 87.2123 150.402 86.1133C150.402 86.1133 150.402 86.1133 150.402 85.7466C147.843 85.542 138.094 85.3032 134.299 92.8673C139.098 98.3937 145.628 102.133 152.824 103.476L157.259 103.987C157.745 103.987 158.231 103.987 158.718 103.987C160.098 103.983 161.477 103.892 162.846 103.715L167.75 102.691C173.637 100.975 178.916 97.6251 182.974 93.0293L183.008 93.072Z" fill="#00DA9C"/>
<path d="M135.143 88.8252L134.947 89.2943C135.16 89.064 135.382 88.8252 135.612 88.6035L135.143 88.8252Z" fill="#00DA9C"/>
<path d="M77.0602 128.334L55.2087 150.967L60.6588 156.16L82.5103 133.536C81.4767 132.795 80.4963 131.983 79.5763 131.105C78.6797 130.236 77.8393 129.31 77.0602 128.334Z" fill="#00DA9C"/>
<path d="M98.3914 85.8918C94.9317 85.8834 91.5063 86.5766 88.3222 87.9295C85.1381 89.2824 82.2615 91.2669 79.8662 93.7629C77.5315 96.1904 75.7005 99.056 74.4788 102.195C73.2571 105.333 72.669 108.682 72.7483 112.049C72.8276 115.416 73.5727 118.734 74.9408 121.811C76.3088 124.889 78.2727 127.665 80.7191 129.98C85.6593 134.691 92.2615 137.258 99.0866 137.122C105.912 136.986 112.406 134.159 117.155 129.255C119.49 126.828 121.321 123.962 122.543 120.824C123.764 117.685 124.353 114.336 124.273 110.969C124.194 107.602 123.449 104.284 122.081 101.207C120.713 98.1293 118.749 95.353 116.302 93.038C111.482 88.4277 105.062 85.866 98.3914 85.8918Z" fill="#00DA9C"/>
<path d="M165.413 137.135L164.85 137.723C164.517 138.098 164.168 138.482 163.784 138.84L163.392 139.224C162.326 140.247 161.004 141.518 159.477 141.527C157.95 141.535 156.628 140.239 155.562 139.224L155.17 138.849C154.794 138.482 154.436 138.098 154.103 137.723C153.916 137.519 153.728 137.331 153.541 137.135C151.263 139.557 148.935 141.979 146.717 144.332C144.159 146.984 141.54 149.73 138.964 152.485C139.648 152.937 140.448 153.18 141.267 153.184H177.772C178.589 153.181 179.386 152.938 180.066 152.485C177.507 149.722 174.846 146.959 172.279 144.29C169.993 141.953 167.716 139.548 165.413 137.135Z" fill="white"/>
<path d="M152.449 136.094C150.197 133.945 147.911 131.83 145.685 129.715C143.126 127.302 140.448 124.803 137.847 122.296C137.333 122.999 137.055 123.847 137.054 124.718V149.047C137.066 149.911 137.35 150.749 137.864 151.444C140.423 148.689 143.058 145.952 145.608 143.3C147.834 140.912 150.163 138.482 152.449 136.094Z" fill="white"/>
<path d="M176.023 127.097C172.714 130.193 169.004 133.655 166.505 136.051C168.773 138.464 171.093 140.886 173.328 143.231C175.887 145.892 178.531 148.647 181.106 151.41C181.611 150.709 181.883 149.868 181.883 149.005V124.675C181.882 123.824 181.62 122.993 181.132 122.296L176.023 127.097Z" fill="white"/>
<path d="M154.069 135.454L154.257 135.634C154.598 135.958 154.922 136.316 155.246 136.674C155.571 137.032 155.895 137.39 156.236 137.714L156.637 138.098C157.49 138.951 158.573 139.966 159.485 139.966C160.398 139.966 161.464 138.934 162.334 138.098L162.743 137.706C163.076 137.382 163.4 137.032 163.724 136.674C164.048 136.316 164.373 135.958 164.714 135.634L164.901 135.446C167.392 133.05 171.409 129.289 174.974 125.955L180.092 121.196C179.404 120.731 178.593 120.484 177.763 120.488H141.259C140.449 120.487 139.657 120.724 138.981 121.171C141.54 123.661 144.21 126.134 146.768 128.539C149.14 130.807 151.63 133.126 154.069 135.454Z" fill="white"/>
<path d="M98.4085 94.3086C94.3884 94.3202 90.4977 95.7301 87.4037 98.2964C84.3097 100.863 82.2052 104.426 81.4514 108.374C80.6976 112.322 81.3414 116.409 83.2723 119.935C85.2032 123.46 88.3009 126.204 92.034 127.695C95.7671 129.187 99.9029 129.333 103.732 128.109C107.561 126.884 110.845 124.366 113.02 120.986C115.195 117.605 116.125 113.573 115.652 109.582C115.179 105.59 113.331 101.888 110.426 99.1097C107.189 96.0202 102.884 94.3002 98.4085 94.3086Z" fill="white"/>
<path d="M240.998 170.29L249.092 170.452H250.201C251.199 170.469 252.167 170.11 252.913 169.446C253.265 169.132 253.549 168.749 253.745 168.32C253.942 167.892 254.048 167.427 254.056 166.956C254.052 166.472 253.954 165.993 253.766 165.548C253.577 165.102 253.303 164.698 252.959 164.358C252.614 164.018 252.206 163.75 251.758 163.568C251.309 163.386 250.829 163.294 250.346 163.297L230.251 162.896C230.048 162.896 229.852 162.815 229.708 162.672C229.564 162.528 229.484 162.332 229.484 162.129C229.484 161.925 229.564 161.73 229.708 161.586C229.852 161.442 230.048 161.361 230.251 161.361L235.189 161.464C236.042 159.758 238.089 151.972 237.748 149.295C237.407 146.617 236.196 144.971 234.175 144.638C233.386 144.572 232.592 144.572 231.803 144.638C227.795 160.671 219.82 162.828 217.082 163.084C217.082 163.229 217.082 163.374 217.082 163.519L216.613 186.91C216.607 187.196 216.578 187.482 216.528 187.763C223.999 190.731 231.744 190.901 239.241 191.063L245.68 191.2C246.187 191.217 246.681 191.033 247.053 190.688C247.229 190.532 247.37 190.342 247.468 190.129C247.566 189.917 247.62 189.686 247.625 189.452C247.631 189.08 247.521 188.716 247.31 188.41C247.099 188.105 246.797 187.872 246.448 187.746L239.966 187.618C239.865 187.617 239.766 187.596 239.674 187.556C239.582 187.517 239.498 187.459 239.428 187.387C239.359 187.315 239.304 187.229 239.267 187.136C239.231 187.042 239.213 186.943 239.215 186.842C239.22 186.641 239.302 186.449 239.445 186.307C239.589 186.166 239.781 186.085 239.983 186.083L246.601 186.22H248.418H248.478C249.243 186.241 249.987 185.962 250.549 185.442C251.112 184.923 251.449 184.204 251.489 183.44C251.486 182.765 251.247 182.113 250.814 181.596C250.381 181.079 249.781 180.73 249.117 180.608L240.512 180.438C240.308 180.438 240.113 180.357 239.969 180.213C239.825 180.069 239.744 179.874 239.744 179.67C239.744 179.467 239.825 179.272 239.969 179.128C240.113 178.984 240.308 178.903 240.512 178.903L249.152 179.082C250.065 179.042 250.931 178.661 251.577 178.013C252.223 177.366 252.602 176.499 252.64 175.586C252.65 175.129 252.569 174.674 252.401 174.25C252.232 173.825 251.98 173.438 251.659 173.113C251.306 172.744 250.882 172.451 250.413 172.249C249.945 172.047 249.44 171.94 248.93 171.936L240.819 171.765C240.63 171.745 240.456 171.656 240.329 171.515C240.202 171.374 240.132 171.192 240.132 171.002C240.132 170.812 240.202 170.63 240.329 170.489C240.456 170.348 240.63 170.259 240.819 170.239L240.998 170.29Z" fill="white"/>
<path d="M206.276 185.922C205.998 185.91 205.726 186.006 205.517 186.191C205.309 186.375 205.18 186.634 205.158 186.911C205.159 187.042 205.186 187.171 205.237 187.291C205.288 187.411 205.363 187.52 205.457 187.61C205.664 187.815 205.942 187.931 206.233 187.934V188.693V187.934C206.507 187.942 206.774 187.843 206.977 187.659C207.181 187.474 207.305 187.219 207.325 186.945C207.325 186.815 207.298 186.685 207.247 186.565C207.195 186.445 207.121 186.336 207.026 186.246C206.829 186.043 206.559 185.927 206.276 185.922Z" fill="white"/>
<path d="M167.793 102.742L162.888 103.766C164.548 103.557 166.188 103.215 167.793 102.742Z" fill="#FBC22D"/>
<path d="M158.76 39.3047C152.692 39.3021 146.745 41.0063 141.599 44.2225C136.453 47.4388 132.315 52.0374 129.659 57.493C127.003 62.9486 125.935 69.0413 126.578 75.0749C127.22 81.1085 129.547 86.8397 133.292 91.6138C133.762 90.785 134.316 90.0076 134.947 89.2943L135.143 88.8253L135.612 88.6036C137.932 86.4717 140.826 85.0664 143.937 84.5614C146.121 84.1573 148.349 84.0426 150.564 84.2203C150.666 82.9156 150.845 80.6898 151.144 76.9291C146.214 75.0615 142.982 72.29 141.549 68.6913C140.447 65.7347 140.447 62.4805 141.549 59.524C141.061 59.3365 140.525 59.3126 140.022 59.4557C139.887 59.5305 139.732 59.5609 139.579 59.5425C139.426 59.5241 139.282 59.458 139.169 59.3534C139.046 59.2436 138.963 59.0964 138.932 58.9346C138.901 58.7728 138.925 58.6053 138.998 58.458C141.557 52.8723 144.781 49.4442 148.687 48.2674C151.262 47.5196 154.021 47.7442 156.44 48.8984C157.525 47.2751 159.146 46.0855 161.021 45.5385C162.083 45.3224 163.18 45.3369 164.236 45.5811C165.293 45.8254 166.285 46.2936 167.144 46.9541C173.072 50.9536 177.959 48.5317 178.164 48.4294C178.274 48.3719 178.396 48.342 178.521 48.3423C178.645 48.3425 178.767 48.3728 178.877 48.4307C178.987 48.4886 179.081 48.5722 179.151 48.6745C179.222 48.7767 179.266 48.8945 179.281 49.0178C179.878 53.8445 177.729 56.2749 176.245 57.3494C176.917 57.6447 177.66 57.7423 178.386 57.6308C178.549 57.591 178.722 57.6061 178.876 57.6737C179.03 57.7414 179.158 57.8579 179.239 58.0053C179.321 58.1527 179.351 58.3228 179.327 58.4893C179.302 58.6559 179.223 58.8097 179.102 58.927C177.524 60.4431 175.61 61.565 173.516 62.2017C173.609 65.0158 173.695 78.6773 167.144 83.1117L166.803 83.3078V84.2118C168.976 84.0497 171.16 84.1672 173.302 84.5614C178.317 85.508 182.011 88.0237 184.066 91.827C187.87 87.067 190.251 81.3294 190.936 75.2752C191.621 69.221 190.581 63.0966 187.936 57.6075C185.291 52.1185 181.149 47.4881 175.988 44.2499C170.826 41.0118 164.854 39.2975 158.76 39.3047Z" fill="#FBC22D"/>
<path d="M157.302 103.996L152.867 103.484C154.331 103.759 155.813 103.93 157.302 103.996Z" fill="#FBC22D"/>
<path d="M151.954 86.1643C152.016 87.8906 152.745 89.5255 153.988 90.7249C155.232 91.9243 156.892 92.5946 158.619 92.5946C160.347 92.5946 162.007 91.9243 163.251 90.7249C164.494 89.5255 165.223 87.8906 165.285 86.1643V84.0665C164.395 84.3801 163.457 84.5388 162.513 84.5355C160.436 84.4697 158.399 83.9517 156.543 83.0176C156.359 82.9323 156.216 82.7777 156.146 82.5876C156.075 82.3974 156.083 82.1872 156.167 82.0028C156.254 81.8183 156.411 81.6755 156.602 81.6053C156.794 81.5351 157.005 81.5431 157.191 81.6276C160.918 83.3331 164.014 83.444 166.3 81.8834C171.903 78.0886 172.066 65.8598 172.006 62.6193C169.363 63.0974 166.65 63.0365 164.031 62.4402C161.619 61.9138 159.279 61.0978 157.063 60.0098C156.935 64.1969 156.21 66.832 154.922 67.8468C154.723 68.0191 154.488 68.1452 154.235 68.216C153.981 68.2867 153.715 68.3004 153.455 68.2561C153.336 68.226 153.225 68.1677 153.133 68.0861C153.041 68.0044 152.97 67.9019 152.926 67.7871L152.832 67.5824C152.518 66.9872 151.982 66.5399 151.34 66.3373C150.82 66.1116 150.232 66.0986 149.703 66.3011C149.174 66.5036 148.745 66.9054 148.508 67.4204C148.429 67.662 148.404 67.9184 148.437 68.1707C148.469 68.4231 148.558 68.6649 148.696 68.8786C148.765 68.9892 148.842 69.0946 148.926 69.1941L149.046 69.3221C149.342 69.6265 149.708 69.8547 150.112 69.9872C150.71 70.2023 151.366 70.1871 151.954 69.9446C152.029 69.8752 152.118 69.822 152.215 69.7882C152.312 69.7545 152.415 69.741 152.517 69.7484C152.62 69.7558 152.721 69.784 152.813 69.8313C152.905 69.8787 152.987 69.9441 153.053 70.0238C153.119 70.1035 153.168 70.1957 153.198 70.2949C153.227 70.3942 153.237 70.4983 153.225 70.6012C152.773 75.8031 151.971 85.8488 151.954 86.1643ZM170.155 67.915C170.121 68.419 169.966 68.9074 169.703 69.3391C169.603 69.5323 169.451 69.6938 169.264 69.8053C169.077 69.9168 168.863 69.9739 168.645 69.9702C168.589 69.983 168.531 69.983 168.475 69.9702C167.818 69.7825 167.409 68.836 167.511 67.7188C167.613 66.6017 168.262 65.5954 169.021 65.6637C169.78 65.7319 170.274 66.704 170.155 67.915ZM167.204 64.1884C167.42 63.8694 167.715 63.6116 168.06 63.4398C168.406 63.268 168.789 63.1881 169.174 63.2077C169.566 63.234 169.944 63.364 170.269 63.5842C170.594 63.8045 170.855 64.1071 171.025 64.4612C171.118 64.6412 171.136 64.8506 171.076 65.0439C171.015 65.2372 170.88 65.3987 170.701 65.4931C170.59 65.5495 170.467 65.5788 170.343 65.5784C170.202 65.579 170.065 65.5412 169.944 65.469C169.824 65.3968 169.726 65.2931 169.66 65.169C169.607 65.0579 169.526 64.963 169.424 64.894C169.322 64.825 169.203 64.7846 169.08 64.7768C168.959 64.77 168.838 64.7957 168.73 64.8511C168.622 64.9066 168.531 64.9898 168.466 65.0923C168.343 65.2332 168.173 65.3242 167.987 65.3483C167.802 65.3724 167.614 65.3279 167.459 65.2232C167.303 65.1184 167.192 64.9606 167.145 64.7795C167.098 64.5984 167.119 64.4063 167.204 64.2395V64.1884ZM160.747 67.0878C160.717 67.5926 160.562 68.082 160.295 68.5119C160.195 68.7051 160.043 68.8666 159.857 68.9781C159.67 69.0896 159.455 69.1467 159.238 69.143C159.181 69.1518 159.124 69.1518 159.067 69.143C158.41 68.9554 158.01 68.0088 158.103 66.8916C158.197 65.7745 158.863 64.7682 159.613 64.8365C160.364 64.9047 160.892 65.8768 160.747 67.0878ZM165.362 78.2421C165.159 78.5447 164.885 78.793 164.563 78.9654C164.242 79.1379 163.884 79.2291 163.519 79.2313H163.4C163.011 79.2105 162.634 79.0876 162.308 78.8751C161.982 78.6625 161.717 78.3677 161.541 78.0203C161.447 77.8394 161.429 77.6286 161.49 77.4343C161.552 77.24 161.688 77.0781 161.869 76.9842C162.05 76.8904 162.261 76.8722 162.455 76.9338C162.649 76.9954 162.811 77.1316 162.905 77.3125C162.96 77.4226 163.042 77.5166 163.143 77.5854C163.245 77.6542 163.363 77.6953 163.485 77.7048C163.607 77.7098 163.728 77.6824 163.836 77.6255C163.944 77.5686 164.035 77.4842 164.099 77.3808C164.149 77.2838 164.218 77.1984 164.303 77.1302C164.388 77.062 164.486 77.0127 164.591 76.9854C164.697 76.9582 164.807 76.9536 164.914 76.9721C165.021 76.9906 165.123 77.0316 165.213 77.0925C165.304 77.1534 165.38 77.2328 165.437 77.3254C165.494 77.418 165.531 77.5217 165.545 77.6296C165.559 77.7375 165.55 77.8472 165.518 77.9513C165.487 78.0554 165.433 78.1516 165.362 78.2335V78.2421ZM163.869 73.6286L164.023 68.4522C164.025 68.3511 164.047 68.2514 164.088 68.159C164.13 68.0666 164.189 67.9834 164.263 67.9143C164.337 67.8451 164.424 67.7915 164.519 67.7565C164.614 67.7214 164.715 67.7057 164.816 67.7103C165.019 67.7192 165.21 67.8072 165.349 67.9554C165.487 68.1037 165.562 68.3004 165.558 68.5034L165.37 74.6945C165.371 74.8135 165.342 74.9307 165.287 75.0362C165.232 75.1417 165.152 75.2322 165.055 75.3C164.922 75.3933 164.765 75.4439 164.603 75.445C164.529 75.4538 164.454 75.4538 164.381 75.445L161.524 74.5922C161.42 74.5691 161.322 74.5246 161.236 74.4616C161.15 74.3986 161.079 74.3185 161.025 74.2263C160.972 74.1341 160.939 74.0319 160.927 73.9262C160.916 73.8204 160.926 73.7134 160.958 73.6119C160.991 73.5105 161.043 73.4168 161.114 73.3368C161.184 73.2569 161.27 73.1924 161.366 73.1474C161.463 73.1025 161.567 73.0781 161.674 73.0757C161.78 73.0734 161.886 73.0932 161.984 73.1339L163.869 73.6286ZM157.805 63.3953C158.015 63.0711 158.307 62.8086 158.652 62.6348C158.996 62.4609 159.381 62.382 159.767 62.4061C160.154 62.4268 160.53 62.5488 160.856 62.7597C161.183 62.9707 161.448 63.2633 161.626 63.6085C161.716 63.7898 161.732 63.9993 161.67 64.1921C161.608 64.3849 161.472 64.5458 161.293 64.6403C161.186 64.6974 161.065 64.7267 160.944 64.7256C160.803 64.7272 160.665 64.6898 160.545 64.6175C160.424 64.5452 160.326 64.441 160.261 64.3163C160.208 64.2057 160.126 64.1112 160.024 64.0423C159.922 63.9735 159.804 63.9327 159.681 63.924C159.561 63.9198 159.441 63.9466 159.333 64.0018C159.226 64.0571 159.134 64.1389 159.067 64.2395C159.018 64.3365 158.949 64.4219 158.864 64.4901C158.779 64.5582 158.681 64.6076 158.575 64.6348C158.47 64.6621 158.36 64.6666 158.253 64.6482C158.145 64.6297 158.043 64.5887 157.953 64.5278C157.863 64.4668 157.787 64.3875 157.73 64.2949C157.672 64.2023 157.636 64.0986 157.622 63.9907C157.608 63.8828 157.617 63.7731 157.648 63.669C157.68 63.5649 157.733 63.4687 157.805 63.3867V63.3953Z" fill="#FDC8B4"/>
<path d="M207.504 157.695L200.74 157.559L200.05 192.181L207.06 192.326C211.479 192.326 215.12 189.879 215.18 186.868L215.649 163.477C215.709 160.381 212.067 157.789 207.504 157.695ZM206.259 189.469H206.208C205.521 189.457 204.865 189.182 204.374 188.702C204.134 188.463 203.944 188.178 203.815 187.865C203.687 187.551 203.621 187.216 203.623 186.877C203.654 186.203 203.945 185.567 204.435 185.103C204.925 184.638 205.575 184.382 206.25 184.387C206.6 184.384 206.946 184.45 207.269 184.582C207.593 184.714 207.887 184.908 208.135 185.154C208.377 185.392 208.569 185.676 208.698 185.99C208.827 186.304 208.891 186.64 208.886 186.979C208.855 187.653 208.564 188.289 208.074 188.754C207.584 189.218 206.934 189.474 206.259 189.469Z" fill="#8B6FE2"/>
<path d="M308.224 206.456H204.971C207.412 205.444 209.504 203.739 210.988 201.553C212.471 199.366 213.283 196.793 213.321 194.151V192.198C214.528 191.489 215.507 190.451 216.144 189.204C223.82 192.24 231.718 192.419 239.334 192.616L245.748 192.743H245.825C246.698 192.751 247.542 192.428 248.188 191.84C248.517 191.542 248.782 191.181 248.967 190.778C249.152 190.375 249.252 189.938 249.262 189.494C249.277 188.898 249.129 188.309 248.836 187.789C249.96 187.753 251.028 187.294 251.827 186.503C252.626 185.712 253.096 184.648 253.143 183.525C253.152 182.869 253.01 182.221 252.727 181.629C252.445 181.038 252.03 180.519 251.514 180.114C252.342 179.708 253.043 179.081 253.539 178.304C254.036 177.526 254.309 176.627 254.329 175.705C254.336 174.923 254.163 174.149 253.825 173.444C253.486 172.739 252.99 172.121 252.375 171.637C252.967 171.403 253.511 171.062 253.979 170.631C254.484 170.175 254.889 169.62 255.171 169.001C255.453 168.383 255.604 167.712 255.616 167.032C255.614 165.649 255.064 164.323 254.085 163.344C253.107 162.366 251.78 161.816 250.397 161.813L236.895 161.541C238.123 158.564 239.659 151.725 239.334 149.15C238.9 145.739 237.185 143.624 234.498 143.18C234.456 143.18 230.797 142.583 230.464 143.948C226.584 159.92 218.865 161.481 216.818 161.6C216.139 159.934 214.89 158.562 213.295 157.729V13.6099C213.295 6.13106 206.873 0.0507812 198.992 0.0507812H118.512C110.622 0.0507812 104.208 6.13106 104.208 13.6099V85.0297C102.297 84.6159 100.347 84.4072 98.3914 84.4071C93.4104 84.3796 88.5181 85.7254 84.2521 88.2967C79.9861 90.868 76.5116 94.5652 74.2102 98.9821C71.9088 103.399 70.8697 108.365 71.207 113.334C71.5442 118.303 73.2449 123.083 76.122 127.148L53.5711 150.454C53.4294 150.601 53.3502 150.797 53.3502 151C53.3502 151.204 53.4294 151.4 53.5711 151.546L60.13 157.797C60.275 157.928 60.4633 158.001 60.6588 158.002C60.7619 158.002 60.864 157.982 60.9592 157.942C61.0544 157.903 61.1407 157.845 61.2132 157.771L83.7982 134.388C89.86 138.232 97.1859 139.552 104.208 138.064V194.151C104.247 196.792 105.057 199.364 106.539 201.55C108.021 203.736 110.111 205.442 112.55 206.456H0.767618C0.564033 206.456 0.368786 206.537 0.22483 206.681C0.0808739 206.825 0 207.02 0 207.224C0 207.427 0.0808739 207.622 0.22483 207.766C0.368786 207.91 0.564033 207.991 0.767618 207.991H308.224C308.427 207.991 308.623 207.91 308.767 207.766C308.911 207.622 308.991 207.427 308.991 207.224C308.991 207.02 308.911 206.825 308.767 206.681C308.623 206.537 308.427 206.456 308.224 206.456ZM216.715 186.893L217.184 163.502C217.184 163.357 217.184 163.212 217.184 163.067C219.922 162.811 227.897 160.654 231.906 144.621C232.695 144.555 233.488 144.555 234.277 144.621C236.298 144.954 237.492 146.523 237.85 149.278C238.209 152.032 236.145 159.75 235.292 161.447L230.353 161.344C230.15 161.344 229.955 161.425 229.811 161.569C229.667 161.713 229.586 161.908 229.586 162.112C229.586 162.315 229.667 162.511 229.811 162.655C229.955 162.799 230.15 162.879 230.353 162.879L250.448 163.28C250.932 163.277 251.412 163.369 251.86 163.551C252.308 163.733 252.716 164.001 253.061 164.341C253.405 164.681 253.68 165.085 253.868 165.531C254.056 165.976 254.155 166.455 254.158 166.939C254.15 167.41 254.044 167.875 253.848 168.303C253.651 168.732 253.367 169.115 253.015 169.429C252.27 170.093 251.301 170.452 250.303 170.435H249.194L241.1 170.273C240.911 170.293 240.737 170.382 240.61 170.523C240.483 170.664 240.413 170.847 240.413 171.036C240.413 171.226 240.483 171.409 240.61 171.549C240.737 171.69 240.911 171.779 241.1 171.799L249.211 171.97C249.722 171.974 250.226 172.081 250.695 172.283C251.163 172.485 251.587 172.779 251.94 173.147C252.261 173.472 252.513 173.859 252.682 174.284C252.85 174.709 252.932 175.163 252.921 175.62C252.884 176.534 252.504 177.4 251.858 178.047C251.212 178.695 250.347 179.076 249.433 179.116L240.793 178.937C240.589 178.937 240.394 179.018 240.25 179.162C240.106 179.306 240.025 179.501 240.025 179.705C240.025 179.908 240.106 180.103 240.25 180.247C240.394 180.391 240.589 180.472 240.793 180.472L249.399 180.643C250.062 180.764 250.662 181.113 251.095 181.63C251.528 182.147 251.767 182.8 251.77 183.474C251.73 184.238 251.393 184.957 250.83 185.477C250.268 185.996 249.525 186.275 248.759 186.254H248.699H246.883L240.264 186.117C240.063 186.12 239.87 186.2 239.727 186.342C239.584 186.483 239.501 186.675 239.497 186.876C239.494 186.977 239.512 187.077 239.549 187.17C239.585 187.264 239.64 187.349 239.71 187.421C239.78 187.493 239.863 187.551 239.955 187.591C240.047 187.63 240.147 187.651 240.247 187.652L246.729 187.78C247.079 187.907 247.38 188.139 247.591 188.445C247.802 188.75 247.912 189.114 247.906 189.486C247.901 189.72 247.848 189.951 247.749 190.164C247.651 190.376 247.51 190.567 247.335 190.722C246.962 191.067 246.469 191.251 245.962 191.234L239.522 191.098C232.025 190.936 224.281 190.765 216.809 187.797C216.803 187.494 216.771 187.192 216.715 186.893ZM215.649 163.476L215.18 186.868C215.12 189.878 211.479 192.326 207.06 192.326L200.05 192.181L200.74 157.558L207.504 157.695C212.067 157.788 215.709 160.381 215.649 163.476ZM60.6588 156.16L55.2087 150.966L77.0602 128.334C77.8536 129.305 78.7082 130.225 79.6189 131.088C80.5247 131.97 81.4908 132.788 82.5103 133.535L60.6588 156.16ZM98.5023 137.126C91.8473 137.137 85.4453 134.576 80.6339 129.979C76.9312 126.445 74.3737 121.882 73.2921 116.879C72.2106 111.877 72.6546 106.665 74.5668 101.917C76.479 97.1696 79.7715 93.1046 84.0187 90.2476C88.2659 87.3906 93.2725 85.873 98.3914 85.891C105.047 85.8762 111.45 88.4371 116.26 93.0372C119.963 96.5713 122.52 101.134 123.602 106.137C124.683 111.14 124.239 116.352 122.327 121.099C120.415 125.847 117.122 129.912 112.875 132.769C108.628 135.626 103.621 137.144 98.5023 137.126ZM118.512 206.2C111.467 206.2 105.718 200.802 105.718 194.176V137.723C110.454 136.434 114.752 133.885 118.153 130.346C120.628 127.776 122.569 124.742 123.866 121.418C125.163 118.095 125.79 114.548 125.71 110.981C125.631 107.415 124.847 103.899 123.404 100.637C121.961 97.3741 119.886 94.4292 117.3 91.9713C114.04 88.8592 110.061 86.6006 105.718 85.3964V13.5587C105.718 6.92414 111.441 1.53461 118.512 1.53461H127.996C128.207 1.51959 128.42 1.54692 128.621 1.615C128.822 1.68308 129.007 1.79055 129.166 1.9311C129.325 2.07166 129.454 2.24249 129.546 2.43358C129.638 2.62468 129.691 2.83221 129.702 3.04402V4.96276C129.742 6.3991 130.35 7.76101 131.392 8.75034C132.434 9.73967 133.826 10.2758 135.263 10.2414H182.301C183.738 10.2759 185.131 9.73997 186.174 8.75087C187.218 7.76176 187.828 6.39986 187.87 4.96276V3.06107C187.88 2.84887 187.932 2.64077 188.023 2.44912C188.115 2.25747 188.244 2.08618 188.403 1.9454C188.562 1.80462 188.748 1.69723 188.95 1.62959C189.151 1.56195 189.364 1.53545 189.576 1.55166H199.018C206.054 1.55166 211.811 6.94119 211.811 13.5758V156.97C210.447 156.455 209.004 156.18 207.547 156.16L200.015 156.006C199.815 156.006 199.622 156.084 199.479 156.225C199.335 156.365 199.252 156.556 199.248 156.756L198.523 192.923C198.521 193.023 198.538 193.124 198.575 193.218C198.611 193.312 198.666 193.397 198.736 193.47C198.805 193.543 198.889 193.602 198.981 193.642C199.073 193.683 199.173 193.705 199.273 193.707L206.813 193.852H207.086C208.701 193.873 210.305 193.583 211.811 192.999V194.176C211.811 200.802 206.08 206.2 199.018 206.2H118.512Z" fill="#321951"/>
<path d="M183.631 199.66H133.889C133.686 199.66 133.491 199.741 133.347 199.885C133.203 200.029 133.122 200.224 133.122 200.428C133.122 200.631 133.203 200.826 133.347 200.97C133.491 201.114 133.686 201.195 133.889 201.195H183.631C183.835 201.195 184.03 201.114 184.174 200.97C184.318 200.826 184.399 200.631 184.399 200.428C184.399 200.224 184.318 200.029 184.174 199.885C184.03 199.741 183.835 199.66 183.631 199.66Z" fill="#321951"/>
<path d="M162.957 195.404H152.176C151.972 195.404 151.777 195.485 151.633 195.629C151.489 195.773 151.408 195.968 151.408 196.172C151.408 196.375 151.489 196.571 151.633 196.714C151.777 196.858 151.972 196.939 152.176 196.939H165.353C165.557 196.939 165.752 196.858 165.896 196.714C166.04 196.571 166.121 196.375 166.121 196.172C166.121 195.968 166.04 195.773 165.896 195.629C165.752 195.485 165.557 195.404 165.353 195.404H162.957Z" fill="#321951"/>
<path d="M134.87 18.411H182.633C182.837 18.411 183.032 18.3301 183.176 18.1862C183.32 18.0422 183.401 17.847 183.401 17.6435C183.401 17.4399 183.32 17.2447 183.176 17.1008C183.032 16.9568 182.837 16.876 182.633 16.876H134.87C134.667 16.876 134.472 16.9568 134.328 17.1008C134.184 17.2447 134.103 17.4399 134.103 17.6435C134.103 17.847 134.184 18.0422 134.328 18.1862C134.472 18.3301 134.667 18.411 134.87 18.411Z" fill="#321951"/>
<path d="M152.577 20.9697C152.373 20.9697 152.178 21.0506 152.034 21.1945C151.89 21.3385 151.809 21.5337 151.809 21.7372C151.809 21.9408 151.89 22.136 152.034 22.2799C152.178 22.4239 152.373 22.5047 152.577 22.5047H164.952C165.156 22.5047 165.351 22.4239 165.495 22.2799C165.639 22.136 165.72 21.9408 165.72 21.7372C165.72 21.5337 165.639 21.3385 165.495 21.1945C165.351 21.0506 165.156 20.9697 164.952 20.9697H152.577Z" fill="#321951"/>
<path d="M159.067 64.2307C159.134 64.1301 159.226 64.0483 159.333 63.993C159.441 63.9378 159.561 63.911 159.682 63.9152C159.804 63.9239 159.922 63.9647 160.024 64.0335C160.126 64.1024 160.208 64.1969 160.261 64.3075C160.326 64.4321 160.424 64.5364 160.545 64.6087C160.665 64.681 160.803 64.7184 160.944 64.7168C161.066 64.7179 161.186 64.6885 161.293 64.6315C161.473 64.537 161.608 64.3761 161.67 64.1833C161.732 63.9905 161.716 63.781 161.626 63.5997C161.45 63.2513 161.186 62.9552 160.86 62.7412C160.533 62.5272 160.156 62.4027 159.767 62.3802C159.381 62.3561 158.997 62.4351 158.652 62.6089C158.307 62.7828 158.015 63.0453 157.805 63.3694C157.734 63.4513 157.68 63.5476 157.649 63.6517C157.617 63.7558 157.608 63.8655 157.622 63.9733C157.636 64.0812 157.673 64.1849 157.73 64.2775C157.787 64.3701 157.863 64.4495 157.953 64.5104C158.044 64.5713 158.146 64.6124 158.253 64.6309C158.36 64.6493 158.47 64.6448 158.575 64.6175C158.681 64.5903 158.779 64.5409 158.864 64.4728C158.949 64.4046 159.018 64.3192 159.067 64.2222V64.2307Z" fill="#321951"/>
<path d="M164.099 77.3725C164.035 77.4759 163.944 77.5604 163.836 77.6173C163.728 77.6742 163.607 77.7016 163.485 77.6966C163.363 77.6871 163.245 77.6459 163.143 77.5771C163.042 77.5084 162.96 77.4143 162.905 77.3043C162.811 77.1234 162.65 76.9871 162.455 76.9256C162.261 76.864 162.05 76.8821 161.869 76.976C161.688 77.0698 161.552 77.2317 161.49 77.426C161.429 77.6204 161.447 77.8312 161.541 78.0121C161.717 78.3594 161.982 78.6542 162.308 78.8668C162.634 79.0794 163.011 79.2023 163.4 79.223H163.519C163.884 79.2209 164.242 79.1296 164.563 78.9572C164.885 78.7848 165.159 78.5364 165.362 78.2338C165.433 78.1519 165.487 78.0557 165.518 77.9516C165.55 77.8474 165.559 77.7378 165.545 77.6299C165.531 77.522 165.494 77.4183 165.437 77.3257C165.38 77.2331 165.304 77.1537 165.214 77.0928C165.123 77.0319 165.021 76.9908 164.914 76.9724C164.807 76.9539 164.697 76.9585 164.591 76.9857C164.486 77.013 164.388 77.0623 164.303 77.1305C164.218 77.1986 164.149 77.284 164.099 77.381V77.3725Z" fill="#321951"/>
<path d="M159.613 64.8024C158.863 64.7342 158.206 65.6552 158.104 66.8576C158.001 68.06 158.411 68.9213 159.067 69.1089C159.124 69.1177 159.181 69.1177 159.238 69.1089C159.455 69.1126 159.67 69.0555 159.857 68.944C160.043 68.8325 160.195 68.671 160.296 68.4778C160.562 68.0479 160.717 67.5585 160.748 67.0537C160.893 65.8769 160.347 64.8706 159.613 64.8024Z" fill="#321951"/>
<path d="M168.466 65.0585C168.531 64.9561 168.623 64.8728 168.731 64.8173C168.839 64.7619 168.959 64.7362 169.081 64.743C169.203 64.7508 169.322 64.7912 169.424 64.8602C169.526 64.9292 169.608 65.0241 169.661 65.1352C169.726 65.2593 169.824 65.3631 169.944 65.4352C170.065 65.5074 170.203 65.5452 170.343 65.5446C170.467 65.545 170.59 65.5157 170.701 65.4593C170.88 65.3649 171.015 65.2035 171.076 65.0101C171.137 64.8168 171.118 64.6074 171.025 64.4274C170.851 64.0797 170.588 63.784 170.263 63.5699C169.938 63.3559 169.563 63.231 169.174 63.208C168.789 63.1884 168.406 63.2683 168.061 63.4401C167.716 63.6119 167.421 63.8697 167.204 64.1887C167.119 64.3555 167.098 64.5475 167.145 64.7286C167.192 64.9098 167.304 65.0676 167.459 65.1723C167.614 65.2771 167.802 65.3216 167.987 65.2975C168.173 65.2734 168.343 65.1823 168.466 65.0414V65.0585Z" fill="#321951"/>
<path d="M169.021 65.6295C168.262 65.5613 167.613 66.4823 167.511 67.6847C167.409 68.8871 167.818 69.7484 168.475 69.936C168.531 69.9488 168.589 69.9488 168.645 69.936C168.863 69.9397 169.077 69.8826 169.264 69.7711C169.451 69.6597 169.603 69.4982 169.703 69.305C169.966 68.8733 170.121 68.3849 170.155 67.8809C170.274 66.704 169.746 65.6978 169.021 65.6295Z" fill="#321951"/>
<path d="M161.02 73.5433C160.962 73.7367 160.982 73.9454 161.076 74.1243C161.17 74.3031 161.331 74.4375 161.524 74.4984L164.381 75.3512C164.455 75.36 164.529 75.36 164.603 75.3512C164.765 75.3501 164.922 75.2995 165.055 75.2062C165.153 75.1384 165.232 75.0479 165.287 74.9424C165.342 74.837 165.371 74.7197 165.37 74.6007L165.558 68.4267C165.563 68.2237 165.488 68.027 165.349 67.8787C165.21 67.7305 165.019 67.6425 164.816 67.6336C164.715 67.629 164.614 67.6447 164.519 67.6797C164.424 67.7148 164.337 67.7684 164.263 67.8375C164.189 67.9067 164.13 67.9899 164.089 68.0822C164.047 68.1746 164.025 68.2743 164.023 68.3755L163.869 73.5518L161.984 72.9634C161.883 72.9342 161.776 72.9262 161.672 72.94C161.567 72.9537 161.466 72.9889 161.376 73.0433C161.286 73.0977 161.207 73.1702 161.146 73.2562C161.085 73.3423 161.042 73.44 161.02 73.5433Z" fill="#321951"/>
<path d="M158.76 37.7695C152.053 37.7695 145.496 39.7583 139.919 43.4844C134.342 47.2104 129.996 52.5064 127.429 58.7024C124.863 64.8985 124.192 71.7163 125.501 78.2937C126.81 84.8711 130.041 90.9126 134.784 95.6542C139.528 100.396 145.571 103.624 152.15 104.932C158.728 106.239 165.547 105.566 171.744 102.999C177.94 100.431 183.236 96.0839 186.961 90.5069C190.686 84.9299 192.674 78.3737 192.672 71.6673C192.663 62.6783 189.087 54.0603 182.729 47.7049C176.371 41.3496 167.751 37.7763 158.76 37.7695ZM167.793 102.742C166.188 103.215 164.548 103.557 162.888 103.766C161.519 103.943 160.141 104.034 158.76 104.039C158.274 104.039 157.788 104.039 157.302 104.039C155.813 103.972 154.331 103.801 152.867 103.527C145.671 102.184 139.141 98.4449 134.342 92.9184C138.137 85.3543 147.877 85.5931 150.444 85.7977C150.444 86.1389 150.444 86.1559 150.444 86.1644C150.409 87.2634 150.595 88.3584 150.991 89.3841C151.387 90.4099 151.986 91.3456 152.751 92.1355C153.516 92.9255 154.432 93.5536 155.444 93.9826C156.457 94.4115 157.545 94.6326 158.645 94.6326C159.745 94.6326 160.833 94.4115 161.846 93.9826C162.859 93.5536 163.775 92.9255 164.54 92.1355C165.305 91.3456 165.903 90.4099 166.299 89.3841C166.695 88.3584 166.881 87.2634 166.846 86.1644V85.7807C169.473 85.5675 179.315 85.3372 183.051 93.0975C178.981 97.6924 173.69 101.037 167.793 102.742ZM156.509 82.9751C158.365 83.9091 160.402 84.4272 162.479 84.493C163.423 84.4963 164.361 84.3376 165.251 84.024V86.1218C165.189 87.8481 164.46 89.483 163.217 90.6824C161.973 91.8818 160.313 92.5521 158.585 92.5521C156.858 92.5521 155.198 91.8818 153.954 90.6824C152.711 89.483 151.982 87.8481 151.92 86.1218C151.92 85.8063 152.773 75.7606 153.157 70.4905C153.168 70.3876 153.159 70.2834 153.13 70.1842C153.1 70.0849 153.051 69.9927 152.985 69.913C152.919 69.8334 152.837 69.7679 152.745 69.7206C152.653 69.6733 152.552 69.6451 152.449 69.6377C152.347 69.6302 152.244 69.6437 152.147 69.6775C152.05 69.7112 151.961 69.7644 151.886 69.8338C151.298 70.0763 150.642 70.0915 150.044 69.8765C149.64 69.7439 149.274 69.5157 148.977 69.2113L148.858 69.0834C148.774 68.9839 148.697 68.8784 148.628 68.7679C148.49 68.5542 148.401 68.3123 148.369 68.06C148.336 67.8077 148.361 67.5513 148.44 67.3096C148.677 66.7946 149.105 66.3928 149.635 66.1903C150.164 65.9879 150.752 66.0009 151.272 66.2266C151.914 66.4291 152.45 66.8765 152.764 67.4716L152.858 67.6763C152.902 67.7911 152.973 67.8937 153.065 67.9753C153.157 68.0569 153.268 68.1152 153.387 68.1453C153.647 68.1897 153.913 68.176 154.166 68.1052C154.42 68.0344 154.655 67.9083 154.854 67.736C156.15 66.7212 156.867 64.0861 156.995 59.899C159.211 60.987 161.551 61.8031 163.963 62.3294C166.582 62.9257 169.295 62.9867 171.938 62.5085C171.997 65.749 171.835 77.9778 166.232 81.7727C163.92 83.3332 160.85 83.248 157.123 81.5168C156.937 81.4323 156.726 81.4243 156.534 81.4945C156.342 81.5648 156.186 81.7076 156.099 81.892C156.047 81.9887 156.017 82.0954 156.009 82.2048C156.002 82.3143 156.018 82.4241 156.057 82.5267C156.096 82.6294 156.156 82.7225 156.234 82.7998C156.312 82.8772 156.406 82.9369 156.509 82.9751ZM184.066 91.8269C182.011 88.0235 178.317 85.5078 173.302 84.5612C171.16 84.1671 168.976 84.0495 166.803 84.2116V83.3076L167.144 83.1115C173.695 78.6771 173.609 65.0156 173.516 62.2015C175.61 61.5648 177.524 60.4429 179.102 58.9268C179.223 58.8095 179.302 58.6557 179.327 58.4891C179.351 58.3226 179.321 58.1525 179.239 58.0051C179.158 57.8577 179.03 57.7412 178.876 57.6736C178.722 57.6059 178.549 57.5908 178.386 57.6306C177.66 57.7421 176.917 57.6445 176.245 57.3492C177.729 56.2747 179.878 53.8443 179.281 49.0176C179.266 48.8944 179.222 48.7765 179.151 48.6743C179.081 48.572 178.987 48.4884 178.877 48.4305C178.767 48.3727 178.645 48.3423 178.521 48.3421C178.396 48.3419 178.274 48.3717 178.164 48.4292C177.959 48.5315 173.046 50.9875 167.144 46.9539C166.284 46.2934 165.293 45.8252 164.236 45.581C163.18 45.3367 162.083 45.3222 161.02 45.5383C159.146 46.0854 157.525 47.2749 156.44 48.8982C154.021 47.744 151.262 47.5195 148.687 48.2672C144.781 49.444 141.523 52.8722 138.998 58.4578C138.925 58.6051 138.901 58.7726 138.932 58.9344C138.963 59.0962 139.046 59.2434 139.169 59.3532C139.282 59.4578 139.426 59.5239 139.579 59.5423C139.732 59.5607 139.887 59.5303 140.022 59.4556C140.525 59.3124 141.061 59.3363 141.549 59.5238C140.447 62.4804 140.447 65.7345 141.549 68.6911C142.981 72.2898 146.214 75.0613 151.144 76.9289C150.845 80.6896 150.666 82.8983 150.564 84.2201C148.349 84.0424 146.121 84.1571 143.937 84.5612C140.826 85.0662 137.932 86.4715 135.612 88.6034C135.382 88.8251 135.16 89.0639 134.947 89.2941C134.316 90.0074 133.762 90.7849 133.292 91.6137C129.524 86.8249 127.182 81.0708 126.536 75.0118C125.89 68.9528 126.965 62.8344 129.639 57.3587C132.313 51.8831 136.476 47.2721 141.652 44.055C146.828 40.8379 152.806 39.145 158.9 39.1706C164.994 39.1961 170.958 40.9392 176.106 44.1997C181.255 47.4601 185.379 52.1059 188.007 57.6038C190.635 63.1017 191.659 69.2289 190.962 75.2823C190.265 81.3357 187.875 87.0699 184.066 91.8269Z" fill="#321951"/>
<path d="M183.435 149.005V124.675C183.435 123.162 182.834 121.71 181.764 120.638C180.694 119.567 179.243 118.964 177.729 118.962H141.225C139.71 118.964 138.259 119.567 137.189 120.638C136.119 121.71 135.519 123.162 135.519 124.675V149.005C135.519 150.519 136.119 151.971 137.189 153.042C138.259 154.113 139.71 154.716 141.225 154.719H177.729C179.243 154.716 180.694 154.113 181.764 153.042C182.834 151.971 183.435 150.519 183.435 149.005ZM181.9 124.675V149.005C181.9 149.868 181.628 150.71 181.124 151.41C178.565 148.647 175.904 145.893 173.345 143.232C171.093 140.887 168.773 138.465 166.522 136.051C169.021 133.655 172.731 130.193 176.04 127.097L181.158 122.296C181.643 122.995 181.902 123.825 181.9 124.675ZM141.225 120.505H177.729C178.559 120.502 179.37 120.748 180.057 121.213L174.94 125.972C171.375 129.306 167.358 133.067 164.867 135.463L164.679 135.651C164.338 135.975 164.014 136.333 163.69 136.691C163.366 137.049 163.042 137.399 162.709 137.723L162.3 138.115C161.447 138.968 160.355 139.983 159.451 139.983C158.547 139.983 157.472 138.951 156.602 138.115L156.202 137.731C155.86 137.407 155.545 137.058 155.212 136.691C154.88 136.324 154.564 135.975 154.223 135.651L154.035 135.472C151.613 133.144 149.122 130.824 146.717 128.573C144.159 126.168 141.514 123.695 138.93 121.205C139.608 120.749 140.407 120.505 141.225 120.505ZM137.054 149.005V124.675C137.055 123.805 137.333 122.957 137.847 122.254C140.448 124.761 143.109 127.259 145.685 129.673C147.911 131.754 150.197 133.937 152.449 136.051C150.163 138.482 147.835 140.912 145.574 143.266C143.016 145.918 140.397 148.656 137.83 151.41C137.326 150.709 137.055 149.868 137.054 149.005ZM138.922 152.484C141.48 149.73 144.124 146.984 146.675 144.332C148.935 141.978 151.263 139.556 153.498 137.135C153.685 137.331 153.873 137.518 154.061 137.723C154.393 138.098 154.752 138.482 155.127 138.849L155.519 139.224C156.585 140.239 157.899 141.518 159.434 141.526C160.969 141.535 162.283 140.247 163.349 139.224L163.741 138.84C164.125 138.482 164.475 138.098 164.807 137.723L165.37 137.135C167.639 139.548 169.95 141.953 172.194 144.289C174.752 146.958 177.405 149.721 179.981 152.484C179.301 152.938 178.503 153.181 177.686 153.184H141.182C140.377 153.171 139.593 152.929 138.922 152.484Z" fill="#321951"/>
<path d="M111.484 97.9841C107.868 94.5384 103.038 92.6606 98.0438 92.7596C93.05 92.8586 88.2976 94.9265 84.8217 98.5129C83.1107 100.289 81.7681 102.385 80.8711 104.682C79.9741 106.979 79.5405 109.431 79.5952 111.896C79.6499 114.361 80.1918 116.791 81.1898 119.046C82.1878 121.301 83.6222 123.336 85.4102 125.034C89.0256 128.48 93.8562 130.358 98.85 130.259C103.844 130.16 108.596 128.092 112.072 124.505C113.783 122.73 115.126 120.633 116.023 118.336C116.92 116.039 117.353 113.587 117.299 111.122C117.244 108.657 116.702 106.227 115.704 103.972C114.706 101.717 113.272 99.6824 111.484 97.9841ZM110.972 123.439C108.218 126.301 104.557 128.119 100.613 128.585C96.6691 129.051 92.6854 128.135 89.3408 125.994C85.9962 123.852 83.4975 120.618 82.2705 116.841C81.0435 113.064 81.1639 108.979 82.6114 105.281C84.0588 101.583 86.7437 98.5015 90.2087 96.5608C93.6737 94.6201 97.7044 93.9405 101.614 94.6378C105.524 95.335 109.071 97.366 111.652 100.385C114.232 103.404 115.686 107.223 115.765 111.194C115.816 113.45 115.419 115.695 114.596 117.797C113.774 119.899 112.542 121.817 110.972 123.439Z" fill="#321951"/>
<path d="M90.9967 110.818L101.232 103.442C101.397 103.322 101.507 103.141 101.539 102.94C101.571 102.738 101.522 102.532 101.402 102.367C101.282 102.202 101.102 102.091 100.9 102.059C100.699 102.027 100.493 102.077 100.327 102.197L90.1011 109.573C89.9375 109.694 89.8279 109.874 89.796 110.075C89.7641 110.276 89.8124 110.482 89.9305 110.648C90.002 110.746 90.0957 110.825 90.2039 110.88C90.3121 110.935 90.4318 110.963 90.5532 110.963C90.7129 110.965 90.8689 110.914 90.9967 110.818Z" fill="#321951"/>
<path d="M106.562 113.215L97.1802 119.883C97.0483 119.978 96.9501 120.113 96.8995 120.267C96.849 120.422 96.8489 120.589 96.8992 120.743C96.9495 120.898 97.0476 121.032 97.1793 121.128C97.3111 121.223 97.4697 121.274 97.6323 121.273C97.7881 121.275 97.9404 121.227 98.0672 121.137L107.449 114.468C107.532 114.411 107.603 114.338 107.658 114.253C107.712 114.168 107.749 114.074 107.766 113.974C107.784 113.875 107.781 113.774 107.759 113.675C107.737 113.577 107.695 113.484 107.637 113.402C107.518 113.236 107.339 113.123 107.138 113.088C106.937 113.053 106.73 113.098 106.562 113.215Z" fill="#321951"/>
<path d="M106.912 104.755L90.519 116.481C90.4364 116.539 90.3662 116.614 90.3124 116.699C90.2587 116.785 90.2224 116.881 90.2058 116.981C90.1891 117.081 90.1924 117.183 90.2154 117.281C90.2384 117.38 90.2807 117.473 90.3399 117.555C90.4094 117.656 90.5025 117.738 90.611 117.795C90.7195 117.851 90.8402 117.88 90.9625 117.879C91.1218 117.878 91.2768 117.827 91.406 117.734L107.799 106.017C107.902 105.972 107.994 105.904 108.068 105.819C108.142 105.734 108.196 105.634 108.227 105.525C108.258 105.417 108.264 105.303 108.246 105.192C108.228 105.08 108.185 104.975 108.122 104.882C108.058 104.789 107.975 104.711 107.877 104.654C107.78 104.597 107.672 104.562 107.56 104.551C107.447 104.541 107.334 104.555 107.228 104.593C107.122 104.631 107.026 104.693 106.946 104.772L106.912 104.755Z" fill="#321951"/>
<path d="M203.623 186.877C203.621 187.216 203.687 187.551 203.816 187.865C203.944 188.178 204.134 188.462 204.374 188.702C204.865 189.182 205.521 189.456 206.208 189.469H206.259C206.934 189.474 207.584 189.218 208.074 188.754C208.564 188.289 208.855 187.653 208.886 186.979C208.891 186.64 208.827 186.304 208.698 185.99C208.569 185.676 208.377 185.392 208.135 185.154C207.887 184.908 207.593 184.714 207.27 184.582C206.946 184.45 206.6 184.384 206.25 184.387C205.575 184.382 204.925 184.638 204.435 185.102C203.945 185.567 203.654 186.203 203.623 186.877ZM207.035 186.246C207.129 186.336 207.204 186.445 207.255 186.565C207.307 186.685 207.333 186.814 207.333 186.945C207.314 187.219 207.189 187.474 206.986 187.659C206.783 187.843 206.516 187.942 206.242 187.934V188.693V187.934C205.951 187.931 205.673 187.815 205.466 187.61C205.372 187.519 205.297 187.411 205.246 187.291C205.195 187.171 205.168 187.042 205.167 186.911C205.192 186.703 205.274 186.507 205.405 186.344C205.535 186.181 205.709 186.057 205.906 185.988C206.104 185.919 206.316 185.906 206.52 185.952C206.724 185.997 206.912 186.099 207.061 186.246H207.035Z" fill="#321951"/>
</g>
<defs>
<clipPath id="clip0_741_58398">
<rect width="309" height="208" fill="white"/>
</clipPath>
</defs>
</svg>
