<svg width="309" height="210" viewBox="0 0 309 210" fill="none" xmlns="http://www.w3.org/2000/svg">
<g clip-path="url(#clip0_2051_111763)">
<path d="M199.99 157.014L207.521 157.168C208.979 157.188 210.422 157.463 211.785 157.978V14.5443C211.785 7.90867 206.054 2.5183 198.992 2.5183H189.533C189.321 2.50209 189.108 2.52859 188.907 2.59624C188.705 2.66388 188.52 2.77129 188.361 2.91209C188.202 3.05289 188.072 3.22422 187.981 3.4159C187.889 3.60758 187.837 3.81571 187.827 4.02794V5.94699C187.785 7.38432 187.175 8.74643 186.132 9.73569C185.088 10.7249 183.695 11.2609 182.258 11.2265H135.228C133.792 11.2609 132.4 10.7247 131.358 9.73517C130.315 8.74568 129.708 7.38355 129.667 5.94699V4.045C129.657 3.83316 129.604 3.6256 129.512 3.43447C129.42 3.24335 129.29 3.07249 129.132 2.93191C128.973 2.79133 128.787 2.68385 128.587 2.61576C128.386 2.54767 128.173 2.52033 127.962 2.53535H118.511C111.466 2.53535 105.718 7.92573 105.718 14.5614V86.3506C110.061 87.5551 114.04 89.814 117.3 92.9265C120.781 96.2398 123.317 100.419 124.65 105.036C125.983 109.652 126.064 114.541 124.886 119.199C123.707 123.857 121.311 128.119 117.942 131.546C114.574 134.973 110.355 137.443 105.718 138.702V195.165C105.718 201.792 111.441 207.191 118.511 207.191H199.017C206.054 207.191 211.811 201.792 211.811 195.165V193.988C210.305 194.571 208.701 194.861 207.086 194.84H206.813L199.273 194.695C199.172 194.693 199.073 194.671 198.981 194.631C198.888 194.59 198.805 194.532 198.735 194.459C198.666 194.386 198.611 194.3 198.575 194.206C198.538 194.112 198.52 194.012 198.523 193.911L199.248 157.739C199.258 157.547 199.34 157.366 199.478 157.232C199.615 157.098 199.798 157.02 199.99 157.014Z" fill="#F1E6FF"/>
<path d="M183.008 94.0702C179.29 86.3087 169.447 86.539 166.803 86.7522V87.1105C166.839 88.2096 166.653 89.3047 166.257 90.3307C165.86 91.3566 165.262 92.2924 164.497 93.0825C163.732 93.8726 162.816 94.5008 161.803 94.9298C160.791 95.3589 159.702 95.5799 158.602 95.5799C157.503 95.5799 156.414 95.3589 155.402 94.9298C154.389 94.5008 153.473 93.8726 152.708 93.0825C151.943 92.2924 151.344 91.3566 150.948 90.3307C150.552 89.3047 150.366 88.2096 150.402 87.1105C150.402 87.1105 150.402 87.1105 150.402 86.7437C147.843 86.539 138.094 86.3002 134.299 93.8655C139.098 99.3928 145.628 103.133 152.824 104.476L157.259 104.987C157.745 104.987 158.231 104.987 158.718 104.987C160.098 104.983 161.477 104.892 162.846 104.714L167.75 103.691C173.637 101.975 178.916 98.624 182.974 94.0275L183.008 94.0702Z" fill="#00DA9C"/>
<path d="M135.143 89.8223L134.947 90.2915C135.16 90.0612 135.382 89.8223 135.613 89.6006L135.143 89.8223Z" fill="#00DA9C"/>
<path d="M77.06 129.338L55.2085 151.974L60.6586 157.168L82.5101 134.541C81.4765 133.8 80.4961 132.988 79.5761 132.11C78.6794 131.24 77.839 130.314 77.06 129.338Z" fill="#00DA9C"/>
<path d="M98.3914 86.8879C94.9317 86.8795 91.5063 87.5728 88.3222 88.9259C85.1381 90.279 82.2615 92.2638 79.8662 94.7602C77.5315 97.1881 75.7005 100.054 74.4788 103.193C73.2571 106.332 72.669 109.682 72.7483 113.049C72.8276 116.417 73.5727 119.735 74.9408 122.813C76.3088 125.891 78.2727 128.668 80.7191 130.983C85.6593 135.694 92.2615 138.262 99.0866 138.126C105.912 137.99 112.406 135.162 117.155 130.258C119.49 127.83 121.321 124.964 122.543 121.825C123.764 118.686 124.353 115.337 124.273 111.969C124.194 108.602 123.449 105.283 122.081 102.205C120.713 99.1273 118.749 96.3506 116.302 94.0353C111.482 89.4242 105.062 86.8621 98.3914 86.8879Z" fill="#00DA9C"/>
<path d="M165.413 138.14L164.85 138.728C164.517 139.103 164.168 139.487 163.784 139.845L163.392 140.229C162.326 141.253 161.004 142.524 159.477 142.532C157.95 142.541 156.628 141.244 155.562 140.229L155.17 139.854C154.794 139.487 154.436 139.103 154.103 138.728C153.916 138.523 153.728 138.336 153.541 138.14C151.263 140.562 148.935 142.984 146.717 145.338C144.159 147.991 141.54 150.737 138.964 153.492C139.648 153.944 140.448 154.187 141.267 154.191H177.772C178.589 154.188 179.386 153.945 180.066 153.492C177.507 150.729 174.846 147.965 172.279 145.296C169.993 142.959 167.716 140.553 165.413 138.14Z" fill="white"/>
<path d="M152.449 137.099C150.197 134.95 147.911 132.834 145.685 130.719C143.126 128.305 140.448 125.806 137.847 123.299C137.333 124.002 137.055 124.85 137.054 125.721V150.055C137.066 150.919 137.35 151.757 137.864 152.451C140.423 149.696 143.058 146.958 145.608 144.306C147.834 141.918 150.163 139.487 152.449 137.099Z" fill="white"/>
<path d="M176.023 128.101C172.714 131.197 169.004 134.66 166.505 137.056C168.774 139.47 171.094 141.892 173.328 144.238C175.887 146.899 178.531 149.654 181.107 152.417C181.612 151.717 181.883 150.875 181.883 150.012V125.678C181.882 124.827 181.62 123.996 181.132 123.299L176.023 128.101Z" fill="white"/>
<path d="M154.069 136.459L154.257 136.638C154.598 136.962 154.922 137.32 155.246 137.678C155.571 138.037 155.895 138.395 156.236 138.719L156.637 139.103C157.49 139.956 158.573 140.971 159.485 140.971C160.398 140.971 161.464 139.939 162.334 139.103L162.743 138.71C163.076 138.386 163.4 138.037 163.724 137.678C164.048 137.32 164.373 136.962 164.714 136.638L164.901 136.45C167.392 134.054 171.409 130.292 174.974 126.957L180.092 122.198C179.404 121.733 178.593 121.486 177.763 121.49H141.259C140.449 121.488 139.657 121.726 138.981 122.173C141.54 124.663 144.21 127.137 146.768 129.542C149.14 131.81 151.63 134.13 154.069 136.459Z" fill="white"/>
<path d="M98.4087 95.3067C94.3887 95.3183 90.4979 96.7284 87.4039 99.2951C84.3099 101.862 82.2055 105.425 81.4517 109.374C80.6979 113.323 81.3416 117.411 83.2725 120.937C85.2034 124.463 88.3011 127.207 92.0342 128.699C95.7673 130.19 99.9031 130.336 103.732 129.112C107.561 127.888 110.845 125.369 113.02 121.988C115.195 118.607 116.125 114.575 115.652 110.582C115.179 106.59 113.331 102.887 110.426 100.109C107.189 97.0185 102.884 95.2982 98.4087 95.3067Z" fill="white"/>
<path d="M240.998 171.301L249.092 171.463H250.201C251.199 171.48 252.167 171.121 252.913 170.456C253.265 170.143 253.549 169.76 253.745 169.331C253.942 168.902 254.048 168.437 254.056 167.966C254.052 167.482 253.954 167.004 253.766 166.558C253.577 166.112 253.303 165.708 252.959 165.368C252.614 165.028 252.206 164.76 251.758 164.578C251.309 164.396 250.829 164.304 250.346 164.307L230.251 163.906C230.048 163.906 229.852 163.825 229.708 163.681C229.564 163.537 229.484 163.342 229.484 163.138C229.484 162.935 229.564 162.74 229.708 162.596C229.852 162.452 230.048 162.371 230.251 162.371L235.189 162.473C236.042 160.767 238.089 152.98 237.748 150.302C237.407 147.624 236.196 145.978 234.175 145.645C233.386 145.579 232.592 145.579 231.803 145.645C227.795 161.68 219.82 163.838 217.082 164.094C217.082 164.239 217.082 164.384 217.082 164.529L216.613 187.924C216.607 188.21 216.578 188.495 216.528 188.777C223.999 191.745 231.744 191.916 239.241 192.078L245.68 192.214C246.187 192.231 246.681 192.047 247.053 191.702C247.229 191.547 247.37 191.356 247.468 191.143C247.566 190.931 247.62 190.7 247.625 190.466C247.631 190.094 247.521 189.73 247.31 189.424C247.099 189.118 246.797 188.886 246.448 188.76L239.966 188.632C239.865 188.631 239.766 188.61 239.674 188.57C239.582 188.53 239.498 188.473 239.428 188.401C239.359 188.328 239.304 188.243 239.267 188.149C239.231 188.056 239.213 187.956 239.215 187.856C239.22 187.654 239.302 187.463 239.445 187.321C239.589 187.179 239.781 187.099 239.983 187.097L246.601 187.233H248.418H248.478C249.243 187.254 249.987 186.975 250.549 186.456C251.112 185.936 251.449 185.217 251.489 184.453C251.486 183.778 251.247 183.126 250.814 182.609C250.381 182.092 249.781 181.742 249.117 181.621L240.512 181.45C240.308 181.45 240.113 181.369 239.969 181.226C239.825 181.082 239.744 180.886 239.744 180.683C239.744 180.479 239.825 180.284 239.969 180.14C240.113 179.996 240.308 179.915 240.512 179.915L249.152 180.094C250.065 180.054 250.931 179.673 251.577 179.025C252.223 178.378 252.602 177.511 252.64 176.597C252.65 176.14 252.569 175.686 252.401 175.261C252.232 174.836 251.98 174.449 251.659 174.124C251.306 173.756 250.882 173.462 250.413 173.26C249.945 173.058 249.44 172.951 248.93 172.947L240.819 172.776C240.63 172.756 240.456 172.667 240.329 172.526C240.202 172.385 240.132 172.203 240.132 172.013C240.132 171.823 240.202 171.64 240.329 171.5C240.456 171.359 240.63 171.27 240.819 171.25L240.998 171.301Z" fill="white"/>
<path d="M206.276 186.935C205.998 186.923 205.726 187.019 205.518 187.204C205.309 187.388 205.181 187.646 205.159 187.924C205.159 188.055 205.186 188.184 205.237 188.304C205.289 188.424 205.363 188.533 205.457 188.623C205.664 188.828 205.942 188.944 206.233 188.947V189.707V188.947C206.508 188.955 206.774 188.856 206.978 188.672C207.181 188.487 207.305 188.232 207.325 187.958C207.325 187.827 207.298 187.698 207.247 187.578C207.196 187.458 207.121 187.349 207.027 187.259C206.829 187.056 206.559 186.94 206.276 186.935Z" fill="white"/>
<path d="M167.792 103.742L162.888 104.766C164.548 104.557 166.188 104.215 167.792 103.742Z" fill="#FBC22D"/>
<path d="M158.76 40.294C152.691 40.2914 146.744 41.9958 141.598 45.2126C136.452 48.4293 132.315 53.0287 129.659 58.4851C127.003 63.9416 125.935 70.0352 126.577 76.0698C127.22 82.1043 129.547 87.8364 133.292 92.6113C133.761 91.7824 134.316 91.0049 134.947 90.2914L135.143 89.8223L135.612 89.6006C137.932 87.4683 140.826 86.0628 143.937 85.5578C146.121 85.1536 148.349 85.0389 150.564 85.2166C150.666 83.9117 150.845 81.6856 151.144 77.9243C146.214 76.0564 142.981 73.2845 141.548 69.6852C140.447 66.7281 140.447 63.4735 141.548 60.5164C141.06 60.3289 140.525 60.305 140.022 60.4482C139.887 60.5229 139.732 60.5533 139.579 60.5349C139.426 60.5166 139.282 60.4504 139.169 60.3458C139.046 60.236 138.963 60.0888 138.932 59.9269C138.901 59.7651 138.924 59.5976 138.998 59.4503C141.557 53.8637 144.781 50.435 148.687 49.258C151.261 48.5102 154.021 48.7348 156.44 49.8892C157.525 48.2656 159.146 47.0759 161.02 46.5287C162.083 46.3126 163.18 46.3271 164.236 46.5714C165.293 46.8156 166.284 47.2839 167.144 47.9446C173.072 51.9447 177.959 49.5224 178.164 49.4201C178.274 49.3626 178.396 49.3327 178.52 49.333C178.645 49.3332 178.767 49.3635 178.877 49.4214C178.987 49.4793 179.081 49.5629 179.151 49.6652C179.222 49.7675 179.266 49.8853 179.281 50.0086C179.878 54.836 177.729 57.2668 176.245 58.3415C176.917 58.6369 177.66 58.7345 178.385 58.623C178.549 58.5831 178.721 58.5982 178.876 58.6659C179.03 58.7336 179.157 58.8501 179.239 58.9975C179.32 59.1449 179.351 59.315 179.326 59.4816C179.302 59.6482 179.223 59.802 179.102 59.9194C177.524 61.4356 175.609 62.5578 173.515 63.1945C173.609 66.0091 173.694 79.6727 167.144 84.1079L166.803 84.304V85.2081C168.975 85.046 171.16 85.1636 173.302 85.5578C178.317 86.5045 182.01 89.0206 184.066 92.8246C187.87 88.0638 190.251 82.3253 190.936 76.2701C191.62 70.215 190.58 64.0896 187.936 58.5997C185.291 53.1097 181.149 48.4787 175.987 45.24C170.826 42.0013 164.854 40.2868 158.76 40.294Z" fill="#FBC22D"/>
<path d="M157.302 104.995L152.867 104.483C154.331 104.758 155.813 104.929 157.302 104.995Z" fill="#FBC22D"/>
<path d="M151.954 87.1616C152.016 88.8881 152.745 90.5233 153.988 91.7229C155.232 92.9225 156.892 93.5929 158.619 93.5929C160.347 93.5929 162.007 92.9225 163.251 91.7229C164.494 90.5233 165.223 88.8881 165.285 87.1616V85.0635C164.395 85.3771 163.457 85.5358 162.513 85.5326C160.436 85.4667 158.399 84.9486 156.543 84.0144C156.359 83.9291 156.216 83.7744 156.146 83.5843C156.075 83.3941 156.083 83.1839 156.167 82.9994C156.254 82.8149 156.411 82.6721 156.602 82.6019C156.794 82.5316 157.005 82.5396 157.191 82.6241C160.918 84.33 164.014 84.4408 166.3 82.88C171.903 79.0846 172.066 66.8539 172.006 63.6128C169.363 64.0911 166.65 64.0301 164.031 63.4337C161.619 62.9073 159.279 62.0911 157.063 61.0029C156.935 65.1907 156.21 67.8262 154.922 68.8412C154.723 69.0135 154.488 69.1396 154.235 69.2104C153.981 69.2812 153.715 69.2949 153.455 69.2505C153.336 69.2204 153.225 69.1621 153.133 69.0805C153.041 68.9989 152.97 68.8963 152.926 68.7814L152.832 68.5768C152.518 67.9815 151.982 67.5341 151.34 67.3315C150.82 67.1058 150.232 67.0927 149.703 67.2952C149.174 67.4977 148.745 67.8996 148.508 68.4147C148.429 68.6564 148.404 68.9128 148.437 69.1652C148.469 69.4176 148.558 69.6595 148.696 69.8732C148.765 69.9838 148.842 70.0892 148.926 70.1887L149.046 70.3167C149.342 70.6212 149.708 70.8494 150.112 70.982C150.71 71.197 151.366 71.1818 151.954 70.9393C152.029 70.8699 152.118 70.8167 152.215 70.7829C152.312 70.7492 152.415 70.7357 152.517 70.7431C152.62 70.7505 152.721 70.7787 152.813 70.8261C152.905 70.8734 152.987 70.9389 153.053 71.0185C153.119 71.0982 153.168 71.1905 153.198 71.2897C153.227 71.389 153.237 71.4932 153.225 71.596C152.773 76.7988 151.971 86.846 151.954 87.1616ZM170.155 68.9094C170.121 69.4135 169.966 69.902 169.703 70.3337C169.603 70.527 169.451 70.6885 169.264 70.8C169.077 70.9115 168.863 70.9686 168.645 70.9649C168.589 70.9777 168.531 70.9777 168.475 70.9649C167.818 70.7773 167.409 69.8305 167.511 68.7132C167.613 67.5959 168.262 66.5895 169.021 66.6577C169.78 66.7259 170.274 67.6983 170.155 68.9094ZM167.204 65.1822C167.42 64.8632 167.715 64.6053 168.06 64.4335C168.406 64.2617 168.789 64.1817 169.174 64.2013C169.566 64.2277 169.944 64.3577 170.269 64.5779C170.594 64.7982 170.855 65.1009 171.025 65.4551C171.118 65.6351 171.136 65.8446 171.076 66.0379C171.015 66.2312 170.88 66.3927 170.701 66.4871C170.59 66.5436 170.467 66.5728 170.343 66.5724C170.202 66.573 170.065 66.5352 169.944 66.463C169.824 66.3909 169.726 66.2871 169.66 66.163C169.607 66.0519 169.526 65.9569 169.424 65.8879C169.322 65.819 169.203 65.7785 169.08 65.7707C168.959 65.7639 168.838 65.7896 168.73 65.8451C168.622 65.9005 168.531 65.9838 168.466 66.0863C168.343 66.2272 168.173 66.3182 167.987 66.3423C167.802 66.3664 167.614 66.3219 167.459 66.2172C167.303 66.1124 167.192 65.9546 167.145 65.7734C167.098 65.5922 167.119 65.4002 167.204 65.2334V65.1822ZM160.747 68.0821C160.717 68.587 160.562 69.0764 160.295 69.5064C160.195 69.6997 160.043 69.8611 159.857 69.9727C159.67 70.0842 159.455 70.1413 159.238 70.1376C159.181 70.1464 159.124 70.1464 159.067 70.1376C158.41 69.9499 158.01 69.0032 158.103 67.8859C158.197 66.7686 158.863 65.7622 159.613 65.8304C160.364 65.8986 160.892 66.8709 160.747 68.0821ZM165.362 79.2381C165.159 79.5408 164.885 79.7891 164.563 79.9616C164.242 80.134 163.884 80.2253 163.519 80.2275H163.4C163.011 80.2067 162.634 80.0838 162.308 79.8712C161.982 79.6586 161.717 79.3637 161.541 79.0163C161.447 78.8354 161.429 78.6245 161.49 78.4302C161.552 78.2358 161.688 78.0739 161.869 77.9801C162.05 77.8862 162.261 77.868 162.455 77.9296C162.649 77.9912 162.811 78.1275 162.905 78.3084C162.96 78.4185 163.042 78.5125 163.143 78.5813C163.245 78.6501 163.363 78.6913 163.485 78.7008C163.607 78.7058 163.728 78.6784 163.836 78.6215C163.944 78.5645 164.035 78.4801 164.099 78.3767C164.149 78.2796 164.218 78.1942 164.303 78.1261C164.388 78.0579 164.486 78.0085 164.591 77.9813C164.697 77.954 164.807 77.9495 164.914 77.9679C165.021 77.9864 165.123 78.0275 165.213 78.0884C165.304 78.1493 165.38 78.2287 165.437 78.3213C165.494 78.4139 165.531 78.5176 165.545 78.6255C165.559 78.7335 165.55 78.8431 165.518 78.9473C165.487 79.0514 165.433 79.1476 165.362 79.2296V79.2381ZM163.869 74.6239L164.023 69.4467C164.025 69.3455 164.047 69.2458 164.088 69.1534C164.13 69.061 164.189 68.9778 164.263 68.9087C164.337 68.8395 164.424 68.7859 164.519 68.7508C164.614 68.7158 164.715 68.7001 164.816 68.7047C165.019 68.7136 165.21 68.8016 165.349 68.9499C165.487 69.0981 165.562 69.2949 165.558 69.4979L165.37 75.69C165.371 75.809 165.342 75.9262 165.287 76.0317C165.232 76.1372 165.152 76.2278 165.055 76.2956C164.922 76.3889 164.765 76.4395 164.603 76.4406C164.529 76.4494 164.454 76.4494 164.381 76.4406L161.524 75.5876C161.42 75.5645 161.322 75.52 161.236 75.457C161.15 75.394 161.079 75.3139 161.025 75.2217C160.972 75.1295 160.939 75.0273 160.927 74.9215C160.916 74.8157 160.926 74.7087 160.958 74.6072C160.991 74.5058 161.043 74.4121 161.114 74.3321C161.184 74.2521 161.27 74.1876 161.366 74.1426C161.463 74.0977 161.567 74.0733 161.674 74.071C161.78 74.0686 161.886 74.0885 161.984 74.1292L163.869 74.6239ZM157.805 64.389C158.015 64.0648 158.307 63.8022 158.652 63.6284C158.996 63.4545 159.381 63.3755 159.767 63.3996C160.154 63.4204 160.53 63.5423 160.856 63.7533C161.183 63.9643 161.448 64.2569 161.626 64.6022C161.716 64.7836 161.732 64.9931 161.67 65.1859C161.608 65.3788 161.472 65.5396 161.293 65.6342C161.186 65.6913 161.065 65.7206 160.944 65.7195C160.803 65.7211 160.665 65.6837 160.545 65.6114C160.424 65.5391 160.326 65.4348 160.261 65.3101C160.208 65.1995 160.126 65.105 160.024 65.0361C159.922 64.9673 159.804 64.9264 159.681 64.9178C159.561 64.9136 159.441 64.9404 159.333 64.9956C159.226 65.0509 159.134 65.1327 159.067 65.2334C159.018 65.3304 158.949 65.4158 158.864 65.484C158.779 65.5521 158.681 65.6015 158.575 65.6287C158.47 65.656 158.36 65.6605 158.253 65.6421C158.145 65.6236 158.043 65.5826 157.953 65.5216C157.863 65.4607 157.787 65.3813 157.73 65.2887C157.672 65.1961 157.636 65.0924 157.622 64.9845C157.608 64.8765 157.617 64.7669 157.648 64.6628C157.68 64.5586 157.733 64.4624 157.805 64.3804V64.389Z" fill="#FDC8B4"/>
<path d="M207.504 158.703L200.74 158.566L200.049 193.194L207.06 193.339C211.478 193.339 215.12 190.892 215.18 187.881L215.649 164.486C215.709 161.39 212.067 158.797 207.504 158.703ZM206.258 190.482H206.207C205.521 190.469 204.865 190.195 204.374 189.715C204.134 189.475 203.944 189.191 203.815 188.877C203.686 188.564 203.621 188.228 203.623 187.889C203.654 187.215 203.945 186.579 204.435 186.115C204.924 185.65 205.575 185.394 206.25 185.399C206.599 185.396 206.946 185.462 207.269 185.594C207.593 185.726 207.887 185.92 208.135 186.167C208.377 186.404 208.568 186.688 208.697 187.002C208.826 187.316 208.89 187.653 208.885 187.992C208.855 188.666 208.564 189.302 208.074 189.766C207.584 190.231 206.933 190.487 206.258 190.482Z" fill="#8B6FE2"/>
<path fill-rule="evenodd" clip-rule="evenodd" d="M204.971 207.472H308.224C308.427 207.472 308.623 207.553 308.767 207.697C308.911 207.841 308.991 208.036 308.991 208.24C308.991 208.443 308.911 208.638 308.767 208.782C308.623 208.926 308.427 209.007 308.224 209.007H0.767618C0.564033 209.007 0.368786 208.926 0.22483 208.782C0.0808739 208.638 0 208.443 0 208.24C0 208.036 0.0808739 207.841 0.22483 207.697C0.368786 207.553 0.564033 207.472 0.767618 207.472H112.55C110.111 206.458 108.021 204.752 106.539 202.565C105.057 200.378 104.247 197.806 104.208 195.165V139.069C97.1859 140.557 89.86 139.238 83.7982 135.393L61.2132 158.779C61.1407 158.853 61.0544 158.911 60.9592 158.95C60.864 158.99 60.7619 159.01 60.6588 159.01C60.4633 159.009 60.275 158.936 60.13 158.805L53.5711 152.553C53.4294 152.407 53.3502 152.211 53.3502 152.007C53.3502 151.804 53.4294 151.608 53.5711 151.462L76.122 128.152C73.2449 124.085 71.5442 119.305 71.207 114.335C70.8697 109.365 71.9088 104.399 74.2102 99.9811C76.5116 95.5635 79.9861 91.8657 84.2521 89.294C88.5181 86.7223 93.4104 85.3763 98.3914 85.4038C100.347 85.4039 102.297 85.6126 104.208 86.0265V14.5954C104.208 7.11541 110.622 1.03418 118.512 1.03418H198.992C206.873 1.03418 213.295 7.11541 213.295 14.5954V158.737C214.89 159.57 216.139 160.942 216.818 162.609C218.865 162.49 226.584 160.929 230.464 144.954C230.777 143.672 234.024 144.121 234.452 144.18C234.48 144.184 234.496 144.186 234.498 144.186C237.185 144.63 238.9 146.745 239.334 150.157C239.659 152.732 238.123 159.573 236.895 162.549L250.397 162.822C251.78 162.825 253.107 163.375 254.085 164.354C255.064 165.332 255.614 166.658 255.616 168.042C255.604 168.722 255.453 169.392 255.171 170.011C254.889 170.631 254.484 171.185 253.979 171.641C253.511 172.072 252.967 172.414 252.375 172.648C252.99 173.131 253.486 173.75 253.825 174.455C254.163 175.16 254.336 175.934 254.329 176.716C254.309 177.639 254.036 178.538 253.539 179.315C253.043 180.093 252.342 180.719 251.514 181.126C252.03 181.531 252.445 182.049 252.727 182.641C253.01 183.233 253.152 183.882 253.143 184.537C253.096 185.661 252.626 186.725 251.827 187.516C251.028 188.307 249.96 188.766 248.836 188.802C249.129 189.322 249.277 189.911 249.262 190.508C249.252 190.951 249.152 191.388 248.967 191.791C248.782 192.195 248.517 192.556 248.188 192.853C247.542 193.442 246.698 193.765 245.825 193.757H245.748L239.334 193.629L239.142 193.624C231.585 193.43 223.755 193.228 216.144 190.218C215.507 191.464 214.528 192.503 213.321 193.211V195.165C213.283 197.807 212.471 200.381 210.988 202.568C209.504 204.755 207.412 206.46 204.971 207.472ZM217.184 164.511L216.715 187.906C216.771 188.205 216.803 188.507 216.809 188.81C224.281 191.779 232.025 191.949 239.522 192.111L245.962 192.248C246.469 192.264 246.962 192.081 247.335 191.736C247.51 191.58 247.651 191.39 247.749 191.177C247.848 190.964 247.901 190.733 247.906 190.499C247.912 190.128 247.802 189.763 247.591 189.458C247.38 189.152 247.079 188.92 246.729 188.793L240.247 188.665C240.147 188.664 240.047 188.643 239.955 188.604C239.863 188.564 239.78 188.506 239.71 188.434C239.64 188.362 239.585 188.277 239.549 188.183C239.512 188.089 239.494 187.99 239.497 187.889C239.501 187.688 239.584 187.496 239.727 187.354C239.87 187.213 240.063 187.132 240.264 187.13L246.883 187.267H248.699H248.759C249.525 187.288 250.268 187.009 250.83 186.489C251.393 185.97 251.73 185.251 251.77 184.486C251.767 183.812 251.528 183.16 251.095 182.642C250.662 182.125 250.062 181.776 249.399 181.654L240.793 181.484C240.589 181.484 240.394 181.403 240.25 181.259C240.106 181.115 240.025 180.92 240.025 180.716C240.025 180.513 240.106 180.317 240.25 180.173C240.394 180.03 240.589 179.949 240.793 179.949L249.433 180.128C250.347 180.088 251.212 179.706 251.858 179.059C252.504 178.411 252.884 177.545 252.921 176.631C252.932 176.174 252.85 175.719 252.682 175.295C252.513 174.87 252.261 174.483 251.94 174.157C251.587 173.789 251.163 173.495 250.695 173.293C250.226 173.091 249.722 172.985 249.211 172.98L241.1 172.81C240.911 172.79 240.737 172.701 240.61 172.56C240.483 172.419 240.413 172.236 240.413 172.046C240.413 171.857 240.483 171.674 240.61 171.533C240.737 171.392 240.911 171.303 241.1 171.283L249.194 171.445H250.303C251.301 171.462 252.27 171.103 253.015 170.439C253.367 170.125 253.651 169.742 253.848 169.313C254.044 168.885 254.15 168.42 254.158 167.948C254.155 167.464 254.056 166.986 253.868 166.54C253.68 166.094 253.405 165.69 253.061 165.35C252.716 165.011 252.308 164.742 251.86 164.56C251.412 164.378 250.932 164.286 250.448 164.289L230.353 163.888C230.15 163.888 229.955 163.808 229.811 163.664C229.667 163.52 229.586 163.324 229.586 163.121C229.586 162.917 229.667 162.722 229.811 162.578C229.955 162.434 230.15 162.353 230.353 162.353L235.292 162.456C236.145 160.758 238.209 153.039 237.85 150.285C237.492 147.53 236.298 145.96 234.277 145.628C233.488 145.562 232.695 145.562 231.906 145.628C227.897 161.662 219.922 163.82 217.184 164.076V164.511ZM215.18 187.881L215.649 164.485C215.709 161.389 212.067 158.797 207.504 158.703L200.74 158.566L200.05 193.194L207.06 193.339C211.479 193.339 215.12 190.891 215.18 187.881ZM55.2087 151.973L60.6588 157.167L82.5103 134.54C81.4908 133.792 80.5247 132.974 79.6189 132.092C78.7082 131.229 77.8536 130.309 77.0602 129.337L55.2087 151.973ZM80.6339 130.983C85.4453 135.581 91.8473 138.142 98.5023 138.131C103.621 138.149 108.628 136.631 112.875 133.773C117.122 130.916 120.415 126.85 122.327 122.102C124.239 117.353 124.683 112.141 123.602 107.137C122.52 102.134 119.963 97.5699 116.26 94.0353C111.45 89.4344 105.047 86.8731 98.3914 86.8879C93.2725 86.8699 88.2659 88.3878 84.0187 91.2452C79.7715 94.1027 76.479 98.1683 74.5668 102.917C72.6546 107.665 72.2106 112.878 73.2921 117.881C74.3737 122.885 76.9312 127.449 80.6339 130.983ZM105.718 195.19C105.718 201.817 111.467 207.216 118.512 207.216H199.018C206.08 207.216 211.811 201.817 211.811 195.19V194.013C210.305 194.597 208.701 194.886 207.086 194.866H206.813L199.273 194.721C199.173 194.719 199.073 194.697 198.981 194.656C198.889 194.615 198.805 194.557 198.736 194.484C198.666 194.411 198.611 194.325 198.575 194.231C198.538 194.137 198.521 194.037 198.523 193.936L199.248 157.765C199.252 157.564 199.335 157.373 199.479 157.233C199.622 157.092 199.815 157.014 200.015 157.014L207.547 157.167C209.004 157.188 210.447 157.463 211.811 157.978V14.5613C211.811 7.92568 206.054 2.5353 199.018 2.5353H189.576C189.495 2.52914 189.415 2.52915 189.335 2.53523L128.223 2.5183C128.147 2.51291 128.072 2.51287 127.996 2.51824H118.512C111.441 2.51824 105.718 7.90862 105.718 14.5442V86.3932C110.061 87.5977 114.04 89.8566 117.3 92.9691C119.886 95.4274 121.961 98.3728 123.404 101.636C124.847 104.899 125.631 108.415 125.71 111.982C125.79 115.549 125.163 119.097 123.866 122.421C122.569 125.745 120.628 128.779 118.153 131.35C114.752 134.889 110.454 137.439 105.718 138.728V195.19Z" fill="#321951"/>
<path d="M128.621 2.59864C128.822 2.66674 129.007 2.77422 129.166 2.9148C129.325 3.05538 129.454 3.22623 129.546 3.41736C129.638 3.60848 129.691 3.81604 129.702 4.02789V5.94693C129.742 7.3835 130.35 8.74562 131.392 9.73511C132.434 10.7246 133.826 11.2608 135.263 11.2264H182.301C183.738 11.2609 185.131 10.7249 186.174 9.73563C187.218 8.74638 187.828 7.38426 187.87 5.94693V4.04494C187.88 3.83271 187.932 3.62458 188.023 3.4329C188.115 3.24122 188.244 3.06989 188.403 2.92909C188.563 2.78829 188.748 2.68088 188.95 2.61324C189.075 2.57129 189.204 2.54516 189.335 2.53523L128.223 2.5183C128.358 2.52798 128.492 2.5549 128.621 2.59864Z" fill="#F1E6FF"/>
<path d="M183.631 200.675H133.89C133.686 200.675 133.491 200.756 133.347 200.9C133.203 201.044 133.122 201.239 133.122 201.442C133.122 201.646 133.203 201.841 133.347 201.985C133.491 202.129 133.686 202.21 133.89 202.21H183.631C183.835 202.21 184.03 202.129 184.174 201.985C184.318 201.841 184.399 201.646 184.399 201.442C184.399 201.239 184.318 201.044 184.174 200.9C184.03 200.756 183.835 200.675 183.631 200.675Z" fill="#321951"/>
<path d="M162.957 196.419H152.176C151.972 196.419 151.777 196.5 151.633 196.644C151.489 196.788 151.408 196.983 151.408 197.187C151.408 197.39 151.489 197.585 151.633 197.729C151.777 197.873 151.972 197.954 152.176 197.954H165.353C165.557 197.954 165.752 197.873 165.896 197.729C166.04 197.585 166.121 197.39 166.121 197.187C166.121 196.983 166.04 196.788 165.896 196.644C165.752 196.5 165.557 196.419 165.353 196.419H162.957Z" fill="#321951"/>
<path d="M134.87 19.3975H182.633C182.837 19.3975 183.032 19.3167 183.176 19.1727C183.32 19.0288 183.401 18.8335 183.401 18.6299C183.401 18.4263 183.32 18.2311 183.176 18.0871C183.032 17.9432 182.837 17.8623 182.633 17.8623H134.87C134.667 17.8623 134.471 17.9432 134.327 18.0871C134.183 18.2311 134.103 18.4263 134.103 18.6299C134.103 18.8335 134.183 19.0288 134.327 19.1727C134.471 19.3167 134.667 19.3975 134.87 19.3975Z" fill="#321951"/>
<path d="M152.577 21.9561C152.373 21.9561 152.178 22.0369 152.034 22.1809C151.89 22.3248 151.809 22.5201 151.809 22.7237C151.809 22.9273 151.89 23.1225 152.034 23.2665C152.178 23.4104 152.373 23.4913 152.577 23.4913H164.952C165.156 23.4913 165.351 23.4104 165.495 23.2665C165.639 23.1225 165.72 22.9273 165.72 22.7237C165.72 22.5201 165.639 22.3248 165.495 22.1809C165.351 22.0369 165.156 21.9561 164.952 21.9561H152.577Z" fill="#321951"/>
<path d="M159.067 65.2242C159.134 65.1235 159.226 65.0417 159.333 64.9864C159.441 64.9312 159.56 64.9044 159.681 64.9086C159.804 64.9173 159.922 64.9581 160.024 65.027C160.126 65.0958 160.208 65.1903 160.261 65.3009C160.326 65.4256 160.424 65.5299 160.544 65.6022C160.665 65.6745 160.803 65.7119 160.944 65.7103C161.065 65.7114 161.186 65.6821 161.293 65.625C161.472 65.5305 161.608 65.3696 161.67 65.1767C161.732 64.9839 161.716 64.7744 161.626 64.593C161.45 64.2446 161.186 63.9485 160.859 63.7344C160.533 63.5203 160.156 63.3958 159.767 63.3734C159.381 63.3493 158.996 63.4283 158.652 63.6021C158.307 63.776 158.015 64.0385 157.805 64.3627C157.733 64.4447 157.68 64.5409 157.648 64.645C157.617 64.7492 157.608 64.8588 157.622 64.9668C157.636 65.0747 157.672 65.1784 157.73 65.271C157.787 65.3636 157.863 65.443 157.953 65.5039C158.043 65.5649 158.145 65.6059 158.253 65.6244C158.36 65.6428 158.47 65.6383 158.575 65.611C158.68 65.5838 158.779 65.5344 158.864 65.4663C158.949 65.3981 159.018 65.3127 159.067 65.2156V65.2242Z" fill="#321951"/>
<path d="M164.1 78.3677C164.035 78.4711 163.944 78.5556 163.836 78.6125C163.728 78.6694 163.607 78.6968 163.486 78.6918C163.363 78.6823 163.245 78.6412 163.144 78.5724C163.042 78.5036 162.96 78.4095 162.906 78.2995C162.812 78.1185 162.65 77.9823 162.455 77.9207C162.261 77.8591 162.05 77.8772 161.869 77.9711C161.688 78.065 161.552 78.2269 161.491 78.4212C161.429 78.6156 161.447 78.8264 161.541 79.0074C161.717 79.3548 161.982 79.6496 162.308 79.8622C162.635 80.0749 163.011 80.1977 163.4 80.2185H163.52C163.884 80.2164 164.243 80.1251 164.564 79.9526C164.885 79.7802 165.159 79.5318 165.362 79.2291C165.434 79.1472 165.487 79.051 165.519 78.9468C165.55 78.8427 165.559 78.733 165.545 78.6251C165.531 78.5172 165.494 78.4135 165.437 78.3209C165.38 78.2283 165.304 78.1489 165.214 78.088C165.124 78.027 165.021 77.986 164.914 77.9675C164.807 77.949 164.697 77.9536 164.592 77.9809C164.486 78.0081 164.388 78.0575 164.303 78.1256C164.218 78.1938 164.149 78.2792 164.1 78.3762V78.3677Z" fill="#321951"/>
<path d="M159.613 65.7956C158.863 65.7273 158.206 66.6485 158.104 67.8511C158.001 69.0537 158.411 69.9151 159.067 70.1027C159.124 70.1115 159.181 70.1115 159.238 70.1027C159.455 70.1064 159.67 70.0493 159.857 69.9378C160.043 69.8263 160.195 69.6648 160.296 69.4716C160.562 69.0416 160.717 68.5521 160.748 68.0472C160.893 66.8702 160.347 65.8638 159.613 65.7956Z" fill="#321951"/>
<path d="M168.466 66.052C168.531 65.9495 168.622 65.8662 168.73 65.8108C168.838 65.7553 168.959 65.7296 169.08 65.7364C169.203 65.7442 169.322 65.7846 169.424 65.8536C169.526 65.9226 169.607 66.0176 169.66 66.1287C169.726 66.2528 169.824 66.3566 169.944 66.4287C170.065 66.5009 170.202 66.5387 170.343 66.5381C170.467 66.5385 170.59 66.5093 170.701 66.4528C170.88 66.3584 171.015 66.1969 171.076 66.0036C171.136 65.8103 171.118 65.6008 171.025 65.4208C170.851 65.073 170.588 64.7772 170.263 64.5631C169.938 64.3491 169.563 64.2242 169.174 64.2011C168.789 64.1816 168.406 64.2615 168.06 64.4333C167.715 64.6051 167.42 64.863 167.204 65.182C167.119 65.3488 167.098 65.5409 167.145 65.722C167.192 65.9032 167.303 66.061 167.458 66.1658C167.614 66.2706 167.802 66.3151 167.987 66.291C168.173 66.2669 168.343 66.1758 168.466 66.0349V66.052Z" fill="#321951"/>
<path d="M169.021 66.6227C168.262 66.5545 167.614 67.4756 167.511 68.6782C167.409 69.8808 167.818 70.7422 168.475 70.9299C168.531 70.9427 168.589 70.9427 168.646 70.9299C168.863 70.9336 169.077 70.8765 169.264 70.765C169.451 70.6535 169.603 70.492 169.703 70.2987C169.966 69.867 170.121 69.3785 170.155 68.8744C170.275 67.6974 169.746 66.6909 169.021 66.6227Z" fill="#321951"/>
<path d="M161.02 74.5384C160.962 74.7318 160.982 74.9406 161.076 75.1194C161.17 75.2983 161.331 75.4327 161.524 75.4936L164.381 76.3465C164.455 76.3554 164.529 76.3554 164.603 76.3465C164.765 76.3455 164.922 76.2949 165.055 76.2015C165.153 76.1338 165.232 76.0432 165.287 75.9377C165.342 75.8322 165.371 75.7149 165.37 75.596L165.558 69.4209C165.563 69.2179 165.488 69.0212 165.349 68.8729C165.21 68.7246 165.019 68.6366 164.816 68.6277C164.715 68.6232 164.614 68.6388 164.519 68.6739C164.424 68.7089 164.337 68.7626 164.263 68.8317C164.189 68.9008 164.13 68.9841 164.089 69.0765C164.047 69.1689 164.025 69.2686 164.023 69.3698L163.869 74.5469L161.984 73.9584C161.883 73.9292 161.776 73.9212 161.672 73.9349C161.567 73.9487 161.466 73.9839 161.376 74.0383C161.286 74.0927 161.207 74.1652 161.146 74.2513C161.085 74.3373 161.042 74.4351 161.02 74.5384Z" fill="#321951"/>
<path d="M158.76 38.7588C152.053 38.7588 145.496 40.7479 139.919 44.4745C134.342 48.2012 129.996 53.4979 127.429 59.695C124.863 65.892 124.192 72.7109 125.501 79.2894C126.81 85.8678 130.041 91.9103 134.784 96.6525C139.528 101.395 145.571 104.624 152.15 105.931C158.728 107.239 165.547 106.566 171.744 103.998C177.94 101.43 183.236 97.0823 186.961 91.5045C190.686 85.9266 192.674 79.3693 192.672 72.6619C192.663 63.6715 189.087 55.0521 182.729 48.6957C176.371 42.3394 167.751 38.7656 158.76 38.7588ZM167.793 103.742C166.188 104.214 164.548 104.557 162.888 104.765C161.519 104.943 160.141 105.034 158.76 105.038C158.274 105.038 157.788 105.038 157.302 105.038C155.813 104.972 154.331 104.801 152.867 104.527C145.671 103.183 139.141 99.4437 134.342 93.9163C138.137 86.351 147.877 86.5899 150.444 86.7946C150.444 87.1357 150.444 87.1528 150.444 87.1613C150.409 88.2605 150.595 89.3556 150.991 90.3815C151.387 91.4074 151.986 92.3432 152.751 93.1333C153.516 93.9234 154.432 94.5516 155.444 94.9807C156.457 95.4097 157.545 95.6308 158.645 95.6308C159.745 95.6308 160.833 95.4097 161.846 94.9807C162.859 94.5516 163.775 93.9234 164.54 93.1333C165.305 92.3432 165.903 91.4074 166.299 90.3815C166.695 89.3556 166.881 88.2605 166.846 87.1613V86.7775C169.473 86.5643 179.315 86.334 183.051 94.0955C178.981 98.6911 173.69 102.036 167.793 103.742ZM156.509 83.9714C158.365 84.9057 160.402 85.4238 162.479 85.4896C163.423 85.4929 164.361 85.3342 165.251 85.0205V87.1187C165.189 88.8452 164.46 90.4804 163.217 91.68C161.973 92.8796 160.313 93.5499 158.585 93.5499C156.858 93.5499 155.198 92.8796 153.954 91.68C152.711 90.4804 151.982 88.8452 151.92 87.1187C151.92 86.8031 152.773 76.7558 153.157 71.4849C153.168 71.382 153.159 71.2778 153.13 71.1785C153.1 71.0793 153.051 70.987 152.985 70.9074C152.919 70.8277 152.837 70.7622 152.745 70.7149C152.653 70.6675 152.552 70.6393 152.449 70.632C152.347 70.6245 152.244 70.638 152.147 70.6718C152.05 70.7055 151.961 70.7587 151.886 70.8281C151.298 71.0707 150.642 71.0859 150.044 70.8708C149.64 70.7382 149.274 70.51 148.977 70.2055L148.858 70.0776C148.774 69.978 148.697 69.8726 148.628 69.762C148.49 69.5483 148.401 69.3064 148.369 69.054C148.336 68.8017 148.361 68.5452 148.44 68.3035C148.677 67.7884 149.105 67.3866 149.635 67.1841C150.164 66.9816 150.752 66.9946 151.272 67.2203C151.914 67.4229 152.45 67.8703 152.764 68.4656L152.858 68.6703C152.902 68.7851 152.973 68.8877 153.065 68.9693C153.157 69.0509 153.268 69.1093 153.387 69.1394C153.647 69.1837 153.913 69.17 154.166 69.0992C154.42 69.0284 154.655 68.9023 154.854 68.73C156.15 67.715 156.867 65.0795 156.995 60.8917C159.211 61.9799 161.551 62.7961 163.963 63.3225C166.582 63.919 169.295 63.9799 171.938 63.5016C171.997 66.7427 171.835 78.9734 166.232 82.7688C163.92 84.3297 160.85 84.2444 157.123 82.513C156.937 82.4284 156.726 82.4204 156.534 82.4907C156.342 82.5609 156.186 82.7037 156.099 82.8882C156.047 82.9849 156.017 83.0916 156.009 83.2011C156.002 83.3106 156.018 83.4204 156.057 83.523C156.096 83.6257 156.156 83.7188 156.234 83.7962C156.312 83.8735 156.406 83.9333 156.509 83.9714ZM184.066 92.8246C182.011 89.0206 178.317 86.5046 173.302 85.5578C171.16 85.1636 168.976 85.0461 166.803 85.2082V84.3041L167.144 84.1079C173.695 79.6728 173.609 66.0092 173.516 63.1946C175.61 62.5578 177.524 61.4357 179.102 59.9194C179.223 59.8021 179.302 59.6483 179.327 59.4817C179.351 59.3151 179.321 59.145 179.239 58.9976C179.158 58.8502 179.03 58.7336 178.876 58.6659C178.722 58.5983 178.549 58.5832 178.386 58.623C177.66 58.7345 176.917 58.6369 176.245 58.3416C177.729 57.2669 179.878 54.8361 179.281 50.0086C179.266 49.8854 179.222 49.7675 179.151 49.6653C179.081 49.563 178.987 49.4793 178.877 49.4214C178.767 49.3636 178.645 49.3332 178.521 49.333C178.396 49.3328 178.274 49.3627 178.164 49.4201C177.959 49.5225 173.046 51.9789 167.144 47.9446C166.284 47.284 165.293 46.8157 164.236 46.5714C163.18 46.3272 162.083 46.3126 161.02 46.5288C159.146 47.0759 157.525 48.2657 156.44 49.8892C154.021 48.7349 151.262 48.5102 148.687 49.2581C144.781 50.4351 141.523 53.8638 138.998 59.4503C138.925 59.5976 138.901 59.7651 138.932 59.927C138.963 60.0888 139.046 60.236 139.169 60.3459C139.282 60.4504 139.426 60.5166 139.579 60.535C139.732 60.5534 139.887 60.523 140.022 60.4482C140.525 60.305 141.061 60.329 141.549 60.5165C140.447 63.4735 140.447 66.7282 141.549 69.6852C142.981 73.2845 146.214 76.0564 151.144 77.9243C150.845 81.6856 150.666 83.8947 150.564 85.2167C148.349 85.0389 146.121 85.1536 143.937 85.5578C140.826 86.0629 137.932 87.4684 135.612 89.6006C135.382 89.8224 135.16 90.0612 134.947 90.2915C134.316 91.0049 133.762 91.7825 133.292 92.6114C129.524 87.8219 127.182 82.0669 126.536 76.0069C125.89 69.947 126.965 63.8276 129.639 58.3511C132.313 52.8746 136.476 48.2629 141.652 45.0452C146.828 41.8276 152.806 40.1344 158.9 40.16C164.994 40.1856 170.958 41.929 176.106 45.1899C181.255 48.4509 185.379 53.0974 188.007 58.5962C190.635 64.095 191.659 70.2232 190.962 76.2775C190.265 82.3318 187.875 88.0669 184.066 92.8246Z" fill="#321951"/>
<path d="M183.435 150.012V125.678C183.435 124.164 182.834 122.712 181.764 121.641C180.694 120.569 179.243 119.966 177.729 119.964H141.225C139.71 119.966 138.259 120.569 137.189 121.641C136.119 122.712 135.519 124.164 135.519 125.678V150.012C135.519 151.526 136.119 152.978 137.189 154.05C138.259 155.121 139.71 155.724 141.225 155.726H177.729C179.243 155.724 180.694 155.121 181.764 154.05C182.834 152.978 183.435 151.526 183.435 150.012ZM181.9 125.678V150.012C181.9 150.875 181.628 151.717 181.124 152.417C178.565 149.654 175.904 146.899 173.345 144.238C171.093 141.892 168.773 139.47 166.522 137.056C169.021 134.659 172.731 131.197 176.04 128.101L181.158 123.299C181.643 123.997 181.902 124.828 181.9 125.678ZM141.225 121.508H177.729C178.559 121.504 179.37 121.75 180.057 122.216L174.94 126.975C171.375 130.31 167.358 134.071 164.867 136.468L164.679 136.655C164.338 136.979 164.014 137.338 163.69 137.696C163.366 138.054 163.042 138.404 162.709 138.728L162.3 139.12C161.447 139.973 160.355 140.988 159.451 140.988C158.547 140.988 157.472 139.956 156.602 139.12L156.202 138.736C155.86 138.412 155.545 138.063 155.212 137.696C154.88 137.329 154.564 136.979 154.223 136.655L154.035 136.476C151.613 134.148 149.122 131.828 146.717 129.576C144.159 127.171 141.514 124.697 138.93 122.207C139.608 121.751 140.407 121.508 141.225 121.508ZM137.054 150.012V125.678C137.055 124.807 137.333 123.959 137.847 123.256C140.448 125.764 143.109 128.263 145.685 130.676C147.911 132.757 150.197 134.941 152.449 137.056C150.163 139.487 147.835 141.918 145.574 144.272C143.016 146.924 140.397 149.662 137.83 152.417C137.326 151.716 137.055 150.875 137.054 150.012ZM138.922 153.492C141.48 150.737 144.124 147.99 146.675 145.338C148.935 142.984 151.263 140.562 153.498 138.139C153.685 138.336 153.873 138.523 154.061 138.728C154.393 139.103 154.752 139.487 155.127 139.854L155.519 140.229C156.585 141.244 157.899 142.523 159.434 142.532C160.969 142.54 162.283 141.252 163.349 140.229L163.741 139.845C164.125 139.487 164.475 139.103 164.807 138.728L165.37 138.139C167.639 140.553 169.95 142.958 172.194 145.295C174.752 147.965 177.405 150.728 179.981 153.492C179.301 153.945 178.503 154.188 177.686 154.191H141.182C140.377 154.179 139.593 153.936 138.922 153.492Z" fill="#321951"/>
<path d="M111.484 98.982C107.868 95.5358 103.038 93.6576 98.044 93.7567C93.0502 93.8557 88.2978 95.9239 84.8219 99.5108C83.111 101.287 81.7684 103.384 80.8714 105.681C79.9744 107.978 79.5407 110.43 79.5954 112.896C79.6501 115.362 80.1921 117.792 81.1901 120.047C82.1881 122.302 83.6224 124.338 85.4104 126.036C89.0258 129.483 93.8565 131.361 98.8503 131.262C103.844 131.163 108.596 129.094 112.072 125.507C113.783 123.731 115.126 121.634 116.023 119.337C116.92 117.04 117.354 114.588 117.299 112.122C117.244 109.657 116.702 107.226 115.704 104.971C114.706 102.716 113.272 100.681 111.484 98.982ZM110.972 124.441C108.218 127.303 104.558 129.122 100.614 129.588C96.6693 130.054 92.6856 129.138 89.341 126.996C85.9964 124.854 83.4978 121.619 82.2707 117.842C81.0437 114.065 81.1642 109.979 82.6116 106.28C84.0591 102.582 86.744 99.4995 90.2089 97.5585C93.6739 95.6175 97.7047 94.9377 101.615 95.6351C105.524 96.3325 109.072 98.3638 111.652 101.383C114.232 104.402 115.686 108.223 115.765 112.194C115.817 114.451 115.419 116.696 114.597 118.798C113.774 120.9 112.542 122.819 110.972 124.441Z" fill="#321951"/>
<path d="M90.9969 111.819L101.232 104.441C101.397 104.321 101.508 104.14 101.54 103.939C101.572 103.737 101.522 103.531 101.402 103.366C101.283 103.201 101.102 103.09 100.9 103.058C100.699 103.026 100.493 103.076 100.328 103.196L90.1014 110.573C89.9377 110.694 89.8281 110.875 89.7962 111.076C89.7643 111.277 89.8126 111.482 89.9308 111.648C90.0022 111.746 90.0959 111.826 90.2042 111.881C90.3124 111.935 90.4321 111.964 90.5534 111.964C90.7132 111.965 90.8691 111.914 90.9969 111.819Z" fill="#321951"/>
<path d="M106.562 114.216L97.1805 120.885C97.0486 120.98 96.9503 121.115 96.8998 121.269C96.8493 121.424 96.8492 121.591 96.8994 121.745C96.9497 121.9 97.0478 122.035 97.1796 122.13C97.3113 122.225 97.4699 122.276 97.6325 122.276C97.7883 122.277 97.9407 122.23 98.0675 122.139L107.449 115.469C107.532 115.412 107.603 115.339 107.658 115.254C107.712 115.17 107.749 115.075 107.767 114.976C107.784 114.876 107.782 114.775 107.759 114.676C107.737 114.578 107.696 114.485 107.637 114.403C107.519 114.237 107.339 114.124 107.138 114.089C106.937 114.054 106.73 114.099 106.562 114.216Z" fill="#321951"/>
<path d="M106.912 105.754L90.519 117.482C90.4364 117.54 90.3662 117.615 90.3124 117.7C90.2587 117.786 90.2224 117.882 90.2058 117.982C90.1891 118.082 90.1924 118.184 90.2154 118.282C90.2384 118.381 90.2807 118.474 90.3399 118.556C90.4094 118.657 90.5025 118.739 90.611 118.796C90.7195 118.852 90.8402 118.881 90.9625 118.88C91.1218 118.879 91.2768 118.829 91.406 118.735L107.799 107.016C107.902 106.971 107.994 106.903 108.068 106.818C108.142 106.733 108.196 106.633 108.227 106.524C108.258 106.416 108.264 106.302 108.246 106.191C108.228 106.08 108.185 105.974 108.122 105.881C108.058 105.788 107.975 105.71 107.877 105.653C107.78 105.596 107.672 105.561 107.56 105.55C107.447 105.54 107.334 105.554 107.228 105.592C107.122 105.631 107.026 105.692 106.946 105.771L106.912 105.754Z" fill="#321951"/>
<path d="M203.623 187.89C203.621 188.229 203.686 188.565 203.815 188.878C203.944 189.191 204.134 189.476 204.374 189.715C204.865 190.195 205.521 190.47 206.207 190.483H206.259C206.934 190.488 207.584 190.231 208.074 189.767C208.564 189.303 208.855 188.667 208.886 187.992C208.89 187.653 208.826 187.317 208.697 187.003C208.568 186.689 208.377 186.405 208.135 186.167C207.887 185.921 207.593 185.726 207.269 185.595C206.946 185.463 206.599 185.397 206.25 185.4C205.575 185.394 204.924 185.651 204.435 186.115C203.945 186.58 203.654 187.216 203.623 187.89ZM207.035 187.259C207.129 187.349 207.204 187.458 207.255 187.578C207.306 187.698 207.333 187.828 207.333 187.958C207.314 188.232 207.189 188.488 206.986 188.672C206.782 188.856 206.516 188.955 206.242 188.948V189.707V188.948C205.951 188.944 205.672 188.828 205.465 188.623C205.372 188.533 205.297 188.424 205.246 188.304C205.194 188.184 205.168 188.055 205.167 187.924C205.191 187.716 205.274 187.52 205.404 187.357C205.535 187.193 205.709 187.07 205.906 187.001C206.103 186.932 206.316 186.919 206.52 186.965C206.724 187.01 206.911 187.112 207.06 187.259H207.035Z" fill="#321951"/>
<path d="M151.435 13.8427C152.117 13.8446 152.783 13.645 153.351 13.2692C153.919 12.8935 154.362 12.3584 154.624 11.7319C154.886 11.1054 154.955 10.4155 154.823 9.74961C154.692 9.08371 154.364 8.47175 153.883 7.99118C153.402 7.51061 152.788 7.18305 152.12 7.04997C151.451 6.91689 150.758 6.98428 150.128 7.24359C149.498 7.5029 148.96 7.94248 148.581 8.50669C148.202 9.07089 148 9.73435 148 10.4131C148.002 11.3203 148.365 12.1899 149.008 12.8323C149.652 13.4747 150.524 13.8379 151.435 13.8427Z" fill="#321951"/>
<path d="M161.473 13.1272C162.019 13.1272 162.553 12.9658 163.008 12.6635C163.462 12.3612 163.816 11.9316 164.025 11.4289C164.234 10.9262 164.289 10.373 164.182 9.83937C164.076 9.30571 163.813 8.81552 163.426 8.43077C163.04 8.04603 162.548 7.78401 162.012 7.67786C161.476 7.57171 160.92 7.62619 160.415 7.83441C159.911 8.04264 159.479 8.39525 159.176 8.84766C158.872 9.30008 158.71 9.83197 158.71 10.3761C158.71 11.1057 159.001 11.8055 159.519 12.3214C160.037 12.8373 160.74 13.1272 161.473 13.1272Z" fill="#321951"/>
</g>
<defs>
<clipPath id="clip0_2051_111763">
<rect width="309" height="208.033" fill="white" transform="translate(0 0.983398)"/>
</clipPath>
</defs>
</svg>
