<svg width="235" height="208" viewBox="0 0 235 208" fill="none" xmlns="http://www.w3.org/2000/svg">
<g clip-path="url(#clip0_741_58099)">
<path d="M179.299 128.677C179.718 128.619 180.141 128.589 180.564 128.585C181.123 128.586 181.681 128.632 182.232 128.723L184.496 129.099L185.871 120.736C186.426 117.412 188.275 114.445 191.012 112.482C192.361 111.503 193.891 110.801 195.513 110.418C197.135 110.036 198.817 109.98 200.461 110.254L201.066 110.346C202.716 110.62 204.296 111.218 205.716 112.104C207.135 112.991 208.365 114.149 209.337 115.511C210.308 116.874 211.001 118.416 211.376 120.047C211.752 121.678 211.802 123.368 211.523 125.018L210.149 133.381L212.412 133.757C213.39 133.924 214.338 134.233 215.226 134.674L216.665 125.889C217.434 121.197 216.562 116.35 213.796 112.482C211.03 108.615 206.569 105.786 201.881 105L201.066 105C197.958 104.508 194.739 104.79 191.8 105.917C188.861 107.043 185.994 108.975 184.01 111.419C182.01 113.843 181.248 116.91 180.738 120.011L179.299 128.677Z" fill="#8B6FE2"/>
<path d="M212.275 134.592L182.086 129.631C180.874 129.428 179.634 129.467 178.437 129.746C177.24 130.025 176.11 130.538 175.113 131.255C174.115 131.973 173.269 132.881 172.624 133.928C171.979 134.974 171.547 136.138 171.353 137.352L166.606 166.284C166.201 168.731 166.783 171.238 168.225 173.256C169.667 175.273 171.85 176.634 174.295 177.041L204.485 182.002C204.981 182.086 205.484 182.129 205.988 182.13C208.199 182.11 210.333 181.313 212.017 179.878C213.701 178.443 214.827 176.462 215.199 174.281L219.964 145.349C220.162 144.136 220.118 142.896 219.837 141.701C219.555 140.505 219.041 139.376 218.324 138.379C217.617 137.378 216.718 136.527 215.68 135.877C214.641 135.227 213.484 134.79 212.275 134.592ZM170.244 160.461C170.228 160.59 170.165 160.708 170.067 160.793C169.969 160.878 169.842 160.923 169.713 160.92H169.658C169.586 160.909 169.518 160.883 169.456 160.845C169.395 160.807 169.342 160.757 169.3 160.698C169.258 160.639 169.228 160.572 169.213 160.502C169.197 160.431 169.196 160.358 169.209 160.287L171.729 144.918C171.741 144.847 171.767 144.78 171.805 144.719C171.843 144.659 171.893 144.606 171.951 144.565C172.009 144.524 172.075 144.494 172.145 144.479C172.214 144.463 172.286 144.461 172.357 144.473C172.427 144.485 172.495 144.511 172.555 144.549C172.616 144.587 172.668 144.636 172.709 144.695C172.75 144.753 172.78 144.819 172.796 144.889C172.811 144.958 172.813 145.03 172.801 145.101L170.244 160.461ZM174.149 156.114C174.129 156.243 174.063 156.36 173.964 156.445C173.864 156.529 173.738 156.574 173.608 156.573H173.535C173.462 156.563 173.393 156.538 173.33 156.501C173.268 156.463 173.213 156.414 173.17 156.354C173.128 156.295 173.097 156.228 173.081 156.157C173.065 156.086 173.063 156.012 173.076 155.94L173.993 150.3C174.02 150.156 174.102 150.029 174.222 149.945C174.342 149.861 174.49 149.827 174.634 149.851C174.706 149.862 174.775 149.888 174.837 149.925C174.899 149.963 174.953 150.013 174.995 150.072C175.038 150.131 175.068 150.198 175.085 150.268C175.102 150.339 175.104 150.412 175.093 150.484L174.149 156.114ZM198.592 153.739C198.431 154.787 197.932 155.753 197.171 156.49L198.088 165.661C198.096 165.725 198.096 165.789 198.088 165.853C198.085 165.952 198.053 166.048 197.996 166.128V166.403H197.721C197.648 166.416 197.574 166.416 197.501 166.403H197.382L185.971 164.478C185.869 164.464 185.773 164.419 185.697 164.349L185.394 164.294L185.522 164.01C185.49 163.915 185.49 163.812 185.522 163.717L189.344 155.179C188.965 154.429 188.783 153.594 188.816 152.754C188.85 151.914 189.097 151.097 189.535 150.379C189.973 149.662 190.587 149.068 191.319 148.655C192.051 148.241 192.876 148.022 193.716 148.017C193.98 148.02 194.243 148.041 194.504 148.081C195.142 148.186 195.753 148.416 196.301 148.757C196.85 149.099 197.327 149.545 197.703 150.071C198.088 150.592 198.366 151.185 198.518 151.815C198.671 152.445 198.696 153.099 198.592 153.739ZM209.461 171.722C209.44 171.85 209.374 171.966 209.275 172.05C209.176 172.134 209.05 172.18 208.921 172.181H208.82C208.676 172.156 208.547 172.076 208.462 171.958C208.376 171.839 208.34 171.692 208.361 171.548L209.122 166.963C209.133 166.891 209.158 166.823 209.196 166.761C209.235 166.7 209.284 166.646 209.343 166.604C209.402 166.563 209.469 166.533 209.54 166.517C209.61 166.502 209.683 166.5 209.755 166.514C209.898 166.538 210.027 166.618 210.112 166.737C210.198 166.855 210.234 167.002 210.213 167.146L209.461 171.722ZM212.257 175.179C212.239 175.309 212.173 175.427 212.074 175.512C211.974 175.597 211.847 175.641 211.716 175.638H211.633C211.49 175.613 211.361 175.533 211.276 175.415C211.19 175.297 211.154 175.15 211.175 175.005L214.053 157.453C214.078 157.308 214.159 157.178 214.279 157.092C214.399 157.006 214.549 156.971 214.694 156.995C214.838 157.019 214.965 157.1 215.049 157.218C215.134 157.337 215.167 157.484 215.144 157.628L212.257 175.179Z" fill="#8B6FE2"/>
<path d="M44.0979 61.7162L39.3962 68.0162L54.7659 87.9065L70.6763 54.7285L64.7465 50.7119L53.9869 73.2341C53.9472 73.32 53.8857 73.394 53.8085 73.4488C53.7313 73.5035 53.6411 73.5369 53.5469 73.5459C53.4534 73.5552 53.359 73.5408 53.2725 73.5039C53.186 73.467 53.1102 73.4089 53.052 73.335L44.0979 61.7162Z" fill="#8B6FE2"/>
<path d="M94.9999 71.7202V33.4069C94.9974 33.0325 94.8611 32.6715 94.6157 32.3889C94.3703 32.1064 94.032 31.921 93.6619 31.8662C89.7151 31.1763 85.8315 30.1642 82.0499 28.8401H81.9949C73.893 26.0156 63.6649 20.8803 56.2688 11.7742C56.1308 11.5921 55.9538 11.4433 55.7508 11.3385C55.5478 11.2338 55.324 11.1759 55.0957 11.169C54.86 11.1681 54.6273 11.2204 54.4146 11.3221C54.202 11.4237 54.015 11.5719 53.8676 11.7559C41.6873 26.6484 22.1476 30.9125 16.447 31.8571C16.0743 31.9134 15.7336 32.0999 15.4853 32.3836C15.237 32.6673 15.0972 33.0298 15.0906 33.4069V71.7202C15.0906 72.0687 15.3564 106.375 55.059 125.256C75.7535 115.407 85.5142 101.414 90.0509 91.3996C94.9999 80.4962 94.9999 71.8028 94.9999 71.7202ZM55.2973 121.24C55.2232 121.276 55.1416 121.295 55.059 121.295C54.9733 121.297 54.8883 121.278 54.8116 121.24C19.0682 103.275 18.5824 72.9949 18.5824 71.7202V35.461C18.582 35.3338 18.6256 35.2105 18.7058 35.1118C18.786 35.0132 18.8978 34.9454 19.0223 34.9199C25.8044 33.5536 42.8513 28.9868 54.6466 16.1301C54.7544 16.0248 54.8992 15.9658 55.0498 15.9658C55.2005 15.9658 55.3453 16.0248 55.4531 16.1301C67.3126 28.9684 84.3044 33.5536 91.0773 34.9291C91.2019 34.9545 91.3137 35.0223 91.3939 35.121C91.4741 35.2196 91.5177 35.343 91.5173 35.4702V71.7202C91.5173 72.9949 91.0773 103.293 55.2973 121.258V121.24Z" fill="#8B6FE2"/>
<path d="M165.699 166.138L170.446 137.206C170.795 135.19 171.73 133.321 173.136 131.835C174.541 130.349 176.354 129.311 178.346 128.852L179.831 119.746C180.358 116.578 181.686 113.598 183.689 111.089C183.684 111.04 183.684 110.991 183.689 110.942V14.1866C183.688 12.4654 183.348 10.7613 182.688 9.17175C182.028 7.58223 181.061 6.1385 179.843 4.92311C178.625 3.70773 177.18 2.74454 175.589 2.08864C173.999 1.43274 172.295 1.097 170.574 1.10061H162.381C161.917 1.10059 161.473 1.28357 161.143 1.60981C160.814 1.93605 160.626 2.37919 160.621 2.84297V4.75955C160.619 6.10778 160.082 7.39996 159.128 8.35244C158.175 9.30493 156.882 9.83988 155.535 9.83988H110.929C109.58 9.8399 108.285 9.30553 107.329 8.35357C106.372 7.4016 105.831 6.10946 105.824 4.75955V2.85214C105.823 2.62212 105.776 2.3946 105.687 2.18255C105.598 1.97051 105.468 1.7781 105.305 1.6163C105.141 1.45451 104.948 1.3265 104.735 1.2396C104.522 1.15269 104.294 1.10858 104.064 1.10979H95.8708C92.4021 1.11221 89.076 2.49139 86.6224 4.9447C84.1688 7.39801 82.7881 10.725 82.7832 14.1958V27.9512C86.3876 29.1967 90.0871 30.1474 93.8453 30.7939C94.472 30.894 95.0427 31.2135 95.4557 31.6956C95.8686 32.1777 96.097 32.7909 96.0999 33.4258V71.7208C96.0999 71.9593 95.9899 88.5941 82.7832 105.211V193.805C82.7881 197.276 84.1685 200.604 86.6218 203.059C89.0752 205.514 92.4012 206.895 95.8708 206.9H170.574C174.042 206.895 177.366 205.513 179.817 203.058C182.267 200.603 183.644 197.274 183.644 193.805V179.508L174.13 177.949C171.449 177.498 169.056 176.001 167.475 173.787C165.895 171.573 165.256 168.822 165.699 166.138ZM113.614 16.9377H158.926C159.072 16.9377 159.211 16.9956 159.315 17.0988C159.418 17.202 159.476 17.342 159.476 17.4879C159.476 17.6338 159.418 17.7738 159.315 17.8769C159.211 17.9801 159.072 18.0381 158.926 18.0381H113.614C113.468 18.0381 113.328 17.9801 113.225 17.8769C113.122 17.7738 113.064 17.6338 113.064 17.4879C113.064 17.342 113.122 17.202 113.225 17.0988C113.328 16.9956 113.468 16.9377 113.614 16.9377ZM142.676 21.5778C142.677 21.6496 142.664 21.721 142.638 21.7877C142.611 21.8544 142.571 21.9151 142.521 21.9663C142.471 22.0176 142.411 22.0582 142.345 22.086C142.278 22.1138 142.207 22.128 142.136 22.128H130.404C130.331 22.1293 130.259 22.1159 130.191 22.0888C130.123 22.0617 130.062 22.0214 130.01 21.9702C129.958 21.9189 129.916 21.8579 129.888 21.7905C129.86 21.7232 129.845 21.6509 129.845 21.5778C129.848 21.4311 129.908 21.2911 130.012 21.1882C130.117 21.0853 130.258 21.0276 130.404 21.0276H142.163C142.303 21.0347 142.435 21.0961 142.531 21.1988C142.627 21.3015 142.679 21.4374 142.676 21.5778ZM158.926 201.462H111.763C111.617 201.462 111.477 201.404 111.374 201.301C111.271 201.197 111.213 201.057 111.213 200.912C111.213 200.766 111.271 200.626 111.374 200.523C111.477 200.419 111.617 200.361 111.763 200.361H158.926C159.072 200.361 159.211 200.419 159.315 200.523C159.418 200.626 159.476 200.766 159.476 200.912C159.476 201.057 159.418 201.197 159.315 201.301C159.211 201.404 159.072 201.462 158.926 201.462ZM117.473 196.647C117.473 196.501 117.531 196.362 117.634 196.258C117.737 196.155 117.877 196.097 118.023 196.097H125.978C126.05 196.097 126.121 196.111 126.188 196.139C126.255 196.167 126.315 196.207 126.367 196.258C126.418 196.309 126.458 196.37 126.486 196.437C126.513 196.504 126.528 196.575 126.528 196.647C126.528 196.72 126.513 196.791 126.486 196.858C126.458 196.925 126.418 196.985 126.367 197.036C126.315 197.088 126.255 197.128 126.188 197.156C126.121 197.183 126.05 197.198 125.978 197.198H118.023C117.877 197.198 117.737 197.14 117.634 197.036C117.531 196.933 117.473 196.793 117.473 196.647ZM132.237 196.647C132.237 196.501 132.295 196.362 132.398 196.258C132.502 196.155 132.641 196.097 132.787 196.097H145.279C145.351 196.097 145.423 196.111 145.49 196.139C145.556 196.167 145.617 196.207 145.668 196.258C145.719 196.309 145.76 196.37 145.787 196.437C145.815 196.504 145.829 196.575 145.829 196.647C145.829 196.72 145.815 196.791 145.787 196.858C145.76 196.925 145.719 196.985 145.668 197.036C145.617 197.088 145.556 197.128 145.49 197.156C145.423 197.183 145.351 197.198 145.279 197.198H132.787C132.641 197.198 132.502 197.14 132.398 197.036C132.295 196.933 132.237 196.793 132.237 196.647ZM133.227 142.873C125.543 142.873 118.032 140.593 111.643 136.322C105.254 132.05 100.275 125.979 97.3342 118.876C94.3937 111.773 93.6243 103.957 95.1234 96.4165C96.6224 88.8759 100.323 81.9494 105.756 76.513C111.189 71.0765 118.112 67.3743 125.648 65.8744C133.184 64.3744 140.996 65.1442 148.095 68.0864C155.194 71.0286 161.261 76.011 165.53 82.4036C169.799 88.7962 172.077 96.3119 172.077 104C172.063 114.305 167.965 124.184 160.682 131.471C153.4 138.758 143.526 142.858 133.227 142.873Z" fill="#F1E6FF"/>
<path d="M161.538 128.604C156.955 119.094 144.72 119.736 142.181 119.975V120.708C142.279 121.968 142.115 123.235 141.7 124.429C141.286 125.623 140.628 126.719 139.77 127.646C138.912 128.574 137.872 129.314 136.714 129.821C135.557 130.327 134.307 130.588 133.044 130.588C131.78 130.588 130.531 130.327 129.373 129.821C128.215 129.314 127.175 128.574 126.317 127.646C125.459 126.719 124.802 125.623 124.387 124.429C123.972 123.235 123.808 121.968 123.906 120.708C123.906 120.708 123.906 120.424 123.952 119.965C121.4 119.736 118.829 119.853 116.308 120.314C110.635 121.396 106.685 124.175 104.568 128.567C108.092 132.689 112.463 136.001 117.383 138.278C122.304 140.555 127.657 141.743 133.077 141.762C138.498 141.78 143.859 140.628 148.795 138.384C153.73 136.14 158.123 132.857 161.675 128.76C161.623 128.713 161.577 128.661 161.538 128.604Z" fill="#00DA9C"/>
<path d="M133.053 128.76C135.185 128.757 137.229 127.91 138.737 126.402C140.245 124.895 141.095 122.851 141.1 120.718V117.801C139.976 118.255 138.775 118.489 137.562 118.489C135.209 118.416 132.9 117.828 130.798 116.765C130.685 116.694 130.602 116.584 130.564 116.456C130.526 116.327 130.536 116.19 130.592 116.068C130.649 115.947 130.747 115.85 130.869 115.796C130.992 115.742 131.129 115.735 131.257 115.775C135.683 117.829 139.34 117.921 142.108 116.041C149 111.382 148.936 96.1046 148.853 93.0692C145.725 93.7031 142.497 93.6593 139.386 92.9408C136.447 92.299 133.601 91.2852 130.918 89.9238C130.835 94.9675 130.001 98.1037 128.571 99.2592C128.383 99.4278 128.159 99.5516 127.916 99.6215C127.674 99.6913 127.418 99.7054 127.169 99.6627C127.082 99.6449 127.001 99.6052 126.934 99.5474C126.867 99.4897 126.815 99.4157 126.784 99.3325L126.674 99.0666C126.264 98.3044 125.579 97.7272 124.759 97.4526C124.071 97.1648 123.298 97.1571 122.605 97.4312C121.911 97.7052 121.352 98.2394 121.047 98.9199C120.945 99.2471 120.915 99.5924 120.957 99.9325C121 100.273 121.115 100.6 121.294 100.891C121.71 101.577 122.362 102.086 123.127 102.322C123.909 102.598 124.765 102.572 125.529 102.249C125.608 102.178 125.706 102.131 125.811 102.115C125.916 102.099 126.024 102.113 126.121 102.157C126.218 102.201 126.3 102.272 126.358 102.361C126.415 102.451 126.446 102.555 126.445 102.661C125.95 108.787 125.034 120.433 125.025 120.745C125.032 122.872 125.881 124.909 127.385 126.411C128.89 127.913 130.928 128.758 133.053 128.76ZM146.379 99.6535C146.345 100.237 146.169 100.804 145.866 101.304C145.747 101.528 145.568 101.714 145.35 101.842C145.131 101.97 144.882 102.034 144.628 102.029C144.565 102.04 144.5 102.04 144.436 102.029C143.675 101.809 143.208 100.708 143.327 99.4242C143.446 97.9937 144.198 96.9666 145.077 97.04C145.957 97.1133 146.498 98.2504 146.379 99.6535ZM143.254 95.536C143.473 95.2165 143.769 94.9579 144.115 94.7846C144.462 94.6114 144.846 94.5291 145.233 94.5456C145.619 94.5744 145.991 94.7027 146.312 94.9181C146.633 95.1335 146.893 95.4285 147.066 95.7745C147.134 95.9034 147.148 96.054 147.105 96.1933C147.062 96.3325 146.966 96.449 146.837 96.5173C146.756 96.5528 146.669 96.5716 146.581 96.5723C146.479 96.5738 146.379 96.5473 146.292 96.4955C146.204 96.4437 146.133 96.3687 146.086 96.2788C146 96.0986 145.867 95.9447 145.702 95.8331C145.536 95.7214 145.344 95.6562 145.145 95.644C144.945 95.6318 144.747 95.6732 144.569 95.7639C144.391 95.8546 144.241 95.9912 144.134 96.1596C144.05 96.2781 143.924 96.3589 143.781 96.3847C143.639 96.4104 143.492 96.379 143.373 96.2972C143.315 96.2553 143.265 96.2024 143.228 96.1413C143.19 96.0803 143.165 96.0123 143.154 95.9415C143.143 95.8707 143.146 95.7984 143.163 95.7288C143.18 95.6592 143.211 95.5937 143.254 95.536ZM135.518 98.6998C135.473 99.2828 135.295 99.8477 134.996 100.35C134.878 100.571 134.702 100.754 134.487 100.882C134.272 101.01 134.027 101.076 133.777 101.075H133.575C132.824 100.855 132.357 99.7544 132.448 98.4705C132.586 97.04 133.365 96.0129 134.199 96.0862C135.033 96.1596 135.638 97.2967 135.518 98.6998ZM140.578 111.41C140.373 111.709 140.1 111.955 139.781 112.127C139.462 112.3 139.107 112.393 138.745 112.4H138.625C138.24 112.371 137.869 112.242 137.548 112.027C137.227 111.811 136.966 111.517 136.792 111.171C136.729 111.042 136.718 110.893 136.76 110.755C136.803 110.617 136.896 110.5 137.021 110.429C137.153 110.361 137.306 110.348 137.446 110.393C137.587 110.437 137.705 110.536 137.773 110.667C137.859 110.842 137.988 110.993 138.149 111.103C138.309 111.214 138.495 111.282 138.69 111.3C138.886 111.306 139.081 111.263 139.256 111.173C139.43 111.083 139.579 110.95 139.689 110.786C139.77 110.666 139.896 110.584 140.039 110.556C140.181 110.529 140.329 110.559 140.449 110.639C140.567 110.726 140.646 110.855 140.67 110.999C140.694 111.142 140.661 111.29 140.578 111.41ZM136.838 105.908L139.45 106.724L139.643 100.305C139.641 100.233 139.655 100.161 139.682 100.095C139.71 100.029 139.75 99.9688 139.802 99.9189C139.854 99.869 139.915 99.8302 139.982 99.8051C140.049 99.7799 140.121 99.7689 140.193 99.7727C140.266 99.7739 140.338 99.7896 140.405 99.8189C140.471 99.8483 140.532 99.8906 140.582 99.9435C140.632 99.9965 140.672 100.059 140.698 100.127C140.724 100.195 140.736 100.268 140.733 100.341L140.523 107.485C140.519 107.569 140.496 107.652 140.457 107.726C140.417 107.801 140.361 107.866 140.293 107.916C140.197 107.985 140.081 108.02 139.963 108.017H139.817L136.517 106.99C136.378 106.943 136.262 106.845 136.194 106.715C136.126 106.585 136.11 106.434 136.151 106.293C136.169 106.221 136.201 106.154 136.246 106.095C136.29 106.036 136.347 105.986 136.411 105.949C136.475 105.912 136.546 105.889 136.619 105.88C136.693 105.872 136.767 105.878 136.838 105.898V105.908ZM132.393 94.5915C132.604 94.2682 132.896 94.0064 133.241 93.8325C133.585 93.6586 133.969 93.5788 134.354 93.6011C134.739 93.6298 135.11 93.7572 135.431 93.9708C135.752 94.1844 136.012 94.4771 136.187 94.8208C136.222 94.8843 136.244 94.9543 136.251 95.0264C136.259 95.0985 136.252 95.1714 136.23 95.2407C136.209 95.31 136.174 95.3743 136.127 95.4297C136.08 95.4852 136.023 95.5307 135.958 95.5635C135.877 95.6082 135.785 95.6303 135.693 95.6277C135.594 95.627 135.497 95.5992 135.413 95.5475C135.329 95.4958 135.261 95.422 135.216 95.3343C135.129 95.1543 134.995 95.0007 134.829 94.8894C134.663 94.7781 134.47 94.713 134.27 94.7009C134.071 94.6888 133.871 94.73 133.693 94.8203C133.514 94.9107 133.363 95.0469 133.255 95.2151C133.213 95.275 133.161 95.3262 133.1 95.3656C133.038 95.405 132.97 95.4319 132.898 95.4447C132.827 95.4574 132.753 95.4559 132.682 95.4401C132.611 95.4243 132.544 95.3946 132.485 95.3526C132.427 95.3087 132.379 95.2537 132.344 95.1909C132.308 95.128 132.285 95.0587 132.276 94.9868C132.268 94.915 132.274 94.8422 132.294 94.7728C132.314 94.7033 132.348 94.6385 132.393 94.5823V94.5915Z" fill="#FDC8B4"/>
<path d="M55.0957 17.2949C43.2912 29.8032 26.7576 34.4342 19.6731 35.9106V71.7296C19.6731 72.9768 20.113 102.478 55.059 120.149C89.9776 102.478 90.4175 72.9676 90.4175 71.7205V35.9564C83.3513 34.4433 66.836 29.8215 55.0957 17.2949ZM64.1415 49.5651C64.2035 49.4731 64.2917 49.402 64.3948 49.3611C64.4978 49.3202 64.6108 49.3114 64.7189 49.3358C64.7583 49.3437 64.7956 49.3593 64.8289 49.3817C64.8756 49.3986 64.919 49.4234 64.9572 49.4551L71.7393 54.0402C71.8501 54.1135 71.9306 54.2245 71.966 54.3526C72.0014 54.4807 71.9892 54.6173 71.9318 54.7371L55.4348 89.1623C55.3937 89.2472 55.3318 89.3203 55.2549 89.3748C55.178 89.4293 55.0885 89.4634 54.9949 89.4741H54.9399C54.8556 89.4732 54.7726 89.4538 54.6966 89.4174C54.6206 89.381 54.5535 89.3283 54.5 89.2632L38.2688 68.355C38.1974 68.2597 38.1588 68.1439 38.1588 68.0248C38.1588 67.9058 38.1974 67.79 38.2688 67.6947L43.6762 60.4777C43.7444 60.384 43.8409 60.3147 43.9514 60.2801C44.062 60.2454 44.1807 60.2472 44.2902 60.2851C44.4103 60.3323 44.5127 60.4156 44.5835 60.5236L53.391 71.9222L64.0499 49.7393C64.0592 49.6846 64.0778 49.6319 64.1049 49.5834L64.1415 49.5651Z" fill="#FBC22D"/>
<path d="M157.918 75.4526C150.796 69.2852 141.625 66.0068 132.21 66.2619C122.795 66.517 113.815 70.2871 107.037 76.831C100.259 83.375 96.1733 92.2192 95.5824 101.625C94.9915 111.031 97.9386 120.317 103.844 127.659C108.885 118.003 121.459 118.635 124.08 118.883C124.236 116.911 124.502 113.546 124.786 109.832C124.756 109.842 124.724 109.842 124.694 109.832C119.012 107.704 115.3 104.541 113.697 100.442C112.419 96.978 112.478 93.1623 113.861 89.7398C113.119 89.4009 112.278 89.3455 111.497 89.584C111.394 89.6339 111.279 89.6518 111.166 89.6353C111.053 89.6189 110.948 89.5688 110.864 89.4916C110.78 89.4145 110.721 89.3138 110.695 89.2027C110.669 89.0916 110.677 88.9752 110.718 88.8687C113.614 82.5045 117.308 78.598 121.716 77.2683C124.71 76.3977 127.923 76.6959 130.707 78.1028C131.902 76.2057 133.74 74.8027 135.885 74.1504C138.057 73.6185 140.348 74.1504 142.685 75.7369C149.742 80.4962 155.718 77.4884 155.773 77.4609C155.856 77.4214 155.947 77.3995 156.039 77.3967C156.122 77.4006 156.203 77.4225 156.277 77.4609C156.358 77.5015 156.427 77.5611 156.48 77.6345C156.533 77.708 156.567 77.7932 156.579 77.8827C157.322 83.88 154.325 86.5578 152.721 87.5298C153.7 88.1003 154.848 88.3112 155.965 88.1259C156.083 88.0965 156.206 88.1066 156.317 88.1546C156.428 88.2027 156.521 88.2861 156.579 88.3918C156.637 88.5 156.657 88.6242 156.637 88.7451C156.618 88.8661 156.559 88.9771 156.469 89.0612C154.616 90.8327 152.361 92.129 149.898 92.8394C150.008 95.3612 150.356 111.813 142.685 116.994C142.511 117.107 142.33 117.211 142.145 117.306V118.92C145.004 118.663 157.496 118.168 162.381 127.952C168.62 120.351 171.642 110.61 170.801 100.809C169.96 91.0083 165.324 81.925 157.881 75.4984L157.918 75.4526Z" fill="#FBC22D"/>
<path d="M214.695 156.995C214.549 156.971 214.399 157.006 214.279 157.092C214.159 157.177 214.078 157.307 214.053 157.453L211.175 175.023C211.154 175.168 211.19 175.315 211.276 175.433C211.361 175.551 211.49 175.631 211.633 175.656H211.716C211.847 175.66 211.974 175.615 212.074 175.53C212.174 175.446 212.239 175.327 212.257 175.198L215.144 157.6C215.16 157.461 215.122 157.321 215.039 157.208C214.955 157.096 214.832 157.019 214.695 156.995Z" fill="#321951"/>
<path d="M209.754 166.532C209.683 166.519 209.61 166.521 209.54 166.536C209.469 166.552 209.402 166.581 209.343 166.623C209.284 166.665 209.234 166.719 209.196 166.78C209.158 166.842 209.133 166.91 209.122 166.982L208.361 171.567C208.34 171.711 208.376 171.858 208.462 171.977C208.547 172.095 208.676 172.175 208.82 172.2H208.92C209.05 172.199 209.176 172.153 209.275 172.069C209.373 171.985 209.44 171.869 209.461 171.741L210.213 167.156C210.231 167.013 210.194 166.868 210.109 166.752C210.023 166.636 209.896 166.557 209.754 166.532Z" fill="#321951"/>
<path d="M194.541 148.082C194.28 148.042 194.016 148.02 193.752 148.018C192.912 148.022 192.087 148.242 191.355 148.655C190.624 149.068 190.01 149.662 189.572 150.38C189.134 151.097 188.886 151.915 188.853 152.755C188.82 153.595 189.001 154.429 189.381 155.18L185.559 163.717C185.527 163.812 185.527 163.915 185.559 164.011L185.431 164.295L185.733 164.35C185.81 164.419 185.906 164.464 186.008 164.478L197.473 166.367H197.593C197.665 166.38 197.74 166.38 197.813 166.367H198.087V166.092C198.145 166.012 198.177 165.916 198.179 165.817C198.188 165.753 198.188 165.688 198.179 165.624L197.263 156.454C198.109 155.629 198.632 154.528 198.736 153.35C198.84 152.172 198.519 150.996 197.831 150.035C197.441 149.506 196.949 149.06 196.384 148.725C195.818 148.389 195.192 148.171 194.541 148.082Z" fill="#321951"/>
<path d="M174.634 149.843C174.49 149.818 174.342 149.852 174.222 149.936C174.102 150.02 174.02 150.148 173.993 150.292L173.076 155.932C173.063 156.003 173.065 156.077 173.081 156.148C173.097 156.22 173.128 156.287 173.171 156.346C173.213 156.405 173.268 156.455 173.33 156.492C173.393 156.53 173.462 156.554 173.535 156.564H173.608C173.738 156.566 173.864 156.52 173.964 156.436C174.063 156.352 174.129 156.235 174.149 156.106L175.065 150.466C175.087 150.327 175.054 150.184 174.974 150.068C174.894 149.952 174.772 149.871 174.634 149.843Z" fill="#321951"/>
<path d="M172.316 144.469C172.245 144.456 172.173 144.457 172.103 144.473C172.032 144.489 171.966 144.518 171.908 144.56C171.85 144.602 171.801 144.656 171.764 144.717C171.727 144.779 171.702 144.847 171.692 144.918L169.172 160.288C169.159 160.359 169.16 160.432 169.176 160.502C169.191 160.573 169.221 160.64 169.263 160.699C169.305 160.758 169.358 160.808 169.42 160.846C169.481 160.884 169.55 160.909 169.621 160.92H169.713C169.842 160.924 169.969 160.878 170.067 160.794C170.165 160.709 170.228 160.591 170.244 160.462L172.765 145.102C172.779 145.03 172.779 144.957 172.764 144.886C172.749 144.815 172.719 144.747 172.677 144.688C172.635 144.629 172.581 144.579 172.519 144.541C172.457 144.503 172.388 144.479 172.316 144.469Z" fill="#321951"/>
<path d="M113.614 18.0379H158.926C159.072 18.0379 159.211 17.98 159.315 17.8768C159.418 17.7736 159.476 17.6336 159.476 17.4877C159.476 17.3418 159.418 17.2018 159.315 17.0987C159.211 16.9955 159.072 16.9375 158.926 16.9375H113.614C113.468 16.9375 113.328 16.9955 113.225 17.0987C113.122 17.2018 113.064 17.3418 113.064 17.4877C113.064 17.6336 113.122 17.7736 113.225 17.8768C113.328 17.98 113.468 18.0379 113.614 18.0379Z" fill="#321951"/>
<path d="M158.926 200.361H111.763C111.617 200.361 111.477 200.419 111.374 200.522C111.271 200.626 111.213 200.766 111.213 200.912C111.213 201.057 111.271 201.197 111.374 201.301C111.477 201.404 111.617 201.462 111.763 201.462H158.926C159.072 201.462 159.211 201.404 159.315 201.301C159.418 201.197 159.476 201.057 159.476 200.912C159.476 200.766 159.418 200.626 159.315 200.522C159.211 200.419 159.072 200.361 158.926 200.361Z" fill="#321951"/>
<path d="M145.279 197.197C145.351 197.197 145.423 197.183 145.489 197.155C145.556 197.128 145.617 197.087 145.668 197.036C145.719 196.985 145.759 196.924 145.787 196.857C145.815 196.791 145.829 196.719 145.829 196.647C145.829 196.575 145.815 196.503 145.787 196.436C145.759 196.37 145.719 196.309 145.668 196.258C145.617 196.207 145.556 196.166 145.489 196.139C145.423 196.111 145.351 196.097 145.279 196.097H132.787C132.715 196.097 132.643 196.111 132.577 196.139C132.51 196.166 132.449 196.207 132.398 196.258C132.347 196.309 132.307 196.37 132.279 196.436C132.252 196.503 132.237 196.575 132.237 196.647C132.237 196.719 132.252 196.791 132.279 196.857C132.307 196.924 132.347 196.985 132.398 197.036C132.449 197.087 132.51 197.128 132.577 197.155C132.643 197.183 132.715 197.197 132.787 197.197H145.279Z" fill="#321951"/>
<path d="M145.077 97.0028C144.161 96.9295 143.446 97.9199 143.327 99.3871C143.208 100.671 143.675 101.771 144.436 101.991C144.499 102.003 144.565 102.003 144.628 101.991C144.881 101.997 145.131 101.933 145.35 101.805C145.568 101.677 145.747 101.491 145.866 101.267C146.169 100.767 146.345 100.2 146.379 99.6164C146.498 98.25 145.921 97.0762 145.077 97.0028Z" fill="#321951"/>
<path d="M144.161 96.159C144.268 95.9906 144.418 95.854 144.596 95.7633C144.774 95.6726 144.973 95.6312 145.172 95.6434C145.371 95.6556 145.564 95.7208 145.729 95.8325C145.894 95.9441 146.027 96.098 146.113 96.2782C146.16 96.3681 146.232 96.4431 146.319 96.4949C146.406 96.5467 146.506 96.5732 146.608 96.5717C146.696 96.571 146.784 96.5522 146.865 96.5166C146.993 96.4484 147.09 96.3319 147.133 96.1927C147.176 96.0534 147.162 95.9028 147.094 95.7739C146.92 95.4279 146.66 95.1329 146.339 94.9175C146.018 94.7021 145.646 94.5738 145.261 94.545C144.874 94.5285 144.489 94.6108 144.143 94.784C143.796 94.9573 143.5 95.2159 143.281 95.5354C143.24 95.5947 143.211 95.6617 143.196 95.7324C143.181 95.803 143.18 95.876 143.194 95.9469C143.208 96.0179 143.235 96.0854 143.275 96.1454C143.316 96.2055 143.367 96.2569 143.428 96.2966C143.545 96.37 143.685 96.3967 143.821 96.3712C143.957 96.3457 144.078 96.27 144.161 96.159Z" fill="#321951"/>
<path d="M130.404 21.0273C130.258 21.0273 130.117 21.085 130.012 21.1879C129.908 21.2909 129.848 21.4308 129.845 21.5776C129.845 21.6506 129.86 21.7229 129.888 21.7903C129.916 21.8576 129.957 21.9187 130.01 21.9699C130.062 22.0211 130.123 22.0614 130.191 22.0886C130.259 22.1157 130.331 22.129 130.404 22.1278H142.163C142.235 22.1278 142.306 22.1135 142.372 22.0857C142.438 22.058 142.498 22.0173 142.549 21.9661C142.599 21.9149 142.639 21.8541 142.665 21.7874C142.692 21.7207 142.705 21.6494 142.704 21.5776C142.705 21.5057 142.692 21.4344 142.665 21.3677C142.639 21.301 142.599 21.2403 142.549 21.189C142.498 21.1378 142.438 21.0972 142.372 21.0694C142.306 21.0416 142.235 21.0273 142.163 21.0273H130.404Z" fill="#321951"/>
<path d="M139.661 110.832C139.552 110.995 139.403 111.128 139.228 111.218C139.053 111.308 138.858 111.352 138.662 111.345C138.468 111.327 138.281 111.26 138.121 111.149C137.96 111.038 137.831 110.888 137.745 110.713C137.677 110.582 137.56 110.483 137.419 110.438C137.278 110.394 137.125 110.407 136.994 110.474C136.869 110.546 136.775 110.662 136.733 110.8C136.69 110.938 136.701 111.087 136.765 111.217C136.939 111.562 137.199 111.857 137.52 112.072C137.841 112.287 138.212 112.416 138.598 112.446H138.717C139.079 112.439 139.435 112.345 139.753 112.173C140.072 112.001 140.345 111.755 140.55 111.455C140.63 111.332 140.659 111.182 140.63 111.038C140.601 110.894 140.516 110.767 140.394 110.685C140.276 110.613 140.135 110.587 139.999 110.615C139.863 110.642 139.742 110.719 139.661 110.832Z" fill="#321951"/>
<path d="M136.151 106.246C136.11 106.387 136.125 106.539 136.194 106.669C136.262 106.799 136.378 106.897 136.517 106.943L139.817 107.97H139.963C140.081 107.974 140.197 107.938 140.293 107.87C140.361 107.819 140.417 107.754 140.456 107.68C140.496 107.605 140.519 107.523 140.522 107.439L140.733 100.295C140.736 100.222 140.723 100.149 140.697 100.081C140.672 100.013 140.632 99.9501 140.582 99.8972C140.532 99.8442 140.471 99.8019 140.404 99.7725C140.337 99.7432 140.265 99.7275 140.192 99.7263C140.121 99.7225 140.049 99.7335 139.982 99.7587C139.915 99.7838 139.853 99.8226 139.802 99.8725C139.75 99.9224 139.709 99.9824 139.682 100.049C139.655 100.115 139.641 100.186 139.642 100.258L139.45 106.677L136.838 105.861C136.768 105.84 136.694 105.834 136.621 105.842C136.548 105.85 136.477 105.873 136.413 105.909C136.349 105.945 136.293 105.993 136.248 106.051C136.203 106.109 136.17 106.175 136.151 106.246Z" fill="#321951"/>
<path d="M134.198 96.0497C133.328 95.9764 132.585 96.9667 132.448 98.434C132.356 99.7178 132.824 100.818 133.575 101.038H133.777C134.027 101.04 134.272 100.973 134.487 100.845C134.702 100.718 134.878 100.534 134.996 100.314C135.294 99.8111 135.473 99.2463 135.518 98.6632C135.637 97.2969 135.042 96.1598 134.198 96.0497Z" fill="#321951"/>
<path d="M133.291 95.2427C133.4 95.0745 133.551 94.9383 133.729 94.8479C133.908 94.7576 134.107 94.7163 134.307 94.7285C134.506 94.7406 134.699 94.8057 134.865 94.917C135.032 95.0283 135.165 95.1818 135.253 95.3619C135.298 95.4496 135.366 95.5233 135.45 95.5751C135.534 95.6268 135.631 95.6545 135.729 95.6553C135.822 95.6579 135.914 95.6357 135.995 95.5911C136.06 95.5583 136.117 95.5128 136.164 95.4573C136.21 95.4019 136.245 95.3376 136.267 95.2683C136.288 95.199 136.295 95.1261 136.288 95.054C136.281 94.9818 136.259 94.9119 136.224 94.8483C136.049 94.5047 135.788 94.212 135.467 93.9983C135.146 93.7847 134.776 93.6574 134.391 93.6287C134.006 93.6063 133.622 93.6861 133.277 93.8601C132.933 94.034 132.641 94.2958 132.43 94.6191C132.388 94.6773 132.358 94.7433 132.341 94.8132C132.325 94.8832 132.322 94.9557 132.334 95.0266C132.346 95.0974 132.372 95.1652 132.411 95.2259C132.449 95.2866 132.499 95.3391 132.558 95.3802C132.675 95.4537 132.816 95.4803 132.952 95.4548C133.087 95.4294 133.209 95.3536 133.291 95.2427Z" fill="#321951"/>
<path d="M125.978 197.197C126.05 197.197 126.121 197.183 126.188 197.155C126.255 197.128 126.315 197.087 126.366 197.036C126.417 196.985 126.458 196.924 126.486 196.857C126.513 196.791 126.527 196.719 126.527 196.647C126.527 196.575 126.513 196.503 126.486 196.436C126.458 196.37 126.417 196.309 126.366 196.258C126.315 196.207 126.255 196.166 126.188 196.139C126.121 196.111 126.05 196.097 125.978 196.097H118.022C117.95 196.097 117.879 196.111 117.812 196.139C117.745 196.166 117.685 196.207 117.633 196.258C117.582 196.309 117.542 196.37 117.514 196.436C117.487 196.503 117.472 196.575 117.472 196.647C117.472 196.719 117.487 196.791 117.514 196.857C117.542 196.924 117.582 196.985 117.633 197.036C117.685 197.087 117.745 197.128 117.812 197.155C117.879 197.183 117.95 197.197 118.022 197.197H125.978Z" fill="#321951"/>
<path d="M133.227 65.127C125.543 65.127 118.032 67.4068 111.643 71.6782C105.254 75.9496 100.275 82.0207 97.334 89.1237C94.3935 96.2268 93.6242 104.043 95.1232 111.583C96.6223 119.124 100.322 126.05 105.756 131.487C111.189 136.923 118.111 140.626 125.648 142.126C133.184 143.625 140.995 142.856 148.094 139.913C155.193 136.971 161.261 131.989 165.53 125.596C169.799 119.204 172.077 111.688 172.077 104C172.065 93.6937 167.968 83.8134 160.685 76.5259C153.402 69.2385 143.527 65.1391 133.227 65.127ZM133.227 141.772C127.784 141.773 122.405 140.594 117.461 138.316C112.517 136.038 108.124 132.715 104.587 128.576C106.704 124.183 110.654 121.405 116.327 120.323C118.847 119.862 121.418 119.745 123.97 119.974C123.97 120.433 123.925 120.69 123.925 120.717C123.827 121.977 123.99 123.244 124.405 124.438C124.82 125.632 125.477 126.727 126.335 127.655C127.193 128.583 128.234 129.323 129.391 129.83C130.549 130.336 131.799 130.597 133.062 130.597C134.325 130.597 135.575 130.336 136.733 129.83C137.89 129.323 138.931 128.583 139.789 127.655C140.647 126.727 141.304 125.632 141.719 124.438C142.134 123.244 142.297 121.977 142.2 120.717V119.983C144.738 119.745 157.01 119.066 161.556 128.613C161.601 128.674 161.653 128.729 161.712 128.778C158.172 132.86 153.797 136.133 148.882 138.375C143.967 140.617 138.628 141.776 133.227 141.772ZM125.941 102.065C125.858 102.057 125.774 102.069 125.696 102.099C125.618 102.129 125.548 102.177 125.492 102.239C124.728 102.562 123.872 102.588 123.091 102.312C122.325 102.076 121.673 101.567 121.258 100.882C121.078 100.59 120.963 100.263 120.921 99.9228C120.878 99.5828 120.908 99.2375 121.01 98.9102C121.316 98.2298 121.875 97.6956 122.568 97.4215C123.261 97.1474 124.034 97.1551 124.722 97.443C125.542 97.7175 126.227 98.2947 126.637 99.0569L126.747 99.3229C126.778 99.4061 126.83 99.48 126.897 99.5378C126.964 99.5956 127.045 99.6352 127.132 99.653C127.381 99.6958 127.637 99.6817 127.88 99.6118C128.122 99.542 128.346 99.4181 128.535 99.2495C130.001 98.0941 130.798 94.9578 130.881 89.9142C133.564 91.2755 136.41 92.2893 139.349 92.9312C142.46 93.6496 145.688 93.6934 148.817 93.0596C148.899 96.0949 148.963 111.4 142.071 116.031C139.322 117.865 135.656 117.819 131.22 115.765C131.092 115.725 130.955 115.733 130.832 115.787C130.71 115.841 130.612 115.937 130.556 116.059C130.499 116.18 130.489 116.318 130.527 116.446C130.565 116.574 130.649 116.684 130.762 116.756C132.863 117.818 135.172 118.407 137.525 118.48C138.738 118.479 139.939 118.246 141.063 117.792V120.708C141.063 122.841 140.216 124.886 138.709 126.395C137.202 127.903 135.157 128.75 133.025 128.75C130.894 128.75 128.849 127.903 127.342 126.395C125.835 124.886 124.988 122.841 124.988 120.708C124.988 120.396 125.904 108.787 126.408 102.624C126.414 102.489 126.369 102.357 126.283 102.254C126.196 102.15 126.074 102.083 125.941 102.065ZM142.163 118.874V117.26C142.348 117.165 142.529 117.061 142.704 116.948C150.375 111.767 150.036 95.3155 149.916 92.7936C152.379 92.0833 154.634 90.787 156.488 89.0155C156.577 88.9314 156.636 88.8203 156.656 88.6994C156.676 88.5784 156.655 88.4543 156.598 88.3461C156.539 88.2403 156.447 88.157 156.336 88.1089C156.225 88.0608 156.101 88.0507 155.984 88.0801C154.866 88.2654 153.718 88.0546 152.739 87.4841C154.343 86.512 157.322 83.816 156.598 77.8369C156.585 77.7474 156.551 77.6623 156.498 77.5888C156.446 77.5153 156.376 77.4557 156.295 77.4151C156.221 77.3768 156.14 77.3549 156.057 77.3509C155.965 77.3538 155.874 77.3756 155.791 77.4151C155.736 77.4151 149.761 80.4505 142.704 75.6911C140.367 74.1046 138.121 73.5728 135.903 74.1046C133.727 74.7482 131.86 76.1631 130.652 78.0845C127.868 76.6777 124.655 76.3795 121.661 77.25C117.262 78.5797 113.568 82.4863 110.663 88.8504C110.622 88.957 110.614 89.0733 110.64 89.1844C110.666 89.2955 110.725 89.3962 110.809 89.4734C110.893 89.5505 110.998 89.6006 111.111 89.6171C111.224 89.6336 111.339 89.6156 111.442 89.5657C112.223 89.3272 113.064 89.3827 113.806 89.7216C112.423 93.1441 112.364 96.9598 113.641 100.423C115.291 104.522 119.003 107.686 124.639 109.814C124.669 109.824 124.701 109.824 124.731 109.814C124.447 113.528 124.181 116.893 124.025 118.865C121.404 118.617 108.83 117.948 103.789 127.641C99.309 122.08 96.4958 115.363 95.6758 108.268C94.8559 101.173 96.0627 93.9903 99.1564 87.5536C102.25 81.1168 107.104 75.6893 113.155 71.9005C119.206 68.1116 126.207 66.1166 133.345 66.1468C140.483 66.177 147.467 68.2311 153.486 72.0709C159.505 75.9108 164.312 81.3791 167.352 87.8417C170.391 94.3044 171.537 101.497 170.657 108.585C169.778 115.673 166.908 122.366 162.381 127.888C157.533 118.168 145.041 118.617 142.163 118.874Z" fill="#321951"/>
<path d="M44.5653 60.5234C44.4945 60.4155 44.3921 60.3322 44.272 60.285C44.1625 60.247 44.0438 60.2453 43.9332 60.2799C43.8227 60.3146 43.7262 60.3839 43.6579 60.4776L38.2506 67.7313C38.1792 67.8265 38.1406 67.9423 38.1406 68.0614C38.1406 68.1804 38.1792 68.2963 38.2506 68.3915L54.4268 89.3364C54.4803 89.4016 54.5474 89.4542 54.6234 89.4906C54.6994 89.5271 54.7824 89.5464 54.8667 89.5473H54.9217C55.0153 89.5367 55.1048 89.5025 55.1817 89.448C55.2586 89.3935 55.3205 89.3204 55.3616 89.2355L71.8585 54.8104C71.916 54.6905 71.9282 54.5539 71.8928 54.4258C71.8574 54.2977 71.7769 54.1867 71.6661 54.1134L64.884 49.5283C64.8458 49.4966 64.8024 49.4718 64.7557 49.4549C64.7224 49.4325 64.6851 49.4169 64.6457 49.4091C64.5376 49.3846 64.4246 49.3934 64.3216 49.4343C64.2185 49.4752 64.1303 49.5463 64.0683 49.6383C64.0348 49.6855 64.01 49.7383 63.995 49.7942L53.3728 71.9221L44.5653 60.5234ZM53.9869 73.2334L64.774 50.7479L70.6763 54.7278L54.7659 87.9059L39.3962 68.0155L44.0979 61.7156L53.052 73.2976C53.1101 73.3716 53.186 73.4297 53.2725 73.4666C53.359 73.5034 53.4534 73.5179 53.5469 73.5085C53.6374 73.5033 53.7252 73.4753 53.802 73.4272C53.8789 73.3791 53.9425 73.3125 53.9869 73.2334Z" fill="#321951"/>
<path d="M91.5174 35.4702C91.5178 35.343 91.4742 35.2196 91.394 35.121C91.3138 35.0223 91.2019 34.9545 91.0774 34.9291C84.3045 33.5627 67.3127 29.0051 55.4532 16.1301C55.3453 16.0248 55.2006 15.9658 55.0499 15.9658C54.8992 15.9658 54.7545 16.0248 54.6467 16.1301C42.833 28.9684 25.8045 33.5536 19.0224 34.92C18.8979 34.9454 18.7861 35.0132 18.7059 35.1118C18.6257 35.2105 18.5821 35.3338 18.5825 35.461V71.7294C18.5825 73.0132 19.0224 103.293 54.8117 121.249C54.8884 121.287 54.9734 121.306 55.0591 121.304C55.1417 121.304 55.2233 121.285 55.2974 121.249C91.0408 103.284 91.5174 72.9857 91.5174 71.7294V35.4702ZM90.4175 71.7202C90.4175 72.9674 89.9776 102.477 55.0591 120.148C20.1131 102.477 19.6732 72.9766 19.6732 71.7294V35.9103C26.7577 34.4339 43.2913 29.8029 55.0958 17.2947C66.8727 29.8029 83.388 34.4248 90.4542 35.9012L90.4175 71.7202Z" fill="#321951"/>
<path d="M219.075 137.847C218.269 136.724 217.247 135.773 216.069 135.051L217.563 125.944C218.371 121.013 217.193 115.963 214.286 111.899C211.38 107.836 206.982 105.091 202.056 104.266L201.451 104.165C198.417 103.679 195.31 103.943 192.401 104.934C189.492 105.925 186.869 107.613 184.762 109.851V14.1864C184.757 10.4238 183.26 6.8169 180.6 4.15723C177.941 1.49755 174.335 0.0024259 170.574 0H95.8707C92.1087 -3.13758e-06 88.5005 1.49405 85.8387 4.15399C83.1768 6.81393 81.679 10.4222 81.6741 14.1864V27.5475C73.8289 24.723 64.1782 19.7252 57.1212 11.041C56.8741 10.7418 56.565 10.4999 56.2153 10.332C55.8656 10.1642 55.4836 10.0744 55.0957 10.069C54.6921 10.0617 54.2921 10.1473 53.9267 10.319C53.5612 10.4907 53.24 10.744 52.9878 11.0593C41.0733 25.6584 21.8727 29.84 16.2729 30.7754C15.6437 30.8732 15.0697 31.1916 14.6534 31.6737C14.2371 32.1558 14.0055 32.7702 14 33.4073V71.7115C14 72.0783 14 80.6892 19.0224 91.8035C23.6599 102.047 33.613 116.334 54.8208 126.357C54.905 126.403 55 126.425 55.0957 126.421C55.1751 126.419 55.2532 126.401 55.3248 126.366C67.2851 120.717 75.7444 113.684 81.72 106.558V193.814C81.7151 197.576 83.2023 201.187 85.8553 203.854C88.5083 206.52 92.1103 208.025 95.8707 208.037H170.574C174.335 208.032 177.94 206.534 180.598 203.873C183.256 201.212 184.75 197.604 184.753 193.841V179.691L204.329 182.91C204.874 183.002 205.426 183.048 205.979 183.048C208.409 183.028 210.756 182.154 212.607 180.578C214.459 179.003 215.697 176.825 216.106 174.428L220.844 145.495C221.066 144.167 221.025 142.808 220.721 141.495C220.418 140.183 219.858 138.943 219.075 137.847ZM201.314 105.064L201.909 105.165C206.596 105.951 210.781 108.564 213.547 112.431C216.312 116.299 217.434 121.105 216.665 125.798L215.226 134.583C214.338 134.142 213.39 133.833 212.412 133.666L210.149 133.29L211.523 124.927C211.802 123.276 211.752 121.587 211.376 119.955C211.001 118.324 210.308 116.783 209.337 115.42C208.365 114.057 207.135 112.899 205.716 112.013C204.296 111.126 202.716 110.529 201.066 110.254L200.461 110.162C198.817 109.888 197.135 109.944 195.513 110.327C193.891 110.709 192.361 111.411 191.012 112.391C188.275 114.353 186.426 117.321 185.871 120.644L184.496 129.007L182.232 128.631C181.681 128.54 181.123 128.494 180.564 128.494C180.141 128.497 179.719 128.528 179.299 128.585L180.738 119.8C181.248 116.699 182.569 113.788 184.569 111.364C186.567 108.941 189.164 107.085 192.102 105.98C195.04 104.874 198.216 104.559 201.314 105.064ZM209.241 133.171L185.412 129.246L186.778 120.882C187.286 117.794 188.997 115.033 191.536 113.204C194.075 111.375 197.235 110.628 200.324 111.125L200.91 111.226C203.992 111.75 206.742 113.471 208.56 116.016C210.378 118.56 211.117 121.72 210.616 124.807L209.241 133.171ZM55.0957 125.257C15.3931 106.375 15.1273 72.0691 15.1273 71.7206V33.4073C15.1339 33.0302 15.2738 32.6677 15.5221 32.384C15.7704 32.1003 16.111 31.9138 16.4837 31.8575C22.1843 30.9405 41.724 26.6488 53.8676 11.7563C54.0151 11.5724 54.202 11.4241 54.4147 11.3225C54.6273 11.2209 54.8601 11.1685 55.0957 11.1694C55.3287 11.1686 55.5588 11.2211 55.7685 11.3228C55.9781 11.4245 56.1618 11.5728 56.3055 11.7563C63.7383 20.8624 73.9297 25.9977 82.0316 28.8221H82.0865C85.8682 30.1462 89.7518 31.1583 93.6986 31.8483C94.0687 31.9031 94.407 32.0884 94.6524 32.371C94.8978 32.6535 95.0341 33.0146 95.0367 33.3889V71.7206C95.0367 71.8032 95.0366 80.4966 90.0876 91.4C85.5142 101.414 75.7536 115.417 55.0957 125.257ZM183.689 181.333V193.804C183.689 195.526 183.35 197.231 182.691 198.822C182.031 200.413 181.065 201.857 179.846 203.074C178.628 204.29 177.182 205.254 175.591 205.911C174 206.567 172.295 206.903 170.574 206.9H95.8707C92.4011 206.895 89.0751 205.513 86.6217 203.059C84.1684 200.604 82.7879 197.276 82.7831 193.804V105.21C95.9898 88.5939 96.109 71.9591 96.0998 71.7206V33.4073C96.0968 32.7724 95.8685 32.1591 95.4556 31.6771C95.0426 31.195 94.4718 30.8754 93.8452 30.7754C90.087 30.1289 86.3875 29.1782 82.7831 27.9326V14.1772C82.7879 10.7065 84.1687 7.37948 86.6223 4.92618C89.0759 2.47287 92.402 1.09369 95.8707 1.09126H104.064C104.294 1.09005 104.522 1.13416 104.735 1.22107C104.948 1.30798 105.141 1.43599 105.305 1.59778C105.468 1.75957 105.598 1.95198 105.687 2.16403C105.776 2.37607 105.823 2.6036 105.824 2.83361V4.7502C105.831 6.10011 106.372 7.39225 107.329 8.34422C108.285 9.29618 109.58 9.83055 110.929 9.83053H155.544C156.891 9.83053 158.184 9.29557 159.137 8.34309C160.091 7.39061 160.628 6.09843 160.63 4.7502V2.85195C160.635 2.38817 160.823 1.94503 161.152 1.6188C161.482 1.29256 161.926 1.10958 162.39 1.1096H170.574C174.041 1.11446 177.363 2.49501 179.814 4.94831C182.264 7.40162 183.641 10.7273 183.644 14.1956V110.942C183.638 110.991 183.638 111.04 183.644 111.089C181.64 113.597 180.312 116.578 179.785 119.745L178.3 128.851C176.308 129.311 174.495 130.349 173.09 131.835C171.684 133.321 170.749 135.189 170.4 137.206L165.653 166.138C165.21 168.824 165.85 171.575 167.433 173.79C169.015 176.004 171.41 177.5 174.094 177.949L183.607 179.508L183.689 181.333ZM220.001 145.349L215.235 174.281C214.863 176.462 213.737 178.444 212.054 179.878C210.37 181.313 208.236 182.111 206.024 182.131C205.521 182.129 205.018 182.086 204.521 182.002L174.332 177.041C171.887 176.634 169.703 175.273 168.261 173.256C166.82 171.239 166.237 168.731 166.643 166.284L171.39 137.352C171.584 136.138 172.015 134.974 172.661 133.928C173.306 132.882 174.152 131.973 175.149 131.256C176.147 130.538 177.277 130.025 178.473 129.746C179.67 129.467 180.91 129.428 182.122 129.631L212.312 134.592C213.521 134.79 214.678 135.227 215.717 135.877C216.755 136.527 217.654 137.378 218.36 138.379C219.797 140.398 220.373 142.905 219.964 145.349H220.001Z" fill="#321951"/>
</g>
<defs>
<clipPath id="clip0_741_58099">
<rect width="234" height="208" fill="white" transform="translate(0.5)"/>
</clipPath>
</defs>
</svg>
