<svg width="209" height="208" viewBox="0 0 209 208" fill="none" xmlns="http://www.w3.org/2000/svg">
<g clip-path="url(#clip0_2051_118277)">
<path d="M166.598 128.677C167.019 128.62 167.444 128.589 167.869 128.586C168.431 128.586 168.991 128.632 169.545 128.723L171.82 129.099L173.201 120.736C173.759 117.413 175.617 114.445 178.368 112.483C179.723 111.503 181.26 110.801 182.89 110.419C184.52 110.036 186.21 109.98 187.862 110.254L188.47 110.346C190.128 110.621 191.716 111.218 193.142 112.105C194.568 112.991 195.805 114.149 196.781 115.512C197.757 116.875 198.453 118.416 198.83 120.047C199.207 121.679 199.257 123.368 198.978 125.019L197.596 133.382L199.871 133.758C200.853 133.925 201.806 134.234 202.698 134.675L204.144 125.89C204.917 121.197 203.79 116.391 201.011 112.523C198.232 108.656 194.027 106.043 189.317 105.257L188.719 105.156C185.595 104.664 182.397 104.999 179.444 106.125C176.491 107.252 173.888 109.131 171.893 111.575C169.884 113.999 168.556 116.91 168.044 120.012L166.598 128.677Z" fill="#8B6FE2"/>
<path d="M199.733 134.592L169.398 129.631C168.18 129.428 166.934 129.467 165.731 129.746C164.529 130.025 163.394 130.538 162.391 131.255C161.389 131.973 160.539 132.881 159.89 133.928C159.242 134.974 158.808 136.138 158.614 137.352L153.843 166.284C153.436 168.731 154.021 171.238 155.47 173.256C156.919 175.273 159.113 176.634 161.57 177.041L191.905 182.002C192.404 182.086 192.909 182.129 193.415 182.13C195.638 182.11 197.782 181.313 199.474 179.878C201.166 178.443 202.297 176.462 202.671 174.281L207.46 145.349C207.658 144.136 207.614 142.896 207.332 141.701C207.049 140.505 206.532 139.376 205.811 138.379C205.101 137.378 204.198 136.527 203.154 135.877C202.111 135.227 200.948 134.79 199.733 134.592ZM157.499 160.461C157.483 160.59 157.42 160.708 157.321 160.793C157.222 160.878 157.096 160.923 156.965 160.92H156.91C156.838 160.909 156.769 160.883 156.707 160.845C156.646 160.807 156.592 160.757 156.55 160.698C156.508 160.639 156.478 160.572 156.463 160.502C156.447 160.431 156.446 160.358 156.459 160.287L158.991 144.918C159.003 144.847 159.029 144.78 159.068 144.719C159.106 144.659 159.156 144.606 159.214 144.565C159.273 144.524 159.339 144.494 159.409 144.479C159.479 144.463 159.551 144.461 159.622 144.473C159.693 144.485 159.761 144.511 159.821 144.549C159.882 144.587 159.935 144.636 159.976 144.695C160.018 144.753 160.047 144.819 160.063 144.889C160.079 144.958 160.081 145.03 160.069 145.101L157.499 160.461ZM161.423 156.114C161.403 156.243 161.337 156.36 161.237 156.445C161.137 156.529 161.01 156.574 160.879 156.573H160.805C160.733 156.563 160.663 156.538 160.6 156.501C160.537 156.463 160.483 156.414 160.44 156.354C160.397 156.295 160.366 156.228 160.35 156.157C160.334 156.086 160.332 156.012 160.345 155.94L161.266 150.3C161.293 150.156 161.376 150.029 161.496 149.945C161.617 149.861 161.765 149.827 161.911 149.851C161.983 149.862 162.052 149.888 162.114 149.925C162.176 149.963 162.23 150.013 162.273 150.072C162.316 150.131 162.347 150.198 162.364 150.268C162.38 150.339 162.383 150.412 162.371 150.484L161.423 156.114ZM185.984 153.739C185.822 154.787 185.32 155.753 184.556 156.49L185.477 165.661C185.486 165.725 185.486 165.789 185.477 165.853C185.475 165.952 185.443 166.048 185.385 166.128V166.403H185.109C185.036 166.416 184.961 166.416 184.888 166.403H184.768L173.302 164.478C173.199 164.464 173.103 164.419 173.026 164.349L172.722 164.294L172.851 164.01C172.819 163.915 172.819 163.812 172.851 163.717L176.691 155.179C176.31 154.429 176.128 153.594 176.161 152.754C176.195 151.914 176.443 151.097 176.883 150.379C177.324 149.662 177.94 149.068 178.676 148.655C179.411 148.241 180.24 148.022 181.084 148.017C181.349 148.02 181.614 148.041 181.876 148.081C182.517 148.186 183.131 148.416 183.682 148.757C184.234 149.099 184.712 149.545 185.09 150.071C185.478 150.592 185.756 151.185 185.91 151.815C186.063 152.445 186.088 153.099 185.984 153.739ZM196.906 171.722C196.884 171.85 196.818 171.966 196.718 172.05C196.619 172.134 196.493 172.18 196.362 172.181H196.261C196.117 172.156 195.988 172.076 195.902 171.958C195.815 171.839 195.779 171.692 195.801 171.548L196.565 166.963C196.576 166.891 196.602 166.823 196.64 166.761C196.678 166.7 196.728 166.646 196.787 166.604C196.847 166.563 196.914 166.533 196.985 166.517C197.056 166.502 197.129 166.5 197.2 166.514C197.345 166.538 197.474 166.618 197.56 166.737C197.646 166.855 197.682 167.002 197.661 167.146L196.906 171.722ZM199.715 175.179C199.697 175.309 199.631 175.427 199.531 175.512C199.431 175.597 199.303 175.641 199.171 175.638H199.088C198.944 175.613 198.815 175.533 198.729 175.415C198.643 175.297 198.607 175.15 198.628 175.005L201.52 157.453C201.544 157.308 201.626 157.178 201.747 157.092C201.868 157.006 202.018 156.971 202.164 156.995C202.308 157.019 202.436 157.1 202.521 157.218C202.606 157.337 202.64 157.484 202.615 157.628L199.715 175.179Z" fill="#8B6FE2"/>
<path d="M30.7434 61.7162L26.019 68.0162L41.4629 87.9065L57.4502 54.7285L51.4918 50.7119L40.6802 73.2341C40.6403 73.32 40.5785 73.394 40.5009 73.4488C40.4234 73.5035 40.3327 73.5369 40.2381 73.5459C40.1441 73.5552 40.0492 73.5408 39.9623 73.5039C39.8754 73.467 39.7992 73.4089 39.7408 73.335L30.7434 61.7162Z" fill="#8B6FE2"/>
<path d="M81.8911 71.7202V33.4069C81.8885 33.0325 81.7516 32.6715 81.505 32.3889C81.2584 32.1064 80.9184 31.921 80.5466 31.8662C76.5808 31.1763 72.6784 30.1642 68.8784 28.8401H68.8232C60.6822 26.0156 50.4047 20.8803 42.9728 11.7742C42.8341 11.5921 42.6563 11.4433 42.4523 11.3385C42.2484 11.2338 42.0234 11.1759 41.7941 11.169C41.5573 11.1681 41.3234 11.2204 41.1097 11.3221C40.8961 11.4237 40.7082 11.5719 40.56 11.7559C28.3209 26.6484 8.68682 30.9125 2.95867 31.8571C2.58421 31.9134 2.24187 32.0999 1.99237 32.3836C1.74287 32.6673 1.60234 33.0298 1.5957 33.4069V71.7202C1.5957 72.0687 1.86277 106.375 41.7572 125.256C62.5517 115.407 72.3595 101.414 76.9181 91.3996C81.8911 80.4962 81.8911 71.8028 81.8911 71.7202ZM41.9967 121.24C41.9222 121.276 41.8402 121.295 41.7572 121.295C41.6711 121.297 41.5857 121.278 41.5086 121.24C5.59252 103.275 5.10443 72.9949 5.10443 71.7202V35.461C5.10397 35.3338 5.14777 35.2105 5.22836 35.1118C5.30894 35.0132 5.42135 34.9454 5.54647 34.9199C12.3613 33.5536 29.4905 28.9868 41.3428 16.1301C41.4512 16.0248 41.5966 15.9658 41.748 15.9658C41.8994 15.9658 42.0448 16.0248 42.1532 16.1301C54.07 28.9684 71.1439 33.5536 77.9495 34.9291C78.0747 34.9545 78.1871 35.0223 78.2677 35.121C78.3483 35.2196 78.3921 35.343 78.3916 35.4702V71.7202C78.3916 72.9949 77.9495 103.293 41.9967 121.258V121.24Z" fill="#8B6FE2"/>
<path d="M152.931 166.138L157.702 137.206C158.052 135.19 158.992 133.321 160.404 131.835C161.816 130.349 163.638 129.311 165.64 128.852L167.132 119.746C167.661 116.578 168.996 113.598 171.009 111.089C171.004 111.04 171.004 110.991 171.009 110.942V14.1866C171.008 12.4654 170.666 10.7613 170.003 9.17175C169.34 7.58223 168.368 6.1385 167.144 4.92311C165.92 3.70773 164.468 2.74454 162.87 2.08864C161.271 1.43274 159.559 1.097 157.831 1.10061H82.766C79.2806 1.10304 75.9384 2.48222 73.473 4.93553C71.0075 7.38884 69.6201 10.7159 69.6152 14.1866V27.942C73.2371 29.1875 76.9544 30.1382 80.7308 30.7848C81.3605 30.8848 81.9339 31.2043 82.3489 31.6864C82.7639 32.1685 82.9933 32.7817 82.9963 33.4166V71.7208C82.9963 71.9593 82.8858 88.5941 69.6152 105.211V193.805C69.6201 197.276 71.0072 200.604 73.4724 203.059C75.9376 205.514 79.2797 206.895 82.766 206.9H157.831C161.315 206.895 164.655 205.513 167.118 203.058C169.58 200.602 170.963 197.274 170.963 193.805V179.508L161.404 177.949C158.709 177.498 156.305 176.001 154.716 173.787C153.128 171.573 152.486 168.822 152.931 166.138ZM125.653 6.52024C126.2 6.52024 126.734 6.68159 127.188 6.98388C127.643 7.28617 127.997 7.71584 128.206 8.21853C128.415 8.72122 128.47 9.27437 128.363 9.80803C128.257 10.3417 127.993 10.8319 127.607 11.2166C127.221 11.6014 126.728 11.8634 126.192 11.9695C125.657 12.0757 125.101 12.0212 124.596 11.813C124.091 11.6048 123.66 11.2522 123.356 10.7997C123.053 10.3473 122.891 9.81543 122.891 9.27132C122.891 8.54169 123.182 7.84194 123.7 7.32601C124.218 6.81009 124.921 6.52024 125.653 6.52024ZM115.615 5.83247C116.297 5.83066 116.965 6.03049 117.532 6.40665C118.1 6.78281 118.543 7.31836 118.805 7.94543C119.067 8.57249 119.136 9.26285 119.003 9.92899C118.871 10.5951 118.542 11.2071 118.06 11.6873C117.578 12.1675 116.963 12.4943 116.294 12.6264C115.625 12.7584 114.932 12.6897 114.302 12.429C113.673 12.1683 113.135 11.7273 112.757 11.1619C112.379 10.5964 112.179 9.93209 112.18 9.25298C112.185 8.34729 112.549 7.48007 113.192 6.83964C113.835 6.19921 114.706 5.83729 115.615 5.83247ZM100.595 16.9377H146.126C146.272 16.9377 146.413 16.9956 146.516 17.0988C146.62 17.202 146.678 17.342 146.678 17.4879C146.678 17.6338 146.62 17.7738 146.516 17.8769C146.413 17.9801 146.272 18.0381 146.126 18.0381H100.595C100.449 18.0381 100.308 17.9801 100.204 17.8769C100.101 17.7738 100.043 17.6338 100.043 17.4879C100.043 17.342 100.101 17.202 100.204 17.0988C100.308 16.9956 100.449 16.9377 100.595 16.9377ZM129.798 21.5778C129.799 21.6496 129.786 21.721 129.759 21.7877C129.732 21.8544 129.692 21.9151 129.642 21.9663C129.591 22.0176 129.531 22.0582 129.464 22.086C129.398 22.1138 129.326 22.128 129.254 22.128H117.466C117.393 22.1293 117.32 22.1159 117.252 22.0888C117.184 22.0617 117.122 22.0214 117.07 21.9702C117.017 21.9189 116.976 21.8579 116.948 21.7905C116.919 21.7232 116.905 21.6509 116.905 21.5778C116.907 21.4311 116.967 21.2911 117.072 21.1882C117.178 21.0853 117.319 21.0276 117.466 21.0276H129.282C129.423 21.0347 129.555 21.0961 129.652 21.1988C129.748 21.3015 129.8 21.4374 129.798 21.5778ZM146.126 201.462H98.7349C98.5883 201.462 98.4478 201.404 98.3441 201.301C98.2405 201.197 98.1823 201.057 98.1823 200.912C98.1823 200.766 98.2405 200.626 98.3441 200.522C98.4478 200.419 98.5883 200.361 98.7349 200.361H146.126C146.272 200.361 146.413 200.419 146.516 200.522C146.62 200.626 146.678 200.766 146.678 200.912C146.678 201.057 146.62 201.197 146.516 201.301C146.413 201.404 146.272 201.462 146.126 201.462ZM104.472 196.647C104.472 196.501 104.53 196.361 104.634 196.258C104.738 196.155 104.878 196.097 105.025 196.097H113.018C113.091 196.097 113.163 196.111 113.23 196.139C113.297 196.167 113.358 196.207 113.409 196.258C113.46 196.309 113.501 196.37 113.529 196.437C113.557 196.504 113.571 196.575 113.571 196.647C113.571 196.72 113.557 196.791 113.529 196.858C113.501 196.925 113.46 196.985 113.409 197.036C113.358 197.088 113.297 197.128 113.23 197.156C113.163 197.183 113.091 197.198 113.018 197.198H105.025C104.878 197.198 104.738 197.14 104.634 197.036C104.53 196.933 104.472 196.793 104.472 196.647ZM119.308 196.647C119.308 196.501 119.367 196.361 119.47 196.258C119.574 196.155 119.714 196.097 119.861 196.097H132.413C132.486 196.097 132.557 196.111 132.625 196.139C132.692 196.167 132.752 196.207 132.804 196.258C132.855 196.309 132.896 196.37 132.924 196.437C132.951 196.504 132.966 196.575 132.966 196.647C132.966 196.72 132.951 196.791 132.924 196.858C132.896 196.925 132.855 196.985 132.804 197.036C132.752 197.088 132.692 197.128 132.625 197.156C132.557 197.183 132.486 197.198 132.413 197.198H119.861C119.714 197.198 119.574 197.14 119.47 197.036C119.367 196.933 119.308 196.793 119.308 196.647ZM120.303 142.873C112.582 142.873 105.034 140.593 98.6146 136.322C92.1948 132.05 87.1912 125.979 84.2365 118.876C81.2818 111.773 80.5087 103.957 82.015 96.4165C83.5213 88.8759 87.2393 81.9494 92.6989 76.513C98.1584 71.0765 105.114 67.3743 112.687 65.8743C120.26 64.3744 128.109 65.1442 135.242 68.0864C142.375 71.0286 148.472 76.011 152.762 82.4036C157.051 88.7962 159.341 96.3119 159.341 104C159.326 114.305 155.209 124.184 147.891 131.471C140.573 138.758 130.652 142.858 120.303 142.873Z" fill="#F1E6FF"/>
<path d="M148.751 128.604C144.146 119.094 131.852 119.736 129.301 119.975V120.708C129.399 121.968 129.234 123.235 128.818 124.429C128.401 125.623 127.74 126.719 126.878 127.646C126.016 128.574 124.971 129.314 123.807 129.821C122.644 130.327 121.388 130.588 120.119 130.588C118.85 130.588 117.594 130.327 116.431 129.821C115.267 129.314 114.222 128.574 113.36 127.646C112.498 126.719 111.837 125.623 111.42 124.429C111.004 123.235 110.839 121.968 110.937 120.708C110.937 120.708 110.937 120.424 110.983 119.965C108.419 119.736 105.836 119.853 103.303 120.314C97.6024 121.396 93.6332 124.175 91.5059 128.567C95.0469 132.689 99.4393 136.001 104.383 138.278C109.327 140.555 114.706 141.743 120.153 141.762C125.6 141.78 130.987 140.628 135.946 138.384C140.905 136.14 145.32 132.857 148.889 128.76C148.837 128.713 148.79 128.661 148.751 128.604Z" fill="#00DA9C"/>
<path d="M120.128 128.76C122.27 128.757 124.324 127.91 125.839 126.402C127.355 124.895 128.209 122.851 128.214 120.718V117.801C127.084 118.255 125.877 118.489 124.659 118.489C122.294 118.416 119.974 117.828 117.862 116.765C117.749 116.694 117.665 116.584 117.627 116.456C117.589 116.327 117.599 116.19 117.655 116.068C117.712 115.947 117.811 115.85 117.934 115.796C118.056 115.742 118.195 115.735 118.323 115.775C122.771 117.829 126.445 117.921 129.227 116.041C136.152 111.382 136.088 96.1046 136.005 93.0692C132.861 93.7031 129.617 93.6593 126.492 92.9408C123.538 92.299 120.679 91.2852 117.982 89.9238C117.899 94.9675 117.061 98.1037 115.625 99.2592C115.435 99.4278 115.21 99.5516 114.966 99.6215C114.723 99.6913 114.466 99.7054 114.216 99.6627C114.128 99.6449 114.047 99.6052 113.979 99.5474C113.912 99.4897 113.86 99.4157 113.829 99.3325L113.718 99.0666C113.306 98.3044 112.618 97.7272 111.794 97.4526C111.102 97.1648 110.326 97.1571 109.629 97.4312C108.932 97.7052 108.371 98.2394 108.064 98.9199C107.962 99.2471 107.931 99.5924 107.974 99.9325C108.017 100.273 108.132 100.6 108.312 100.891C108.73 101.577 109.385 102.086 110.154 102.322C110.94 102.598 111.8 102.572 112.567 102.249C112.647 102.178 112.745 102.131 112.851 102.115C112.957 102.099 113.065 102.113 113.162 102.157C113.26 102.201 113.342 102.272 113.4 102.361C113.458 102.451 113.489 102.555 113.488 102.661C112.991 108.787 112.07 120.433 112.061 120.745C112.068 122.872 112.921 124.909 114.433 126.411C115.945 127.913 117.992 128.758 120.128 128.76ZM133.518 99.6535C133.484 100.237 133.307 100.804 133.002 101.304C132.883 101.528 132.704 101.714 132.484 101.842C132.264 101.97 132.014 102.034 131.759 102.029C131.695 102.04 131.63 102.04 131.566 102.029C130.801 101.809 130.332 100.708 130.452 99.4242C130.571 97.9937 131.326 96.9666 132.21 97.04C133.095 97.1133 133.638 98.2504 133.518 99.6535ZM130.378 95.536C130.598 95.2165 130.896 94.9579 131.244 94.7846C131.592 94.6114 131.978 94.5291 132.367 94.5456C132.755 94.5744 133.128 94.7027 133.451 94.9181C133.774 95.1335 134.035 95.4285 134.209 95.7745C134.277 95.9034 134.291 96.054 134.248 96.1933C134.205 96.3325 134.108 96.449 133.979 96.5173C133.897 96.5528 133.81 96.5716 133.721 96.5723C133.619 96.5738 133.518 96.5473 133.431 96.4955C133.343 96.4437 133.271 96.3687 133.224 96.2788C133.137 96.0986 133.004 95.9447 132.838 95.8331C132.671 95.7214 132.478 95.6562 132.278 95.644C132.078 95.6318 131.878 95.6732 131.699 95.7639C131.521 95.8546 131.37 95.9912 131.262 96.1596C131.178 96.2781 131.051 96.3589 130.908 96.3847C130.765 96.4104 130.618 96.379 130.498 96.2972C130.439 96.2553 130.39 96.2024 130.352 96.1413C130.314 96.0803 130.289 96.0123 130.278 95.9415C130.267 95.8707 130.27 95.7984 130.287 95.7288C130.304 95.6592 130.335 95.5937 130.378 95.536ZM122.605 98.6998C122.56 99.2828 122.38 99.8477 122.08 100.35C121.962 100.571 121.785 100.754 121.569 100.882C121.353 101.01 121.106 101.076 120.855 101.075H120.653C119.898 100.855 119.428 99.7544 119.52 98.4705C119.658 97.04 120.441 96.0129 121.279 96.0862C122.117 96.1596 122.725 97.2967 122.605 98.6998ZM127.689 111.41C127.483 111.709 127.209 111.955 126.888 112.127C126.568 112.3 126.211 112.393 125.847 112.4H125.727C125.34 112.371 124.967 112.242 124.644 112.027C124.322 111.811 124.06 111.517 123.885 111.171C123.822 111.042 123.81 110.893 123.853 110.755C123.896 110.617 123.99 110.5 124.116 110.429C124.248 110.361 124.401 110.348 124.543 110.393C124.684 110.437 124.802 110.536 124.871 110.667C124.957 110.842 125.087 110.993 125.248 111.103C125.409 111.214 125.597 111.282 125.792 111.3C125.989 111.306 126.185 111.263 126.36 111.173C126.536 111.083 126.686 110.95 126.795 110.786C126.878 110.666 127.004 110.584 127.147 110.556C127.29 110.529 127.439 110.559 127.56 110.639C127.678 110.726 127.758 110.855 127.782 110.999C127.806 111.142 127.772 111.29 127.689 111.41ZM123.931 105.908L126.556 106.724L126.749 100.305C126.748 100.233 126.762 100.161 126.789 100.095C126.817 100.029 126.858 99.9688 126.909 99.9189C126.961 99.869 127.023 99.8302 127.09 99.8051C127.158 99.7799 127.23 99.7689 127.302 99.7727C127.375 99.7739 127.448 99.7896 127.515 99.8189C127.582 99.8483 127.643 99.8906 127.693 99.9435C127.744 99.9965 127.783 100.059 127.809 100.127C127.836 100.195 127.848 100.268 127.845 100.341L127.633 107.485C127.63 107.569 127.607 107.652 127.567 107.726C127.527 107.801 127.471 107.866 127.403 107.916C127.307 107.985 127.19 108.02 127.072 108.017H126.924L123.609 106.99C123.469 106.943 123.353 106.845 123.284 106.715C123.215 106.585 123.2 106.434 123.241 106.293C123.259 106.221 123.291 106.154 123.336 106.095C123.381 106.036 123.437 105.986 123.502 105.949C123.566 105.912 123.638 105.889 123.711 105.88C123.785 105.872 123.86 105.878 123.931 105.898V105.908ZM119.465 94.5915C119.677 94.2682 119.971 94.0064 120.317 93.8325C120.663 93.6586 121.049 93.5788 121.436 93.6011C121.822 93.6298 122.194 93.7572 122.517 93.9708C122.84 94.1844 123.101 94.4771 123.278 94.8208C123.313 94.8843 123.334 94.9543 123.342 95.0264C123.349 95.0985 123.342 95.1714 123.32 95.2407C123.299 95.31 123.264 95.3743 123.217 95.4297C123.17 95.4852 123.112 95.5307 123.047 95.5635C122.966 95.6082 122.873 95.6303 122.78 95.6277C122.681 95.627 122.584 95.5992 122.5 95.5475C122.415 95.4958 122.347 95.422 122.301 95.3343C122.214 95.1543 122.079 95.0007 121.912 94.8894C121.745 94.7781 121.552 94.713 121.351 94.7009C121.15 94.6888 120.95 94.73 120.771 94.8203C120.591 94.9107 120.44 95.0469 120.331 95.2151C120.289 95.275 120.236 95.3262 120.175 95.3656C120.113 95.405 120.045 95.4319 119.973 95.4447C119.901 95.4574 119.827 95.4559 119.756 95.4401C119.684 95.4243 119.617 95.3946 119.557 95.3526C119.499 95.3087 119.451 95.2537 119.415 95.1909C119.379 95.128 119.356 95.0587 119.348 94.9868C119.339 94.915 119.345 94.8422 119.365 94.7728C119.385 94.7033 119.419 94.6385 119.465 94.5823V94.5915Z" fill="#FDC8B4"/>
<path d="M41.7944 17.2949C29.9329 29.8032 13.3194 34.4342 6.20068 35.9106V71.7296C6.20068 72.9768 6.64273 102.478 41.7576 120.149C76.8448 102.478 77.2868 72.9676 77.2868 71.7205V35.9564C70.1865 34.4433 53.5915 29.8215 41.7944 17.2949ZM50.8839 49.5651C50.9462 49.4731 51.0349 49.402 51.1384 49.3611C51.2419 49.3202 51.3555 49.3114 51.4641 49.3358C51.5036 49.3437 51.5412 49.3593 51.5746 49.3817C51.6215 49.3986 51.6651 49.4234 51.7036 49.4551L58.5184 54.0402C58.6297 54.1135 58.7107 54.2245 58.7462 54.3526C58.7818 54.4807 58.7695 54.6173 58.7118 54.7371L42.1352 89.1623C42.0938 89.2472 42.0317 89.3203 41.9544 89.3748C41.8771 89.4293 41.7872 89.4634 41.6931 89.4741H41.6379C41.5532 89.4732 41.4697 89.4538 41.3934 89.4174C41.317 89.381 41.2496 89.3283 41.1958 89.2632L24.8862 68.355C24.8145 68.2597 24.7757 68.1439 24.7757 68.0248C24.7757 67.9058 24.8145 67.79 24.8862 67.6947L30.3197 60.4777C30.3883 60.384 30.4852 60.3147 30.5963 60.2801C30.7074 60.2454 30.8267 60.2472 30.9367 60.2851C31.0574 60.3323 31.1603 60.4156 31.2314 60.5236L40.0815 71.9222L50.7918 49.7393C50.8012 49.6846 50.8199 49.6319 50.8471 49.5834L50.8839 49.5651Z" fill="#FBC22D"/>
<path d="M145.113 75.4526C137.956 69.2852 128.742 66.0068 119.281 66.2619C109.82 66.517 100.798 70.2871 93.9869 76.831C87.1762 83.375 83.0703 92.2192 82.4766 101.625C81.8828 111.031 84.8441 120.317 90.7783 127.659C95.8433 118.003 108.478 118.635 111.112 118.883C111.269 116.911 111.536 113.546 111.821 109.832C111.792 109.842 111.759 109.842 111.729 109.832C106.02 107.704 102.29 104.541 100.678 100.442C99.3945 96.978 99.4536 93.1623 100.844 89.7398C100.098 89.4009 99.2525 89.3455 98.468 89.5839C98.3649 89.6339 98.2492 89.6518 98.1357 89.6353C98.0223 89.6189 97.9165 89.5688 97.8321 89.4916C97.7476 89.4145 97.6885 89.3138 97.6623 89.2027C97.6361 89.0916 97.6441 88.9752 97.6852 88.8687C100.595 82.5045 104.307 78.598 108.736 77.2683C111.745 76.3977 114.974 76.6959 117.771 78.1028C118.972 76.2057 120.819 74.8027 122.974 74.1504C125.156 73.6185 127.459 74.1504 129.807 75.7369C136.898 80.4962 142.903 77.4884 142.958 77.4609C143.041 77.4214 143.132 77.3995 143.225 77.3967C143.308 77.4006 143.39 77.4225 143.464 77.4609C143.545 77.5015 143.615 77.5611 143.668 77.6345C143.721 77.708 143.756 77.7932 143.768 77.8827C144.514 83.88 141.503 86.5578 139.891 87.5298C140.875 88.1003 142.028 88.3112 143.151 88.1259C143.269 88.0965 143.393 88.1066 143.505 88.1546C143.617 88.2027 143.709 88.2861 143.768 88.3918C143.826 88.5 143.846 88.6242 143.827 88.7451C143.807 88.8661 143.747 88.9771 143.658 89.0612C141.795 90.8327 139.53 92.129 137.055 92.8394C137.165 95.3612 137.515 111.813 129.807 116.994C129.631 117.107 129.45 117.211 129.264 117.306V118.92C132.137 118.663 144.689 118.168 149.598 127.952C155.867 120.351 158.904 110.61 158.059 100.809C157.214 91.0083 152.555 81.925 145.076 75.4984L145.113 75.4526Z" fill="#FBC22D"/>
<path d="M195.994 116.004C195.097 114.739 193.955 113.666 192.637 112.845C191.318 112.025 189.848 111.475 188.314 111.226L187.724 111.125C184.615 110.628 181.435 111.38 178.883 113.217C176.331 115.053 174.615 117.824 174.113 120.919L172.741 129.282L196.685 133.207L198.066 124.844C198.331 123.307 198.283 121.734 197.928 120.215C197.572 118.697 196.914 117.265 195.994 116.004Z" fill="white"/>
<path d="M202.164 156.995C202.017 156.971 201.867 157.006 201.747 157.092C201.626 157.177 201.544 157.307 201.519 157.453L198.628 175.023C198.606 175.168 198.642 175.315 198.728 175.433C198.815 175.551 198.944 175.631 199.088 175.656H199.171C199.302 175.66 199.43 175.615 199.531 175.53C199.631 175.446 199.696 175.327 199.714 175.198L202.615 157.6C202.631 157.461 202.594 157.321 202.51 157.208C202.426 157.096 202.302 157.019 202.164 156.995Z" fill="#321951"/>
<path d="M197.2 166.532C197.129 166.519 197.055 166.521 196.984 166.536C196.913 166.552 196.846 166.581 196.787 166.623C196.728 166.665 196.678 166.719 196.639 166.78C196.601 166.842 196.576 166.91 196.565 166.982L195.8 171.567C195.779 171.711 195.815 171.858 195.901 171.977C195.987 172.095 196.116 172.175 196.261 172.2H196.362C196.493 172.199 196.619 172.153 196.718 172.069C196.817 171.985 196.884 171.869 196.906 171.741L197.661 167.156C197.679 167.013 197.642 166.868 197.556 166.752C197.47 166.636 197.343 166.557 197.2 166.532Z" fill="#321951"/>
<path d="M181.913 148.082C181.651 148.042 181.386 148.02 181.121 148.018C180.276 148.022 179.447 148.242 178.712 148.655C177.977 149.068 177.36 149.662 176.92 150.38C176.48 151.097 176.231 151.915 176.198 152.755C176.164 153.595 176.347 154.429 176.728 155.18L172.888 163.717C172.855 163.812 172.855 163.915 172.888 164.011L172.759 164.295L173.063 164.35C173.14 164.419 173.236 164.464 173.339 164.478L184.86 166.367H184.979C185.053 166.38 185.127 166.38 185.2 166.367H185.477V166.092C185.534 166.012 185.566 165.916 185.569 165.817C185.578 165.753 185.578 165.688 185.569 165.625L184.648 156.454C185.498 155.629 186.024 154.528 186.128 153.35C186.233 152.172 185.91 150.996 185.219 150.035C184.827 149.506 184.333 149.06 183.765 148.725C183.197 148.389 182.567 148.171 181.913 148.082Z" fill="#321951"/>
<path d="M161.91 149.843C161.765 149.818 161.616 149.852 161.496 149.936C161.375 150.02 161.293 150.148 161.266 150.292L160.345 155.932C160.332 156.003 160.333 156.077 160.349 156.148C160.366 156.22 160.396 156.287 160.439 156.346C160.482 156.405 160.537 156.455 160.6 156.492C160.663 156.53 160.733 156.554 160.805 156.564H160.879C161.01 156.566 161.137 156.52 161.236 156.436C161.336 156.352 161.402 156.235 161.422 156.106L162.343 150.466C162.365 150.327 162.332 150.184 162.252 150.068C162.171 149.952 162.049 149.871 161.91 149.843Z" fill="#321951"/>
<path d="M159.58 144.469C159.509 144.456 159.437 144.457 159.366 144.473C159.296 144.489 159.229 144.518 159.171 144.56C159.112 144.602 159.063 144.656 159.026 144.717C158.988 144.779 158.964 144.847 158.954 144.918L156.422 160.288C156.408 160.359 156.41 160.432 156.425 160.502C156.441 160.573 156.471 160.64 156.513 160.699C156.555 160.758 156.609 160.808 156.67 160.846C156.732 160.884 156.801 160.909 156.873 160.92H156.965C157.095 160.924 157.222 160.878 157.321 160.794C157.42 160.709 157.483 160.591 157.499 160.462L160.032 145.102C160.046 145.03 160.046 144.957 160.031 144.886C160.016 144.815 159.986 144.747 159.944 144.688C159.901 144.629 159.847 144.579 159.785 144.541C159.722 144.503 159.653 144.479 159.58 144.469Z" fill="#321951"/>
<path d="M100.596 18.0379H146.126C146.273 18.0379 146.413 17.98 146.517 17.8768C146.62 17.7736 146.679 17.6336 146.679 17.4877C146.679 17.3418 146.62 17.2018 146.517 17.0987C146.413 16.9955 146.273 16.9375 146.126 16.9375H100.596C100.449 16.9375 100.308 16.9955 100.205 17.0987C100.101 17.2018 100.043 17.3418 100.043 17.4877C100.043 17.6336 100.101 17.7736 100.205 17.8768C100.308 17.98 100.449 18.0379 100.596 18.0379Z" fill="#321951"/>
<path d="M146.126 200.361H98.7352C98.5886 200.361 98.4481 200.419 98.3445 200.522C98.2408 200.626 98.1826 200.766 98.1826 200.912C98.1826 201.057 98.2408 201.197 98.3445 201.301C98.4481 201.404 98.5886 201.462 98.7352 201.462H146.126C146.272 201.462 146.413 201.404 146.517 201.301C146.62 201.197 146.679 201.057 146.679 200.912C146.679 200.766 146.62 200.626 146.517 200.522C146.413 200.419 146.272 200.361 146.126 200.361Z" fill="#321951"/>
<path d="M132.413 197.197C132.486 197.197 132.558 197.183 132.625 197.155C132.692 197.128 132.753 197.087 132.804 197.036C132.855 196.985 132.896 196.924 132.924 196.857C132.952 196.791 132.966 196.719 132.966 196.647C132.966 196.575 132.952 196.503 132.924 196.436C132.896 196.37 132.855 196.309 132.804 196.258C132.753 196.207 132.692 196.166 132.625 196.139C132.558 196.111 132.486 196.097 132.413 196.097H119.861C119.789 196.097 119.717 196.111 119.65 196.139C119.583 196.166 119.522 196.207 119.47 196.258C119.419 196.309 119.378 196.37 119.351 196.436C119.323 196.503 119.309 196.575 119.309 196.647C119.309 196.719 119.323 196.791 119.351 196.857C119.378 196.924 119.419 196.985 119.47 197.036C119.522 197.087 119.583 197.128 119.65 197.155C119.717 197.183 119.789 197.197 119.861 197.197H132.413Z" fill="#321951"/>
<path d="M132.211 97.0028C131.29 96.9295 130.571 97.9199 130.452 99.3871C130.332 100.671 130.802 101.771 131.566 101.991C131.63 102.003 131.695 102.003 131.759 101.991C132.014 101.997 132.265 101.933 132.484 101.805C132.704 101.677 132.883 101.491 133.003 101.267C133.307 100.767 133.485 100.2 133.518 99.6164C133.638 98.25 133.058 97.0762 132.211 97.0028Z" fill="#321951"/>
<path d="M131.29 96.159C131.397 95.9906 131.548 95.854 131.727 95.7633C131.906 95.6726 132.105 95.6312 132.306 95.6434C132.506 95.6556 132.699 95.7208 132.865 95.8325C133.032 95.9441 133.165 96.098 133.251 96.2782C133.299 96.3681 133.37 96.4431 133.458 96.4949C133.546 96.5467 133.646 96.5732 133.748 96.5717C133.837 96.571 133.925 96.5522 134.006 96.5166C134.136 96.4484 134.233 96.3319 134.276 96.1927C134.319 96.0534 134.305 95.9028 134.237 95.7739C134.062 95.4279 133.801 95.1329 133.478 94.9175C133.156 94.7021 132.782 94.5738 132.395 94.545C132.006 94.5285 131.619 94.6108 131.271 94.784C130.923 94.9573 130.625 95.2159 130.406 95.5354C130.364 95.5947 130.335 95.6617 130.32 95.7324C130.305 95.803 130.304 95.876 130.318 95.9469C130.332 96.0179 130.36 96.0854 130.4 96.1454C130.44 96.2055 130.492 96.2569 130.553 96.2966C130.671 96.37 130.812 96.3967 130.948 96.3712C131.085 96.3457 131.207 96.27 131.29 96.159Z" fill="#321951"/>
<path d="M117.467 21.0273C117.319 21.0273 117.178 21.085 117.073 21.1879C116.967 21.2909 116.907 21.4308 116.905 21.5776C116.905 21.6506 116.919 21.7229 116.948 21.7903C116.976 21.8576 117.018 21.9187 117.07 21.9699C117.122 22.0211 117.184 22.0614 117.252 22.0886C117.32 22.1157 117.393 22.129 117.467 22.1278H129.282C129.354 22.1278 129.426 22.1135 129.492 22.0857C129.559 22.058 129.619 22.0173 129.67 21.9661C129.72 21.9149 129.76 21.8541 129.787 21.7874C129.813 21.7207 129.827 21.6494 129.825 21.5776C129.827 21.5057 129.813 21.4344 129.787 21.3677C129.76 21.301 129.72 21.2403 129.67 21.189C129.619 21.1378 129.559 21.0972 129.492 21.0694C129.426 21.0416 129.354 21.0273 129.282 21.0273H117.467Z" fill="#321951"/>
<path d="M126.768 110.832C126.658 110.995 126.509 111.128 126.333 111.218C126.157 111.308 125.962 111.352 125.764 111.345C125.569 111.327 125.382 111.26 125.221 111.149C125.059 111.038 124.929 110.888 124.843 110.713C124.775 110.582 124.657 110.483 124.515 110.438C124.374 110.394 124.22 110.407 124.088 110.474C123.962 110.546 123.868 110.662 123.826 110.8C123.783 110.938 123.794 111.087 123.858 111.217C124.033 111.562 124.294 111.857 124.617 112.072C124.94 112.287 125.313 112.416 125.7 112.446H125.82C126.184 112.439 126.541 112.345 126.861 112.173C127.182 112.001 127.456 111.755 127.661 111.455C127.742 111.332 127.771 111.182 127.742 111.038C127.713 110.894 127.627 110.767 127.505 110.685C127.386 110.613 127.244 110.587 127.108 110.615C126.971 110.642 126.85 110.719 126.768 110.832Z" fill="#321951"/>
<path d="M123.241 106.246C123.2 106.387 123.215 106.539 123.284 106.669C123.353 106.799 123.469 106.897 123.609 106.943L126.924 107.97H127.072C127.19 107.974 127.307 107.938 127.403 107.87C127.471 107.819 127.527 107.754 127.567 107.68C127.607 107.605 127.63 107.523 127.633 107.439L127.845 100.295C127.848 100.222 127.836 100.149 127.809 100.081C127.783 100.013 127.744 99.9501 127.693 99.8972C127.643 99.8442 127.582 99.8019 127.515 99.7725C127.448 99.7432 127.375 99.7275 127.302 99.7263C127.23 99.7225 127.158 99.7335 127.09 99.7587C127.023 99.7838 126.961 99.8226 126.909 99.8725C126.857 99.9224 126.817 99.9824 126.789 100.049C126.761 100.115 126.748 100.186 126.749 100.258L126.556 106.677L123.931 105.861C123.861 105.84 123.786 105.834 123.713 105.842C123.64 105.85 123.569 105.873 123.504 105.909C123.44 105.945 123.383 105.993 123.338 106.051C123.293 106.109 123.26 106.175 123.241 106.246Z" fill="#321951"/>
<path d="M121.279 96.0497C120.404 95.9764 119.658 96.9668 119.52 98.434C119.428 99.7178 119.898 100.818 120.653 101.038H120.856C121.107 101.04 121.353 100.973 121.569 100.845C121.785 100.718 121.962 100.534 122.08 100.314C122.38 99.8112 122.56 99.2463 122.605 98.6633C122.725 97.2969 122.126 96.1598 121.279 96.0497Z" fill="#321951"/>
<path d="M120.368 95.2426C120.476 95.0745 120.628 94.9383 120.808 94.8479C120.987 94.7576 121.187 94.7163 121.388 94.7285C121.588 94.7406 121.782 94.8057 121.949 94.917C122.116 95.0283 122.251 95.1818 122.338 95.3619C122.384 95.4496 122.452 95.5233 122.537 95.5751C122.621 95.6268 122.718 95.6545 122.817 95.6553C122.91 95.6579 123.002 95.6357 123.084 95.5911C123.149 95.5583 123.207 95.5128 123.254 95.4573C123.301 95.4019 123.336 95.3376 123.357 95.2683C123.379 95.199 123.386 95.1261 123.379 95.054C123.371 94.9818 123.35 94.9119 123.314 94.8483C123.138 94.5047 122.877 94.212 122.554 93.9983C122.231 93.7847 121.859 93.6574 121.473 93.6287C121.086 93.6063 120.7 93.6861 120.354 93.8601C120.007 94.034 119.714 94.2958 119.502 94.6191C119.459 94.6773 119.429 94.7432 119.413 94.8132C119.396 94.8832 119.394 94.9557 119.406 95.0266C119.418 95.0974 119.444 95.1652 119.483 95.2259C119.521 95.2866 119.572 95.3391 119.631 95.3802C119.748 95.4537 119.89 95.4803 120.026 95.4548C120.163 95.4293 120.285 95.3536 120.368 95.2426Z" fill="#321951"/>
<path d="M113.018 197.197C113.091 197.197 113.163 197.183 113.23 197.155C113.297 197.128 113.358 197.087 113.409 197.036C113.46 196.985 113.501 196.924 113.529 196.857C113.557 196.791 113.571 196.719 113.571 196.647C113.571 196.575 113.557 196.503 113.529 196.436C113.501 196.37 113.46 196.309 113.409 196.258C113.358 196.207 113.297 196.166 113.23 196.139C113.163 196.111 113.091 196.097 113.018 196.097H105.025C104.952 196.097 104.88 196.111 104.813 196.139C104.746 196.166 104.685 196.207 104.634 196.258C104.583 196.309 104.542 196.37 104.514 196.436C104.486 196.503 104.472 196.575 104.472 196.647C104.472 196.719 104.486 196.791 104.514 196.857C104.542 196.924 104.583 196.985 104.634 197.036C104.685 197.087 104.746 197.128 104.813 197.155C104.88 197.183 104.952 197.197 105.025 197.197H113.018Z" fill="#321951"/>
<path d="M120.303 65.127C112.582 65.127 105.035 67.4068 98.6148 71.6782C92.195 75.9496 87.1914 82.0207 84.2367 89.1237C81.282 96.2268 80.509 104.043 82.0153 111.583C83.5215 119.124 87.2396 126.05 92.6991 131.487C98.1587 136.923 105.115 140.626 112.687 142.126C120.26 143.625 128.109 142.856 135.242 139.913C142.376 136.971 148.472 131.989 152.762 125.596C157.052 119.204 159.341 111.688 159.341 104C159.329 93.6937 155.212 83.8134 147.894 76.5259C140.575 69.2385 130.653 65.1391 120.303 65.127ZM120.303 141.772C114.834 141.773 109.429 140.594 104.461 138.316C99.4926 136.038 95.0792 132.715 91.5243 128.576C93.6516 124.183 97.6208 121.405 103.321 120.323C105.854 119.862 108.438 119.745 111.002 119.974C111.002 120.433 110.956 120.69 110.956 120.717C110.858 121.977 111.022 123.244 111.439 124.438C111.856 125.632 112.516 126.727 113.378 127.655C114.24 128.583 115.286 129.323 116.449 129.83C117.612 130.336 118.868 130.597 120.137 130.597C121.407 130.597 122.663 130.336 123.826 129.83C124.989 129.323 126.034 128.583 126.897 127.655C127.759 126.727 128.419 125.632 128.836 124.438C129.253 123.244 129.417 121.977 129.319 120.717V119.983C131.87 119.745 144.201 119.066 148.769 128.613C148.814 128.674 148.867 128.729 148.925 128.778C145.369 132.86 140.972 136.133 136.034 138.375C131.095 140.617 125.731 141.776 120.303 141.772ZM112.982 102.065C112.898 102.057 112.814 102.069 112.736 102.099C112.657 102.129 112.587 102.177 112.531 102.239C111.764 102.562 110.903 102.588 110.118 102.312C109.349 102.076 108.693 101.567 108.276 100.882C108.096 100.59 107.98 100.263 107.937 99.9228C107.894 99.5828 107.925 99.2375 108.027 98.9102C108.334 98.2298 108.896 97.6956 109.593 97.4215C110.289 97.1474 111.066 97.1551 111.757 97.443C112.581 97.7175 113.27 98.2947 113.682 99.0569L113.792 99.3229C113.823 99.4061 113.875 99.48 113.943 99.5378C114.01 99.5956 114.092 99.6352 114.179 99.653C114.429 99.6958 114.686 99.6817 114.93 99.6118C115.174 99.542 115.399 99.4181 115.588 99.2495C117.061 98.0941 117.863 94.9578 117.946 89.9142C120.642 91.2755 123.501 92.2893 126.455 92.9312C129.58 93.6496 132.824 93.6934 135.968 93.0596C136.051 96.0949 136.115 111.4 129.19 116.031C126.427 117.865 122.744 117.819 118.286 115.765C118.158 115.725 118.02 115.733 117.897 115.787C117.774 115.841 117.675 115.937 117.619 116.059C117.562 116.18 117.552 116.318 117.59 116.446C117.629 116.574 117.712 116.684 117.826 116.756C119.938 117.818 122.257 118.407 124.622 118.48C125.84 118.479 127.047 118.246 128.177 117.792V120.708C128.177 122.841 127.326 124.886 125.811 126.395C124.297 127.903 122.243 128.75 120.101 128.75C117.959 128.75 115.904 127.903 114.39 126.395C112.875 124.886 112.024 122.841 112.024 120.708C112.024 120.396 112.945 108.787 113.451 102.624C113.457 102.489 113.412 102.357 113.325 102.254C113.239 102.15 113.116 102.083 112.982 102.065ZM129.282 118.874V117.26C129.469 117.165 129.65 117.061 129.825 116.948C137.534 111.767 137.193 95.3155 137.073 92.7936C139.548 92.0833 141.814 90.787 143.676 89.0155C143.766 88.9314 143.825 88.8203 143.845 88.6994C143.865 88.5784 143.844 88.4543 143.787 88.3461C143.728 88.2403 143.635 88.157 143.524 88.1089C143.412 88.0608 143.288 88.0507 143.17 88.0801C142.046 88.2654 140.893 88.0546 139.91 87.4841C141.521 86.512 144.514 83.816 143.787 77.8369C143.774 77.7474 143.74 77.6623 143.687 77.5888C143.634 77.5153 143.564 77.4557 143.483 77.4151C143.409 77.3768 143.327 77.3549 143.243 77.3509C143.151 77.3538 143.06 77.3756 142.976 77.4151C142.921 77.4151 136.917 80.4505 129.825 75.6911C127.477 74.1046 125.221 73.5728 122.992 74.1046C120.806 74.7482 118.93 76.1631 117.715 78.0845C114.919 76.6777 111.69 76.3795 108.681 77.25C104.261 78.5797 100.549 82.4863 97.63 88.8504C97.5889 88.957 97.5809 89.0733 97.6071 89.1844C97.6333 89.2955 97.6924 89.3962 97.7769 89.4734C97.8613 89.5505 97.9671 89.6006 98.0805 89.6171C98.194 89.6336 98.3097 89.6156 98.4128 89.5657C99.1973 89.3272 100.042 89.3827 100.789 89.7216C99.3983 93.1441 99.3392 96.9598 100.623 100.423C102.281 104.522 106.01 107.686 111.674 109.814C111.704 109.824 111.736 109.824 111.766 109.814C111.481 113.528 111.214 116.893 111.057 118.865C108.423 118.617 95.7881 117.948 90.7231 127.641C86.2212 122.08 83.3945 115.363 82.5705 108.268C81.7466 101.173 82.9593 93.9903 86.068 87.5536C89.1766 81.1168 94.0539 75.6893 100.134 71.9005C106.215 68.1116 113.249 66.1166 120.422 66.1468C127.594 66.177 134.612 68.2311 140.66 72.0709C146.708 75.9108 151.539 81.3791 154.593 87.8417C157.647 94.3044 158.798 101.497 157.914 108.585C157.03 115.673 154.147 122.366 149.598 127.888C144.726 118.168 132.174 118.617 129.282 118.874Z" fill="#321951"/>
<path d="M31.213 60.5234C31.1419 60.4155 31.039 60.3322 30.9183 60.285C30.8083 60.247 30.689 60.2453 30.5779 60.2799C30.4668 60.3146 30.3698 60.3839 30.3013 60.4776L24.8678 67.7313C24.7961 67.8265 24.7573 67.9423 24.7573 68.0614C24.7573 68.1804 24.7961 68.2963 24.8678 68.3915L41.1221 89.3364C41.1759 89.4016 41.2433 89.4542 41.3197 89.4906C41.3961 89.5271 41.4795 89.5464 41.5642 89.5473H41.6194C41.7136 89.5367 41.8034 89.5025 41.8807 89.448C41.958 89.3935 42.0202 89.3204 42.0615 89.2355L58.6381 54.8104C58.6959 54.6905 58.7081 54.5539 58.6725 54.4258C58.637 54.2977 58.5561 54.1867 58.4447 54.1134L51.6299 49.5283C51.5915 49.4966 51.5479 49.4718 51.501 49.4549C51.4676 49.4325 51.43 49.4169 51.3905 49.4091C51.2818 49.3846 51.1683 49.3934 51.0647 49.4343C50.9612 49.4752 50.8725 49.5463 50.8103 49.6383C50.7766 49.6855 50.7516 49.7383 50.7366 49.7942L40.0631 71.9221L31.213 60.5234ZM40.6801 73.2334L51.5194 50.7479L57.4501 54.7278L41.4629 87.9059L26.019 68.0155L30.7433 61.7156L39.7408 73.2976C39.7992 73.3716 39.8753 73.4297 39.9623 73.4666C40.0492 73.5034 40.144 73.5179 40.2381 73.5085C40.329 73.5033 40.4171 73.4753 40.4944 73.4272C40.5716 73.3791 40.6355 73.3125 40.6801 73.2334Z" fill="#321951"/>
<path d="M78.3917 35.4702C78.3921 35.343 78.3483 35.2196 78.2677 35.121C78.1871 35.0223 78.0747 34.9545 77.9496 34.9291C71.144 33.5627 54.07 29.0051 42.1533 16.1301C42.0449 16.0248 41.8995 15.9658 41.7481 15.9658C41.5967 15.9658 41.4512 16.0248 41.3429 16.1301C29.4722 28.9684 12.3614 33.5536 5.54654 34.9199C5.42142 34.9454 5.30901 35.0132 5.22843 35.1118C5.14784 35.2104 5.10404 35.3338 5.1045 35.461V71.7294C5.1045 73.0132 5.54654 103.293 41.5086 121.249C41.5857 121.287 41.6711 121.306 41.7573 121.304C41.8403 121.304 41.9223 121.285 41.9967 121.249C77.9128 103.284 78.3917 72.9857 78.3917 71.7294V35.4702ZM77.2865 71.7202C77.2865 72.9674 76.8445 102.477 41.7573 120.148C6.64244 102.477 6.20039 72.9765 6.20039 71.7294V35.9103C13.3191 34.4339 29.9326 29.8029 41.7941 17.2947C53.628 29.8029 70.2231 34.4248 77.3234 35.9012L77.2865 71.7202Z" fill="#321951"/>
<path d="M206.566 137.847C205.756 136.724 204.729 135.773 203.545 135.051L205.047 125.944C205.859 121.013 204.675 115.963 201.754 111.899C198.833 107.836 194.414 105.091 189.464 104.266L188.857 104.165C185.808 103.679 182.686 103.943 179.763 104.934C176.84 105.925 174.204 107.613 172.087 109.851V14.1864C172.082 10.4238 170.578 6.8169 167.905 4.15723C165.233 1.49755 161.609 0.0024259 157.831 0H82.7662C78.986 -3.13758e-06 75.3604 1.49405 72.6857 4.15399C70.011 6.81393 68.5059 10.4222 68.5011 14.1864V27.5475C60.6179 24.723 50.9206 19.7252 43.8295 11.041C43.5813 10.7418 43.2707 10.4999 42.9193 10.332C42.5678 10.1642 42.184 10.0744 41.7943 10.069C41.3886 10.0617 40.9868 10.1473 40.6196 10.319C40.2524 10.4907 39.9296 10.744 39.6761 11.0593C27.7041 25.6584 8.41074 29.84 2.78389 30.7754C2.15165 30.8732 1.57489 31.1916 1.15655 31.6737C0.738207 32.1558 0.505515 32.7702 0.5 33.4073V71.7115C0.5 72.0783 0.5 80.6892 5.54667 91.8035C10.2065 102.047 20.2078 116.334 41.518 126.357C41.6026 126.403 41.698 126.425 41.7943 126.421C41.8741 126.419 41.9525 126.401 42.0245 126.366C54.0425 120.717 62.5427 113.684 68.5471 106.558V193.814C68.5422 197.576 70.0367 201.187 72.7025 203.854C75.3683 206.52 78.9876 208.025 82.7662 208.037H157.831C161.609 208.032 165.232 206.534 167.903 203.873C170.574 201.212 172.075 197.604 172.077 193.841V179.691L191.748 182.91C192.296 183.002 192.851 183.048 193.406 183.048C195.848 183.028 198.206 182.154 200.067 180.578C201.927 179.003 203.172 176.825 203.582 174.428L208.343 145.495C208.567 144.167 208.525 142.808 208.22 141.495C207.915 140.183 207.353 138.943 206.566 137.847ZM188.719 105.064L189.317 105.165C194.027 105.951 198.232 108.564 201.011 112.431C203.79 116.299 204.916 121.105 204.144 125.798L202.698 134.583C201.806 134.142 200.853 133.833 199.871 133.666L197.596 133.29L198.978 124.927C199.257 123.276 199.207 121.587 198.83 119.955C198.453 118.324 197.756 116.783 196.78 115.42C195.804 114.057 194.568 112.899 193.142 112.013C191.716 111.126 190.128 110.529 188.47 110.254L187.862 110.162C186.21 109.888 184.52 109.944 182.89 110.327C181.26 110.709 179.722 111.411 178.367 112.391C175.617 114.353 173.759 117.321 173.201 120.644L171.82 129.007L169.545 128.631C168.991 128.54 168.43 128.494 167.869 128.494C167.444 128.497 167.019 128.528 166.598 128.585L168.044 119.8C168.556 116.699 169.884 113.788 171.893 111.364C173.901 108.941 176.51 107.085 179.462 105.98C182.414 104.874 185.606 104.559 188.719 105.064ZM196.685 133.171L172.74 129.246L174.113 120.882C174.623 117.794 176.343 115.033 178.894 113.204C181.445 111.375 184.62 110.628 187.724 111.125L188.313 111.226C191.41 111.75 194.173 113.471 196 116.016C197.827 118.56 198.57 121.72 198.066 124.807L196.685 133.171ZM41.7943 125.257C1.89981 106.375 1.63274 72.0691 1.63274 71.7206V33.4073C1.63938 33.0302 1.77991 32.6677 2.02941 32.384C2.2789 32.1003 2.62124 31.9138 2.9957 31.8575C8.72385 30.9405 28.358 26.6488 40.5602 11.7563C40.7084 11.5724 40.8963 11.4241 41.1099 11.3225C41.3236 11.2209 41.5575 11.1685 41.7943 11.1694C42.0284 11.1686 42.2596 11.2211 42.4702 11.3228C42.6809 11.4245 42.8655 11.5728 43.0099 11.7563C50.4786 20.8624 60.7192 25.9977 68.8602 28.8221H68.9155C72.7154 30.1462 76.6178 31.1583 80.5836 31.8483C80.9555 31.9031 81.2954 32.0884 81.542 32.371C81.7886 32.6535 81.9256 33.0146 81.9281 33.3889V71.7206C81.9281 71.8032 81.9281 80.4966 76.9551 91.4C72.3597 101.414 62.5519 115.417 41.7943 125.257ZM171.009 181.333V193.804C171.009 195.526 170.668 197.231 170.005 198.822C169.343 200.413 168.372 201.857 167.148 203.074C165.924 204.29 164.471 205.254 162.872 205.911C161.273 206.567 159.56 206.903 157.831 206.9H82.7662C79.2799 206.895 75.9377 205.513 73.4725 203.059C71.0073 200.604 69.6203 197.276 69.6154 193.804V105.21C82.8859 88.5939 83.0056 71.9591 82.9964 71.7206V33.4073C82.9935 32.7724 82.764 32.1591 82.3491 31.6771C81.9341 31.195 81.3606 30.8754 80.7309 30.7754C76.9546 30.1289 73.2372 29.1782 69.6154 27.9326V14.1772C69.6203 10.7065 71.0076 7.37948 73.4731 4.92618C75.9386 2.47287 79.2807 1.09369 82.7662 1.09126H157.831C161.314 1.09612 164.653 2.47667 167.115 4.92997C169.577 7.38328 170.961 10.709 170.963 14.1772V110.942C170.958 110.991 170.958 111.04 170.963 111.089C168.95 113.597 167.615 116.578 167.086 119.745L165.594 128.851C163.592 129.311 161.77 130.349 160.358 131.835C158.946 133.321 158.006 135.189 157.656 137.206L152.885 166.138C152.441 168.824 153.084 171.575 154.674 173.79C156.264 176.004 158.671 177.5 161.367 177.949L170.926 179.508L171.009 181.333ZM207.496 145.349L202.707 174.281C202.334 176.462 201.202 178.444 199.51 179.878C197.819 181.313 195.674 182.111 193.452 182.131C192.946 182.129 192.441 182.086 191.942 182.002L161.607 177.041C159.15 176.634 156.956 175.273 155.507 173.256C154.058 171.239 153.473 168.731 153.88 166.284L158.65 137.352C158.845 136.138 159.279 134.974 159.927 133.928C160.575 132.882 161.425 131.973 162.428 131.256C163.43 130.538 164.565 130.025 165.768 129.746C166.971 129.467 168.217 129.428 169.434 129.631L199.77 134.592C200.984 134.79 202.148 135.227 203.191 135.877C204.235 136.527 205.138 137.378 205.848 138.379C207.291 140.398 207.87 142.905 207.459 145.349H207.496Z" fill="#321951"/>
<path d="M115.616 12.7099C116.297 12.7118 116.964 12.5121 117.532 12.1364C118.099 11.7606 118.542 11.2256 118.804 10.5991C119.066 9.97257 119.136 9.28269 119.004 8.6168C118.872 7.9509 118.545 7.33893 118.064 6.85837C117.582 6.3778 116.969 6.05024 116.3 5.91716C115.632 5.78408 114.939 5.85146 114.309 6.11078C113.679 6.37009 113.141 6.80967 112.762 7.37388C112.383 7.93808 112.181 8.60154 112.181 9.28026C112.183 10.1875 112.545 11.0571 113.189 11.6995C113.832 12.3419 114.705 12.7051 115.616 12.7099Z" fill="#321951"/>
<path d="M125.653 11.9943C126.2 11.9943 126.734 11.833 127.188 11.5307C127.643 11.2284 127.997 10.7988 128.206 10.2961C128.415 9.79337 128.47 9.24022 128.363 8.70656C128.256 8.1729 127.993 7.68271 127.607 7.29796C127.221 6.91322 126.728 6.6512 126.192 6.54505C125.656 6.4389 125.101 6.49338 124.596 6.7016C124.091 6.90983 123.66 7.26244 123.356 7.71485C123.053 8.16726 122.891 8.69916 122.891 9.24327C122.891 9.9729 123.182 10.6726 123.7 11.1886C124.218 11.7045 124.921 11.9943 125.653 11.9943Z" fill="#321951"/>
</g>
<defs>
<clipPath id="clip0_2051_118277">
<rect width="208" height="208" fill="white" transform="translate(0.5)"/>
</clipPath>
</defs>
</svg>
