<svg width="253" height="208" viewBox="0 0 253 208" fill="none" xmlns="http://www.w3.org/2000/svg">
<g clip-path="url(#clip0_1277_81519)">
<path d="M32.4227 4.62891L73.4149 59.4109L75.0834 61.6446L75.294 61.9117C75.8132 63.1561 76.0882 64.4886 76.104 65.8368C76.1061 67.194 75.8407 68.5383 75.3229 69.793C74.805 71.0477 74.0449 72.1882 73.086 73.1494C72.127 74.1106 70.988 74.8736 69.7339 75.395C68.4798 75.9163 67.1353 76.1857 65.777 76.1878C64.8004 76.1894 63.8288 76.0476 62.8935 75.767L44.645 68.7584L4.77054 53.4382C4.67334 46.0897 6.39047 19.0346 32.4227 4.62891Z" fill="#8B6FE2"/>
<path d="M220.609 93.1758V91.8647C221.128 87.7777 226.214 85.0584 231.949 85.7787C237.327 86.4504 241.393 89.89 241.49 93.6695C241.628 94.9644 241.611 96.2711 241.442 97.5622C240.923 101.609 235.845 104.368 230.102 103.656C224.36 102.944 220.091 99.0271 220.601 94.9482L220.609 93.1758ZM227.77 97.1576C227.77 97.1576 231.682 93.6695 236.42 95.4095C235.454 94.6394 234.704 93.6321 234.244 92.4859C233.784 91.3397 233.63 90.0939 233.796 88.8703C233.796 88.8703 229.535 91.8323 225.874 90.6507C225.874 90.6507 229.009 93.7261 227.77 97.1576Z" fill="#FBC22D"/>
<path d="M234.573 59.1923C233.746 58.3552 233.018 57.4266 232.402 56.4244C230.402 53.6485 231.431 48.9302 234.938 45.4988C238.688 41.8083 243.847 40.9909 246.463 43.6536L247.16 44.56L248.197 45.8549C250.805 48.5175 249.89 53.6566 246.139 57.347C242.389 61.0375 237.189 61.8468 234.573 59.1923ZM244.22 51.3824C241.442 49.5777 242.017 45.6364 242.017 45.6364C240.016 48.5013 235.318 48.7117 235.318 48.7117C236.112 49.5029 236.687 50.4862 236.986 51.5657C237.286 52.6453 237.3 53.784 237.027 54.8706C239.49 51.0102 244.22 51.3824 244.22 51.3824Z" fill="#FBC22D"/>
<path d="M215.442 62.0905C217.121 61.0012 219.05 60.3552 221.047 60.2129C223.265 60.2364 225.385 61.1351 226.943 62.7133C228.501 64.2914 229.372 66.4209 229.365 68.6378C229.365 72.2797 226.206 75.9215 223.031 77.1112C221.873 77.7136 220.587 78.0273 219.281 78.0257C217.415 77.9737 215.618 77.309 214.167 76.1342C212.717 74.9594 211.694 73.34 211.257 71.5264C210.821 69.7127 210.994 67.8057 211.75 66.1001C212.506 64.3946 213.804 62.9854 215.442 62.0905ZM219.54 75.1041C219.54 75.1041 220.067 70.3373 223.469 68.6297C223.469 68.6297 219.022 67.877 218.107 64.486C218.107 64.486 217.839 69.1557 214.705 69.9569C214.705 69.965 218.957 70.9119 219.54 75.1041Z" fill="#FBC22D"/>
<path d="M206.378 30.325L207.812 28.8197C207.943 28.63 208.092 28.4538 208.258 28.2936C211.149 25.3559 216.843 26.2623 220.974 30.325C224.854 34.1126 225.996 39.3164 223.776 42.3837C223.087 43.4933 222.271 44.5198 221.347 45.4429C218.455 48.3726 212.761 47.4661 208.606 43.4115C204.451 39.3569 203.503 33.2628 206.378 30.325ZM218.674 40.6841C218.372 39.4866 218.387 38.2315 218.716 37.0413C219.046 35.8512 219.679 34.7668 220.553 33.894C220.553 33.894 215.369 33.6674 213.166 30.5031C213.166 30.5031 213.798 34.849 210.736 36.8399C210.728 36.8399 215.96 36.4272 218.674 40.6841Z" fill="#FBC22D"/>
<path d="M67.0406 124.172C83.9932 113.522 97.9569 110.414 105.247 109.483C105.805 117.576 113.443 123.954 122.79 123.954C130.72 123.954 137.418 119.349 139.613 113.028C144.587 113.975 156.371 118.774 178.289 140.69C177.941 140.941 166.852 149.083 165.718 172.253C160.964 168.207 156.947 164.322 154.314 161.667C150.426 187.768 153.585 203.258 153.585 203.258C149.057 208.559 83.9932 209.133 83.4262 203.751C81.7496 187.727 82.6891 164.006 83.3371 152.247C83.3371 152.247 79.7085 154.627 74.3384 157.37L73.6256 157.273C76.7359 134.175 67.1459 124.278 67.1459 124.278L67.0406 124.172Z" fill="#00DA9C"/>
<path d="M29.3369 0.509766L32.4229 4.62914C6.39064 19.0348 4.67352 46.0899 4.71402 53.4789L0.550797 51.8603C0.550797 51.8603 -2.19497 17.0682 29.3369 0.509766Z" fill="white"/>
<path d="M35.4845 85.7627C35.7333 85.6451 35.9556 85.4784 36.138 85.2725C36.3204 85.0666 36.459 84.8259 36.5455 84.5649C37.5499 85.5441 38.7243 85.9731 39.6639 85.5684C39.991 85.4163 40.2709 85.1786 40.4739 84.8805C41.5997 85.9893 42.9037 86.4991 43.9729 86.0216C44.2805 85.8761 44.5542 85.6676 44.776 85.4097C44.9979 85.1518 45.163 84.8502 45.2607 84.5244C45.6923 85.449 46.1847 86.3439 46.7349 87.2032C40.9598 86.5153 38.4246 92.1966 37.4203 95.7576L32.6172 93.8962C33.1689 91.1586 33.9687 88.4768 35.0066 85.884C35.1714 85.8692 35.3327 85.8283 35.4845 85.7627Z" fill="white"/>
<path d="M44.8961 79.7089C44.8706 79.7262 44.8486 79.7482 44.8313 79.7736C43.665 77.111 41.4133 75.5086 39.7691 76.156C41.2301 73.6154 42.8337 71.1593 44.5721 68.7994L62.8368 75.8485C63.7721 76.1291 64.7437 76.2709 65.7203 76.2693C67.0786 76.2672 68.4231 75.9978 69.6772 75.4765C70.9313 74.9551 72.0703 74.1921 73.0293 73.2309C73.9882 72.2697 74.7483 71.1292 75.2662 69.8745C75.784 68.6198 76.0494 67.2755 76.0473 65.9183C76.0315 64.5702 75.7565 63.2376 75.2373 61.9932L78.7121 66.6386C78.7121 66.6386 83.2722 71.632 78.7121 77.0139C75.4722 80.8177 70.3937 78.8025 70.3937 78.8025L66.7651 77.3376L63.7035 82.5334C58.8437 77.2081 54.3322 79.2962 50.744 83.4398C48.8973 81.1737 45.7061 78.9239 44.8961 79.7089Z" fill="white"/>
<path d="M178.289 140.69C179.48 141.871 180.719 143.118 181.942 144.404L198.789 161.691C203.957 154.408 211.749 142.268 215.863 132.394C217.418 128.809 219.038 124.269 222.278 122.327C223.19 121.796 224.131 121.318 225.097 120.894C226.773 120.085 229.025 114.849 231.05 114.476C233.075 114.104 232.241 118.523 232.241 118.523C235.075 117.831 237.951 117.322 240.85 117.001V116.734C240.85 116.734 244.9 104.7 248.375 103.648C250.627 102.96 250.627 106.31 250.627 106.31V106.521C252.044 106.715 252.036 108.949 252.036 109.094C253 109.863 252.23 112.251 251.898 113.254C250.003 119.017 245.289 122.966 239.619 124.835C226.871 129.076 228.15 143.377 215.264 178.881C206.84 202.1 181.95 186.124 165.726 172.285C166.852 149.082 177.941 140.941 178.289 140.69Z" fill="#FDC8B4"/>
<path d="M34.0347 85.7784C33.3735 85.4839 32.7774 85.0611 32.281 84.5346C31.7847 84.008 31.3979 83.3882 31.1431 82.7112C30.155 80.4289 30.479 78.0738 31.8883 77.4668C32.3576 77.3215 32.8586 77.312 33.3331 77.4395C33.8076 77.567 34.2362 77.8262 34.5693 78.1871C34.6494 77.8586 34.8004 77.5515 35.0116 77.2873C35.2229 77.0231 35.4893 76.8082 35.7923 76.6575C36.2745 76.505 36.7896 76.4893 37.2801 76.6122C37.7707 76.7351 38.2174 76.9918 38.5705 77.3535C38.8037 76.8432 39.2115 76.4328 39.7206 76.1962H39.7854C41.4054 75.5488 43.6814 77.1512 44.8477 79.8138C44.865 79.7883 44.887 79.7664 44.9125 79.7491C45.7225 78.9398 48.8975 81.2139 50.8252 83.48C51.862 84.694 52.5423 85.9079 52.2751 86.7172C47.8851 99.4881 39.9717 108.01 48.3548 138.173L48.7355 138.076C54.4508 132.978 60.5729 128.355 67.0407 124.253L67.1298 124.39C67.1298 124.39 76.736 134.288 73.6095 157.386L74.3223 157.483C61.3629 164.119 38.1574 172.908 31.3456 155.605C21.7152 131.124 25.2142 100.443 33.1437 85.8674L34.0347 85.7784ZM37.4366 95.7572C38.4409 92.1962 40.9761 86.5149 46.7511 87.2028C46.201 86.3435 45.7085 85.4486 45.277 84.524C45.1793 84.8498 45.0141 85.1514 44.7922 85.4093C44.5704 85.6672 44.2968 85.8757 43.9892 86.0212C42.9281 86.4825 41.616 86.0212 40.4901 84.8801C40.2871 85.1782 40.0073 85.4159 39.6801 85.568C38.7406 85.9727 37.5661 85.568 36.5618 84.5645C36.4753 84.8255 36.3366 85.0662 36.1542 85.2721C35.9718 85.478 35.7495 85.6447 35.5007 85.7622C35.354 85.8262 35.1983 85.8672 35.0391 85.8836C34.0011 88.4764 33.2014 91.1582 32.6497 93.8958L37.4366 95.7572Z" fill="#FDC8B4"/>
<path d="M103.78 75.9128C103.867 75.9208 103.953 75.9208 104.04 75.9128C105.044 75.9128 106 74.7798 106.348 73.1207C106.605 72.1511 106.48 71.1202 106 70.2396C105.903 70.0776 105.775 69.9363 105.624 69.8238C105.472 69.7113 105.3 69.6299 105.117 69.584C106.81 65.1733 108.357 62.1384 108.357 62.1384L108.43 62.0332C117.234 68.621 129.448 66.6624 129.448 66.6624C121.349 80.534 129.772 85.5517 129.772 85.5517C129.899 85.4474 130.032 85.3502 130.169 85.2603C131.433 84.4615 132.961 84.1939 134.421 84.5158C137.297 85.1065 139.208 87.6073 138.69 90.1C138.171 92.5926 135.644 93.9846 132.899 93.5719V93.6528C132.899 93.6528 132.793 94.4621 132.704 95.7408C132.704 96.4692 132.623 97.3595 132.623 98.3549C132.623 102.652 133.287 108.924 136.722 112.866C137.691 112.717 138.68 112.766 139.629 113.011C137.434 119.332 130.72 123.937 122.806 123.937C113.459 123.937 105.797 117.544 105.263 109.467C107.08 109.218 108.912 109.099 110.746 109.111C111.121 106.828 111.135 104.502 110.787 102.215C98.4185 99.9897 99.8764 86.2881 103.108 75.5082C103.285 75.7097 103.52 75.8511 103.78 75.9128ZM112.204 77.8228C112.266 78.1395 112.414 78.4329 112.633 78.6701C112.852 78.9073 113.132 79.0791 113.443 79.1662C113.53 79.1742 113.616 79.1742 113.702 79.1662C114.715 79.1662 115.679 77.9927 116.019 76.3741C116.383 74.5694 115.841 73.0479 114.739 72.8132C113.638 72.5785 112.528 73.8248 112.164 75.581C111.997 76.3207 112.011 77.0896 112.204 77.8228Z" fill="#FDC8B4"/>
<path d="M114.739 72.8373C115.841 73.072 116.359 74.5935 116.019 76.3982C115.679 78.0168 114.715 79.1903 113.703 79.1903C113.617 79.1983 113.53 79.1983 113.444 79.1903C113.133 79.1032 112.852 78.9314 112.633 78.6942C112.414 78.457 112.266 78.1636 112.204 77.8469C112.028 77.1182 112.028 76.3581 112.204 75.6294C112.528 73.8489 113.678 72.6107 114.739 72.8373Z" fill="#321951"/>
<path d="M104.793 91.1036C105.082 91.1786 105.387 91.1722 105.673 91.0851C105.958 90.998 106.215 90.8335 106.413 90.6099C106.508 90.5185 106.634 90.4673 106.766 90.467C106.898 90.4667 107.024 90.5173 107.12 90.6083C107.215 90.6993 107.271 90.8235 107.277 90.9551C107.283 91.0866 107.237 91.2152 107.15 91.314C106.897 91.573 106.595 91.7782 106.261 91.9173C105.927 92.0564 105.568 92.1265 105.206 92.1233C105.001 92.1231 104.797 92.0986 104.599 92.0504C104.15 91.9408 103.738 91.718 103.4 91.4035C103.062 91.0889 102.811 90.693 102.671 90.2538C102.628 90.125 102.638 89.9844 102.699 89.863C102.759 89.7416 102.866 89.6493 102.995 89.6063C103.124 89.5634 103.264 89.5734 103.386 89.6341C103.507 89.6948 103.6 89.8013 103.643 89.9301C103.719 90.2072 103.864 90.4603 104.066 90.6657C104.267 90.871 104.517 91.0217 104.793 91.1036Z" fill="#321951"/>
<path d="M117.161 71.8017C117.111 71.8132 117.058 71.8132 117.007 71.8017C116.899 71.8016 116.794 71.767 116.706 71.703C116.619 71.639 116.554 71.5488 116.522 71.4456C116.437 71.1702 116.282 70.9217 116.071 70.7244C115.861 70.5272 115.603 70.388 115.323 70.3207C115.039 70.2535 114.743 70.2639 114.465 70.3508C114.187 70.4377 113.938 70.5978 113.743 70.8144C113.697 70.8657 113.642 70.9073 113.579 70.9364C113.517 70.9656 113.449 70.9819 113.38 70.9842C113.311 70.9865 113.242 70.9749 113.178 70.9499C113.114 70.925 113.055 70.8873 113.006 70.8392C112.957 70.791 112.918 70.7334 112.891 70.6697C112.865 70.6061 112.852 70.5378 112.853 70.4689C112.853 70.4 112.868 70.332 112.896 70.269C112.924 70.206 112.964 70.1492 113.014 70.1022C113.333 69.7648 113.735 69.5165 114.179 69.3819C114.624 69.2474 115.096 69.2313 115.548 69.3351C116.001 69.439 116.419 69.6593 116.76 69.9741C117.101 70.2889 117.354 70.6874 117.493 71.13C117.519 71.1957 117.53 71.2659 117.527 71.3362C117.524 71.4065 117.506 71.4754 117.475 71.5385C117.443 71.6016 117.399 71.6575 117.346 71.7028C117.292 71.7481 117.229 71.7818 117.161 71.8017Z" fill="#321951"/>
<path d="M107.66 85.1147C107.356 85.2342 107.031 85.2893 106.704 85.2765C105.883 85.2403 105.069 85.1154 104.275 84.9042C104.208 84.8876 104.146 84.8574 104.091 84.8157C104.037 84.774 103.991 84.7216 103.958 84.6617C103.924 84.6017 103.904 84.5356 103.897 84.4674C103.89 84.3991 103.897 84.3302 103.918 84.2649L106.453 75.5972C106.473 75.5327 106.505 75.4728 106.548 75.4207C106.59 75.3687 106.643 75.3256 106.702 75.294C106.762 75.2624 106.827 75.2429 106.894 75.2366C106.961 75.2303 107.029 75.2373 107.093 75.2573C107.157 75.2758 107.217 75.307 107.269 75.3489C107.321 75.3908 107.364 75.4427 107.396 75.5015C107.428 75.5603 107.447 75.6248 107.454 75.6913C107.46 75.7577 107.453 75.8248 107.433 75.8886L105.004 84.0383C105.714 84.2406 106.458 84.2957 107.19 84.2001C107.311 84.1409 107.45 84.1315 107.577 84.1739C107.705 84.2163 107.81 84.3071 107.871 84.4267C107.932 84.5463 107.944 84.6849 107.905 84.8132C107.865 84.9415 107.778 85.0496 107.66 85.1147Z" fill="#321951"/>
<path d="M223.21 77.5883C222 78.204 220.663 78.5256 219.306 78.5271C217.323 78.4859 215.41 77.7925 213.863 76.5543C212.315 75.3161 211.22 73.6023 210.746 71.6787C210.273 69.7551 210.448 67.7291 211.244 65.915C212.041 64.1009 213.414 62.5999 215.15 61.6449C216.913 60.4891 218.944 59.8063 221.047 59.6621C222.217 59.6727 223.374 59.9134 224.45 60.3706C225.527 60.8278 226.504 61.4925 227.323 62.3267C228.143 63.1609 228.791 64.1482 229.228 65.2324C229.666 66.3166 229.886 67.4763 229.876 68.6454C229.876 72.611 226.417 76.3824 223.21 77.5883ZM211.473 69.5518C211.454 71.6411 212.265 73.6526 213.729 75.1443C215.193 76.636 217.19 77.486 219.281 77.5073C220.507 77.5113 221.716 77.2198 222.805 76.6576C224.376 75.8384 225.631 74.5199 226.37 72.9099C227.109 71.3 227.291 69.49 226.888 67.7652C226.484 66.0404 225.517 64.4989 224.14 63.3834C222.763 62.268 221.054 61.6422 219.281 61.6044C218.024 61.6003 216.785 61.909 215.677 62.5028C214.4 63.1831 213.333 64.1995 212.592 65.4419C211.851 66.6843 211.464 68.1056 211.473 69.5518ZM221.047 60.6495H220.642C222.737 60.9947 224.641 62.0765 226.008 63.6998C227.376 65.3232 228.118 67.3813 228.102 69.5033C228.099 70.609 227.899 71.7053 227.511 72.7405C228.349 71.5237 228.816 70.0899 228.855 68.613C228.868 66.5272 228.054 64.5211 226.591 63.0334C225.128 61.5456 223.134 60.6972 221.047 60.6737V60.6495Z" fill="#321951"/>
<path d="M217.596 64.4697C217.601 64.3474 217.65 64.2309 217.734 64.1415C217.818 64.0522 217.931 63.996 218.053 63.9832C218.175 63.9705 218.297 64.002 218.398 64.072C218.499 64.142 218.571 64.2458 218.601 64.3645C219.411 67.3913 223.509 68.1278 223.55 68.1359C223.656 68.1547 223.753 68.2062 223.829 68.2831C223.904 68.36 223.954 68.4584 223.971 68.5648C223.987 68.6704 223.969 68.7783 223.919 68.8729C223.87 68.9675 223.791 69.0439 223.695 69.0909C220.593 70.6447 220.051 75.1202 220.051 75.1607C220.037 75.2845 219.978 75.3989 219.886 75.4824C219.793 75.5659 219.673 75.6127 219.548 75.6139C219.426 75.6132 219.308 75.5687 219.216 75.4885C219.124 75.4083 219.064 75.2977 219.046 75.1768C218.52 71.3974 214.762 70.4991 214.6 70.4586C214.49 70.4303 214.393 70.3665 214.324 70.2771C214.254 70.1878 214.217 70.078 214.217 69.9649C214.217 69.8519 214.254 69.742 214.324 69.6527C214.393 69.5633 214.49 69.4995 214.6 69.4712C217.313 68.7752 217.596 64.5183 217.596 64.4697ZM219.467 73.1131C219.939 71.4463 220.895 69.9565 222.213 68.8319C220.675 68.3809 219.32 67.4544 218.342 66.1854C218.054 67.6651 217.24 68.9906 216.049 69.9164C217.523 70.5571 218.73 71.6862 219.467 73.1131Z" fill="#321951"/>
<path d="M236.25 95.8867C235.435 95.5882 234.575 95.4348 233.707 95.4335C231.659 95.5083 229.692 96.2469 228.102 97.5377C228.058 97.5802 228.006 97.6135 227.949 97.6357C227.892 97.658 227.831 97.6687 227.77 97.6672C227.665 97.6701 227.563 97.6388 227.478 97.5782C227.385 97.5149 227.316 97.4227 227.28 97.3158C227.245 97.2089 227.246 97.0935 227.284 96.9874C228.401 93.9039 225.542 91.039 225.518 91.0147C225.436 90.9335 225.384 90.8273 225.369 90.713C225.354 90.5986 225.378 90.4827 225.437 90.3834C225.496 90.285 225.586 90.2097 225.694 90.1699C225.802 90.1302 225.92 90.1284 226.028 90.1649C226.576 90.3371 227.147 90.4217 227.721 90.4158C230.629 90.4158 233.48 88.4654 233.504 88.4492C233.585 88.3886 233.683 88.3535 233.784 88.3483C233.885 88.3432 233.985 88.3682 234.072 88.4203C234.159 88.4724 234.229 88.5491 234.272 88.6407C234.315 88.7324 234.33 88.8347 234.314 88.9348C234.155 90.0691 234.296 91.2252 234.722 92.2885C235.149 93.3518 235.846 94.2853 236.744 94.9965C236.841 95.0694 236.908 95.1743 236.935 95.2924C236.961 95.4105 236.944 95.5341 236.888 95.6411C236.831 95.7481 236.739 95.8316 236.626 95.8766C236.514 95.9216 236.389 95.9252 236.274 95.8867H236.25ZM233.221 89.8169C231.546 90.7939 229.659 91.3494 227.721 91.4355C227.535 91.4355 227.34 91.4355 227.154 91.4355C228.133 92.747 228.626 94.3577 228.547 95.9919C230.092 95.011 231.877 94.4734 233.707 94.438C234.072 94.4381 234.438 94.4625 234.8 94.5109C233.751 93.1734 233.193 91.5162 233.221 89.8169Z" fill="#321951"/>
<path d="M242.017 93.6043C242.157 94.9503 242.144 96.3079 241.976 97.6508C241.482 101.544 237.116 104.295 231.916 104.295C231.291 104.297 230.666 104.26 230.045 104.182C224.019 103.421 219.565 99.2614 220.099 94.972V93.1996C220.059 92.7663 220.059 92.33 220.099 91.8967C220.103 91.8752 220.103 91.8534 220.099 91.8319C220.585 87.9796 224.805 85.1875 230.118 85.1875C230.757 85.1892 231.395 85.227 232.03 85.3008C237.594 85.9644 241.871 89.5335 242.017 93.6043ZM230.175 103.146C235.642 103.826 240.486 101.293 240.964 97.4809C240.964 97.3676 240.964 97.2381 241.004 97.1005C239.384 99.5284 235.991 101.147 231.949 101.147C231.312 101.146 230.677 101.106 230.045 101.026C226.069 100.532 222.756 98.5492 221.136 95.9594C221.379 99.4232 225.186 102.555 230.175 103.146ZM230.126 86.1506C225.34 86.1506 221.557 88.5785 221.12 91.8886V93.1106C221.533 96.5259 225.34 99.4394 230.175 100.046C230.764 100.117 231.356 100.153 231.949 100.152C236.752 100.152 240.543 97.7237 240.964 94.3974C240.993 94.1557 241.006 93.9124 241.004 93.669C240.915 90.0838 237.003 86.9032 231.908 86.2639C231.317 86.1953 230.722 86.1628 230.126 86.1668V86.1506Z" fill="#321951"/>
<path d="M219.16 40.5386C219.196 40.6559 219.188 40.7825 219.137 40.8944C219.087 41.0062 218.997 41.0956 218.884 41.1456C218.819 41.1779 218.747 41.1945 218.674 41.1941C218.588 41.1934 218.504 41.1715 218.43 41.1306C218.355 41.0897 218.291 41.0309 218.244 40.9594C215.709 36.9938 210.833 37.3418 210.768 37.3499C210.655 37.3595 210.541 37.3307 210.445 37.268C210.35 37.2054 210.278 37.1125 210.242 37.0044C210.205 36.8962 210.206 36.7789 210.245 36.6714C210.283 36.5638 210.356 36.4722 210.452 36.4111C213.206 34.6307 212.672 30.6165 212.664 30.576C212.647 30.4625 212.67 30.3469 212.728 30.2478C212.785 30.1487 212.875 30.0718 212.981 30.0298C213.088 29.9877 213.206 29.9827 213.316 30.0158C213.426 30.0488 213.521 30.1179 213.587 30.2119C215.62 33.1254 220.528 33.3843 220.577 33.3843C220.676 33.3885 220.771 33.4214 220.852 33.4788C220.932 33.5363 220.995 33.616 221.031 33.7081C221.066 33.8003 221.073 33.901 221.052 33.9975C221.03 34.094 220.981 34.1819 220.909 34.2503C220.097 35.0568 219.508 36.0606 219.201 37.1631C218.895 38.2656 218.88 39.4289 219.16 40.5386ZM213.725 31.8952C213.714 33.5285 213.142 35.1086 212.105 36.3707C214.303 36.5379 216.376 37.4551 217.977 38.9686C217.954 37.2787 218.508 35.6315 219.548 34.2989C217.419 34.0634 215.4 33.23 213.725 31.8952Z" fill="#321951"/>
<path d="M224.254 42.5781C223.548 43.7505 222.708 44.8369 221.751 45.8153C221.107 46.4343 220.345 46.9174 219.51 47.2358C218.675 47.5543 217.785 47.7014 216.892 47.6687C213.626 47.5175 210.542 46.1283 208.266 43.784C203.981 39.5594 202.912 33.1092 205.99 29.9772L207.415 28.4638C207.557 28.2782 207.708 28.0999 207.869 27.9297C208.51 27.3058 209.271 26.8185 210.107 26.4972C210.942 26.1758 211.834 26.0272 212.728 26.0602C215.988 26.2176 219.065 27.6129 221.33 29.961C225.323 33.8619 226.563 39.26 224.254 42.57V42.5781ZM209.003 43.0556C212.947 46.8998 218.341 47.8143 221.022 45.0951L221.282 44.8199C220.477 45.0983 219.63 45.2379 218.779 45.2326C215.502 45.0796 212.408 43.6812 210.128 41.3237C207.083 38.3293 205.649 34.4851 206.16 31.3692C204.232 34.307 205.398 39.5108 209.003 43.0556ZM220.617 30.6894C218.546 28.528 215.727 27.2372 212.737 27.0799C211.982 27.0504 211.229 27.1736 210.524 27.442C209.818 27.7104 209.174 28.1185 208.63 28.6419C208.482 28.7945 208.344 28.9567 208.217 29.1274C206.079 31.9681 207.237 37.002 210.882 40.6034C212.964 42.7597 215.785 44.0492 218.779 44.2129C219.534 44.2461 220.287 44.1262 220.994 43.8606C221.702 43.5949 222.348 43.1889 222.893 42.6671C223.063 42.4922 223.22 42.3056 223.363 42.1087C225.469 39.179 224.295 34.2827 220.617 30.6894Z" fill="#321951"/>
<path d="M244.706 51.5688C244.671 51.6761 244.601 51.7683 244.507 51.8302C244.413 51.892 244.3 51.9197 244.188 51.9088C244.115 51.9088 239.733 51.6093 237.457 55.146C237.412 55.2194 237.349 55.2802 237.274 55.3227C237.198 55.3651 237.114 55.3879 237.028 55.3888C236.955 55.3892 236.882 55.3725 236.817 55.3402C236.705 55.2903 236.615 55.2009 236.564 55.089C236.513 54.9771 236.505 54.8506 236.542 54.7332C236.794 53.7332 236.781 52.6848 236.504 51.6913C236.227 50.6979 235.696 49.7937 234.962 49.0681C234.891 48.9987 234.842 48.9101 234.82 48.8132C234.799 48.7163 234.806 48.6152 234.842 48.5224C234.877 48.4295 234.939 48.349 235.019 48.2907C235.099 48.2324 235.195 48.1988 235.294 48.194C235.343 48.194 239.765 47.9674 241.596 45.3372C241.662 45.2419 241.758 45.1719 241.869 45.1387C241.98 45.1054 242.099 45.1109 242.207 45.1542C242.314 45.1976 242.403 45.2761 242.46 45.3771C242.517 45.478 242.538 45.5952 242.519 45.7095C242.519 45.7095 242.025 49.3433 244.504 50.9457C244.605 51.0092 244.681 51.1065 244.718 51.2205C244.755 51.3344 244.751 51.4578 244.706 51.5688ZM241.466 47.0205C239.982 48.1752 238.214 48.9078 236.347 49.1409C237.239 50.3021 237.726 51.7236 237.732 53.1875C239.16 51.8791 240.978 51.0746 242.908 50.8971C242.011 49.7906 241.504 48.4196 241.466 46.9963V47.0205Z" fill="#321951"/>
<path d="M238.623 61.2808C237.81 61.3089 236.999 61.1729 236.239 60.8809C235.479 60.5889 234.786 60.1469 234.201 59.5813C233.359 58.6962 232.62 57.7188 231.998 56.6677C229.843 53.6409 230.961 48.688 234.606 45.1189C236.667 42.9841 239.465 41.7137 242.43 41.5661C243.244 41.5381 244.056 41.6749 244.816 41.9684C245.576 42.2618 246.269 42.7059 246.853 43.2737L246.893 43.3304C247.161 43.6214 247.394 43.9418 247.59 44.2853L248.529 45.4993C251.324 48.3319 250.4 53.8352 246.464 57.7117C244.403 59.859 241.597 61.1362 238.623 61.2808ZM235.294 45.904C231.99 49.1412 230.929 53.5519 232.816 56.166C232.948 56.3451 233.091 56.5154 233.245 56.6758C233.736 57.1394 234.315 57.4994 234.949 57.7344C235.582 57.9694 236.256 58.0745 236.931 58.0436C239.629 57.9082 242.175 56.7506 244.05 54.8063C247.152 51.7633 248.302 47.5226 246.731 44.8842L246.091 44.0749C245.603 43.606 245.025 43.2403 244.391 42.9997C243.758 42.7591 243.083 42.6486 242.406 42.6748C239.721 42.7952 237.18 43.9256 235.294 45.8392V45.904ZM248.44 47.0775C248.626 49.8048 247.314 52.9773 244.763 55.4781C242.699 57.6141 239.898 58.8845 236.931 59.0309C236.217 59.033 235.507 58.9266 234.825 58.7153L234.938 58.8286C237.368 61.2565 242.228 60.4472 245.751 56.9834C248.894 53.8837 249.963 49.7239 248.44 47.0775Z" fill="#321951"/>
<path d="M29.102 0.064891C29.208 0.00670374 29.3317 -0.0106054 29.4496 0.0162435C29.5676 0.0430924 29.6715 0.112234 29.7419 0.210566L73.82 59.1038L75.4967 61.3375V61.3861L79.1253 66.2419C79.1739 66.2905 83.9365 71.6238 79.1253 77.289C78.434 78.098 77.5705 78.7424 76.598 79.175C75.6254 79.6077 74.5684 79.8177 73.5042 79.7897C72.3997 79.7876 71.3038 79.596 70.2643 79.2232L67.0244 77.9688L64.1815 82.8246C64.1423 82.8935 64.0874 82.9521 64.0213 82.9957C63.9551 83.0393 63.8796 83.0667 63.8008 83.0755C63.7216 83.0827 63.6419 83.0718 63.5676 83.0438C63.4932 83.0157 63.4262 82.9713 63.3715 82.9137C61.541 80.9147 59.67 79.903 57.799 79.903H57.7261C55.7012 79.903 53.6115 81.1494 51.4975 83.4964C52.3074 84.5323 53.1174 85.8433 52.761 86.8307C51.9915 89.0563 51.1411 91.1848 50.2582 93.2404C46.2084 102.952 42.0371 113.052 48.6869 137.388C54.339 132.365 60.3844 127.802 66.7653 123.743C83.9851 112.915 98.2242 109.847 105.174 108.981C106.877 108.757 108.591 108.635 110.309 108.617C110.58 106.636 110.58 104.626 110.309 102.645C106.745 101.924 104.088 100.217 102.428 97.4974C99.5526 92.8115 99.6093 85.3578 102.606 75.3952C102.639 75.2868 102.707 75.1927 102.801 75.1281C102.765 75.0358 102.76 74.9348 102.784 74.8392C102.809 74.7435 102.863 74.6578 102.938 74.594C102.91 74.5072 102.91 74.4137 102.938 74.3269C103.359 72.9754 103.813 71.6481 104.283 70.3856C104.317 70.2969 104.383 70.2245 104.469 70.1833C104.469 70.1833 104.469 70.1266 104.469 70.0861C104.47 70.0141 104.487 69.9431 104.519 69.8786C104.552 69.8142 104.598 69.7578 104.655 69.7139C104.623 69.6194 104.623 69.517 104.655 69.4225C106.065 65.7482 107.377 62.948 107.774 62.1387C104.149 59.2556 101.551 55.2827 100.363 50.8084C100.331 50.6999 100.337 50.5842 100.379 50.4793C100.421 50.3745 100.496 50.2865 100.594 50.2291C100.691 50.1717 100.804 50.1482 100.917 50.1622C101.029 50.1763 101.133 50.2271 101.213 50.3067C102.657 51.508 104.495 52.131 106.372 52.0548H106.453C105.773 50.9062 105.304 49.6454 105.068 48.332C104.599 45.7503 104.817 41.6552 108.511 36.8236C108.563 36.7605 108.629 36.7096 108.703 36.6747C108.777 36.6397 108.858 36.6215 108.94 36.6213C109.022 36.6248 109.103 36.6488 109.173 36.6912C109.244 36.7336 109.303 36.793 109.345 36.8641C109.402 36.945 114.837 45.378 127.577 44.5444C131.627 44.2773 134.867 45.2809 137.208 47.5146C140.391 50.5899 140.812 55.0573 140.861 56.5788C145.477 56.7829 149.833 58.7706 153.01 62.1226C157.578 67.035 159.352 74.6749 158.283 84.8398C158.271 84.9464 158.226 85.0467 158.154 85.1263C158.082 85.2059 157.987 85.2608 157.882 85.2832C157.777 85.3056 157.668 85.2943 157.57 85.2511C157.472 85.2078 157.39 85.1347 157.335 85.0421C157.335 85.0421 156.574 83.8282 153.626 83.2778C152.905 85.9728 148.766 99.1969 135.968 99.1888C135.017 99.1811 134.067 99.1081 133.126 98.9703C133.19 103.203 133.935 108.731 136.916 112.348C137.855 112.267 138.8 112.333 139.719 112.542C144.862 113.53 156.728 118.442 178.597 140.31L178.654 140.35C178.654 140.35 178.654 140.35 178.654 140.399C179.828 141.564 181.027 142.786 182.266 144.065L198.789 160.915C201.932 156.447 210.825 143.385 215.458 132.209L215.879 131.189C217.305 127.693 218.925 123.735 222.043 121.89C222.958 121.358 223.902 120.877 224.87 120.449C225.494 120.158 226.344 118.928 227.17 117.746C228.369 116.022 229.6 114.242 230.945 113.991C231.176 113.939 231.416 113.946 231.644 114.011C231.872 114.076 232.08 114.197 232.249 114.363C233.018 115.132 232.962 116.856 232.848 117.892C235.318 117.324 237.816 116.889 240.332 116.589C240.778 115.262 244.576 104.287 248.189 103.195C248.487 103.081 248.808 103.042 249.124 103.082C249.441 103.121 249.743 103.238 250.003 103.422C250.951 104.126 251.097 105.639 251.121 106.165C252.085 106.578 252.465 107.784 252.506 108.925C253.356 109.896 252.887 111.822 252.352 113.441C250.505 119.025 246.034 123.258 239.749 125.346C231.342 128.138 229.22 135.324 224.676 151.073C222.521 158.471 219.816 167.68 215.709 179.084C213.401 185.453 209.683 189.346 204.67 190.673C203.326 191.02 201.943 191.191 200.555 191.183C189.515 191.183 175.616 181.471 165.362 172.698C160.923 168.903 157.19 165.333 154.646 162.808C151.05 187.897 154.031 203.063 154.063 203.209C154.079 203.286 154.077 203.365 154.057 203.441C154.038 203.517 154.001 203.587 153.95 203.646C151.463 206.56 132.226 208.033 114.472 208.033C102.015 208.033 90.2866 207.304 85.5888 205.847C83.8393 205.305 82.9807 204.674 82.8997 203.856C81.2798 188.334 82.0898 165.9 82.7539 153.259C81.3689 154.116 78.3963 155.913 74.549 157.88C66.5709 161.926 56.179 166.159 47.2776 166.159C44.7338 166.2 42.2037 165.781 39.8097 164.921C35.6546 163.351 32.6415 160.259 30.8596 155.735C21.4559 131.812 24.469 100.702 32.6577 85.6167C31.7789 84.9034 31.0914 83.9828 30.6571 82.9379C29.5313 80.3562 29.9686 77.7584 31.6615 77.0219C32.1013 76.8586 32.5753 76.8085 33.0396 76.8764C33.5039 76.9443 33.9436 77.1279 34.3181 77.4104C34.5835 76.8757 35.0236 76.4474 35.5655 76.1964C36.0364 76.0262 36.5423 75.9763 37.0374 76.0513C37.5325 76.1262 38.001 76.3235 38.4004 76.6253C38.6625 76.2763 39.0077 75.9981 39.4047 75.816C41.2919 72.5788 43.009 70.1509 43.7542 69.0826L4.51152 53.9971L0.348297 52.3785C0.257538 52.344 0.178299 52.2848 0.119583 52.2075C0.0608673 52.1303 0.0250549 52.0381 0.0162201 51.9415C0.0162201 51.5692 -2.37317 16.5828 29.102 0.064891ZM74.6624 61.9202L32.2851 5.26874C7.37877 19.3426 5.20808 44.9976 5.20808 53.1231L62.9017 75.29H63.007C63.8958 75.5529 64.8178 75.6865 65.7447 75.6865C67.3536 75.6833 68.9372 75.2862 70.357 74.5302C71.7768 73.7741 72.9897 72.682 73.8895 71.3493C74.7893 70.0167 75.3486 68.4841 75.5187 66.8855C75.6887 65.2869 75.4642 63.6711 74.8649 62.1792L74.7029 61.9688L74.6624 61.9202ZM70.6126 78.2682C71.5454 78.591 72.5251 78.7578 73.5123 78.7619C74.4322 78.7974 75.3482 78.6227 76.1903 78.251C77.0325 77.8794 77.7787 77.3206 78.372 76.6172C82.5757 71.6562 78.5583 67.1079 78.372 66.9056L76.4848 64.3401C76.5617 64.8409 76.6023 65.3467 76.6063 65.8535C76.6008 68.5963 75.556 71.2354 73.6822 73.2398C71.8083 75.2443 69.2444 76.4654 66.5061 76.6577L70.6126 78.2682ZM136.811 113.376C136.718 113.4 136.62 113.398 136.528 113.37C136.437 113.341 136.355 113.287 136.292 113.214C132.793 109.208 132.064 102.928 132.064 98.3714C132.064 97.3436 132.105 96.421 132.145 95.725C132.186 95.029 132.259 94.3815 132.299 94.0173C130.816 93.7036 129.499 92.857 128.598 91.638C128.52 91.5278 128.489 91.3919 128.51 91.2589C128.531 91.126 128.603 91.0065 128.711 90.9258C128.765 90.8854 128.826 90.8562 128.892 90.84C128.957 90.8238 129.025 90.8209 129.092 90.8315C129.158 90.8421 129.222 90.8659 129.279 90.9016C129.336 90.9372 129.385 90.984 129.424 91.0391C130.203 92.0794 131.34 92.7945 132.615 93.0462C132.722 93.0687 132.83 93.0849 132.939 93.0947C135.426 93.467 137.71 92.1155 138.147 90.0194C138.25 89.4791 138.235 88.923 138.102 88.3892C137.969 87.8555 137.722 87.3569 137.378 86.9278C136.563 85.9143 135.407 85.2315 134.125 85.0066C132.844 84.7818 131.524 85.0303 130.412 85.7058C130.291 85.7948 130.169 85.8757 130.056 85.9728C129.969 86.0303 129.868 86.0609 129.764 86.0609C129.66 86.0609 129.559 86.0303 129.473 85.9728C127.884 84.8737 126.691 83.2933 126.071 81.465C125.074 78.7538 124.734 74.1246 128.501 67.2778C125.415 67.5854 116.019 67.9981 108.6 62.7619C108.268 63.4579 107.531 65.0118 106.648 67.1241C107.055 67.2519 107.425 67.4761 107.727 67.7776C108.029 68.0792 108.253 68.4491 108.381 68.856C108.403 68.9192 108.411 68.986 108.406 69.0526C108.402 69.1192 108.384 69.1841 108.354 69.2437C108.323 69.3032 108.282 69.3561 108.231 69.3993C108.18 69.4426 108.121 69.4752 108.057 69.4953C108.003 69.5032 107.949 69.5032 107.895 69.4953C107.788 69.4946 107.684 69.4607 107.597 69.3984C107.51 69.3361 107.444 69.2484 107.409 69.1473C107.332 68.8784 107.186 68.6342 106.986 68.4384C106.785 68.2427 106.538 68.1021 106.267 68.0305C106.048 68.5646 105.822 69.1312 105.595 69.7219C105.765 69.8414 105.911 69.9925 106.024 70.1671C106.504 71.0477 106.629 72.0786 106.372 73.0482C106.024 74.6668 105.068 75.8403 104.064 75.8403C103.978 75.8483 103.891 75.8483 103.805 75.8403C103.724 75.8191 103.645 75.7893 103.57 75.7513C101.586 82.4038 99.9656 91.4114 103.327 96.8904C104.89 99.4316 107.433 101.034 110.892 101.657C113.6 102.083 116.357 102.083 119.065 101.657C119.199 101.638 119.335 101.673 119.444 101.754C119.552 101.835 119.624 101.956 119.644 102.09C119.663 102.224 119.628 102.361 119.547 102.469C119.466 102.578 119.345 102.65 119.21 102.669C117.67 102.887 116.117 103.001 114.561 103.009C113.502 103.007 112.443 102.931 111.394 102.782C111.678 104.916 111.632 107.08 111.257 109.2C111.11 109.955 110.836 110.681 110.447 111.345C110.4 111.418 110.335 111.479 110.259 111.521C110.182 111.564 110.097 111.586 110.009 111.587C109.914 111.588 109.821 111.56 109.742 111.506C109.629 111.435 109.549 111.322 109.518 111.192C109.488 111.061 109.51 110.925 109.58 110.81C109.804 110.429 109.981 110.021 110.106 109.596C108.682 109.625 107.26 109.725 105.846 109.896C106.656 117.503 114.002 123.403 122.855 123.403C130.088 123.403 136.625 119.308 138.973 113.384C138.27 113.254 137.548 113.251 136.843 113.376H136.811ZM231.552 115.059C231.5 115.011 231.435 114.977 231.366 114.961C231.296 114.946 231.223 114.949 231.155 114.97C230.232 115.14 229.009 116.896 228.029 118.305C227.729 118.742 227.429 119.163 227.146 119.543C228.676 118.991 230.233 118.519 231.811 118.127C231.998 117.018 231.998 115.504 231.552 115.059ZM249.42 104.215C249.285 104.128 249.131 104.076 248.971 104.063C248.812 104.051 248.651 104.078 248.505 104.142C245.978 104.911 242.73 112.866 241.482 116.435L243.102 116.273C243.742 114.46 246.593 106.942 249.728 106.092C249.848 106.064 249.97 106.043 250.092 106.027C250.094 105.362 249.855 104.719 249.42 104.215ZM250.538 107.023C250.358 107.006 250.177 107.022 250.003 107.071C247.8 107.67 245.305 113.311 244.236 116.184L245.241 116.12C246.101 114.215 247.116 112.386 248.278 110.649C248.894 109.775 249.995 108.221 251.453 108.35C251.356 107.784 251.121 107.104 250.538 107.023ZM204.459 189.661C209.132 188.431 212.607 184.749 214.794 178.711C218.925 167.381 221.598 158.147 223.744 150.766C228.28 135.154 230.564 127.296 239.474 124.35C245.419 122.367 249.671 118.369 251.437 113.077C252.312 110.43 252.004 109.686 251.728 109.467C251.673 109.419 251.606 109.386 251.534 109.37C250.603 109.119 249.687 110.43 249.104 111.231C247.931 113.005 246.907 114.873 246.042 116.816C246.005 116.902 245.942 116.976 245.863 117.028C245.784 117.079 245.692 117.107 245.597 117.107C245.597 117.107 244.787 117.107 243.54 117.244C242.843 117.301 241.993 117.382 241.021 117.487H240.932C238.054 117.81 235.2 118.316 232.386 119.001C229.971 119.568 227.61 120.348 225.332 121.331C224.376 121.759 223.448 122.246 222.554 122.788C219.727 124.455 218.18 128.243 216.819 131.585L216.398 132.621C211.538 144.332 202.053 158.082 199.259 162.015C197.766 164.214 196.143 166.322 194.399 168.328C194.303 168.421 194.173 168.474 194.039 168.474C193.904 168.474 193.775 168.421 193.678 168.328C193.63 168.281 193.592 168.225 193.566 168.163C193.539 168.101 193.526 168.035 193.526 167.968C193.526 167.901 193.539 167.834 193.566 167.772C193.592 167.71 193.63 167.654 193.678 167.608C195.287 165.752 196.785 163.804 198.166 161.773L181.561 144.777C180.419 143.604 179.318 142.479 178.232 141.394C176.369 142.948 167.298 151.527 166.229 172.091C177.625 181.746 193.411 192.567 204.459 189.661ZM82.8673 151.988C83.1022 147.78 83.2885 145.133 83.2966 145.101C83.308 144.98 83.3624 144.866 83.4501 144.782C83.5377 144.697 83.6528 144.647 83.7745 144.639C83.9085 144.65 84.033 144.713 84.1209 144.814C84.2089 144.916 84.2532 145.048 84.2443 145.182C84.2443 145.182 84.0499 147.958 83.8069 152.32C83.1265 164.71 82.187 187.873 83.896 203.735C83.896 203.792 84.0013 204.277 85.8723 204.86C97.8435 208.575 148.239 207.215 153.002 203.128C152.605 200.943 150.208 185.744 153.731 161.853C151.747 159.846 150.564 158.56 150.556 158.551C150.46 158.456 150.407 158.326 150.407 158.191C150.407 158.056 150.46 157.927 150.556 157.831C150.603 157.783 150.659 157.745 150.721 157.718C150.783 157.692 150.849 157.679 150.916 157.679C150.984 157.679 151.05 157.692 151.112 157.718C151.174 157.745 151.23 157.783 151.277 157.831C151.277 157.831 152.516 159.183 154.598 161.279C156.979 163.707 160.697 167.268 165.184 171.152C166.464 150.717 175.365 142.26 177.43 140.569C156.558 119.769 145.032 114.671 139.84 113.53C137.362 120.004 130.55 124.383 122.701 124.383C113.371 124.383 105.595 118.094 104.72 109.977C97.7544 110.908 84.1552 114.023 67.7129 124.221C69.3814 126.171 76.7521 136.15 74.0954 156.82C78.7122 154.586 82.0007 152.53 82.843 151.988H82.8673ZM31.8397 155.339C33.5163 159.579 36.3268 162.477 40.2066 163.941C49.9261 167.624 64.627 161.684 73.1397 157.467C73.1276 157.403 73.1276 157.337 73.1397 157.273C74.7596 145.481 72.9048 137.251 71.1067 132.419C70.1592 129.689 68.7512 127.14 66.9435 124.884C60.6426 128.914 54.6708 133.436 49.0838 138.408C49.0599 138.429 49.0324 138.445 49.0028 138.456C49.505 140.221 50.0449 142.055 50.6227 143.96C50.6612 144.088 50.6481 144.227 50.5861 144.346C50.5241 144.466 50.4182 144.556 50.2906 144.599C50.2396 144.607 50.1877 144.607 50.1367 144.599C50.0281 144.6 49.922 144.566 49.8343 144.502C49.7467 144.438 49.6823 144.347 49.6507 144.243C48.9947 142.171 48.3872 140.148 47.8526 138.238C40.8707 113.149 45.1554 102.806 49.2944 92.8277C50.1448 90.7801 51.0277 88.6678 51.7809 86.4746C51.9024 86.1104 51.6271 85.1878 50.4202 83.7796C48.3791 81.3517 45.6981 79.8302 45.2122 80.1215C44.6209 80.7771 44.7991 82.2743 45.7224 84.3138C46.1422 85.2172 46.6239 86.0907 47.1641 86.9278C47.2159 87.0103 47.2434 87.1056 47.2434 87.203C47.2434 87.3003 47.2159 87.3957 47.1641 87.4781C47.1149 87.5623 47.0414 87.6297 46.9533 87.6716C46.8652 87.7134 46.7665 87.7278 46.6701 87.7128C41.2514 87.0735 38.8458 92.5687 37.8982 95.903C37.6458 96.7846 37.4536 97.6823 37.3231 98.5899C37.3049 98.7247 37.2344 98.8469 37.1268 98.9302C37.0192 99.0135 36.8832 99.0511 36.748 99.035C36.6153 99.0169 36.495 98.9473 36.4132 98.8413C36.3314 98.7353 36.2945 98.6014 36.3107 98.4685C36.4203 97.6496 36.5826 96.8386 36.7966 96.0406L32.4228 94.3411C32.3126 94.2979 32.2207 94.2178 32.1631 94.1145C32.1055 94.0111 32.0856 93.8909 32.1069 93.7746C32.6185 91.2411 33.3447 88.7556 34.2777 86.3451C34.1318 86.3187 33.9882 86.2809 33.8484 86.2318C33.7403 86.1956 33.6348 86.1524 33.5325 86.1023C25.4572 101.058 22.5413 131.691 31.8316 155.339H31.8397ZM39.9231 76.6577C39.5236 76.8427 39.2065 77.1683 39.0321 77.5722C38.7605 78.3237 38.6455 79.1227 38.6942 79.9202C38.743 80.7176 38.9544 81.4967 39.3156 82.2096C39.68 83.07 40.202 83.855 40.8546 84.5242C41.867 85.5277 42.9686 85.9162 43.7866 85.5682C44.2247 85.3568 44.5621 84.9818 44.7262 84.5242C43.7623 82.3148 43.6246 80.6962 44.2645 79.7331C43.1953 77.5156 41.2757 76.1074 39.9231 76.6577ZM36.6832 85.3659C36.4408 85.7468 36.0915 86.048 35.6789 86.2318C35.5858 86.2775 35.4881 86.3128 35.3873 86.337C34.4599 88.701 33.7285 91.1371 33.2004 93.6208L37.0882 95.1342C38.1574 91.6865 40.5954 86.685 45.7791 86.685C45.6171 86.4018 45.4227 86.0538 45.2283 85.6734C44.956 86.0492 44.5903 86.3477 44.1673 86.5393C43.8379 86.6827 43.4817 86.7544 43.1224 86.7498C42.1451 86.6938 41.2188 86.2955 40.5063 85.6248C40.3146 85.8153 40.0894 85.969 39.8421 86.078C39.5414 86.2113 39.2152 86.2776 38.8863 86.2723C38.077 86.2141 37.309 85.8929 36.6994 85.3578L36.6832 85.3659ZM32.0746 77.9445C30.9487 78.4301 30.73 80.5262 31.5967 82.5171C32.0582 83.7484 32.9864 84.7485 34.1804 85.3011C34.4268 85.389 34.69 85.4194 34.9499 85.3901C35.0613 85.3746 35.1702 85.3447 35.2739 85.3011C35.5548 85.1666 35.7848 84.9452 35.93 84.6699C35.3396 84.0326 34.8629 83.299 34.5206 82.5009C33.9267 81.2229 33.7373 79.7942 33.978 78.4058C33.7323 78.1689 33.4286 78.0007 33.0973 77.9183C32.766 77.8359 32.4189 77.8422 32.0907 77.9364L32.0746 77.9445ZM35.9867 77.1352C35.7484 77.2587 35.5401 77.4328 35.3764 77.6453C35.2127 77.8579 35.0975 78.1036 35.039 78.3653C34.7446 79.6249 34.8903 80.9472 35.4521 82.1124C35.7911 82.9033 36.2808 83.6207 36.8938 84.2247C37.7767 85.0988 38.7324 85.4306 39.4452 85.1231C39.5714 85.0677 39.6888 84.9941 39.7935 84.9045C39.2014 84.2247 38.7178 83.4576 38.3598 82.6304C37.5997 81.0457 37.4469 79.2376 37.9306 77.5479C37.6709 77.3152 37.3559 77.1528 37.0156 77.0763C36.6753 76.9998 36.3211 77.0117 35.9867 77.1109V77.1352ZM40.7411 75.5166C42.2963 75.6218 43.981 76.9814 45.0663 79.0775C45.1818 79.0604 45.2992 79.0604 45.4146 79.0775C46.743 79.1261 49.1566 80.9308 50.809 82.7194C53.0931 80.2187 55.4015 78.9157 57.6937 78.8833C59.7024 78.8833 61.7435 79.814 63.6307 81.724L66.0606 77.6289L62.7154 76.3097H62.6425L44.7586 69.4387C44.1916 70.1833 42.596 72.425 40.7574 75.5166H40.7411ZM1.05296 51.5125L4.21992 52.7346C4.30092 44.0588 6.79559 18.5818 31.6777 4.48371L29.1992 1.16555C0.299698 16.6071 0.882858 48.0163 1.04486 51.5125H1.05296Z" fill="#321951"/>
</g>
<defs>
<clipPath id="clip0_1277_81519">
<rect width="253" height="208" fill="white" transform="matrix(-1 0 0 1 253 0)"/>
</clipPath>
</defs>
</svg>
