<svg width="272" height="183" viewBox="0 0 272 183" fill="none" xmlns="http://www.w3.org/2000/svg">
<path d="M182.024 20.9336H186.226V11.9299C186.226 6.07752 181.199 1.35059 174.971 1.35059H166.643C165.817 1.35059 165.142 1.95083 165.142 2.70114V4.35181C165.142 6.90285 162.966 9.00371 160.265 9.00371H118.848C116.147 9.00371 113.971 6.90285 113.971 4.35181V2.70114C113.971 1.95083 113.296 1.35059 112.471 1.35059H104.142C97.9147 1.35059 92.8877 6.07752 92.8877 11.9299V123.876C103.242 128.828 110.37 139.407 110.37 151.637C110.37 162.666 104.517 172.42 95.7389 177.823C97.9148 180.074 100.916 181.424 104.142 181.424H174.971C181.199 181.424 186.226 176.697 186.226 170.845V66.7773H182.024C175.872 66.7773 170.845 61.7502 170.845 55.5977V32.1131C170.845 25.8856 175.872 20.9336 182.024 20.9336Z" fill="#F1E6FF"/>
<path d="M211.661 22.2842H182.024C176.622 22.2842 172.195 26.711 172.195 32.1132V55.5978C172.195 61 176.622 65.4268 182.024 65.4268H211.661C217.064 65.4268 221.49 61 221.49 55.5978V32.1132C221.49 26.636 217.064 22.2842 211.661 22.2842Z" fill="white"/>
<path d="M137.156 128.077C137.906 128.753 138.882 129.128 139.932 129.128H140.007C141.058 129.128 142.033 128.753 142.783 128.077L159.44 113.371C160.191 112.696 160.566 111.871 160.566 110.97C160.566 110.07 160.191 109.245 159.44 108.569C158.69 107.894 157.715 107.519 156.664 107.519C155.614 107.519 154.638 107.894 153.888 108.569L145.109 116.297C144.884 116.448 144.659 116.523 144.359 116.372C144.134 116.297 143.984 115.997 143.984 115.772V91.5373C143.984 89.6616 142.258 88.0859 140.082 88.0859C137.906 88.0859 136.181 89.5865 136.181 91.5373V115.847C136.181 116.147 136.031 116.372 135.806 116.448C135.58 116.523 135.28 116.523 135.055 116.372L126.202 108.494C125.451 107.819 124.476 107.444 123.426 107.444C122.375 107.444 121.325 107.819 120.649 108.494C119.899 109.17 119.524 109.995 119.524 110.895C119.524 111.796 119.899 112.621 120.649 113.296L137.156 128.077Z" fill="white"/>
<path d="M158.84 131.229H121.099C118.923 131.229 117.198 132.729 117.198 134.605C117.198 136.481 118.998 137.981 121.099 137.981H158.84C161.016 137.981 162.741 136.481 162.741 134.605C162.816 132.804 161.016 131.229 158.84 131.229Z" fill="white"/>
<path d="M79.6825 122.226C63.4759 122.226 50.2705 135.431 50.2705 151.638C50.2705 167.844 63.4759 181.05 79.6825 181.05C95.8891 181.05 109.095 167.844 109.095 151.638C109.095 135.431 95.8891 122.226 79.6825 122.226Z" fill="white"/>
<path d="M158.164 57.3233C158.014 57.3983 157.789 57.3983 157.564 57.2483C157.264 57.0232 157.189 56.648 157.339 56.3479C159.14 53.5718 157.489 49.5951 156.064 46.819C155.313 45.3934 153.588 42.3922 151.487 41.3418C151.412 41.4168 151.337 41.4918 151.262 41.5669C150.961 41.792 150.511 41.7169 150.361 41.4168L149.836 40.7415C147.06 37.4402 143.308 37.2151 141.358 37.3652V37.4402C141.207 37.7403 140.832 37.9654 140.457 37.8153L139.707 37.5152C136.105 36.3898 131.003 38.7907 128.977 40.6665C128.152 41.4168 127.402 42.3172 126.802 43.1425C127.027 43.2175 127.177 43.3676 127.252 43.5927C127.327 43.9678 127.177 44.343 126.802 44.418L126.201 44.6431C124.326 45.3934 123.425 47.4943 122.675 49.5201C121.925 51.4709 121.699 53.1216 121.925 54.6222C122.075 54.5472 122.225 54.5472 122.375 54.6222C122.675 54.7723 122.9 55.1474 122.75 55.4475L122.375 56.498C121.85 58.4488 122.375 60.4746 123.275 62.1253C123.425 62.0502 123.575 62.0502 123.725 62.0502C124.1 62.1253 124.326 62.4254 124.251 62.8005L124.175 63.4008C124.175 65.3516 126.426 67.4524 127.177 68.1277C129.203 69.8534 132.279 72.2544 135.88 73.0047C136.105 73.0797 136.33 73.0797 136.556 73.0797C136.481 72.8546 136.556 72.6296 136.706 72.4045C136.931 72.1043 137.381 72.1043 137.606 72.3294L138.056 72.7046C140.007 74.0551 143.308 73.6049 145.709 72.5545C145.634 72.4045 145.634 72.2544 145.634 72.1043C145.709 71.7292 146.084 71.5041 146.385 71.5791H146.535C147.135 71.6542 149.986 71.8042 153.963 67.0773C157.639 62.8005 158.164 59.2741 158.164 57.3233Z" fill="#FBC22D"/>
<path d="M192.753 56.648L205.209 49.5201L201.832 45.3184L192.753 56.648Z" fill="#8B6FE2"/>
<path d="M205.359 38.7916L192.753 31.5137L201.907 43.1434L205.359 38.7916Z" fill="#8B6FE2"/>
<path d="M210.236 41.6427L206.559 39.4668L202.733 44.1937L206.409 48.8456L210.236 46.6697C211.436 45.9945 212.111 45.0941 212.111 44.1187C212.111 43.2934 211.436 42.393 210.236 41.6427Z" fill="#8B6FE2"/>
<path d="M189.602 29.6377L189.152 29.4126C188.777 29.1875 188.327 29.0374 187.952 28.8874C187.651 28.8123 187.351 28.7373 187.051 28.7373C186.526 28.7373 186.151 28.8874 185.776 29.1875C185.1 29.7127 184.725 30.6881 184.725 31.8886L184.575 56.1985C184.575 57.8492 185.175 58.9746 186.301 59.2748C186.526 59.3498 186.751 59.3498 186.976 59.3498C187.576 59.3498 188.252 59.1247 189.002 58.7496L189.527 58.4494L201.007 44.1936L189.602 29.6377Z" fill="#8B6FE2"/>
<path d="M79.7575 164.242C77.3565 164.242 75.4807 166.118 75.4807 168.444C75.4807 170.77 77.3565 172.721 79.6824 172.721L79.7575 173.396V172.721C82.0834 172.721 83.9592 170.845 84.0342 168.519C84.0342 167.393 83.584 166.343 82.8337 165.518C81.9333 164.692 80.8829 164.242 79.7575 164.242Z" fill="#00DA9C"/>
<path d="M79.4573 154.639H79.3073C75.7058 154.639 72.2544 155.989 69.6283 158.54C69.2532 158.915 69.0281 159.366 69.0281 159.891C69.0281 160.416 69.1781 160.941 69.5533 161.316C70.3036 162.067 71.5791 162.142 72.3294 161.391C74.2052 159.591 76.7562 158.615 79.3073 158.615H79.4573C82.2335 158.615 84.8595 159.816 86.7353 161.842C87.1105 162.217 87.5606 162.442 88.1609 162.442V163.117V162.442C88.6861 162.442 89.1363 162.292 89.5114 161.917C90.2617 161.166 90.3368 159.966 89.5865 159.141C86.8854 156.289 83.2839 154.714 79.4573 154.639Z" fill="#00DA9C"/>
<path d="M79.5324 145.484H79.2322C73.2298 145.484 67.5275 147.81 63.1757 152.012C62.8005 152.387 62.5754 152.837 62.5754 153.363C62.5754 153.888 62.8005 154.413 63.1007 154.713C63.851 155.463 65.1265 155.463 65.8768 154.788C69.4783 151.262 74.2052 149.311 79.2322 149.311H79.4573C84.7095 149.386 89.5114 151.562 93.1879 155.388C93.5631 155.764 94.0133 155.989 94.6135 155.989V156.664V155.989C95.1387 155.989 95.5889 155.764 95.9641 155.463C96.3392 155.088 96.5643 154.638 96.5643 154.113C96.5643 153.588 96.4142 153.062 96.0391 152.687C91.6873 148.11 85.8349 145.559 79.5324 145.484Z" fill="#00DA9C"/>
<path d="M102.567 146.385C96.5643 139.932 88.386 136.406 79.6824 136.256H79.2322C70.8288 136.256 62.8756 139.557 56.7981 145.485C56.0478 146.235 56.0478 147.51 56.7981 148.261C57.5484 149.011 58.8239 149.011 59.5742 148.261C64.9014 143.009 71.8792 140.157 79.3073 140.157H79.6824C87.3355 140.232 94.4635 143.384 99.7906 149.086C100.166 149.461 100.616 149.686 101.216 149.686V150.362V149.686C101.741 149.686 102.192 149.461 102.567 149.161C102.942 148.786 103.167 148.336 103.167 147.811C103.167 147.285 102.942 146.76 102.567 146.385Z" fill="#00DA9C"/>
<path d="M271.086 181.649H180.224C184.575 179.773 187.577 175.647 187.577 170.845V66.7773H211.661C217.814 66.7773 222.841 61.7502 222.841 55.5977V32.1131C222.841 25.9606 217.814 20.9335 211.661 20.9335H187.577V11.9299C187.577 5.32717 181.949 0 174.971 0H104.143C97.2397 0 91.5374 5.32717 91.5374 11.9299V123.275C87.8609 121.7 83.8092 120.874 79.6075 120.874C62.6506 120.874 48.8449 134.68 48.8449 151.637C48.8449 166.268 59.1241 178.498 72.7797 181.649H0.675276C0.300123 181.649 0 181.949 0 182.324C0 182.7 0.300123 183 0.675276 183H271.161C271.536 183 271.836 182.7 271.836 182.324C271.836 181.949 271.461 181.649 271.086 181.649ZM211.661 22.2841C217.064 22.2841 221.49 26.7109 221.49 32.1131V55.5977C221.49 60.9999 217.064 65.4267 211.661 65.4267H182.024C176.622 65.4267 172.195 60.9999 172.195 55.5977V32.1131C172.195 26.7109 176.622 22.2841 182.024 22.2841H211.661ZM92.963 11.9299C92.963 6.07748 97.99 1.35055 104.218 1.35055H112.546C113.371 1.35055 114.047 1.9508 114.047 2.7011V4.35178C114.047 6.90282 116.222 9.00368 118.924 9.00368H160.265C162.967 9.00368 165.142 6.90282 165.142 4.35178V2.7011C165.142 1.9508 165.818 1.35055 166.643 1.35055H174.971C181.199 1.35055 186.226 6.07748 186.226 11.9299V20.8585H182.024C175.872 20.8585 170.845 25.8856 170.845 32.0381V55.5227C170.845 61.6752 175.872 66.7022 182.024 66.7022H186.226V170.77C186.226 176.622 181.199 181.349 174.971 181.349H104.143C100.916 181.349 97.915 180.074 95.7391 177.748C104.518 172.345 110.37 162.591 110.37 151.562C110.37 139.332 103.242 128.753 92.8879 123.801V11.9299H92.963ZM50.2705 151.637C50.2705 135.43 63.4759 122.225 79.6825 122.225C95.8891 122.225 109.095 135.43 109.095 151.637C109.095 167.844 95.8891 181.049 79.6825 181.049C63.4759 181.049 50.2705 167.844 50.2705 151.637ZM94.6136 178.573C95.8141 179.923 97.3147 180.974 98.8904 181.724H86.3603C89.3615 180.974 92.0626 179.923 94.6136 178.573Z" fill="#321951"/>
<path d="M115.772 176.997H159.515C159.89 176.997 160.19 176.697 160.19 176.322C160.19 175.947 159.89 175.646 159.515 175.646H115.772C115.397 175.646 115.097 175.947 115.097 176.322C115.097 176.697 115.397 176.997 115.772 176.997Z" fill="#321951"/>
<path d="M146.31 171.97C145.934 171.97 145.634 172.27 145.634 172.645C145.634 173.02 145.934 173.32 146.31 173.32H153.663C154.038 173.32 154.338 173.02 154.338 172.645C154.338 172.27 154.038 171.97 153.663 171.97H146.31Z" fill="#321951"/>
<path d="M128.377 171.97C128.002 171.97 127.702 172.27 127.702 172.645C127.702 173.02 128.002 173.32 128.377 173.32H140.007C140.382 173.32 140.682 173.02 140.682 172.645C140.682 172.27 140.382 171.97 140.007 171.97H128.377Z" fill="#321951"/>
<path d="M115.772 16.206H157.789C158.165 16.206 158.465 15.9059 158.465 15.5307C158.465 15.1556 158.165 14.8555 157.789 14.8555H115.772C115.397 14.8555 115.097 15.1556 115.097 15.5307C115.097 15.9059 115.397 16.206 115.772 16.206Z" fill="#321951"/>
<path d="M142.183 19.8076C142.558 19.8076 142.858 19.5075 142.858 19.1323C142.858 18.7572 142.558 18.457 142.183 18.457H131.304C130.929 18.457 130.628 18.7572 130.628 19.1323C130.628 19.5075 130.929 19.8076 131.304 19.8076H142.183Z" fill="#321951"/>
<path d="M157.264 46.2186C156.138 43.9677 153.737 40.1412 150.661 39.691C146.76 35.1891 141.057 36.0145 139.932 36.2396C135.655 34.964 130.178 37.7402 128.002 39.691C126.951 40.6664 125.601 42.167 124.851 43.7426C123.05 44.8681 122.074 46.9689 121.324 48.9948C120.274 51.921 120.124 54.2469 120.949 56.2727C120.349 58.7488 121.024 61.5999 122.825 63.8508C123.05 66.0267 125.001 67.9775 126.201 69.103C128.302 70.9787 131.603 73.5298 135.505 74.2801C136.48 74.4302 137.231 74.4302 137.906 74.2051C138.881 74.6552 140.007 74.8803 141.132 74.8803C143.533 74.8803 146.009 74.055 147.585 73.0046C147.66 73.0046 147.66 72.9295 147.66 72.9295C149.236 72.7044 151.862 71.654 154.938 67.9775C160.415 61.4499 159.365 56.4228 159.065 55.4474C160.04 52.2961 158.614 48.7697 157.264 46.2186ZM154.038 67.0772C150.061 71.8041 147.135 71.654 146.61 71.579H146.459C146.084 71.504 145.784 71.729 145.709 72.1042C145.634 72.2543 145.709 72.4794 145.784 72.5544C143.458 73.6048 140.082 74.055 138.131 72.7045L137.681 72.3293C137.381 72.1042 137.006 72.1042 136.78 72.4043C136.63 72.5544 136.555 72.8545 136.63 73.0796C136.405 73.0796 136.18 73.0046 135.955 73.0046C132.354 72.3293 129.277 69.9283 127.252 68.1276C126.501 67.4523 124.25 65.3514 124.25 63.4007V62.7254C124.325 62.3502 124.025 62.0501 123.725 61.9751C123.575 61.9751 123.425 61.9751 123.275 62.0501C122.375 60.4745 121.849 58.3736 122.375 56.4228L122.75 55.3724C122.9 54.9972 122.675 54.6221 122.375 54.547C122.225 54.472 122.074 54.472 121.924 54.547C121.699 53.1215 121.924 51.3958 122.675 49.445C123.425 47.4942 124.325 45.3183 126.201 44.568L126.801 44.3429C127.177 44.2678 127.327 43.8927 127.252 43.5175C127.177 43.2924 127.027 43.1424 126.801 43.0674C127.402 42.242 128.152 41.3416 128.977 40.5913C131.003 38.7906 136.105 36.3146 139.707 37.4401L140.457 37.7402C140.832 37.8902 141.207 37.7402 141.357 37.365V37.29C143.308 37.1399 147.06 37.29 149.836 40.6664L150.361 41.3416C150.586 41.6418 151.036 41.7168 151.261 41.4917C151.336 41.4167 151.411 41.3416 151.486 41.2666C153.587 42.317 155.313 45.3183 156.063 46.7439C157.489 49.52 159.14 53.4966 157.339 56.2727C157.114 56.5729 157.264 57.023 157.564 57.1731C157.714 57.3232 157.939 57.3232 158.164 57.2481C158.164 59.274 157.639 62.8004 154.038 67.0772Z" fill="#321951"/>
<path d="M133.93 50.4953C133.78 50.4953 133.629 50.4953 133.554 50.5703C133.329 49.895 133.029 49.4449 132.804 49.2948C132.579 49.0697 132.129 49.0697 131.904 49.2948C131.604 49.5199 131.604 49.9701 131.829 50.1952C131.829 50.1952 132.054 50.4953 132.279 51.0205C132.429 51.3206 132.504 51.7708 132.504 52.296V52.371C132.504 52.4461 132.504 52.5211 132.504 52.6712C132.504 52.7462 132.504 52.7462 132.504 52.8212C132.504 52.8963 132.504 52.9713 132.429 53.0463C132.429 53.1214 132.429 53.1964 132.354 53.2714C132.354 53.3465 132.279 53.4215 132.279 53.4965C132.279 53.5715 132.204 53.6466 132.204 53.7216C132.204 53.7966 132.129 53.8717 132.129 53.9467C131.904 54.3969 131.679 54.8471 131.304 55.2972C131.078 55.5974 131.078 56.0476 131.379 56.2726C131.529 56.3477 131.679 56.4227 131.829 56.4227C132.054 56.4227 132.204 56.3477 132.354 56.1976C132.729 55.7474 133.029 55.2972 133.254 54.8471C133.479 54.9221 133.704 54.9971 134.005 54.9971C135.205 54.9971 136.181 54.0217 136.181 52.8212C136.105 51.4707 135.13 50.4953 133.93 50.4953Z" fill="#321951"/>
<path d="M128.977 61.5996C128.152 61.5996 127.477 62.0498 127.102 62.7251C126.651 62.575 126.201 62.4249 125.826 62.4249C125.451 62.3499 125.151 62.65 125.076 63.0252C125.001 63.4003 125.301 63.7005 125.676 63.7755C125.751 63.7755 126.126 63.8505 126.576 64.0006C127.027 64.1506 127.627 64.5258 128.077 64.976C128.077 64.976 128.077 65.051 128.152 65.051C128.227 65.126 128.302 65.2011 128.377 65.2761C128.452 65.3511 128.452 65.3511 128.452 65.4262C128.527 65.5012 128.527 65.5762 128.602 65.5762C128.677 65.6513 128.677 65.7263 128.677 65.8013C128.677 65.8764 128.752 65.9514 128.752 65.9514C128.827 66.1765 128.902 66.4766 128.977 66.7767C129.052 67.0768 129.277 67.377 129.653 67.377H129.728C130.103 67.3019 130.328 67.0018 130.328 66.6267C130.253 66.2515 130.178 65.8764 130.028 65.5762C130.628 65.2011 131.003 64.5258 131.003 63.7755C131.153 62.575 130.178 61.5996 128.977 61.5996Z" fill="#321951"/>
<path d="M149.836 59.4235C149.911 59.7236 150.061 60.0988 150.211 60.3989C150.286 60.624 150.586 60.774 150.811 60.774C150.886 60.774 150.961 60.774 151.112 60.699C151.487 60.5489 151.637 60.1738 151.487 59.7986C151.337 59.4985 151.262 59.1234 151.187 58.8232C150.736 57.0225 151.187 55.5219 151.562 54.6966C151.712 54.2464 151.937 54.0213 151.937 53.9462C152.162 53.6461 152.012 53.1959 151.712 53.0459C151.412 52.8208 150.961 52.9708 150.811 53.271C150.811 53.346 150.586 53.6461 150.361 54.0963C149.911 53.8712 149.461 53.7212 149.011 53.7212C147.435 53.7212 146.084 54.9967 146.084 56.6473C146.084 58.223 147.36 59.5735 149.011 59.5735C149.161 59.6486 149.461 59.5735 149.836 59.4235Z" fill="#321951"/>
<path d="M130.553 44.2681C130.703 44.2681 130.928 44.1931 131.003 44.043C131.304 43.7429 131.604 43.5178 131.904 43.2927C131.979 43.2177 132.054 43.1426 132.129 43.1426C132.204 43.0676 132.354 42.9926 132.429 42.9926C132.504 42.9926 132.579 42.9175 132.579 42.9175C134.755 41.7171 136.931 41.7921 137.006 41.7921C137.381 41.7921 137.681 41.567 137.756 41.1918C137.756 40.8167 137.531 40.5166 137.156 40.4415C137.081 40.4415 136.631 40.4415 135.88 40.5166C135.88 40.5166 135.88 40.5166 135.805 40.5166H135.73C135.355 39.6912 134.53 39.166 133.554 39.166C132.204 39.166 131.078 40.2915 131.078 41.642C131.078 41.8671 131.078 42.0922 131.153 42.3173C131.153 42.3173 131.153 42.3173 131.078 42.3173L131.003 42.3923C130.703 42.6174 130.403 42.8425 130.103 43.1426C129.803 43.4428 129.803 43.8179 130.103 44.118C130.253 44.1931 130.403 44.2681 130.553 44.2681Z" fill="#321951"/>
<path d="M142.783 41.1918C142.783 41.1918 142.858 41.1918 142.783 41.1918C142.783 41.1918 143.008 41.1918 143.308 41.1918C143.834 41.2669 144.809 41.4169 145.709 42.0922C145.784 42.1672 145.934 42.2423 146.01 42.3923C146.16 42.5424 146.385 42.6925 146.535 42.9175C146.685 43.0676 146.835 43.1426 147.06 43.1426C147.21 43.1426 147.36 43.0676 147.51 42.9926C147.81 42.7675 147.81 42.3173 147.585 42.0172C147.435 41.7921 147.21 41.642 146.985 41.4169C146.985 41.4169 146.91 41.4169 146.91 41.3419C146.835 41.2669 146.835 41.2669 146.76 41.1918C146.76 41.1168 146.835 41.0418 146.835 40.8917C146.835 39.9163 146.085 39.166 145.109 39.166C144.584 39.166 144.059 39.3911 143.759 39.8413C143.684 39.8413 143.609 39.8413 143.533 39.8413C143.458 39.8413 143.458 39.8413 143.383 39.8413H143.308C143.233 39.8413 143.233 39.8413 143.158 39.8413H143.083C143.008 39.8413 143.008 39.8413 143.008 39.8413H142.933H142.858H142.783H142.708C142.633 39.8413 142.633 39.8413 142.558 39.9163C142.483 39.9163 142.408 39.9914 142.408 40.0664C142.408 40.1414 142.333 40.1414 142.333 40.2164C142.333 40.2164 142.333 40.2915 142.258 40.2915C142.258 40.3665 142.258 40.4415 142.258 40.5166V40.5916C142.108 40.9668 142.408 41.1918 142.783 41.1918Z" fill="#321951"/>
<path d="M153.663 46.5939C153.363 46.5939 153.138 46.669 152.912 46.819C152.912 46.819 152.913 46.819 152.837 46.744C152.387 46.3688 152.087 46.1437 152.012 46.1437C151.712 45.9937 151.262 46.0687 151.112 46.4439C150.962 46.744 151.037 47.1942 151.412 47.3442C151.412 47.3442 151.637 47.4943 151.937 47.7944C152.012 47.8695 152.162 48.0195 152.312 48.1696C152.387 48.3196 152.537 48.4697 152.612 48.6198C152.612 48.6198 152.612 48.6198 152.612 48.6948C152.687 48.8449 152.837 49.0699 152.912 49.22V49.295C152.988 49.5201 153.063 49.7452 153.138 49.9703C153.213 50.2704 153.288 50.6456 153.288 51.0958C153.288 51.4709 153.588 51.771 153.963 51.771C154.338 51.771 154.638 51.4709 154.638 51.0958C154.638 50.6456 154.563 50.1954 154.488 49.7452V49.6702C154.938 49.3701 155.313 48.8449 155.313 48.3196C155.313 47.3442 154.563 46.5939 153.663 46.5939Z" fill="#321951"/>
<path d="M153.212 64.3005C152.837 64.2255 152.462 64.4506 152.387 64.8257C152.387 64.8257 152.312 64.9758 152.237 65.2009C151.862 64.8257 151.337 64.5256 150.736 64.5256C149.611 64.5256 148.635 65.426 148.635 66.6265C148.635 67.2267 148.936 67.827 149.311 68.2021C149.236 68.2021 149.161 68.2771 149.086 68.2771C148.711 68.4272 148.56 68.8023 148.711 69.1775C148.786 69.4776 149.086 69.6277 149.311 69.6277C149.386 69.6277 149.461 69.6277 149.536 69.5527C149.836 69.4776 150.061 69.3276 150.286 69.1775C150.361 69.1775 150.361 69.1025 150.361 69.1025C150.511 69.0274 150.661 68.9524 150.736 68.8774C150.811 68.8774 150.811 68.8023 150.886 68.8023C151.036 68.7273 151.112 68.6523 151.262 68.5022L151.337 68.4272C151.487 68.3522 151.562 68.2021 151.712 68.1271L151.787 68.052C151.862 67.977 152.012 67.8269 152.087 67.7519C152.087 67.7519 152.087 67.7519 152.162 67.6769C152.237 67.5268 152.387 67.4518 152.462 67.3017C153.287 66.1763 153.512 65.2009 153.588 65.1258C153.813 64.7507 153.588 64.3755 153.212 64.3005Z" fill="#321951"/>
<path d="M142.858 70.0786C142.858 70.0786 142.633 70.1536 142.333 70.3036C142.333 70.1536 142.408 70.0035 142.408 69.9285C142.408 68.653 141.358 67.6025 140.082 67.6025C138.807 67.6025 137.756 68.653 137.756 69.9285C137.606 69.8535 137.531 69.7784 137.381 69.6284C137.081 69.4033 136.631 69.4033 136.406 69.7034C136.18 70.0035 136.18 70.4537 136.481 70.6788C136.856 70.9789 137.156 71.204 137.531 71.3541C137.756 71.5041 137.981 71.5792 138.206 71.6542C138.957 71.8793 139.632 72.0293 140.232 72.0293C140.607 72.0293 140.907 72.0293 141.283 71.9543C141.433 71.9543 141.583 71.8793 141.733 71.8793C142.708 71.6542 143.383 71.3541 143.458 71.279C143.759 71.129 143.909 70.6788 143.759 70.3787C143.533 70.0035 143.158 69.9285 142.858 70.0786Z" fill="#321951"/>
<path d="M136.481 62.7257C136.481 62.7257 136.781 62.6507 137.231 62.6507C137.606 62.6507 138.056 62.7257 138.506 62.9508C138.657 63.0258 138.807 63.1008 138.882 63.1759C139.032 63.3259 139.257 63.476 139.407 63.7011C139.557 63.9262 139.782 64.0012 140.007 64.0012C140.157 64.0012 140.232 64.0012 140.382 63.9262C140.682 63.7011 140.757 63.3259 140.607 63.0258C140.382 62.7257 140.157 62.4256 139.857 62.2005C139.932 61.9754 140.007 61.7503 140.007 61.5252C140.007 60.7749 139.407 60.0996 138.582 60.0996C137.831 60.0996 137.306 60.6248 137.156 61.3001C136.556 61.3001 136.181 61.3751 136.106 61.3751C135.73 61.4502 135.505 61.8253 135.58 62.2005C135.805 62.5756 136.181 62.8007 136.481 62.7257Z" fill="#321951"/>
<path d="M125.376 54.9971C125.301 54.772 125.226 54.622 125.151 54.3969C125.226 54.3969 125.301 54.3969 125.376 54.3969C126.426 54.3969 127.327 53.5715 127.327 52.4461C127.327 51.3956 126.501 50.5703 125.526 50.5703C125.676 50.2702 125.751 50.1201 125.751 50.1201C125.976 49.82 125.901 49.3698 125.601 49.2197C125.301 48.9947 124.851 49.0697 124.626 49.3698C124.626 49.4448 124.326 49.82 124.1 50.4953C124.1 50.4953 124.1 50.4953 124.1 50.5703C123.8 51.4707 123.5 52.7462 123.8 54.3218C123.875 54.697 123.95 55.0721 124.1 55.5223C124.175 55.8224 124.476 55.9725 124.701 55.9725C124.776 55.9725 124.851 55.9725 124.926 55.8975C125.376 55.6724 125.526 55.2972 125.376 54.9971Z" fill="#321951"/>
<path d="M145.109 46.445C144.884 46.52 144.584 46.52 144.359 46.52C144.284 46.52 144.134 46.52 144.059 46.52C143.984 46.52 143.984 46.52 143.909 46.52C143.759 46.52 143.684 46.445 143.533 46.445C143.533 46.445 143.533 46.445 143.458 46.445C142.633 46.2199 141.958 45.6946 141.508 45.2445C141.208 44.9443 140.982 44.6442 140.982 44.6442C140.757 44.3441 140.382 44.2691 140.007 44.4942C139.707 44.7193 139.632 45.0944 139.857 45.4696C139.857 45.5446 140.157 45.8447 140.607 46.2949C140.607 46.2949 140.607 46.2949 140.682 46.3699C140.532 46.67 140.457 46.9702 140.457 47.2703C140.457 48.3958 141.358 49.2961 142.483 49.2961C143.308 49.2961 144.059 48.7709 144.359 48.0206H144.434H144.509C144.809 48.0206 145.034 48.0206 145.334 47.9456C145.709 47.8705 145.934 47.5704 145.859 47.1953C145.784 46.595 145.484 46.3699 145.109 46.445Z" fill="#321951"/>
<path d="M152.987 107.594L145.334 114.347V91.6125C145.334 88.9864 142.933 86.8105 140.082 86.8105C137.156 86.8105 134.83 88.9114 134.83 91.6125V114.422L127.102 107.594C126.126 106.694 124.776 106.243 123.425 106.243C121.999 106.243 120.724 106.694 119.749 107.594C118.698 108.494 118.173 109.695 118.173 110.97C118.173 112.246 118.773 113.446 119.749 114.347L136.405 129.053C136.78 129.353 137.156 129.653 137.606 129.878H121.324C118.398 129.878 116.072 131.979 116.072 134.68C116.072 137.381 118.473 139.482 121.324 139.482H159.065C161.991 139.482 164.317 137.381 164.317 134.68C164.317 131.979 161.916 129.878 159.065 129.878H142.783C143.233 129.653 143.608 129.428 143.983 129.053L160.64 114.347C161.691 113.446 162.216 112.246 162.216 110.97C162.216 109.695 161.691 108.494 160.64 107.594C159.665 106.694 158.314 106.243 156.964 106.243C155.238 106.243 153.962 106.694 152.987 107.594ZM158.839 131.229C161.015 131.229 162.741 132.729 162.741 134.605C162.741 136.481 160.94 137.981 158.839 137.981H121.099C118.923 137.981 117.197 136.481 117.197 134.605C117.197 132.729 118.998 131.229 121.099 131.229H158.839ZM160.565 110.97C160.565 111.871 160.19 112.696 159.44 113.371L142.783 128.077C142.033 128.753 141.057 129.128 140.007 129.128H139.932C138.881 129.128 137.831 128.753 137.156 128.077L120.499 113.371C119.749 112.696 119.373 111.871 119.373 110.97C119.373 110.07 119.749 109.245 120.499 108.569C121.249 107.894 122.225 107.519 123.275 107.519C124.325 107.519 125.301 107.894 126.051 108.569L134.905 116.448C135.13 116.598 135.355 116.673 135.655 116.523C135.88 116.448 136.03 116.148 136.03 115.922V91.6125C136.03 89.7367 137.756 88.1611 139.932 88.1611C142.108 88.1611 143.833 89.6617 143.833 91.6125V115.847C143.833 116.148 143.983 116.373 144.209 116.448C144.434 116.523 144.734 116.523 144.959 116.373L153.737 108.644C154.488 107.969 155.463 107.594 156.514 107.594C157.564 107.594 158.614 107.969 159.29 108.644C160.19 109.245 160.565 110.07 160.565 110.97Z" fill="#321951"/>
<path d="M186.001 60.5495C186.301 60.6245 186.676 60.6996 187.051 60.6996C187.877 60.6996 188.777 60.3994 189.752 59.8742L210.911 47.8693C212.562 46.969 213.462 45.6184 213.462 44.1928C213.462 42.7672 212.562 41.4167 210.911 40.4413L206.859 38.0403C206.859 38.0403 206.784 37.9653 206.709 37.9653L190.503 28.5114C190.428 28.4364 190.353 28.3614 190.278 28.3614L189.902 28.1363C189.377 27.8362 188.927 27.6111 188.402 27.461C187.126 27.0858 185.926 27.3109 185.025 27.9862C183.975 28.7365 183.45 30.0871 183.45 31.8128L183.3 56.1227C183.225 58.4486 184.275 60.0993 186.001 60.5495ZM192.754 56.6479L201.907 45.3183L205.209 49.595L192.754 56.6479ZM212.036 44.1928C212.036 45.1682 211.361 46.0686 210.161 46.7439L206.334 48.9198L202.658 44.2679L206.484 39.5409L210.161 41.7168C211.436 42.3921 212.111 43.2925 212.036 44.1928ZM205.359 38.7906L201.907 43.0674L192.829 31.4376L205.359 38.7906ZM184.8 31.8878C184.8 30.6123 185.175 29.6369 185.851 29.1867C186.226 28.8866 186.676 28.7365 187.126 28.7365C187.426 28.7365 187.726 28.8115 188.027 28.8866C188.402 28.9616 188.777 29.1867 189.227 29.4118L189.677 29.6369L201.082 44.1928L189.602 58.4487L189.077 58.7488C188.402 59.1239 187.651 59.349 187.051 59.349C186.826 59.349 186.601 59.349 186.376 59.274C185.25 58.9739 184.65 57.7734 184.65 56.1977L184.8 31.8878Z" fill="#321951"/>
<path d="M85.2346 168.594C85.2346 167.093 84.7094 165.668 83.659 164.617C82.6085 163.567 81.183 162.967 79.7574 162.967H79.6823C76.6061 162.967 74.1301 165.443 74.1301 168.519C74.055 171.595 76.5311 174.146 79.6823 174.146H79.7574C82.7586 174.071 85.2346 171.595 85.2346 168.594ZM79.6073 172.721C77.2814 172.721 75.4056 170.77 75.4056 168.444C75.4056 166.118 77.3564 164.242 79.6823 164.242C80.8078 164.242 81.8582 164.692 82.6836 165.518C83.5089 166.343 83.8841 167.394 83.8841 168.519C83.8841 170.845 82.0083 172.721 79.6073 172.721L79.6823 173.396L79.6073 172.721Z" fill="#321951"/>
<path d="M79.3823 159.89C81.7832 159.89 84.0342 160.94 85.6848 162.666C86.2851 163.341 87.1104 163.716 88.0858 163.716H88.1608C88.9862 163.716 89.8115 163.416 90.4118 162.816C91.7623 161.54 91.8374 159.44 90.5618 158.164C87.6356 155.088 83.734 153.362 79.5323 153.287H79.3072C75.3306 153.287 71.5791 154.788 68.7279 157.564C68.0526 158.164 67.7525 158.989 67.6775 159.89C67.6775 160.79 67.9776 161.616 68.5779 162.216C69.1781 162.891 70.0785 163.266 70.9788 163.266C71.8042 163.266 72.6295 162.966 73.2298 162.366C74.8804 160.79 77.0563 159.965 79.3072 159.965L79.3823 159.89ZM72.2544 161.315C71.5041 162.066 70.2285 161.991 69.4782 161.24C69.1031 160.865 68.953 160.34 68.953 159.815C68.953 159.29 69.1781 158.839 69.5533 158.464C72.1793 155.988 75.6307 154.563 79.2322 154.563H79.3823C83.2088 154.638 86.8103 156.213 89.5114 158.989C90.2617 159.74 90.1867 161.015 89.4364 161.766C89.0612 162.141 88.611 162.291 88.0858 162.291V162.966V162.291C87.5606 162.291 87.0354 162.066 86.6602 161.691C84.7094 159.665 82.1584 158.464 79.3823 158.464H79.2322C76.6812 158.539 74.1301 159.515 72.2544 161.315Z" fill="#321951"/>
<path d="M79.4573 150.736C84.3343 150.812 88.8361 152.837 92.2125 156.364C92.8127 157.039 93.6381 157.414 94.5384 157.414H94.6135C95.4388 157.414 96.2642 157.114 96.8644 156.514C97.5397 155.914 97.8398 155.088 97.9148 154.188C97.9148 153.288 97.6147 152.462 97.0145 151.862C92.4376 146.985 86.2101 144.209 79.5323 144.134H79.2322C72.8546 144.134 66.8522 146.61 62.2003 151.037C61.6 151.637 61.2249 152.462 61.2249 153.363C61.2249 154.263 61.525 155.088 62.1252 155.689C62.7255 156.364 63.6258 156.664 64.5262 156.664C65.4266 156.664 66.1769 156.364 66.8522 155.764C70.2285 152.462 74.5803 150.661 79.2322 150.661L79.4573 150.736ZM65.8767 154.788C65.1264 155.538 63.8509 155.463 63.1006 154.713C62.7255 154.338 62.5754 153.813 62.5754 153.363C62.5754 152.837 62.8005 152.387 63.1756 152.012C67.5274 147.81 73.2298 145.484 79.2322 145.484H79.5323C85.8349 145.559 91.6873 148.185 96.0391 152.762C96.4142 153.137 96.5643 153.663 96.5643 154.188C96.5643 154.713 96.3392 155.163 95.964 155.538C95.5889 155.914 95.1387 156.064 94.6135 156.064V156.739V156.064C94.0883 156.064 93.5631 155.839 93.1879 155.463C89.5864 151.637 84.7094 149.461 79.4573 149.386H79.2322C74.2802 149.386 69.5533 151.262 65.8767 154.788Z" fill="#321951"/>
<path d="M79.6073 141.508C86.8853 141.583 93.7131 144.584 98.7401 149.986C99.3404 150.662 100.166 151.037 101.066 151.037H101.141C101.966 151.037 102.792 150.737 103.392 150.136C104.067 149.536 104.367 148.711 104.442 147.81C104.442 146.91 104.142 146.085 103.542 145.409C97.2395 138.732 88.7611 134.98 79.6824 134.83H79.2322C70.4536 134.83 62.1252 138.281 55.8226 144.434C54.5471 145.71 54.4721 147.81 55.7476 149.086C56.3478 149.686 57.2482 150.061 58.0735 150.061C58.9739 150.061 59.7992 149.761 60.3995 149.086C65.5016 144.134 72.1043 141.358 79.1571 141.358L79.6073 141.508ZM59.5742 148.261C58.8238 149.011 57.5483 149.011 56.798 148.261C56.0477 147.51 56.0477 146.235 56.798 145.484C62.8755 139.557 70.8287 136.256 79.2322 136.256H79.6824C88.3859 136.331 96.5643 139.932 102.567 146.385C102.942 146.76 103.092 147.285 103.092 147.81C103.092 148.336 102.867 148.786 102.492 149.161C102.117 149.536 101.666 149.686 101.141 149.686V150.361V149.686C100.616 149.686 100.091 149.461 99.7155 149.086C94.3884 143.459 87.2605 140.307 79.6073 140.157H79.2322C71.8792 140.157 64.9013 143.008 59.5742 148.261Z" fill="#321951"/>
</svg>
