<svg width="311" height="209" viewBox="0 0 311 209" fill="none" xmlns="http://www.w3.org/2000/svg">
<g clip-path="url(#clip0_2051_111864)">
<path d="M310.219 207.449H206.246C204.352 208.279 202.306 208.708 200.237 208.709H119.227C117.158 208.71 115.112 208.281 113.218 207.449H98.9596C93.8462 208.615 88.5355 208.615 83.4221 207.449H0.772586C0.567684 207.449 0.371173 207.53 0.226285 207.675C0.0813974 207.82 0 208.016 0 208.22C0 208.425 0.0813974 208.621 0.226285 208.766C0.371173 208.91 0.567684 208.992 0.772586 208.992H310.219C310.424 208.992 310.62 208.91 310.765 208.766C310.91 208.621 310.991 208.425 310.991 208.22C310.991 208.016 310.91 207.82 310.765 207.675C310.62 207.53 310.424 207.449 310.219 207.449Z" fill="black"/>
<path d="M106.376 141.504C112.076 144.23 116.936 148.438 120.444 153.685C123.952 158.933 125.98 165.027 126.315 171.327C126.65 177.627 125.278 183.901 122.346 189.489C119.413 195.078 115.026 199.775 109.647 203.087C110.879 204.386 112.365 205.418 114.013 206.12C115.661 206.822 117.435 207.178 119.227 207.166H200.245C207.336 207.166 213.122 201.742 213.122 195.084V76.2185H208.289C204.898 76.214 201.647 74.8674 199.25 72.474C196.852 70.0807 195.503 66.8358 195.498 63.4511V36.6224C195.503 33.2377 196.852 29.9928 199.25 27.5995C201.647 25.2061 204.898 23.8595 208.289 23.855H213.131V13.6239C213.131 6.95743 207.362 1.54199 200.254 1.54199H119.227C112.136 1.54199 106.351 6.95743 106.351 13.6239L106.376 141.504ZM185.309 126.74C185.304 127.477 185.14 128.204 184.829 128.872C184.518 129.54 184.067 130.134 183.506 130.613L164.509 147.425C164.096 147.79 163.634 148.096 163.136 148.333H181.806C185.137 148.333 187.815 150.775 187.815 153.774C187.815 156.773 185.103 159.215 181.806 159.215H138.61C135.28 159.215 132.601 156.782 132.601 153.774C132.601 150.767 135.314 148.333 138.61 148.333H157.273C156.778 148.094 156.319 147.788 155.908 147.425L136.885 130.613C136.321 130.136 135.867 129.542 135.556 128.872C135.246 128.203 135.084 127.474 135.084 126.735C135.084 125.997 135.246 125.268 135.556 124.599C135.867 123.929 136.321 123.335 136.885 122.858C138.067 121.849 139.57 121.295 141.126 121.295C142.681 121.295 144.184 121.849 145.366 122.858L154.208 130.673V104.65C154.208 101.642 156.921 99.2084 160.217 99.2084C163.513 99.2084 166.226 101.642 166.226 104.65V130.579L174.965 122.867C176.146 121.858 177.65 121.303 179.205 121.303C180.76 121.303 182.264 121.858 183.446 122.867C184.018 123.34 184.481 123.931 184.802 124.6C185.124 125.268 185.297 125.998 185.309 126.74ZM176.647 197.115C176.647 197.319 176.566 197.515 176.421 197.66C176.276 197.805 176.08 197.886 175.875 197.886H167.428C167.223 197.886 167.026 197.805 166.881 197.66C166.737 197.515 166.655 197.319 166.655 197.115C166.655 196.91 166.737 196.714 166.881 196.569C167.026 196.425 167.223 196.344 167.428 196.344H175.875C176.08 196.344 176.276 196.425 176.421 196.569C176.566 196.714 176.647 196.91 176.647 197.115ZM160.964 197.115C160.964 197.319 160.882 197.515 160.738 197.66C160.593 197.805 160.396 197.886 160.191 197.886H146.928C146.724 197.886 146.527 197.805 146.382 197.66C146.237 197.515 146.156 197.319 146.156 197.115C146.156 196.91 146.237 196.714 146.382 196.569C146.527 196.425 146.724 196.344 146.928 196.344H160.217C160.417 196.35 160.607 196.434 160.747 196.578C160.886 196.722 160.964 196.915 160.964 197.115ZM177.471 77.6238C173.926 81.8139 170.947 83.0135 169.119 83.2877C169.087 83.3307 169.046 83.3658 168.999 83.3906C166.791 84.7771 164.241 85.5246 161.633 85.5499C160.362 85.5745 159.101 85.3169 157.942 84.7958C157.041 85.0481 156.09 85.0687 155.178 84.8558C150.688 83.9989 146.937 81.0856 144.508 78.9605C143.074 77.7095 140.911 75.4473 140.619 72.9624C139.652 71.7648 138.961 70.3692 138.596 68.8748C138.231 67.3804 138.201 65.824 138.507 64.3165C137.563 62.0116 137.7 59.2781 138.928 55.9706C139.786 53.6999 140.842 51.2578 142.92 49.9725C143.838 48.2124 145.068 46.6331 146.551 45.3111C149.049 43.0747 155.307 39.9042 160.165 41.3523C161.479 41.0867 167.934 40.1099 172.432 45.2682C175.952 45.8338 178.647 50.161 179.969 52.7402C181.463 55.6793 183.18 59.7408 182.201 63.2626C182.536 64.3937 183.721 70.169 177.471 77.6238ZM149.504 21.8242C149.504 21.6197 149.585 21.4235 149.73 21.2789C149.875 21.1343 150.071 21.053 150.276 21.053H162.724C162.928 21.053 163.125 21.1343 163.27 21.2789C163.415 21.4235 163.496 21.6197 163.496 21.8242C163.496 22.0287 163.415 22.2249 163.27 22.3695C163.125 22.5141 162.928 22.5954 162.724 22.5954H150.276C150.071 22.5954 149.875 22.5141 149.73 22.3695C149.585 22.2249 149.504 22.0287 149.504 21.8242ZM162.87 6.40047C163.291 6.40047 163.702 6.5251 164.052 6.7586C164.402 6.9921 164.675 7.32399 164.836 7.71229C164.997 8.10059 165.04 8.52787 164.958 8.94009C164.875 9.35231 164.673 9.73095 164.375 10.0281C164.077 10.3253 163.698 10.5277 163.285 10.6097C162.872 10.6917 162.444 10.6496 162.055 10.4888C161.666 10.328 161.333 10.0556 161.099 9.70612C160.865 9.35666 160.741 8.94581 160.741 8.52551C160.747 7.96638 160.975 7.43245 161.373 7.03947C161.772 6.64649 162.309 6.42613 162.87 6.42617V6.40047ZM155.401 5.88634C155.924 5.88634 156.435 6.04113 156.87 6.33112C157.305 6.62112 157.644 7.0333 157.844 7.51554C158.044 7.99779 158.096 8.52844 157.994 9.04039C157.892 9.55234 157.641 10.0226 157.271 10.3917C156.901 10.7608 156.43 11.0121 155.917 11.114C155.404 11.2158 154.873 11.1635 154.389 10.9638C153.906 10.764 153.493 10.4258 153.203 9.99176C152.912 9.55775 152.757 9.04749 152.757 8.52551C152.764 7.83002 153.046 7.16533 153.541 6.67593C154.036 6.18654 154.704 5.91201 155.401 5.91205V5.88634ZM132.455 16.9571H180.527C180.732 16.9571 180.929 17.0384 181.074 17.183C181.219 17.3276 181.3 17.5238 181.3 17.7283C181.3 17.9329 181.219 18.129 181.074 18.2736C180.929 18.4183 180.732 18.4995 180.527 18.4995H132.455C132.25 18.4995 132.054 18.4183 131.909 18.2736C131.764 18.129 131.683 17.9329 131.683 17.7283C131.683 17.5238 131.764 17.3276 131.909 17.183C132.054 17.0384 132.25 16.9571 132.455 16.9571ZM132.455 200.619H182.536C182.741 200.619 182.938 200.701 183.082 200.845C183.227 200.99 183.309 201.186 183.309 201.391C183.309 201.595 183.227 201.791 183.082 201.936C182.938 202.081 182.741 202.162 182.536 202.162H132.455C132.25 202.162 132.054 202.081 131.909 201.936C131.764 201.791 131.683 201.595 131.683 201.391C131.683 201.186 131.764 200.99 131.909 200.845C132.054 200.701 132.25 200.619 132.455 200.619Z" fill="#F1E6FF"/>
<path d="M132.456 202.162H182.536C182.741 202.162 182.938 202.081 183.083 201.937C183.228 201.792 183.309 201.596 183.309 201.391C183.309 201.187 183.228 200.991 183.083 200.846C182.938 200.701 182.741 200.62 182.536 200.62H132.456C132.251 200.62 132.054 200.701 131.909 200.846C131.765 200.991 131.683 201.187 131.683 201.391C131.683 201.596 131.765 201.792 131.909 201.937C132.054 202.081 132.251 202.162 132.456 202.162Z" fill="#321951"/>
<path d="M242.205 25.3975H208.289C205.308 25.402 202.45 26.5861 200.342 28.6902C198.234 30.7943 197.048 33.6468 197.043 36.6225V63.4512C197.048 66.4269 198.234 69.2794 200.342 71.3835C202.45 73.4876 205.308 74.6717 208.289 74.6763H242.231C245.213 74.674 248.072 73.4906 250.18 71.386C252.289 69.2814 253.474 66.4276 253.477 63.4512V36.6225C253.475 35.1466 253.183 33.6853 252.616 32.3223C252.049 30.9592 251.218 29.7211 250.171 28.6786C249.124 27.6362 247.882 26.8098 246.515 26.2468C245.149 25.6838 243.684 25.3952 242.205 25.3975ZM241.261 54.7025L217.036 68.4125C216.108 68.9754 215.049 69.2883 213.963 69.3208C213.571 69.319 213.181 69.2642 212.804 69.158C210.847 68.6096 209.688 66.7331 209.705 64.1367L209.886 36.3997C209.835 35.5832 209.974 34.7659 210.293 34.0122C210.612 33.2584 211.101 32.5886 211.723 32.0554C212.273 31.6643 212.908 31.4084 213.577 31.3087C214.245 31.2089 214.927 31.2681 215.568 31.4813C216.171 31.6502 216.748 31.898 217.285 32.2182L217.697 32.4581C217.8 32.4901 217.894 32.5458 217.972 32.6209L236.514 43.4261C236.563 43.442 236.609 43.4651 236.651 43.4946L241.313 46.2109C243.184 47.2992 244.214 48.7815 244.206 50.4953C244.197 52.209 243.15 53.6315 241.261 54.7025Z" fill="white"/>
<path d="M167.428 196.344C167.223 196.344 167.026 196.425 166.882 196.57C166.737 196.714 166.655 196.91 166.655 197.115C166.655 197.319 166.737 197.516 166.882 197.66C167.026 197.805 167.223 197.886 167.428 197.886H175.875C176.08 197.886 176.276 197.805 176.421 197.66C176.566 197.516 176.647 197.319 176.647 197.115C176.647 196.91 176.566 196.714 176.421 196.57C176.276 196.425 176.08 196.344 175.875 196.344H167.428Z" fill="#321951"/>
<path d="M146.928 196.344C146.723 196.344 146.527 196.425 146.382 196.57C146.237 196.714 146.156 196.91 146.156 197.115C146.156 197.319 146.237 197.516 146.382 197.66C146.527 197.805 146.723 197.886 146.928 197.886H160.217C160.422 197.886 160.618 197.805 160.763 197.66C160.908 197.516 160.989 197.319 160.989 197.115C160.989 196.91 160.908 196.714 160.763 196.57C160.618 196.425 160.422 196.344 160.217 196.344H146.928Z" fill="#321951"/>
<path d="M132.456 18.5004H180.528C180.733 18.5004 180.929 18.4191 181.074 18.2745C181.219 18.1299 181.3 17.9337 181.3 17.7292C181.3 17.5247 181.219 17.3285 181.074 17.1839C180.929 17.0393 180.733 16.958 180.528 16.958H132.456C132.251 16.958 132.054 17.0393 131.909 17.1839C131.765 17.3285 131.683 17.5247 131.683 17.7292C131.683 17.9337 131.765 18.1299 131.909 18.2745C132.054 18.4191 132.251 18.5004 132.456 18.5004Z" fill="#321951"/>
<path d="M162.724 22.5961C162.929 22.5961 163.125 22.5148 163.27 22.3702C163.415 22.2256 163.496 22.0294 163.496 21.8249C163.496 21.6204 163.415 21.4242 163.27 21.2796C163.125 21.135 162.929 21.0537 162.724 21.0537H150.276C150.072 21.0537 149.875 21.135 149.73 21.2796C149.585 21.4242 149.504 21.6204 149.504 21.8249C149.504 22.0294 149.585 22.2256 149.73 22.3702C149.875 22.5148 150.072 22.5961 150.276 22.5961H162.724Z" fill="#321951"/>
<path d="M180.957 65.4819C180.848 65.5179 180.732 65.5296 180.618 65.5163C180.504 65.5029 180.394 65.4649 180.296 65.4048C180.21 65.35 180.136 65.2787 180.077 65.1951C180.019 65.1114 179.978 65.0171 179.956 64.9175C179.935 64.8179 179.933 64.715 179.952 64.6148C179.97 64.5146 180.008 64.4191 180.064 64.3337C182.09 61.1376 180.193 56.6219 178.588 53.4429C177.729 51.8319 175.789 48.3873 173.36 47.1791C173.31 47.2904 173.229 47.3854 173.128 47.4533C172.965 47.5733 172.761 47.6245 172.56 47.5956C172.359 47.5667 172.178 47.4602 172.055 47.2991L171.445 46.4936C170.265 45.1143 168.763 44.0454 167.071 43.3806C165.38 42.7158 163.551 42.4754 161.745 42.6805C161.735 42.7246 161.72 42.7676 161.702 42.8091C161.619 42.9906 161.47 43.1335 161.285 43.2084C161.1 43.2833 160.893 43.2845 160.707 43.2118L159.848 42.869C155.771 41.5837 149.916 44.36 147.581 46.4593C146.648 47.3034 145.815 48.2522 145.1 49.287C145.218 49.3267 145.324 49.3954 145.408 49.4868C145.492 49.5782 145.551 49.6892 145.581 49.8097C145.634 50.0017 145.61 50.2069 145.514 50.3815C145.418 50.556 145.257 50.686 145.066 50.7437L144.388 50.9665C142.268 51.8234 141.203 54.2483 140.362 56.5019C139.579 58.3262 139.283 60.3219 139.503 62.2944C139.673 62.2349 139.858 62.2349 140.027 62.2944C140.21 62.3739 140.355 62.5203 140.434 62.7036C140.512 62.8868 140.517 63.093 140.448 63.2798L140.01 64.4537C139.512 66.6372 139.881 68.9285 141.04 70.846C141.202 70.7573 141.39 70.7271 141.572 70.7603C141.767 70.7959 141.94 70.9047 142.057 71.0641C142.173 71.2235 142.224 71.4214 142.199 71.6171L142.104 72.3369C142.104 74.5819 144.68 76.9983 145.495 77.7438C147.787 79.7403 151.315 82.4909 155.436 83.2792C155.688 83.3286 155.943 83.3629 156.2 83.382C156.161 83.2528 156.155 83.1159 156.184 82.984C156.212 82.8521 156.274 82.7296 156.363 82.628C156.495 82.479 156.681 82.3875 156.879 82.3731C157.078 82.3587 157.275 82.4225 157.427 82.5508L157.977 82.9964C160.209 84.5474 163.986 84.0504 166.707 82.8251C166.66 82.7427 166.63 82.6518 166.618 82.5577C166.606 82.4636 166.613 82.3681 166.638 82.2766C166.685 82.092 166.799 81.9313 166.957 81.8253C167.116 81.7193 167.308 81.6756 167.497 81.7025H167.677C168.338 81.7882 171.66 81.9168 176.21 76.5613C180.373 71.7457 181.017 67.7184 180.957 65.4819ZM162.621 46.3308C162.621 46.3308 162.621 46.2794 162.621 46.2537C162.608 46.18 162.608 46.1046 162.621 46.0309C162.621 46.0309 162.621 45.9709 162.664 45.9366C162.695 45.8805 162.729 45.8261 162.767 45.7738C162.822 45.716 162.886 45.6669 162.956 45.6282C163.014 45.606 163.074 45.5888 163.136 45.5768C163.173 45.5719 163.21 45.5719 163.247 45.5768H164.106H164.372C164.631 45.2533 164.985 45.0182 165.383 44.9041C165.782 44.79 166.207 44.8025 166.598 44.94C166.99 45.0774 167.328 45.333 167.568 45.6712C167.807 46.0094 167.935 46.4136 167.935 46.8278C167.943 46.9305 167.943 47.0336 167.935 47.1363L168.106 47.2819L168.175 47.3419C168.405 47.5519 168.623 47.7751 168.827 48.0103C168.956 48.1689 169.018 48.3719 168.999 48.5754C168.98 48.779 168.881 48.9668 168.724 49.0985C168.587 49.2139 168.414 49.2776 168.235 49.2784C168.121 49.2795 168.009 49.2545 167.906 49.2055C167.803 49.1565 167.713 49.0847 167.643 48.9957C167.462 48.791 167.27 48.5965 167.067 48.413L166.698 48.1131C165.892 47.531 164.949 47.1678 163.96 47.0592C163.76 47.0472 163.559 47.0472 163.359 47.0592C163.258 47.0661 163.157 47.0529 163.062 47.0203C162.967 46.9876 162.879 46.9362 162.804 46.8692C162.728 46.8021 162.667 46.7206 162.624 46.6296C162.581 46.5387 162.557 46.44 162.552 46.3394L162.621 46.3308ZM148.886 49.2527C149.208 48.9459 149.549 48.6597 149.908 48.3959L150.019 48.3273C149.957 48.0896 149.925 47.8448 149.925 47.599C149.927 46.9675 150.143 46.3553 150.537 45.8612C150.931 45.3671 151.48 45.0197 152.096 44.8752C152.712 44.7307 153.358 44.7974 153.932 45.0646C154.505 45.3318 154.971 45.7838 155.256 46.3479H155.436C155.914 46.291 156.397 46.2738 156.878 46.2965C156.985 46.295 157.091 46.3155 157.189 46.3569C157.287 46.3982 157.376 46.4595 157.45 46.5368C157.523 46.6141 157.58 46.7057 157.616 46.806C157.652 46.9062 157.667 47.0129 157.66 47.1192C157.653 47.2255 157.624 47.3292 157.575 47.4238C157.525 47.5183 157.457 47.6016 157.374 47.6684C157.29 47.7352 157.194 47.7841 157.091 47.812C156.988 47.8399 156.881 47.8461 156.775 47.8303C155.016 47.82 153.283 48.2533 151.736 49.0899L151.539 49.1928L151.212 49.407L150.92 49.6041C150.562 49.8605 150.226 50.1472 149.916 50.4609C149.772 50.6064 149.575 50.6885 149.37 50.6893C149.164 50.6901 148.967 50.6095 148.822 50.4652C148.676 50.3209 148.594 50.1247 148.593 49.9198C148.592 49.715 148.673 49.5182 148.817 49.3727L148.886 49.2527ZM142.774 63.8196C142.616 63.8199 142.462 63.7726 142.332 63.6839C142.202 63.5952 142.101 63.4693 142.044 63.3226C141.882 62.8822 141.756 62.4295 141.667 61.9688C141.38 60.5365 141.499 59.053 142.01 57.6844C142.009 57.6644 142.009 57.6444 142.01 57.6244C142.165 57.1869 142.373 56.7697 142.628 56.3819C142.749 56.2298 142.922 56.1286 143.115 56.0986C143.307 56.0686 143.503 56.1121 143.664 56.2202C143.826 56.3284 143.94 56.4933 143.985 56.6821C144.03 56.8709 144.002 57.0697 143.907 57.2388C143.801 57.4023 143.71 57.5743 143.632 57.7529C143.92 57.7597 144.203 57.8229 144.466 57.9389C144.729 58.055 144.967 58.2216 145.165 58.4293C145.364 58.6369 145.519 58.8816 145.623 59.1493C145.727 59.417 145.777 59.7024 145.77 59.9894C145.763 60.2763 145.7 60.5591 145.584 60.8216C145.467 61.0841 145.3 61.3212 145.092 61.5194C144.884 61.7175 144.639 61.8728 144.371 61.9763C144.103 62.0799 143.817 62.1297 143.529 62.123C143.444 62.1319 143.357 62.1319 143.272 62.123C143.332 62.3543 143.401 62.5857 143.486 62.8256C143.556 63.0178 143.548 63.2296 143.463 63.4155C143.378 63.6014 143.223 63.7465 143.032 63.8196C142.945 63.8294 142.858 63.8236 142.774 63.8025V63.8196ZM148.92 74.9161C149.063 75.299 149.166 75.6951 149.229 76.0986C149.254 76.2981 149.2 76.4994 149.078 76.6594C148.956 76.8195 148.776 76.9257 148.577 76.9555H148.457C148.271 76.9554 148.092 76.8886 147.952 76.7675C147.811 76.6464 147.72 76.4789 147.693 76.2957C147.644 75.9642 147.557 75.6394 147.435 75.3274L147.332 75.1132L147.212 74.8733C147.171 74.8015 147.125 74.7328 147.075 74.6676C147.04 74.6017 147 74.5387 146.955 74.4791L146.723 74.2049L146.663 74.1449C146.18 73.6496 145.594 73.2664 144.946 73.0224C144.604 72.8911 144.251 72.7935 143.89 72.7311C143.689 72.7033 143.506 72.5982 143.381 72.4382C143.256 72.2783 143.198 72.0759 143.22 71.8742C143.248 71.6738 143.354 71.4924 143.514 71.3689C143.675 71.2455 143.878 71.19 144.079 71.2144C144.569 71.2749 145.048 71.4017 145.504 71.5914C145.768 71.1168 146.183 70.7432 146.683 70.5293C147.183 70.3153 147.74 70.2732 148.266 70.4095C148.793 70.5458 149.259 70.8528 149.592 71.2823C149.925 71.7118 150.105 72.2395 150.105 72.7825C150.107 73.2074 150 73.6257 149.792 73.9966C149.584 74.3675 149.284 74.6784 148.92 74.899V74.9161ZM153.29 62.62C152.997 62.6234 152.706 62.5741 152.431 62.4743C152.148 63.036 151.8 63.5624 151.393 64.0424C151.329 64.1215 151.251 64.1871 151.162 64.2353C151.073 64.2835 150.975 64.3133 150.874 64.3229C150.773 64.3324 150.671 64.3217 150.574 64.2911C150.478 64.2606 150.388 64.211 150.311 64.1452C150.231 64.0813 150.166 64.0022 150.117 63.9125C150.069 63.8227 150.039 63.7242 150.029 63.6228C150.02 63.5214 150.031 63.419 150.061 63.3218C150.092 63.2247 150.142 63.1346 150.208 63.057C150.6 62.5925 150.927 62.0764 151.178 61.5232L151.29 61.2661L151.384 60.9833C151.384 60.8977 151.436 60.812 151.453 60.7349C151.47 60.6577 151.453 60.572 151.504 60.4949C151.556 60.4178 151.504 60.315 151.556 60.2207C151.56 60.1665 151.56 60.1121 151.556 60.0579C151.556 59.9465 151.556 59.8437 151.556 59.7409V59.6638C151.556 59.1732 151.472 58.6863 151.307 58.2242C151.194 57.8935 151.032 57.5815 150.826 57.2988C150.698 57.1454 150.634 56.9489 150.646 56.7496C150.659 56.5503 150.748 56.3635 150.895 56.2277C151.037 56.092 151.226 56.0163 151.423 56.0163C151.619 56.0163 151.808 56.092 151.951 56.2277C152.336 56.6576 152.628 57.1622 152.809 57.7101C152.963 57.6699 153.122 57.6469 153.281 57.6415C153.939 57.6415 154.57 57.9024 155.035 58.3668C155.501 58.8313 155.762 59.4611 155.762 60.1179C155.762 60.7747 155.501 61.4045 155.035 61.869C154.57 62.3334 153.939 62.5943 153.281 62.5943L153.29 62.62ZM155.298 71.0259C155.275 70.9228 155.272 70.8159 155.291 70.7117C155.31 70.6076 155.35 70.5084 155.409 70.4202C155.468 70.3321 155.544 70.2567 155.632 70.1988C155.721 70.1409 155.821 70.1016 155.925 70.0833C156.307 70.0137 156.695 69.9793 157.084 69.9805C157.123 69.5594 157.326 69.1702 157.648 68.8963C157.971 68.6223 158.388 68.4851 158.811 68.5142C159.234 68.5433 159.628 68.7363 159.91 69.052C160.192 69.3676 160.339 69.7808 160.32 70.2033C160.321 70.4702 160.253 70.7328 160.123 70.9659C160.456 71.2208 160.746 71.5275 160.981 71.8742C161.037 71.9591 161.076 72.0542 161.095 72.154C161.114 72.2539 161.114 72.3566 161.093 72.4561C161.072 72.5556 161.032 72.6501 160.974 72.7341C160.917 72.818 160.843 72.8898 160.758 72.9453C160.634 73.0288 160.487 73.0736 160.337 73.0738C160.21 73.0741 160.085 73.0429 159.972 72.9831C159.86 72.9233 159.764 72.8367 159.694 72.7311C159.538 72.4968 159.344 72.291 159.118 72.1227C158.976 72.0144 158.824 71.9197 158.663 71.8399C158.199 71.6413 157.7 71.5364 157.196 71.5315C156.908 71.5266 156.62 71.5495 156.337 71.6C156.23 71.6394 156.116 71.6549 156.003 71.6455C155.889 71.6362 155.779 71.6021 155.68 71.5458C155.581 71.4894 155.496 71.4122 155.43 71.3194C155.364 71.2267 155.319 71.1206 155.298 71.0088V71.0259ZM164.175 81.4026C163.563 81.71 162.913 81.9375 162.243 82.0796C162.076 82.1208 161.907 82.1523 161.737 82.1738C161.353 82.2328 160.966 82.2643 160.578 82.2681C159.776 82.2671 158.98 82.1279 158.226 81.8568H158.183C157.91 81.7576 157.644 81.6431 157.384 81.514C156.952 81.2901 156.544 81.0231 156.165 80.7171C156.013 80.5865 155.918 80.4018 155.9 80.2023C155.881 80.0027 155.942 79.8039 156.068 79.6479C156.194 79.492 156.376 79.3912 156.575 79.3668C156.774 79.3425 156.975 79.3965 157.135 79.5175L157.556 79.8174C157.595 79.1312 157.895 78.4858 158.396 78.0137C158.896 77.5416 159.559 77.2786 160.247 77.2786C160.936 77.2786 161.598 77.5416 162.099 78.0137C162.599 78.4858 162.9 79.1312 162.938 79.8174C162.937 79.9726 162.923 80.1273 162.896 80.2801C163.099 80.2092 163.297 80.1233 163.488 80.0231C163.667 79.9338 163.874 79.9173 164.065 79.9772C164.256 80.0372 164.416 80.1688 164.512 80.3443C164.607 80.5198 164.631 80.7256 164.578 80.9182C164.525 81.1108 164.398 81.2753 164.226 81.3769L164.175 81.4026ZM166.286 54.5568C165.974 54.607 165.658 54.6327 165.342 54.6339H165.102C164.909 55.1305 164.547 55.5435 164.079 55.8006C163.612 56.0578 163.069 56.1427 162.545 56.0406C162.021 55.9385 161.55 55.6558 161.214 55.242C160.878 54.8282 160.698 54.3097 160.707 53.777C160.709 53.4149 160.801 53.059 160.973 52.7402L160.913 52.6888C160.614 52.4081 160.341 52.1013 160.097 51.772C160.038 51.6901 159.995 51.5972 159.972 51.4988C159.949 51.4004 159.946 51.2984 159.963 51.1988C159.98 51.0991 160.016 51.0038 160.07 50.9183C160.124 50.8328 160.194 50.7589 160.277 50.7009C160.445 50.5831 160.653 50.5359 160.855 50.5696C161.057 50.6032 161.238 50.715 161.359 50.8808C161.543 51.1284 161.747 51.3606 161.968 51.5749C162.603 52.2049 163.38 52.6723 164.235 52.9373H164.286C164.419 52.9749 164.553 53.0035 164.69 53.023H164.836H165.188C165.475 53.0362 165.762 53.019 166.046 52.9716C166.249 52.9375 166.456 52.9851 166.624 53.1041C166.791 53.223 166.905 53.4034 166.939 53.6057C166.973 53.8079 166.925 54.0154 166.806 54.1826C166.687 54.3497 166.506 54.4627 166.303 54.4968L166.286 54.5568ZM166.973 64.7622C166.97 64.1849 167.118 63.6168 167.402 63.1142C167.687 62.6117 168.098 62.1923 168.596 61.8978C169.093 61.6032 169.659 61.4437 170.237 61.4351C170.815 61.4265 171.386 61.5691 171.892 61.8488C172.027 61.5184 172.191 61.2002 172.381 60.8977C172.438 60.8127 172.51 60.7397 172.595 60.6827C172.679 60.6257 172.774 60.586 172.875 60.5657C172.975 60.5454 173.078 60.545 173.178 60.5644C173.278 60.5839 173.373 60.6229 173.458 60.6792C173.544 60.7354 173.617 60.8079 173.674 60.8924C173.731 60.9769 173.771 61.0717 173.791 61.1716C173.811 61.2714 173.812 61.3743 173.792 61.4743C173.773 61.5744 173.734 61.6696 173.677 61.7545C173.513 62.0276 173.372 62.3143 173.257 62.6114C172.635 64.0963 172.494 65.7382 172.853 67.3071C172.951 67.693 173.077 68.0711 173.231 68.4381C173.272 68.5308 173.294 68.6308 173.296 68.7321C173.298 68.8334 173.279 68.9341 173.242 69.0282C173.204 69.1223 173.148 69.208 173.077 69.2803C173.006 69.3526 172.921 69.4101 172.828 69.4493C172.733 69.4905 172.63 69.511 172.527 69.5092C172.376 69.5101 172.228 69.4667 172.101 69.3845C171.975 69.3022 171.875 69.1847 171.815 69.0465C171.658 68.6759 171.526 68.2951 171.42 67.9069C171.063 68.0409 170.685 68.1105 170.304 68.1125C169.865 68.1125 169.43 68.026 169.025 67.8578C168.62 67.6897 168.252 67.4433 167.943 67.1327C167.633 66.8222 167.388 66.4536 167.222 66.0483C167.055 65.6429 166.971 65.2088 166.973 64.7707V64.7622ZM175.918 74.3334C175.661 75.2192 175.232 76.0461 174.656 76.767C174.549 76.9103 174.435 77.0476 174.313 77.1783L174.27 77.2297C174.15 77.3582 174.029 77.4867 173.901 77.6067C173.87 77.6331 173.841 77.6617 173.815 77.6924L173.428 78.0266L173.308 78.1208L172.888 78.4293L172.733 78.5321C172.587 78.6264 172.441 78.7121 172.278 78.7977L172.158 78.8749C171.892 79.012 171.617 79.1491 171.3 79.269C171.206 79.3029 171.107 79.3203 171.008 79.3204C170.831 79.317 170.66 79.2528 170.525 79.1388C170.389 79.0247 170.297 78.8676 170.264 78.6939C170.231 78.5202 170.258 78.3403 170.342 78.1845C170.426 78.0287 170.561 77.9064 170.724 77.838L170.999 77.7095C170.745 77.4908 170.541 77.2198 170.402 76.9151C170.263 76.6104 170.191 76.2793 170.192 75.9444C170.191 75.6331 170.251 75.3246 170.37 75.0367C170.489 74.7488 170.663 74.487 170.883 74.2665C171.103 74.046 171.365 73.871 171.653 73.7517C171.941 73.6323 172.25 73.5708 172.561 73.5708C172.885 73.5739 173.205 73.644 173.501 73.7767C173.796 73.9095 174.061 74.102 174.278 74.342C174.342 74.1981 174.394 74.049 174.433 73.8964C174.488 73.707 174.614 73.546 174.785 73.4465C174.956 73.347 175.158 73.3167 175.351 73.3617C175.543 73.4067 175.711 73.5237 175.82 73.6885C175.928 73.8533 175.97 74.0535 175.935 74.2477L175.918 74.3334ZM175.437 58.2671C175.439 57.8462 175.393 57.4265 175.3 57.016C175.242 56.7527 175.161 56.4947 175.059 56.2448V56.1591C174.966 55.9428 174.857 55.7338 174.733 55.5336C174.735 55.5137 174.735 55.4936 174.733 55.4736C174.621 55.2902 174.494 55.1155 174.356 54.951C174.232 54.8059 174.101 54.6686 173.961 54.5397C173.773 54.3605 173.569 54.1998 173.351 54.0598C173.255 54.0155 173.168 53.9517 173.097 53.8725C173.027 53.7933 172.973 53.7003 172.94 53.5995C172.907 53.4986 172.895 53.392 172.905 53.2863C172.915 53.1807 172.947 53.0782 172.998 52.9854C173.05 52.8925 173.12 52.8113 173.204 52.7468C173.289 52.6823 173.386 52.6358 173.489 52.6104C173.592 52.585 173.7 52.5811 173.804 52.599C173.909 52.6169 174.009 52.6563 174.098 52.7145C174.43 52.9131 174.738 53.1488 175.017 53.4172H175.068C175.347 53.2652 175.661 53.1885 175.979 53.1946C176.297 53.2007 176.608 53.2895 176.881 53.4522C177.154 53.6148 177.38 53.8457 177.536 54.1221C177.692 54.3984 177.774 54.7107 177.772 55.0281C177.771 55.3483 177.686 55.6627 177.527 55.9406C177.367 56.2184 177.138 56.4502 176.862 56.6133V56.6733C176.965 57.1752 177.017 57.6862 177.017 58.1985C177.017 58.403 176.935 58.5992 176.79 58.7438C176.646 58.8884 176.449 58.9697 176.244 58.9697C176.039 58.9697 175.843 58.8884 175.698 58.7438C175.553 58.5992 175.472 58.403 175.472 58.1985L175.437 58.2671Z" fill="#FBC22D"/>
<path d="M179.961 52.7747C178.639 50.2041 175.944 45.8683 172.424 45.3028C167.926 40.1615 161.47 41.1212 160.157 41.3869C155.298 39.9387 149.04 43.1006 146.542 45.3456C145.06 46.6676 143.829 48.2469 142.911 50.007C140.834 51.2837 139.761 53.7258 138.92 56.0051C137.692 59.3126 137.555 62.0032 138.499 64.3511C138.193 65.8585 138.223 67.4149 138.588 68.9093C138.953 70.4037 139.644 71.7993 140.611 72.9969C140.903 75.4561 143.066 77.7183 144.499 78.995C146.929 81.1201 150.68 84.0334 155.17 84.8903C156.081 85.1032 157.032 85.0826 157.934 84.8303C159.093 85.3514 160.354 85.609 161.625 85.5844C164.233 85.5591 166.783 84.8116 168.99 83.4251C169.038 83.4003 169.079 83.3652 169.11 83.3222C170.939 83.048 173.918 81.8484 177.463 77.6583C183.712 70.2378 182.519 64.4625 182.193 63.3314C183.18 59.7411 181.463 55.6795 179.961 52.7747ZM167.746 81.8056H167.565C167.376 81.7786 167.184 81.8223 167.026 81.9283C166.867 82.0343 166.754 82.1951 166.707 82.3797C166.682 82.4711 166.675 82.5666 166.686 82.6607C166.698 82.7548 166.728 82.8457 166.776 82.9281C164.08 84.1534 160.277 84.6418 158.045 83.0994L157.496 82.6539C157.344 82.5255 157.147 82.4617 156.948 82.4761C156.749 82.4906 156.564 82.582 156.431 82.731C156.343 82.8326 156.281 82.9551 156.252 83.087C156.224 83.2189 156.229 83.3558 156.268 83.485C156.012 83.4659 155.757 83.4316 155.504 83.3822C151.384 82.5939 147.856 79.8433 145.564 77.8468C144.705 77.1013 142.13 74.6849 142.173 72.4399L142.267 71.7202C142.293 71.5244 142.242 71.3265 142.125 71.1671C142.009 71.0077 141.835 70.899 141.641 70.8633C141.459 70.8301 141.271 70.8604 141.109 70.949C139.95 69.0315 139.58 66.7402 140.078 64.5567L140.516 63.3828C140.585 63.196 140.58 62.9898 140.502 62.8066C140.424 62.6234 140.279 62.4769 140.096 62.3974C139.926 62.3379 139.741 62.3379 139.572 62.3974C139.352 60.425 139.648 58.4292 140.43 56.6049C141.289 54.3513 142.336 51.9264 144.456 51.0695L145.135 50.8467C145.326 50.7891 145.487 50.6591 145.583 50.4845C145.679 50.3099 145.703 50.1047 145.65 49.9127C145.62 49.7923 145.56 49.6812 145.476 49.5898C145.392 49.4985 145.287 49.4298 145.169 49.3901C145.884 48.3553 146.716 47.4064 147.65 46.5624C149.985 44.463 155.839 41.6868 159.917 42.9721L160.775 43.3148C160.961 43.3876 161.168 43.3864 161.353 43.3115C161.539 43.2366 161.688 43.0936 161.771 42.9121C161.789 42.8706 161.803 42.8276 161.814 42.7836C163.62 42.5784 165.449 42.8188 167.14 43.4836C168.831 44.1484 170.333 45.2174 171.514 46.5966L172.124 47.4021C172.246 47.5633 172.428 47.6698 172.628 47.6986C172.829 47.7275 173.033 47.6764 173.197 47.5563C173.298 47.4884 173.378 47.3934 173.428 47.2821C175.858 48.4903 177.832 51.935 178.656 53.5459C180.261 56.6906 182.159 61.2577 180.133 64.4367C180.077 64.5221 180.039 64.6177 180.02 64.7179C180.002 64.8181 180.003 64.9209 180.025 65.0205C180.046 65.1201 180.088 65.2145 180.146 65.2981C180.204 65.3818 180.278 65.453 180.364 65.5078C180.462 65.5679 180.572 65.606 180.686 65.6193C180.801 65.6326 180.916 65.6209 181.025 65.585C181.086 67.8214 180.442 71.8487 176.356 76.7243C171.737 81.9855 168.415 81.857 167.754 81.7713L167.746 81.8056Z" fill="#321951"/>
<path d="M153.289 57.6506C153.13 57.656 152.972 57.679 152.817 57.7191C152.636 57.1713 152.344 56.6666 151.959 56.2368C151.817 56.1011 151.628 56.0254 151.431 56.0254C151.234 56.0254 151.045 56.1011 150.903 56.2368C150.756 56.3726 150.667 56.5593 150.655 56.7586C150.642 56.9579 150.706 57.1545 150.834 57.3078C151.04 57.5906 151.202 57.9025 151.315 58.2333C151.48 58.6954 151.564 59.1823 151.564 59.6728V59.7499C151.564 59.8528 151.564 59.9556 151.564 60.067C151.568 60.1212 151.568 60.1756 151.564 60.2298C151.564 60.324 151.564 60.4097 151.512 60.504C151.461 60.5982 151.512 60.6582 151.461 60.7439C151.409 60.8296 151.418 60.9067 151.392 60.9924L151.298 61.2752L151.186 61.5322C150.934 62.0824 150.608 62.5956 150.216 63.0575C150.15 63.1351 150.1 63.2251 150.07 63.3223C150.039 63.4195 150.028 63.5218 150.038 63.6233C150.047 63.7247 150.077 63.8232 150.125 63.9129C150.174 64.0027 150.24 64.0818 150.319 64.1457C150.396 64.2115 150.486 64.2611 150.582 64.2916C150.679 64.3222 150.781 64.3329 150.882 64.3233C150.983 64.3137 151.081 64.284 151.17 64.2358C151.259 64.1876 151.338 64.122 151.401 64.0429C151.808 63.5629 152.156 63.0365 152.44 62.4748C152.715 62.5746 153.005 62.6239 153.298 62.6205C153.956 62.6205 154.587 62.3596 155.052 61.8951C155.517 61.4307 155.779 60.8009 155.779 60.1441C155.779 59.4873 155.517 58.8575 155.052 58.393C154.587 57.9286 153.956 57.6677 153.298 57.6677L153.289 57.6506Z" fill="#321951"/>
<path d="M147.607 70.3662C147.17 70.3659 146.741 70.4826 146.365 70.7042C145.989 70.9257 145.68 71.244 145.469 71.6258C145.014 71.4361 144.534 71.3093 144.044 71.2488C143.843 71.2244 143.64 71.2799 143.48 71.4033C143.319 71.5267 143.214 71.7082 143.186 71.9086C143.164 72.1103 143.221 72.3126 143.346 72.4726C143.471 72.6326 143.654 72.7377 143.855 72.7655C144.216 72.8279 144.57 72.9255 144.911 73.0568C145.559 73.3008 146.145 73.684 146.628 74.1793L146.688 74.2393L146.92 74.5135C146.965 74.573 147.005 74.6361 147.04 74.702C147.091 74.7671 147.137 74.8359 147.177 74.9076L147.298 75.1476L147.401 75.3618C147.523 75.6738 147.609 75.9986 147.658 76.33C147.685 76.5132 147.777 76.6807 147.917 76.8019C148.057 76.923 148.237 76.9897 148.422 76.9898H148.542C148.742 76.9601 148.921 76.8538 149.043 76.6938C149.165 76.5337 149.219 76.3325 149.195 76.133C149.132 75.7295 149.028 75.3334 148.886 74.9505C149.341 74.6687 149.691 74.2462 149.883 73.7474C150.075 73.2485 150.098 72.7007 149.95 72.1873C149.801 71.674 149.488 71.2232 149.059 70.9037C148.63 70.5842 148.108 70.4135 147.572 70.4176L147.607 70.3662Z" fill="#321951"/>
<path d="M171.42 67.8733C171.526 68.2616 171.658 68.6423 171.815 69.013C171.875 69.1512 171.975 69.2687 172.101 69.3509C172.228 69.4332 172.376 69.4765 172.527 69.4757C172.63 69.4774 172.733 69.457 172.828 69.4157C172.921 69.3765 173.006 69.3191 173.077 69.2468C173.148 69.1745 173.204 69.0888 173.242 68.9946C173.279 68.9005 173.298 68.7998 173.296 68.6985C173.294 68.5972 173.272 68.4973 173.231 68.4046C173.077 68.0375 172.951 67.6594 172.853 67.2735C172.494 65.7046 172.635 64.0627 173.257 62.5779C173.372 62.2807 173.513 61.994 173.677 61.721C173.734 61.636 173.773 61.5408 173.792 61.4408C173.812 61.3408 173.811 61.2379 173.791 61.138C173.771 61.0382 173.731 60.9433 173.674 60.8588C173.617 60.7743 173.544 60.7019 173.458 60.6456C173.373 60.5893 173.278 60.5504 173.178 60.5309C173.078 60.5114 172.975 60.5118 172.874 60.5321C172.774 60.5524 172.679 60.5922 172.595 60.6491C172.51 60.7061 172.438 60.7792 172.381 60.8641C172.191 61.1666 172.027 61.4848 171.892 61.8152C171.446 61.5737 170.951 61.437 170.444 61.4155C169.937 61.394 169.432 61.4884 168.968 61.6913C168.503 61.8943 168.091 62.2005 167.763 62.5867C167.435 62.9728 167.199 63.4286 167.075 63.9194C166.95 64.4101 166.939 64.9229 167.043 65.4184C167.147 65.914 167.363 66.3793 167.674 66.7789C167.986 67.1785 168.385 67.5018 168.84 67.7241C169.296 67.9465 169.797 68.062 170.304 68.0618C170.684 68.0653 171.062 68.0015 171.42 67.8733Z" fill="#321951"/>
<path d="M149.435 50.5638C149.537 50.5651 149.638 50.546 149.732 50.5078C149.827 50.4695 149.912 50.4128 149.984 50.341C150.294 50.0273 150.63 49.7406 150.989 49.4841L151.281 49.287L151.607 49.0728L151.804 48.97C153.351 48.1333 155.084 47.7001 156.843 47.7104C156.949 47.7262 157.057 47.7199 157.16 47.692C157.263 47.6642 157.359 47.6153 157.442 47.5485C157.525 47.4816 157.593 47.3983 157.643 47.3038C157.692 47.2093 157.721 47.1056 157.728 46.9993C157.735 46.8929 157.72 46.7863 157.684 46.686C157.648 46.5858 157.591 46.4941 157.518 46.4168C157.444 46.3395 157.356 46.2783 157.257 46.2369C157.159 46.1956 157.053 46.175 156.946 46.1766C156.465 46.1539 155.983 46.1711 155.504 46.228H155.324C155.039 45.6639 154.573 45.2118 154 44.9446C153.427 44.6774 152.78 44.6107 152.164 44.7553C151.548 44.8998 150.999 45.2471 150.605 45.7413C150.211 46.2354 149.996 46.8476 149.993 47.479C149.993 47.7248 150.025 47.9696 150.087 48.2074L149.976 48.2759C149.618 48.5398 149.276 48.826 148.954 49.1328C148.848 49.2411 148.776 49.3783 148.747 49.5273C148.719 49.6762 148.735 49.8303 148.793 49.9702C148.852 50.1101 148.951 50.2297 149.077 50.3139C149.203 50.3982 149.352 50.4433 149.504 50.4438L149.435 50.5638Z" fill="#321951"/>
<path d="M163.427 47.0513C163.627 47.0394 163.828 47.0394 164.028 47.0513C165.017 47.16 165.961 47.5232 166.767 48.1053L167.136 48.4052C167.338 48.5887 167.53 48.7832 167.711 48.9879C167.782 49.0769 167.872 49.1487 167.974 49.1977C168.077 49.2467 168.189 49.2717 168.303 49.2707C168.482 49.2698 168.656 49.2061 168.793 49.0907C168.949 48.959 169.048 48.7712 169.067 48.5676C169.086 48.3641 169.025 48.1611 168.896 48.0025C168.691 47.7673 168.473 47.5441 168.243 47.3341L168.174 47.2741L168.003 47.1285C168.011 47.0258 168.011 46.9226 168.003 46.82C167.985 46.4232 167.848 46.0409 167.611 45.722C167.374 45.403 167.047 45.1618 166.672 45.0294C166.297 44.8969 165.891 44.8791 165.505 44.9783C165.12 45.0775 164.773 45.2891 164.509 45.5861H164.243H163.384C163.347 45.5812 163.31 45.5812 163.273 45.5861C163.211 45.5981 163.151 45.6153 163.093 45.6375C163.023 45.6762 162.959 45.7254 162.904 45.7832C162.866 45.8355 162.832 45.8898 162.801 45.946C162.801 45.946 162.801 46.006 162.758 46.0402C162.745 46.1139 162.745 46.1893 162.758 46.263C162.758 46.263 162.758 46.3144 162.758 46.3401C162.767 46.5187 162.839 46.6882 162.962 46.8185C163.084 46.9487 163.249 47.0313 163.427 47.0513Z" fill="#321951"/>
<path d="M176.982 58.25C176.982 57.7377 176.931 57.2266 176.828 56.7247V56.6648C177.181 56.4639 177.458 56.1514 177.615 55.7764C177.772 55.4014 177.799 54.9851 177.693 54.5929C177.587 54.2007 177.353 53.8547 177.029 53.6093C176.704 53.364 176.308 53.2331 175.901 53.2373C175.6 53.2401 175.306 53.3166 175.042 53.4601H174.991C174.712 53.1918 174.404 52.956 174.072 52.7574C173.983 52.6992 173.883 52.6598 173.778 52.6419C173.674 52.624 173.566 52.6279 173.463 52.6533C173.36 52.6787 173.263 52.7252 173.178 52.7897C173.094 52.8542 173.024 52.9354 172.972 53.0283C172.921 53.1211 172.889 53.2236 172.879 53.3292C172.869 53.4349 172.881 53.5415 172.914 53.6424C172.947 53.7432 173.001 53.8362 173.072 53.9154C173.142 53.9946 173.229 54.0584 173.325 54.1027C173.543 54.2427 173.748 54.4034 173.935 54.5826C174.075 54.7115 174.207 54.8488 174.33 54.9938C174.469 55.1584 174.595 55.3331 174.707 55.5165C174.709 55.5365 174.709 55.5566 174.707 55.5765C174.832 55.7767 174.941 55.9857 175.034 56.202V56.2877C175.135 56.5376 175.216 56.7956 175.274 57.0589C175.367 57.4694 175.413 57.8891 175.411 58.3099C175.411 58.5145 175.493 58.7106 175.638 58.8553C175.782 58.9999 175.979 59.0811 176.184 59.0811C176.389 59.0811 176.585 58.9999 176.73 58.8553C176.875 58.7106 176.956 58.5145 176.956 58.3099L176.982 58.25Z" fill="#321951"/>
<path d="M175.343 73.3912C175.143 73.3449 174.934 73.3793 174.76 73.487C174.586 73.5946 174.462 73.7666 174.415 73.9653C174.377 74.1179 174.325 74.2669 174.261 74.4109C174.044 74.1708 173.779 73.9783 173.483 73.8456C173.188 73.7129 172.868 73.6427 172.544 73.6397C172.232 73.6397 171.923 73.7011 171.635 73.8205C171.347 73.9399 171.086 74.1149 170.866 74.3354C170.646 74.5559 170.471 74.8176 170.353 75.1055C170.234 75.3935 170.174 75.7019 170.175 76.0132C170.174 76.3481 170.245 76.6793 170.385 76.9839C170.524 77.2886 170.728 77.5596 170.982 77.7784L170.707 77.9069C170.544 77.9752 170.409 78.0975 170.325 78.2533C170.241 78.4091 170.213 78.589 170.247 78.7627C170.28 78.9365 170.372 79.0935 170.507 79.2076C170.643 79.3217 170.813 79.3858 170.99 79.3893C171.09 79.3892 171.189 79.3718 171.282 79.3379C171.583 79.2179 171.857 79.0808 172.141 78.9437L172.261 78.8666C172.424 78.7809 172.57 78.6952 172.716 78.601L172.87 78.4981L173.291 78.1897L173.411 78.0954L173.797 77.7612C173.824 77.7306 173.852 77.7019 173.883 77.6755C174.012 77.5556 174.132 77.427 174.252 77.2985L174.295 77.2471C174.417 77.1164 174.532 76.9791 174.639 76.8358C175.22 76.1022 175.649 75.2603 175.901 74.3594C175.93 74.2593 175.939 74.1541 175.927 74.0504C175.915 73.9467 175.882 73.8465 175.829 73.7559C175.777 73.6654 175.707 73.5864 175.623 73.5237C175.54 73.461 175.444 73.4159 175.343 73.3912Z" fill="#321951"/>
<path d="M163.436 80.0316C163.245 80.1317 163.047 80.2177 162.844 80.2886C162.871 80.1358 162.885 79.9811 162.887 79.8259C162.848 79.1397 162.547 78.4943 162.047 78.0222C161.547 77.5501 160.884 77.2871 160.196 77.2871C159.507 77.2871 158.845 77.5501 158.344 78.0222C157.844 78.4943 157.543 79.1397 157.504 79.8259L157.084 79.526C156.924 79.405 156.723 79.351 156.523 79.3753C156.324 79.3997 156.142 79.5005 156.016 79.6564C155.89 79.8124 155.83 80.0112 155.848 80.2108C155.866 80.4103 155.961 80.595 156.114 80.7256C156.492 81.0316 156.901 81.2986 157.333 81.5225C157.592 81.6516 157.859 81.7661 158.131 81.8653H158.174C158.928 82.1364 159.724 82.2755 160.526 82.2766C160.914 82.2728 161.301 82.2413 161.685 82.1823C161.855 82.1607 162.025 82.1293 162.191 82.0881C162.862 81.946 163.511 81.7185 164.123 81.4111C164.295 81.3095 164.421 81.145 164.475 80.9524C164.528 80.7597 164.504 80.554 164.408 80.3785C164.313 80.2029 164.153 80.0714 163.962 80.0114C163.771 79.9515 163.564 79.968 163.385 80.0573L163.436 80.0316Z" fill="#321951"/>
<path d="M156.225 71.6257C156.509 71.5753 156.796 71.5523 157.084 71.5572C157.589 71.5622 158.088 71.667 158.552 71.8657C158.712 71.9454 158.864 72.0401 159.007 72.1484C159.232 72.3167 159.427 72.5225 159.582 72.7568C159.653 72.8625 159.748 72.949 159.861 73.0088C159.973 73.0686 160.098 73.0998 160.226 73.0996C160.376 73.0993 160.522 73.0546 160.646 72.971C160.732 72.9155 160.805 72.8438 160.863 72.7598C160.92 72.6758 160.96 72.5814 160.981 72.4818C161.002 72.3823 161.003 72.2796 160.984 72.1798C160.964 72.0799 160.926 71.9848 160.87 71.8999C160.634 71.5532 160.344 71.2465 160.011 70.9917C160.141 70.7585 160.209 70.4959 160.209 70.229C160.228 69.8065 160.081 69.3933 159.799 69.0777C159.517 68.7621 159.122 68.5691 158.699 68.54C158.277 68.5109 157.859 68.648 157.537 68.922C157.214 69.196 157.011 69.5851 156.972 70.0062C156.584 70.005 156.196 70.0394 155.813 70.1091C155.714 70.131 155.62 70.1722 155.537 70.2304C155.454 70.2886 155.383 70.3625 155.328 70.4481C155.274 70.5336 155.236 70.629 155.219 70.7289C155.201 70.8288 155.203 70.9312 155.225 71.0302C155.247 71.1292 155.289 71.223 155.347 71.3061C155.405 71.3891 155.479 71.46 155.565 71.5145C155.651 71.569 155.746 71.6061 155.846 71.6237C155.946 71.6413 156.049 71.6391 156.148 71.6172L156.225 71.6257Z" fill="#321951"/>
<path d="M143.495 62.7656C143.409 62.5256 143.341 62.2943 143.28 62.0629C143.366 62.0718 143.452 62.0718 143.538 62.0629C144.119 62.0766 144.681 61.8594 145.101 61.4593C145.521 61.0592 145.765 60.5088 145.778 59.9293C145.792 59.3498 145.575 58.7886 145.174 58.3692C144.773 57.9498 144.222 57.7065 143.641 57.6929C143.718 57.5142 143.81 57.3422 143.916 57.1787C144.011 57.0096 144.039 56.8108 143.994 56.622C143.949 56.4332 143.834 56.2683 143.673 56.1601C143.512 56.052 143.315 56.0086 143.123 56.0386C142.931 56.0685 142.757 56.1697 142.637 56.3219C142.381 56.7096 142.174 57.1268 142.019 57.5643C142.017 57.5843 142.017 57.6043 142.019 57.6243C141.508 58.9929 141.389 60.4764 141.675 61.9087C141.764 62.3694 141.891 62.8221 142.053 63.2625C142.11 63.4092 142.21 63.5352 142.341 63.6239C142.471 63.7126 142.625 63.7599 142.783 63.7595C142.873 63.7621 142.963 63.7475 143.049 63.7167C143.228 63.6421 143.374 63.5033 143.456 63.3274C143.539 63.1515 143.553 62.9511 143.495 62.7656Z" fill="#321951"/>
<path d="M166.028 53.0146C165.745 53.062 165.457 53.0793 165.17 53.066H164.818H164.672C164.536 53.0466 164.401 53.0179 164.269 52.9803H164.217C163.351 52.7006 162.566 52.212 161.934 51.5579C161.712 51.3436 161.508 51.1115 161.324 50.8638C161.204 50.6981 161.023 50.5863 160.82 50.5526C160.618 50.5189 160.41 50.5661 160.243 50.6839C160.16 50.7419 160.089 50.8159 160.035 50.9013C159.981 50.9868 159.945 51.0822 159.928 51.1818C159.911 51.2815 159.915 51.3835 159.938 51.4819C159.961 51.5803 160.003 51.6731 160.062 51.755C160.306 52.0843 160.579 52.3912 160.878 52.6718L160.938 52.7233C160.766 53.042 160.674 53.398 160.672 53.7601C160.664 54.2927 160.843 54.8113 161.179 55.2251C161.515 55.6389 161.987 55.9215 162.51 56.0237C163.034 56.1258 163.577 56.0408 164.045 55.7837C164.512 55.5265 164.874 55.1135 165.067 54.617H165.367C165.684 54.6158 165.999 54.59 166.312 54.5398C166.514 54.5057 166.695 54.3927 166.814 54.2256C166.933 54.0585 166.981 53.8509 166.947 53.6487C166.913 53.4464 166.8 53.266 166.632 53.1471C166.465 53.0282 166.257 52.9805 166.054 53.0146H166.028Z" fill="#321951"/>
<path d="M183.764 126.731C183.757 126.213 183.639 125.701 183.419 125.231C183.198 124.761 182.88 124.344 182.485 124.007C181.585 123.251 180.446 122.837 179.27 122.837C178.094 122.837 176.956 123.251 176.055 124.007L166.029 132.875C165.918 132.974 165.78 133.039 165.633 133.062C165.486 133.085 165.335 133.065 165.199 133.004C165.063 132.944 164.947 132.845 164.866 132.72C164.785 132.595 164.741 132.45 164.741 132.301V104.65C164.741 102.499 162.732 100.751 160.252 100.751C157.771 100.751 155.753 102.465 155.753 104.65V132.387C155.753 132.536 155.71 132.681 155.629 132.806C155.548 132.931 155.432 133.029 155.296 133.09C155.16 133.151 155.009 133.171 154.862 133.148C154.714 133.125 154.577 133.06 154.466 132.961L144.336 123.998C143.436 123.243 142.298 122.828 141.121 122.828C139.945 122.828 138.807 123.243 137.907 123.998C137.505 124.33 137.182 124.746 136.96 125.217C136.739 125.688 136.624 126.202 136.624 126.723C136.624 127.243 136.739 127.757 136.96 128.228C137.182 128.699 137.505 129.116 137.907 129.448L156.921 146.26C157.814 147.025 158.954 147.442 160.131 147.433H160.217C161.395 147.446 162.537 147.028 163.428 146.26L182.442 129.448C182.846 129.118 183.174 128.704 183.402 128.235C183.63 127.766 183.754 127.253 183.764 126.731Z" fill="white"/>
<path d="M175.034 122.85L166.295 130.562V104.65C166.295 101.642 163.582 99.209 160.286 99.209C156.99 99.209 154.277 101.642 154.277 104.65V130.673L145.426 122.85C144.245 121.841 142.741 121.287 141.186 121.287C139.631 121.287 138.127 121.841 136.945 122.85C136.381 123.327 135.928 123.921 135.617 124.591C135.306 125.26 135.145 125.989 135.145 126.727C135.145 127.465 135.306 128.195 135.617 128.864C135.928 129.534 136.381 130.128 136.945 130.605L155.925 147.425C156.336 147.789 156.796 148.094 157.29 148.334H138.611C135.28 148.334 132.602 150.776 132.602 153.775C132.602 156.774 135.314 159.216 138.611 159.216H181.781C185.112 159.216 187.79 156.782 187.79 153.775C187.79 150.767 185.077 148.334 181.781 148.334H163.11C163.608 148.097 164.071 147.791 164.484 147.425L183.506 130.613C184.071 130.136 184.524 129.542 184.835 128.873C185.146 128.203 185.307 127.474 185.307 126.736C185.307 125.998 185.146 125.269 184.835 124.599C184.524 123.93 184.071 123.336 183.506 122.859C182.325 121.85 180.821 121.295 179.266 121.295C177.711 121.295 176.207 121.85 175.025 122.859L175.034 122.85ZM181.781 157.673H138.611C136.13 157.673 134.112 155.96 134.112 153.775C134.112 151.59 136.13 149.876 138.611 149.876H181.781C184.262 149.876 186.279 151.59 186.279 153.775C186.279 155.96 184.253 157.673 181.781 157.673ZM160.217 147.442H160.106C158.929 147.451 157.788 147.034 156.895 146.268L137.898 129.457C137.497 129.125 137.173 128.708 136.952 128.237C136.73 127.766 136.615 127.252 136.615 126.732C136.615 126.211 136.73 125.697 136.952 125.226C137.173 124.755 137.497 124.339 137.898 124.007C138.798 123.251 139.937 122.837 141.113 122.837C142.289 122.837 143.427 123.251 144.328 124.007L154.457 132.97C154.568 133.069 154.706 133.134 154.853 133.157C155 133.18 155.151 133.16 155.287 133.099C155.423 133.038 155.539 132.94 155.62 132.815C155.701 132.69 155.745 132.544 155.745 132.396V104.65C155.745 102.499 157.762 100.751 160.243 100.751C162.724 100.751 164.733 102.465 164.733 104.65V132.293C164.733 132.442 164.776 132.587 164.857 132.712C164.938 132.837 165.054 132.936 165.19 132.996C165.326 133.057 165.477 133.077 165.624 133.054C165.772 133.031 165.909 132.966 166.02 132.867L176.047 123.998C176.947 123.243 178.085 122.829 179.261 122.829C180.438 122.829 181.576 123.243 182.476 123.998C182.871 124.336 183.19 124.753 183.41 125.223C183.631 125.693 183.748 126.204 183.755 126.723C183.751 127.243 183.633 127.756 183.411 128.227C183.189 128.697 182.867 129.114 182.468 129.448L163.453 146.26C162.557 147.038 161.405 147.459 160.217 147.442Z" fill="#321951"/>
<path d="M181.781 149.876H138.61C136.13 149.876 134.112 151.59 134.112 153.775C134.112 155.96 136.13 157.674 138.61 157.674H181.781C184.262 157.674 186.279 155.96 186.279 153.775C186.279 151.59 184.253 149.876 181.781 149.876Z" fill="white"/>
<path d="M236.162 55.8166L240.506 53.3574C241.888 52.5776 242.66 51.5494 242.669 50.4783C242.678 49.4072 241.914 48.3704 240.54 47.5649L236.334 45.1143L231.99 50.4869L236.162 55.8166Z" fill="#8B6FE2"/>
<path d="M231.02 49.245L234.986 44.3351L220.599 35.9463L231.02 49.245Z" fill="#8B6FE2"/>
<path d="M220.521 64.6683L234.806 56.588L230.994 51.7295L220.521 64.6683Z" fill="#8B6FE2"/>
<path d="M230.016 50.4701L216.985 33.8382L216.487 33.5469C216.067 33.2969 215.617 33.1011 215.148 32.9642C214.819 32.8652 214.478 32.8133 214.135 32.8099C213.6 32.8005 213.078 32.9694 212.65 33.2898C212.22 33.6816 211.886 34.1665 211.674 34.7071C211.461 35.2478 211.375 35.8299 211.422 36.4088L211.242 64.1458C211.242 66.0052 211.972 67.3248 213.217 67.6761C213.456 67.746 213.705 67.7806 213.955 67.779C214.773 67.7413 215.567 67.4965 216.264 67.0677L216.856 66.7336L230.016 50.4701Z" fill="#8B6FE2"/>
<path d="M241.321 46.2373L236.66 43.5211C236.81 43.645 236.907 43.8221 236.929 44.0154C236.951 44.2086 236.898 44.4029 236.78 44.5579L236.351 45.0977L240.557 47.5484C241.931 48.3538 242.686 49.3906 242.686 50.4617C242.686 51.5328 241.905 52.5611 240.523 53.3408L236.179 55.8L236.549 56.2799C236.636 56.3941 236.689 56.53 236.704 56.6727C236.718 56.8154 236.693 56.9593 236.631 57.0886C236.569 57.2179 236.472 57.3276 236.352 57.4056C236.231 57.4837 236.091 57.527 235.948 57.5309C235.83 57.5319 235.713 57.5053 235.607 57.4532C235.501 57.4012 235.409 57.3251 235.338 57.231L234.815 56.5712L220.539 64.6516L217.964 67.8134C217.891 67.8995 217.8 67.9687 217.698 68.016C217.596 68.0634 217.484 68.0878 217.371 68.0876C217.19 68.0866 217.014 68.0231 216.873 67.9077C216.796 67.8433 216.732 67.7641 216.685 67.6748C216.638 67.5856 216.609 67.4879 216.601 67.3875C216.592 67.2871 216.603 67.186 216.634 67.0899C216.664 66.9939 216.714 66.9049 216.779 66.828L216.865 66.7166L216.273 67.0508C215.576 67.4796 214.781 67.7243 213.963 67.762C213.714 67.7636 213.465 67.729 213.225 67.6592C211.98 67.3079 211.242 65.9454 211.251 64.1289L211.431 36.3919C211.384 35.8129 211.469 35.2308 211.682 34.6902C211.895 34.1495 212.229 33.6647 212.659 33.2729C213.086 32.9524 213.609 32.7836 214.144 32.793C214.487 32.7964 214.828 32.8483 215.157 32.9472C215.626 33.0841 216.076 33.2799 216.496 33.5299L216.994 33.8213L216.848 33.6327C216.736 33.5045 216.672 33.3425 216.664 33.173C216.656 33.0035 216.706 32.8364 216.805 32.6986C216.905 32.5609 217.048 32.4606 217.211 32.414C217.374 32.3674 217.549 32.3771 217.706 32.4417L217.294 32.2018C216.757 31.8816 216.18 31.6338 215.577 31.4648C214.936 31.2516 214.254 31.1925 213.585 31.2922C212.917 31.392 212.282 31.6478 211.731 32.039C211.108 32.5714 210.617 33.2408 210.297 33.9946C209.977 34.7484 209.836 35.566 209.886 36.3833L209.706 64.1203C209.706 66.6909 210.847 68.5932 212.805 69.1416C213.182 69.2478 213.571 69.3025 213.963 69.3044C215.049 69.2719 216.108 68.9589 217.037 68.3961L241.261 54.6861C243.15 53.615 244.197 52.1155 244.214 50.4703C244.232 48.8251 243.193 47.3256 241.321 46.2373Z" fill="#321951"/>
<path d="M220.59 35.9372L234.986 44.326L235.553 43.6319C235.663 43.4956 235.817 43.4009 235.989 43.3635C236.16 43.3261 236.34 43.3483 236.497 43.4263L217.955 32.6211C217.993 32.6419 218.028 32.6678 218.058 32.6982L220.59 35.9372Z" fill="#321951"/>
<path d="M216.968 32.5701C216.888 32.632 216.821 32.7093 216.771 32.7974C216.721 32.8854 216.689 32.9825 216.677 33.083C216.665 33.1835 216.673 33.2853 216.701 33.3827C216.729 33.48 216.776 33.5708 216.839 33.6498L216.985 33.8383L230.016 50.4702L216.874 66.7251L216.788 66.8365C216.722 66.9133 216.673 67.0024 216.642 67.0984C216.612 67.1944 216.601 67.2956 216.609 67.396C216.618 67.4963 216.647 67.594 216.694 67.6833C216.74 67.7726 216.804 67.8517 216.882 67.9161C217.022 68.0315 217.198 68.0951 217.38 68.0961C217.493 68.0963 217.604 68.0719 217.707 68.0245C217.809 67.9771 217.9 67.908 217.972 67.8219L220.548 64.66L231.02 51.7126L234.823 56.5797L235.347 57.2395C235.408 57.3205 235.485 57.3883 235.574 57.4388C235.662 57.4894 235.759 57.5216 235.86 57.5336C235.961 57.5456 236.064 57.5372 236.161 57.5087C236.259 57.4802 236.35 57.4324 236.429 57.368C236.509 57.3061 236.576 57.2288 236.626 57.1408C236.676 57.0527 236.708 56.9556 236.72 56.8551C236.731 56.7546 236.723 56.6528 236.695 56.5555C236.668 56.4582 236.621 56.3674 236.557 56.2884L236.188 55.8085L232.016 50.4788L236.36 45.1062L236.789 44.5663C236.907 44.4114 236.96 44.217 236.938 44.0238C236.915 43.8306 236.819 43.6535 236.669 43.5295C236.627 43.4999 236.58 43.4768 236.532 43.461C236.374 43.3829 236.195 43.3608 236.023 43.3982C235.852 43.4356 235.698 43.5303 235.587 43.6666L235.021 44.3607L231.046 49.2706L220.591 35.9376L218.058 32.6986C218.028 32.6683 217.993 32.6423 217.955 32.6215C217.878 32.5464 217.784 32.4907 217.68 32.4587C217.562 32.4173 217.435 32.4058 217.31 32.4252C217.186 32.4446 217.068 32.4944 216.968 32.5701Z" fill="black"/>
<path d="M91.1909 206.78C97.8463 206.78 104.352 204.81 109.886 201.12C115.42 197.429 119.733 192.183 122.28 186.045C124.827 179.907 125.493 173.154 124.195 166.638C122.896 160.122 119.691 154.137 114.985 149.44C110.279 144.742 104.283 141.543 97.7558 140.247C91.2282 138.951 84.4623 139.616 78.3135 142.158C72.1647 144.701 66.9092 149.006 63.2116 154.53C59.5141 160.053 57.5405 166.548 57.5405 173.191C57.5496 182.097 61.0978 190.635 67.4065 196.932C73.7152 203.23 82.2691 206.771 91.1909 206.78ZM91.1909 198.803H91.1051C89.4482 198.733 87.883 198.025 86.7389 196.826C85.5948 195.628 84.9611 194.033 84.9712 192.378C84.9812 190.722 85.6341 189.136 86.7926 187.951C87.9511 186.766 89.5247 186.077 91.1823 186.027H91.2682C92.9251 186.097 94.4903 186.805 95.6343 188.004C96.7784 189.202 97.4121 190.797 97.4021 192.452C97.3921 194.108 96.7391 195.694 95.5807 196.879C94.4222 198.063 92.8485 198.753 91.1909 198.803ZM103.415 185.95C102.72 186.608 101.797 186.973 100.84 186.97H100.788C100.28 186.967 99.7773 186.859 99.3121 186.655C98.8469 186.45 98.4289 186.151 98.0841 185.778C97.1575 184.782 96.0371 183.985 94.7914 183.435C93.5457 182.886 92.2008 182.596 90.839 182.582H90.6844C88.0958 182.584 85.6066 183.578 83.7312 185.359C83.0026 186.046 82.0303 186.416 81.0282 186.388C80.0261 186.36 79.0762 185.936 78.3875 185.209C77.6988 184.481 77.3277 183.511 77.3558 182.511C77.384 181.51 77.8091 180.562 78.5377 179.875C81.8173 176.772 86.1656 175.045 90.6844 175.05H90.9162C93.2927 175.08 95.6386 175.591 97.8119 176.551C99.9853 177.511 101.941 178.901 103.561 180.637C104.248 181.363 104.62 182.332 104.594 183.33C104.569 184.329 104.148 185.277 103.424 185.967L103.415 185.95ZM110.883 178.692C110.186 179.347 109.265 179.712 108.308 179.712H108.248C107.741 179.709 107.241 179.603 106.777 179.4C106.314 179.196 105.897 178.9 105.552 178.529C103.685 176.523 101.428 174.918 98.9193 173.81C96.4106 172.702 93.7022 172.116 90.9591 172.086H90.6844C85.3864 172.096 80.3027 174.175 76.5204 177.878C75.8031 178.575 74.8377 178.96 73.8364 178.947C72.8352 178.934 71.8801 178.525 71.1809 177.81C70.4751 177.098 70.0801 176.137 70.0822 175.136C70.0878 174.639 70.1924 174.149 70.3898 173.693C70.5873 173.237 70.8738 172.824 71.2325 172.48C76.4267 167.398 83.4116 164.555 90.6844 164.562H91.045C94.8009 164.603 98.5093 165.405 101.945 166.921C105.38 168.437 108.471 170.634 111.029 173.38C111.37 173.739 111.636 174.163 111.812 174.627C111.987 175.09 112.068 175.584 112.051 176.079C112.031 177.082 111.615 178.037 110.892 178.735L110.883 178.692ZM90.6844 154.048H91.1909C96.3252 154.106 101.394 155.203 106.091 157.274C110.788 159.345 115.014 162.346 118.515 166.096C119.018 166.634 119.352 167.306 119.478 168.031C119.604 168.755 119.515 169.501 119.222 170.176C118.93 170.851 118.446 171.426 117.831 171.83C117.216 172.235 116.496 172.452 115.759 172.454C115.251 172.449 114.749 172.341 114.284 172.136C113.819 171.932 113.401 171.634 113.055 171.263C110.244 168.25 106.849 165.84 103.075 164.178C99.302 162.516 95.2292 161.638 91.1051 161.598H90.6844C82.6455 161.594 74.9312 164.764 69.2237 170.415C68.5174 171.111 67.5636 171.499 66.5712 171.494C65.8217 171.491 65.0903 171.264 64.4701 170.845C63.8498 170.425 63.3687 169.83 63.088 169.136C62.8072 168.443 62.7396 167.681 62.8936 166.949C63.0477 166.217 63.4164 165.547 63.953 165.025C71.0667 157.994 80.6732 154.049 90.6844 154.048Z" fill="white"/>
<path d="M91.1909 208.323C93.79 208.324 96.3812 208.036 98.9167 207.466C102.183 206.733 105.326 205.533 108.248 203.902C109.615 205.433 111.299 206.649 113.184 207.466C115.077 208.298 117.124 208.727 119.193 208.726H200.211C202.28 208.725 204.326 208.296 206.22 207.466C208.677 206.449 210.783 204.736 212.276 202.539C213.769 200.342 214.586 197.756 214.624 195.102V76.2189H242.18C245.571 76.2144 248.821 74.8678 251.219 72.4744C253.617 70.081 254.966 66.8362 254.97 63.4515V36.6228C254.966 33.238 253.617 29.9932 251.219 27.5999C248.821 25.2065 245.571 23.8599 242.18 23.8554H214.624V13.6243C214.624 6.10951 208.16 0 200.22 0H119.227C111.287 0 104.831 6.10951 104.831 13.6243V140.81C100.026 138.792 94.8324 137.864 89.6245 138.094C84.4166 138.324 79.3248 139.705 74.7172 142.139C70.1096 144.573 66.1012 147.998 62.9816 152.167C59.862 156.336 57.7091 161.145 56.6785 166.246C55.6479 171.347 55.7654 176.612 57.0224 181.662C58.2794 186.712 60.6445 191.421 63.9469 195.447C67.2493 199.473 71.4065 202.717 76.118 204.944C80.8296 207.171 85.9779 208.325 91.1909 208.323ZM91.1909 139.61C97.8467 139.61 104.353 141.581 109.887 145.272C115.421 148.963 119.734 154.21 122.281 160.348C124.827 166.486 125.493 173.24 124.194 179.756C122.895 186.272 119.689 192.257 114.982 196.954C110.275 201.651 104.279 204.85 97.7505 206.145C91.2224 207.44 84.4561 206.774 78.3075 204.23C72.1588 201.686 66.904 197.38 63.2074 191.855C59.5109 186.33 57.5388 179.835 57.5405 173.191C57.5519 164.287 61.1011 155.751 67.4095 149.456C73.718 143.16 82.2705 139.619 91.1909 139.61ZM119.227 1.54237H200.246C207.336 1.54237 213.122 6.95781 213.122 13.6243V23.8554H208.289C204.898 23.8599 201.647 25.2065 199.25 27.5999C196.852 29.9932 195.503 33.238 195.498 36.6228V63.4515C195.503 66.8362 196.852 70.081 199.25 72.4744C201.647 74.8678 204.898 76.2144 208.289 76.2189H213.131V195.084C213.131 201.742 207.362 207.166 200.254 207.166H119.227C117.436 207.178 115.661 206.822 114.013 206.12C112.365 205.419 110.879 204.386 109.647 203.088C115.026 199.775 119.413 195.078 122.346 189.49C125.279 183.901 126.65 177.627 126.315 171.327C125.981 165.027 123.953 158.933 120.444 153.686C116.936 148.438 112.076 144.23 106.376 141.504V13.6243C106.376 6.95781 112.145 1.54237 119.227 1.54237ZM253.451 63.4515C253.449 66.4279 252.263 69.2817 250.155 71.3863C248.046 73.4909 245.187 74.6743 242.206 74.6765H208.289C205.308 74.672 202.45 73.4879 200.342 71.3838C198.234 69.2797 197.048 66.4272 197.044 63.4515V36.6228C197.048 33.6471 198.234 30.7946 200.342 28.6905C202.45 26.5864 205.308 25.4023 208.289 25.3977H242.231C245.213 25.4 248.072 26.5834 250.18 28.688C252.289 30.7926 253.474 33.6464 253.477 36.6228L253.451 63.4515Z" fill="#321951"/>
<path d="M91.1993 197.261C92.4733 197.254 93.6941 196.75 94.6005 195.857C95.507 194.963 96.027 193.751 96.0494 192.479C96.0632 191.195 95.5671 189.958 94.6695 189.038C93.7719 188.118 92.5458 187.59 91.2594 187.569C90.606 187.535 89.9522 187.632 89.3374 187.856C88.7226 188.079 88.1594 188.425 87.6816 188.871C87.2038 189.317 86.8212 189.855 86.5568 190.453C86.2924 191.05 86.1517 191.695 86.143 192.348C86.1343 193.001 86.2579 193.649 86.5063 194.254C86.7548 194.858 87.1229 195.406 87.5887 195.865C88.0545 196.323 88.6083 196.684 89.217 196.923C89.8256 197.163 90.4765 197.278 91.1307 197.261L91.1993 198.032V197.261Z" fill="#00DA9C"/>
<path d="M91.2766 186.027H91.1908C89.5331 186.077 87.9595 186.767 86.801 187.951C85.6426 189.136 84.9896 190.723 84.9796 192.378C84.9696 194.033 85.6033 195.628 86.7474 196.827C87.8914 198.025 89.4566 198.734 91.1135 198.803H91.1994C92.8802 198.797 94.4914 198.133 95.6871 196.954C96.8828 195.774 97.5677 194.174 97.5947 192.497C97.6153 190.803 96.9615 189.17 95.7768 187.957C94.5922 186.744 92.9736 186.05 91.2766 186.027ZM91.1994 198.024L91.1307 197.252C90.4766 197.27 89.8256 197.155 89.217 196.915C88.6084 196.675 88.0545 196.315 87.5887 195.856C87.123 195.398 86.7548 194.85 86.5064 194.245C86.2579 193.641 86.1344 192.993 86.143 192.34C86.1517 191.687 86.2925 191.042 86.5569 190.445C86.8213 189.847 87.2038 189.309 87.6817 188.863C88.1595 188.417 88.7227 188.071 89.3375 187.848C89.9523 187.624 90.606 187.526 91.2595 187.561C92.5459 187.581 93.7719 188.109 94.6695 189.029C95.5671 189.949 96.0633 191.187 96.0495 192.471C96.0271 193.743 95.507 194.955 94.6006 195.848C93.6941 196.742 92.4733 197.246 91.1994 197.252V198.024Z" fill="#321951"/>
<path d="M100.84 185.445C101.276 185.445 101.702 185.319 102.067 185.08C102.431 184.842 102.718 184.502 102.892 184.103C103.065 183.704 103.118 183.263 103.043 182.834C102.968 182.406 102.769 182.008 102.471 181.691C100.992 180.104 99.2047 178.835 97.2183 177.96C95.2318 177.085 93.0876 176.623 90.9164 176.602H90.6846C86.5623 176.606 82.5987 178.188 79.6109 181.023C79.1824 181.431 78.9326 181.992 78.9155 182.583C78.9068 182.875 78.9561 183.167 79.0607 183.44C79.1653 183.714 79.3231 183.964 79.525 184.176C79.9385 184.592 80.4965 184.833 81.0831 184.849C81.6697 184.865 82.2399 184.655 82.6755 184.262C84.8335 182.205 87.7008 181.055 90.6846 181.049H90.8305C92.4019 181.064 93.9537 181.398 95.3913 182.031C96.8288 182.665 98.1219 183.584 99.1916 184.733C99.3953 184.953 99.6421 185.129 99.9168 185.25C100.191 185.371 100.488 185.434 100.788 185.436V186.207L100.84 185.445Z" fill="#00DA9C"/>
<path d="M90.9332 175.051H90.6843C86.1661 175.052 81.8209 176.785 78.5461 179.892C77.8176 180.58 77.3925 181.528 77.3643 182.528C77.3361 183.528 77.7072 184.499 78.3959 185.226C79.0846 185.953 80.0345 186.378 81.0366 186.406C82.0388 186.434 83.0111 186.064 83.7396 185.376C85.6151 183.595 88.1043 182.601 90.6929 182.6H90.8217C92.1835 182.613 93.5284 182.903 94.7741 183.453C96.0198 184.002 97.1402 184.8 98.0668 185.796C98.4116 186.169 98.8296 186.467 99.2948 186.672C99.76 186.877 100.262 186.984 100.771 186.987H100.822C101.78 186.99 102.702 186.625 103.398 185.967C104.126 185.282 104.554 184.337 104.586 183.338C104.618 182.339 104.253 181.368 103.569 180.638C101.95 178.903 99.9961 177.513 97.8243 176.553C95.6525 175.593 93.3083 175.082 90.9332 175.051ZM100.84 186.19V185.419C100.539 185.417 100.243 185.354 99.968 185.233C99.6933 185.112 99.4465 184.936 99.2428 184.716C98.1731 183.567 96.88 182.648 95.4425 182.014C94.0049 181.381 92.4531 181.047 90.8817 181.032H90.6843C87.6987 181.033 84.8281 182.181 82.6666 184.236C82.231 184.629 81.6608 184.839 81.0742 184.823C80.4876 184.807 79.9296 184.566 79.5161 184.151C79.3143 183.938 79.1565 183.688 79.0519 183.415C78.9473 183.141 78.8979 182.85 78.9067 182.557C78.9237 181.966 79.1735 181.406 79.602 180.997C82.5946 178.167 86.5614 176.59 90.6843 176.593H90.8989C93.0701 176.614 95.2143 177.076 97.2008 177.951C99.1873 178.826 100.974 180.096 102.453 181.683C102.752 182 102.951 182.397 103.025 182.826C103.1 183.255 103.048 183.696 102.874 184.095C102.701 184.494 102.414 184.834 102.049 185.072C101.685 185.31 101.258 185.437 100.822 185.436V186.207L100.84 186.19Z" fill="#321951"/>
<path d="M108.308 178.186C108.887 178.187 109.444 177.961 109.859 177.558C110.274 177.154 110.515 176.605 110.531 176.027C110.548 175.438 110.332 174.865 109.93 174.433C107.511 171.841 104.59 169.767 101.344 168.335C98.0972 166.903 94.5936 166.145 91.0448 166.104H90.6843C83.8206 166.108 77.2318 168.797 72.3311 173.594C72.1206 173.798 71.9525 174.041 71.8364 174.31C71.7203 174.579 71.6585 174.868 71.6545 175.161C71.6505 175.454 71.7044 175.745 71.8132 176.017C71.9219 176.289 72.0833 176.537 72.2881 176.747C72.7076 177.159 73.2704 177.394 73.859 177.402C74.4476 177.41 75.0166 177.19 75.4472 176.79C79.5148 172.804 84.9846 170.568 90.6843 170.56H90.9676C93.916 170.594 96.8268 171.226 99.523 172.417C102.219 173.609 104.644 175.336 106.651 177.492C106.857 177.709 107.105 177.881 107.379 178.001C107.653 178.12 107.949 178.183 108.248 178.186V178.958L108.308 178.186Z" fill="#00DA9C"/>
<path d="M91.0708 164.563H90.6846C83.4117 164.556 76.4268 167.399 71.2326 172.48C70.8739 172.824 70.5874 173.237 70.39 173.693C70.1925 174.149 70.0879 174.64 70.0823 175.136C70.071 176.137 70.4568 177.101 71.1553 177.818C71.8544 178.534 72.8096 178.943 73.8108 178.956C74.812 178.969 75.7774 178.584 76.4947 177.887C80.2848 174.181 85.3788 172.104 90.6846 172.103H90.9507C93.6938 172.133 96.4021 172.72 98.9109 173.827C101.42 174.935 103.676 176.541 105.544 178.547C105.888 178.917 106.305 179.214 106.769 179.417C107.232 179.621 107.733 179.727 108.239 179.729H108.3C109.257 179.729 110.178 179.364 110.875 178.71C111.601 178.022 112.027 177.077 112.059 176.079C112.077 175.584 111.996 175.09 111.82 174.627C111.645 174.164 111.379 173.74 111.038 173.38C108.482 170.637 105.394 168.44 101.961 166.925C98.529 165.409 94.8238 164.605 91.0708 164.563ZM108.308 178.958V178.187C108.009 178.183 107.714 178.12 107.439 178.001C107.165 177.882 106.918 177.709 106.711 177.493C104.705 175.336 102.28 173.61 99.5834 172.418C96.8872 171.226 93.9764 170.594 91.0279 170.561H90.6846C84.9772 170.56 79.4971 172.793 75.4217 176.782C74.9911 177.182 74.4222 177.401 73.8336 177.393C73.245 177.385 72.6822 177.151 72.2627 176.739C72.0578 176.529 71.8964 176.281 71.7877 176.009C71.679 175.737 71.625 175.446 71.629 175.153C71.633 174.86 71.6948 174.571 71.8109 174.302C71.927 174.033 72.0951 173.789 72.3056 173.585C77.214 168.785 83.8132 166.1 90.6846 166.105H91.0193C94.5681 166.145 98.0718 166.904 101.318 168.335C104.564 169.767 107.486 171.842 109.905 174.434C110.307 174.866 110.523 175.438 110.506 176.027C110.49 176.606 110.249 177.155 109.834 177.558C109.418 177.961 108.862 178.187 108.282 178.187V178.958H108.308Z" fill="#321951"/>
<path d="M115.776 170.912C116.356 170.91 116.912 170.684 117.329 170.281C117.745 169.879 117.988 169.331 118.008 168.753C118.027 168.16 117.811 167.585 117.407 167.15C114.047 163.553 109.99 160.674 105.482 158.689C100.974 156.703 96.1095 155.652 91.1825 155.6H90.6846C81.0704 155.592 71.8434 159.381 65.0176 166.139C64.8102 166.345 64.6456 166.59 64.5334 166.86C64.4211 167.13 64.3633 167.419 64.3633 167.712C64.3633 168.004 64.4211 168.293 64.5334 168.563C64.6456 168.833 64.8102 169.078 65.0176 169.284C65.4412 169.69 66.0056 169.916 66.5928 169.916C67.18 169.916 67.7444 169.69 68.168 169.284C74.164 163.368 82.254 160.049 90.6846 160.047H91.0966C95.4239 160.095 99.6962 161.02 103.654 162.767C107.612 164.514 111.172 167.046 114.12 170.209C114.324 170.428 114.571 170.603 114.846 170.724C115.12 170.845 115.416 170.909 115.716 170.912V171.683L115.776 170.912Z" fill="#00DA9C"/>
<path d="M63.9016 170.364C64.254 170.72 64.6738 171.002 65.1365 171.195C65.5992 171.388 66.0957 171.487 66.5971 171.486C67.5806 171.484 68.5239 171.096 69.2239 170.407C74.9327 164.759 82.6468 161.592 90.6846 161.598H91.0709C95.1921 161.641 99.2616 162.52 103.032 164.182C106.802 165.843 110.195 168.253 113.004 171.263C113.35 171.635 113.768 171.932 114.233 172.137C114.698 172.341 115.2 172.45 115.708 172.454C116.666 172.45 117.586 172.083 118.283 171.426C119.011 170.74 119.436 169.794 119.467 168.795C119.498 167.796 119.13 166.826 118.446 166.096C114.946 162.347 110.719 159.345 106.023 157.274C101.326 155.203 96.2566 154.106 91.1224 154.049H90.6846C80.6733 154.049 71.0668 157.994 63.9531 165.025C63.2401 165.728 62.8345 166.684 62.8249 167.684C62.8152 168.684 63.2023 169.647 63.9016 170.364ZM115.776 171.683V170.912C115.476 170.909 115.18 170.845 114.906 170.724C114.631 170.604 114.384 170.428 114.18 170.209C111.233 167.046 107.672 164.514 103.714 162.767C99.7563 161.02 95.4839 160.095 91.1567 160.047H90.6846C82.2473 160.054 74.1534 163.383 68.1594 169.31C67.7358 169.716 67.1714 169.942 66.5842 169.942C65.997 169.942 65.4326 169.716 65.009 169.31C64.8016 169.104 64.637 168.859 64.5248 168.589C64.4125 168.319 64.3547 168.03 64.3547 167.737C64.3547 167.445 64.4125 167.156 64.5248 166.886C64.637 166.616 64.8016 166.371 65.009 166.165C71.8327 159.395 81.0637 155.597 90.6846 155.6H91.1653C96.0929 155.654 100.958 156.706 105.466 158.693C109.974 160.68 114.031 163.56 117.39 167.159C117.794 167.593 118.01 168.169 117.991 168.761C117.971 169.34 117.728 169.888 117.311 170.29C116.895 170.693 116.339 170.919 115.759 170.921V171.692L115.776 171.683Z" fill="#321951"/>
<path d="M155.401 11.1905C155.924 11.1905 156.435 11.0357 156.87 10.7457C157.305 10.4557 157.644 10.0435 157.844 9.56125C158.044 9.079 158.096 8.54835 157.994 8.0364C157.892 7.52446 157.641 7.0542 157.271 6.68511C156.901 6.31601 156.43 6.06465 155.917 5.96282C155.404 5.86099 154.873 5.91325 154.389 6.11301C153.906 6.31276 153.493 6.65103 153.203 7.08504C152.912 7.51905 152.757 8.0293 152.757 8.55128C152.757 9.25123 153.036 9.92251 153.532 10.4175C154.028 10.9124 154.7 11.1905 155.401 11.1905Z" fill="#321951"/>
<path d="M162.87 10.6769C163.291 10.6769 163.702 10.5522 164.052 10.3187C164.402 10.0852 164.675 9.75333 164.836 9.36502C164.998 8.97672 165.04 8.54945 164.958 8.13723C164.875 7.72501 164.673 7.34636 164.375 7.04917C164.077 6.75198 163.698 6.54959 163.285 6.46759C162.872 6.3856 162.444 6.42768 162.055 6.58852C161.666 6.74936 161.333 7.02173 161.1 7.37119C160.866 7.72066 160.741 8.13151 160.741 8.5518C160.741 8.83087 160.796 9.1072 160.903 9.36502C161.01 9.62285 161.167 9.85711 161.364 10.0544C161.562 10.2518 161.797 10.4083 162.055 10.5151C162.313 10.6219 162.59 10.6769 162.87 10.6769Z" fill="#321951"/>
</g>
<defs>
<clipPath id="clip0_2051_111864">
<rect width="311" height="209" fill="white"/>
</clipPath>
</defs>
</svg>
