<svg width="272" height="164" viewBox="0 0 272 164" fill="none" xmlns="http://www.w3.org/2000/svg">
<g clip-path="url(#clip0_2051_121214)">
<path d="M35.9231 135.216H27.4326V148.342C27.4326 148.554 27.4326 148.775 27.4326 148.996H35.9231V135.216Z" fill="#8B6FE2"/>
<path d="M27.4327 42.6189H35.9232V31.9549C35.9206 30.8846 36.3365 29.8558 37.0821 29.088C37.8276 28.3202 38.8438 27.8743 39.9137 27.8455H181.959V17.8438H35.9911C33.6783 17.8995 31.4811 18.8667 29.8781 20.5349C28.2752 22.2031 27.3962 24.437 27.4327 26.7502V42.6189ZM124.513 20.3654C124.981 20.3519 125.442 20.4785 125.838 20.7289C126.234 20.9793 126.546 21.3423 126.734 21.7711C126.922 22.2 126.978 22.6753 126.895 23.1362C126.811 23.597 126.592 24.0224 126.265 24.3578C125.938 24.6932 125.518 24.9234 125.06 25.0188C124.601 25.1142 124.124 25.0706 123.691 24.8934C123.257 24.7163 122.887 24.4137 122.626 24.0245C122.365 23.6353 122.227 23.1771 122.229 22.7088C122.222 22.0955 122.458 21.5045 122.886 21.0652C123.315 20.626 123.899 20.3744 124.513 20.3654Z" fill="#8B6FE2"/>
<path d="M213.076 117.733V148.995H221.567C221.567 148.774 221.567 148.554 221.567 148.341V117.733H213.076Z" fill="#8B6FE2"/>
<path d="M194.975 117.734C187.809 117.734 181.976 111.638 181.976 104.149V28.8643H39.9391C39.138 28.8886 38.3784 29.2258 37.8229 29.8035C37.2675 30.3812 36.9604 31.1534 36.9674 31.9548V42.6188H44.3626C48.1239 42.6188 51.1549 45.3952 51.1549 48.8083V129.001C51.1549 132.397 48.0984 135.19 44.3626 135.19H36.9674V148.97H212.066V117.734H194.975ZM86.5601 35.7585H162.431C162.566 35.7585 162.695 35.8122 162.791 35.9077C162.887 36.0032 162.94 36.1328 162.94 36.2679C162.94 36.403 162.887 36.5326 162.791 36.6282C162.695 36.7237 162.566 36.7774 162.431 36.7774H86.5262C86.391 36.7774 86.2615 36.7237 86.1659 36.6282C86.0704 36.5326 86.0167 36.403 86.0167 36.2679C86.0167 36.1328 86.0704 36.0032 86.1659 35.9077C86.2615 35.8122 86.391 35.7585 86.5262 35.7585H86.5601ZM139.999 40.3349C139.999 40.47 139.945 40.5995 139.85 40.6951C139.754 40.7906 139.625 40.8443 139.49 40.8443H108.678C108.543 40.8443 108.413 40.7906 108.318 40.6951C108.222 40.5995 108.168 40.47 108.168 40.3349C108.168 40.1997 108.222 40.0702 108.318 39.9746C108.413 39.8791 108.543 39.8254 108.678 39.8254H139.507C139.639 39.8298 139.764 39.8854 139.856 39.9805C139.948 40.0756 139.999 40.2026 139.999 40.3349ZM125.073 131.658C122.969 131.665 120.911 131.047 119.159 129.884C117.406 128.72 116.039 127.063 115.229 125.122C114.419 123.18 114.203 121.042 114.608 118.978C115.014 116.914 116.023 115.017 117.507 113.527C118.992 112.036 120.885 111.02 122.947 110.606C125.01 110.192 127.148 110.399 129.093 111.202C131.038 112.004 132.7 113.365 133.871 115.113C135.041 116.86 135.667 118.916 135.669 121.02C135.671 123.834 134.557 126.535 132.57 128.53C130.584 130.524 127.888 131.649 125.073 131.658ZM146.239 108.488C145.684 109.026 145.027 109.45 144.306 109.734C143.586 110.018 142.817 110.157 142.043 110.143C141.269 110.128 140.506 109.961 139.796 109.651C139.087 109.341 138.446 108.894 137.91 108.335C136.182 106.518 134.11 105.062 131.814 104.054C129.517 103.046 127.044 102.505 124.536 102.462C122.029 102.419 119.538 102.876 117.209 103.806C114.88 104.735 112.759 106.119 110.97 107.876C110.416 108.418 109.76 108.845 109.04 109.131C108.32 109.418 107.55 109.56 106.775 109.548C106 109.536 105.235 109.371 104.524 109.062C103.813 108.754 103.17 108.307 102.633 107.749C101.55 106.62 100.956 105.11 100.98 103.546C101.004 101.982 101.644 100.49 102.76 99.3944C105.659 96.5523 109.094 94.3146 112.866 92.8111C116.637 91.3077 120.669 90.5685 124.729 90.6364C128.788 90.7043 132.794 91.5781 136.513 93.2069C140.231 94.8357 143.59 97.1871 146.392 100.125C147.475 101.256 148.067 102.77 148.04 104.336C148.013 105.902 147.369 107.394 146.248 108.488H146.239ZM159.459 95.2596C158.902 95.798 158.245 96.2215 157.525 96.5057C156.804 96.7899 156.035 96.9293 155.26 96.9159C154.486 96.9025 153.722 96.7365 153.012 96.4276C152.302 96.1186 151.659 95.6726 151.121 95.1152C147.697 91.514 143.583 88.6371 139.026 86.6553C134.468 84.6735 129.559 83.627 124.59 83.5779C119.62 83.5288 114.692 84.4781 110.096 86.3695C105.5 88.2609 101.331 91.0559 97.8354 94.5888C97.2882 95.1367 96.6383 95.5713 95.923 95.8678C95.2077 96.1643 94.441 96.3169 93.6666 96.3169C92.8923 96.3169 92.1255 96.1643 91.4102 95.8678C90.6949 95.5713 90.0451 95.1367 89.4978 94.5888C88.396 93.476 87.778 91.9733 87.778 90.4073C87.778 88.8413 88.396 87.3386 89.4978 86.2257C94.099 81.5845 99.5841 77.913 105.629 75.4282C111.673 72.9434 118.155 71.6958 124.69 71.7591C131.225 71.8224 137.681 73.1954 143.676 75.7969C149.672 78.3983 155.085 82.1755 159.595 86.905C160.676 88.0352 161.268 89.5462 161.243 91.1102C161.218 92.6742 160.577 94.1651 159.459 95.2596ZM172.696 81.972C172.14 82.5125 171.483 82.9378 170.763 83.2233C170.042 83.5087 169.272 83.6488 168.497 83.6354C167.722 83.622 166.957 83.4553 166.247 83.1451C165.537 82.8348 164.895 82.3871 164.358 81.8277C159.224 76.4416 153.059 72.1439 146.229 69.1906C139.399 66.2373 132.045 64.6888 124.604 64.6373C117.163 64.5858 109.788 66.0324 102.918 68.8909C96.0483 71.7494 89.8239 75.9613 84.6158 81.2758C84.0691 81.8246 83.4195 82.2601 82.7041 82.5573C81.9887 82.8545 81.2216 83.0074 80.447 83.0074C79.6723 83.0074 78.9053 82.8545 78.1899 82.5573C77.4745 82.2601 76.8249 81.8246 76.2782 81.2758C75.1764 80.163 74.5583 78.6602 74.5583 77.0942C74.5583 75.5283 75.1764 74.0255 76.2782 72.9127C82.5881 66.4769 90.1285 61.3765 98.4504 57.9152C106.772 54.4539 115.706 52.7024 124.718 52.765C133.731 52.8275 142.639 54.7029 150.912 58.2795C159.185 61.8561 166.654 67.0607 172.874 73.5834C173.955 74.72 174.543 76.2378 174.509 77.806C174.476 79.3741 173.824 80.8655 172.696 81.955V81.972Z" fill="#F1E6FF"/>
<path d="M125.073 111.391C123.168 111.382 121.304 111.94 119.716 112.992C118.128 114.044 116.889 115.544 116.154 117.302C115.42 119.059 115.224 120.995 115.591 122.864C115.958 124.733 116.872 126.451 118.216 127.8C119.561 129.15 121.275 130.069 123.143 130.443C125.011 130.817 126.948 130.627 128.708 129.899C130.468 129.171 131.972 127.937 133.03 126.353C134.088 124.769 134.652 122.907 134.65 121.002C134.652 118.458 133.645 116.017 131.849 114.215C130.054 112.413 127.617 111.397 125.073 111.391ZM121.303 115.39C120.562 115.893 119.928 116.537 119.437 117.286C118.947 118.034 118.609 118.873 118.443 119.752C118.277 120.632 118.287 121.536 118.472 122.412C118.657 123.288 119.013 124.119 119.52 124.857C119.559 124.911 119.586 124.972 119.601 125.038C119.615 125.103 119.616 125.17 119.605 125.236C119.593 125.301 119.568 125.364 119.531 125.42C119.495 125.476 119.448 125.524 119.393 125.561C119.309 125.623 119.208 125.655 119.104 125.655C119.021 125.655 118.939 125.635 118.865 125.596C118.791 125.558 118.727 125.502 118.679 125.434C118.096 124.585 117.686 123.629 117.474 122.622C117.261 121.614 117.249 120.574 117.439 119.562C117.629 118.55 118.018 117.585 118.582 116.724C119.146 115.862 119.874 115.12 120.726 114.541C120.781 114.503 120.844 114.476 120.91 114.463C120.976 114.449 121.044 114.448 121.11 114.461C121.177 114.474 121.24 114.499 121.296 114.536C121.352 114.573 121.401 114.621 121.439 114.677C121.477 114.732 121.503 114.795 121.517 114.861C121.531 114.927 121.531 114.995 121.519 115.061C121.506 115.127 121.481 115.191 121.444 115.247C121.407 115.303 121.359 115.352 121.303 115.39ZM130.447 126.674C130.355 126.766 130.23 126.818 130.099 126.818C130.029 126.819 129.96 126.805 129.895 126.777C129.831 126.749 129.773 126.708 129.726 126.657C129.632 126.561 129.58 126.433 129.58 126.3C129.58 126.167 129.632 126.039 129.726 125.943C130.979 124.74 131.723 123.102 131.806 121.367C131.816 121.233 131.878 121.109 131.977 121.019C132.077 120.929 132.207 120.88 132.341 120.883C132.408 120.886 132.473 120.903 132.534 120.931C132.594 120.96 132.649 121 132.694 121.05C132.739 121.1 132.773 121.158 132.796 121.221C132.818 121.284 132.828 121.351 132.825 121.418C132.74 123.411 131.888 125.294 130.447 126.674Z" fill="#00DA9C"/>
<path d="M125.073 110.398C122.968 110.391 120.91 111.009 119.157 112.173C117.404 113.337 116.036 114.996 115.227 116.938C114.417 118.88 114.202 121.019 114.609 123.084C115.016 125.148 116.027 127.045 117.513 128.535C118.999 130.025 120.894 131.04 122.958 131.452C125.021 131.864 127.16 131.654 129.105 130.849C131.049 130.044 132.711 128.681 133.879 126.931C135.048 125.181 135.67 123.123 135.669 121.019C135.669 118.206 134.553 115.509 132.567 113.517C130.58 111.526 127.885 110.404 125.073 110.398ZM125.073 130.639C123.168 130.647 121.304 130.09 119.717 129.038C118.129 127.986 116.89 126.487 116.155 124.73C115.42 122.973 115.224 121.037 115.59 119.169C115.957 117.3 116.869 115.582 118.213 114.232C119.557 112.882 121.271 111.962 123.138 111.587C125.005 111.213 126.941 111.401 128.702 112.128C130.462 112.854 131.967 114.087 133.026 115.67C134.085 117.253 134.65 119.115 134.65 121.019C134.652 123.564 133.645 126.005 131.85 127.809C130.055 129.612 127.617 130.63 125.073 130.639Z" fill="#321951"/>
<path d="M120.734 114.559C119.883 115.138 119.154 115.88 118.59 116.741C118.026 117.603 117.638 118.568 117.448 119.58C117.258 120.592 117.269 121.632 117.482 122.64C117.695 123.647 118.105 124.603 118.688 125.452C118.736 125.52 118.799 125.576 118.873 125.614C118.947 125.653 119.029 125.673 119.113 125.673C119.216 125.673 119.318 125.64 119.401 125.579C119.457 125.542 119.504 125.494 119.54 125.438C119.576 125.382 119.601 125.319 119.613 125.254C119.625 125.188 119.624 125.121 119.609 125.056C119.595 124.99 119.567 124.929 119.529 124.874C119.022 124.137 118.665 123.306 118.481 122.43C118.296 121.554 118.286 120.65 118.452 119.77C118.617 118.89 118.955 118.052 119.446 117.303C119.937 116.555 120.571 115.91 121.312 115.408C121.424 115.331 121.502 115.213 121.527 115.079C121.553 114.945 121.524 114.807 121.447 114.694C121.371 114.582 121.253 114.504 121.119 114.479C120.985 114.453 120.847 114.482 120.734 114.559Z" fill="#321951"/>
<path d="M132.357 120.866C132.223 120.864 132.093 120.912 131.994 121.002C131.895 121.092 131.833 121.217 131.822 121.35C131.74 123.086 130.995 124.723 129.742 125.927C129.649 126.022 129.597 126.15 129.597 126.283C129.597 126.417 129.649 126.545 129.742 126.64C129.79 126.691 129.848 126.732 129.912 126.76C129.976 126.788 130.046 126.802 130.116 126.801C130.246 126.801 130.372 126.749 130.464 126.657C131.911 125.28 132.77 123.397 132.858 121.401C132.862 121.333 132.851 121.265 132.828 121.2C132.804 121.136 132.768 121.077 132.721 121.027C132.675 120.978 132.618 120.938 132.556 120.91C132.493 120.882 132.426 120.867 132.357 120.866Z" fill="#321951"/>
<path d="M145.671 100.829C142.96 97.9901 139.713 95.7172 136.118 94.1426C132.522 92.5679 128.65 91.7229 124.725 91.6566C120.8 91.5902 116.902 92.3039 113.255 93.7561C109.608 95.2083 106.286 97.3701 103.482 100.116C102.553 101.024 102.022 102.261 102.002 103.559C101.983 104.857 102.478 106.11 103.38 107.044C103.824 107.506 104.356 107.875 104.944 108.13C105.532 108.385 106.165 108.522 106.806 108.531C107.446 108.541 108.083 108.423 108.678 108.185C109.273 107.948 109.816 107.595 110.274 107.146C112.158 105.295 114.392 103.837 116.845 102.858C119.298 101.878 121.922 101.397 124.563 101.442C127.204 101.487 129.81 102.058 132.228 103.12C134.646 104.182 136.829 105.716 138.649 107.63C139.101 108.105 139.645 108.483 140.248 108.74C140.851 108.997 141.5 109.128 142.156 109.125C143.422 109.129 144.641 108.638 145.552 107.758C146.48 106.851 147.014 105.615 147.036 104.318C147.058 103.021 146.567 101.767 145.671 100.829Z" fill="#00DA9C"/>
<path d="M124.224 90.6319C116.202 90.6251 108.499 93.7721 102.777 99.394C101.661 100.49 101.021 101.981 100.997 103.545C100.973 105.109 101.567 106.619 102.65 107.749C103.187 108.307 103.83 108.753 104.541 109.062C105.252 109.371 106.017 109.536 106.792 109.548C107.567 109.56 108.337 109.418 109.057 109.131C109.777 108.844 110.433 108.418 110.987 107.876C112.776 106.119 114.897 104.735 117.226 103.805C119.555 102.876 122.046 102.419 124.553 102.462C127.061 102.504 129.534 103.046 131.831 104.054C134.127 105.062 136.199 106.517 137.927 108.334C138.463 108.893 139.104 109.341 139.813 109.651C140.523 109.961 141.286 110.128 142.06 110.142C142.834 110.156 143.603 110.018 144.323 109.733C145.044 109.449 145.701 109.026 146.256 108.487C147.379 107.395 148.024 105.903 148.053 104.337C148.082 102.771 147.491 101.257 146.409 100.124C143.549 97.1192 140.107 94.7279 136.293 93.096C132.479 91.4641 128.372 90.6257 124.224 90.6319ZM142.164 109.124C141.509 109.127 140.859 108.996 140.256 108.739C139.653 108.482 139.109 108.105 138.658 107.63C136.838 105.715 134.655 104.182 132.237 103.119C129.818 102.057 127.212 101.487 124.571 101.442C121.93 101.397 119.307 101.878 116.853 102.857C114.4 103.836 112.166 105.294 110.282 107.146C109.824 107.594 109.282 107.947 108.687 108.185C108.091 108.423 107.455 108.54 106.814 108.531C106.173 108.521 105.541 108.385 104.953 108.13C104.365 107.875 103.833 107.506 103.388 107.044C102.487 106.11 101.992 104.857 102.011 103.559C102.03 102.261 102.562 101.023 103.49 100.116C106.295 97.3696 109.617 95.2077 113.263 93.7555C116.91 92.3033 120.809 91.5897 124.734 91.656C128.658 91.7224 132.531 92.5674 136.126 94.142C139.722 95.7166 142.969 97.9896 145.679 100.829C146.575 101.768 147.064 103.022 147.04 104.319C147.016 105.616 146.481 106.852 145.552 107.757C144.641 108.638 143.422 109.128 142.156 109.124H142.164Z" fill="#321951"/>
<path d="M158.873 87.6178C154.456 82.9872 149.155 79.289 143.285 76.7418C137.414 74.1946 131.092 72.85 124.692 72.7874C118.293 72.7249 111.946 73.9457 106.027 76.3777C100.107 78.8098 94.7352 82.4036 90.2282 86.947C89.3136 87.8679 88.8003 89.1132 88.8003 90.4111C88.8003 91.709 89.3136 92.9543 90.2282 93.8752C90.6802 94.3291 91.2174 94.6892 91.8089 94.935C92.4005 95.1807 93.0347 95.3072 93.6753 95.3072C94.3159 95.3072 94.9501 95.1807 95.5417 94.935C96.1332 94.6892 96.6704 94.3291 97.1224 93.8752C100.714 90.2477 104.997 87.3779 109.717 85.4357C114.438 83.4935 119.5 82.5184 124.604 82.5683C129.709 82.6182 134.751 83.692 139.433 85.726C144.115 87.7601 148.341 90.7131 151.86 94.4101C152.303 94.8745 152.833 95.2464 153.42 95.5044C154.007 95.7625 154.64 95.9014 155.281 95.9132C155.922 95.9251 156.559 95.8096 157.156 95.5734C157.752 95.3373 158.295 94.9852 158.755 94.5375C159.683 93.6327 160.216 92.398 160.238 91.1021C160.26 89.8062 159.77 88.5539 158.873 87.6178ZM118.535 77.7943C116.705 78.0704 114.897 78.4819 113.127 79.0254H112.983C112.862 79.024 112.746 78.9798 112.655 78.9007C112.564 78.8216 112.504 78.7127 112.485 78.5935C112.467 78.4743 112.491 78.3524 112.555 78.2496C112.618 78.1468 112.715 78.0697 112.83 78.032C114.649 77.4802 116.504 77.0575 118.383 76.767C118.516 76.7499 118.651 76.7855 118.759 76.8664C118.867 76.9472 118.939 77.0669 118.96 77.2C118.972 77.267 118.971 77.3357 118.956 77.4022C118.941 77.4686 118.913 77.5314 118.873 77.5868C118.834 77.6422 118.783 77.6891 118.725 77.7248C118.667 77.7604 118.603 77.784 118.535 77.7943ZM135.304 76.2575C135.266 76.3868 135.179 76.4959 135.062 76.5612C134.944 76.6264 134.805 76.6424 134.676 76.6056C131.29 75.6579 127.791 75.178 124.275 75.1792C119.015 75.1653 113.809 76.2498 108.992 78.3632C108.927 78.3894 108.858 78.4037 108.788 78.4056C108.689 78.4056 108.592 78.3767 108.509 78.3224C108.426 78.2681 108.361 78.1908 108.321 78.1C108.27 77.9759 108.268 77.8365 108.317 77.7113C108.366 77.5861 108.462 77.485 108.585 77.4292C116.889 73.8166 126.186 73.1809 134.905 75.6292C134.974 75.6421 135.039 75.669 135.096 75.7081C135.154 75.7473 135.203 75.7979 135.241 75.8568C135.278 75.9157 135.303 75.9817 135.314 76.0506C135.325 76.1195 135.321 76.19 135.304 76.2575Z" fill="#00DA9C"/>
<path d="M124.224 71.7326C117.771 71.7217 111.38 72.992 105.422 75.4696C99.4641 77.9473 94.0571 81.5832 89.5148 86.1663C88.413 87.2792 87.7949 88.7819 87.7949 90.3479C87.7949 91.9139 88.413 93.4166 89.5148 94.5294C90.062 95.0773 90.7119 95.5119 91.4272 95.8084C92.1425 96.1049 92.9092 96.2575 93.6836 96.2575C94.4579 96.2575 95.2247 96.1049 95.94 95.8084C96.6553 95.5119 97.3052 95.0773 97.8524 94.5294C101.348 90.9965 105.517 88.2015 110.113 86.3101C114.708 84.4187 119.637 83.4694 124.607 83.5185C129.576 83.5676 134.485 84.6141 139.043 86.5959C143.6 88.5778 147.714 91.4546 151.138 95.0558C151.676 95.6132 152.318 96.0592 153.029 96.3682C153.739 96.6771 154.503 96.8431 155.277 96.8565C156.052 96.8699 156.821 96.7305 157.542 96.4463C158.262 96.1621 158.919 95.7386 159.476 95.2002C160.597 94.1065 161.241 92.6144 161.268 91.0483C161.295 89.4822 160.703 87.9688 159.62 86.8371C155.054 82.0493 149.561 78.241 143.476 75.6443C137.39 73.0475 130.84 71.7166 124.224 71.7326ZM155.367 95.8879C154.711 95.8886 154.062 95.7556 153.459 95.4973C152.856 95.2389 152.312 94.8605 151.86 94.3851C148.34 90.6881 144.114 87.7351 139.433 85.701C134.751 83.6669 129.709 82.5931 124.604 82.5433C119.5 82.4934 114.438 83.4684 109.717 85.4106C104.996 87.3528 100.714 90.2227 97.1222 93.8502C96.6702 94.304 96.133 94.6642 95.5414 94.9099C94.9499 95.1557 94.3156 95.2822 93.6751 95.2822C93.0345 95.2822 92.4003 95.1557 91.8087 94.9099C91.2172 94.6642 90.68 94.304 90.228 93.8502C89.3134 92.9292 88.8001 91.684 88.8001 90.3861C88.8001 89.0882 89.3134 87.8429 90.228 86.922C94.735 82.3786 100.107 78.7847 106.026 76.3527C111.946 73.9207 118.293 72.6999 124.692 72.7624C131.092 72.8249 137.413 74.1695 143.284 76.7168C149.155 79.264 154.456 82.9621 158.873 87.5927C159.771 88.5304 160.262 89.7851 160.238 91.0831C160.214 92.3811 159.678 93.6169 158.746 94.5209C157.839 95.4016 156.623 95.8923 155.358 95.8879H155.367Z" fill="#321951"/>
<path d="M134.947 75.6296C126.228 73.1812 116.931 73.817 108.627 77.4295C108.505 77.4853 108.409 77.5865 108.36 77.7117C108.31 77.8368 108.312 77.9762 108.364 78.1003C108.403 78.1912 108.469 78.2685 108.552 78.3228C108.635 78.3771 108.732 78.406 108.831 78.406C108.901 78.4041 108.97 78.3897 109.034 78.3635C113.852 76.2501 119.057 75.1657 124.317 75.1796C127.818 75.1739 131.302 75.6452 134.676 76.5805C134.742 76.6066 134.813 76.6184 134.884 76.6152C134.955 76.6121 135.025 76.594 135.089 76.5621C135.153 76.5303 135.209 76.4855 135.255 76.4305C135.3 76.3755 135.333 76.3115 135.352 76.2429C135.372 76.1742 135.376 76.1022 135.366 76.0317C135.355 75.9612 135.33 75.8936 135.292 75.8334C135.254 75.7732 135.203 75.7217 135.144 75.6822C135.085 75.6427 135.018 75.6161 134.947 75.6041V75.6296Z" fill="#321951"/>
<path d="M118.382 76.7842C116.504 77.0747 114.648 77.4975 112.829 78.0493C112.715 78.0869 112.617 78.164 112.554 78.2668C112.491 78.3696 112.467 78.4915 112.485 78.6107C112.503 78.7299 112.563 78.8388 112.654 78.9179C112.745 78.997 112.862 79.0412 112.982 79.0426H113.127C114.897 78.4991 116.704 78.0876 118.535 77.8115C118.668 77.7906 118.787 77.7182 118.866 77.6101C118.945 77.502 118.979 77.3669 118.96 77.2342C118.943 77.098 118.872 76.9741 118.764 76.8897C118.656 76.8053 118.518 76.7674 118.382 76.7842Z" fill="#321951"/>
<path d="M172.101 74.3046C165.976 67.887 158.622 62.7668 150.478 59.2485C142.333 55.7303 133.565 53.8858 124.693 53.8248C115.822 53.7638 107.029 55.4876 98.8366 58.8935C90.6447 62.2994 83.2214 67.318 77.0082 73.6508C76.0941 74.5703 75.5811 75.8141 75.5811 77.1107C75.5811 78.4072 76.0941 79.651 77.0082 80.5705C77.4591 81.0264 77.9959 81.3884 78.5876 81.6354C79.1793 81.8824 79.8141 82.0096 80.4553 82.0096C81.0965 82.0096 81.7313 81.8824 82.3231 81.6354C82.9148 81.3884 83.4516 81.0264 83.9024 80.5705C89.2047 75.1582 95.5421 70.8686 102.537 67.9573C109.532 65.046 117.042 63.5726 124.618 63.6249C132.195 63.6772 139.683 65.2541 146.638 68.2616C153.592 71.2692 159.87 75.6459 165.097 81.1309C165.54 81.6011 166.073 81.9785 166.664 82.2411C167.254 82.5038 167.891 82.6466 168.538 82.6611C169.184 82.6757 169.827 82.5617 170.429 82.3258C171.03 82.09 171.579 81.7369 172.044 81.2872C172.508 80.8374 172.879 80.2999 173.134 79.7059C173.389 79.1118 173.523 78.4731 173.529 77.8266C173.535 77.1802 173.413 76.539 173.169 75.9402C172.926 75.3414 172.565 74.797 172.11 74.3385L172.101 74.3046ZM153.847 66.2047C153.805 66.2849 153.741 66.352 153.663 66.3984C153.585 66.4449 153.496 66.4689 153.405 66.4679C153.319 66.4695 153.235 66.449 153.159 66.4084C151.571 65.5594 149.941 64.7104 148.311 64.0226C148.25 63.9959 148.194 63.9573 148.148 63.9091C148.101 63.8609 148.065 63.8041 148.04 63.7418C148.016 63.6795 148.004 63.613 148.005 63.5461C148.007 63.4792 148.021 63.4132 148.048 63.3519C148.104 63.2295 148.205 63.1336 148.33 63.0845C148.455 63.0354 148.594 63.0369 148.719 63.0887C150.417 63.8189 152.038 64.6339 153.643 65.5085C153.702 65.5404 153.755 65.5839 153.797 65.6364C153.84 65.6888 153.872 65.7492 153.89 65.8139C153.909 65.8787 153.915 65.9466 153.908 66.0137C153.9 66.0808 153.88 66.1457 153.847 66.2047ZM165.895 71.7744C165.848 71.8332 165.789 71.8806 165.721 71.913C165.653 71.9454 165.579 71.9619 165.504 71.9612C165.384 71.9594 165.267 71.9176 165.173 71.8423C160.018 67.5122 154.235 63.9909 148.022 61.3991C147.899 61.3466 147.801 61.2477 147.751 61.1237C147.7 60.9998 147.7 60.8608 147.751 60.7368C147.802 60.612 147.9 60.5124 148.024 60.4599C148.148 60.4074 148.288 60.4062 148.413 60.4566C154.721 63.0896 160.592 66.6652 165.827 71.0612C165.93 71.1472 165.995 71.2703 166.007 71.4039C166.02 71.5374 165.98 71.6705 165.895 71.7744Z" fill="#00DA9C"/>
<path d="M124.224 52.8067C115.289 52.8006 106.443 54.5798 98.2049 58.0397C89.9671 61.4995 82.5036 66.5704 76.2526 72.9545C75.1508 74.0673 74.5327 75.57 74.5327 77.136C74.5327 78.702 75.1508 80.2047 76.2526 81.3176C76.7992 81.8664 77.4489 82.3019 78.1643 82.5991C78.8797 82.8963 79.6467 83.0492 80.4214 83.0492C81.196 83.0492 81.9631 82.8963 82.6784 82.5991C83.3938 82.3019 84.0435 81.8664 84.5902 81.3176C89.7982 76.0031 96.0226 71.7911 102.893 68.9326C109.763 66.0741 117.138 64.6276 124.578 64.6791C132.019 64.7305 139.373 66.2791 146.203 69.2324C153.033 72.1857 159.198 76.4834 164.332 81.8695C164.869 82.4289 165.511 82.8766 166.221 83.1869C166.932 83.4971 167.696 83.6638 168.471 83.6772C169.246 83.6906 170.016 83.5505 170.737 83.2651C171.458 82.9796 172.115 82.5543 172.67 82.0138C173.789 80.9204 174.431 79.4301 174.458 77.8661C174.485 76.3021 173.895 74.7905 172.814 73.6592C166.555 67.0668 159.019 61.8182 150.665 58.2331C142.311 54.6481 133.314 52.8018 124.224 52.8067ZM168.603 82.6251C167.948 82.6254 167.3 82.4931 166.697 82.2363C166.095 81.9795 165.55 81.6035 165.097 81.1308C159.87 75.6458 153.592 71.2691 146.638 68.2616C139.683 65.254 132.195 63.6771 124.618 63.6248C117.042 63.5725 109.532 65.0459 102.537 67.9572C95.5422 70.8685 89.2047 75.1581 83.9025 80.5704C83.4516 81.0263 82.9148 81.3883 82.3231 81.6353C81.7314 81.8823 81.0965 82.0095 80.4553 82.0095C79.8141 82.0095 79.1793 81.8823 78.5876 81.6353C77.9959 81.3883 77.4591 81.0263 77.0082 80.5704C76.0941 79.6509 75.5811 78.4071 75.5811 77.1106C75.5811 75.814 76.0941 74.5702 77.0082 73.6507C83.2214 67.3179 90.6447 62.2994 98.8366 58.8934C107.029 55.4875 115.822 53.7637 124.693 53.8247C133.565 53.8857 142.333 55.7302 150.478 59.2484C158.622 62.7667 165.976 67.8869 172.101 74.3045C173.002 75.2385 173.495 76.4916 173.473 77.7889C173.45 79.0862 172.914 80.3216 171.982 81.2242C171.076 82.108 169.86 82.6018 168.595 82.5996L168.603 82.6251Z" fill="#321951"/>
<path d="M153.643 65.5427C152.038 64.6937 150.383 63.8446 148.719 63.123C148.595 63.0712 148.455 63.0697 148.33 63.1188C148.205 63.1679 148.104 63.2638 148.048 63.3862C148.021 63.4475 148.007 63.5135 148.005 63.5804C148.004 63.6473 148.016 63.7138 148.041 63.776C148.065 63.8383 148.101 63.8952 148.148 63.9434C148.194 63.9916 148.25 64.0302 148.311 64.0569C149.941 64.7786 151.571 65.5767 153.159 66.4427C153.235 66.4833 153.32 66.5038 153.405 66.5021C153.496 66.5032 153.585 66.4792 153.663 66.4327C153.741 66.3863 153.805 66.3192 153.847 66.2389C153.88 66.18 153.9 66.115 153.908 66.048C153.915 65.9809 153.91 65.913 153.891 65.8482C153.872 65.7834 153.84 65.7231 153.798 65.6706C153.755 65.6182 153.703 65.5747 153.643 65.5427Z" fill="#321951"/>
<path d="M148.413 60.4481C148.288 60.3977 148.148 60.3989 148.024 60.4514C147.9 60.5039 147.801 60.6035 147.751 60.7283C147.7 60.8522 147.7 60.9912 147.751 61.1152C147.801 61.2391 147.899 61.3381 148.022 61.3905C154.235 63.9824 160.018 67.5037 165.173 71.8338C165.267 71.909 165.384 71.9508 165.504 71.9527C165.579 71.9533 165.653 71.9369 165.721 71.9045C165.789 71.8721 165.848 71.8247 165.895 71.7659C165.981 71.663 166.022 71.5306 166.011 71.3971C166 71.2636 165.937 71.1399 165.835 71.0527C160.598 66.6559 154.724 63.0803 148.413 60.4481Z" fill="#321951"/>
<path d="M235.839 150.015H12.5405C10.3329 150.015 8.80467 150.617 8.34618 151.67C7.8877 152.723 8.46505 154.149 9.89145 155.678C13.1433 159.159 19.7658 161.986 24.6648 161.986H223.766C228.656 161.986 235.279 159.159 238.531 155.678C239.957 154.149 240.526 152.689 240.084 151.67C239.643 150.651 238.047 150.015 235.839 150.015ZM69.2906 159.193H59.6455C59.5104 159.193 59.3808 159.139 59.2853 159.044C59.1897 158.948 59.136 158.818 59.136 158.683C59.136 158.548 59.1897 158.419 59.2853 158.323C59.3808 158.228 59.5104 158.174 59.6455 158.174H69.2906C69.3575 158.174 69.4238 158.187 69.4856 158.213C69.5474 158.238 69.6035 158.276 69.6508 158.323C69.6982 158.37 69.7357 158.427 69.7613 158.488C69.7869 158.55 69.8001 158.616 69.8001 158.683C69.8001 158.75 69.7869 158.817 69.7613 158.878C69.7357 158.94 69.6982 158.996 69.6508 159.044C69.6035 159.091 69.5474 159.128 69.4856 159.154C69.4238 159.18 69.3575 159.193 69.2906 159.193ZM81.2622 155.924H42.4948C42.3597 155.924 42.2301 155.87 42.1345 155.775C42.039 155.679 41.9853 155.55 41.9853 155.415C41.9853 155.279 42.039 155.15 42.1345 155.054C42.2301 154.959 42.3597 154.905 42.4948 154.905H81.2622C81.3973 154.905 81.5268 154.959 81.6224 155.054C81.7179 155.15 81.7716 155.279 81.7716 155.415C81.7716 155.55 81.7179 155.679 81.6224 155.775C81.5268 155.87 81.3973 155.924 81.2622 155.924ZM205.843 158.598H98.7525C98.6174 158.598 98.4878 158.545 98.3923 158.449C98.2967 158.354 98.2431 158.224 98.2431 158.089C98.2431 157.954 98.2967 157.824 98.3923 157.729C98.4878 157.633 98.6174 157.58 98.7525 157.58H205.843C205.978 157.58 206.107 157.633 206.203 157.729C206.298 157.824 206.352 157.954 206.352 158.089C206.352 158.224 206.298 158.354 206.203 158.449C206.107 158.545 205.978 158.598 205.843 158.598Z" fill="#8B6FE2"/>
<path d="M124.512 25.0602C124.98 25.0737 125.441 24.9473 125.837 24.6972C126.232 24.4472 126.544 24.0848 126.733 23.6564C126.921 23.228 126.978 22.7531 126.895 22.2925C126.812 21.8319 126.593 21.4065 126.267 21.0708C125.941 20.7351 125.522 20.5042 125.065 20.4078C124.607 20.3115 124.13 20.3539 123.697 20.5297C123.263 20.7056 122.891 21.0068 122.63 21.3949C122.368 21.783 122.228 22.2403 122.228 22.7083C122.224 23.0127 122.279 23.315 122.392 23.5979C122.504 23.8809 122.671 24.1389 122.883 24.3573C123.095 24.5757 123.348 24.7502 123.628 24.8708C123.907 24.9914 124.208 25.0557 124.512 25.0602Z" fill="#321951"/>
<path d="M86.56 36.7767H162.431C162.566 36.7767 162.695 36.723 162.791 36.6275C162.886 36.5319 162.94 36.4023 162.94 36.2672C162.94 36.1321 162.886 36.0026 162.791 35.907C162.695 35.8115 162.566 35.7578 162.431 35.7578H86.526C86.3909 35.7578 86.2613 35.8115 86.1658 35.907C86.0703 36.0026 86.0166 36.1321 86.0166 36.2672C86.0166 36.4023 86.0703 36.5319 86.1658 36.6275C86.2613 36.723 86.3909 36.7767 86.526 36.7767H86.56Z" fill="#321951"/>
<path d="M205.843 157.579H98.7526C98.6175 157.579 98.4879 157.633 98.3924 157.728C98.2968 157.824 98.2432 157.953 98.2432 158.089C98.2432 158.224 98.2968 158.353 98.3924 158.449C98.4879 158.544 98.6175 158.598 98.7526 158.598H205.843C205.978 158.598 206.107 158.544 206.203 158.449C206.298 158.353 206.352 158.224 206.352 158.089C206.352 157.953 206.298 157.824 206.203 157.728C206.107 157.633 205.978 157.579 205.843 157.579Z" fill="#321951"/>
<path d="M81.2622 154.904H42.4948C42.3597 154.904 42.2301 154.958 42.1346 155.054C42.039 155.149 41.9854 155.279 41.9854 155.414C41.9854 155.549 42.039 155.678 42.1346 155.774C42.2301 155.869 42.3597 155.923 42.4948 155.923H81.2622C81.3973 155.923 81.5269 155.869 81.6224 155.774C81.7179 155.678 81.7716 155.549 81.7716 155.414C81.7716 155.279 81.7179 155.149 81.6224 155.054C81.5269 154.958 81.3973 154.904 81.2622 154.904Z" fill="#321951"/>
<path d="M69.2903 158.174H59.6452C59.5101 158.174 59.3805 158.227 59.285 158.323C59.1894 158.419 59.1357 158.548 59.1357 158.683C59.1357 158.818 59.1894 158.948 59.285 159.043C59.3805 159.139 59.5101 159.193 59.6452 159.193H69.2903C69.3572 159.193 69.4235 159.179 69.4853 159.154C69.5471 159.128 69.6032 159.091 69.6505 159.043C69.6978 158.996 69.7354 158.94 69.761 158.878C69.7866 158.816 69.7998 158.75 69.7998 158.683C69.7998 158.616 69.7866 158.55 69.761 158.488C69.7354 158.426 69.6978 158.37 69.6505 158.323C69.6032 158.276 69.5471 158.238 69.4853 158.213C69.4235 158.187 69.3572 158.174 69.2903 158.174Z" fill="#321951"/>
<path d="M6.82651 134.197H44.3628C47.5552 134.197 50.1618 131.879 50.1618 129.026V48.8338C50.1618 45.981 47.5552 43.6631 44.3628 43.6631H6.82651C3.65957 43.6631 1.01904 46.0149 1.01904 48.8338V129.026C1.01904 131.879 3.65957 134.197 6.82651 134.197ZM37.1799 132.32H13.9924C13.9206 132.33 13.8476 132.324 13.7783 132.302C13.709 132.281 13.645 132.246 13.5906 132.198C13.5362 132.15 13.4926 132.091 13.4627 132.025C13.4328 131.959 13.4174 131.888 13.4174 131.815C13.4174 131.743 13.4328 131.671 13.4627 131.605C13.4926 131.539 13.5362 131.48 13.5906 131.432C13.645 131.385 13.709 131.349 13.7783 131.328C13.8476 131.307 13.9206 131.301 13.9924 131.31H37.1799C37.2517 131.301 37.3247 131.307 37.394 131.328C37.4633 131.349 37.5273 131.385 37.5817 131.432C37.6361 131.48 37.6797 131.539 37.7096 131.605C37.7395 131.671 37.7549 131.743 37.7549 131.815C37.7549 131.888 37.7395 131.959 37.7096 132.025C37.6797 132.091 37.6361 132.15 37.5817 132.198C37.5273 132.246 37.4633 132.281 37.394 132.302C37.3247 132.324 37.2517 132.33 37.1799 132.32ZM25.8281 107.257C24.9294 107.217 24.0622 106.914 23.3341 106.385C22.606 105.857 22.0491 105.126 21.7325 104.284C21.4159 103.442 21.3535 102.526 21.553 101.649C21.7526 100.771 22.2054 99.9722 22.8552 99.35C23.5049 98.7279 24.3231 98.3102 25.2081 98.1489C26.0931 97.9875 27.006 98.0896 27.8336 98.4425C28.6611 98.7953 29.3668 99.3834 29.863 100.134C30.3593 100.884 30.6244 101.764 30.6252 102.663C30.5963 103.908 30.0751 105.09 29.1759 105.951C28.2767 106.812 27.0728 107.282 25.8281 107.257ZM27.3479 128.228C27.3479 128.363 27.2943 128.493 27.1987 128.588C27.1032 128.684 26.9736 128.737 26.8385 128.737H20.6999C20.5648 128.737 20.4352 128.684 20.3397 128.588C20.2441 128.493 20.1905 128.363 20.1905 128.228C20.1905 128.093 20.2441 127.963 20.3397 127.868C20.4352 127.772 20.5648 127.719 20.6999 127.719H26.8385C26.9054 127.719 26.9716 127.732 27.0334 127.757C27.0953 127.783 27.1514 127.82 27.1987 127.868C27.246 127.915 27.2835 127.971 27.3091 128.033C27.3347 128.095 27.3479 128.161 27.3479 128.228ZM30.1922 127.719H34.1063C34.2414 127.719 34.371 127.772 34.4665 127.868C34.5621 127.963 34.6157 128.093 34.6157 128.228C34.6157 128.363 34.5621 128.493 34.4665 128.588C34.371 128.684 34.2414 128.737 34.1063 128.737H30.1922C30.0571 128.737 29.9275 128.684 29.832 128.588C29.7365 128.493 29.6828 128.363 29.6828 128.228C29.6828 128.093 29.7365 127.963 29.832 127.868C29.9275 127.772 30.0571 127.719 30.1922 127.719ZM33.0875 98.5793C32.3444 98.5926 31.6255 98.3154 31.0837 97.8067C29.6153 96.372 27.6531 95.554 25.6004 95.5209C23.5477 95.4877 21.5602 96.2418 20.0461 97.6284C19.4971 98.1048 18.7918 98.3621 18.065 98.3512C17.3382 98.3402 16.6409 98.0617 16.1066 97.5689C15.8486 97.3202 15.6445 97.0212 15.507 96.6904C15.3694 96.3595 15.3013 96.0039 15.3069 95.6457C15.3125 95.2874 15.3916 94.9341 15.5394 94.6077C15.6872 94.2813 15.9005 93.9888 16.166 93.7482C18.7652 91.3741 22.1737 90.0833 25.6936 90.1401C29.2134 90.1969 32.5784 91.5971 35.0997 94.0539C35.3569 94.2964 35.5624 94.5884 35.7039 94.9123C35.8454 95.2362 35.9201 95.5853 35.9233 95.9388C35.9171 96.2966 35.8387 96.6495 35.6928 96.9763C35.5469 97.3032 35.3365 97.5971 35.0742 97.8406C34.5301 98.3306 33.8196 98.5948 33.0875 98.5793ZM40.627 92.5001C40.0844 92.9875 39.3774 93.2515 38.6481 93.2389C37.9188 93.2263 37.2214 92.9381 36.6959 92.4322C33.724 89.5484 29.7568 87.9179 25.6159 87.8784C21.4749 87.8389 17.4774 89.3934 14.4509 92.22C13.9109 92.708 13.209 92.9782 12.4811 92.9782C11.7533 92.9782 11.0514 92.708 10.5114 92.22C10.2497 91.9753 10.041 91.6795 9.89836 91.3509C9.75571 91.0223 9.68211 90.6678 9.68211 90.3096C9.68211 89.9514 9.75571 89.5969 9.89836 89.2683C10.041 88.9397 10.2497 88.6439 10.5114 88.3993C14.61 84.5492 20.0363 82.4294 25.6594 82.4816C31.2824 82.5338 36.6685 84.754 40.6949 88.6794C40.9518 88.9293 41.1546 89.2292 41.2907 89.5607C41.4268 89.8922 41.4934 90.2481 41.4862 90.6064C41.479 90.9647 41.3983 91.3176 41.2491 91.6434C41.0998 91.9692 40.8852 92.2608 40.6185 92.5001H40.627ZM13.9924 50.1328H36.2714C36.4065 50.1328 36.5361 50.1865 36.6316 50.282C36.7271 50.3775 36.7808 50.5071 36.7808 50.6422C36.7808 50.7773 36.7271 50.9069 36.6316 51.0025C36.5361 51.098 36.4065 51.1517 36.2714 51.1517H13.9924C13.8573 51.1517 13.7278 51.098 13.6322 51.0025C13.5367 50.9069 13.483 50.7773 13.483 50.6422C13.483 50.5071 13.5367 50.3775 13.6322 50.282C13.7278 50.1865 13.8573 50.1328 13.9924 50.1328ZM28.5281 54.1573C28.5281 54.2924 28.4744 54.422 28.3789 54.5175C28.2834 54.613 28.1538 54.6667 28.0187 54.6667H22.2452C22.1101 54.6667 21.9805 54.613 21.8849 54.5175C21.7894 54.422 21.7357 54.2924 21.7357 54.1573C21.7357 54.0222 21.7894 53.8926 21.8849 53.7971C21.9805 53.7015 22.1101 53.6478 22.2452 53.6478H28.0187C28.1538 53.6478 28.2834 53.7015 28.3789 53.7971C28.4744 53.8926 28.5281 54.0222 28.5281 54.1573ZM4.8822 83.0248C10.4284 77.7467 17.8069 74.8276 25.463 74.8825C33.2666 74.839 40.7688 77.8924 46.3241 83.3729C46.5808 83.6215 46.784 83.92 46.9212 84.2499C47.0585 84.5799 47.1268 84.9344 47.1222 85.2917C47.116 85.6496 47.0376 86.0025 46.8917 86.3293C46.7458 86.6561 46.5354 86.9501 46.2731 87.1936C45.7309 87.6853 45.0218 87.952 44.2899 87.9394C43.558 87.9268 42.8585 87.6358 42.3336 87.1257C37.8627 82.7712 31.88 80.3161 25.6391 80.275C19.3982 80.2338 13.3836 82.6098 8.85573 86.9049C8.31487 87.3912 7.61326 87.6602 6.88594 87.6602C6.15863 87.6602 5.45701 87.3912 4.91616 86.9049C4.65126 86.6617 4.4392 86.3666 4.29314 86.038C4.14708 85.7093 4.07015 85.3542 4.06711 84.9946C4.05631 84.6311 4.12346 84.2695 4.26405 83.9341C4.40464 83.5988 4.61542 83.2974 4.8822 83.0503V83.0248Z" fill="#F1E6FF"/>
<path d="M37.1795 131.31H13.992C13.9202 131.301 13.8472 131.307 13.7779 131.328C13.7086 131.349 13.6446 131.385 13.5902 131.432C13.5358 131.48 13.4922 131.539 13.4623 131.605C13.4324 131.671 13.417 131.743 13.417 131.815C13.417 131.888 13.4324 131.959 13.4623 132.025C13.4922 132.091 13.5358 132.15 13.5902 132.198C13.6446 132.246 13.7086 132.281 13.7779 132.302C13.8472 132.324 13.9202 132.33 13.992 132.32H37.1795C37.2513 132.33 37.3243 132.324 37.3936 132.302C37.4629 132.281 37.5269 132.246 37.5813 132.198C37.6357 132.15 37.6793 132.091 37.7092 132.025C37.7391 131.959 37.7545 131.888 37.7545 131.815C37.7545 131.743 37.7391 131.671 37.7092 131.605C37.6793 131.539 37.6357 131.48 37.5813 131.432C37.5269 131.385 37.4629 131.349 37.3936 131.328C37.3243 131.307 37.2513 131.301 37.1795 131.31Z" fill="#321951"/>
<path d="M30.192 128.738H34.1061C34.2412 128.738 34.3708 128.684 34.4664 128.588C34.5619 128.493 34.6156 128.363 34.6156 128.228C34.6156 128.093 34.5619 127.963 34.4664 127.868C34.3708 127.772 34.2412 127.719 34.1061 127.719H30.192C30.0569 127.719 29.9274 127.772 29.8318 127.868C29.7363 127.963 29.6826 128.093 29.6826 128.228C29.6826 128.363 29.7363 128.493 29.8318 128.588C29.9274 128.684 30.0569 128.738 30.192 128.738Z" fill="#321951"/>
<path d="M26.8384 127.719H20.6999C20.5647 127.719 20.4352 127.772 20.3396 127.868C20.2441 127.963 20.1904 128.093 20.1904 128.228C20.1904 128.363 20.2441 128.493 20.3396 128.588C20.4352 128.684 20.5647 128.738 20.6999 128.738H26.8384C26.9736 128.738 27.1031 128.684 27.1987 128.588C27.2942 128.493 27.3479 128.363 27.3479 128.228C27.3479 128.093 27.2942 127.963 27.1987 127.868C27.1031 127.772 26.9736 127.719 26.8384 127.719Z" fill="#321951"/>
<path d="M13.9923 51.1517H36.2713C36.4064 51.1517 36.536 51.098 36.6315 51.0025C36.727 50.9069 36.7807 50.7773 36.7807 50.6422C36.7807 50.5071 36.727 50.3776 36.6315 50.282C36.536 50.1865 36.4064 50.1328 36.2713 50.1328H13.9923C13.8572 50.1328 13.7277 50.1865 13.6321 50.282C13.5366 50.3776 13.4829 50.5071 13.4829 50.6422C13.4829 50.7773 13.5366 50.9069 13.6321 51.0025C13.7277 51.098 13.8572 51.1517 13.9923 51.1517Z" fill="#321951"/>
<path d="M22.2448 53.6562C22.1097 53.6562 21.9801 53.7099 21.8846 53.8055C21.789 53.901 21.7354 54.0306 21.7354 54.1657C21.7354 54.3008 21.789 54.4303 21.8846 54.5259C21.9801 54.6214 22.1097 54.6751 22.2448 54.6751H28.0183C28.1534 54.6751 28.283 54.6214 28.3785 54.5259C28.474 54.4303 28.5277 54.3008 28.5277 54.1657C28.5277 54.0306 28.474 53.901 28.3785 53.8055C28.283 53.7099 28.1534 53.6563 28.0183 53.6562H22.2448Z" fill="#321951"/>
<path d="M25.8279 106.237C26.5278 106.201 27.2016 105.96 27.7659 105.544C28.3302 105.128 28.7602 104.556 29.0027 103.899C29.2452 103.241 29.2896 102.527 29.1302 101.845C28.9709 101.162 28.6149 100.541 28.1064 100.059C27.5978 99.5769 26.959 99.2544 26.269 99.1316C25.579 99.0088 24.8681 99.091 24.2244 99.3681C23.5807 99.6452 23.0323 100.105 22.6473 100.691C22.2623 101.276 22.0574 101.962 22.0581 102.663C22.087 103.636 22.4996 104.558 23.2059 105.227C23.9122 105.897 24.8548 106.26 25.8279 106.237Z" fill="#00DA9C"/>
<path d="M30.625 102.663C30.6657 101.707 30.4193 100.76 29.9175 99.9446C29.4157 99.1294 28.6815 98.483 27.8093 98.0885C26.9371 97.6939 25.9668 97.5694 25.0233 97.7308C24.0797 97.8923 23.206 98.3323 22.5146 98.9943C21.8232 99.6564 21.3456 100.51 21.1434 101.446C20.9412 102.382 21.0235 103.356 21.3799 104.245C21.7362 105.133 22.3502 105.895 23.1428 106.432C23.9355 106.968 24.8707 107.255 25.8279 107.256C26.4446 107.27 27.0578 107.162 27.6326 106.938C28.2075 106.715 28.7326 106.38 29.1781 105.953C29.6236 105.527 29.9807 105.017 30.2289 104.452C30.4772 103.888 30.6118 103.28 30.625 102.663ZM25.8279 99.0885C26.5278 99.125 27.2016 99.366 27.7659 99.7816C28.3302 100.197 28.7603 100.769 29.0028 101.427C29.2453 102.084 29.2896 102.799 29.1303 103.481C28.971 104.164 28.615 104.784 28.1064 105.267C27.5979 105.749 26.959 106.071 26.2691 106.194C25.5791 106.317 24.8682 106.235 24.2245 105.958C23.5807 105.68 23.0324 105.221 22.6474 104.635C22.2623 104.049 22.0575 103.364 22.0582 102.663C22.0871 101.69 22.4997 100.768 23.206 100.098C23.9123 99.4287 24.8549 99.0656 25.8279 99.0885Z" fill="#321951"/>
<path d="M34.8701 95.9216C34.8728 95.7017 34.8305 95.4836 34.7459 95.2807C34.6612 95.0777 34.5359 94.8942 34.3777 94.7415C32.0418 92.4716 28.9278 91.1787 25.6711 91.1266C22.4144 91.0746 19.2607 92.2672 16.8534 94.4613C16.6893 94.61 16.5573 94.7906 16.4653 94.992C16.3734 95.1935 16.3234 95.4116 16.3185 95.633C16.3155 95.8516 16.3576 96.0686 16.4424 96.2702C16.5271 96.4718 16.6526 96.6538 16.811 96.8046C17.1595 97.1215 17.6135 97.297 18.0845 97.297C18.5555 97.297 19.0096 97.1215 19.3581 96.8046C21.0674 95.2413 23.3102 94.3913 25.6264 94.4292C27.9425 94.4671 30.1563 95.3899 31.8136 97.0084C32.1586 97.3276 32.6091 97.5084 33.079 97.5162C33.549 97.524 34.0053 97.3584 34.3607 97.0509C34.6725 96.7562 34.8555 96.3504 34.8701 95.9216Z" fill="#00DA9C"/>
<path d="M35.9233 95.9389C35.9279 95.5816 35.8596 95.2271 35.7223 94.8971C35.5851 94.5671 35.3819 94.2687 35.1252 94.0201C32.6039 91.5633 29.2389 90.1631 25.719 90.1063C22.1992 90.0495 18.7907 91.3403 16.1915 93.7144C15.9259 93.955 15.7126 94.2475 15.5648 94.5739C15.4171 94.9003 15.3379 95.2536 15.3323 95.6119C15.3268 95.9701 15.3949 96.3257 15.5324 96.6565C15.67 96.9874 15.8741 97.2864 16.132 97.5351C16.6664 98.0279 17.3637 98.3064 18.0905 98.3173C18.8173 98.3283 19.5226 98.071 20.0716 97.5946C21.5856 96.208 23.5731 95.4539 25.6259 95.487C27.6786 95.5202 29.6407 96.3381 31.1092 97.7729C31.6361 98.2793 32.3349 98.5677 33.0656 98.5803C33.7963 98.5929 34.5047 98.3287 35.0488 97.8408C35.3157 97.5995 35.5308 97.3065 35.6812 96.9796C35.8315 96.6527 35.9138 96.2986 35.9233 95.9389ZM31.8309 97.0427C30.1736 95.4242 27.9598 94.5013 25.6437 94.4635C23.3275 94.4256 21.0847 95.2755 19.3754 96.8389C19.0269 97.1557 18.5728 97.3312 18.1018 97.3312C17.6308 97.3312 17.1768 97.1557 16.8283 96.8389C16.6699 96.688 16.5444 96.5061 16.4597 96.3045C16.3749 96.1029 16.3328 95.8859 16.3358 95.6672C16.3407 95.4458 16.3907 95.2278 16.4826 95.0263C16.5746 94.8249 16.7066 94.6443 16.8707 94.4955C19.2779 92.3015 22.4317 91.1088 25.6884 91.1609C28.9451 91.213 32.0591 92.5059 34.395 94.7757C34.5565 94.9252 34.6854 95.1064 34.7736 95.308C34.8617 95.5097 34.9072 95.7273 34.9072 95.9474C34.9072 96.1675 34.8617 96.3851 34.7736 96.5868C34.6854 96.7884 34.5565 96.9696 34.395 97.1191C34.0322 97.4365 33.5628 97.605 33.081 97.5908C32.5991 97.5767 32.1404 97.3809 31.7969 97.0427H31.8309Z" fill="#321951"/>
<path d="M40.4737 90.581C40.478 90.3617 40.4373 90.1438 40.354 89.9408C40.2708 89.7378 40.1468 89.5541 39.9898 89.4009C36.1502 85.6637 31.0175 83.5509 25.6597 83.5018C20.3019 83.4528 15.1315 85.4714 11.2241 89.1377C11.0626 89.2871 10.9337 89.4683 10.8456 89.67C10.7574 89.8716 10.7119 90.0893 10.7119 90.3093C10.7119 90.5294 10.7574 90.7471 10.8456 90.9487C10.9337 91.1504 11.0626 91.3316 11.2241 91.481C11.5744 91.7943 12.0278 91.9675 12.4977 91.9675C12.9676 91.9675 13.421 91.7943 13.7713 91.481C16.9836 88.4642 21.2361 86.8034 25.6428 86.8445C30.0494 86.8856 34.2702 88.6256 37.4257 91.7018C37.7689 92.0244 38.22 92.2076 38.691 92.2154C39.162 92.2233 39.619 92.0553 39.9728 91.7442C40.1312 91.5948 40.2574 91.4145 40.3436 91.2144C40.4297 91.0144 40.474 90.7988 40.4737 90.581Z" fill="#00DA9C"/>
<path d="M25.4629 82.5237C19.9022 82.5058 14.5491 84.6349 10.5197 88.467C10.258 88.7117 10.0493 89.0075 9.90668 89.3361C9.76404 89.6647 9.69043 90.0191 9.69043 90.3774C9.69043 90.7356 9.76404 91.0901 9.90668 91.4187C10.0493 91.7473 10.258 92.0431 10.5197 92.2877C11.0597 92.7758 11.7616 93.046 12.4895 93.046C13.2173 93.046 13.9193 92.7758 14.4593 92.2877C17.4857 89.4612 21.4832 87.9067 25.6242 87.9462C29.7651 87.9857 33.7323 89.6162 36.7042 92.5C37.2297 93.0058 37.9272 93.294 38.6564 93.3066C39.3857 93.3192 40.0927 93.0553 40.6353 92.5679C40.902 92.3286 41.1166 92.0369 41.2659 91.7112C41.4151 91.3854 41.4958 91.0324 41.503 90.6742C41.5102 90.3159 41.4436 89.96 41.3075 89.6285C41.1714 89.297 40.9686 88.9971 40.7117 88.7472C36.6549 84.7331 31.1699 82.4945 25.4629 82.5237ZM37.4089 91.7443C34.2535 88.6681 30.0327 86.9282 25.626 86.8871C21.2194 86.8459 16.9669 88.5068 13.7545 91.5236C13.4043 91.8369 12.9509 92.01 12.481 92.01C12.0111 92.01 11.5577 91.8369 11.2074 91.5236C11.0459 91.3742 10.917 91.1929 10.8288 90.9913C10.7407 90.7897 10.6952 90.572 10.6952 90.3519C10.6952 90.1319 10.7407 89.9142 10.8288 89.7125C10.917 89.5109 11.0459 89.3297 11.2074 89.1802C15.1147 85.514 20.2852 83.4954 25.643 83.5444C31.0008 83.5934 36.1335 85.7063 39.9731 89.4434C40.1302 89.597 40.2542 89.7812 40.3373 89.9847C40.4204 90.1881 40.4608 90.4065 40.456 90.6262C40.4512 90.8459 40.4014 91.0623 40.3095 91.2619C40.2177 91.4615 40.0858 91.6402 39.9221 91.7868C39.5654 92.0827 39.1126 92.2374 38.6494 92.2218C38.1862 92.2062 37.7449 92.0212 37.4089 91.7019V91.7443Z" fill="#321951"/>
<path d="M5.59515 86.132C5.94623 86.4435 6.39933 86.6156 6.86871 86.6156C7.33809 86.6156 7.79119 86.4435 8.14228 86.132C12.8593 81.6507 19.1285 79.1705 25.6346 79.2116C32.1408 79.2528 38.3781 81.8122 43.038 86.3527C43.3821 86.6736 43.833 86.8556 44.3034 86.8634C44.7739 86.8713 45.2305 86.7044 45.5852 86.3952C45.7467 86.2457 45.8756 86.0645 45.9637 85.8629C46.0519 85.6613 46.0974 85.4436 46.0974 85.2235C46.0974 85.0034 46.0519 84.7858 45.9637 84.5841C45.8756 84.3825 45.7467 84.2013 45.5852 84.0518C40.2145 78.7696 32.9702 75.8297 25.4373 75.8755C18.0368 75.8378 10.9107 78.6748 5.56118 83.7886C5.24329 84.1001 5.06036 84.5239 5.05176 84.9688C5.05985 85.1892 5.11212 85.4057 5.20546 85.6055C5.2988 85.8053 5.43131 85.9844 5.59515 86.132Z" fill="#00DA9C"/>
<path d="M8.83872 86.854C13.3666 82.5588 19.3812 80.1829 25.6221 80.224C31.863 80.2652 37.8457 82.7202 42.3166 87.0747C42.8415 87.5849 43.541 87.8759 44.2729 87.8885C45.0048 87.9011 45.7139 87.6344 46.2561 87.1427C46.5184 86.8992 46.7288 86.6052 46.8747 86.2784C47.0206 85.9516 47.099 85.5986 47.1052 85.2408C47.1098 84.8835 47.0415 84.529 46.9042 84.199C46.767 83.869 46.5638 83.5706 46.3071 83.322C40.7518 77.8415 33.2496 74.7881 25.446 74.8315C17.7816 74.7926 10.402 77.7335 4.86519 83.0333C4.59658 83.2735 4.38201 83.568 4.23565 83.8973C4.08929 84.2267 4.01447 84.5833 4.01614 84.9436C4.01917 85.3033 4.09611 85.6584 4.24217 85.987C4.38823 86.3157 4.60029 86.6108 4.86519 86.854C5.40808 87.3498 6.11673 87.6247 6.85195 87.6247C7.58717 87.6247 8.29582 87.3498 8.83872 86.854ZM25.463 75.8673C32.9959 75.8215 40.2402 78.7614 45.6109 84.0436C45.7724 84.1931 45.9013 84.3743 45.9894 84.576C46.0776 84.7776 46.1231 84.9953 46.1231 85.2153C46.1231 85.4354 46.0776 85.6531 45.9894 85.8547C45.9013 86.0563 45.7724 86.2376 45.6109 86.387C45.2562 86.6963 44.7996 86.8631 44.3291 86.8553C43.8587 86.8474 43.4078 86.6655 43.0637 86.3446C38.4038 81.804 32.1665 79.2446 25.6603 79.2034C19.1542 79.1623 12.8849 81.6425 8.16797 86.1238C7.81688 86.4354 7.36378 86.6074 6.8944 86.6074C6.42502 86.6074 5.97192 86.4354 5.62084 86.1238C5.46063 85.973 5.33226 85.7916 5.2433 85.5904C5.15435 85.3891 5.10661 85.1721 5.10292 84.9521C5.11152 84.5072 5.29445 84.0834 5.61235 83.772C10.9569 78.6674 18.0725 75.8339 25.463 75.8673Z" fill="#321951"/>
<path d="M108.678 39.8252C108.543 39.8252 108.413 39.8789 108.318 39.9744C108.222 40.0699 108.168 40.1995 108.168 40.3346C108.168 40.4697 108.222 40.5993 108.318 40.6948C108.413 40.7904 108.543 40.8441 108.678 40.8441H139.507C139.642 40.8441 139.771 40.7904 139.867 40.6948C139.962 40.5993 140.016 40.4697 140.016 40.3346C140.016 40.1995 139.962 40.0699 139.867 39.9744C139.771 39.8789 139.642 39.8252 139.507 39.8252H108.678Z" fill="#321951"/>
<path d="M259.01 1.60938H194.975C188.369 1.60938 182.995 7.24703 182.995 14.1837V104.182C182.995 111.119 188.369 116.757 194.975 116.757H259.01C265.607 116.757 270.981 111.119 270.981 104.182V14.1837C270.981 7.24703 265.607 1.60938 259.01 1.60938ZM230.354 3.91877C230.603 3.91878 230.847 3.9927 231.053 4.13115C231.26 4.26961 231.421 4.46636 231.516 4.69647C231.611 4.92658 231.635 5.17967 231.586 5.42365C231.537 5.66763 231.416 5.89152 231.24 6.06691C231.063 6.2423 230.839 6.36131 230.594 6.40883C230.35 6.45635 230.097 6.43025 229.868 6.33384C229.638 6.23743 229.442 6.07505 229.305 5.86729C229.168 5.65953 229.096 5.41576 229.098 5.16687C229.098 5.00225 229.13 4.83926 229.194 4.68728C229.257 4.53529 229.35 4.39733 229.466 4.28132C229.583 4.16531 229.722 4.07356 229.874 4.01133C230.027 3.94911 230.19 3.91765 230.354 3.91877ZM229.785 12.0526C229.787 12.1198 229.774 12.1866 229.749 12.2489C229.724 12.3113 229.686 12.3679 229.639 12.4154C229.591 12.4629 229.535 12.5004 229.472 12.5256C229.41 12.5508 229.343 12.5632 229.276 12.5621H224.7C224.565 12.5621 224.435 12.5084 224.34 12.4128C224.244 12.3173 224.19 12.1877 224.19 12.0526C224.19 11.9175 224.244 11.7879 224.34 11.6924C224.435 11.5969 224.565 11.5432 224.7 11.5432H229.276C229.343 11.5432 229.409 11.5564 229.471 11.582C229.533 11.6076 229.589 11.6451 229.636 11.6924C229.684 11.7397 229.721 11.7959 229.747 11.8577C229.772 11.9195 229.785 11.9857 229.785 12.0526ZM224.598 2.97634C225.028 2.97802 225.447 3.10714 225.804 3.34737C226.16 3.5876 226.438 3.92815 226.601 4.32595C226.764 4.72375 226.805 5.16095 226.719 5.58224C226.634 6.00354 226.425 6.39001 226.12 6.6928C225.815 6.99559 225.427 7.20108 225.005 7.2833C224.583 7.36552 224.146 7.32077 223.75 7.15472C223.353 6.98866 223.015 6.70875 222.777 6.35038C222.54 5.99201 222.414 5.57129 222.416 5.1414C222.425 4.56937 222.659 4.02393 223.067 3.62339C223.476 3.22285 224.026 2.9995 224.598 3.00181V2.97634ZM215.921 14.3535H238.149C238.284 14.3535 238.413 14.4072 238.509 14.5027C238.604 14.5983 238.658 14.7279 238.658 14.863C238.658 14.9981 238.604 15.1276 238.509 15.2232C238.413 15.3187 238.284 15.3724 238.149 15.3724H215.921C215.785 15.3724 215.656 15.3187 215.56 15.2232C215.465 15.1276 215.411 14.9981 215.411 14.863C215.411 14.7279 215.465 14.5983 215.56 14.5027C215.656 14.4072 215.785 14.3535 215.921 14.3535ZM233.088 109.735H220.938C220.803 109.735 220.674 109.682 220.578 109.586C220.483 109.491 220.429 109.361 220.429 109.226C220.429 109.091 220.483 108.961 220.578 108.866C220.674 108.77 220.803 108.716 220.938 108.716H233.046C233.181 108.716 233.311 108.77 233.406 108.866C233.502 108.961 233.555 109.091 233.555 109.226C233.555 109.361 233.502 109.491 233.406 109.586C233.311 109.682 233.181 109.735 233.046 109.735H233.088ZM244.873 106.186H209.128C209.061 106.186 208.995 106.173 208.933 106.147C208.871 106.122 208.815 106.084 208.768 106.037C208.721 105.99 208.683 105.934 208.658 105.872C208.632 105.81 208.619 105.744 208.619 105.677C208.619 105.61 208.632 105.544 208.658 105.482C208.683 105.42 208.721 105.364 208.768 105.317C208.815 105.269 208.871 105.232 208.933 105.206C208.995 105.181 209.061 105.167 209.128 105.167H244.788C244.855 105.167 244.921 105.181 244.983 105.206C245.045 105.232 245.101 105.269 245.148 105.317C245.196 105.364 245.233 105.42 245.259 105.482C245.284 105.544 245.298 105.61 245.298 105.677C245.298 105.744 245.284 105.81 245.259 105.872C245.233 105.934 245.196 105.99 245.148 106.037C245.101 106.084 245.045 106.122 244.983 106.147C244.921 106.173 244.855 106.186 244.788 106.186H244.873ZM226.856 69.0405C223.917 69.0399 221.094 70.1851 218.986 72.2329C218.632 72.578 218.214 72.8501 217.756 73.0337C217.297 73.2172 216.807 73.3087 216.313 73.3027C215.819 73.2968 215.331 73.1937 214.877 72.9992C214.423 72.8047 214.011 72.5227 213.666 72.1692C213.321 71.8158 213.049 71.3978 212.866 70.9392C212.682 70.4806 212.591 69.9904 212.597 69.4964C212.602 69.0025 212.706 68.5145 212.9 68.0605C213.095 67.6064 213.377 67.1951 213.73 66.85C215.512 65.1263 217.616 63.7706 219.922 62.8604C222.229 61.9501 224.691 61.5031 227.17 61.5449C229.649 61.5866 232.096 62.1164 234.37 63.1039C236.644 64.0914 238.701 65.5172 240.424 67.3C240.769 67.6521 241.041 68.0694 241.223 68.5276C241.406 68.9857 241.495 69.4755 241.486 69.9686C241.478 70.4616 241.371 70.9479 241.173 71.3994C240.974 71.8508 240.688 72.2582 240.331 72.598C239.609 73.2888 238.644 73.6666 237.645 73.6491C236.647 73.6316 235.695 73.2202 234.999 72.5046C233.941 71.4024 232.669 70.5269 231.262 69.9314C229.855 69.3359 228.342 69.0328 226.814 69.0405H226.856ZM233.988 79.9677C233.997 81.2776 233.616 82.5606 232.894 83.6538C232.173 84.747 231.143 85.6014 229.935 86.1085C228.727 86.6156 227.396 86.7527 226.11 86.5023C224.824 86.2519 223.642 85.6253 222.713 84.7021C221.783 83.7788 221.149 82.6004 220.891 81.3162C220.632 80.0321 220.76 78.7 221.26 77.489C221.759 76.278 222.607 75.2425 223.695 74.5138C224.784 73.7851 226.064 73.3961 227.374 73.3961C229.117 73.4028 230.785 74.0985 232.017 75.3313C233.248 76.5641 233.941 78.2339 233.946 79.9762L233.988 79.9677ZM248.32 64.6849C247.598 65.3711 246.635 65.7458 245.639 65.7284C244.643 65.7109 243.694 65.3026 242.997 64.5915C240.93 62.4512 238.459 60.7433 235.726 59.5673C232.993 58.3913 230.054 57.7706 227.079 57.7413C224.104 57.7121 221.153 58.2749 218.398 59.397C215.643 60.5191 213.138 62.1781 211.03 64.2774C210.321 64.9804 209.363 65.3742 208.364 65.3727C207.619 65.3783 206.889 65.1615 206.268 64.7499C205.646 64.3384 205.162 63.7508 204.877 63.0624C204.591 62.374 204.518 61.6161 204.666 60.8857C204.814 60.1553 205.176 59.4856 205.707 58.9624C208.525 56.162 211.872 53.9493 215.552 52.4527C219.233 50.956 223.174 50.2053 227.147 50.244C231.12 50.2827 235.046 51.1101 238.696 52.6781C242.347 54.2462 245.65 56.5236 248.414 59.3784C248.758 59.7318 249.029 60.15 249.211 60.6088C249.393 61.0675 249.482 61.5577 249.473 62.0511C249.464 62.5445 249.358 63.0313 249.16 63.4834C248.962 63.9354 248.677 64.3438 248.32 64.6849ZM256.335 56.7209C255.614 57.4117 254.649 57.7894 253.65 57.7719C252.651 57.7545 251.7 57.3431 251.003 56.6275C247.898 53.4145 244.183 50.8534 240.076 49.0942C235.968 47.3349 231.551 46.4129 227.083 46.3821C222.615 46.3512 218.185 47.2122 214.054 48.9146C209.923 50.617 206.173 53.1266 203.024 56.2964C202.317 57.001 201.36 57.3966 200.362 57.3966C199.364 57.3966 198.407 57.001 197.7 56.2964C197.349 55.9496 197.07 55.5365 196.879 55.081C196.689 54.6256 196.591 54.1368 196.591 53.6431C196.591 53.1494 196.689 52.6606 196.879 52.2051C197.07 51.7497 197.349 51.3366 197.7 50.9898C201.558 47.1116 206.151 44.0413 211.209 41.9585C216.268 39.8757 221.69 38.822 227.161 38.8592C232.631 38.8963 238.039 40.0235 243.069 42.1749C248.099 44.3262 252.649 47.4586 256.454 51.3889C256.796 51.7434 257.065 52.1619 257.246 52.6205C257.427 53.0791 257.515 53.5687 257.506 54.0615C257.498 54.5542 257.392 55.0405 257.195 55.4924C256.999 55.9443 256.715 56.3531 256.361 56.6954L256.335 56.7209Z" fill="#F1E6FF"/>
<path d="M259.009 0.59082H194.975C187.809 0.59082 181.976 6.68696 181.976 14.1755V16.8161H35.9909C33.3989 16.8607 30.9305 17.9317 29.1271 19.794C27.3237 21.6563 26.3326 24.1578 26.3712 26.7499V42.6185H6.84314C3.08187 42.6185 0.0507812 45.3949 0.0507812 48.8081V129C0.0507812 132.397 3.11583 135.19 6.84314 135.19H26.3712V148.316C26.3712 148.528 26.3712 148.749 26.3712 148.97H12.4978C9.82329 148.97 8.00633 149.819 7.40351 151.237C6.80069 152.655 7.40351 154.48 9.1016 156.331C12.4978 159.99 19.4769 162.962 24.6731 162.962H223.723C228.86 162.962 235.814 159.99 239.235 156.331C240.976 154.463 241.596 152.646 240.976 151.237C240.356 149.827 238.514 148.97 235.839 148.97H222.619C222.619 148.758 222.619 148.528 222.619 148.316V117.734H258.976C266.141 117.734 271.966 111.637 271.966 104.149V14.1501C272 6.68696 266.175 0.59082 259.009 0.59082ZM270.981 104.174C270.981 111.111 265.607 116.749 259.009 116.749H194.975C188.369 116.749 182.994 111.111 182.994 104.174V14.1755C182.994 7.23884 188.369 1.60118 194.975 1.60118H259.009C265.607 1.60118 270.981 7.23884 270.981 14.1755V104.174ZM238.488 155.711C235.236 159.192 228.614 162.02 223.723 162.02H24.6221C19.7232 162.02 13.1006 159.192 9.84876 155.711C8.42237 154.183 7.86199 152.723 8.3035 151.704C8.745 150.685 10.2903 150.048 12.4978 150.048H235.797C238.004 150.048 239.541 150.651 240.042 151.704C240.543 152.757 239.914 154.149 238.488 155.677V155.711ZM27.4325 148.342V135.215H35.9229V148.995H27.4325C27.4325 148.749 27.4325 148.554 27.4325 148.342ZM1.01869 48.8335C1.01869 45.9808 3.62526 43.6629 6.82616 43.6629H44.3624C47.5548 43.6629 50.1614 45.9808 50.1614 48.8335V129.026C50.1614 131.879 47.5548 134.197 44.3624 134.197H6.82616C3.62526 134.197 1.01869 131.879 1.01869 129.026V48.8335ZM35.9909 17.8434H181.959V27.8452H39.9389C38.8646 27.8674 37.8419 28.3104 37.0909 29.0789C36.3399 29.8474 35.9205 30.88 35.9229 31.9545V42.6185H27.4325V26.7499C27.396 24.4367 28.2749 22.2027 29.8779 20.5345C31.4809 18.8664 33.678 17.8991 35.9909 17.8434ZM36.9673 148.995V135.215H44.3624C48.1237 135.215 51.1548 132.439 51.1548 129.026V48.8335C51.1548 45.4374 48.0982 42.644 44.3624 42.644H36.9673V31.9545C36.9602 31.1532 37.2673 30.3809 37.8228 29.8032C38.3783 29.2256 39.1379 28.8884 39.9389 28.864H181.959V104.14C181.959 111.637 187.792 117.725 194.958 117.725H212.049V148.987L36.9673 148.995ZM221.601 148.995H213.11V117.734H221.668V148.342C221.635 148.554 221.618 148.749 221.601 148.995Z" fill="#321951"/>
<path d="M227.332 74.415C226.235 74.4184 225.163 74.7467 224.252 75.3585C223.342 75.9703 222.632 76.8382 222.215 77.8526C221.797 78.8671 221.689 79.9826 221.904 81.0583C222.12 82.1341 222.649 83.122 223.425 83.8972C224.202 84.6724 225.19 85.2002 226.266 85.414C227.342 85.6279 228.458 85.5181 229.472 85.0987C230.485 84.6792 231.352 83.9688 231.963 83.0571C232.573 82.1455 232.9 81.0734 232.901 79.9763C232.897 78.5013 232.308 77.0881 231.265 76.0459C230.221 75.0036 228.807 74.4173 227.332 74.415Z" fill="#00DA9C"/>
<path d="M220.718 79.9769C220.71 81.2868 221.09 82.5697 221.812 83.663C222.534 84.7562 223.564 85.6105 224.771 86.1177C225.979 86.6248 227.31 86.7618 228.596 86.5114C229.882 86.2611 231.064 85.6345 231.994 84.7112C232.923 83.7879 233.557 82.6095 233.816 81.3254C234.074 80.0412 233.946 78.7092 233.447 77.4981C232.947 76.2871 232.1 75.2516 231.011 74.523C229.922 73.7943 228.642 73.4053 227.332 73.4053C225.584 73.403 223.907 74.0933 222.668 75.325C221.428 76.5567 220.727 78.2294 220.718 79.9769ZM227.332 85.5296C226.234 85.5263 225.163 85.1978 224.252 84.5856C223.341 83.9734 222.632 83.105 222.214 82.0901C221.796 81.0752 221.689 79.9592 221.905 78.8832C222.121 77.8072 222.651 76.8194 223.429 76.0445C224.206 75.2697 225.195 74.7425 226.272 74.5296C227.349 74.3167 228.464 74.4277 229.478 74.8485C230.491 75.2692 231.358 75.9809 231.967 76.8937C232.576 77.8065 232.902 78.8794 232.902 79.9769C232.893 81.449 232.302 82.8578 231.259 83.8964C230.216 84.9349 228.804 85.5189 227.332 85.5211V85.5296Z" fill="#321951"/>
<path d="M226.814 68.0218C228.471 68.0191 230.112 68.3525 231.637 69.0019C233.162 69.6513 234.54 70.6032 235.686 71.8C236.204 72.3049 236.894 72.593 237.617 72.6056C238.34 72.6183 239.04 72.3544 239.575 71.868C239.837 71.6207 240.047 71.3236 240.193 70.9941C240.339 70.6646 240.417 70.3094 240.424 69.9491C240.434 69.2244 240.156 68.5253 239.651 68.0048C236.355 64.6043 231.844 62.6507 227.108 62.5727C222.372 62.4947 217.799 64.2987 214.392 67.5888C214.134 67.8373 213.927 68.1347 213.785 68.4638C213.642 68.7928 213.566 69.1469 213.561 69.5055C213.557 69.8641 213.623 70.22 213.757 70.5527C213.891 70.8854 214.09 71.1881 214.341 71.4434C214.858 71.9509 215.55 72.2401 216.274 72.2512C216.998 72.2622 217.698 71.9943 218.23 71.5029C220.53 69.2701 223.609 68.0213 226.814 68.0218Z" fill="#00DA9C"/>
<path d="M237.673 73.6507C238.657 73.651 239.602 73.2666 240.306 72.5797C241.01 71.8928 241.418 70.9578 241.443 69.9743C241.453 69.4803 241.364 68.9892 241.182 68.53C241 68.0707 240.728 67.6525 240.381 67.2998C238.659 65.517 236.601 64.0912 234.327 63.1037C232.053 62.1162 229.607 61.5865 227.128 61.5447C224.649 61.5029 222.186 61.9499 219.88 62.8602C217.574 63.7704 215.47 65.1261 213.687 66.8498C212.974 67.5467 212.566 68.4987 212.554 69.4962C212.542 70.4938 212.927 71.4552 213.624 72.1691C214.321 72.8829 215.273 73.2906 216.27 73.3026C217.268 73.3145 218.229 72.9297 218.943 72.2327C220.011 71.1963 221.273 70.3809 222.656 69.8334C224.04 69.2859 225.518 69.0171 227.006 69.0423C228.494 69.0676 229.962 69.3864 231.326 69.9805C232.691 70.5747 233.924 71.4324 234.956 72.5044C235.308 72.8694 235.73 73.1592 236.197 73.3563C236.664 73.5533 237.166 73.6534 237.673 73.6507ZM214.341 71.4856C214.089 71.2303 213.891 70.9275 213.757 70.5948C213.623 70.2622 213.556 69.9062 213.561 69.5476C213.566 69.189 213.642 68.8349 213.784 68.5059C213.927 68.1769 214.134 67.8795 214.392 67.6309C217.799 64.3409 222.372 62.5369 227.108 62.6149C231.843 62.6929 236.355 64.6465 239.651 68.0469C240.156 68.5675 240.433 69.2665 240.424 69.9913C240.417 70.3515 240.339 70.7068 240.193 71.0362C240.047 71.3657 239.837 71.6628 239.575 71.9101C239.04 72.3965 238.34 72.6604 237.617 72.6478C236.894 72.6352 236.204 72.347 235.686 71.8422C234.562 70.6724 233.217 69.7365 231.73 69.0881C230.243 68.4397 228.642 68.0917 227.02 68.0641C225.398 68.0364 223.786 68.3298 222.277 68.9271C220.769 69.5245 219.393 70.4142 218.23 71.545C217.698 72.0364 216.998 72.3044 216.274 72.2933C215.55 72.2822 214.858 71.993 214.341 71.4856Z" fill="#321951"/>
<path d="M248.414 62.0107C248.419 61.6517 248.354 61.2952 248.221 60.9615C248.089 60.6278 247.891 60.3236 247.641 60.0664C244.97 57.3083 241.779 55.1082 238.251 53.5938C234.723 52.0794 230.93 51.2808 227.091 51.2445C223.252 51.2081 219.444 51.9347 215.888 53.3821C212.332 54.8295 209.1 56.9688 206.377 59.6759C206.122 59.9278 205.92 60.2279 205.781 60.5587C205.643 60.8896 205.572 61.2446 205.572 61.6032C205.572 61.9618 205.643 62.3168 205.781 62.6476C205.92 62.9785 206.122 63.2786 206.377 63.5305C206.902 64.028 207.598 64.3052 208.322 64.3052C209.045 64.3052 209.741 64.028 210.266 63.5305C212.47 61.3366 215.088 59.6027 217.968 58.4298C220.848 57.2569 223.933 56.6683 227.043 56.6984C230.152 56.7284 233.225 57.3764 236.082 58.6047C238.939 59.833 241.523 61.6171 243.684 63.8532C244.2 64.3618 244.891 64.6525 245.615 64.6652C246.339 64.6778 247.04 64.4114 247.573 63.9211C248.094 63.42 248.396 62.7334 248.414 62.0107Z" fill="#00DA9C"/>
<path d="M226.814 50.2599C222.889 50.2527 219 51.0192 215.371 52.5153C211.742 54.0115 208.444 56.2081 205.664 58.9795C205.138 59.5044 204.779 60.1738 204.634 60.9028C204.488 61.6318 204.562 62.3876 204.847 63.0742C205.132 63.7609 205.614 64.3476 206.233 64.7599C206.851 65.1721 207.578 65.3914 208.322 65.3898C209.32 65.3914 210.279 64.9976 210.988 64.2946C213.096 62.1953 215.6 60.5363 218.356 59.4142C221.111 58.2921 224.062 57.7293 227.037 57.7585C230.012 57.7877 232.951 58.4085 235.684 59.5845C238.416 60.7605 240.888 62.4684 242.954 64.6087C243.652 65.3198 244.601 65.7281 245.597 65.7455C246.593 65.763 247.556 65.3883 248.278 64.7021C248.634 64.361 248.92 63.9526 249.118 63.5006C249.315 63.0485 249.422 62.5617 249.431 62.0683C249.439 61.5749 249.35 61.0847 249.168 60.6259C248.986 60.1672 248.715 59.749 248.371 59.3956C245.58 56.4975 242.231 54.1941 238.526 52.6241C234.822 51.0541 230.837 50.2499 226.814 50.2599ZM243.684 63.8446C241.523 61.6085 238.939 59.8244 236.082 58.5961C233.225 57.3678 230.152 56.7198 227.043 56.6898C223.933 56.6598 220.848 57.2483 217.968 58.4212C215.088 59.5941 212.47 61.328 210.266 63.5219C209.741 64.0194 209.045 64.2966 208.322 64.2966C207.598 64.2966 206.902 64.0194 206.377 63.5219C206.122 63.27 205.92 62.9699 205.781 62.6391C205.643 62.3082 205.572 61.9532 205.572 61.5946C205.572 61.236 205.643 60.881 205.781 60.5502C205.92 60.2193 206.122 59.9192 206.377 59.6673C209.1 56.9602 212.332 54.8209 215.888 53.3735C219.444 51.9262 223.252 51.1995 227.091 51.2359C230.93 51.2722 234.723 52.0708 238.251 53.5852C241.779 55.0996 244.97 57.2998 247.641 60.0578C247.892 60.315 248.089 60.6193 248.222 60.9533C248.355 61.2873 248.42 61.6443 248.413 62.0036C248.407 62.3629 248.329 62.7174 248.185 63.0465C248.041 63.3756 247.833 63.6728 247.573 63.921C247.039 64.4102 246.337 64.6751 245.613 64.6609C244.889 64.6466 244.199 64.3543 243.684 63.8446Z" fill="#321951"/>
<path d="M256.42 54.0551C256.429 53.6964 256.366 53.3395 256.235 53.0056C256.104 52.6716 255.907 52.3673 255.656 52.1108C251.946 48.2763 247.508 45.2202 242.603 43.1211C237.697 41.022 232.422 39.9221 227.087 39.8857C221.751 39.8493 216.462 40.8772 211.529 42.9093C206.595 44.9413 202.116 47.9367 198.354 51.7203C198.099 51.9722 197.896 52.2723 197.758 52.6032C197.62 52.934 197.548 53.289 197.548 53.6476C197.548 54.0062 197.62 54.3612 197.758 54.692C197.896 55.0229 198.099 55.323 198.354 55.5749C198.878 56.0743 199.574 56.3528 200.298 56.3528C201.022 56.3528 201.718 56.0743 202.242 55.5749C205.486 52.3078 209.349 49.7209 213.605 47.9657C217.861 46.2104 222.424 45.3222 227.028 45.3531C231.631 45.3839 236.183 46.3332 240.415 48.1453C244.647 49.9573 248.474 52.5958 251.674 55.9061C252.192 56.4133 252.884 56.703 253.609 56.7157C254.334 56.7283 255.036 56.4629 255.571 55.974C255.835 55.7285 256.047 55.4318 256.193 55.1019C256.339 54.772 256.416 54.4159 256.42 54.0551Z" fill="#00DA9C"/>
<path d="M226.814 38.8653C221.389 38.8556 216.016 39.9231 211.006 42.0058C205.997 44.0885 201.451 47.1451 197.632 50.9982C197.11 51.5249 196.757 52.1944 196.615 52.9221C196.473 53.6498 196.551 54.4031 196.837 55.087C197.123 55.7709 197.605 56.3547 198.223 56.7649C198.84 57.175 199.565 57.393 200.307 57.3915C200.804 57.392 201.296 57.294 201.755 57.1031C202.214 56.9122 202.631 56.6322 202.981 56.2792C206.13 53.1094 209.88 50.5999 214.012 48.8975C218.143 47.1951 222.572 46.3341 227.04 46.3649C231.508 46.3958 235.926 47.3178 240.033 49.0771C244.14 50.8363 247.855 53.3974 250.961 56.6104C251.657 57.326 252.609 57.7373 253.607 57.7548C254.606 57.7723 255.571 57.3945 256.293 56.7037C256.647 56.3615 256.931 55.9527 257.127 55.5007C257.324 55.0488 257.43 54.5626 257.438 54.0698C257.447 53.5771 257.359 53.0874 257.178 52.6289C256.997 52.1703 256.728 51.7518 256.386 51.3972C252.555 47.4236 247.961 44.2652 242.879 42.1117C237.798 39.9581 232.333 38.8539 226.814 38.8653ZM251.691 55.8972C248.491 52.5869 244.663 49.9484 240.431 48.1364C236.199 46.3243 231.648 45.375 227.045 45.3442C222.441 45.3133 217.878 46.2015 213.622 47.9568C209.366 49.712 205.503 52.2989 202.259 55.566C201.735 56.0654 201.039 56.3439 200.315 56.3439C199.591 56.3439 198.895 56.0654 198.371 55.566C198.116 55.3141 197.913 55.014 197.775 54.6831C197.636 54.3523 197.565 53.9973 197.565 53.6387C197.565 53.2801 197.636 52.9251 197.775 52.5942C197.913 52.2634 198.116 51.9633 198.371 51.7114C202.133 47.9278 206.612 44.9324 211.545 42.9004C216.479 40.8683 221.768 39.8404 227.104 39.8768C232.439 39.9132 237.714 41.0131 242.619 43.1122C247.525 45.2113 251.962 48.2674 255.673 52.1019C255.921 52.3594 256.117 52.6634 256.248 52.9966C256.379 53.3297 256.444 53.6854 256.437 54.0433C256.431 54.4013 256.354 54.7545 256.211 55.0828C256.069 55.4111 255.862 55.708 255.605 55.9566C255.07 56.4516 254.365 56.7216 253.636 56.7105C252.907 56.6995 252.21 56.4082 251.691 55.8972Z" fill="#321951"/>
<path d="M224.598 7.34026C225.028 7.33858 225.447 7.20968 225.803 6.96983C226.16 6.72998 226.437 6.38993 226.6 5.99262C226.763 5.59531 226.805 5.15855 226.72 4.73748C226.635 4.31642 226.428 3.92992 226.124 3.62679C225.819 3.32366 225.432 3.11749 225.01 3.03431C224.589 2.95113 224.153 2.99467 223.756 3.15943C223.359 3.32418 223.02 3.60277 222.782 3.96003C222.543 4.31728 222.416 4.73718 222.416 5.1667C222.418 5.74394 222.649 6.29678 223.058 6.70416C223.467 7.11153 224.021 7.34026 224.598 7.34026Z" fill="#321951"/>
<path d="M230.354 6.42333C230.603 6.42333 230.846 6.34963 231.052 6.21156C231.259 6.07348 231.42 5.87723 231.515 5.64762C231.61 5.41801 231.635 5.16535 231.587 4.92159C231.538 4.67784 231.419 4.45394 231.243 4.2782C231.067 4.10247 230.843 3.98279 230.599 3.9343C230.356 3.88582 230.103 3.9107 229.873 4.00581C229.644 4.10092 229.448 4.26198 229.309 4.46862C229.171 4.67527 229.098 4.91821 229.098 5.16674C229.098 5.33176 229.13 5.49516 229.193 5.64762C229.256 5.80007 229.349 5.9386 229.466 6.05528C229.582 6.17197 229.721 6.26453 229.873 6.32768C230.026 6.39083 230.189 6.42333 230.354 6.42333Z" fill="#321951"/>
<path d="M244.83 105.168H209.128C209.061 105.168 208.995 105.181 208.933 105.207C208.871 105.232 208.815 105.27 208.768 105.317C208.721 105.364 208.683 105.421 208.657 105.482C208.632 105.544 208.619 105.611 208.619 105.677C208.619 105.744 208.632 105.811 208.657 105.872C208.683 105.934 208.721 105.99 208.768 106.038C208.815 106.085 208.871 106.122 208.933 106.148C208.995 106.174 209.061 106.187 209.128 106.187H244.788C244.855 106.187 244.921 106.174 244.983 106.148C245.045 106.122 245.101 106.085 245.148 106.038C245.195 105.99 245.233 105.934 245.259 105.872C245.284 105.811 245.297 105.744 245.297 105.677C245.297 105.611 245.284 105.544 245.259 105.482C245.233 105.421 245.195 105.364 245.148 105.317C245.101 105.27 245.045 105.232 244.983 105.207C244.921 105.181 244.855 105.168 244.788 105.168H244.83Z" fill="#321951"/>
<path d="M215.921 15.3724H238.149C238.284 15.3724 238.413 15.3187 238.509 15.2232C238.604 15.1276 238.658 14.9981 238.658 14.8629C238.658 14.7278 238.604 14.5983 238.509 14.5027C238.413 14.4072 238.284 14.3535 238.149 14.3535H215.921C215.785 14.3535 215.656 14.4072 215.56 14.5027C215.465 14.5983 215.411 14.7278 215.411 14.8629C215.411 14.9981 215.465 15.1276 215.56 15.2232C215.656 15.3187 215.785 15.3724 215.921 15.3724Z" fill="#321951"/>
<path d="M224.7 11.5693C224.565 11.5693 224.435 11.623 224.34 11.7185C224.244 11.8141 224.19 11.9437 224.19 12.0788C224.19 12.2139 224.244 12.3434 224.34 12.439C224.435 12.5345 224.565 12.5882 224.7 12.5882H229.276C229.343 12.5893 229.41 12.5769 229.473 12.5518C229.535 12.5266 229.591 12.4891 229.639 12.4415C229.687 12.394 229.724 12.3374 229.749 12.2751C229.774 12.2127 229.787 12.146 229.786 12.0788C229.786 12.0119 229.772 11.9456 229.747 11.8838C229.721 11.822 229.684 11.7658 229.636 11.7185C229.589 11.6712 229.533 11.6337 229.471 11.6081C229.409 11.5825 229.343 11.5693 229.276 11.5693H224.7Z" fill="#321951"/>
<path d="M233.046 108.717H220.939C220.804 108.717 220.674 108.77 220.578 108.866C220.483 108.962 220.429 109.091 220.429 109.226C220.429 109.361 220.483 109.491 220.578 109.586C220.674 109.682 220.804 109.736 220.939 109.736H233.046C233.181 109.736 233.311 109.682 233.406 109.586C233.502 109.491 233.555 109.361 233.555 109.226C233.555 109.091 233.502 108.962 233.406 108.866C233.311 108.77 233.181 108.717 233.046 108.717Z" fill="#321951"/>
</g>
<defs>
<clipPath id="clip0_2051_121214">
<rect width="272" height="162.422" fill="white" transform="translate(0 0.59082)"/>
</clipPath>
</defs>
</svg>
