<svg width="271" height="162" viewBox="0 0 271 162" fill="none" xmlns="http://www.w3.org/2000/svg">
<path d="M221.26 148.527C221.304 148.142 221.327 147.755 221.327 147.367V26.0916C221.361 23.6431 220.426 21.2808 218.725 19.5209C217.024 17.7611 214.696 16.747 212.251 16.7002H35.8586C33.4173 16.7601 31.0973 17.7784 29.3993 19.5353C27.7012 21.2922 26.7611 23.647 26.7818 26.0916V147.367C26.7811 147.755 26.8065 148.143 26.858 148.527" fill="#8B6FE2"/>
<path d="M221.26 148.527C221.304 148.142 221.327 147.755 221.327 147.367V26.0916C221.361 23.6431 220.426 21.2808 218.725 19.5209C217.024 17.7611 214.696 16.747 212.251 16.7002H35.8586C33.4173 16.7601 31.0973 17.7784 29.3993 19.5353C27.7012 21.2922 26.7611 23.647 26.7818 26.0916V147.367C26.7811 147.755 26.8065 148.143 26.858 148.527" stroke="#321951" stroke-width="1.2" stroke-linecap="round" stroke-linejoin="round"/>
<path d="M36.3492 148.528C36.3416 148.381 36.3416 148.234 36.3492 148.087V31.283C36.3466 30.3502 36.7075 29.4533 37.3551 28.7827C38.0028 28.1122 38.8862 27.721 39.8175 27.6924H208.359C209.292 27.7189 210.178 28.1091 210.827 28.7799C211.477 29.4506 211.839 30.3488 211.836 31.283V148.087" fill="#F1E6FF"/>
<path d="M36.3492 148.528C36.3416 148.381 36.3416 148.234 36.3492 148.087V31.283C36.3466 30.3502 36.7075 29.4533 37.3551 28.7827C38.0028 28.1122 38.8862 27.721 39.8175 27.6924H208.359C209.292 27.7189 210.178 28.1091 210.827 28.7799C211.477 29.4506 211.839 30.3488 211.836 31.283V148.087" stroke="#321951" stroke-width="1.2" stroke-linecap="round" stroke-linejoin="round"/>
<path d="M134.671 120.116C134.664 122.104 134.07 124.045 132.962 125.695C131.854 127.345 130.282 128.629 128.446 129.385C126.61 130.142 124.59 130.337 122.643 129.946C120.696 129.554 118.909 128.594 117.507 127.187C116.104 125.779 115.15 123.987 114.764 122.037C114.378 120.087 114.577 118.067 115.338 116.23C116.098 114.394 117.385 112.824 119.036 111.719C120.686 110.614 122.627 110.023 124.613 110.021C127.284 110.026 129.843 111.092 131.729 112.985C133.615 114.877 134.673 117.442 134.671 120.116Z" fill="#00DA9C" stroke="#321951" stroke-width="1.2" stroke-linecap="round" stroke-linejoin="round"/>
<path d="M118.692 124.248C118.145 123.457 117.761 122.566 117.561 121.626C117.361 120.685 117.349 119.715 117.526 118.77C117.703 117.825 118.065 116.924 118.592 116.12C119.119 115.316 119.799 114.625 120.595 114.086" stroke="#321951" stroke-width="1.2" stroke-linecap="round" stroke-linejoin="round"/>
<path d="M131.846 120.472C131.759 122.331 130.962 124.086 129.621 125.375" stroke="#321951" stroke-width="1.2" stroke-linecap="round" stroke-linejoin="round"/>
<path d="M141.633 108.759C142.689 108.759 143.722 108.447 144.602 107.863C145.482 107.279 146.172 106.449 146.584 105.475C146.996 104.502 147.113 103.429 146.92 102.389C146.727 101.35 146.233 100.39 145.499 99.6303C142.753 96.7488 139.463 94.442 135.82 92.8437C132.176 91.2455 128.252 90.3875 124.275 90.3198C120.297 90.252 116.346 90.9758 112.65 92.4491C108.955 93.9223 105.588 96.1157 102.746 98.902C101.728 99.9009 101.144 101.262 101.122 102.688C101.1 104.115 101.641 105.493 102.628 106.524C103.118 107.035 103.705 107.443 104.355 107.726C105.004 108.008 105.703 108.159 106.411 108.169C107.119 108.18 107.822 108.049 108.48 107.786C109.137 107.522 109.736 107.13 110.241 106.634C112.071 104.834 114.241 103.416 116.624 102.464C119.007 101.512 121.555 101.045 124.12 101.089C126.686 101.133 129.216 101.688 131.565 102.721C133.914 103.755 136.034 105.246 137.801 107.108C138.296 107.627 138.891 108.04 139.549 108.324C140.208 108.608 140.916 108.756 141.633 108.759Z" fill="#00DA9C" stroke="#321951" stroke-width="1.2" stroke-linecap="round" stroke-linejoin="round"/>
<path d="M154.787 95.5493C156.179 95.5522 157.518 95.0115 158.518 94.0419C159.538 93.0453 160.125 91.686 160.15 90.259C160.175 88.8321 159.637 87.4527 158.653 86.4204C154.205 81.7532 148.867 78.026 142.955 75.459C137.043 72.892 130.678 71.5373 124.234 71.4749C117.79 71.4125 111.4 72.6438 105.439 75.0959C99.4791 77.548 94.0703 81.1712 89.5326 85.7514C89.0327 86.2518 88.6361 86.8459 88.3656 87.4998C88.0951 88.1536 87.9558 88.8544 87.9558 89.5622C87.9558 90.2699 88.0951 90.9707 88.3656 91.6245C88.6361 92.2784 89.0327 92.8725 89.5326 93.3729C90.0325 93.8734 90.6259 94.2703 91.2791 94.5412C91.9322 94.812 92.6323 94.9514 93.3392 94.9514C94.0462 94.9514 94.7462 94.812 95.3994 94.5412C96.0525 94.2703 96.646 93.8734 97.1459 93.3729C100.677 89.8035 104.887 86.9798 109.528 85.0691C114.169 83.1583 119.145 82.1994 124.163 82.2492C129.181 82.2989 134.138 83.3563 138.74 85.3587C143.342 87.3611 147.496 90.2677 150.955 93.9064C151.452 94.4229 152.047 94.8343 152.705 95.1165C153.363 95.3987 154.071 95.5459 154.787 95.5493Z" fill="#00DA9C" stroke="#321951" stroke-width="1.2" stroke-linecap="round" stroke-linejoin="round"/>
<path d="M134.316 75.3349C125.733 72.9161 116.58 73.5414 108.405 77.1048" stroke="#321951" stroke-width="1.2" stroke-miterlimit="10" stroke-linecap="round"/>
<path d="M118.023 76.5029C116.177 76.7805 114.353 77.1938 112.567 77.7393" stroke="#321951" stroke-width="1.2" stroke-miterlimit="10" stroke-linecap="round"/>
<path d="M167.975 82.3041C169.369 82.3075 170.708 81.7632 171.706 80.7883C172.73 79.7939 173.319 78.4338 173.345 77.0055C173.37 75.5772 172.829 74.197 171.841 73.1668C165.69 66.7112 158.304 61.5604 150.124 58.0209C141.944 54.4815 133.136 52.6257 124.224 52.5641C115.313 52.5025 106.48 54.2362 98.2514 57.6622C90.023 61.0882 82.5672 66.1363 76.3277 72.5062C75.3235 73.5197 74.76 74.8895 74.76 76.317C74.76 77.7445 75.3235 79.1142 76.3277 80.1278C76.8257 80.6316 77.4185 81.0317 78.0719 81.3047C78.7253 81.5777 79.4263 81.7183 80.1344 81.7183C80.8424 81.7183 81.5434 81.5777 82.1968 81.3047C82.8502 81.0317 83.4431 80.6316 83.941 80.1278C89.1772 74.7784 95.4353 70.5388 102.343 67.6613C109.25 64.7838 116.665 63.3274 124.146 63.3787C131.627 63.4301 139.022 64.9882 145.889 67.9603C152.756 70.9323 158.955 75.2575 164.118 80.6782C164.618 81.1958 165.217 81.6067 165.88 81.8861C166.543 82.1655 167.256 82.3077 167.975 82.3041Z" fill="#00DA9C" stroke="#321951" stroke-width="1.2" stroke-linecap="round" stroke-linejoin="round"/>
<path d="M152.841 65.1983C151.242 64.3515 149.627 63.5046 147.969 62.8018" stroke="#321951" stroke-width="1.2" stroke-linecap="round" stroke-linejoin="round"/>
<path d="M164.896 70.7111C159.719 66.3608 153.911 62.823 147.673 60.2188" stroke="#321951" stroke-width="1.2" stroke-linecap="round" stroke-linejoin="round"/>
<path d="M222.842 161.484C227.833 161.484 234.684 158.605 237.984 155.031C241.283 151.457 239.963 148.527 234.972 148.527H12.4943C7.50332 148.527 6.14984 151.449 9.48278 155.031C12.8157 158.613 19.6339 161.509 24.6248 161.484H222.842Z" fill="#8B6FE2" stroke="#321951" stroke-width="1.2" stroke-linecap="round" stroke-linejoin="round"/>
<path d="M125.823 22.0606C125.811 22.4079 125.697 22.7441 125.496 23.0272C125.295 23.3104 125.015 23.528 124.691 23.6529C124.367 23.7778 124.014 23.8045 123.675 23.7297C123.336 23.6548 123.026 23.4818 122.785 23.2321C122.544 22.9823 122.381 22.667 122.317 22.3254C122.254 21.9838 122.292 21.631 122.428 21.311C122.563 20.9911 122.789 20.7181 123.079 20.5261C123.368 20.3341 123.707 20.2316 124.055 20.2314C124.531 20.2404 124.984 20.4378 125.316 20.7806C125.647 21.1234 125.829 21.5837 125.823 22.0606Z" fill="#321951" stroke="#321951" stroke-width="1.2" stroke-linecap="round" stroke-linejoin="round"/>
<path d="M161.867 35.5918H86.2417" stroke="#321951" stroke-width="1.2" stroke-linecap="round" stroke-linejoin="round"/>
<path d="M205.086 157.089H98.364" stroke="#321951" stroke-width="1.2" stroke-linecap="round" stroke-linejoin="round"/>
<path d="M80.955 154.43H42.3386" stroke="#321951" stroke-width="1.2" stroke-linecap="round" stroke-linejoin="round"/>
<path d="M69.0272 157.682H59.426" stroke="#321951" stroke-width="1.2" stroke-linecap="round" stroke-linejoin="round"/>
<path d="M50.4847 128.101C50.4847 131.218 47.6509 133.767 44.1995 133.767H6.80124C3.34141 133.767 0.507568 131.226 0.507568 128.101V48.1175C0.507568 45.0011 3.34141 42.4521 6.80124 42.4521H44.1995C47.6509 42.4521 50.4847 44.9927 50.4847 48.1175V128.101Z" fill="#F1E6FF"/>
<path d="M50.4847 128.101C50.4847 131.218 47.6509 133.767 44.1995 133.767H6.80124C3.34141 133.767 0.507568 131.226 0.507568 128.101V48.1175C0.507568 45.0011 3.34141 42.4521 6.80124 42.4521H44.1995C47.6509 42.4521 50.4847 44.9927 50.4847 48.1175V128.101Z" stroke="#321951" stroke-width="1.2" stroke-linecap="round" stroke-linejoin="round"/>
<path d="M11.2002 42.4515C11.4847 42.4376 11.7632 42.5365 11.9753 42.7267C12.1875 42.9169 12.3163 43.1831 12.3337 43.4677V44.3145C12.3665 44.874 12.6186 45.3978 13.0353 45.7721C13.4519 46.1464 13.9994 46.3408 14.5585 46.3131H36.4256C36.9853 46.3431 37.534 46.1495 37.9512 45.7747C38.3683 45.4 38.6198 44.8748 38.6504 44.3145V43.4677C38.6679 43.1831 38.7966 42.9169 39.0088 42.7267C39.221 42.5365 39.4995 42.4376 39.784 42.4515H11.2002Z" fill="#321951" stroke="#321951" stroke-width="1.2" stroke-linecap="round" stroke-linejoin="round"/>
<path d="M13.9324 130.887H37.043" stroke="#321951" stroke-width="1.2" stroke-linecap="round" stroke-linejoin="round"/>
<path d="M30.0811 127.313H33.9808" stroke="#321951" stroke-width="1.2" stroke-linecap="round" stroke-linejoin="round"/>
<path d="M20.6152 127.313H26.7397" stroke="#321951" stroke-width="1.2" stroke-linecap="round" stroke-linejoin="round"/>
<path d="M13.9324 49.9297H36.1379" stroke="#321951" stroke-width="1.2" stroke-linecap="round" stroke-linejoin="round"/>
<path d="M22.1631 53.4268H27.9069" stroke="#321951" stroke-width="1.2" stroke-linecap="round" stroke-linejoin="round"/>
<path d="M30.0049 101.807C30.0472 102.663 29.832 103.511 29.3872 104.243C28.9424 104.974 28.2884 105.555 27.5099 105.91C26.7315 106.266 25.8644 106.379 25.0211 106.235C24.1777 106.091 23.3969 105.697 22.7798 105.104C22.1626 104.511 21.7376 103.746 21.5597 102.908C21.3818 102.071 21.4592 101.199 21.782 100.406C22.1047 99.6125 22.6579 98.9347 23.3699 98.4599C24.0819 97.9851 24.9198 97.7352 25.7753 97.7426C26.8728 97.7266 27.9323 98.1444 28.7241 98.9054C29.5159 99.6663 29.9761 100.709 30.0049 101.807Z" fill="#00DA9C" stroke="#321951" stroke-width="1.2" stroke-linecap="round" stroke-linejoin="round"/>
<path d="M32.9657 97.2253C33.5489 97.2267 34.1122 97.0126 34.5476 96.6241C34.7572 96.4312 34.9256 96.1978 35.0426 95.938C35.1596 95.6782 35.2227 95.3974 35.2283 95.1124C35.2338 94.8275 35.1816 94.5444 35.0748 94.2802C34.9679 94.016 34.8087 93.7763 34.6068 93.5754C32.1882 91.2167 28.9607 89.8723 25.5846 89.8172C22.2085 89.7621 18.9389 91.0005 16.4448 93.279C16.2307 93.4721 16.0586 93.7072 15.9392 93.9697C15.8198 94.2322 15.7558 94.5166 15.751 94.805C15.7463 95.0934 15.8009 95.3797 15.9115 95.646C16.0222 95.9124 16.1864 96.1531 16.394 96.3531C16.8248 96.7697 17.3982 97.0061 17.9971 97.0139C18.5961 97.0218 19.1754 96.8006 19.617 96.3954C21.2235 94.9236 23.3321 94.1236 25.5095 94.1598C27.6869 94.1961 29.7678 95.0657 31.3246 96.5902C31.7675 97.0088 32.3567 97.2368 32.9657 97.2253Z" fill="#00DA9C" stroke="#321951" stroke-width="1.2" stroke-linecap="round" stroke-linejoin="round"/>
<path d="M38.5574 91.8815C39.1424 91.8838 39.7069 91.6662 40.1393 91.2718C40.3528 91.0787 40.5246 90.8438 40.644 90.5817C40.7634 90.3195 40.8278 90.0357 40.8334 89.7476C40.8389 89.4596 40.7855 89.1734 40.6763 88.9069C40.5671 88.6403 40.4045 88.399 40.1985 88.1978C36.2782 84.3781 31.0379 82.2184 25.5675 82.1679C20.0972 82.1174 14.818 84.1801 10.828 87.9268C10.6181 88.1247 10.4508 88.3635 10.3364 88.6286C10.2221 88.8936 10.1631 89.1793 10.1631 89.468C10.1631 89.7567 10.2221 90.0424 10.3364 90.3074C10.4508 90.5725 10.6181 90.8113 10.828 91.0093C11.2652 91.4182 11.8412 91.6458 12.4395 91.6458C13.0378 91.6458 13.6138 91.4182 14.051 91.0093C17.1546 88.0973 21.2598 86.4944 25.5133 86.5338C29.7669 86.5733 33.8417 88.2519 36.8909 91.221C37.1113 91.4359 37.372 91.605 37.6581 91.7184C37.9441 91.8317 38.2498 91.8872 38.5574 91.8815Z" fill="#00DA9C" stroke="#321951" stroke-width="1.2" stroke-linecap="round" stroke-linejoin="round"/>
<path d="M44.1574 86.5642C44.7448 86.5662 45.3119 86.3488 45.7477 85.9545C45.9599 85.7594 46.1302 85.5231 46.2482 85.26C46.3662 84.9969 46.4296 84.7125 46.4343 84.4242C46.439 84.1358 46.3851 83.8495 46.2758 83.5826C46.1665 83.3158 46.0041 83.074 45.7985 82.872C40.3735 77.5888 33.1174 74.6111 25.5491 74.5621C17.9807 74.5132 10.6868 77.3969 5.19414 82.6095C4.9833 82.806 4.81516 83.0439 4.70019 83.3084C4.58521 83.5728 4.52588 83.8581 4.52588 84.1465C4.52588 84.4349 4.58521 84.7202 4.70019 84.9847C4.81516 85.2491 4.9833 85.487 5.19414 85.6835C5.63129 86.0925 6.20729 86.32 6.80562 86.32C7.40396 86.32 7.97996 86.0925 8.41711 85.6835C13.0232 81.3064 19.1433 78.8845 25.4941 78.9256C31.8448 78.9666 37.9331 81.4674 42.4824 85.9037C42.7046 86.1185 42.9669 86.2874 43.2543 86.4008C43.5417 86.5141 43.8485 86.5696 44.1574 86.5642Z" fill="#00DA9C" stroke="#321951" stroke-width="1.2" stroke-linecap="round" stroke-linejoin="round"/>
<path d="M138.968 39.6406H108.278" stroke="#321951" stroke-width="1.2" stroke-linecap="round" stroke-linejoin="round"/>
<path d="M258.057 116.33C264.909 116.33 270.492 110.478 270.492 103.28V13.5156C270.492 6.31747 264.909 0.46582 258.057 0.46582H194.258C187.397 0.46582 181.814 6.31747 181.814 13.5156V103.28C181.814 110.478 187.397 116.33 194.258 116.33H258.057Z" fill="#F1E6FF" stroke="#321951" stroke-width="1.2" stroke-linecap="round" stroke-linejoin="round"/>
<path d="M232.587 79.1793C232.597 80.3873 232.248 81.5711 231.585 82.5804C230.922 83.5898 229.974 84.3792 228.862 84.8485C227.75 85.3178 226.524 85.4458 225.339 85.2163C224.154 84.9868 223.064 84.4101 222.207 83.5595C221.351 82.7088 220.765 81.6225 220.526 80.4384C220.287 79.2543 220.405 78.0257 220.864 76.9087C221.324 75.7916 222.104 74.8363 223.107 74.164C224.11 73.4918 225.289 73.1329 226.496 73.1328C228.104 73.1283 229.648 73.7623 230.79 74.8957C231.931 76.0292 232.578 77.5696 232.587 79.1793Z" fill="#00DA9C" stroke="#321951" stroke-width="1.2" stroke-linecap="round" stroke-linejoin="round"/>
<path d="M236.799 72.4044C237.432 72.4042 238.051 72.218 238.579 71.8689C239.107 71.5197 239.521 71.023 239.77 70.4404C240.019 69.8578 240.091 69.2149 239.978 68.5915C239.865 67.9681 239.571 67.3917 239.134 66.9338C235.759 63.4427 231.137 61.4361 226.285 61.3551C221.433 61.2741 216.747 63.1254 213.257 66.5019C212.951 66.7959 212.706 67.1477 212.537 67.537C212.368 67.9264 212.278 68.3454 212.271 68.77C212.265 69.1945 212.343 69.6161 212.501 70.0103C212.658 70.4044 212.892 70.7634 213.19 71.0663C213.792 71.681 214.612 72.0329 215.472 72.0456C216.332 72.0583 217.163 71.7307 217.783 71.1341C218.894 70.0535 220.208 69.2033 221.649 68.6323C223.089 68.0614 224.628 67.7808 226.177 67.8068C227.727 67.8327 229.255 68.1647 230.676 68.7837C232.097 69.4026 233.381 70.2963 234.456 71.4136C234.76 71.7276 235.124 71.9772 235.527 72.1474C235.93 72.3177 236.362 72.405 236.799 72.4044Z" fill="#00DA9C" stroke="#321951" stroke-width="1.2" stroke-linecap="round" stroke-linejoin="round"/>
<path d="M244.734 64.4441C245.37 64.4496 245.994 64.2663 246.527 63.9174C247.059 63.5686 247.476 63.0697 247.726 62.4838C247.976 61.8978 248.047 61.251 247.93 60.6248C247.813 59.9987 247.513 59.4212 247.069 58.9651C244.361 56.1673 241.125 53.9355 237.549 52.3993C233.973 50.8631 230.128 50.053 226.236 50.016C222.345 49.979 218.485 50.7157 214.881 52.1836C211.276 53.6515 207.998 55.8213 205.238 58.5671C204.936 58.8663 204.697 59.2224 204.533 59.6149C204.37 60.0073 204.285 60.4283 204.285 60.8536C204.285 61.2788 204.37 61.6998 204.533 62.0922C204.697 62.4847 204.936 62.8408 205.238 63.14C205.849 63.7456 206.675 64.0853 207.535 64.0853C208.395 64.0853 209.22 63.7456 209.831 63.14C211.978 60.996 214.53 59.3015 217.338 58.1553C220.147 57.0092 223.155 56.4343 226.187 56.4642C229.219 56.4942 232.215 57.1284 235 58.3298C237.785 59.5312 240.304 61.2758 242.408 63.4618C242.711 63.7723 243.073 64.0191 243.472 64.1878C243.872 64.3565 244.301 64.4437 244.734 64.4441Z" fill="#00DA9C" stroke="#321951" stroke-width="1.2" stroke-linecap="round" stroke-linejoin="round"/>
<path d="M252.745 56.5097C253.38 56.5111 254.001 56.3255 254.53 55.9759C255.06 55.6264 255.476 55.1284 255.725 54.5441C255.974 53.9597 256.045 53.315 255.931 52.6901C255.816 52.0653 255.52 51.4882 255.08 51.0306C251.336 47.1575 246.858 44.0706 241.908 41.9505C236.958 39.8305 231.636 38.7198 226.252 38.6835C220.868 38.6473 215.531 39.6861 210.553 41.7393C205.576 43.7924 201.057 46.8187 197.261 50.6411C196.959 50.9396 196.72 51.295 196.557 51.6867C196.393 52.0785 196.309 52.4988 196.309 52.9233C196.309 53.3478 196.393 53.7681 196.557 54.1599C196.72 54.5516 196.959 54.907 197.261 55.2055C197.873 55.8091 198.698 56.1474 199.558 56.1474C200.417 56.1474 201.242 55.8091 201.854 55.2055C205.039 51.9956 208.831 49.454 213.008 47.7298C217.186 46.0055 221.666 45.1332 226.185 45.164C230.704 45.1947 235.171 46.1279 239.325 47.9089C243.479 49.6899 247.236 52.2828 250.376 55.5358C250.685 55.8499 251.054 56.0982 251.461 56.2655C251.868 56.4329 252.305 56.516 252.745 56.5097Z" fill="#00DA9C" stroke="#321951" stroke-width="1.2" stroke-linecap="round" stroke-linejoin="round"/>
<path d="M222.106 4.56477C222.106 4.89975 222.205 5.2272 222.391 5.50573C222.577 5.78425 222.841 6.00133 223.15 6.12952C223.459 6.25771 223.799 6.29125 224.128 6.2259C224.456 6.16055 224.757 5.99925 224.994 5.76238C225.231 5.52552 225.392 5.22373 225.457 4.89519C225.522 4.56665 225.489 4.22611 225.361 3.91663C225.233 3.60715 225.016 3.34263 224.738 3.15653C224.459 2.97043 224.132 2.87109 223.798 2.87109C223.349 2.87109 222.919 3.04954 222.601 3.36716C222.284 3.68479 222.106 4.11558 222.106 4.56477Z" fill="#321951" stroke="#321951" stroke-width="1.2" stroke-linecap="round" stroke-linejoin="round"/>
<path d="M228.721 4.56405C228.723 4.70921 228.767 4.85066 228.848 4.97102C228.929 5.09139 229.044 5.18542 229.177 5.24158C229.311 5.29773 229.458 5.31357 229.601 5.28713C229.743 5.2607 229.875 5.19315 229.98 5.09277C230.085 4.9924 230.158 4.86358 230.191 4.72214C230.223 4.58069 230.214 4.43278 230.164 4.29657C230.114 4.16036 230.025 4.04179 229.908 3.95541C229.792 3.86904 229.652 3.81863 229.508 3.81036C229.405 3.80325 229.303 3.81761 229.206 3.85252C229.11 3.88742 229.022 3.9421 228.948 4.01306C228.874 4.08402 228.815 4.16968 228.776 4.26457C228.737 4.35945 228.718 4.46146 228.721 4.56405Z" fill="#321951" stroke="#321951" stroke-width="1.2" stroke-linecap="round" stroke-linejoin="round"/>
<path d="M243.922 104.812H208.385" stroke="#321951" stroke-width="1.2" stroke-linecap="round" stroke-linejoin="round"/>
<path d="M237.222 14.2354H215.084" stroke="#321951" stroke-width="1.2" stroke-linecap="round" stroke-linejoin="round"/>
<path d="M228.433 11.4658H223.874" stroke="#321951" stroke-width="1.2" stroke-linecap="round" stroke-linejoin="round"/>
<path d="M232.189 108.354H220.118" stroke="#321951" stroke-width="1.2" stroke-linecap="round" stroke-linejoin="round"/>
</svg>
