<svg width="354" height="160" viewBox="0 0 354 160" fill="none" xmlns="http://www.w3.org/2000/svg">
<path d="M258.119 51.5931L258.123 51.5706C260.563 40.1134 270.712 31.5772 282.833 31.5772C294.959 31.5772 305.023 40.1167 307.54 51.5555C307.94 53.3227 308.094 55.1459 308.094 56.9376C308.094 58.1996 307.992 59.4301 307.819 60.6138C307.788 60.8237 307.851 61.0267 307.971 61.1743C308.086 61.3162 308.232 61.3839 308.388 61.3839H337.454C337.724 61.3839 337.891 61.1908 337.904 61.0027C337.998 59.6736 338.033 58.3117 338.033 56.9376C338.033 55.2702 337.961 53.6057 337.818 52.0181L337.817 52.0147C337.125 44.162 334.841 36.785 331.224 30.2636C331.181 30.2652 331.138 30.2661 331.095 30.2661C323.57 30.2661 317.343 24.5949 315.791 17.1052C315.219 17.1623 314.648 17.1838 314.07 17.1838C306.442 17.1838 300.169 11.3828 298.682 3.83776C293.669 2.33956 288.346 1.5 282.833 1.5C254.013 1.5 230.3 23.7139 227.849 52.0122L258.119 51.5931ZM258.119 51.5931L258.114 51.6158M258.119 51.5931L258.114 51.6158M258.114 51.6158C257.81 53.2969 257.573 55.1037 257.573 56.9376C257.573 58.1669 257.646 59.3587 257.81 60.537C257.842 60.7664 257.773 60.9937 257.641 61.1581C257.515 61.3152 257.362 61.3839 257.206 61.3839H228.213C227.943 61.3839 227.776 61.1908 227.762 61.0027C227.669 59.6736 227.633 58.3117 227.633 56.9376C227.633 55.2732 227.705 53.6811 227.849 52.0124L258.114 51.6158Z" fill="#FDBB5A" stroke="#422862" stroke-width="3"/>
<mask id="path-2-outside-1_636_58908" maskUnits="userSpaceOnUse" x="0" y="83.0654" width="354" height="77" fill="black">
<rect fill="white" y="83.0654" width="354" height="77"/>
<path d="M28.029 99.2327C25.9185 99.2327 24.1708 99.7853 22.7858 100.891C21.4667 101.996 20.8072 103.589 20.8072 105.67C20.8072 107.751 21.4338 109.441 22.6869 110.742C23.94 111.977 25.5558 112.953 27.5344 113.668C29.5789 114.318 31.8213 114.968 34.2615 115.619C36.7677 116.204 39.241 116.952 41.6812 117.862C44.1215 118.707 46.3309 119.78 48.3095 121.08C50.354 122.381 52.0028 124.234 53.2559 126.64C54.509 128.981 55.1356 131.809 55.1356 135.126C55.1356 140.913 52.7283 145.887 47.9137 150.048C43.1652 154.145 36.8667 156.193 29.0183 156.193C21.2359 156.193 14.9374 154.34 10.1229 150.634C6.13996 147.525 3.82739 143.318 3.18518 138.014C2.97359 136.266 4.42715 134.833 6.18762 134.833H18.0755C19.7319 134.833 21.0461 136.128 21.5432 137.708C22.6586 141.253 25.3152 143.026 29.513 143.026C31.9532 143.026 33.8658 142.408 35.2508 141.173C36.6358 139.872 37.3283 138.247 37.3283 136.296C37.3283 134.345 36.7018 132.752 35.4487 131.517C34.1956 130.281 32.5468 129.306 30.5022 128.591C28.5237 127.875 26.2813 127.225 23.7751 126.64C21.3348 125.99 18.8946 125.209 16.4543 124.299C14.0141 123.389 11.7717 122.316 9.72717 121.08C7.74859 119.78 6.13275 117.959 4.87965 115.619C3.62655 113.213 3 110.384 3 107.133C3 100.761 5.40727 95.6564 10.2218 91.82C15.0364 87.9836 21.17 86.0654 28.6226 86.0654C36.1412 86.0654 42.2088 87.756 46.8255 91.1372C50.7152 93.9312 53.0365 98.1099 53.7895 103.673C54.0302 105.452 52.5658 106.938 50.7711 106.938H38.512C36.8825 106.938 35.5873 105.677 35.0227 104.148C34.5964 102.994 33.9799 102.038 33.1733 101.281C31.8543 99.9154 30.1395 99.2327 28.029 99.2327Z"/>
<path d="M113.747 90.0333C113.747 88.2729 115.174 86.8457 116.935 86.8457H127.476C129.237 86.8457 130.664 88.2729 130.664 90.0333V152.323C130.664 154.083 129.237 155.51 127.476 155.51H115.47C114.395 155.51 113.392 154.968 112.803 154.069L85.4534 112.302V152.323C85.4534 154.083 84.0263 155.51 82.2658 155.51H71.7242C69.9637 155.51 68.5366 154.083 68.5366 152.323V90.0333C68.5366 88.2729 69.9637 86.8457 71.7242 86.8457H83.7305C84.8056 86.8457 85.8083 87.3876 86.3973 88.2871L113.747 130.054V90.0333Z"/>
<path d="M191.951 155.51C190.581 155.51 189.364 154.635 188.928 153.336L185.799 144.001H160.869L157.74 153.336C157.304 154.635 156.087 155.51 154.717 155.51H143.505C141.307 155.51 139.769 153.339 140.498 151.266L162.395 88.9762C162.844 87.6998 164.05 86.8457 165.403 86.8457H181.46C182.815 86.8457 184.021 87.7016 184.469 88.98L206.277 151.269C207.002 153.342 205.464 155.51 203.268 155.51H191.951ZM165.123 131.322H181.545L173.334 106.938L165.123 131.322Z"/>
<path d="M222.293 146.245C215.434 139.612 212.004 131.224 212.004 121.08C212.004 110.937 215.434 102.581 222.293 96.014C229.218 89.3816 237.66 86.0654 247.619 86.0654C255.335 86.0654 262.194 88.0812 268.196 92.1126C272.999 95.3389 276.641 99.5646 279.12 104.79C280.053 106.754 278.517 108.889 276.343 108.889H262.502C261.319 108.889 260.256 108.217 259.591 107.239C256.934 103.332 253.042 101.378 247.916 101.378C242.112 101.378 237.528 103.167 234.164 106.743C230.867 110.319 229.218 115.098 229.218 121.08C229.218 127.063 230.867 131.842 234.164 135.418C237.528 138.994 242.112 140.783 247.916 140.783C253.042 140.783 256.934 138.829 259.591 134.922C260.256 133.944 261.319 133.272 262.502 133.272H276.343C278.517 133.272 280.053 135.407 279.12 137.371C276.641 142.596 272.999 146.822 268.196 150.048C262.194 154.08 255.335 156.096 247.619 156.096C237.66 156.096 229.218 152.812 222.293 146.245Z"/>
<path d="M308.527 152.323C308.527 154.083 307.099 155.51 305.339 155.51H294.797C293.037 155.51 291.61 154.083 291.61 152.323V93.416C291.61 89.8951 294.464 87.0408 297.985 87.0408H302.151C305.672 87.0408 308.527 89.8951 308.527 93.416V117.082L329.564 89.5456C330.771 87.9669 332.644 87.0408 334.63 87.0408H346.823C349.527 87.0408 351.003 90.1961 349.27 92.2717L325.048 121.276L349.27 150.279C351.003 152.355 349.527 155.51 346.823 155.51H333.44C332.452 155.51 331.52 155.053 330.917 154.271L308.527 125.274V152.323Z"/>
</mask>
<path d="M28.029 99.2327C25.9185 99.2327 24.1708 99.7853 22.7858 100.891C21.4667 101.996 20.8072 103.589 20.8072 105.67C20.8072 107.751 21.4338 109.441 22.6869 110.742C23.94 111.977 25.5558 112.953 27.5344 113.668C29.5789 114.318 31.8213 114.968 34.2615 115.619C36.7677 116.204 39.241 116.952 41.6812 117.862C44.1215 118.707 46.3309 119.78 48.3095 121.08C50.354 122.381 52.0028 124.234 53.2559 126.64C54.509 128.981 55.1356 131.809 55.1356 135.126C55.1356 140.913 52.7283 145.887 47.9137 150.048C43.1652 154.145 36.8667 156.193 29.0183 156.193C21.2359 156.193 14.9374 154.34 10.1229 150.634C6.13996 147.525 3.82739 143.318 3.18518 138.014C2.97359 136.266 4.42715 134.833 6.18762 134.833H18.0755C19.7319 134.833 21.0461 136.128 21.5432 137.708C22.6586 141.253 25.3152 143.026 29.513 143.026C31.9532 143.026 33.8658 142.408 35.2508 141.173C36.6358 139.872 37.3283 138.247 37.3283 136.296C37.3283 134.345 36.7018 132.752 35.4487 131.517C34.1956 130.281 32.5468 129.306 30.5022 128.591C28.5237 127.875 26.2813 127.225 23.7751 126.64C21.3348 125.99 18.8946 125.209 16.4543 124.299C14.0141 123.389 11.7717 122.316 9.72717 121.08C7.74859 119.78 6.13275 117.959 4.87965 115.619C3.62655 113.213 3 110.384 3 107.133C3 100.761 5.40727 95.6564 10.2218 91.82C15.0364 87.9836 21.17 86.0654 28.6226 86.0654C36.1412 86.0654 42.2088 87.756 46.8255 91.1372C50.7152 93.9312 53.0365 98.1099 53.7895 103.673C54.0302 105.452 52.5658 106.938 50.7711 106.938H38.512C36.8825 106.938 35.5873 105.677 35.0227 104.148C34.5964 102.994 33.9799 102.038 33.1733 101.281C31.8543 99.9154 30.1395 99.2327 28.029 99.2327Z" fill="white"/>
<path d="M113.747 90.0333C113.747 88.2729 115.174 86.8457 116.935 86.8457H127.476C129.237 86.8457 130.664 88.2729 130.664 90.0333V152.323C130.664 154.083 129.237 155.51 127.476 155.51H115.47C114.395 155.51 113.392 154.968 112.803 154.069L85.4534 112.302V152.323C85.4534 154.083 84.0263 155.51 82.2658 155.51H71.7242C69.9637 155.51 68.5366 154.083 68.5366 152.323V90.0333C68.5366 88.2729 69.9637 86.8457 71.7242 86.8457H83.7305C84.8056 86.8457 85.8083 87.3876 86.3973 88.2871L113.747 130.054V90.0333Z" fill="white"/>
<path d="M191.951 155.51C190.581 155.51 189.364 154.635 188.928 153.336L185.799 144.001H160.869L157.74 153.336C157.304 154.635 156.087 155.51 154.717 155.51H143.505C141.307 155.51 139.769 153.339 140.498 151.266L162.395 88.9762C162.844 87.6998 164.05 86.8457 165.403 86.8457H181.46C182.815 86.8457 184.021 87.7016 184.469 88.98L206.277 151.269C207.002 153.342 205.464 155.51 203.268 155.51H191.951ZM165.123 131.322H181.545L173.334 106.938L165.123 131.322Z" fill="white"/>
<path d="M222.293 146.245C215.434 139.612 212.004 131.224 212.004 121.08C212.004 110.937 215.434 102.581 222.293 96.014C229.218 89.3816 237.66 86.0654 247.619 86.0654C255.335 86.0654 262.194 88.0812 268.196 92.1126C272.999 95.3389 276.641 99.5646 279.12 104.79C280.053 106.754 278.517 108.889 276.343 108.889H262.502C261.319 108.889 260.256 108.217 259.591 107.239C256.934 103.332 253.042 101.378 247.916 101.378C242.112 101.378 237.528 103.167 234.164 106.743C230.867 110.319 229.218 115.098 229.218 121.08C229.218 127.063 230.867 131.842 234.164 135.418C237.528 138.994 242.112 140.783 247.916 140.783C253.042 140.783 256.934 138.829 259.591 134.922C260.256 133.944 261.319 133.272 262.502 133.272H276.343C278.517 133.272 280.053 135.407 279.12 137.371C276.641 142.596 272.999 146.822 268.196 150.048C262.194 154.08 255.335 156.096 247.619 156.096C237.66 156.096 229.218 152.812 222.293 146.245Z" fill="white"/>
<path d="M308.527 152.323C308.527 154.083 307.099 155.51 305.339 155.51H294.797C293.037 155.51 291.61 154.083 291.61 152.323V93.416C291.61 89.8951 294.464 87.0408 297.985 87.0408H302.151C305.672 87.0408 308.527 89.8951 308.527 93.416V117.082L329.564 89.5456C330.771 87.9669 332.644 87.0408 334.63 87.0408H346.823C349.527 87.0408 351.003 90.1961 349.27 92.2717L325.048 121.276L349.27 150.279C351.003 152.355 349.527 155.51 346.823 155.51H333.44C332.452 155.51 331.52 155.053 330.917 154.271L308.527 125.274V152.323Z" fill="white"/>
<path d="M28.029 99.2327C25.9185 99.2327 24.1708 99.7853 22.7858 100.891C21.4667 101.996 20.8072 103.589 20.8072 105.67C20.8072 107.751 21.4338 109.441 22.6869 110.742C23.94 111.977 25.5558 112.953 27.5344 113.668C29.5789 114.318 31.8213 114.968 34.2615 115.619C36.7677 116.204 39.241 116.952 41.6812 117.862C44.1215 118.707 46.3309 119.78 48.3095 121.08C50.354 122.381 52.0028 124.234 53.2559 126.64C54.509 128.981 55.1356 131.809 55.1356 135.126C55.1356 140.913 52.7283 145.887 47.9137 150.048C43.1652 154.145 36.8667 156.193 29.0183 156.193C21.2359 156.193 14.9374 154.34 10.1229 150.634C6.13996 147.525 3.82739 143.318 3.18518 138.014C2.97359 136.266 4.42715 134.833 6.18762 134.833H18.0755C19.7319 134.833 21.0461 136.128 21.5432 137.708C22.6586 141.253 25.3152 143.026 29.513 143.026C31.9532 143.026 33.8658 142.408 35.2508 141.173C36.6358 139.872 37.3283 138.247 37.3283 136.296C37.3283 134.345 36.7018 132.752 35.4487 131.517C34.1956 130.281 32.5468 129.306 30.5022 128.591C28.5237 127.875 26.2813 127.225 23.7751 126.64C21.3348 125.99 18.8946 125.209 16.4543 124.299C14.0141 123.389 11.7717 122.316 9.72717 121.08C7.74859 119.78 6.13275 117.959 4.87965 115.619C3.62655 113.213 3 110.384 3 107.133C3 100.761 5.40727 95.6564 10.2218 91.82C15.0364 87.9836 21.17 86.0654 28.6226 86.0654C36.1412 86.0654 42.2088 87.756 46.8255 91.1372C50.7152 93.9312 53.0365 98.1099 53.7895 103.673C54.0302 105.452 52.5658 106.938 50.7711 106.938H38.512C36.8825 106.938 35.5873 105.677 35.0227 104.148C34.5964 102.994 33.9799 102.038 33.1733 101.281C31.8543 99.9154 30.1395 99.2327 28.029 99.2327Z" stroke="#422862" stroke-width="6" mask="url(#path-2-outside-1_636_58908)"/>
<path d="M113.747 90.0333C113.747 88.2729 115.174 86.8457 116.935 86.8457H127.476C129.237 86.8457 130.664 88.2729 130.664 90.0333V152.323C130.664 154.083 129.237 155.51 127.476 155.51H115.47C114.395 155.51 113.392 154.968 112.803 154.069L85.4534 112.302V152.323C85.4534 154.083 84.0263 155.51 82.2658 155.51H71.7242C69.9637 155.51 68.5366 154.083 68.5366 152.323V90.0333C68.5366 88.2729 69.9637 86.8457 71.7242 86.8457H83.7305C84.8056 86.8457 85.8083 87.3876 86.3973 88.2871L113.747 130.054V90.0333Z" stroke="#422862" stroke-width="6" mask="url(#path-2-outside-1_636_58908)"/>
<path d="M191.951 155.51C190.581 155.51 189.364 154.635 188.928 153.336L185.799 144.001H160.869L157.74 153.336C157.304 154.635 156.087 155.51 154.717 155.51H143.505C141.307 155.51 139.769 153.339 140.498 151.266L162.395 88.9762C162.844 87.6998 164.05 86.8457 165.403 86.8457H181.46C182.815 86.8457 184.021 87.7016 184.469 88.98L206.277 151.269C207.002 153.342 205.464 155.51 203.268 155.51H191.951ZM165.123 131.322H181.545L173.334 106.938L165.123 131.322Z" stroke="#422862" stroke-width="6" mask="url(#path-2-outside-1_636_58908)"/>
<path d="M222.293 146.245C215.434 139.612 212.004 131.224 212.004 121.08C212.004 110.937 215.434 102.581 222.293 96.014C229.218 89.3816 237.66 86.0654 247.619 86.0654C255.335 86.0654 262.194 88.0812 268.196 92.1126C272.999 95.3389 276.641 99.5646 279.12 104.79C280.053 106.754 278.517 108.889 276.343 108.889H262.502C261.319 108.889 260.256 108.217 259.591 107.239C256.934 103.332 253.042 101.378 247.916 101.378C242.112 101.378 237.528 103.167 234.164 106.743C230.867 110.319 229.218 115.098 229.218 121.08C229.218 127.063 230.867 131.842 234.164 135.418C237.528 138.994 242.112 140.783 247.916 140.783C253.042 140.783 256.934 138.829 259.591 134.922C260.256 133.944 261.319 133.272 262.502 133.272H276.343C278.517 133.272 280.053 135.407 279.12 137.371C276.641 142.596 272.999 146.822 268.196 150.048C262.194 154.08 255.335 156.096 247.619 156.096C237.66 156.096 229.218 152.812 222.293 146.245Z" stroke="#422862" stroke-width="6" mask="url(#path-2-outside-1_636_58908)"/>
<path d="M308.527 152.323C308.527 154.083 307.099 155.51 305.339 155.51H294.797C293.037 155.51 291.61 154.083 291.61 152.323V93.416C291.61 89.8951 294.464 87.0408 297.985 87.0408H302.151C305.672 87.0408 308.527 89.8951 308.527 93.416V117.082L329.564 89.5456C330.771 87.9669 332.644 87.0408 334.63 87.0408H346.823C349.527 87.0408 351.003 90.1961 349.27 92.2717L325.048 121.276L349.27 150.279C351.003 152.355 349.527 155.51 346.823 155.51H333.44C332.452 155.51 331.52 155.053 330.917 154.271L308.527 125.274V152.323Z" stroke="#422862" stroke-width="6" mask="url(#path-2-outside-1_636_58908)"/>
</svg>
