<svg width="501" height="338" viewBox="0 0 501 338" fill="none" xmlns="http://www.w3.org/2000/svg">
<g clip-path="url(#clip0_2051_111669)">
<path d="M499.742 334.793H332.248C329.197 336.133 325.901 336.825 322.568 336.826H192.067C188.734 336.828 185.437 336.136 182.387 334.793H159.417C151.18 336.674 142.625 336.674 134.387 334.793H1.24458C0.9145 334.793 0.597935 334.924 0.36453 335.158C0.131126 335.391 0 335.707 0 336.038C0 336.368 0.131126 336.684 0.36453 336.918C0.597935 337.151 0.9145 337.282 1.24458 337.282H499.742C500.072 337.282 500.388 337.151 500.622 336.918C500.855 336.684 500.986 336.368 500.986 336.038C500.986 335.707 500.855 335.391 500.622 335.158C500.388 334.924 500.072 334.793 499.742 334.793Z" fill="black"/>
<path d="M171.365 228.367C180.547 232.767 188.376 239.557 194.027 248.026C199.679 256.495 202.946 266.33 203.485 276.498C204.024 286.665 201.815 296.79 197.091 305.809C192.366 314.828 185.3 322.409 176.634 327.754C178.618 329.85 181.012 331.516 183.667 332.648C186.321 333.781 189.181 334.355 192.067 334.337H322.582C334.005 334.337 343.325 325.583 343.325 314.838V123.006H335.54C330.077 122.999 324.84 120.826 320.978 116.963C317.115 113.101 314.942 107.864 314.935 102.402V59.104C314.942 53.6415 317.115 48.4048 320.978 44.5423C324.84 40.6797 330.077 38.5065 335.54 38.4992H343.339V21.9877C343.339 11.229 334.046 2.48926 322.596 2.48926H192.067C180.644 2.48926 171.324 11.229 171.324 21.9877L171.365 228.367ZM298.52 204.54C298.512 205.73 298.249 206.903 297.748 207.981C297.247 209.06 296.52 210.018 295.616 210.791L265.013 237.923C264.348 238.513 263.603 239.007 262.801 239.389H292.878C298.244 239.389 302.558 243.33 302.558 248.17C302.558 253.01 298.188 256.951 292.878 256.951H223.292C217.926 256.951 213.612 253.024 213.612 248.17C213.612 243.316 217.982 239.389 223.292 239.389H253.356C252.559 239.003 251.819 238.51 251.157 237.923L220.512 210.791C219.604 210.021 218.873 209.063 218.372 207.982C217.872 206.901 217.612 205.725 217.612 204.533C217.612 203.342 217.872 202.166 218.372 201.085C218.873 200.004 219.604 199.046 220.512 198.276C222.416 196.648 224.839 195.753 227.344 195.753C229.849 195.753 232.271 196.648 234.175 198.276L248.419 210.888V168.89C248.419 164.036 252.789 160.109 258.099 160.109C263.409 160.109 267.779 164.036 267.779 168.89V210.736L281.857 198.29C283.76 196.662 286.183 195.767 288.688 195.767C291.193 195.767 293.616 196.662 295.519 198.29C296.441 199.054 297.186 200.008 297.704 201.087C298.222 202.166 298.5 203.344 298.52 204.54ZM284.567 318.116C284.567 318.446 284.436 318.762 284.202 318.996C283.969 319.229 283.652 319.36 283.322 319.36H269.715C269.385 319.36 269.068 319.229 268.835 318.996C268.601 318.762 268.47 318.446 268.47 318.116C268.47 317.785 268.601 317.469 268.835 317.235C269.068 317.002 269.385 316.871 269.715 316.871H283.322C283.652 316.871 283.969 317.002 284.202 317.235C284.436 317.469 284.567 317.785 284.567 318.116ZM259.302 318.116C259.302 318.446 259.171 318.762 258.937 318.996C258.704 319.229 258.387 319.36 258.057 319.36H236.692C236.362 319.36 236.045 319.229 235.812 318.996C235.579 318.762 235.447 318.446 235.447 318.116C235.447 317.785 235.579 317.469 235.812 317.235C236.045 317.002 236.362 316.871 236.692 316.871H258.099C258.422 316.882 258.728 317.018 258.952 317.25C259.177 317.482 259.302 317.792 259.302 318.116ZM285.895 125.274C280.183 132.037 275.385 133.973 272.439 134.415C272.388 134.484 272.322 134.541 272.246 134.581C268.689 136.819 264.582 138.025 260.381 138.066C258.333 138.106 256.302 137.69 254.434 136.849C252.982 137.256 251.45 137.289 249.981 136.946C242.749 135.563 236.706 130.861 232.792 127.432C230.483 125.413 226.998 121.762 226.528 117.751C224.97 115.819 223.858 113.566 223.27 111.155C222.682 108.743 222.633 106.231 223.126 103.798C221.605 100.078 221.826 95.6671 223.804 90.3292C225.187 86.6646 226.887 82.7234 230.234 80.6491C231.713 77.8086 233.695 75.2597 236.084 73.1263C240.108 69.517 250.189 64.4003 258.016 66.7374C260.132 66.3087 270.531 64.7322 277.777 73.0571C283.447 73.9698 287.789 80.9533 289.919 85.1157C292.325 89.859 295.091 96.4138 293.514 102.097C294.053 103.923 295.962 113.243 285.895 125.274ZM240.841 35.2218C240.841 34.8917 240.972 34.5751 241.205 34.3417C241.439 34.1083 241.755 33.9772 242.085 33.9772H262.137C262.467 33.9772 262.783 34.1083 263.017 34.3417C263.25 34.5751 263.381 34.8917 263.381 35.2218C263.381 35.5519 263.25 35.8684 263.017 36.1018C262.783 36.3353 262.467 36.4664 262.137 36.4664H242.085C241.755 36.4664 241.439 36.3353 241.205 36.1018C240.972 35.8684 240.841 35.5519 240.841 35.2218ZM262.372 10.3301C263.05 10.3301 263.713 10.5313 264.277 10.9081C264.841 11.2849 265.281 11.8206 265.54 12.4472C265.8 13.0739 265.868 13.7635 265.736 14.4287C265.603 15.094 265.277 15.7051 264.797 16.1847C264.317 16.6643 263.706 16.9909 263.041 17.1233C262.376 17.2556 261.686 17.1877 261.059 16.9281C260.433 16.6685 259.897 16.229 259.52 15.665C259.144 15.101 258.942 14.4379 258.942 13.7596C258.953 12.8573 259.319 11.9956 259.961 11.3614C260.603 10.7272 261.469 10.3716 262.372 10.3716V10.3301ZM250.341 9.50041C251.183 9.50041 252.007 9.75021 252.707 10.2182C253.408 10.6862 253.954 11.3514 254.276 12.1297C254.598 12.908 254.683 13.7644 254.518 14.5906C254.354 15.4168 253.948 16.1757 253.353 16.7714C252.757 17.3671 251.998 17.7727 251.172 17.937C250.346 18.1014 249.489 18.017 248.711 17.6947C247.933 17.3723 247.268 16.8264 246.799 16.126C246.331 15.4255 246.082 14.602 246.082 13.7596C246.093 12.6372 246.546 11.5645 247.344 10.7747C248.141 9.98488 249.218 9.54184 250.341 9.5419V9.50041ZM213.377 27.3671H290.818C291.148 27.3671 291.464 27.4982 291.698 27.7316C291.931 27.965 292.062 28.2816 292.062 28.6117C292.062 28.9418 291.931 29.2583 291.698 29.4917C291.464 29.7251 291.148 29.8563 290.818 29.8563H213.377C213.047 29.8563 212.73 29.7251 212.497 29.4917C212.263 29.2583 212.132 28.9418 212.132 28.6117C212.132 28.2816 212.263 27.965 212.497 27.7316C212.73 27.4982 213.047 27.3671 213.377 27.3671ZM213.377 323.771H294.053C294.384 323.771 294.7 323.903 294.933 324.136C295.167 324.369 295.298 324.686 295.298 325.016C295.298 325.346 295.167 325.663 294.933 325.896C294.7 326.129 294.384 326.261 294.053 326.261H213.377C213.047 326.261 212.73 326.129 212.497 325.896C212.263 325.663 212.132 325.346 212.132 325.016C212.132 324.686 212.263 324.369 212.497 324.136C212.73 323.903 213.047 323.771 213.377 323.771Z" fill="#F1E6FF"/>
<path d="M213.377 326.261H294.054C294.384 326.261 294.7 326.13 294.934 325.896C295.167 325.663 295.298 325.346 295.298 325.016C295.298 324.686 295.167 324.369 294.934 324.136C294.7 323.903 294.384 323.771 294.054 323.771H213.377C213.047 323.771 212.73 323.903 212.497 324.136C212.263 324.369 212.132 324.686 212.132 325.016C212.132 325.346 212.263 325.663 212.497 325.896C212.73 326.13 213.047 326.261 213.377 326.261Z" fill="#321951"/>
<path d="M390.177 40.9883H335.539C330.737 40.9956 326.134 42.9066 322.738 46.3023C319.342 49.6981 317.431 54.3016 317.424 59.1039V102.402C317.431 107.204 319.342 111.807 322.738 115.203C326.134 118.599 330.737 120.51 335.539 120.517H390.218C395.022 120.513 399.627 118.604 403.024 115.207C406.42 111.811 408.33 107.205 408.334 102.402V59.1039C408.332 56.7219 407.861 54.3637 406.947 52.1639C406.033 49.9642 404.695 47.966 403.009 46.2836C401.323 44.6012 399.322 43.2677 397.12 42.3591C394.918 41.4505 392.559 40.9847 390.177 40.9883ZM388.655 88.2825L349.631 110.408C348.135 111.317 346.429 111.822 344.68 111.874C344.049 111.871 343.421 111.783 342.813 111.611C339.66 110.726 337.793 107.698 337.821 103.508L338.112 58.7444C338.03 57.4265 338.254 56.1076 338.768 54.8912C339.281 53.6748 340.07 52.5938 341.071 51.7332C341.958 51.102 342.981 50.6891 344.058 50.5281C345.134 50.3671 346.233 50.4626 347.266 50.8067C348.237 51.0793 349.167 51.4792 350.032 51.9959L350.696 52.3832C350.862 52.4347 351.013 52.5247 351.138 52.6459L381.008 70.0839C381.087 70.1095 381.162 70.1468 381.229 70.1945L388.738 74.5782C391.753 76.3345 393.413 78.7268 393.399 81.4926C393.385 84.2583 391.698 86.5539 388.655 88.2825Z" fill="white"/>
<path d="M269.715 316.871C269.385 316.871 269.068 317.002 268.835 317.235C268.601 317.469 268.47 317.785 268.47 318.115C268.47 318.445 268.601 318.762 268.835 318.995C269.068 319.229 269.385 319.36 269.715 319.36H283.322C283.652 319.36 283.969 319.229 284.202 318.995C284.436 318.762 284.567 318.445 284.567 318.115C284.567 317.785 284.436 317.469 284.202 317.235C283.969 317.002 283.652 316.871 283.322 316.871H269.715Z" fill="#321951"/>
<path d="M236.692 316.871C236.362 316.871 236.045 317.002 235.812 317.235C235.578 317.469 235.447 317.785 235.447 318.115C235.447 318.445 235.578 318.762 235.812 318.995C236.045 319.229 236.362 319.36 236.692 319.36H258.099C258.429 319.36 258.745 319.229 258.979 318.995C259.212 318.762 259.343 318.445 259.343 318.115C259.343 317.785 259.212 317.469 258.979 317.235C258.745 317.002 258.429 316.871 258.099 316.871H236.692Z" fill="#321951"/>
<path d="M213.377 29.8564H290.818C291.148 29.8564 291.464 29.7252 291.698 29.4918C291.931 29.2584 292.062 28.9419 292.062 28.6118C292.062 28.2817 291.931 27.9651 291.698 27.7317C291.464 27.4983 291.148 27.3672 290.818 27.3672H213.377C213.047 27.3672 212.73 27.4983 212.497 27.7317C212.263 27.9651 212.132 28.2817 212.132 28.6118C212.132 28.9419 212.263 29.2584 212.497 29.4918C212.73 29.7252 213.047 29.8564 213.377 29.8564Z" fill="#321951"/>
<path d="M262.137 36.4662C262.467 36.4662 262.784 36.3351 263.017 36.1017C263.25 35.8683 263.382 35.5517 263.382 35.2216C263.382 34.8916 263.25 34.575 263.017 34.3416C262.784 34.1082 262.467 33.9771 262.137 33.9771H242.085C241.755 33.9771 241.439 34.1082 241.205 34.3416C240.972 34.575 240.841 34.8916 240.841 35.2216C240.841 35.5517 240.972 35.8683 241.205 36.1017C241.439 36.3351 241.755 36.4662 242.085 36.4662H262.137Z" fill="#321951"/>
<path d="M291.509 105.679C291.333 105.737 291.147 105.756 290.963 105.734C290.779 105.713 290.602 105.651 290.444 105.555C290.306 105.466 290.186 105.351 290.092 105.216C289.998 105.081 289.932 104.929 289.897 104.768C289.862 104.607 289.86 104.441 289.89 104.28C289.919 104.118 289.981 103.964 290.071 103.826C293.334 98.6678 290.278 91.3801 287.692 86.2496C286.309 83.6499 283.184 78.0907 279.271 76.1409C279.19 76.3204 279.061 76.4737 278.897 76.5834C278.634 76.7771 278.305 76.8596 277.982 76.813C277.659 76.7664 277.366 76.5946 277.169 76.3345L276.187 75.0346C274.284 72.8086 271.865 71.0835 269.14 70.0106C266.416 68.9377 263.47 68.5497 260.56 68.8808C260.544 68.9519 260.52 69.0213 260.491 69.0882C260.358 69.3812 260.117 69.6119 259.819 69.7328C259.52 69.8537 259.187 69.8556 258.887 69.7382L257.504 69.185C250.936 67.1107 241.504 71.5912 237.743 74.9793C236.24 76.3415 234.899 77.8728 233.747 79.5427C233.936 79.6068 234.107 79.7177 234.242 79.8652C234.377 80.0126 234.473 80.1919 234.521 80.3863C234.607 80.6961 234.568 81.0273 234.413 81.309C234.258 81.5907 233.999 81.8005 233.691 81.8936L232.599 82.2532C229.183 83.636 227.468 87.5495 226.113 91.1865C224.852 94.1307 224.376 97.3515 224.73 100.535C225.003 100.439 225.301 100.439 225.574 100.535C225.868 100.663 226.103 100.899 226.229 101.195C226.355 101.491 226.363 101.824 226.251 102.125L225.546 104.02C224.744 107.543 225.339 111.241 227.206 114.336C227.467 114.193 227.77 114.144 228.063 114.197C228.376 114.255 228.655 114.43 228.843 114.688C229.031 114.945 229.113 115.264 229.072 115.58L228.92 116.742C228.92 120.365 233.069 124.265 234.383 125.468C238.075 128.69 243.758 133.129 250.396 134.401C250.803 134.481 251.214 134.536 251.627 134.567C251.564 134.359 251.555 134.138 251.601 133.925C251.647 133.712 251.747 133.514 251.89 133.35C252.103 133.11 252.401 132.962 252.722 132.939C253.042 132.916 253.359 133.019 253.605 133.226L254.49 133.945C258.085 136.448 264.17 135.646 268.553 133.668C268.478 133.535 268.429 133.389 268.41 133.237C268.391 133.085 268.402 132.931 268.443 132.783C268.518 132.485 268.701 132.226 268.956 132.055C269.212 131.884 269.521 131.813 269.826 131.857H270.116C271.181 131.995 276.533 132.202 283.862 123.559C290.569 115.788 291.606 109.288 291.509 105.679ZM261.971 74.7718C261.971 74.7718 261.971 74.6889 261.971 74.6474C261.95 74.5284 261.95 74.4068 261.971 74.2878C261.971 74.2878 261.971 74.191 262.04 74.1357C262.09 74.0451 262.146 73.9574 262.206 73.873C262.295 73.7796 262.397 73.7004 262.51 73.6379C262.604 73.6021 262.702 73.5743 262.801 73.5549C262.86 73.5471 262.921 73.5471 262.98 73.5549H264.363H264.792C265.209 73.0328 265.779 72.6534 266.421 72.4693C267.064 72.2852 267.748 72.3054 268.378 72.5272C269.009 72.7491 269.555 73.1615 269.94 73.7073C270.326 74.2532 270.532 74.9055 270.531 75.5739C270.544 75.7396 270.544 75.906 270.531 76.0717L270.807 76.3068L270.918 76.4036C271.289 76.7425 271.64 77.1027 271.969 77.4822C272.177 77.7383 272.276 78.0658 272.245 78.3943C272.214 78.7228 272.055 79.026 271.803 79.2385C271.583 79.4247 271.304 79.5275 271.015 79.5289C270.832 79.5305 270.65 79.4903 270.485 79.4112C270.32 79.3321 270.174 79.2163 270.061 79.0725C269.769 78.7422 269.46 78.4283 269.134 78.1322L268.54 77.6482C267.241 76.7087 265.721 76.1226 264.128 75.9473C263.806 75.9279 263.483 75.9279 263.16 75.9473C262.998 75.9585 262.835 75.9372 262.682 75.8845C262.528 75.8318 262.386 75.7489 262.265 75.6407C262.144 75.5324 262.046 75.401 261.976 75.2541C261.907 75.1073 261.867 74.948 261.86 74.7857L261.971 74.7718ZM239.845 79.4874C240.364 78.9923 240.913 78.5304 241.491 78.1045L241.67 77.9939C241.57 77.6102 241.518 77.2152 241.518 76.8185C241.523 75.7994 241.87 74.8114 242.505 74.014C243.139 73.2165 244.024 72.656 245.016 72.4227C246.008 72.1895 247.05 72.2971 247.973 72.7283C248.897 73.1595 249.648 73.8891 250.106 74.7995H250.396C251.167 74.7076 251.944 74.6799 252.719 74.7165C252.891 74.714 253.062 74.7472 253.221 74.8139C253.379 74.8806 253.522 74.9795 253.64 75.1042C253.759 75.229 253.85 75.3769 253.908 75.5387C253.967 75.7005 253.991 75.8726 253.979 76.0442C253.968 76.2158 253.921 76.3832 253.842 76.5357C253.762 76.6883 253.652 76.8227 253.518 76.9305C253.384 77.0384 253.229 77.1173 253.063 77.1622C252.897 77.2072 252.724 77.2173 252.554 77.1918C249.72 77.1752 246.928 77.8744 244.436 79.2247L244.118 79.3906L243.593 79.7363L243.122 80.0544C242.545 80.4683 242.003 80.931 241.504 81.4373C241.272 81.672 240.955 81.8046 240.624 81.8059C240.294 81.8072 239.976 81.6771 239.741 81.4442C239.507 81.2113 239.374 80.8947 239.373 80.564C239.371 80.2334 239.501 79.9157 239.734 79.681L239.845 79.4874ZM229.999 102.996C229.745 102.997 229.497 102.92 229.287 102.777C229.077 102.634 228.916 102.431 228.823 102.194C228.562 101.483 228.359 100.753 228.215 100.009C227.754 97.6978 227.945 95.3036 228.768 93.0949C228.766 93.0626 228.766 93.0303 228.768 92.9981C229.018 92.2919 229.352 91.6186 229.764 90.9929C229.958 90.7473 230.238 90.584 230.547 90.5357C230.857 90.4873 231.173 90.5574 231.433 90.7319C231.693 90.9064 231.878 91.1726 231.951 91.4773C232.023 91.782 231.978 92.1028 231.824 92.3758C231.654 92.6396 231.506 92.9172 231.382 93.2055C231.845 93.2164 232.301 93.3184 232.725 93.5057C233.149 93.6929 233.531 93.9618 233.851 94.297C234.171 94.6321 234.421 95.027 234.588 95.459C234.756 95.891 234.836 96.3517 234.825 96.8148C234.814 97.2779 234.712 97.7343 234.525 98.1579C234.338 98.5816 234.069 98.9642 233.734 99.284C233.398 99.6037 233.004 99.8543 232.572 100.021C232.14 100.189 231.679 100.269 231.216 100.258C231.078 100.272 230.939 100.272 230.801 100.258C230.898 100.632 231.008 101.005 231.147 101.392C231.259 101.702 231.245 102.044 231.108 102.344C230.971 102.644 230.722 102.878 230.414 102.996C230.275 103.012 230.134 103.003 229.999 102.969V102.996ZM239.9 120.904C240.129 121.522 240.296 122.162 240.398 122.813C240.438 123.135 240.35 123.46 240.154 123.718C239.957 123.976 239.668 124.148 239.347 124.196H239.154C238.855 124.195 238.566 124.088 238.34 123.892C238.114 123.697 237.966 123.426 237.923 123.131C237.844 122.596 237.705 122.072 237.508 121.568L237.342 121.222L237.148 120.835C237.083 120.719 237.009 120.609 236.927 120.503C236.871 120.397 236.806 120.295 236.734 120.199L236.36 119.757L236.263 119.66C235.485 118.86 234.541 118.242 233.498 117.848C232.947 117.636 232.378 117.479 231.797 117.378C231.472 117.333 231.178 117.164 230.977 116.905C230.775 116.647 230.683 116.321 230.718 115.995C230.763 115.672 230.933 115.379 231.192 115.18C231.45 114.981 231.777 114.891 232.101 114.93C232.89 115.028 233.662 115.233 234.396 115.539C234.822 114.773 235.49 114.17 236.295 113.825C237.101 113.479 237.998 113.411 238.846 113.631C239.695 113.851 240.446 114.347 240.982 115.04C241.518 115.733 241.809 116.585 241.809 117.461C241.813 118.147 241.639 118.822 241.305 119.42C240.97 120.019 240.486 120.521 239.9 120.877V120.904ZM246.939 101.06C246.468 101.066 245.999 100.986 245.556 100.825C245.1 101.732 244.538 102.581 243.883 103.356C243.781 103.483 243.655 103.589 243.511 103.667C243.367 103.745 243.21 103.793 243.047 103.808C242.884 103.824 242.72 103.806 242.565 103.757C242.409 103.708 242.265 103.628 242.141 103.522C242.012 103.419 241.906 103.291 241.828 103.146C241.75 103.001 241.702 102.842 241.687 102.679C241.671 102.515 241.689 102.35 241.738 102.193C241.788 102.036 241.868 101.891 241.975 101.765C242.606 101.016 243.132 100.183 243.537 99.2901L243.717 98.8753L243.869 98.4189C243.869 98.2806 243.952 98.1423 243.98 98.0179C244.007 97.8934 243.98 97.7551 244.063 97.6307C244.146 97.5062 244.063 97.3403 244.146 97.1882C244.152 97.1007 244.152 97.0129 244.146 96.9254C244.146 96.7456 244.146 96.5797 244.146 96.4137V96.2893C244.146 95.4976 244.01 94.7118 243.745 93.9661C243.563 93.4323 243.302 92.9289 242.97 92.4726C242.764 92.2251 242.66 91.9078 242.681 91.5862C242.701 91.2646 242.845 90.9631 243.081 90.744C243.31 90.525 243.615 90.4029 243.931 90.4029C244.248 90.4029 244.553 90.525 244.782 90.744C245.403 91.4377 245.873 92.2522 246.165 93.1363C246.413 93.0715 246.668 93.0344 246.925 93.0257C247.985 93.0257 249.002 93.4468 249.751 94.1963C250.501 94.9457 250.922 95.9623 250.922 97.0222C250.922 98.0821 250.501 99.0987 249.751 99.8482C249.002 100.598 247.985 101.019 246.925 101.019L246.939 101.06ZM250.175 114.626C250.137 114.46 250.133 114.287 250.163 114.119C250.194 113.951 250.259 113.791 250.353 113.649C250.447 113.506 250.57 113.385 250.713 113.291C250.856 113.198 251.016 113.134 251.184 113.105C251.8 112.993 252.425 112.937 253.051 112.939C253.114 112.259 253.441 111.631 253.961 111.189C254.48 110.747 255.153 110.526 255.834 110.573C256.515 110.62 257.15 110.931 257.604 111.44C258.059 111.95 258.296 112.617 258.265 113.299C258.266 113.729 258.156 114.153 257.947 114.529C258.483 114.941 258.95 115.436 259.33 115.995C259.42 116.132 259.482 116.286 259.513 116.447C259.544 116.608 259.543 116.774 259.509 116.934C259.476 117.095 259.411 117.247 259.319 117.383C259.226 117.518 259.108 117.634 258.97 117.724C258.77 117.859 258.534 117.931 258.292 117.931C258.087 117.932 257.885 117.881 257.704 117.785C257.524 117.688 257.369 117.549 257.255 117.378C257.005 117 256.692 116.668 256.329 116.396C256.099 116.221 255.854 116.069 255.596 115.94C254.848 115.619 254.045 115.45 253.231 115.442C252.768 115.434 252.305 115.471 251.848 115.553C251.676 115.616 251.492 115.641 251.309 115.626C251.126 115.611 250.949 115.556 250.789 115.465C250.63 115.374 250.492 115.25 250.386 115.1C250.28 114.95 250.208 114.779 250.175 114.598V114.626ZM264.474 131.373C263.488 131.869 262.442 132.236 261.362 132.465C261.094 132.532 260.821 132.582 260.547 132.617C259.929 132.713 259.305 132.763 258.68 132.769C257.388 132.768 256.106 132.543 254.891 132.106H254.821C254.383 131.946 253.953 131.761 253.535 131.552C252.839 131.191 252.181 130.76 251.572 130.266C251.326 130.056 251.173 129.758 251.144 129.435C251.114 129.113 251.211 128.793 251.414 128.541C251.618 128.289 251.911 128.126 252.232 128.087C252.553 128.048 252.877 128.135 253.134 128.33L253.812 128.814C253.875 127.707 254.359 126.665 255.165 125.904C255.971 125.142 257.038 124.717 258.147 124.717C259.256 124.717 260.324 125.142 261.13 125.904C261.936 126.665 262.42 127.707 262.483 128.814C262.48 129.065 262.457 129.315 262.413 129.561C262.741 129.447 263.06 129.308 263.368 129.146C263.656 129.002 263.989 128.976 264.297 129.072C264.605 129.169 264.863 129.381 265.017 129.665C265.171 129.948 265.209 130.28 265.124 130.591C265.038 130.902 264.835 131.167 264.557 131.331L264.474 131.373ZM267.876 88.0474C267.373 88.1283 266.864 88.1699 266.355 88.1718H265.967C265.656 88.9732 265.073 89.6397 264.32 90.0547C263.567 90.4697 262.693 90.6068 261.849 90.4421C261.005 90.2773 260.246 89.8211 259.705 89.1533C259.163 88.4855 258.874 87.6486 258.887 86.789C258.891 86.2046 259.039 85.6301 259.316 85.1157L259.219 85.0327C258.738 84.5797 258.298 84.0845 257.905 83.5531C257.81 83.4209 257.741 83.2711 257.704 83.1123C257.667 82.9535 257.662 82.7888 257.689 82.628C257.716 82.4672 257.775 82.3133 257.862 82.1754C257.949 82.0374 258.062 81.9181 258.196 81.8245C258.466 81.6343 258.8 81.5582 259.126 81.6126C259.452 81.6669 259.744 81.8473 259.938 82.1149C260.234 82.5145 260.563 82.8891 260.92 83.235C261.942 84.2517 263.194 85.0061 264.571 85.4338H264.654C264.867 85.4944 265.084 85.5406 265.304 85.572H265.539H266.106C266.568 85.5934 267.032 85.5656 267.489 85.4891C267.815 85.4341 268.15 85.511 268.42 85.7029C268.689 85.8948 268.872 86.186 268.927 86.5124C268.982 86.8388 268.905 87.1737 268.713 87.4434C268.521 87.7131 268.23 87.8956 267.903 87.9506L267.876 88.0474ZM268.982 104.517C268.976 103.586 269.215 102.669 269.673 101.858C270.132 101.047 270.795 100.37 271.596 99.8946C272.397 99.4192 273.309 99.1618 274.24 99.1479C275.172 99.1341 276.091 99.3642 276.906 99.8156C277.124 99.2824 277.388 98.7689 277.694 98.2806C277.785 98.1435 277.902 98.0256 278.038 97.9337C278.175 97.8418 278.328 97.7776 278.489 97.7449C278.65 97.7121 278.816 97.7114 278.977 97.7429C279.139 97.7743 279.293 97.8372 279.43 97.928C279.567 98.0188 279.685 98.1357 279.777 98.2721C279.868 98.4084 279.933 98.5616 279.965 98.7227C279.998 98.8839 279.999 99.0499 279.967 99.2113C279.936 99.3727 279.873 99.5264 279.782 99.6635C279.517 100.104 279.29 100.567 279.105 101.046C278.103 103.443 277.875 106.093 278.455 108.624C278.612 109.247 278.815 109.857 279.063 110.45C279.129 110.599 279.165 110.761 279.168 110.924C279.171 111.088 279.141 111.25 279.081 111.402C279.02 111.554 278.93 111.692 278.815 111.809C278.701 111.926 278.564 112.018 278.413 112.082C278.261 112.148 278.096 112.181 277.929 112.178C277.686 112.18 277.447 112.11 277.243 111.977C277.039 111.844 276.879 111.655 276.781 111.432C276.529 110.834 276.316 110.219 276.145 109.593C275.57 109.809 274.962 109.921 274.348 109.924C273.641 109.924 272.941 109.785 272.288 109.513C271.635 109.242 271.042 108.844 270.544 108.343C270.045 107.842 269.651 107.247 269.382 106.593C269.114 105.939 268.978 105.238 268.982 104.531V104.517ZM283.392 119.964C282.978 121.394 282.287 122.728 281.359 123.891C281.187 124.123 281.002 124.344 280.806 124.555L280.736 124.638C280.543 124.846 280.349 125.053 280.142 125.247C280.092 125.289 280.046 125.335 280.004 125.385L279.381 125.924L279.188 126.076L278.51 126.574L278.261 126.74C278.026 126.892 277.791 127.03 277.528 127.169L277.335 127.293C276.906 127.514 276.463 127.736 275.952 127.929C275.801 127.984 275.642 128.012 275.482 128.012C275.196 128.007 274.921 127.903 274.703 127.719C274.485 127.535 274.337 127.282 274.283 127.001C274.23 126.721 274.274 126.431 274.409 126.179C274.544 125.928 274.762 125.73 275.025 125.62L275.468 125.413C275.058 125.06 274.73 124.622 274.506 124.13C274.282 123.639 274.166 123.104 274.168 122.564C274.166 122.061 274.263 121.564 274.454 121.099C274.645 120.634 274.926 120.212 275.281 119.856C275.635 119.5 276.057 119.218 276.521 119.025C276.985 118.832 277.482 118.733 277.985 118.733C278.507 118.738 279.022 118.851 279.498 119.066C279.974 119.28 280.4 119.59 280.75 119.978C280.853 119.746 280.936 119.505 280.999 119.259C281.088 118.953 281.291 118.693 281.567 118.533C281.842 118.372 282.168 118.323 282.478 118.396C282.788 118.468 283.058 118.657 283.233 118.923C283.409 119.189 283.475 119.512 283.419 119.826L283.392 119.964ZM282.617 94.0352C282.62 93.356 282.545 92.6787 282.396 92.0162C282.302 91.5912 282.173 91.1749 282.009 90.7716V90.6333C281.859 90.2843 281.683 89.9468 281.483 89.6239C281.486 89.5916 281.486 89.5593 281.483 89.5271C281.302 89.231 281.098 88.949 280.875 88.6835C280.676 88.4494 280.464 88.2278 280.239 88.0197C279.937 87.7306 279.608 87.4713 279.257 87.2453C279.101 87.1737 278.962 87.0708 278.848 86.943C278.734 86.8152 278.647 86.6652 278.594 86.5024C278.541 86.3396 278.522 86.1676 278.538 85.997C278.554 85.8265 278.605 85.6611 278.688 85.5113C278.771 85.3615 278.884 85.2304 279.02 85.1263C279.156 85.0221 279.312 84.9472 279.479 84.9062C279.645 84.8652 279.818 84.8589 279.987 84.8878C280.156 84.9167 280.317 84.9802 280.46 85.0742C280.995 85.3947 281.491 85.7752 281.94 86.2082H282.022C282.472 85.9629 282.978 85.8391 283.49 85.849C284.002 85.8589 284.503 86.0022 284.943 86.2647C285.382 86.5272 285.746 86.8998 285.998 87.3458C286.25 87.7918 286.381 88.2958 286.379 88.808C286.376 89.3248 286.24 89.8322 285.983 90.2806C285.726 90.729 285.357 91.1031 284.913 91.3663V91.4631C285.079 92.2731 285.162 93.0978 285.162 93.9246C285.162 94.2547 285.03 94.5712 284.797 94.8046C284.564 95.038 284.247 95.1692 283.917 95.1692C283.587 95.1692 283.27 95.038 283.037 94.8046C282.804 94.5712 282.672 94.2547 282.672 93.9246L282.617 94.0352Z" fill="#FBC22D"/>
<path d="M289.905 85.1707C287.775 81.0221 283.433 74.0248 277.763 73.1121C270.517 64.8149 260.118 66.3637 258.002 66.7924C250.175 64.4553 240.094 69.5581 236.07 73.1813C233.681 75.3147 231.699 77.8635 230.22 80.7041C226.873 82.7645 225.145 86.7057 223.79 90.3842C221.812 95.722 221.591 100.064 223.112 103.853C222.619 106.286 222.668 108.798 223.255 111.21C223.843 113.621 224.956 115.874 226.514 117.806C226.984 121.775 230.469 125.426 232.778 127.487C236.692 130.916 242.735 135.618 249.967 137.001C251.436 137.344 252.968 137.311 254.42 136.904C256.288 137.745 258.319 138.161 260.367 138.121C264.568 138.08 268.675 136.874 272.232 134.636C272.308 134.596 272.374 134.539 272.425 134.47C275.371 134.028 280.169 132.092 285.881 125.329C295.948 113.354 294.026 104.033 293.5 102.208C295.09 96.4135 292.325 89.8587 289.905 85.1707ZM270.226 132.022H269.936C269.632 131.979 269.322 132.049 269.067 132.22C268.812 132.391 268.629 132.651 268.553 132.949C268.512 133.096 268.501 133.251 268.52 133.402C268.539 133.554 268.588 133.701 268.664 133.834C264.322 135.811 258.195 136.6 254.6 134.111L253.715 133.391C253.469 133.184 253.153 133.081 252.832 133.105C252.512 133.128 252.213 133.275 252 133.516C251.857 133.68 251.758 133.878 251.712 134.09C251.666 134.303 251.675 134.524 251.737 134.733C251.324 134.702 250.913 134.647 250.507 134.567C243.869 133.295 238.185 128.856 234.493 125.634C233.11 124.43 228.962 120.531 229.031 116.908L229.183 115.746C229.223 115.43 229.141 115.111 228.954 114.853C228.766 114.596 228.487 114.421 228.173 114.363C227.88 114.31 227.577 114.358 227.316 114.501C225.449 111.407 224.854 107.709 225.657 104.185L226.362 102.291C226.473 101.989 226.465 101.656 226.339 101.361C226.213 101.065 225.979 100.829 225.684 100.7C225.411 100.604 225.114 100.604 224.841 100.7C224.486 97.5172 224.962 94.2964 226.223 91.3522C227.606 87.7152 229.293 83.8017 232.709 82.4188L233.802 82.0593C234.109 81.9662 234.369 81.7564 234.524 81.4747C234.679 81.193 234.717 80.8618 234.631 80.552C234.584 80.3575 234.488 80.1783 234.352 80.0308C234.217 79.8834 234.047 79.7725 233.857 79.7084C235.009 78.0384 236.35 76.5071 237.853 75.1449C241.615 71.7569 251.046 67.2764 257.615 69.3507L258.998 69.9039C259.297 70.0213 259.631 70.0193 259.929 69.8984C260.227 69.7775 260.468 69.5469 260.602 69.2539C260.631 69.187 260.654 69.1176 260.671 69.0465C263.58 68.7154 266.526 69.1033 269.251 70.1763C271.975 71.2492 274.395 72.9743 276.297 75.2002L277.279 76.5001C277.477 76.7602 277.769 76.9321 278.092 76.9787C278.416 77.0253 278.745 76.9428 279.008 76.7491C279.171 76.6394 279.3 76.4861 279.381 76.3065C283.295 78.2564 286.475 83.8155 287.803 86.4153C290.389 91.4905 293.445 98.8612 290.181 103.992C290.091 104.129 290.03 104.284 290 104.445C289.97 104.607 289.973 104.773 290.008 104.934C290.042 105.094 290.108 105.247 290.202 105.382C290.296 105.517 290.416 105.632 290.555 105.72C290.712 105.817 290.889 105.879 291.073 105.9C291.257 105.922 291.444 105.903 291.619 105.845C291.716 109.454 290.679 115.953 284.097 123.822C276.657 132.313 271.305 132.105 270.24 131.967L270.226 132.022Z" fill="#321951"/>
<path d="M246.939 93.0393C246.682 93.0481 246.427 93.0852 246.179 93.15C245.887 92.2658 245.416 91.4514 244.796 90.7576C244.567 90.5387 244.262 90.4165 243.945 90.4165C243.628 90.4165 243.324 90.5387 243.095 90.7576C242.859 90.9768 242.715 91.2782 242.695 91.5998C242.674 91.9215 242.778 92.2387 242.984 92.4862C243.316 92.9425 243.577 93.446 243.759 93.9797C244.024 94.7254 244.16 95.5113 244.16 96.3029V96.4274C244.16 96.5933 244.16 96.7593 244.16 96.939C244.166 97.0265 244.166 97.1143 244.16 97.2018C244.16 97.3539 244.16 97.4922 244.077 97.6443C243.994 97.7964 244.077 97.8932 243.994 98.0315C243.911 98.1698 243.925 98.2943 243.883 98.4325L243.731 98.8889L243.551 99.3038C243.145 100.192 242.619 101.02 241.989 101.765C241.882 101.891 241.802 102.036 241.752 102.193C241.703 102.35 241.685 102.515 241.701 102.678C241.716 102.842 241.764 103.001 241.842 103.146C241.92 103.291 242.026 103.418 242.154 103.522C242.279 103.628 242.423 103.708 242.579 103.757C242.734 103.806 242.898 103.824 243.061 103.808C243.223 103.793 243.381 103.745 243.525 103.667C243.669 103.589 243.795 103.483 243.897 103.356C244.552 102.581 245.114 101.731 245.57 100.825C246.013 100.986 246.482 101.066 246.953 101.06C248.013 101.06 249.029 100.639 249.779 99.8895C250.528 99.14 250.95 98.1234 250.95 97.0635C250.95 96.0036 250.528 94.987 249.779 94.2376C249.029 93.4881 248.013 93.067 246.953 93.067L246.939 93.0393Z" fill="#321951"/>
<path d="M237.784 113.562C237.081 113.561 236.39 113.749 235.785 114.107C235.179 114.465 234.68 114.978 234.341 115.594C233.607 115.288 232.835 115.083 232.046 114.986C231.721 114.947 231.395 115.036 231.136 115.235C230.878 115.434 230.707 115.727 230.663 116.051C230.627 116.376 230.72 116.703 230.921 116.961C231.123 117.219 231.417 117.389 231.741 117.434C232.322 117.534 232.892 117.692 233.442 117.904C234.486 118.297 235.43 118.916 236.208 119.715L236.305 119.812L236.678 120.255C236.751 120.351 236.815 120.452 236.872 120.559C236.953 120.664 237.027 120.775 237.093 120.891L237.287 121.278L237.453 121.624C237.649 122.127 237.789 122.651 237.867 123.186C237.911 123.482 238.059 123.752 238.285 123.948C238.511 124.143 238.799 124.251 239.098 124.251H239.292C239.613 124.203 239.902 124.032 240.098 123.773C240.295 123.515 240.382 123.19 240.343 122.868C240.241 122.217 240.074 121.578 239.845 120.96C240.578 120.505 241.142 119.823 241.451 119.018C241.761 118.213 241.798 117.329 241.559 116.501C241.319 115.672 240.815 114.945 240.124 114.429C239.433 113.913 238.592 113.638 237.729 113.644L237.784 113.562Z" fill="#321951"/>
<path d="M276.145 109.537C276.316 110.164 276.528 110.778 276.781 111.376C276.879 111.6 277.039 111.789 277.243 111.922C277.447 112.055 277.686 112.125 277.929 112.123C278.095 112.126 278.261 112.093 278.413 112.026C278.564 111.963 278.701 111.871 278.815 111.754C278.93 111.637 279.02 111.499 279.08 111.347C279.141 111.195 279.171 111.033 279.168 110.869C279.165 110.706 279.129 110.544 279.063 110.395C278.815 109.802 278.611 109.192 278.455 108.569C277.875 106.037 278.102 103.387 279.104 100.991C279.29 100.512 279.517 100.049 279.782 99.6082C279.873 99.4711 279.936 99.3175 279.967 99.1561C279.999 98.9946 279.998 98.8286 279.965 98.6675C279.932 98.5063 279.868 98.3532 279.776 98.2168C279.684 98.0805 279.567 97.9635 279.429 97.8727C279.292 97.7819 279.139 97.719 278.977 97.6876C278.816 97.6562 278.65 97.6569 278.489 97.6896C278.328 97.7224 278.174 97.7865 278.038 97.8785C277.902 97.9704 277.785 98.0883 277.694 98.2254C277.388 98.7136 277.124 99.2271 276.906 99.7604C276.188 99.3705 275.39 99.1499 274.574 99.1152C273.757 99.0806 272.944 99.2328 272.195 99.5604C271.446 99.888 270.783 100.382 270.254 101.005C269.726 101.629 269.346 102.364 269.145 103.156C268.944 103.948 268.927 104.776 269.094 105.575C269.262 106.375 269.61 107.126 270.111 107.771C270.613 108.416 271.256 108.938 271.99 109.296C272.724 109.655 273.53 109.842 274.347 109.841C274.96 109.847 275.569 109.744 276.145 109.537Z" fill="#321951"/>
<path d="M240.73 81.6034C240.894 81.6054 241.057 81.5747 241.209 81.513C241.361 81.4512 241.499 81.3597 241.615 81.2438C242.114 80.7375 242.655 80.2749 243.233 79.861L243.703 79.5429L244.228 79.1972L244.547 79.0312C247.038 77.681 249.83 76.9818 252.664 76.9984C252.834 77.0239 253.008 77.0138 253.174 76.9688C253.34 76.9238 253.494 76.8449 253.628 76.7371C253.762 76.6293 253.873 76.4948 253.952 76.3423C254.031 76.1897 254.078 76.0224 254.09 75.8508C254.101 75.6792 254.077 75.5071 254.019 75.3453C253.961 75.1835 253.869 75.0356 253.751 74.9108C253.632 74.7861 253.49 74.6872 253.331 74.6205C253.173 74.5537 253.002 74.5206 252.83 74.5231C252.055 74.4864 251.277 74.5142 250.507 74.6061H250.216C249.758 73.6957 249.007 72.9661 248.084 72.5349C247.16 72.1037 246.118 71.996 245.126 72.2293C244.134 72.4625 243.25 73.0231 242.615 73.8205C241.981 74.618 241.633 75.6059 241.629 76.625C241.629 77.0218 241.68 77.4168 241.781 77.8005L241.601 77.9111C241.024 78.337 240.474 78.7988 239.955 79.294C239.784 79.4688 239.668 79.6902 239.622 79.9306C239.576 80.171 239.602 80.4197 239.696 80.6455C239.79 80.8713 239.949 81.0642 240.153 81.2002C240.357 81.3361 240.596 81.409 240.84 81.4098L240.73 81.6034Z" fill="#321951"/>
<path d="M263.271 75.9335C263.593 75.9142 263.916 75.9142 264.239 75.9335C265.832 76.1089 267.352 76.695 268.65 77.6345L269.245 78.1185C269.571 78.4146 269.88 78.7285 270.171 79.0588C270.285 79.2026 270.43 79.3184 270.595 79.3975C270.761 79.4766 270.942 79.5168 271.125 79.5152C271.414 79.5138 271.693 79.411 271.914 79.2248C272.166 79.0122 272.325 78.7091 272.356 78.3806C272.387 78.0521 272.288 77.7246 272.08 77.4685C271.75 77.089 271.399 76.7288 271.029 76.3899L270.918 76.2931L270.641 76.058C270.655 75.8923 270.655 75.7258 270.641 75.5602C270.612 74.9199 270.392 74.3029 270.01 73.7881C269.628 73.2733 269.102 72.8842 268.497 72.6704C267.893 72.4566 267.239 72.4279 266.618 72.5879C265.997 72.7479 265.439 73.0895 265.013 73.5688H264.584H263.201C263.142 73.561 263.081 73.561 263.022 73.5688C262.923 73.5882 262.826 73.616 262.731 73.6518C262.619 73.7143 262.516 73.7936 262.427 73.8869C262.367 73.9713 262.311 74.059 262.261 74.1496C262.261 74.1496 262.261 74.2464 262.192 74.3017C262.171 74.4207 262.171 74.5424 262.192 74.6613C262.192 74.6613 262.192 74.7443 262.192 74.7858C262.207 75.0739 262.323 75.3475 262.521 75.5577C262.718 75.7679 262.984 75.9011 263.271 75.9335Z" fill="#321951"/>
<path d="M285.106 94.0074C285.107 93.1806 285.023 92.3559 284.857 91.5459V91.4491C285.427 91.1249 285.873 90.6206 286.126 90.0154C286.378 89.4102 286.422 88.7384 286.251 88.1054C286.08 87.4724 285.704 86.9141 285.181 86.5181C284.659 86.1221 284.02 85.9109 283.364 85.9176C282.88 85.9221 282.406 86.0456 281.981 86.2772H281.898C281.45 85.8442 280.953 85.4637 280.418 85.1432C280.275 85.0492 280.114 84.9857 279.945 84.9568C279.777 84.9279 279.604 84.9342 279.437 84.9752C279.271 85.0162 279.115 85.0911 278.979 85.1953C278.843 85.2994 278.73 85.4305 278.647 85.5803C278.564 85.7301 278.512 85.8955 278.496 86.066C278.48 86.2366 278.499 86.4086 278.553 86.5714C278.606 86.7341 278.692 86.8841 278.807 87.012C278.921 87.1398 279.06 87.2428 279.215 87.3143C279.567 87.5403 279.896 87.7996 280.197 88.0887C280.423 88.2968 280.635 88.5184 280.833 88.7525C281.057 89.018 281.26 89.3 281.442 89.596C281.444 89.6283 281.444 89.6606 281.442 89.6928C281.642 90.0158 281.817 90.3533 281.967 90.7023V90.8406C282.131 91.2438 282.261 91.6602 282.354 92.0852C282.504 92.7477 282.578 93.425 282.576 94.1042C282.576 94.4343 282.707 94.7509 282.94 94.9843C283.174 95.2177 283.49 95.3488 283.82 95.3488C284.15 95.3488 284.467 95.2177 284.7 94.9843C284.934 94.7509 285.065 94.4343 285.065 94.1042L285.106 94.0074Z" fill="#321951"/>
<path d="M282.465 118.443C282.144 118.368 281.807 118.424 281.527 118.598C281.247 118.771 281.047 119.049 280.972 119.37C280.909 119.616 280.826 119.856 280.723 120.089C280.373 119.701 279.946 119.391 279.47 119.176C278.994 118.962 278.479 118.849 277.957 118.844C277.454 118.844 276.957 118.943 276.493 119.136C276.029 119.329 275.608 119.611 275.253 119.967C274.899 120.323 274.618 120.745 274.427 121.21C274.236 121.674 274.138 122.172 274.14 122.675C274.139 123.215 274.254 123.75 274.478 124.241C274.703 124.733 275.031 125.17 275.44 125.523L274.998 125.731C274.734 125.841 274.517 126.038 274.382 126.29C274.247 126.541 274.202 126.832 274.256 127.112C274.309 127.392 274.457 127.646 274.676 127.83C274.894 128.014 275.168 128.118 275.454 128.123C275.614 128.123 275.773 128.095 275.924 128.04C276.408 127.847 276.851 127.625 277.307 127.404L277.501 127.28C277.763 127.141 277.998 127.003 278.233 126.851L278.482 126.685L279.16 126.187L279.354 126.035L279.976 125.496C280.018 125.446 280.065 125.4 280.114 125.357C280.322 125.164 280.515 124.956 280.709 124.749L280.778 124.666C280.974 124.455 281.159 124.233 281.331 124.002C282.267 122.818 282.958 121.46 283.364 120.006C283.412 119.844 283.426 119.674 283.407 119.507C283.387 119.34 283.333 119.178 283.249 119.032C283.165 118.886 283.052 118.758 282.918 118.657C282.783 118.556 282.629 118.483 282.465 118.443Z" fill="#321951"/>
<path d="M263.285 129.16C262.977 129.322 262.659 129.46 262.331 129.575C262.374 129.328 262.397 129.079 262.4 128.828C262.337 127.721 261.853 126.679 261.047 125.917C260.241 125.155 259.174 124.731 258.065 124.731C256.955 124.731 255.888 125.155 255.082 125.917C254.276 126.679 253.792 127.721 253.729 128.828L253.052 128.344C252.794 128.149 252.47 128.062 252.149 128.101C251.828 128.14 251.535 128.303 251.332 128.555C251.129 128.806 251.031 129.127 251.061 129.449C251.09 129.771 251.244 130.069 251.489 130.28C252.099 130.774 252.756 131.205 253.453 131.566C253.871 131.775 254.3 131.959 254.739 132.119H254.808C256.023 132.557 257.305 132.782 258.597 132.783C259.222 132.777 259.846 132.726 260.464 132.631C260.739 132.596 261.011 132.546 261.28 132.479C262.359 132.25 263.405 131.883 264.391 131.387C264.669 131.222 264.872 130.957 264.958 130.646C265.044 130.335 265.005 130.003 264.851 129.72C264.697 129.437 264.439 129.224 264.131 129.128C263.824 129.031 263.49 129.057 263.202 129.202L263.285 129.16Z" fill="#321951"/>
<path d="M251.668 115.594C252.125 115.513 252.588 115.476 253.051 115.483C253.865 115.491 254.668 115.661 255.416 115.981C255.674 116.11 255.919 116.263 256.149 116.438C256.512 116.709 256.825 117.041 257.075 117.419C257.189 117.59 257.344 117.73 257.525 117.826C257.706 117.923 257.908 117.973 258.113 117.973C258.354 117.972 258.59 117.9 258.79 117.765C258.928 117.676 259.046 117.56 259.139 117.424C259.231 117.289 259.296 117.136 259.33 116.976C259.363 116.815 259.364 116.649 259.333 116.488C259.303 116.327 259.24 116.174 259.15 116.037C258.77 115.477 258.303 114.982 257.767 114.571C257.976 114.194 258.086 113.771 258.085 113.34C258.116 112.658 257.879 111.991 257.425 111.482C256.97 110.973 256.335 110.661 255.654 110.614C254.973 110.567 254.301 110.788 253.781 111.231C253.261 111.673 252.934 112.301 252.871 112.98C252.245 112.978 251.621 113.034 251.005 113.146C250.845 113.182 250.694 113.248 250.559 113.342C250.425 113.436 250.311 113.555 250.223 113.694C250.135 113.832 250.075 113.986 250.047 114.147C250.018 114.308 250.022 114.473 250.057 114.633C250.093 114.793 250.159 114.944 250.253 115.078C250.347 115.212 250.466 115.327 250.604 115.415C250.742 115.502 250.897 115.562 251.058 115.591C251.219 115.619 251.384 115.616 251.544 115.58L251.668 115.594Z" fill="#321951"/>
<path d="M231.16 101.295C231.022 100.908 230.911 100.535 230.815 100.161C230.953 100.176 231.092 100.176 231.23 100.161C232.165 100.183 233.07 99.8328 233.747 99.1871C234.424 98.5413 234.817 97.6531 234.839 96.7179C234.861 95.7826 234.51 94.877 233.865 94.2001C233.219 93.5232 232.331 93.1306 231.395 93.1086C231.52 92.8203 231.668 92.5427 231.838 92.2789C231.992 92.0059 232.037 91.6851 231.964 91.3804C231.892 91.0757 231.707 90.8095 231.447 90.635C231.187 90.4605 230.871 90.3904 230.561 90.4388C230.252 90.4871 229.972 90.6504 229.777 90.896C229.366 91.5217 229.032 92.195 228.782 92.9011C228.78 92.9334 228.78 92.9657 228.782 92.998C227.959 95.2067 227.768 97.6009 228.229 99.9123C228.372 100.656 228.576 101.386 228.837 102.097C228.929 102.334 229.091 102.537 229.301 102.68C229.51 102.824 229.759 102.9 230.013 102.899C230.159 102.903 230.304 102.88 230.441 102.83C230.731 102.71 230.965 102.486 231.098 102.202C231.231 101.918 231.253 101.595 231.16 101.295Z" fill="#321951"/>
<path d="M267.461 85.5583C267.004 85.6348 266.541 85.6626 266.078 85.6413H265.511H265.276C265.057 85.6099 264.839 85.5637 264.626 85.503H264.543C263.147 85.0515 261.884 84.2631 260.865 83.2074C260.507 82.8616 260.179 82.4869 259.883 82.0873C259.689 81.8198 259.397 81.6393 259.071 81.585C258.745 81.5307 258.411 81.6068 258.14 81.7969C258.007 81.8906 257.893 82.0099 257.806 82.1478C257.719 82.2857 257.661 82.4396 257.634 82.6004C257.607 82.7613 257.612 82.9259 257.649 83.0847C257.686 83.2435 257.755 83.3933 257.85 83.5255C258.243 84.057 258.683 84.5522 259.164 85.0052L259.261 85.0881C258.983 85.6026 258.836 86.177 258.832 86.7614C258.819 87.621 259.108 88.4579 259.649 89.1257C260.191 89.7935 260.95 90.2497 261.794 90.4145C262.637 90.5793 263.512 90.4422 264.265 90.0272C265.018 89.6122 265.601 88.9457 265.912 88.1443H266.396C266.906 88.1424 267.414 88.1008 267.917 88.0198C268.244 87.9648 268.535 87.7824 268.727 87.5127C268.919 87.2429 268.996 86.908 268.941 86.5816C268.886 86.2552 268.703 85.964 268.434 85.7721C268.164 85.5802 267.829 85.5033 267.503 85.5583H267.461Z" fill="#321951"/>
<path d="M296.031 204.526C296.02 203.689 295.83 202.864 295.475 202.105C295.119 201.347 294.607 200.673 293.97 200.129C292.52 198.91 290.686 198.241 288.791 198.241C286.897 198.241 285.063 198.91 283.613 200.129L267.461 214.441C267.282 214.602 267.06 214.706 266.823 214.743C266.586 214.781 266.343 214.748 266.123 214.65C265.904 214.552 265.718 214.393 265.587 214.191C265.456 213.99 265.387 213.755 265.386 213.515V168.89C265.386 165.419 262.15 162.598 258.154 162.598C254.157 162.598 250.908 165.363 250.908 168.89V213.653C250.908 213.893 250.838 214.128 250.707 214.33C250.576 214.531 250.39 214.691 250.171 214.788C249.951 214.886 249.709 214.919 249.471 214.882C249.234 214.845 249.012 214.74 248.833 214.58L232.516 200.115C231.065 198.896 229.231 198.227 227.337 198.227C225.442 198.227 223.608 198.896 222.158 200.115C221.511 200.651 220.991 201.323 220.633 202.083C220.276 202.843 220.091 203.673 220.091 204.512C220.091 205.352 220.276 206.182 220.633 206.942C220.991 207.702 221.511 208.374 222.158 208.91L252.788 236.042C254.227 237.277 256.064 237.95 257.96 237.936H258.099C259.996 237.956 261.835 237.283 263.271 236.042L293.901 208.91C294.553 208.377 295.08 207.709 295.448 206.952C295.816 206.195 296.015 205.368 296.031 204.526Z" fill="white"/>
<path d="M281.967 198.262L267.889 210.708V168.89C267.889 164.036 263.52 160.109 258.209 160.109C252.899 160.109 248.529 164.036 248.529 168.89V210.888L234.272 198.262C232.368 196.634 229.946 195.739 227.441 195.739C224.935 195.739 222.513 196.634 220.609 198.262C219.7 199.032 218.97 199.991 218.469 201.071C217.968 202.152 217.709 203.329 217.709 204.52C217.709 205.711 217.968 206.888 218.469 207.968C218.97 209.049 219.7 210.007 220.609 210.777L251.184 237.923C251.847 238.51 252.587 239.003 253.383 239.389H223.292C217.926 239.389 213.612 243.33 213.612 248.17C213.612 253.01 217.982 256.951 223.292 256.951H292.836C298.202 256.951 302.517 253.024 302.517 248.17C302.517 243.316 298.147 239.389 292.836 239.389H262.759C263.562 239.007 264.307 238.513 264.972 237.923L295.616 210.791C296.525 210.021 297.255 209.063 297.756 207.982C298.257 206.901 298.516 205.725 298.516 204.534C298.516 203.343 298.257 202.166 297.756 201.085C297.255 200.004 296.525 199.046 295.616 198.276C293.712 196.648 291.29 195.753 288.785 195.753C286.28 195.753 283.857 196.648 281.953 198.276L281.967 198.262ZM292.836 254.462H223.292C219.295 254.462 216.046 251.696 216.046 248.17C216.046 244.644 219.295 241.878 223.292 241.878H292.836C296.833 241.878 300.083 244.644 300.083 248.17C300.083 251.696 296.819 254.462 292.836 254.462ZM258.099 237.951H257.919C256.023 237.964 254.186 237.291 252.747 236.056L222.144 208.924C221.497 208.388 220.977 207.716 220.62 206.956C220.262 206.196 220.077 205.367 220.077 204.527C220.077 203.687 220.262 202.857 220.62 202.097C220.977 201.337 221.497 200.665 222.144 200.129C223.594 198.91 225.428 198.242 227.323 198.242C229.218 198.242 231.052 198.91 232.502 200.129L248.82 214.594C248.999 214.754 249.22 214.859 249.457 214.896C249.695 214.933 249.938 214.901 250.157 214.803C250.376 214.705 250.563 214.545 250.693 214.344C250.824 214.143 250.894 213.908 250.894 213.667V168.89C250.894 165.419 254.144 162.598 258.14 162.598C262.137 162.598 265.373 165.364 265.373 168.89V213.501C265.373 213.742 265.443 213.977 265.573 214.178C265.704 214.379 265.89 214.539 266.11 214.637C266.329 214.735 266.572 214.767 266.809 214.73C267.046 214.693 267.268 214.588 267.447 214.428L283.599 200.115C285.049 198.896 286.883 198.228 288.778 198.228C290.672 198.228 292.506 198.896 293.957 200.115C294.593 200.66 295.106 201.334 295.461 202.092C295.816 202.85 296.006 203.676 296.017 204.513C296.01 205.352 295.82 206.18 295.462 206.939C295.104 207.698 294.586 208.371 293.943 208.91L263.312 236.042C261.868 237.297 260.012 237.977 258.099 237.951Z" fill="#321951"/>
<path d="M292.837 241.878H223.292C219.296 241.878 216.046 244.644 216.046 248.17C216.046 251.696 219.296 254.462 223.292 254.462H292.837C296.833 254.462 300.083 251.696 300.083 248.17C300.083 244.644 296.819 241.878 292.837 241.878Z" fill="white"/>
<path d="M380.441 90.0801L387.439 86.1113C389.665 84.8529 390.91 83.1935 390.924 81.4649C390.937 79.7363 389.707 78.063 387.494 76.7631L380.718 72.8081L373.721 81.4787L380.441 90.0801Z" fill="#8B6FE2"/>
<path d="M372.158 79.4734L378.547 71.5495L355.37 58.0112L372.158 79.4734Z" fill="#8B6FE2"/>
<path d="M355.246 104.365L378.257 91.3248L372.117 83.4839L355.246 104.365Z" fill="#8B6FE2"/>
<path d="M370.54 81.4513L349.548 54.6098L348.746 54.1396C348.07 53.7361 347.345 53.4201 346.589 53.1992C346.059 53.0395 345.51 52.9557 344.957 52.9503C344.096 52.9351 343.254 53.2076 342.565 53.7247C341.873 54.3571 341.335 55.1396 340.992 56.0121C340.649 56.8846 340.511 57.824 340.587 58.7584L340.297 103.522C340.297 106.523 341.472 108.652 343.477 109.219C343.864 109.332 344.264 109.388 344.667 109.385C345.984 109.324 347.264 108.929 348.387 108.237L349.341 107.698L370.54 81.4513Z" fill="#8B6FE2"/>
<path d="M388.752 74.6196L381.243 70.2359C381.485 70.436 381.64 70.7218 381.676 71.0336C381.713 71.3454 381.627 71.6591 381.437 71.9092L380.746 72.7804L387.522 76.7354C389.734 78.0353 390.951 79.7086 390.951 81.4372C390.951 83.1657 389.693 84.8252 387.466 86.0836L380.469 90.0524L381.064 90.8268C381.204 91.0112 381.29 91.2305 381.313 91.4608C381.337 91.691 381.296 91.9232 381.196 92.1319C381.096 92.3406 380.94 92.5177 380.746 92.6436C380.552 92.7696 380.327 92.8396 380.096 92.8458C379.906 92.8475 379.718 92.8045 379.547 92.7205C379.377 92.6364 379.228 92.5136 379.114 92.3618L378.27 91.297L355.273 104.337L351.124 109.44C351.007 109.579 350.861 109.691 350.696 109.767C350.532 109.844 350.352 109.883 350.17 109.883C349.877 109.881 349.594 109.779 349.368 109.592C349.243 109.488 349.14 109.361 349.065 109.217C348.989 109.073 348.943 108.915 348.929 108.753C348.915 108.591 348.933 108.428 348.982 108.273C349.031 108.118 349.111 107.974 349.216 107.85L349.354 107.67L348.4 108.21C347.278 108.902 345.998 109.296 344.68 109.357C344.278 109.36 343.877 109.304 343.491 109.191C341.486 108.624 340.297 106.426 340.31 103.494L340.601 58.7304C340.524 57.7961 340.663 56.8567 341.006 55.9842C341.348 55.1116 341.886 54.3292 342.578 53.6968C343.267 53.1797 344.109 52.9072 344.971 52.9224C345.524 52.9278 346.073 53.0116 346.603 53.1713C347.359 53.3922 348.083 53.7082 348.76 54.1116L349.562 54.5818L349.327 54.2776C349.147 54.0706 349.043 53.8092 349.031 53.5357C349.019 53.2621 349.099 52.9924 349.259 52.7701C349.419 52.5478 349.649 52.3859 349.912 52.3107C350.175 52.2354 350.456 52.2512 350.71 52.3554L350.046 51.9682C349.18 51.4515 348.25 51.0516 347.28 50.7789C346.247 50.4348 345.148 50.3394 344.072 50.5004C342.995 50.6614 341.972 51.0743 341.085 51.7055C340.081 52.5647 339.29 53.645 338.774 54.8615C338.258 56.0781 338.032 57.3976 338.112 58.7166L337.821 103.48C337.821 107.629 339.661 110.699 342.813 111.584C343.421 111.755 344.049 111.844 344.68 111.846C346.429 111.794 348.135 111.289 349.631 110.381L388.656 88.2547C391.698 86.5261 393.385 84.1061 393.413 81.451C393.44 78.7959 391.767 76.3759 388.752 74.6196Z" fill="#321951"/>
<path d="M355.356 57.9977L378.547 71.536L379.46 70.4159C379.638 70.1958 379.885 70.043 380.162 69.9827C380.439 69.9224 380.727 69.9581 380.981 70.084L351.111 52.646C351.172 52.6796 351.228 52.7215 351.277 52.7705L355.356 57.9977Z" fill="#321951"/>
<path d="M349.52 52.5631C349.391 52.6631 349.283 52.7878 349.203 52.9299C349.122 53.072 349.071 53.2287 349.052 53.3909C349.032 53.553 349.045 53.7174 349.09 53.8745C349.135 54.0315 349.211 54.178 349.313 54.3055L349.548 54.6098L370.54 81.4513L349.368 107.684L349.23 107.864C349.125 107.988 349.045 108.132 348.996 108.287C348.947 108.442 348.929 108.605 348.943 108.767C348.957 108.929 349.003 109.087 349.078 109.231C349.154 109.375 349.257 109.503 349.382 109.607C349.608 109.793 349.891 109.895 350.184 109.897C350.366 109.897 350.545 109.858 350.71 109.781C350.875 109.705 351.021 109.593 351.138 109.454L355.287 104.352L372.158 83.4564L378.284 91.3111L379.128 92.3759C379.226 92.5067 379.351 92.6161 379.493 92.6977C379.635 92.7793 379.792 92.8313 379.955 92.8507C380.117 92.87 380.282 92.8564 380.44 92.8104C380.597 92.7645 380.743 92.6873 380.87 92.5834C380.999 92.4834 381.107 92.3587 381.188 92.2166C381.268 92.0745 381.319 91.9178 381.339 91.7556C381.358 91.5935 381.345 91.4291 381.3 91.272C381.255 91.115 381.18 90.9685 381.077 90.841L380.483 90.0666L373.762 81.4651L380.759 72.7945L381.451 71.9233C381.641 71.6733 381.726 71.3596 381.69 71.0478C381.654 70.7359 381.499 70.4501 381.257 70.25C381.189 70.2023 381.115 70.165 381.036 70.1394C380.782 70.0135 380.494 69.9778 380.217 70.0381C379.941 70.0984 379.693 70.2512 379.515 70.4713L378.602 71.5914L372.199 79.5153L355.356 57.9978L351.277 52.7705C351.227 52.7215 351.172 52.6797 351.111 52.6461C350.986 52.5249 350.834 52.4349 350.668 52.3833C350.477 52.3165 350.272 52.2979 350.072 52.3293C349.871 52.3606 349.682 52.441 349.52 52.5631Z" fill="black"/>
<path d="M146.902 333.714C157.624 333.714 168.104 330.535 177.019 324.579C185.934 318.622 192.882 310.156 196.984 300.251C201.087 290.345 202.161 279.446 200.069 268.93C197.978 258.415 192.815 248.756 185.234 241.175C177.652 233.593 167.993 228.431 157.478 226.339C146.962 224.247 136.063 225.321 126.158 229.424C116.252 233.527 107.786 240.475 101.83 249.389C95.8731 258.304 92.6938 268.784 92.6938 279.506C92.7085 293.878 98.4244 307.658 108.587 317.821C118.75 327.984 132.53 333.7 146.902 333.714ZM146.902 320.84H146.764C144.095 320.727 141.573 319.584 139.73 317.65C137.887 315.716 136.867 313.142 136.883 310.471C136.899 307.799 137.951 305.238 139.817 303.326C141.683 301.415 144.218 300.302 146.889 300.221H147.027C149.696 300.334 152.217 301.477 154.06 303.412C155.903 305.346 156.924 307.919 156.908 310.591C156.892 313.262 155.84 315.823 153.974 317.735C152.108 319.646 149.573 320.76 146.902 320.84ZM166.594 300.097C165.475 301.158 163.989 301.748 162.446 301.742H162.363C161.544 301.738 160.734 301.565 159.985 301.234C159.236 300.903 158.562 300.422 158.007 299.82C156.514 298.212 154.709 296.925 152.703 296.039C150.696 295.152 148.529 294.683 146.335 294.662H146.086C141.916 294.664 137.906 296.268 134.885 299.143C133.712 300.252 132.145 300.85 130.531 300.804C128.917 300.759 127.386 300.074 126.277 298.901C125.167 297.727 124.57 296.161 124.615 294.546C124.66 292.932 125.345 291.402 126.519 290.292C131.802 285.284 138.807 282.497 146.086 282.507H146.46C150.288 282.555 154.067 283.378 157.568 284.928C161.069 286.478 164.22 288.721 166.83 291.523C167.937 292.695 168.536 294.257 168.494 295.869C168.453 297.481 167.775 299.011 166.608 300.124L166.594 300.097ZM178.625 288.384C177.502 289.44 176.019 290.029 174.477 290.03H174.38C173.564 290.026 172.758 289.854 172.011 289.526C171.264 289.198 170.592 288.72 170.038 288.121C167.029 284.884 163.394 282.293 159.352 280.505C155.311 278.717 150.948 277.77 146.529 277.722H146.086C137.552 277.739 129.362 281.094 123.269 287.07C122.114 288.196 120.558 288.816 118.945 288.795C117.333 288.775 115.794 288.114 114.668 286.96C113.531 285.812 112.894 284.261 112.898 282.645C112.907 281.843 113.075 281.051 113.393 280.315C113.711 279.579 114.173 278.914 114.751 278.358C123.118 270.158 134.37 265.569 146.086 265.58H146.667C152.718 265.646 158.692 266.941 164.226 269.387C169.76 271.833 174.739 275.38 178.86 279.81C179.41 280.391 179.838 281.075 180.121 281.823C180.403 282.571 180.534 283.367 180.506 284.166C180.475 285.786 179.804 287.327 178.639 288.453L178.625 288.384ZM146.086 248.613H146.902C155.173 248.705 163.339 250.476 170.906 253.818C178.472 257.16 185.28 262.004 190.919 268.056C191.729 268.923 192.269 270.008 192.471 271.178C192.674 272.347 192.53 273.55 192.059 274.64C191.588 275.729 190.809 276.657 189.818 277.31C188.827 277.963 187.667 278.313 186.48 278.317C185.662 278.309 184.853 278.134 184.104 277.804C183.355 277.473 182.682 276.994 182.124 276.394C177.596 271.532 172.126 267.642 166.048 264.96C159.969 262.278 153.408 260.862 146.764 260.796H146.086C133.136 260.791 120.709 265.905 111.515 275.025C110.377 276.149 108.84 276.775 107.242 276.768C106.034 276.762 104.856 276.397 103.857 275.719C102.858 275.041 102.083 274.082 101.63 272.962C101.178 271.843 101.069 270.614 101.317 269.433C101.565 268.251 102.16 267.17 103.024 266.327C114.484 254.979 129.959 248.613 146.086 248.613Z" fill="white"/>
<path d="M146.902 336.203C151.089 336.205 155.263 335.741 159.348 334.82C164.61 333.638 169.673 331.7 174.38 329.068C176.582 331.539 179.295 333.502 182.331 334.82C185.382 336.163 188.678 336.856 192.011 336.853H322.527C325.859 336.853 329.155 336.16 332.207 334.82C336.165 333.179 339.556 330.415 341.962 326.869C344.368 323.323 345.683 319.15 345.745 314.866V123.006H390.135C395.598 122.999 400.834 120.826 404.697 116.963C408.559 113.101 410.733 107.864 410.74 102.402V59.1039C410.733 53.6414 408.559 48.4047 404.697 44.5422C400.834 40.6796 395.598 38.5064 390.135 38.4991H345.745V21.9876C345.745 9.85986 335.332 0 322.54 0H192.067C179.275 0 168.876 9.85986 168.876 21.9876V227.247C161.136 223.99 152.768 222.492 144.379 222.863C135.989 223.234 127.787 225.464 120.364 229.392C112.942 233.32 106.484 238.848 101.459 245.576C96.4334 252.304 92.9652 260.065 91.305 268.297C89.6448 276.529 89.834 285.027 91.859 293.177C93.8839 301.327 97.694 308.925 103.014 315.423C108.334 321.921 115.031 327.156 122.621 330.75C130.211 334.343 138.504 336.206 146.902 336.203ZM146.902 225.311C157.624 225.311 168.105 228.491 177.02 234.448C185.935 240.405 192.883 248.872 196.986 258.778C201.088 268.684 202.161 279.584 200.068 290.1C197.975 300.616 192.811 310.275 185.228 317.856C177.646 325.436 167.986 330.598 157.469 332.688C146.953 334.778 136.053 333.703 126.148 329.598C116.243 325.493 107.778 318.542 101.823 309.626C95.8678 300.71 92.6909 290.228 92.6936 279.506C92.7119 265.136 98.4295 251.36 108.592 241.2C118.754 231.04 132.532 225.326 146.902 225.311ZM192.067 2.48917H322.582C334.004 2.48917 343.325 11.2289 343.325 21.9876V38.4991H335.539C330.077 38.5064 324.84 40.6796 320.978 44.5422C317.115 48.4047 314.942 53.6414 314.935 59.1039V102.402C314.942 107.864 317.115 113.101 320.978 116.963C324.84 120.826 330.077 122.999 335.539 123.006H343.339V314.838C343.339 325.583 334.046 334.336 322.596 334.336H192.067C189.181 334.355 186.321 333.781 183.666 332.648C181.012 331.516 178.618 329.85 176.634 327.754C185.299 322.409 192.366 314.828 197.09 305.809C201.815 296.79 204.024 286.665 203.485 276.497C202.946 266.33 199.679 256.495 194.027 248.026C188.375 239.557 180.547 232.767 171.365 228.367V21.9876C171.365 11.2289 180.658 2.48917 192.067 2.48917ZM408.292 102.402C408.289 107.205 406.379 111.811 402.982 115.207C399.586 118.604 394.98 120.513 390.177 120.517H335.539C330.737 120.51 326.134 118.599 322.738 115.203C319.342 111.807 317.431 107.204 317.424 102.402V59.1039C317.431 54.3016 319.342 49.698 322.738 46.3023C326.134 42.9065 330.737 40.9956 335.539 40.9883H390.218C395.022 40.9919 399.627 42.9017 403.024 46.2983C406.42 49.6948 408.33 54.3004 408.334 59.1039L408.292 102.402Z" fill="#321951"/>
<path d="M146.916 318.351C148.968 318.34 150.935 317.527 152.395 316.085C153.855 314.642 154.693 312.686 154.729 310.634C154.752 308.562 153.952 306.565 152.506 305.08C151.06 303.595 149.085 302.743 147.013 302.71C145.96 302.654 144.907 302.811 143.917 303.172C142.926 303.533 142.019 304.091 141.249 304.811C140.48 305.531 139.863 306.4 139.437 307.364C139.011 308.328 138.785 309.368 138.771 310.422C138.757 311.477 138.956 312.523 139.356 313.498C139.756 314.473 140.349 315.357 141.1 316.098C141.85 316.838 142.742 317.419 143.723 317.806C144.703 318.194 145.752 318.379 146.805 318.351L146.916 319.595V318.351Z" fill="#00DA9C"/>
<path d="M147.041 300.221H146.902C144.232 300.302 141.697 301.415 139.831 303.326C137.965 305.238 136.913 307.799 136.897 310.47C136.881 313.142 137.901 315.716 139.744 317.65C141.587 319.584 144.109 320.727 146.778 320.84H146.916C149.624 320.829 152.22 319.757 154.146 317.855C156.072 315.952 157.175 313.369 157.219 310.662C157.252 307.928 156.199 305.293 154.29 303.335C152.382 301.378 149.774 300.258 147.041 300.221ZM146.916 319.581L146.806 318.337C145.752 318.365 144.703 318.18 143.723 317.793C142.742 317.406 141.85 316.824 141.1 316.084C140.349 315.344 139.756 314.459 139.356 313.484C138.956 312.509 138.757 311.463 138.771 310.409C138.785 309.355 139.012 308.314 139.438 307.35C139.863 306.386 140.48 305.517 141.249 304.797C142.019 304.077 142.927 303.52 143.917 303.159C144.907 302.798 145.96 302.641 147.013 302.697C149.085 302.729 151.06 303.581 152.506 305.066C153.952 306.551 154.752 308.548 154.729 310.62C154.693 312.672 153.856 314.629 152.395 316.071C150.935 317.513 148.969 318.326 146.916 318.337V319.581Z" fill="#321951"/>
<path d="M162.446 299.281C163.148 299.282 163.835 299.078 164.422 298.693C165.009 298.308 165.471 297.76 165.751 297.116C166.03 296.472 166.115 295.76 165.994 295.068C165.874 294.377 165.554 293.735 165.073 293.224C162.691 290.662 159.812 288.613 156.612 287.201C153.411 285.789 149.957 285.043 146.46 285.009H146.086C139.446 285.016 133.06 287.57 128.247 292.145C127.557 292.804 127.155 293.708 127.127 294.662C127.113 295.134 127.192 295.604 127.361 296.046C127.529 296.487 127.784 296.891 128.109 297.234C128.775 297.905 129.674 298.293 130.619 298.319C131.564 298.345 132.482 298.006 133.184 297.372C136.66 294.053 141.28 292.196 146.086 292.186H146.321C148.853 292.21 151.353 292.75 153.668 293.772C155.984 294.795 158.067 296.278 159.79 298.133C160.119 298.488 160.516 298.772 160.959 298.967C161.401 299.162 161.879 299.264 162.363 299.267V300.511L162.446 299.281Z" fill="#00DA9C"/>
<path d="M146.488 282.506H146.087C138.808 282.508 131.808 285.305 126.533 290.32C125.359 291.429 124.674 292.959 124.629 294.574C124.583 296.188 125.181 297.754 126.291 298.928C127.4 300.102 128.93 300.786 130.545 300.832C132.159 300.877 133.725 300.279 134.899 299.17C137.92 296.296 141.93 294.692 146.1 294.689H146.308C148.502 294.711 150.668 295.179 152.675 296.066C154.682 296.953 156.487 298.24 157.979 299.848C158.535 300.449 159.208 300.931 159.957 301.261C160.707 301.592 161.516 301.765 162.335 301.77H162.418C163.961 301.775 165.447 301.186 166.567 300.124C167.741 299.018 168.429 297.493 168.481 295.88C168.533 294.268 167.944 292.702 166.843 291.523C164.235 288.723 161.087 286.48 157.589 284.93C154.09 283.381 150.314 282.556 146.488 282.506ZM162.446 300.484V299.239C161.962 299.237 161.484 299.135 161.042 298.939C160.599 298.744 160.202 298.46 159.874 298.105C158.151 296.251 156.067 294.767 153.752 293.745C151.436 292.722 148.936 292.183 146.405 292.159H146.087C141.277 292.161 136.653 294.013 133.171 297.331C132.469 297.964 131.55 298.303 130.605 298.278C129.66 298.252 128.761 297.863 128.095 297.192C127.77 296.85 127.516 296.446 127.347 296.004C127.179 295.563 127.099 295.093 127.114 294.62C127.141 293.667 127.543 292.762 128.234 292.103C133.055 287.535 139.445 284.991 146.087 284.996H146.432C149.93 285.029 153.384 285.775 156.584 287.187C159.784 288.6 162.663 290.649 165.046 293.21C165.526 293.722 165.847 294.363 165.967 295.055C166.088 295.746 166.003 296.458 165.723 297.102C165.444 297.746 164.982 298.294 164.395 298.679C163.807 299.064 163.12 299.268 162.418 299.267V300.511L162.446 300.484Z" fill="#321951"/>
<path d="M174.476 287.568C175.41 287.568 176.307 287.204 176.975 286.553C177.644 285.902 178.033 285.016 178.058 284.083C178.086 283.132 177.738 282.208 177.09 281.511C173.193 277.328 168.487 273.98 163.257 271.669C158.028 269.359 152.384 268.134 146.667 268.069H146.086C135.029 268.075 124.415 272.414 116.52 280.156C116.181 280.485 115.911 280.878 115.724 281.312C115.536 281.746 115.437 282.213 115.431 282.686C115.424 283.158 115.511 283.628 115.686 284.067C115.861 284.506 116.121 284.906 116.451 285.245C117.127 285.91 118.034 286.288 118.982 286.301C119.93 286.314 120.847 285.96 121.54 285.314C128.093 278.882 136.904 275.273 146.086 275.26H146.543C151.292 275.315 155.981 276.334 160.325 278.258C164.668 280.181 168.575 282.967 171.808 286.448C172.14 286.797 172.539 287.075 172.98 287.268C173.422 287.46 173.898 287.562 174.38 287.568V288.812L174.476 287.568Z" fill="#00DA9C"/>
<path d="M146.709 265.58H146.086C134.37 265.569 123.118 270.157 114.75 278.358C114.173 278.914 113.711 279.579 113.393 280.315C113.075 281.051 112.906 281.843 112.897 282.645C112.879 284.259 113.501 285.815 114.626 286.973C115.752 288.128 117.291 288.788 118.904 288.809C120.517 288.83 122.072 288.209 123.227 287.084C129.333 281.102 137.539 277.752 146.086 277.749H146.515C150.934 277.798 155.297 278.745 159.338 280.532C163.38 282.32 167.015 284.911 170.024 288.149C170.578 288.747 171.25 289.225 171.997 289.553C172.744 289.882 173.55 290.053 174.366 290.057H174.463C176.005 290.056 177.488 289.468 178.611 288.411C179.781 287.302 180.467 285.777 180.52 284.166C180.548 283.367 180.417 282.57 180.134 281.823C179.852 281.075 179.423 280.391 178.874 279.81C174.756 275.383 169.782 271.838 164.252 269.392C158.723 266.946 152.754 265.649 146.709 265.58ZM174.477 288.812V287.568C173.995 287.562 173.519 287.46 173.077 287.268C172.635 287.075 172.237 286.797 171.904 286.448C168.672 282.967 164.765 280.181 160.422 278.257C156.078 276.334 151.389 275.314 146.639 275.26H146.086C136.892 275.258 128.064 278.863 121.499 285.3C120.805 285.946 119.889 286.3 118.94 286.287C117.992 286.275 117.086 285.896 116.41 285.231C116.08 284.892 115.82 284.492 115.645 284.053C115.47 283.614 115.383 283.145 115.389 282.672C115.396 282.199 115.495 281.732 115.682 281.298C115.869 280.864 116.14 280.471 116.479 280.142C124.386 272.395 135.017 268.061 146.086 268.069H146.626C152.342 268.134 157.987 269.358 163.216 271.669C168.446 273.979 173.152 277.328 177.049 281.511C177.697 282.208 178.044 283.132 178.017 284.083C177.991 285.016 177.603 285.902 176.934 286.553C176.265 287.204 175.368 287.568 174.435 287.568V288.812H174.477Z" fill="#321951"/>
<path d="M186.508 275.827C187.441 275.824 188.338 275.459 189.008 274.81C189.678 274.16 190.071 273.275 190.103 272.342C190.133 271.387 189.785 270.458 189.135 269.756C183.722 263.951 177.187 259.305 169.925 256.101C162.663 252.896 154.826 251.2 146.888 251.115H146.086C130.599 251.103 115.735 257.218 104.739 268.125C104.405 268.457 104.139 268.853 103.959 269.288C103.778 269.724 103.685 270.191 103.685 270.662C103.685 271.134 103.778 271.601 103.959 272.036C104.139 272.471 104.405 272.867 104.739 273.2C105.421 273.855 106.33 274.22 107.276 274.22C108.222 274.22 109.131 273.855 109.814 273.2C119.473 263.653 132.505 258.297 146.086 258.292H146.75C153.721 258.37 160.604 259.863 166.979 262.683C173.355 265.502 179.091 269.588 183.839 274.693C184.168 275.047 184.566 275.329 185.008 275.524C185.451 275.719 185.928 275.822 186.411 275.827V277.072L186.508 275.827Z" fill="#00DA9C"/>
<path d="M102.941 274.942C103.509 275.517 104.185 275.973 104.93 276.284C105.676 276.594 106.475 276.754 107.283 276.754C108.867 276.75 110.387 276.124 111.515 275.011C120.711 265.896 133.138 260.787 146.086 260.795H146.709C153.348 260.865 159.903 262.284 165.977 264.965C172.051 267.647 177.516 271.535 182.041 276.394C182.599 276.993 183.272 277.473 184.021 277.803C184.77 278.134 185.579 278.308 186.397 278.316C187.94 278.309 189.423 277.716 190.546 276.657C191.718 275.549 192.404 274.022 192.453 272.41C192.502 270.798 191.911 269.233 190.808 268.055C185.17 262.004 178.361 257.16 170.795 253.818C163.229 250.476 155.063 248.705 146.792 248.612H146.086C129.959 248.613 114.484 254.979 103.024 266.327C101.875 267.461 101.222 269.003 101.206 270.617C101.191 272.231 101.814 273.786 102.941 274.942ZM186.508 277.072V275.827C186.025 275.822 185.547 275.719 185.105 275.524C184.663 275.329 184.265 275.047 183.936 274.693C179.188 269.588 173.452 265.502 167.076 262.683C160.7 259.863 153.818 258.37 146.847 258.292H146.086C132.495 258.304 119.456 263.676 109.8 273.241C109.117 273.896 108.208 274.262 107.262 274.262C106.316 274.262 105.407 273.896 104.725 273.241C104.391 272.908 104.126 272.513 103.945 272.078C103.764 271.642 103.671 271.175 103.671 270.704C103.671 270.232 103.764 269.765 103.945 269.33C104.126 268.894 104.391 268.499 104.725 268.166C115.717 257.241 130.588 251.11 146.086 251.115H146.861C154.799 251.202 162.637 252.9 169.899 256.107C177.161 259.314 183.696 263.962 189.107 269.77C189.758 270.471 190.105 271.4 190.076 272.356C190.043 273.289 189.651 274.174 188.98 274.823C188.31 275.473 187.414 275.838 186.48 275.841V277.086L186.508 277.072Z" fill="#321951"/>
<path d="M250.341 18.0605C251.183 18.0605 252.007 17.8107 252.707 17.3427C253.408 16.8747 253.953 16.2094 254.276 15.4312C254.598 14.6529 254.683 13.7965 254.518 12.9703C254.354 12.1441 253.948 11.3852 253.353 10.7895C252.757 10.1938 251.998 9.78818 251.172 9.62383C250.346 9.45949 249.489 9.54384 248.711 9.86621C247.933 10.1886 247.267 10.7345 246.799 11.4349C246.331 12.1354 246.082 12.9588 246.082 13.8012C246.082 14.9309 246.53 16.0142 247.329 16.813C248.128 17.6117 249.211 18.0605 250.341 18.0605Z" fill="#321951"/>
<path d="M262.372 17.2306C263.05 17.2306 263.713 17.0295 264.277 16.6526C264.841 16.2758 265.281 15.7402 265.54 15.1135C265.8 14.4869 265.868 13.7973 265.736 13.132C265.603 12.4668 265.277 11.8557 264.797 11.3761C264.317 10.8964 263.706 10.5698 263.041 10.4375C262.376 10.3052 261.686 10.3731 261.059 10.6326C260.433 10.8922 259.897 11.3318 259.52 11.8958C259.144 12.4597 258.942 13.1228 258.942 13.8011C258.942 14.2515 259.031 14.6974 259.203 15.1135C259.376 15.5296 259.628 15.9077 259.947 16.2261C260.265 16.5446 260.643 16.7972 261.059 16.9696C261.476 17.1419 261.922 17.2306 262.372 17.2306Z" fill="#321951"/>
</g>
<defs>
<clipPath id="clip0_2051_111669">
<rect width="501" height="337.296" fill="white"/>
</clipPath>
</defs>
</svg>
