<svg width="502" height="338" viewBox="0 0 502 338" fill="none" xmlns="http://www.w3.org/2000/svg">
<path d="M335.79 38.6638H343.542V22.0341C343.542 11.2248 334.268 2.49414 322.78 2.49414H307.416C305.893 2.49414 304.647 3.60279 304.647 4.9886V8.03739C304.647 12.7492 300.633 16.6294 295.651 16.6294H219.246C214.264 16.6294 210.25 12.7492 210.25 8.03739V4.9886C210.25 3.60279 209.004 2.49414 207.481 2.49414H192.117C180.629 2.49414 171.355 11.2248 171.355 22.0341V228.797C190.456 237.944 203.606 257.484 203.606 280.072C203.606 300.444 192.81 318.459 176.615 328.437C180.629 332.595 186.166 335.089 192.117 335.089H322.78C334.268 335.089 343.542 326.359 343.542 315.549V123.337H335.79C324.441 123.337 315.167 114.052 315.167 102.688V59.3125C315.167 47.8102 324.441 38.6638 335.79 38.6638Z" fill="#F1E6FF"/>
<path d="M390.464 41.1592H335.79C325.825 41.1592 317.658 49.3355 317.658 59.3133V102.689C317.658 112.667 325.825 120.843 335.79 120.843H390.464C400.429 120.843 408.596 112.667 408.596 102.689V59.3133C408.596 49.1969 400.429 41.1592 390.464 41.1592Z" fill="white"/>
<path d="M253.02 236.559C254.404 237.806 256.203 238.499 258.141 238.499H258.279C260.217 238.499 262.017 237.806 263.401 236.559L294.129 209.397C295.513 208.15 296.205 206.626 296.205 204.963C296.205 203.3 295.513 201.775 294.129 200.528C292.744 199.281 290.945 198.588 289.007 198.588C287.069 198.588 285.27 199.281 283.886 200.528L267.692 214.802C267.276 215.079 266.861 215.218 266.307 214.94C265.892 214.802 265.615 214.248 265.615 213.832V169.07C265.615 165.606 262.432 162.695 258.418 162.695C254.404 162.695 251.22 165.467 251.22 169.07V213.97C251.22 214.525 250.944 214.94 250.528 215.079C250.113 215.218 249.559 215.218 249.144 214.94L232.811 200.389C231.427 199.142 229.628 198.449 227.69 198.449C225.752 198.449 223.815 199.142 222.569 200.389C221.185 201.637 220.493 203.161 220.493 204.824C220.493 206.487 221.185 208.011 222.569 209.259L253.02 236.559Z" fill="white"/>
<path d="M293.021 242.379H223.399C219.385 242.379 216.202 245.151 216.202 248.615C216.202 252.08 219.524 254.851 223.399 254.851H293.021C297.035 254.851 300.218 252.08 300.218 248.615C300.357 245.289 297.035 242.379 293.021 242.379Z" fill="white"/>
<path d="M146.995 225.751C117.098 225.751 92.7368 250.141 92.7368 280.075C92.7368 310.008 117.098 334.399 146.995 334.399C176.892 334.399 201.253 310.008 201.253 280.075C201.253 250.141 176.892 225.751 146.995 225.751Z" fill="white"/>
<path d="M291.775 105.876C291.498 106.015 291.083 106.015 290.667 105.738C290.114 105.322 289.975 104.629 290.252 104.075C293.574 98.9473 290.529 91.6025 287.899 86.475C286.515 83.842 283.332 78.2987 279.456 76.3586C279.318 76.4972 279.179 76.6358 279.041 76.7743C278.487 77.1901 277.657 77.0515 277.38 76.4972L276.411 75.2499C271.29 69.1524 264.369 68.7366 260.77 69.0138V69.1524C260.493 69.7067 259.801 70.1224 259.109 69.8453L257.725 69.291C251.081 67.2122 241.669 71.6468 237.932 75.1114C236.41 76.4972 235.025 78.1601 233.918 79.6845C234.333 79.8231 234.61 80.1003 234.749 80.516C234.887 81.2089 234.61 81.9018 233.918 82.0404L232.811 82.4562C229.35 83.842 227.689 87.7223 226.305 91.4639C224.921 95.0671 224.506 98.1158 224.921 100.887C225.198 100.749 225.475 100.749 225.752 100.887C226.305 101.165 226.721 101.858 226.444 102.412L225.752 104.352C224.783 107.955 225.752 111.697 227.413 114.746C227.689 114.607 227.966 114.607 228.243 114.607C228.935 114.746 229.35 115.3 229.212 115.993L229.074 117.101C229.074 120.705 233.226 124.585 234.61 125.832C238.347 129.019 244.022 133.454 250.666 134.84C251.081 134.978 251.497 134.978 251.912 134.978C251.773 134.563 251.912 134.147 252.189 133.731C252.604 133.177 253.434 133.177 253.85 133.593L254.68 134.286C258.279 136.78 264.369 135.949 268.798 134.008C268.66 133.731 268.66 133.454 268.66 133.177C268.798 132.484 269.49 132.068 270.044 132.207H270.321C271.428 132.345 276.688 132.623 284.024 123.892C290.806 115.993 291.775 109.48 291.775 105.876Z" fill="#FBC22D"/>
<path d="M355.583 104.629L378.56 91.4637L372.331 83.7031L355.583 104.629Z" fill="#8B6FE2"/>
<path d="M378.836 71.6484L355.583 58.2061L372.469 79.6861L378.836 71.6484Z" fill="#8B6FE2"/>
<path d="M387.833 76.9144L381.051 72.8955L373.992 81.6261L380.774 90.2182L387.833 86.1993C390.048 84.9521 391.294 83.2891 391.294 81.4875C391.294 79.9632 390.048 78.3002 387.833 76.9144Z" fill="#8B6FE2"/>
<path d="M349.77 54.7411L348.939 54.3254C348.247 53.9096 347.417 53.6325 346.725 53.3553C346.171 53.2167 345.617 53.0781 345.064 53.0781C344.095 53.0781 343.403 53.3553 342.711 53.9096C341.465 54.8797 340.773 56.6812 340.773 58.8985L340.496 103.799C340.496 106.848 341.603 108.926 343.68 109.481C344.095 109.619 344.51 109.619 344.925 109.619C346.033 109.619 347.278 109.204 348.662 108.511L349.631 107.956L370.809 81.6259L349.77 54.7411Z" fill="#8B6FE2"/>
<path d="M147.133 303.354C142.703 303.354 139.243 306.818 139.243 311.114C139.243 315.41 142.703 319.013 146.994 319.013L147.133 320.26V319.013C151.424 319.013 154.884 315.549 155.022 311.253C155.022 309.174 154.192 307.234 152.808 305.709C151.147 304.185 149.209 303.354 147.133 303.354Z" fill="#00DA9C"/>
<path d="M146.579 285.616H146.302C139.658 285.616 133.291 288.111 128.447 292.822C127.755 293.515 127.339 294.347 127.339 295.317C127.339 296.287 127.616 297.257 128.308 297.95C129.692 299.336 132.045 299.474 133.43 298.088C136.89 294.763 141.596 292.961 146.302 292.961H146.579C151.7 292.961 156.545 295.178 160.005 298.92C160.697 299.613 161.527 300.029 162.635 300.029V301.276V300.029C163.604 300.029 164.434 299.751 165.126 299.059C166.51 297.673 166.649 295.455 165.265 293.931C160.282 288.665 153.638 285.755 146.579 285.616Z" fill="#00DA9C"/>
<path d="M146.718 268.708H146.164C135.091 268.708 124.572 273.004 116.544 280.765C115.852 281.457 115.437 282.289 115.437 283.259C115.437 284.229 115.852 285.199 116.405 285.754C117.79 287.139 120.143 287.139 121.527 285.892C128.171 279.379 136.891 275.776 146.164 275.776H146.58C156.268 275.914 165.127 279.933 171.909 287.001C172.601 287.694 173.432 288.109 174.539 288.109V289.357V288.109C175.508 288.109 176.338 287.694 177.03 287.139C177.722 286.446 178.138 285.615 178.138 284.645C178.138 283.675 177.861 282.705 177.169 282.012C169.141 273.558 158.345 268.847 146.718 268.708Z" fill="#00DA9C"/>
<path d="M189.21 270.372C178.137 258.454 163.05 251.94 146.994 251.663H146.164C130.662 251.663 115.99 257.761 104.778 268.709C103.394 270.094 103.394 272.45 104.778 273.836C106.162 275.222 108.515 275.222 109.9 273.836C119.727 264.135 132.599 258.869 146.302 258.869H146.994C161.113 259.008 174.262 264.828 184.089 275.36C184.781 276.053 185.612 276.469 186.719 276.469V277.716V276.469C187.688 276.469 188.518 276.053 189.21 275.499C189.902 274.806 190.318 273.975 190.318 273.005C190.318 272.035 189.902 271.064 189.21 270.372Z" fill="#00DA9C"/>
<path d="M500.087 335.505H332.469C340.497 332.041 346.033 324.419 346.033 315.549V123.337H390.464C401.814 123.337 411.087 114.052 411.087 102.689V59.3128C411.087 47.9491 401.814 38.6642 390.464 38.6642H346.033V22.0344C346.033 9.83927 335.652 0 322.78 0H192.118C179.384 0 168.864 9.83927 168.864 22.0344V227.689C162.082 224.779 154.608 223.254 146.856 223.254C115.575 223.254 90.107 248.753 90.107 280.073C90.107 307.096 109.07 329.685 134.261 335.505H1.24572C0.553654 335.505 0 336.059 0 336.752C0 337.445 0.553654 338 1.24572 338H500.225C500.918 338 501.471 337.445 501.471 336.752C501.471 336.059 500.779 335.505 500.087 335.505ZM390.464 41.1586C400.43 41.1586 408.596 49.3349 408.596 59.3128V102.689C408.596 112.667 400.43 120.843 390.464 120.843H335.791C325.825 120.843 317.658 112.667 317.658 102.689V59.3128C317.658 49.3349 325.825 41.1586 335.791 41.1586H390.464ZM171.494 22.0344C171.494 11.2251 180.768 2.49446 192.256 2.49446H207.62C209.142 2.49446 210.388 3.60311 210.388 4.98892V8.03771C210.388 12.7495 214.402 16.6297 219.385 16.6297H295.651C300.634 16.6297 304.648 12.7495 304.648 8.03771V4.98892C304.648 3.60311 305.893 2.49446 307.416 2.49446H322.78C334.268 2.49446 343.542 11.2251 343.542 22.0344V38.5256H335.791C324.441 38.5256 315.167 47.8105 315.167 59.1742V102.55C315.167 113.914 324.441 123.199 335.791 123.199H343.542V315.411C343.542 326.22 334.268 334.951 322.78 334.951H192.118C186.166 334.951 180.629 332.595 176.615 328.299C192.81 318.321 203.606 300.306 203.606 279.934C203.606 257.345 190.457 237.805 171.356 228.659V22.0344H171.494ZM92.7369 280.073C92.7369 250.139 117.098 225.749 146.995 225.749C176.892 225.749 201.253 250.139 201.253 280.073C201.253 310.006 176.892 334.397 146.995 334.397C117.098 334.397 92.7369 310.006 92.7369 280.073ZM174.539 329.823C176.754 332.318 179.522 334.258 182.429 335.644H159.314C164.85 334.258 169.833 332.318 174.539 329.823Z" fill="#321951"/>
<path d="M213.571 326.912H294.266C294.958 326.912 295.512 326.358 295.512 325.665C295.512 324.972 294.958 324.418 294.266 324.418H213.571C212.879 324.418 212.326 324.972 212.326 325.665C212.326 326.358 212.879 326.912 213.571 326.912Z" fill="#321951"/>
<path d="M269.905 317.628C269.213 317.628 268.66 318.182 268.66 318.875C268.66 319.568 269.213 320.122 269.905 320.122H283.47C284.162 320.122 284.716 319.568 284.716 318.875C284.716 318.182 284.162 317.628 283.47 317.628H269.905Z" fill="#321951"/>
<path d="M236.824 317.628C236.132 317.628 235.579 318.182 235.579 318.875C235.579 319.568 236.132 320.122 236.824 320.122H258.278C258.97 320.122 259.524 319.568 259.524 318.875C259.524 318.182 258.97 317.628 258.278 317.628H236.824Z" fill="#321951"/>
<path d="M213.571 29.932H291.083C291.775 29.932 292.329 29.3776 292.329 28.6847C292.329 27.9918 291.775 27.4375 291.083 27.4375H213.571C212.879 27.4375 212.326 27.9918 212.326 28.6847C212.326 29.3776 212.879 29.932 213.571 29.932Z" fill="#321951"/>
<path d="M262.293 36.5843C262.985 36.5843 263.539 36.03 263.539 35.3371C263.539 34.6442 262.985 34.0898 262.293 34.0898H242.223C241.531 34.0898 240.978 34.6442 240.978 35.3371C240.978 36.03 241.531 36.5843 242.223 36.5843H262.293Z" fill="#321951"/>
<path d="M290.114 85.3658C288.037 81.2084 283.608 74.1407 277.933 73.3092C270.736 64.9944 260.216 66.5188 258.14 66.9345C250.25 64.5786 240.146 69.7061 236.132 73.3092C234.195 75.1108 231.703 77.8824 230.319 80.7926C226.997 82.8713 225.198 86.7516 223.814 90.4933C221.876 95.898 221.599 100.194 223.122 103.936C222.014 108.509 223.26 113.775 226.582 117.932C226.997 121.951 230.596 125.554 232.81 127.633C236.686 131.098 242.776 135.809 249.974 137.195C251.773 137.472 253.157 137.472 254.403 137.057C256.202 137.888 258.278 138.304 260.355 138.304C264.784 138.304 269.352 136.779 272.258 134.839C272.397 134.839 272.397 134.701 272.397 134.701C275.303 134.285 280.148 132.345 285.823 125.554C295.927 113.498 293.989 104.213 293.435 102.411C295.235 96.5909 292.605 90.0776 290.114 85.3658ZM284.162 123.891C276.826 132.622 271.428 132.345 270.459 132.206H270.182C269.49 132.068 268.936 132.483 268.798 133.176C268.659 133.453 268.798 133.869 268.936 134.008C264.645 135.948 258.417 136.779 254.818 134.285L253.988 133.592C253.434 133.176 252.742 133.176 252.327 133.731C252.05 134.008 251.911 134.562 252.05 134.978C251.635 134.978 251.219 134.839 250.804 134.839C244.16 133.592 238.485 129.157 234.748 125.832C233.364 124.584 229.212 120.704 229.212 117.101V115.854C229.35 115.161 228.796 114.606 228.243 114.468C227.966 114.468 227.689 114.468 227.412 114.606C225.751 111.696 224.782 107.816 225.751 104.213L226.443 102.273C226.72 101.58 226.305 100.887 225.751 100.748C225.475 100.61 225.198 100.61 224.921 100.748C224.506 98.1153 224.921 94.9279 226.305 91.3248C227.689 87.7217 229.35 83.7028 232.81 82.317L233.918 81.9013C234.61 81.7627 234.887 81.0698 234.748 80.3769C234.61 79.9611 234.333 79.684 233.918 79.5454C235.025 78.021 236.409 76.358 237.932 74.9722C241.669 71.6463 251.081 67.0731 257.725 69.1518L259.109 69.7061C259.801 69.9833 260.493 69.7061 260.77 69.0132V68.8746C264.369 68.5975 271.289 68.8746 276.411 75.1108L277.379 76.358C277.795 76.9124 278.625 77.0509 279.04 76.6352C279.179 76.4966 279.317 76.358 279.456 76.2195C283.331 78.1596 286.515 83.7028 287.899 86.3359C290.529 91.4634 293.574 98.8082 290.252 103.936C289.837 104.49 290.113 105.322 290.667 105.599C290.944 105.876 291.359 105.876 291.774 105.737C291.774 109.479 290.806 115.992 284.162 123.891Z" fill="#321951"/>
<path d="M247.068 93.2645C246.791 93.2645 246.514 93.2645 246.376 93.403C245.96 92.1558 245.407 91.3243 244.991 91.0472C244.576 90.6314 243.746 90.6314 243.331 91.0472C242.777 91.4629 242.777 92.2944 243.192 92.7101C243.192 92.7101 243.607 93.2645 244.023 94.2345C244.299 94.7889 244.438 95.6203 244.438 96.5904V96.729C244.438 96.8676 244.438 97.0061 244.438 97.2833C244.438 97.4219 244.438 97.4219 244.438 97.5605C244.438 97.6991 244.438 97.8376 244.299 97.9762C244.299 98.1148 244.299 98.2534 244.161 98.392C244.161 98.5305 244.023 98.6691 244.023 98.8077C244.023 98.9463 243.884 99.0849 243.884 99.2235C243.884 99.362 243.746 99.5006 243.746 99.6392C243.331 100.471 242.915 101.302 242.223 102.134C241.808 102.688 241.808 103.519 242.362 103.935C242.638 104.074 242.915 104.212 243.192 104.212C243.607 104.212 243.884 104.074 244.161 103.797C244.853 102.965 245.407 102.134 245.822 101.302C246.237 101.441 246.652 101.579 247.206 101.579C249.421 101.579 251.22 99.7778 251.22 97.5605C251.082 95.066 249.282 93.2645 247.068 93.2645Z" fill="#321951"/>
<path d="M237.932 113.773C236.409 113.773 235.163 114.605 234.471 115.852C233.641 115.575 232.81 115.298 232.118 115.298C231.426 115.159 230.873 115.714 230.734 116.406C230.596 117.099 231.149 117.654 231.842 117.792C231.98 117.792 232.672 117.931 233.503 118.208C234.333 118.485 235.44 119.178 236.271 120.01C236.271 120.01 236.271 120.148 236.409 120.148C236.548 120.287 236.686 120.425 236.824 120.564C236.963 120.703 236.963 120.703 236.963 120.841C237.101 120.98 237.101 121.118 237.24 121.118C237.378 121.257 237.378 121.395 237.378 121.534C237.378 121.673 237.516 121.811 237.516 121.811C237.655 122.227 237.793 122.781 237.932 123.336C238.07 123.89 238.485 124.444 239.177 124.444H239.316C240.008 124.306 240.423 123.751 240.423 123.058C240.285 122.365 240.146 121.673 239.869 121.118C240.977 120.425 241.669 119.178 241.669 117.792C241.946 115.575 240.146 113.773 237.932 113.773Z" fill="#321951"/>
<path d="M276.411 109.755C276.549 110.309 276.826 111.002 277.103 111.557C277.241 111.972 277.795 112.249 278.21 112.249C278.349 112.249 278.487 112.249 278.764 112.111C279.456 111.834 279.733 111.141 279.456 110.448C279.179 109.894 279.041 109.201 278.902 108.646C278.072 105.32 278.902 102.549 279.594 101.024C279.871 100.193 280.286 99.7771 280.286 99.6385C280.702 99.0842 280.425 98.2527 279.871 97.9756C279.318 97.5598 278.487 97.837 278.21 98.3913C278.21 98.5299 277.795 99.0842 277.38 99.9157C276.549 99.5 275.719 99.2228 274.888 99.2228C271.982 99.2228 269.49 101.579 269.49 104.627C269.49 107.538 271.843 110.032 274.888 110.032C275.165 110.171 275.719 110.032 276.411 109.755Z" fill="#321951"/>
<path d="M240.839 81.7634C241.116 81.7634 241.531 81.6248 241.669 81.3476C242.223 80.7933 242.777 80.3776 243.33 79.9618C243.469 79.8232 243.607 79.6847 243.746 79.6847C243.884 79.5461 244.161 79.4075 244.299 79.4075C244.438 79.4075 244.576 79.2689 244.576 79.2689C248.59 77.0516 252.604 77.1902 252.743 77.1902C253.435 77.1902 253.988 76.7744 254.127 76.0815C254.127 75.3886 253.711 74.8343 253.019 74.6957C252.881 74.6957 252.05 74.6957 250.666 74.8343C250.666 74.8343 250.666 74.8343 250.528 74.8343H250.389C249.697 73.3099 248.175 72.3398 246.375 72.3398C243.884 72.3398 241.808 74.4186 241.808 76.913C241.808 77.3288 241.808 77.7445 241.946 78.1603C241.946 78.1603 241.946 78.1603 241.808 78.1603L241.669 78.2988C241.116 78.7146 240.562 79.1303 240.009 79.6847C239.455 80.239 239.455 80.9319 240.009 81.4862C240.285 81.6248 240.562 81.7634 240.839 81.7634Z" fill="#321951"/>
<path d="M263.4 76.0815C263.4 76.0815 263.539 76.0815 263.4 76.0815C263.4 76.0815 263.815 76.0815 264.369 76.0815C265.338 76.2201 267.137 76.4973 268.798 77.7445C268.937 77.8831 269.213 78.0217 269.352 78.2988C269.629 78.576 270.044 78.8532 270.321 79.2689C270.598 79.5461 270.874 79.6847 271.29 79.6847C271.566 79.6847 271.843 79.5461 272.12 79.4075C272.674 78.9917 272.674 78.1603 272.259 77.6059C271.982 77.1902 271.566 76.913 271.151 76.4973C271.151 76.4973 271.013 76.4973 271.013 76.3587C270.874 76.2201 270.874 76.2201 270.736 76.0815C270.736 75.943 270.874 75.8044 270.874 75.5272C270.874 73.7257 269.49 72.3398 267.691 72.3398C266.722 72.3398 265.753 72.7556 265.199 73.5871C265.061 73.5871 264.923 73.5871 264.784 73.5871C264.646 73.5871 264.646 73.5871 264.507 73.5871H264.369C264.231 73.5871 264.231 73.5871 264.092 73.5871H263.954C263.815 73.5871 263.815 73.5871 263.815 73.5871H263.677H263.539H263.4H263.262C263.123 73.5871 263.123 73.5871 262.985 73.7257C262.846 73.7257 262.708 73.8642 262.708 74.0028C262.708 74.1414 262.57 74.1414 262.57 74.28C262.57 74.28 262.57 74.4186 262.431 74.4186C262.431 74.5571 262.431 74.6957 262.431 74.8343V74.9729C262.154 75.6658 262.708 76.0815 263.4 76.0815Z" fill="#321951"/>
<path d="M283.47 86.0591C282.916 86.0591 282.501 86.1977 282.086 86.4748C282.086 86.4748 282.086 86.4748 281.948 86.3362C281.117 85.6433 280.563 85.2276 280.425 85.2276C279.871 84.9504 279.041 85.089 278.764 85.7819C278.487 86.3362 278.626 87.1677 279.318 87.4449C279.318 87.4449 279.733 87.722 280.287 88.2764C280.425 88.4149 280.702 88.6921 280.979 88.9693C281.117 89.2464 281.394 89.5236 281.532 89.8008C281.532 89.8008 281.532 89.8008 281.532 89.9394C281.671 90.2165 281.948 90.6323 282.086 90.9094V91.048C282.224 91.4637 282.363 91.8795 282.501 92.2952C282.64 92.8496 282.778 93.5425 282.778 94.3739C282.778 95.0669 283.332 95.6212 284.024 95.6212C284.716 95.6212 285.269 95.0669 285.269 94.3739C285.269 93.5425 285.131 92.711 284.993 91.8795V91.7409C285.823 91.1866 286.515 90.2165 286.515 89.2464C286.515 87.4449 285.131 86.0591 283.47 86.0591Z" fill="#321951"/>
<path d="M282.639 118.763C281.947 118.624 281.255 119.04 281.117 119.733C281.117 119.733 280.979 120.01 280.84 120.426C280.148 119.733 279.179 119.179 278.072 119.179C275.996 119.179 274.196 120.842 274.196 123.059C274.196 124.168 274.75 125.276 275.442 125.969C275.304 125.969 275.165 126.108 275.027 126.108C274.335 126.385 274.058 127.078 274.335 127.771C274.473 128.325 275.027 128.602 275.442 128.602C275.58 128.602 275.719 128.602 275.857 128.464C276.411 128.325 276.826 128.048 277.241 127.771C277.38 127.771 277.38 127.632 277.38 127.632C277.657 127.494 277.933 127.355 278.072 127.216C278.21 127.216 278.21 127.078 278.349 127.078C278.626 126.939 278.764 126.801 279.041 126.523L279.179 126.385C279.456 126.246 279.594 125.969 279.871 125.831L280.01 125.692C280.148 125.553 280.425 125.276 280.563 125.138C280.563 125.138 280.563 125.138 280.702 124.999C280.84 124.722 281.117 124.583 281.255 124.306C282.778 122.227 283.193 120.426 283.332 120.287C283.747 119.594 283.332 118.901 282.639 118.763Z" fill="#321951"/>
<path d="M263.538 129.435C263.538 129.435 263.123 129.573 262.569 129.85C262.569 129.573 262.708 129.296 262.708 129.157C262.708 126.801 260.77 124.861 258.417 124.861C256.064 124.861 254.126 126.801 254.126 129.157C253.849 129.019 253.711 128.88 253.434 128.603C252.881 128.187 252.05 128.187 251.635 128.742C251.22 129.296 251.22 130.127 251.773 130.543C252.465 131.097 253.019 131.513 253.711 131.79C254.126 132.068 254.542 132.206 254.957 132.345C256.341 132.76 257.587 133.038 258.694 133.038C259.386 133.038 259.94 133.038 260.632 132.899C260.909 132.899 261.185 132.76 261.462 132.76C263.262 132.345 264.507 131.79 264.646 131.652C265.199 131.375 265.476 130.543 265.199 129.989C264.784 129.296 264.092 129.157 263.538 129.435Z" fill="#321951"/>
<path d="M251.773 115.854C251.773 115.854 252.327 115.716 253.158 115.716C253.85 115.716 254.68 115.854 255.511 116.27C255.787 116.409 256.064 116.547 256.203 116.686C256.479 116.963 256.895 117.24 257.172 117.656C257.448 118.072 257.864 118.21 258.279 118.21C258.556 118.21 258.694 118.21 258.971 118.072C259.525 117.656 259.663 116.963 259.386 116.409C258.971 115.854 258.556 115.3 258.002 114.884C258.14 114.468 258.279 114.053 258.279 113.637C258.279 112.251 257.172 111.004 255.649 111.004C254.265 111.004 253.296 111.974 253.019 113.221C251.912 113.221 251.22 113.36 251.081 113.36C250.389 113.498 249.974 114.191 250.112 114.884C250.528 115.577 251.22 115.993 251.773 115.854Z" fill="#321951"/>
<path d="M231.288 101.579C231.15 101.164 231.012 100.887 230.873 100.471C231.012 100.471 231.15 100.471 231.288 100.471C233.226 100.471 234.887 98.9464 234.887 96.8677C234.887 94.9276 233.365 93.4032 231.565 93.4032C231.842 92.8489 231.98 92.5717 231.98 92.5717C232.396 92.0174 232.257 91.1859 231.704 90.9087C231.15 90.493 230.319 90.6316 229.904 91.1859C229.904 91.3245 229.351 92.0174 228.935 93.2646C228.935 93.2646 228.935 93.2646 228.935 93.4032C228.382 95.0662 227.828 97.4221 228.382 100.332C228.52 101.025 228.659 101.718 228.935 102.55C229.074 103.104 229.627 103.381 230.043 103.381C230.181 103.381 230.319 103.381 230.458 103.242C231.288 102.827 231.565 102.134 231.288 101.579Z" fill="#321951"/>
<path d="M267.691 85.7833C267.276 85.9219 266.722 85.9219 266.307 85.9219C266.169 85.9219 265.892 85.9219 265.753 85.9219C265.615 85.9219 265.615 85.9219 265.476 85.9219C265.2 85.9219 265.061 85.7833 264.784 85.7833C264.784 85.7833 264.784 85.7833 264.646 85.7833C263.123 85.3676 261.878 84.3975 261.047 83.566C260.494 83.0117 260.078 82.4574 260.078 82.4574C259.663 81.9031 258.971 81.7645 258.279 82.1802C257.725 82.5959 257.587 83.2889 258.002 83.9818C258.002 84.1203 258.556 84.6747 259.386 85.5062C259.386 85.5062 259.386 85.5062 259.525 85.6447C259.248 86.1991 259.109 86.7534 259.109 87.3077C259.109 89.3864 260.77 91.0494 262.847 91.0494C264.369 91.0494 265.753 90.0793 266.307 88.6935H266.445H266.584C267.137 88.6935 267.553 88.6935 268.106 88.555C268.798 88.4164 269.214 87.862 269.075 87.1691C268.937 86.0605 268.383 85.6447 267.691 85.7833Z" fill="#321951"/>
<path d="M282.224 198.726L268.106 211.198V169.208C268.106 164.358 263.676 160.339 258.417 160.339C253.019 160.339 248.728 164.219 248.728 169.208V211.337L234.471 198.726C232.672 197.063 230.18 196.231 227.689 196.231C225.059 196.231 222.706 197.063 220.907 198.726C218.969 200.389 218 202.606 218 204.962C218 207.318 219.107 209.535 220.907 211.198L251.634 238.36C252.327 238.914 253.019 239.469 253.849 239.885H223.813C218.415 239.885 214.125 243.765 214.125 248.754C214.125 253.743 218.554 257.623 223.813 257.623H293.435C298.833 257.623 303.124 253.743 303.124 248.754C303.124 243.765 298.695 239.885 293.435 239.885H263.4C264.23 239.469 264.922 239.053 265.614 238.36L296.342 211.198C298.28 209.535 299.249 207.318 299.249 204.962C299.249 202.606 298.28 200.389 296.342 198.726C294.543 197.063 292.051 196.231 289.56 196.231C286.376 196.231 284.023 197.063 282.224 198.726ZM293.02 242.379C297.034 242.379 300.218 245.151 300.218 248.615C300.218 252.08 296.896 254.851 293.02 254.851H223.398C219.384 254.851 216.201 252.08 216.201 248.615C216.201 245.151 219.523 242.379 223.398 242.379H293.02ZM296.204 204.962C296.204 206.625 295.511 208.149 294.127 209.397L263.4 236.559C262.015 237.806 260.216 238.499 258.278 238.499H258.14C256.202 238.499 254.264 237.806 253.019 236.559L222.291 209.397C220.907 208.149 220.215 206.625 220.215 204.962C220.215 203.299 220.907 201.775 222.291 200.527C223.675 199.28 225.474 198.587 227.412 198.587C229.35 198.587 231.149 199.28 232.533 200.527L248.866 215.078C249.281 215.356 249.697 215.494 250.25 215.217C250.666 215.078 250.942 214.524 250.942 214.108V169.208C250.942 165.744 254.126 162.833 258.14 162.833C262.154 162.833 265.337 165.605 265.337 169.208V213.97C265.337 214.524 265.614 214.94 266.029 215.078C266.445 215.217 266.998 215.217 267.414 214.94L283.608 200.666C284.992 199.419 286.791 198.726 288.729 198.726C290.667 198.726 292.605 199.419 293.851 200.666C295.511 201.775 296.204 203.299 296.204 204.962Z" fill="#321951"/>
<path d="M343.126 111.834C343.68 111.972 344.372 112.111 345.064 112.111C346.586 112.111 348.247 111.557 350.047 110.587L389.079 88.4136C392.124 86.7507 393.785 84.2562 393.785 81.6232C393.785 78.9901 392.124 76.4956 389.079 74.6941L381.605 70.2595C381.605 70.2595 381.466 70.1209 381.328 70.1209L351.431 52.6597C351.292 52.5211 351.154 52.3825 351.016 52.3825L350.324 51.9668C349.355 51.4124 348.524 50.9967 347.555 50.7195C345.202 50.0266 342.988 50.4424 341.327 51.6896C339.389 53.0754 338.42 55.5699 338.42 58.7572L338.143 103.658C338.005 107.954 339.943 111.002 343.126 111.834ZM355.583 104.628L372.47 83.7019L378.56 91.601L355.583 104.628ZM391.155 81.6232C391.155 83.4247 389.91 85.0877 387.695 86.3349L380.636 90.3538L373.854 81.7617L380.913 73.0311L387.695 77.05C390.048 78.2972 391.294 79.9602 391.155 81.6232ZM378.837 71.6453L372.47 79.5444L355.722 58.0643L378.837 71.6453ZM340.911 58.8958C340.911 56.54 341.604 54.7384 342.849 53.9069C343.541 53.3526 344.372 53.0754 345.202 53.0754C345.756 53.0754 346.31 53.214 346.863 53.3526C347.555 53.4912 348.247 53.9069 349.078 54.3226L349.908 54.7384L370.947 81.6232L349.77 107.954L348.801 108.508C347.555 109.201 346.171 109.617 345.064 109.617C344.649 109.617 344.233 109.617 343.818 109.478C341.742 108.924 340.635 106.706 340.635 103.796L340.911 58.8958Z" fill="#321951"/>
<path d="M157.237 311.393C157.237 308.621 156.268 305.988 154.331 304.048C152.393 302.108 149.763 300.999 147.133 300.999H146.995C141.32 300.999 136.752 305.572 136.752 311.254C136.614 316.936 141.181 321.648 146.995 321.648H147.133C152.67 321.509 157.237 316.936 157.237 311.393ZM146.856 319.015C142.565 319.015 139.105 315.411 139.105 311.115C139.105 306.819 142.704 303.355 146.995 303.355C149.071 303.355 151.009 304.186 152.531 305.711C154.054 307.235 154.746 309.175 154.746 311.254C154.746 315.55 151.285 319.015 146.856 319.015L146.995 320.262L146.856 319.015Z" fill="#321951"/>
<path d="M146.441 295.316C150.87 295.316 155.023 297.256 158.068 300.444C159.175 301.691 160.698 302.384 162.497 302.384H162.635C164.158 302.384 165.681 301.83 166.788 300.721C169.279 298.365 169.418 294.485 167.065 292.129C161.667 286.447 154.469 283.26 146.718 283.121H146.303C138.967 283.121 132.046 285.893 126.786 291.02C125.541 292.129 124.987 293.653 124.849 295.316C124.849 296.979 125.402 298.504 126.51 299.612C127.617 300.86 129.278 301.552 130.939 301.552C132.461 301.552 133.984 300.998 135.091 299.889C138.136 296.979 142.15 295.455 146.303 295.455L146.441 295.316ZM133.292 297.949C131.908 299.335 129.555 299.197 128.171 297.811C127.478 297.118 127.202 296.148 127.202 295.178C127.202 294.208 127.617 293.376 128.309 292.683C133.153 288.11 139.52 285.477 146.164 285.477H146.441C153.5 285.616 160.144 288.526 165.127 293.653C166.511 295.039 166.373 297.395 164.988 298.781C164.296 299.474 163.466 299.751 162.497 299.751V300.998V299.751C161.528 299.751 160.559 299.335 159.867 298.642C156.268 294.9 151.562 292.683 146.441 292.683H146.164C141.458 292.822 136.752 294.623 133.292 297.949Z" fill="#321951"/>
<path d="M146.579 278.409C155.576 278.548 163.881 282.289 170.109 288.803C171.217 290.05 172.739 290.743 174.4 290.743H174.539C176.061 290.743 177.584 290.188 178.691 289.08C179.937 287.971 180.49 286.447 180.629 284.784C180.629 283.121 180.075 281.596 178.968 280.488C170.525 271.48 159.036 266.352 146.718 266.214H146.164C134.399 266.214 123.326 270.787 114.744 278.963C113.637 280.072 112.945 281.596 112.945 283.259C112.945 284.922 113.498 286.447 114.606 287.555C115.713 288.803 117.374 289.357 119.035 289.357C120.696 289.357 122.08 288.803 123.326 287.694C129.554 281.596 137.582 278.27 146.164 278.27L146.579 278.409ZM121.526 285.892C120.142 287.278 117.789 287.14 116.405 285.754C115.713 285.061 115.436 284.091 115.436 283.259C115.436 282.289 115.852 281.458 116.544 280.765C124.572 273.004 135.091 268.708 146.164 268.708H146.718C158.344 268.847 169.141 273.697 177.169 282.151C177.861 282.844 178.137 283.814 178.137 284.784C178.137 285.754 177.722 286.585 177.03 287.278C176.338 287.971 175.508 288.248 174.539 288.248V289.496V288.248C173.57 288.248 172.601 287.833 171.909 287.14C165.265 280.072 156.268 276.053 146.579 275.915H146.164C137.029 275.915 128.309 279.379 121.526 285.892Z" fill="#321951"/>
<path d="M146.857 261.364C160.283 261.503 172.878 267.046 182.152 277.024C183.259 278.271 184.782 278.964 186.443 278.964H186.581C188.104 278.964 189.626 278.409 190.734 277.301C191.979 276.192 192.533 274.668 192.671 273.005C192.671 271.342 192.118 269.817 191.01 268.57C179.384 256.236 163.743 249.307 146.995 249.03H146.164C129.97 249.03 114.606 255.405 102.98 266.769C100.627 269.125 100.488 273.005 102.841 275.361C103.948 276.469 105.609 277.162 107.132 277.162C108.793 277.162 110.315 276.608 111.423 275.361C120.835 266.214 133.015 261.087 146.026 261.087L146.857 261.364ZM109.9 273.836C108.516 275.222 106.163 275.222 104.779 273.836C103.395 272.45 103.395 270.095 104.779 268.709C115.99 257.761 130.662 251.663 146.164 251.663H146.995C163.051 251.802 178.138 258.454 189.211 270.372C189.903 271.065 190.18 272.035 190.18 273.005C190.18 273.975 189.765 274.806 189.073 275.499C188.381 276.192 187.55 276.469 186.581 276.469V277.717V276.469C185.612 276.469 184.643 276.054 183.951 275.361C174.124 264.967 160.975 259.147 146.857 258.87H146.164C132.6 258.87 119.728 264.136 109.9 273.836Z" fill="#321951"/>
</svg>
