<svg width="503" height="338" viewBox="0 0 503 338" fill="none" xmlns="http://www.w3.org/2000/svg">
<path d="M333.288 254.851V22.0341C333.288 11.2248 324.003 2.49414 312.501 2.49414H297.118C295.594 2.49414 294.346 3.60279 294.346 4.98861V8.0374C294.346 12.7492 290.328 16.6294 285.339 16.6294H208.842C203.853 16.6294 199.834 12.7492 199.834 8.0374V4.98861C199.834 3.60279 198.587 2.49414 197.062 2.49414H181.68C170.178 2.49414 160.893 11.2248 160.893 22.0341V245.012C162.556 246.12 164.219 247.367 165.882 248.753C166.159 249.03 166.297 249.308 166.297 249.585C166.297 249.862 166.159 250.278 166.02 250.555L160.893 256.098V275.915L179.74 275.084C180.433 275.084 180.848 275.499 180.987 276.054L181.264 277.301C182.373 282.429 182.65 287.695 182.373 292.961C181.818 300.583 180.155 307.235 176.968 313.332C173.919 319.014 170.039 323.726 165.466 327.467C169.207 332.041 175.166 334.951 181.818 334.951H312.639C324.141 334.951 333.426 326.22 333.426 315.411V255.96C333.288 255.544 333.288 255.128 333.426 254.851C333.288 254.851 333.288 254.851 333.288 254.851Z" fill="#F1E6FF"/>
<path d="M261.92 166.99L254.021 168.653C256.654 168.237 259.287 167.683 261.92 166.99Z" fill="#FBC22D"/>
<path d="M244.873 169.068L237.667 168.236C240.023 168.652 242.379 168.929 244.873 169.068Z" fill="#FBC22D"/>
<path d="M247.23 63.8848C218.266 63.8848 194.569 87.4436 194.569 116.546C194.569 128.741 198.726 139.966 205.794 148.974C206.625 147.588 207.457 146.341 208.427 145.232L208.704 144.401L209.536 143.985C213 140.659 217.435 138.442 223.117 137.471C227.828 136.64 231.986 136.779 233.926 136.917C234.065 134.838 234.342 131.235 234.896 124.999C226.858 121.95 221.592 117.516 219.375 111.557C216.88 105.321 218.405 99.223 219.375 96.7285C217.712 96.3128 216.88 96.59 216.88 96.59C216.465 96.8671 215.91 96.7285 215.495 96.4514C215.079 96.0356 214.94 95.4813 215.217 94.927C219.375 85.7806 224.641 80.2374 231.016 78.2972C236.698 76.6343 241.548 78.2972 243.627 79.2673C244.735 77.7429 247.23 74.6941 251.11 73.8626C254.297 73.0311 257.623 73.8626 261.088 76.2185C270.789 82.7318 278.965 78.713 278.965 78.5744C279.381 78.4358 279.796 78.4358 280.074 78.5744C280.489 78.713 280.628 79.1287 280.766 79.5445C281.737 87.4436 278.272 91.3239 275.778 93.1254C277.718 93.9569 279.242 93.5412 279.242 93.5412C279.796 93.4026 280.351 93.6798 280.628 94.0955C280.905 94.6498 280.766 95.2042 280.351 95.6199C277.718 98.1144 274.669 99.9159 271.204 100.886C271.343 105.459 271.482 127.632 260.811 134.838C260.672 134.977 260.395 134.977 260.256 135.116V136.64C262.335 136.501 266.354 136.363 270.789 137.194C278.965 138.719 284.924 142.876 288.25 148.974C295.456 139.966 299.752 128.602 299.752 116.269C299.752 87.4436 276.193 63.8848 247.23 63.8848Z" fill="#FBC22D"/>
<path d="M236.142 139.967C236.142 145.926 240.992 150.777 246.951 150.777C252.91 150.777 257.761 145.926 257.761 139.967V136.503C256.375 137.057 254.851 137.196 253.188 137.196C250.277 137.196 246.951 136.364 243.487 134.701C242.794 134.424 242.655 133.731 242.933 133.038C243.21 132.345 243.903 132.207 244.596 132.484C250.693 135.256 255.682 135.394 259.424 132.9C268.57 126.802 268.847 106.846 268.709 101.58C264.828 102.412 260.394 102.273 255.821 101.303C250.832 100.194 246.674 98.5315 244.457 97.4229C244.318 104.213 243.071 108.509 240.992 110.172C239.884 111.142 238.775 110.865 238.637 110.865C238.221 110.727 237.944 110.45 237.805 110.172C237.805 110.034 237.667 109.895 237.667 109.895C237.251 108.925 236.281 108.232 235.311 107.816C233.371 107.124 231.292 107.955 230.737 109.618C230.46 110.311 230.599 111.281 231.015 111.974C231.153 112.112 231.292 112.251 231.43 112.528L231.569 112.805C231.985 113.221 232.678 113.637 233.371 113.914C234.341 114.191 235.449 114.191 236.419 113.775C236.696 113.498 236.974 113.498 237.389 113.498C238.082 113.498 238.637 114.191 238.498 114.884C237.528 123.199 236.142 139.552 236.142 139.967ZM265.66 110.311C265.521 111.142 265.383 111.974 264.967 112.667C264.551 113.36 263.858 113.775 263.304 113.637C263.165 113.637 263.166 113.637 263.027 113.637C261.918 113.36 261.364 111.835 261.503 110.034C261.641 107.955 262.75 106.569 263.997 106.708C265.106 106.708 265.937 108.371 265.66 110.311ZM260.948 104.352C261.641 103.243 262.888 102.689 264.136 102.828C265.383 102.966 266.491 103.659 267.184 104.768C267.462 105.322 267.323 106.153 266.63 106.431C266.491 106.569 266.214 106.569 266.076 106.569C265.66 106.569 265.244 106.292 264.967 105.876C264.828 105.461 264.413 105.322 263.997 105.183C263.581 105.183 263.304 105.322 263.027 105.738C262.611 106.292 261.918 106.431 261.225 106.015C260.671 105.599 260.532 104.906 260.948 104.352ZM250.416 109.064C250.277 109.895 250.139 110.727 249.723 111.42C249.307 112.112 248.614 112.528 248.06 112.39C247.922 112.39 247.922 112.39 247.783 112.39C246.674 112.112 246.12 110.588 246.259 108.787C246.397 106.708 247.506 105.322 248.753 105.461C249.723 105.461 250.555 107.124 250.416 109.064ZM257.899 127.218C257.207 128.188 256.098 128.881 254.851 128.881H254.712C253.465 128.742 252.356 128.049 251.663 126.941C251.386 126.386 251.525 125.555 252.218 125.278C252.772 125.001 253.603 125.139 253.881 125.832C254.019 126.248 254.435 126.386 254.851 126.525C255.266 126.525 255.544 126.386 255.821 125.971C256.236 125.416 256.929 125.278 257.622 125.693C258.177 125.832 258.315 126.664 257.899 127.218ZM255.544 119.596L255.821 111.142C255.821 110.45 256.375 109.895 257.068 109.895C257.761 109.895 258.315 110.45 258.315 111.142L258.038 121.12C258.038 121.536 257.899 121.813 257.484 122.09C257.207 122.229 257.068 122.368 256.791 122.368C256.652 122.368 256.514 122.368 256.375 122.368L251.802 120.982C251.109 120.843 250.832 120.012 250.97 119.457C251.109 118.764 251.94 118.487 252.495 118.626L255.544 119.596ZM245.704 102.966C246.397 101.857 247.644 101.303 248.892 101.303C250.139 101.442 251.248 102.135 251.94 103.243C252.218 103.798 252.079 104.629 251.386 104.906C251.248 105.045 250.97 105.045 250.832 105.045C250.416 105.045 250 104.768 249.723 104.352C249.585 103.936 249.169 103.798 248.753 103.659C248.337 103.659 248.06 103.798 247.783 104.213C247.367 104.768 246.674 104.906 245.981 104.491C245.427 104.352 245.289 103.52 245.704 102.966Z" fill="#FDC8B4"/>
<path d="M238.36 228.936C238.498 229.075 238.637 229.213 238.775 229.213C239.468 229.768 240.023 230.46 240.577 231.153C241.131 231.846 241.824 232.539 242.379 233.094L243.071 233.786C244.734 235.311 246.675 237.251 248.338 237.251C250 237.251 252.079 235.311 253.604 233.786L254.297 233.094C254.851 232.539 255.544 231.846 256.098 231.153C256.652 230.46 257.207 229.906 257.9 229.213C258.038 229.075 258.177 228.936 258.315 228.936C262.889 224.502 270.233 217.711 276.747 211.613C280.35 208.287 283.676 205.1 286.309 202.744C285.062 201.774 283.537 201.358 281.736 201.358H214.801C213.138 201.358 211.613 201.913 210.366 202.744C215.078 207.317 220.067 211.891 224.779 216.325C229.352 220.344 233.925 224.64 238.36 228.936Z" fill="white"/>
<path d="M259.286 231.569C258.87 231.985 258.454 232.401 258.177 232.817C257.623 233.509 256.93 234.202 256.237 234.895L255.544 235.588C253.604 237.39 251.248 239.746 248.476 239.746C245.705 239.746 243.349 237.39 241.409 235.588L240.716 234.895C240.023 234.202 239.33 233.509 238.776 232.817C238.36 232.401 238.083 231.985 237.667 231.569C233.509 236.004 229.075 240.577 224.917 244.873C220.206 249.724 215.355 254.851 210.644 259.979C211.891 260.81 213.415 261.364 215.078 261.364H282.013C283.676 261.364 285.2 260.81 286.448 259.979C281.736 254.851 276.885 249.862 272.035 244.873C267.739 240.577 263.443 236.143 259.286 231.569Z" fill="white"/>
<path d="M235.727 229.906C231.57 225.887 227.274 222.007 223.255 218.127C218.543 213.692 213.554 208.98 208.704 204.407C207.734 205.654 207.179 207.317 207.179 209.119V253.742C207.179 255.544 207.734 257.068 208.704 258.454C213.415 253.326 218.266 248.338 222.977 243.349C227.135 238.775 231.431 234.341 235.727 229.906Z" fill="white"/>
<path d="M288.111 204.407C285.478 206.902 282.152 210.089 278.549 213.415C272.452 219.097 265.661 225.472 261.088 229.906C265.245 234.341 269.68 238.914 273.837 243.21C278.549 248.06 283.399 253.188 288.111 258.315C289.081 257.068 289.636 255.405 289.636 253.604V208.98C289.636 207.317 289.081 205.654 288.111 204.407Z" fill="white"/>
<path d="M208.842 144.402L208.565 145.234C208.981 144.818 209.258 144.541 209.674 144.125L208.842 144.402Z" fill="#00DA9C"/>
<path d="M286.587 151.331C280.489 138.72 264.552 139.136 260.256 139.413V139.968C260.256 147.312 254.297 153.271 246.952 153.271C239.607 153.271 233.648 147.312 233.648 139.968C233.648 139.968 233.648 139.968 233.648 139.413C229.491 139.136 213.693 138.72 207.457 151.054C215.079 159.923 225.611 166.159 237.529 168.238L244.735 169.07C245.566 169.07 246.259 169.07 247.091 169.07C249.308 169.07 251.525 168.931 253.743 168.654L261.642 166.991C271.62 164.219 280.073 158.676 286.587 151.331Z" fill="#00DA9C"/>
<path d="M178.909 277.578L134.979 279.519L135.672 296.148L161.309 295.04C161.725 295.04 162.141 295.178 162.279 295.455C162.556 295.733 162.556 296.148 162.556 296.564C162.418 297.118 162.279 297.534 162.141 298.088C161.863 299.197 161.586 300.306 161.171 301.414C158.537 308.759 153.271 313.887 145.511 316.658C139.275 318.876 133.039 319.291 126.802 317.767C120.566 316.243 115.162 312.917 110.865 307.789C105.461 301.414 102.828 293.931 103.382 285.616C103.798 278.271 106.569 271.758 111.697 266.076C115.716 261.642 120.705 258.593 126.248 257.207C135.672 254.851 144.264 256.375 151.608 262.057C151.747 262.057 151.747 262.196 151.886 262.196L163.388 249.585C160.893 247.506 158.122 245.705 155.35 244.319C149.114 241.132 142.601 239.469 135.533 239.33C135.256 239.33 134.979 239.33 134.84 239.191H134.701L129.02 239.469C128.465 239.607 127.911 239.607 127.357 239.746C126.109 239.884 124.862 240.161 123.615 240.439C109.341 243.765 98.5317 251.941 91.6027 264.829C87.0295 273.144 85.2279 282.013 86.198 291.159C88.4153 311.115 99.0861 325.112 117.933 332.457C122.368 334.12 127.08 335.09 132.484 335.228C132.761 335.228 133.039 335.228 133.177 335.367H133.316L139.275 335.09C139.69 334.951 140.245 334.951 140.66 334.813C141.769 334.674 142.878 334.535 143.848 334.258C157.983 331.487 168.238 324.003 174.613 311.947C177.662 306.265 179.325 299.89 179.74 292.545C180.018 287.418 179.74 282.429 178.632 277.44L178.909 277.578Z" fill="#00DA9C"/>
<path d="M500.695 335.506H394.818L415.744 327.745C416.021 327.606 416.298 327.468 416.437 327.191C416.991 326.221 416.714 325.112 416.298 324.142C410.894 309.729 405.489 295.178 400.084 280.766L393.571 263.166L402.44 259.84C407.013 258.177 411.587 256.376 416.16 254.713C417.13 254.297 417.546 254.02 417.684 253.881C417.961 253.743 418.1 253.465 418.239 253.05C418.239 252.634 418.239 251.941 417.823 251.109C415.051 243.626 412.28 236.143 409.508 228.798C409.092 227.689 408.538 226.719 407.568 226.719C407.152 226.719 406.459 226.858 405.766 227.135L383.316 235.45L382.9 234.203C382.346 232.678 381.792 231.154 381.237 229.629C379.713 225.472 378.189 221.73 376.803 217.711C376.248 216.326 376.11 214.524 376.387 212.584C376.664 209.396 378.743 207.179 382.346 205.655C386.088 204.13 389.968 202.606 393.294 201.359L396.897 199.973C397.59 199.696 398.144 199.419 398.56 199.141C398.837 199.003 398.976 198.726 398.976 198.449C399.114 198.033 398.976 197.34 398.56 196.37C397.729 194.153 396.897 191.935 396.066 189.579L395.65 188.332C394.125 184.175 392.462 179.879 390.938 175.583C390.661 174.751 390.107 173.642 388.859 173.504C388.582 173.504 388.444 173.504 388.166 173.504L365.716 181.819C365.716 181.819 365.578 181.819 365.578 181.957L364.192 182.789C363.222 183.343 362.113 183.898 361.143 184.59C354.491 188.748 350.057 194.014 347.562 200.527C344.513 208.288 344.513 216.464 347.424 225.472C348.809 229.629 350.334 233.648 351.858 237.667C352.551 239.469 353.244 241.27 353.937 243.21L355.046 246.121L346.176 249.446C342.85 250.694 339.386 251.941 336.06 253.188V22.0344C336.06 9.83928 325.666 0 312.778 0H181.957C169.208 0 158.676 9.83928 158.676 22.0344V243.488C157.983 243.072 157.29 242.795 156.736 242.379C150.222 239.053 143.155 237.251 135.948 237.113C135.81 237.113 135.81 237.113 135.671 237.113H135.394C135.255 237.113 135.255 237.113 135.117 237.113L129.158 237.39H129.019C128.465 237.528 127.911 237.528 127.356 237.667C126.109 237.944 124.723 238.083 123.476 238.36C108.509 241.825 97.1455 250.417 89.8007 263.998C84.9504 272.867 83.0102 282.152 84.1189 291.714C86.4748 312.778 97.6999 327.329 117.517 335.09C117.933 335.228 118.348 335.367 118.903 335.506H1.24723C0.554326 335.506 0 336.06 0 336.753C0 337.446 0.554326 338 1.24723 338H133.038H133.177C133.315 338 133.315 338 133.454 338H134.285H500.833C501.526 338 502.08 337.446 502.08 336.753C502.08 336.06 501.387 335.506 500.695 335.506ZM336.06 255.821C339.663 254.435 343.266 253.188 346.731 251.802L356.708 248.061C357.401 247.784 357.678 247.091 357.401 246.398L355.877 242.379C355.184 240.577 354.491 238.637 353.798 236.836C352.274 232.817 350.749 228.798 349.364 224.779C346.592 216.326 346.731 208.842 349.502 201.636C351.858 195.538 356.016 190.827 362.113 186.946C363.083 186.392 364.053 185.838 365.162 185.145L366.409 184.452L388.166 176.414C388.166 176.553 388.305 176.553 388.305 176.691C389.829 180.987 391.492 185.145 393.017 189.441L393.432 190.688C394.264 192.905 395.096 195.123 395.927 197.34C395.927 197.478 396.066 197.617 396.066 197.617C395.927 197.617 395.788 197.756 395.65 197.756L392.047 199.141C388.582 200.389 384.702 201.913 380.96 203.437C376.387 205.378 373.893 208.426 373.477 212.445C373.2 214.663 373.477 216.741 374.031 218.543C375.417 222.562 376.941 226.442 378.466 230.599C379.02 232.124 379.574 233.648 380.129 235.173L380.96 237.529C381.099 237.806 381.376 238.083 381.653 238.221C381.93 238.36 382.346 238.36 382.623 238.221L406.321 229.352C406.459 229.352 406.598 229.214 406.736 229.214C406.736 229.352 406.875 229.491 406.875 229.629C409.647 237.113 412.418 244.596 415.19 251.941C415.19 252.08 415.19 252.08 415.328 252.218C415.19 252.218 415.19 252.218 415.051 252.357C410.478 254.02 405.905 255.821 401.332 257.484L391.631 261.365C391.354 261.503 391.077 261.78 390.938 262.057C390.799 262.335 390.799 262.75 390.938 263.027L397.867 281.736C403.272 296.148 408.676 310.699 414.081 325.112C414.22 325.389 414.22 325.666 414.358 325.805L390.522 334.674C390.522 334.535 390.384 334.397 390.384 334.258C384.84 319.153 379.159 303.909 373.477 288.804L367.241 271.897C367.102 271.342 366.548 271.065 366.132 271.065C365.993 271.065 365.855 271.065 365.716 271.065L355.877 274.668C352.274 276.054 348.532 277.44 344.929 278.687H344.79C344.79 278.687 344.79 278.549 344.652 278.549C341.88 271.065 338.97 263.443 336.198 255.96V255.821C335.921 255.821 336.06 255.821 336.06 255.821ZM161.032 22.0344C161.032 11.2251 170.317 2.49446 181.819 2.49446H197.201C198.726 2.49446 199.973 3.60312 199.973 4.98893V8.03772C199.973 12.7495 203.992 16.6298 208.981 16.6298H285.478C290.467 16.6298 294.485 12.7495 294.485 8.03772V4.98893C294.485 3.60312 295.733 2.49446 297.257 2.49446H312.64C324.142 2.49446 333.427 11.2251 333.427 22.0344V254.851V254.99C333.427 255.267 333.427 255.683 333.427 256.098V315.55C333.427 326.359 324.142 335.09 312.64 335.09H181.819C175.167 335.09 169.346 332.18 165.466 327.606C170.178 323.865 174.058 319.153 176.968 313.471C180.156 307.374 181.957 300.722 182.373 293.1C182.65 287.695 182.373 282.429 181.264 277.44L180.987 276.193C180.849 275.638 180.294 275.223 179.74 275.223L160.893 276.054V256.237L166.02 250.694C166.298 250.417 166.298 250.139 166.298 249.724C166.298 249.447 166.159 249.031 165.882 248.892C164.219 247.506 162.556 246.259 160.893 245.15V22.0344H161.032ZM133.454 335.506C133.177 335.506 132.9 335.367 132.622 335.367C127.218 335.228 122.506 334.397 118.071 332.595C99.2243 325.251 88.4149 311.254 86.3362 291.298C85.3661 282.152 87.1677 273.421 91.7409 264.968C98.8085 252.08 109.479 243.903 123.753 240.577C125 240.3 126.248 240.023 127.495 239.884C128.049 239.746 128.604 239.746 129.158 239.607L134.84 239.33H134.978C135.255 239.33 135.533 239.469 135.671 239.469C142.6 239.607 149.252 241.27 155.488 244.458C158.26 245.843 160.893 247.645 163.526 249.724L152.024 262.335C151.885 262.335 151.885 262.196 151.747 262.196C144.402 256.514 135.81 254.99 126.386 257.346C120.843 258.731 115.993 261.78 111.835 266.215C106.708 271.758 103.936 278.271 103.52 285.755C103.105 294.07 105.599 301.553 111.004 307.928C115.3 312.917 120.704 316.243 126.941 317.906C133.038 319.43 139.413 319.014 145.649 316.797C153.41 314.025 158.676 308.898 161.309 301.553C161.724 300.444 162.002 299.336 162.279 298.227C162.417 297.673 162.556 297.257 162.695 296.703C162.833 296.287 162.695 295.871 162.417 295.594C162.14 295.317 161.724 295.178 161.447 295.178L135.81 296.287L135.117 279.657L179.047 277.717V277.994C180.017 282.845 180.433 287.972 180.156 293.1C179.74 300.444 177.938 306.819 175.028 312.501C168.654 324.419 158.398 332.041 144.263 334.813C143.155 335.09 142.046 335.228 141.076 335.367C140.66 335.506 140.106 335.506 139.69 335.644L133.454 335.506ZM133.315 297.534C133.315 298.227 133.87 298.781 134.563 298.781L158.537 297.673V301.553C156.043 307.651 151.469 311.947 144.818 314.303C138.997 316.381 133.315 316.658 127.633 315.273C121.813 313.887 116.963 310.699 112.944 306.126C107.955 300.167 105.599 293.377 106.015 285.755C106.43 278.964 108.925 273.005 113.637 267.878C117.378 263.72 121.813 261.087 126.941 259.702C135.671 257.484 143.432 259.009 150.222 264.136C150.638 264.413 150.915 264.69 151.331 264.968C151.608 265.106 151.885 265.245 152.162 265.245C152.578 265.245 152.994 265.106 153.132 264.69L158.676 258.731V275.916L133.87 277.024C133.592 277.024 133.177 277.163 133.038 277.44C132.761 277.717 132.761 277.994 132.761 278.271L133.315 297.534ZM150.222 335.506C155.211 333.981 159.646 331.764 163.526 328.992C165.743 331.764 168.792 333.981 172.118 335.506H150.222ZM322.34 335.506C330.378 332.041 335.921 324.419 335.921 315.55V263.027C338 268.571 340.079 274.114 342.019 279.657C342.296 280.627 342.85 281.597 343.82 281.597C344.236 281.597 344.79 281.459 345.345 281.182C348.948 279.796 352.69 278.41 356.293 277.163L363.776 274.391L365.023 273.975L370.844 289.635C376.526 304.74 382.069 319.984 387.751 335.09C387.751 335.228 387.889 335.367 388.028 335.644H322.34V335.506Z" fill="#321951"/>
<path d="M287.556 324.418H206.763C206.07 324.418 205.516 324.973 205.516 325.666C205.516 326.359 206.07 326.913 206.763 326.913H287.556C288.249 326.913 288.804 326.359 288.804 325.666C288.804 324.973 288.249 324.418 287.556 324.418Z" fill="#321951"/>
<path d="M240.439 320.123H254.02H257.9C258.593 320.123 259.147 319.569 259.147 318.876C259.147 318.183 258.593 317.629 257.9 317.629H254.02H240.439H236.558C235.865 317.629 235.311 318.183 235.311 318.876C235.311 319.569 235.865 320.123 236.558 320.123H240.439Z" fill="#321951"/>
<path d="M208.426 29.9329H286.032C286.725 29.9329 287.279 29.3786 287.279 28.6857C287.279 27.9928 286.725 27.4385 286.032 27.4385H208.426C207.734 27.4385 207.179 27.9928 207.179 28.6857C207.179 29.3786 207.734 29.9329 208.426 29.9329Z" fill="#321951"/>
<path d="M237.113 34.0908C236.42 34.0908 235.866 34.6451 235.866 35.3381C235.866 36.031 236.42 36.5853 237.113 36.5853H257.207C257.9 36.5853 258.454 36.031 258.454 35.3381C258.454 34.6451 257.9 34.0908 257.207 34.0908H237.113Z" fill="#321951"/>
<path d="M247.645 104.352C247.922 104.074 248.199 103.797 248.615 103.797C249.03 103.797 249.308 104.074 249.585 104.49C249.862 104.906 250.278 105.183 250.693 105.183C250.832 105.183 251.109 105.183 251.248 105.045C251.802 104.767 252.079 103.936 251.802 103.382C251.248 102.273 250.139 101.441 248.753 101.441C247.506 101.441 246.259 101.996 245.566 103.104C245.15 103.659 245.289 104.49 245.843 104.906C246.536 105.045 247.368 104.906 247.645 104.352Z" fill="#321951"/>
<path d="M255.821 125.692C255.544 126.108 255.267 126.247 254.851 126.247C254.436 126.247 254.158 125.969 253.881 125.554C253.604 124.999 252.773 124.722 252.218 124.999C251.664 125.277 251.387 126.108 251.664 126.662C252.218 127.771 253.465 128.602 254.713 128.602H254.851C256.099 128.602 257.207 128.048 257.9 126.939C258.316 126.385 258.177 125.554 257.623 125.138C257.069 124.999 256.237 125.138 255.821 125.692Z" fill="#321951"/>
<path d="M248.615 105.322C247.367 105.184 246.397 106.708 246.12 108.648C245.982 110.45 246.675 111.974 247.645 112.251C247.783 112.251 247.783 112.251 247.922 112.251C248.615 112.251 249.169 111.974 249.585 111.281C250 110.727 250.278 109.895 250.278 108.925C250.555 107.124 249.723 105.461 248.615 105.322Z" fill="#321951"/>
<path d="M263.028 105.738C263.305 105.323 263.582 105.184 263.998 105.184C264.414 105.184 264.691 105.461 264.968 105.877C265.245 106.293 265.661 106.57 266.077 106.57C266.215 106.57 266.493 106.57 266.631 106.431C267.185 106.154 267.463 105.323 267.185 104.768C266.631 103.66 265.522 102.828 264.137 102.828C262.889 102.69 261.642 103.383 260.949 104.353C260.534 104.907 260.672 105.738 261.226 106.154C261.781 106.431 262.612 106.293 263.028 105.738Z" fill="#321951"/>
<path d="M263.858 106.708C262.611 106.569 261.641 108.094 261.364 110.034C261.225 111.835 261.918 113.36 262.888 113.637C263.027 113.637 263.027 113.637 263.165 113.637C263.858 113.637 264.413 113.36 264.828 112.667C265.244 112.113 265.521 111.281 265.521 110.311C265.937 108.371 265.106 106.708 263.858 106.708Z" fill="#321951"/>
<path d="M250.832 119.457C250.693 120.15 250.97 120.842 251.663 120.981L256.236 122.367C256.375 122.367 256.513 122.367 256.652 122.367C256.929 122.367 257.206 122.228 257.345 122.09C257.622 121.813 257.899 121.535 257.899 121.12L258.176 111.142C258.176 110.449 257.622 109.895 256.929 109.895C256.236 109.895 255.682 110.449 255.682 111.142L255.405 119.595L252.356 118.625C251.802 118.487 251.109 118.902 250.832 119.457Z" fill="#321951"/>
<path d="M247.229 171.564C277.578 171.564 302.384 146.896 302.384 116.408C302.384 86.059 277.717 61.2529 247.229 61.2529C216.741 61.2529 192.073 86.059 192.073 116.547C192.073 146.896 216.879 171.564 247.229 171.564ZM194.568 116.547C194.568 87.5834 218.127 63.886 247.229 63.886C276.192 63.886 299.89 87.4448 299.89 116.547C299.89 128.881 295.594 140.244 288.387 149.252C285.061 143.016 279.102 138.997 270.926 137.473C266.353 136.641 262.334 136.78 260.394 136.918V135.394C260.532 135.255 260.81 135.255 260.948 135.117C271.619 127.911 271.48 105.738 271.342 101.164C274.806 100.056 277.855 98.3927 280.488 95.8983C280.904 95.4825 281.042 94.9282 280.765 94.3739C280.488 93.8196 279.934 93.681 279.38 93.8196C279.38 93.8196 277.855 94.0967 275.915 93.4038C278.271 91.6023 281.874 87.722 280.904 79.8228C280.904 79.4071 280.627 79.1299 280.211 78.8528C279.795 78.7142 279.38 78.7142 279.102 78.8528C278.964 78.8528 270.926 83.0102 261.225 76.4969C257.761 74.141 254.435 73.4481 251.247 74.141C247.367 75.1111 244.873 78.0213 243.764 79.5457C241.685 78.5756 236.835 76.774 231.153 78.5756C224.778 80.5157 219.512 86.059 215.355 95.2054C215.078 95.7597 215.216 96.314 215.632 96.7298C216.048 97.1455 216.602 97.1455 217.018 96.8684C217.018 96.8684 217.849 96.5912 219.512 97.0069C218.542 99.64 217.018 105.599 219.512 111.835C221.868 117.656 227.134 122.229 235.033 125.278C234.479 131.375 234.202 134.978 234.063 137.196C232.123 137.057 227.966 136.918 223.254 137.75C217.711 138.859 213.138 141.076 209.673 144.263C209.257 144.679 208.98 144.956 208.564 145.372C207.594 146.48 206.624 147.728 205.931 149.114C198.864 139.967 194.568 128.742 194.568 116.547ZM243.487 134.84C246.951 136.503 250.277 137.334 253.188 137.334C254.851 137.334 256.236 137.057 257.761 136.641V140.106C257.761 146.065 252.91 150.915 246.951 150.915C240.992 150.915 236.142 146.065 236.142 140.106C236.142 139.551 237.528 123.337 238.082 114.745C238.082 114.052 237.667 113.498 236.974 113.36C236.558 113.36 236.281 113.498 236.004 113.637C235.172 114.052 234.063 114.052 232.955 113.775C232.262 113.498 231.708 113.221 231.153 112.667C231.153 112.667 231.015 112.528 231.015 112.389C230.876 112.251 230.737 112.112 230.599 111.835C230.183 111.004 230.045 110.172 230.322 109.479C230.876 107.816 232.955 106.985 234.895 107.678C236.004 108.093 236.835 108.786 237.251 109.756C237.251 109.895 237.389 110.034 237.389 110.034C237.528 110.449 237.805 110.726 238.221 110.726C238.359 110.726 239.468 111.004 240.577 110.034C242.655 108.371 243.903 104.075 244.041 97.2841C246.259 98.3927 250.416 100.194 255.405 101.164C260.117 102.134 264.413 102.273 268.293 101.442C268.432 106.708 268.154 126.525 259.008 132.761C255.266 135.255 250.277 135.117 244.18 132.345C243.487 132.068 242.794 132.345 242.517 132.9C242.655 133.87 242.933 134.562 243.487 134.84ZM233.648 139.413C233.648 139.967 233.648 139.967 233.648 139.967C233.648 147.312 239.607 153.271 246.951 153.271C254.296 153.271 260.255 147.312 260.255 139.967V139.413C264.551 139.136 280.488 138.72 286.586 151.331C280.072 158.676 271.48 164.219 261.918 166.991C259.285 167.683 256.652 168.238 254.019 168.654C251.802 168.931 249.585 169.069 247.367 169.069C246.536 169.069 245.843 169.069 245.011 169.069C242.517 168.931 240.161 168.654 237.805 168.238C225.887 166.02 215.355 159.784 207.733 151.054C213.692 138.72 229.49 138.997 233.648 139.413Z" fill="#321951"/>
<path d="M281.875 198.727H214.94C209.258 198.727 204.685 203.3 204.685 208.982V253.605C204.685 259.287 209.258 263.86 214.94 263.86H281.875C287.557 263.86 292.13 259.287 292.13 253.605V208.982C292.13 203.3 287.557 198.727 281.875 198.727ZM214.94 201.221H281.875C283.538 201.221 285.062 201.775 286.448 202.607C283.815 205.101 280.489 208.15 276.886 211.476C270.373 217.574 263.028 224.503 258.455 228.799C258.316 228.937 258.177 229.076 258.039 229.076C257.485 229.63 256.792 230.323 256.237 231.016C255.683 231.709 254.99 232.402 254.436 232.956L253.743 233.649C252.08 235.173 250.14 237.114 248.477 237.114C246.814 237.114 244.735 235.173 243.211 233.649L242.518 232.956C241.963 232.402 241.271 231.709 240.716 231.016C240.162 230.323 239.469 229.769 238.915 229.076C238.776 228.937 238.637 228.799 238.637 228.799C234.203 224.503 229.63 220.207 225.195 216.188C220.483 211.753 215.494 207.18 210.783 202.607C211.753 201.637 213.277 201.221 214.94 201.221ZM207.18 253.605V208.982C207.18 207.18 207.734 205.656 208.704 204.27C213.554 208.843 218.405 213.555 223.255 217.989C227.412 221.87 231.57 225.889 235.727 229.769C231.57 234.203 227.135 238.777 222.978 243.073C218.266 247.923 213.416 253.05 208.704 258.178C207.734 256.931 207.18 255.406 207.18 253.605ZM281.875 261.365H214.94C213.277 261.365 211.753 260.811 210.505 259.98C215.217 254.852 220.068 249.863 224.779 244.874C228.937 240.578 233.233 236.005 237.529 231.57C237.945 231.986 238.36 232.402 238.637 232.818C239.192 233.51 239.885 234.203 240.578 234.896L241.271 235.589C243.211 237.391 245.567 239.747 248.338 239.747C251.11 239.747 253.466 237.391 255.406 235.589L256.099 234.896C256.792 234.203 257.485 233.51 258.039 232.818C258.455 232.402 258.732 231.986 259.148 231.57C263.305 236.005 267.601 240.578 271.897 244.874C276.609 249.725 281.459 254.852 286.309 259.98C285.062 260.811 283.538 261.365 281.875 261.365ZM289.635 253.605C289.635 255.406 289.081 256.931 288.111 258.317C283.399 253.189 278.549 248.2 273.837 243.211C269.68 238.915 265.384 234.342 261.088 229.907C265.661 225.473 272.451 219.098 278.549 213.416C282.152 210.09 285.478 206.903 288.111 204.408C289.081 205.656 289.635 207.319 289.635 208.982V253.605Z" fill="#321951"/>
<path d="M391.63 261.365L401.747 257.623C406.32 255.96 410.893 254.158 415.466 252.495C415.605 252.495 415.605 252.357 415.743 252.357C415.743 252.218 415.743 252.218 415.605 252.08C412.833 244.596 410.062 237.113 407.29 229.768C407.29 229.629 407.151 229.491 407.151 229.352C407.013 229.352 406.874 229.491 406.736 229.491L383.038 238.36C382.761 238.499 382.345 238.499 382.068 238.36C381.791 238.221 381.514 237.944 381.375 237.667L380.544 235.311C379.989 233.787 379.435 232.262 378.881 230.738C377.356 226.581 375.832 222.7 374.446 218.681C373.753 216.88 373.615 214.663 373.892 212.584C374.308 208.565 376.802 205.516 381.375 203.576C385.117 202.052 388.997 200.527 392.462 199.28L396.065 197.894C396.204 197.894 396.342 197.756 396.481 197.756C396.481 197.617 396.481 197.617 396.342 197.479C395.511 195.261 394.679 193.044 393.848 190.827L393.432 189.579C391.907 185.283 390.244 181.126 388.72 176.83C388.72 176.691 388.582 176.553 388.582 176.553L366.824 184.59L365.577 185.283C364.468 185.976 363.498 186.531 362.528 187.085C356.431 190.965 352.273 195.816 349.917 201.775C347.146 208.981 347.007 216.603 349.779 224.918C351.026 228.936 352.689 233.094 354.213 236.974C354.906 238.776 355.599 240.716 356.292 242.517L357.816 246.536C358.094 247.229 357.678 247.922 357.124 248.199L347.146 251.941C343.543 253.327 339.939 254.574 336.475 255.96C336.336 255.96 336.336 255.96 336.198 256.098V256.237C338.969 263.72 341.741 271.342 344.651 278.826C344.651 278.964 344.651 278.964 344.79 278.964H344.928C348.531 277.579 352.273 276.193 355.876 274.946L365.716 271.342C365.854 271.342 365.993 271.342 366.131 271.342C366.686 271.342 367.101 271.62 367.24 272.174L373.476 289.081C379.158 304.186 384.701 319.43 390.383 334.536C390.383 334.674 390.522 334.813 390.522 334.951L414.358 326.082C414.358 325.943 414.219 325.666 414.081 325.389C408.676 310.977 403.271 296.426 397.866 282.013L390.937 263.305C390.799 263.028 390.799 262.612 390.937 262.335C391.076 261.642 391.215 261.503 391.63 261.365Z" fill="#8B6FE2"/>
</svg>
