<svg width="505" height="341" viewBox="0 0 505 341" fill="none" xmlns="http://www.w3.org/2000/svg">
<g clip-path="url(#clip0_2051_111718)">
<path d="M408.553 21.7609C407.169 21.7526 405.812 22.1421 404.644 22.8831C403.476 23.6241 402.545 24.6853 401.963 25.9403C401.479 26.924 401.231 28.0067 401.239 29.1027C401.23 30.1575 401.45 31.2016 401.883 32.1635C402.315 33.1253 402.951 33.9822 403.746 34.6753C405.015 35.7382 406.602 36.3492 408.256 36.4122C409.91 36.4753 411.539 35.9868 412.885 35.0236C414.13 34.1136 415.054 32.8329 415.526 31.3651C415.998 29.8973 415.993 28.3177 415.512 26.8529C415.031 25.388 414.099 24.1131 412.849 23.2108C411.598 22.3086 410.094 21.8254 408.553 21.8305V21.7609Z" fill="#F4825C"/>
<path d="M408.553 39.175C406.567 39.1665 404.628 38.5702 402.98 37.4614L394.775 45.1794C390.428 49.1499 385.984 53.3293 381.637 57.5087C386.193 62.3569 390.846 67.2607 395.36 71.9138C400.403 77.166 405.599 82.5853 410.684 88.0325C411.75 86.6092 412.327 84.8791 412.328 83.1008V38.4088C411.131 38.9067 409.849 39.167 408.553 39.175V39.175Z" fill="white"/>
<path d="M408.678 89.983C403.593 84.5497 398.397 79.1304 393.354 73.8782C388.84 69.1833 384.187 64.3352 379.645 59.4731C379.241 59.905 378.823 60.3369 378.419 60.8663C377.764 61.5907 377.096 62.2594 376.371 63.0257L375.549 63.8058C373.474 65.798 370.896 68.2778 367.929 68.2917C364.961 68.3057 362.356 65.7841 360.294 63.778L359.514 63.0396C358.762 62.3291 358.121 61.5629 357.397 60.8245C357.007 60.3926 356.603 59.9747 356.213 59.5567C351.657 64.4049 347.018 69.2391 342.518 73.92C337.475 79.1861 332.264 84.6054 327.193 90.0526C328.573 91.0331 330.224 91.5591 331.916 91.5572H403.983C405.674 91.5339 407.315 90.9836 408.678 89.983V89.983ZM371.69 81.2758H381.275C381.645 81.2758 381.999 81.4226 382.26 81.6839C382.521 81.9451 382.668 82.2995 382.668 82.669C382.668 83.0384 382.521 83.3928 382.26 83.6541C381.999 83.9153 381.645 84.0621 381.275 84.0621H371.69C371.321 84.0621 370.966 83.9153 370.705 83.6541C370.444 83.3928 370.297 83.0384 370.297 82.669C370.297 82.2995 370.444 81.9451 370.705 81.6839C370.966 81.4226 371.321 81.2758 371.69 81.2758ZM397.812 88.7013H355.182C354.812 88.7013 354.458 88.5545 354.196 88.2932C353.935 88.032 353.788 87.6776 353.788 87.3081C353.788 86.9386 353.935 86.5843 354.196 86.323C354.458 86.0618 354.812 85.915 355.182 85.915H397.812C398.181 85.915 398.536 86.0618 398.797 86.323C399.058 86.5843 399.205 86.9386 399.205 87.3081C399.205 87.6776 399.058 88.032 398.797 88.2932C398.536 88.5545 398.181 88.7013 397.812 88.7013Z" fill="white"/>
<path d="M344.998 229.687L368.458 298.522C368.546 298.778 368.557 299.054 368.49 299.317C368.423 299.579 368.281 299.816 368.082 299.999C364.86 302.905 362.576 306.705 361.522 310.914C360.468 315.123 360.692 319.55 362.164 323.631C363.636 327.713 366.29 331.264 369.788 333.831C373.286 336.398 377.469 337.865 381.804 338.046H383.574C385.666 337.945 387.734 337.551 389.717 336.875C394.475 335.257 398.529 332.045 401.192 327.783C403.855 323.521 404.966 318.47 404.335 313.484C403.704 308.498 401.372 303.882 397.731 300.418C394.09 296.953 389.365 294.851 384.354 294.468C384.081 294.447 383.821 294.345 383.605 294.177C383.39 294.009 383.228 293.78 383.142 293.521L367.149 246.614C367.029 246.265 367.052 245.882 367.214 245.55C367.376 245.219 367.663 244.965 368.012 244.844L374.783 242.546L372.665 236.374L365.923 238.687C365.749 238.746 365.565 238.77 365.382 238.758C365.199 238.745 365.02 238.697 364.856 238.616C364.691 238.534 364.544 238.421 364.424 238.282C364.303 238.144 364.211 237.983 364.153 237.809L361.074 228.782C360.955 228.432 360.978 228.05 361.14 227.718C361.302 227.386 361.589 227.133 361.938 227.012L368.695 224.714L365.323 214.822L358.567 217.121C358.502 217.127 358.437 217.127 358.372 217.121L344.998 221.677V229.687ZM393.242 302.395C393.486 302.118 393.83 301.95 394.198 301.926C394.567 301.903 394.929 302.026 395.206 302.27C398.247 304.918 400.363 308.467 401.247 312.401C402.132 316.334 401.738 320.447 400.124 324.142C400.015 324.391 399.836 324.603 399.608 324.752C399.381 324.9 399.114 324.979 398.842 324.978C398.656 324.975 398.472 324.937 398.299 324.867C398.13 324.794 397.978 324.688 397.85 324.557C397.722 324.425 397.622 324.269 397.554 324.098C397.487 323.927 397.454 323.744 397.458 323.561C397.461 323.377 397.501 323.196 397.575 323.028C399.194 319.33 399.368 315.159 398.062 311.339C397.136 308.649 395.522 306.247 393.381 304.373C393.241 304.253 393.126 304.107 393.043 303.942C392.961 303.777 392.911 303.597 392.898 303.413C392.885 303.229 392.909 303.045 392.968 302.87C393.027 302.695 393.12 302.534 393.242 302.395V302.395ZM370.436 318.444C379.436 315.365 377.291 304.931 377.193 304.513C377.122 304.179 377.176 303.831 377.344 303.535C377.513 303.238 377.784 303.014 378.107 302.904C378.43 302.794 378.781 302.807 379.096 302.939C379.41 303.071 379.665 303.314 379.812 303.621C379.812 303.705 383.462 311.158 390.191 311.158C391.383 311.153 392.565 310.946 393.688 310.545C394.039 310.425 394.423 310.449 394.756 310.613C395.089 310.776 395.344 311.065 395.464 311.416C395.584 311.767 395.56 312.151 395.397 312.484C395.233 312.817 394.944 313.072 394.593 313.192C386.388 315.978 387.461 325.006 387.781 326.901C387.854 327.063 387.892 327.238 387.892 327.416C387.887 327.608 387.845 327.797 387.767 327.973C387.663 328.228 387.485 328.445 387.257 328.599C387.029 328.753 386.76 328.836 386.485 328.837C386.224 328.838 385.968 328.765 385.747 328.627C385.525 328.489 385.346 328.291 385.231 328.057C385.078 327.75 381.484 320.534 374.839 320.534C373.651 320.54 372.474 320.747 371.356 321.147C371.182 321.206 370.998 321.231 370.815 321.219C370.632 321.208 370.452 321.16 370.287 321.079C370.122 320.999 369.975 320.886 369.854 320.748C369.732 320.61 369.639 320.45 369.58 320.276C369.52 320.102 369.495 319.919 369.507 319.735C369.519 319.552 369.566 319.373 369.647 319.208C369.728 319.043 369.84 318.895 369.978 318.774C370.116 318.652 370.276 318.559 370.45 318.5L370.436 318.444ZM354.624 244.023C354.798 243.964 354.982 243.939 355.165 243.952C355.348 243.964 355.527 244.012 355.691 244.094C355.856 244.175 356.002 244.288 356.123 244.427C356.243 244.565 356.335 244.726 356.393 244.9L370.325 285.789C370.445 286.138 370.421 286.521 370.259 286.852C370.097 287.184 369.81 287.438 369.461 287.558C369.316 287.601 369.166 287.624 369.015 287.628C368.723 287.629 368.438 287.538 368.201 287.368C367.963 287.198 367.785 286.957 367.692 286.681L353.76 245.792C353.641 245.443 353.664 245.06 353.826 244.728C353.988 244.397 354.275 244.143 354.624 244.023Z" fill="#FBC22D"/>
<path d="M331.902 26.7065C330.23 26.71 328.598 27.22 327.221 28.1693C332.39 33.1847 337.698 38.1582 342.852 42.9784C347.561 47.3808 352.423 51.9224 357.16 56.478C357.228 56.5394 357.293 56.6045 357.355 56.673L357.48 56.7845C358.191 57.481 358.873 58.1776 359.472 58.8881C360.071 59.5986 360.754 60.2813 361.423 60.936L362.217 61.7023C363.944 63.3601 366.076 65.422 367.929 65.4359C369.782 65.4498 371.899 63.374 373.627 61.7162L374.449 60.936C375.09 60.3231 375.703 59.6404 376.357 58.9299C377.012 58.2194 377.639 57.5368 378.336 56.8263L378.503 56.673L378.712 56.4641C383.351 52.006 388.157 47.5201 392.796 43.1735C395.471 40.6658 398.16 38.1442 400.821 35.6227C399.275 33.8016 398.426 31.4912 398.425 29.1027C398.425 28.3052 398.519 27.5104 398.703 26.7344L331.902 26.7065Z" fill="white"/>
<path d="M323.543 83.1287C323.537 84.9059 324.109 86.6369 325.173 88.0604C330.258 82.5993 335.469 77.18 340.498 71.9278C345.012 67.233 349.665 62.3848 354.206 57.5367C349.79 53.3573 345.29 49.0803 340.944 44.9984C335.747 40.1503 330.411 35.135 325.187 30.0918C324.11 31.5209 323.528 33.262 323.529 35.0514L323.543 83.1287Z" fill="white"/>
<path d="M300.139 185.539L289.746 206.756C289.642 206.967 289.487 207.148 289.294 207.282C289.101 207.417 288.878 207.501 288.645 207.526C288.411 207.551 288.175 207.516 287.958 207.425C287.742 207.335 287.551 207.191 287.405 207.007L279.116 196.489L275.48 201.281L289.634 219.239L304.666 188.59L300.139 185.539Z" fill="white"/>
<path d="M274.184 142.156C273.014 142.059 271.997 143.452 271.83 145.388C271.663 147.325 272.317 148.62 273.348 148.927C273.431 148.94 273.516 148.94 273.599 148.927C273.94 148.934 274.277 148.847 274.572 148.675C274.867 148.503 275.109 148.252 275.271 147.952C275.688 147.274 275.927 146.503 275.967 145.709C276.148 143.884 275.34 142.268 274.184 142.156Z" fill="#321951"/>
<path d="M260.239 204.095C260.949 204.095 261.632 204.095 262.329 204.026C262.273 203.32 262.245 202.609 262.245 201.894C262.265 195.759 264.302 189.802 268.044 184.94C271.785 180.078 277.022 176.583 282.947 174.993C279.033 173.964 274.974 173.597 270.938 173.906V174.282C270.995 176.031 270.7 177.774 270.07 179.407C269.44 181.04 268.488 182.529 267.271 183.787C266.054 185.044 264.597 186.044 262.985 186.727C261.374 187.41 259.642 187.762 257.891 187.762C256.141 187.762 254.409 187.41 252.798 186.727C251.186 186.044 249.729 185.044 248.512 183.787C247.294 182.529 246.343 181.04 245.713 179.407C245.083 177.774 244.787 176.031 244.845 174.282C244.845 174.282 244.845 174.115 244.845 173.878C240.665 173.572 226.163 173.39 220.186 184.508C224.914 190.625 230.984 195.573 237.93 198.969C244.875 202.366 252.508 204.12 260.239 204.095V204.095Z" fill="#FBC22D"/>
<path d="M260.239 212.343C261.632 212.343 262.9 212.343 264.21 212.203C263.524 210.458 263.02 208.646 262.705 206.798C261.883 206.798 261.061 206.881 260.239 206.881C248.463 206.882 237.014 203.003 227.664 195.843C218.313 188.684 211.582 178.644 208.511 167.275C205.439 155.906 206.199 143.842 210.672 132.949C215.146 122.055 223.083 112.938 233.258 107.009C243.433 101.079 255.277 98.6666 266.961 100.145C278.644 101.622 289.515 106.908 297.893 115.185C306.27 123.461 311.688 134.267 313.308 145.931C314.927 157.596 312.659 169.469 306.854 179.715C308.34 180.841 309.712 182.11 310.949 183.504C317.609 172.312 320.379 159.23 318.827 146.299C317.276 133.367 311.49 121.312 302.371 112.012C293.253 102.713 281.314 96.6909 268.415 94.8853C255.517 93.0798 242.383 95.592 231.062 102.03C219.74 108.469 210.866 118.472 205.824 130.48C200.781 142.488 199.852 155.828 203.183 168.419C206.513 181.01 213.915 192.146 224.236 200.091C234.556 208.036 247.215 212.344 260.239 212.343V212.343Z" fill="#00DA9C"/>
<path d="M310.03 186.764C307.699 183.68 304.684 181.179 301.222 179.457C297.76 177.736 293.946 176.842 290.08 176.845C289.467 176.845 288.868 176.845 288.269 176.915C281.959 177.379 276.057 180.211 271.748 184.844C267.438 189.476 265.039 195.567 265.031 201.894C265.03 202.994 265.104 204.092 265.254 205.182C265.59 207.838 266.357 210.421 267.525 212.83C269.031 216.013 271.191 218.843 273.864 221.136C276.536 223.428 279.662 225.132 283.037 226.137C286.412 227.142 289.96 227.424 293.452 226.967C296.943 226.509 300.299 225.321 303.301 223.48C306.302 221.639 308.883 219.187 310.874 216.282C312.865 213.378 314.222 210.087 314.857 206.624C315.492 203.16 315.39 199.602 314.558 196.18C313.727 192.758 312.184 189.55 310.03 186.764V186.764ZM307.689 188.673L291.139 222.457C291.035 222.667 290.879 222.847 290.687 222.981C290.494 223.115 290.271 223.198 290.038 223.223H289.899C289.687 223.224 289.478 223.177 289.287 223.085C289.097 222.994 288.929 222.86 288.798 222.694L272.61 202.145C272.419 201.9 272.315 201.598 272.315 201.288C272.315 200.977 272.419 200.676 272.61 200.431L278.001 193.354C278.131 193.185 278.298 193.049 278.489 192.955C278.679 192.86 278.889 192.811 279.102 192.811C279.313 192.814 279.52 192.864 279.71 192.955C279.9 193.046 280.068 193.178 280.203 193.34L288.241 203.524L298.341 182.891C298.428 182.716 298.552 182.56 298.703 182.436C298.854 182.311 299.03 182.219 299.219 182.167C299.411 182.114 299.613 182.102 299.81 182.133C300.007 182.165 300.195 182.238 300.361 182.348L307.216 186.904C307.495 187.092 307.697 187.374 307.784 187.7C307.871 188.025 307.837 188.371 307.689 188.673V188.673Z" fill="#00DA9C"/>
<path d="M254.499 169.545C254.163 169.388 253.903 169.104 253.776 168.755C253.65 168.406 253.667 168.022 253.824 167.685C253.981 167.349 254.265 167.089 254.614 166.962C254.962 166.836 255.347 166.853 255.683 167.01C260.977 169.476 265.435 169.796 268.835 167.999C278.796 162.733 278.74 141.292 278.587 136.932C269.294 138.158 259.751 134.229 255.614 132.209C255.614 138.729 254.555 143.089 252.493 145.193C251.849 145.923 250.943 146.368 249.972 146.433C249.697 146.428 249.431 146.342 249.205 146.186C248.98 146.029 248.805 145.81 248.704 145.555C248.704 145.472 248.634 145.388 248.592 145.318C248.366 144.861 248.049 144.453 247.661 144.12C247.273 143.788 246.822 143.537 246.336 143.382C245.964 143.164 245.549 143.032 245.12 142.996C244.691 142.959 244.259 143.018 243.856 143.169C243.452 143.32 243.088 143.559 242.789 143.868C242.489 144.177 242.263 144.55 242.125 144.958C241.988 145.366 241.943 145.799 241.994 146.227C242.045 146.654 242.191 147.065 242.421 147.429C242.651 147.793 242.959 148.102 243.323 148.332C243.686 148.562 244.097 148.708 244.524 148.76C245.43 149.087 246.426 149.057 247.311 148.676H247.478C247.677 148.558 247.902 148.491 248.133 148.481C248.502 148.481 248.856 148.628 249.118 148.889C249.379 149.15 249.526 149.505 249.526 149.874C249.532 149.99 249.532 150.106 249.526 150.222L249.4 151.81C249.261 153.482 249.052 156.171 248.815 159.111L247.729 172.861C247.729 173.808 247.617 174.379 247.603 174.477C247.603 177.2 248.685 179.812 250.611 181.737C252.536 183.663 255.148 184.744 257.871 184.744C260.594 184.744 263.205 183.663 265.131 181.737C267.056 179.812 268.138 177.2 268.138 174.477V171.44C266.789 171.882 265.378 172.103 263.959 172.095C260.658 171.939 257.431 171.069 254.499 169.545ZM261.228 144.469C261.191 145.259 260.951 146.026 260.532 146.698C260.373 147.002 260.132 147.256 259.837 147.431C259.542 147.606 259.203 147.694 258.86 147.687C258.772 147.7 258.683 147.7 258.595 147.687C257.564 147.38 256.937 145.89 257.091 144.148C257.244 142.407 258.261 140.819 259.459 140.916C260.657 141.014 261.395 142.49 261.228 144.455V144.469ZM268.626 161.994C268.291 162.496 267.837 162.908 267.305 163.192C266.773 163.476 266.178 163.625 265.575 163.624H265.38C264.74 163.587 264.121 163.384 263.583 163.034C263.046 162.685 262.609 162.202 262.315 161.632C262.229 161.47 262.176 161.293 262.158 161.11C262.141 160.928 262.159 160.744 262.213 160.569C262.321 160.215 262.566 159.918 262.893 159.744C263.22 159.571 263.603 159.534 263.957 159.643C264.311 159.751 264.607 159.996 264.781 160.323C264.846 160.467 264.949 160.591 265.079 160.682C265.209 160.773 265.361 160.827 265.519 160.838C265.677 160.845 265.834 160.811 265.975 160.74C266.117 160.67 266.238 160.564 266.327 160.434C266.422 160.268 266.551 160.123 266.705 160.008C266.859 159.894 267.035 159.812 267.222 159.769C267.409 159.726 267.603 159.722 267.792 159.757C267.98 159.792 268.16 159.866 268.318 159.974C268.477 160.082 268.612 160.221 268.714 160.383C268.817 160.546 268.884 160.727 268.913 160.917C268.942 161.107 268.931 161.3 268.882 161.486C268.833 161.671 268.745 161.844 268.626 161.994V161.994ZM275.968 145.695C275.927 146.489 275.688 147.26 275.271 147.938C275.109 148.238 274.868 148.489 274.573 148.661C274.278 148.833 273.941 148.92 273.599 148.913C273.516 148.926 273.432 148.926 273.349 148.913C272.318 148.606 271.677 147.116 271.83 145.374C271.983 143.633 273.014 142.045 274.184 142.142C275.355 142.24 276.149 143.884 275.968 145.75V145.695ZM271.203 139.746C271.557 139.212 272.045 138.78 272.619 138.494C273.193 138.209 273.832 138.079 274.471 138.119C275.111 138.158 275.729 138.365 276.263 138.719C276.797 139.074 277.229 139.562 277.514 140.136C277.599 140.299 277.65 140.477 277.666 140.659C277.681 140.842 277.661 141.026 277.605 141.201C277.549 141.375 277.46 141.537 277.341 141.678C277.223 141.818 277.078 141.933 276.915 142.017C276.721 142.116 276.506 142.169 276.288 142.17C276.032 142.17 275.781 142.101 275.563 141.968C275.344 141.835 275.166 141.645 275.048 141.418C274.984 141.272 274.881 141.146 274.751 141.055C274.62 140.963 274.467 140.908 274.308 140.897C274.15 140.886 273.99 140.918 273.848 140.99C273.706 141.062 273.586 141.171 273.502 141.306C273.406 141.473 273.278 141.618 273.124 141.732C272.97 141.846 272.794 141.928 272.607 141.971C272.42 142.014 272.226 142.018 272.037 141.983C271.849 141.948 271.669 141.874 271.511 141.766C271.352 141.659 271.217 141.519 271.115 141.357C271.012 141.195 270.945 141.013 270.916 140.823C270.887 140.634 270.897 140.44 270.947 140.255C270.996 140.069 271.084 139.896 271.203 139.746V139.746ZM265.937 154.388L266.174 146.53C266.174 146.161 266.321 145.807 266.582 145.545C266.843 145.284 267.198 145.137 267.567 145.137C267.936 145.137 268.291 145.284 268.552 145.545C268.813 145.807 268.96 146.161 268.96 146.53L268.668 156.282C268.66 156.496 268.603 156.706 268.502 156.894C268.4 157.083 268.257 157.245 268.082 157.369C267.85 157.545 267.566 157.638 267.274 157.634C267.137 157.631 267.001 157.607 266.87 157.564L262.398 156.171C262.207 156.133 262.026 156.054 261.867 155.942C261.708 155.829 261.575 155.684 261.475 155.516C261.376 155.349 261.312 155.162 261.29 154.968C261.267 154.775 261.285 154.578 261.343 154.392C261.401 154.206 261.497 154.034 261.625 153.887C261.754 153.741 261.912 153.623 262.089 153.541C262.266 153.459 262.458 153.415 262.653 153.412C262.848 153.409 263.041 153.447 263.22 153.524L265.937 154.388ZM256.464 138.436C256.819 137.903 257.308 137.472 257.882 137.187C258.457 136.903 259.096 136.775 259.736 136.815C260.376 136.856 260.993 137.065 261.527 137.421C262.06 137.776 262.49 138.266 262.775 138.84C262.946 139.167 262.981 139.549 262.871 139.902C262.762 140.255 262.516 140.549 262.189 140.721C261.989 140.818 261.771 140.87 261.549 140.874C261.293 140.875 261.042 140.805 260.823 140.672C260.604 140.54 260.426 140.349 260.309 140.122C260.237 139.977 260.128 139.853 259.994 139.763C259.859 139.673 259.704 139.619 259.542 139.607C259.384 139.603 259.226 139.639 259.085 139.712C258.944 139.785 258.823 139.893 258.734 140.025C258.64 140.195 258.51 140.344 258.355 140.462C258.199 140.579 258.02 140.663 257.83 140.707C257.64 140.751 257.442 140.754 257.251 140.717C257.059 140.68 256.877 140.603 256.717 140.491C256.557 140.379 256.423 140.235 256.322 140.068C256.221 139.9 256.157 139.714 256.133 139.52C256.109 139.326 256.126 139.13 256.183 138.943C256.24 138.756 256.336 138.584 256.464 138.436V138.436Z" fill="#FDC8B4"/>
<path d="M259.459 140.861C258.261 140.763 257.258 142.156 257.09 144.093C256.923 146.029 257.564 147.325 258.595 147.631C258.683 147.645 258.772 147.645 258.86 147.631C259.203 147.639 259.541 147.55 259.837 147.376C260.132 147.201 260.373 146.947 260.531 146.642C260.951 145.971 261.19 145.204 261.228 144.413C261.395 142.491 260.587 140.972 259.459 140.861Z" fill="#321951"/>
<path d="M304.541 178.141C308.339 171.371 310.534 163.819 310.957 156.068C311.381 148.316 310.021 140.57 306.983 133.426C303.945 126.282 299.31 119.93 293.433 114.857C287.556 109.785 280.595 106.127 273.083 104.166C265.572 102.204 257.711 101.991 250.104 103.543C242.498 105.094 235.348 108.369 229.205 113.116C223.062 117.862 218.089 123.954 214.668 130.923C211.248 137.892 209.47 145.552 209.473 153.316C209.416 163.594 212.519 173.641 218.361 182.098C221.719 176.678 227.333 173.084 234.786 171.677C238.166 171.05 241.612 170.863 245.04 171.12L245.918 159.975C238.213 157.035 233.156 152.675 230.899 147.005C229.213 142.399 229.213 137.345 230.899 132.739C230.218 132.536 229.492 132.536 228.81 132.739C228.557 132.878 228.267 132.936 227.98 132.904C227.693 132.871 227.423 132.75 227.208 132.558C226.989 132.355 226.841 132.087 226.785 131.793C226.73 131.5 226.771 131.196 226.901 130.928C230.899 122.109 236.04 116.704 242.226 114.837C246.259 113.667 250.58 113.998 254.388 115.77C256.083 113.217 258.615 111.335 261.549 110.449C263.24 110.097 264.987 110.116 266.67 110.503C268.353 110.89 269.933 111.637 271.301 112.691C280.565 118.947 288.325 115.032 288.394 114.99C288.595 114.884 288.818 114.829 289.044 114.829C289.271 114.829 289.494 114.884 289.694 114.99C289.895 115.096 290.066 115.249 290.194 115.436C290.322 115.623 290.402 115.838 290.428 116.063C291.348 123.433 288.213 127.208 285.873 129.103C286.794 129.46 287.795 129.566 288.771 129.409C289.075 129.329 289.398 129.354 289.686 129.48C289.975 129.607 290.212 129.827 290.359 130.106C290.506 130.382 290.556 130.7 290.501 131.009C290.445 131.317 290.287 131.598 290.052 131.805C287.573 134.01 284.594 135.578 281.373 136.375C281.512 139.844 282.014 163.081 270.855 169.977V171.078C276.87 170.59 282.912 171.625 288.422 174.087C288.952 174.087 289.495 174.087 290.038 174.087C295.154 174.073 300.174 175.476 304.541 178.141Z" fill="#8B6FE2"/>
<path d="M110.03 338.06H179.688C182.432 338.06 185.149 337.519 187.685 336.469C190.22 335.419 192.524 333.88 194.464 331.939C196.405 329.999 197.944 327.695 198.994 325.16C200.044 322.624 200.585 319.907 200.585 317.163V250.64C200.583 246.288 199.221 242.045 196.691 238.503C194.161 234.962 190.589 232.299 186.472 230.886C184.291 230.125 181.997 229.738 179.688 229.743H110.03C104.488 229.743 99.1729 231.945 95.2539 235.864C91.335 239.783 89.1333 245.098 89.1333 250.64V317.163C89.1333 319.907 89.6738 322.624 90.724 325.16C91.7742 327.695 93.3135 329.999 95.2539 331.939C97.1944 333.88 99.4981 335.419 102.033 336.469C104.569 337.519 107.286 338.06 110.03 338.06V338.06ZM194.065 279.548C194.065 279.179 194.212 278.824 194.473 278.563C194.734 278.302 195.088 278.155 195.458 278.155C195.827 278.155 196.182 278.302 196.443 278.563C196.704 278.824 196.851 279.179 196.851 279.548V319.949C196.851 320.319 196.704 320.673 196.443 320.934C196.182 321.196 195.827 321.342 195.458 321.342C195.088 321.342 194.734 321.196 194.473 320.934C194.212 320.673 194.065 320.319 194.065 319.949V279.548ZM188.032 299.261C188.032 298.891 188.179 298.537 188.44 298.276C188.702 298.015 189.056 297.868 189.426 297.868C189.795 297.868 190.149 298.015 190.411 298.276C190.672 298.537 190.819 298.891 190.819 299.261V309.208C190.819 309.578 190.672 309.932 190.411 310.193C190.149 310.454 189.795 310.601 189.426 310.601C189.056 310.601 188.702 310.454 188.44 310.193C188.179 309.932 188.032 309.578 188.032 309.208V299.261ZM130.273 304.374L135.706 283.922C134.481 282.235 133.746 280.241 133.583 278.162C133.42 276.082 133.835 273.998 134.782 272.14C135.729 270.282 137.172 268.722 138.95 267.632C140.728 266.542 142.773 265.965 144.859 265.965C146.948 265.961 148.997 266.536 150.779 267.626C152.56 268.717 154.005 270.28 154.952 272.142C155.899 274.004 156.311 276.092 156.142 278.174C155.974 280.256 155.232 282.251 153.998 283.936L159.376 304.095C159.476 304.284 159.529 304.494 159.529 304.708C159.529 305.078 159.382 305.432 159.121 305.693C158.859 305.955 158.505 306.101 158.136 306.101H131.666C131.451 306.103 131.238 306.055 131.045 305.96C130.852 305.866 130.683 305.728 130.551 305.558C130.42 305.396 130.328 305.207 130.279 305.004C130.231 304.802 130.229 304.591 130.273 304.388V304.374ZM99.7908 277.904C99.7908 277.535 99.9376 277.18 100.199 276.919C100.46 276.658 100.814 276.511 101.184 276.511C101.553 276.511 101.908 276.658 102.169 276.919C102.43 277.18 102.577 277.535 102.577 277.904V290.219C102.577 290.589 102.43 290.943 102.169 291.205C101.908 291.466 101.553 291.613 101.184 291.613C100.814 291.613 100.46 291.466 100.199 291.205C99.9376 290.943 99.7908 290.589 99.7908 290.219V277.904ZM93.2988 300.835V267.372C93.2988 267.002 93.4456 266.648 93.7068 266.387C93.9681 266.126 94.3225 265.979 94.6919 265.979C95.0614 265.979 95.4158 266.126 95.677 266.387C95.9383 266.648 96.0851 267.002 96.0851 267.372V300.919C96.0851 301.288 95.9383 301.643 95.677 301.904C95.4158 302.165 95.0614 302.312 94.6919 302.312C94.3225 302.312 93.9681 302.165 93.7068 301.904C93.4456 301.643 93.2988 301.288 93.2988 300.919V300.835Z" fill="#8B6FE2"/>
<path d="M103.775 227.793C105.814 227.241 107.917 226.96 110.03 226.957H114.92V208.08C114.92 200.321 118.002 192.879 123.489 187.393C128.975 181.906 136.417 178.824 144.176 178.824H145.569C153.328 178.824 160.77 181.906 166.256 187.393C171.743 192.879 174.825 200.321 174.825 208.08V226.957H179.715C181.83 226.959 183.934 227.249 185.97 227.821V208.08C185.941 197.374 181.675 187.115 174.105 179.544C166.534 171.974 156.275 167.708 145.569 167.679H144.176C133.461 167.679 123.185 171.935 115.608 179.512C108.031 187.089 103.775 197.365 103.775 208.08V227.793Z" fill="#8B6FE2"/>
<path d="M178.28 180.008C185.013 187.811 188.721 197.773 188.729 208.08V228.35C188.722 228.483 188.694 228.615 188.645 228.74C192.996 230.517 196.719 233.549 199.341 237.449C201.963 241.349 203.366 245.941 203.371 250.64V317.163C203.371 321.455 202.204 325.667 199.996 329.348C197.787 333.028 194.62 336.04 190.832 338.06H321.37C326.912 338.06 332.227 335.858 336.146 331.939C340.065 328.02 342.267 322.705 342.267 317.163V94.2598H331.958C329.002 94.2598 326.167 93.0856 324.077 90.9955C321.987 88.9054 320.813 86.0706 320.813 83.1147V35.0652C320.813 32.1094 321.987 29.2745 324.077 27.1844C326.167 25.0943 329.002 23.9201 331.958 23.9201H342.267V23.6833C342.267 18.141 340.065 12.8257 336.146 8.90676C332.227 4.98779 326.912 2.78613 321.37 2.78613H199.177C193.635 2.78613 188.32 4.98779 184.401 8.90676C180.482 12.8257 178.28 18.141 178.28 23.6833V180.008ZM302.27 330.174H225.173C224.804 330.174 224.45 330.028 224.188 329.766C223.927 329.505 223.78 329.151 223.78 328.781C223.78 328.412 223.927 328.057 224.188 327.796C224.45 327.535 224.804 327.388 225.173 327.388H302.27C302.639 327.388 302.994 327.535 303.255 327.796C303.516 328.057 303.663 328.412 303.663 328.781C303.663 329.151 303.516 329.505 303.255 329.766C302.994 330.028 302.639 330.174 302.27 330.174ZM234.006 321.816C234.006 321.446 234.153 321.092 234.414 320.831C234.675 320.569 235.03 320.422 235.399 320.422H248.397C248.767 320.422 249.121 320.569 249.382 320.831C249.643 321.092 249.79 321.446 249.79 321.816C249.79 322.185 249.643 322.539 249.382 322.801C249.121 323.062 248.767 323.209 248.397 323.209H235.399C235.216 323.209 235.035 323.173 234.866 323.103C234.697 323.033 234.543 322.93 234.414 322.801C234.285 322.671 234.182 322.518 234.112 322.349C234.042 322.18 234.006 321.999 234.006 321.816ZM258.149 321.816C258.149 321.446 258.296 321.092 258.557 320.831C258.818 320.569 259.173 320.422 259.542 320.422H279.98C280.349 320.422 280.703 320.569 280.965 320.831C281.226 321.092 281.373 321.446 281.373 321.816C281.373 322.185 281.226 322.539 280.965 322.801C280.703 323.062 280.349 323.209 279.98 323.209H259.542C259.359 323.209 259.178 323.173 259.009 323.103C258.84 323.033 258.687 322.93 258.557 322.801C258.428 322.671 258.325 322.518 258.255 322.349C258.185 322.18 258.149 321.999 258.149 321.816ZM270.534 11.2564C271.478 11.2619 272.399 11.5469 273.181 12.0753C273.963 12.6037 274.572 13.3519 274.929 14.2255C275.286 15.0991 275.377 16.059 275.19 16.9841C275.002 17.9092 274.545 18.758 273.875 19.4235C273.206 20.089 272.354 20.5414 271.428 20.7235C270.502 20.9056 269.543 20.8094 268.671 20.4469C267.8 20.0844 267.055 19.472 266.531 18.6868C266.007 17.9016 265.728 16.9788 265.728 16.0349C265.73 15.4056 265.855 14.7827 266.098 14.202C266.34 13.6213 266.695 13.094 267.141 12.6502C267.588 12.2065 268.117 11.855 268.699 11.6159C269.281 11.3767 269.905 11.2546 270.534 11.2564V11.2564ZM252.632 10.0305C253.82 10.0305 254.981 10.3826 255.968 11.0424C256.956 11.7022 257.725 12.6399 258.18 13.7371C258.634 14.8343 258.753 16.0416 258.521 17.2063C258.29 18.3711 257.718 19.441 256.878 20.2807C256.038 21.1204 254.968 21.6923 253.804 21.924C252.639 22.1557 251.432 22.0368 250.334 21.5823C249.237 21.1278 248.3 20.3582 247.64 19.3708C246.98 18.3834 246.628 17.2225 246.628 16.0349C246.631 14.4436 247.265 12.9184 248.391 11.7932C249.516 10.6679 251.041 10.0341 252.632 10.0305ZM228.197 27.6816H302.27C302.639 27.6816 302.994 27.8284 303.255 28.0896C303.516 28.3509 303.663 28.7052 303.663 29.0747C303.663 29.4442 303.516 29.7986 303.255 30.0598C302.994 30.3211 302.639 30.4679 302.27 30.4679H228.197C227.827 30.4679 227.473 30.3211 227.211 30.0598C226.95 29.7986 226.803 29.4442 226.803 29.0747C226.803 28.7052 226.95 28.3509 227.211 28.0896C227.473 27.8284 227.827 27.6816 228.197 27.6816ZM276.204 35.7618C276.204 36.1313 276.057 36.4856 275.796 36.7469C275.535 37.0082 275.181 37.1549 274.811 37.1549H255.641C255.272 37.1549 254.918 37.0082 254.656 36.7469C254.395 36.4856 254.248 36.1313 254.248 35.7618C254.248 35.3923 254.395 35.038 254.656 34.7767C254.918 34.5154 255.272 34.3687 255.641 34.3687H274.811C275.181 34.3687 275.535 34.5154 275.796 34.7767C276.057 35.038 276.204 35.3923 276.204 35.7618V35.7618ZM260.239 91.4875C271.255 91.4822 282.072 94.4214 291.57 100.001C301.068 105.58 308.903 113.597 314.262 123.222C319.621 132.846 322.31 143.728 322.051 154.741C321.792 165.754 318.594 176.497 312.788 185.859C316.121 190.54 317.904 196.148 317.887 201.894C317.855 208.089 315.76 214.096 311.933 218.967C308.105 223.838 302.763 227.295 296.752 228.791C290.74 230.286 284.402 229.736 278.738 227.226C273.074 224.717 268.408 220.392 265.477 214.934C263.763 215.087 262.008 215.171 260.239 215.171C244.004 214.927 228.516 208.306 217.121 196.739C205.726 185.172 199.339 169.587 199.339 153.35C199.339 137.113 205.726 121.528 217.121 109.961C228.516 98.3934 244.004 91.773 260.239 91.5293V91.4875Z" fill="#F1E6FF"/>
<path d="M260.239 215.129C262.008 215.129 263.764 215.046 265.477 214.892C267.224 218.314 269.659 221.338 272.63 223.773C275.601 226.209 279.044 228.004 282.742 229.045C286.44 230.086 290.313 230.351 294.119 229.824C297.924 229.297 301.579 227.988 304.855 225.98C308.13 223.973 310.955 221.309 313.152 218.158C315.349 215.006 316.87 211.434 317.62 207.666C318.371 203.899 318.334 200.016 317.512 196.264C316.69 192.511 315.1 188.969 312.844 185.859C320.051 174.225 323.192 160.527 321.775 146.915C320.357 133.303 314.462 120.546 305.012 110.646C295.563 100.746 283.095 94.2628 269.564 92.2129C256.032 90.163 242.203 92.6627 230.246 99.3198C218.288 105.977 208.879 116.415 203.493 128.996C198.108 141.578 197.051 155.591 200.489 168.838C203.926 182.085 211.664 193.816 222.487 202.192C233.311 210.567 246.609 215.113 260.295 215.115L260.239 215.129ZM260.239 94.2741C270.671 94.2662 280.919 97.0246 289.938 102.268C298.957 107.512 306.424 115.053 311.578 124.123C316.733 133.192 319.39 143.467 319.28 153.899C319.169 164.33 316.295 174.546 310.949 183.505C309.711 182.111 308.339 180.842 306.853 179.716C312.652 169.474 314.916 157.608 313.294 145.952C311.673 134.295 306.257 123.497 297.883 115.227C289.51 106.957 278.645 101.676 266.969 100.2C255.293 98.7239 243.456 101.135 233.288 107.061C223.12 112.987 215.187 122.097 210.716 132.984C206.244 143.87 205.484 155.926 208.552 167.288C211.619 178.65 218.344 188.685 227.687 195.842C237.03 202.999 248.47 206.879 260.239 206.882C261.061 206.882 261.883 206.882 262.705 206.798C263.02 208.647 263.524 210.458 264.209 212.204C262.9 212.287 261.576 212.343 260.239 212.343C244.739 212.105 229.955 205.78 219.078 194.735C208.201 183.69 202.104 168.81 202.104 153.309C202.104 137.807 208.201 122.927 219.078 111.882C229.955 100.837 244.739 94.5122 260.239 94.2741V94.2741ZM290.08 226.943C285.371 226.965 280.752 225.651 276.759 223.153C272.767 220.655 269.565 217.075 267.525 212.831C266.357 210.422 265.59 207.838 265.254 205.182C265.104 204.093 265.03 202.994 265.031 201.894C265.039 195.567 267.438 189.477 271.748 184.844C276.057 180.212 281.959 177.379 288.269 176.915C288.868 176.915 289.467 176.846 290.08 176.846C296.731 176.846 303.109 179.488 307.812 184.19C312.515 188.893 315.157 195.272 315.157 201.922C315.157 208.573 312.515 214.951 307.812 219.654C303.109 224.357 296.731 226.999 290.08 226.999V226.943ZM268.166 174.31C268.166 177.033 267.084 179.645 265.159 181.57C263.233 183.496 260.622 184.578 257.898 184.578C255.175 184.578 252.564 183.496 250.638 181.57C248.713 179.645 247.631 177.033 247.631 174.31C247.631 174.213 247.631 173.641 247.756 172.694L248.843 158.944C249.08 156.004 249.289 153.371 249.428 151.644L249.553 150.056C249.559 149.94 249.559 149.823 249.553 149.707C249.553 149.338 249.407 148.983 249.145 148.722C248.884 148.461 248.53 148.314 248.16 148.314C247.929 148.324 247.704 148.391 247.506 148.509H247.338C246.454 148.89 245.458 148.92 244.552 148.593C244.125 148.541 243.714 148.395 243.35 148.165C242.986 147.935 242.678 147.626 242.449 147.262C242.219 146.898 242.073 146.488 242.022 146.06C241.971 145.633 242.015 145.199 242.153 144.791C242.29 144.383 242.517 144.011 242.816 143.701C243.116 143.392 243.48 143.153 243.883 143.002C244.287 142.851 244.718 142.792 245.147 142.829C245.576 142.866 245.992 142.998 246.363 143.215C246.85 143.37 247.301 143.621 247.689 143.954C248.077 144.286 248.393 144.694 248.62 145.152C248.62 145.152 248.69 145.305 248.732 145.389C248.833 145.643 249.007 145.863 249.233 146.019C249.458 146.175 249.725 146.261 249.999 146.266C250.97 146.201 251.877 145.756 252.521 145.026C254.583 142.923 255.642 138.562 255.642 132.042C259.821 134.062 269.322 137.991 278.614 136.765C278.726 141.125 278.782 162.566 268.862 167.832C265.435 169.643 261.005 169.309 255.711 166.843C255.545 166.765 255.365 166.721 255.181 166.713C254.997 166.705 254.814 166.733 254.641 166.796C254.469 166.858 254.31 166.954 254.174 167.078C254.039 167.203 253.929 167.352 253.851 167.519C253.774 167.685 253.729 167.865 253.721 168.049C253.713 168.232 253.741 168.416 253.804 168.588C253.867 168.761 253.963 168.92 254.087 169.055C254.211 169.191 254.361 169.301 254.527 169.378C257.472 170.844 260.699 171.657 263.986 171.761C265.406 171.769 266.817 171.548 268.166 171.106V174.31ZM288.464 174.115C282.954 171.653 276.912 170.618 270.896 171.106V170.005C282.042 163.04 281.554 139.872 281.415 136.403C284.636 135.606 287.614 134.038 290.094 131.833C290.329 131.626 290.487 131.345 290.542 131.037C290.598 130.728 290.548 130.41 290.4 130.134C290.253 129.855 290.016 129.635 289.728 129.508C289.439 129.382 289.117 129.357 288.812 129.437C287.836 129.594 286.836 129.488 285.915 129.131C288.255 127.306 291.39 123.46 290.47 116.091C290.444 115.866 290.364 115.65 290.236 115.463C290.108 115.277 289.936 115.124 289.736 115.018C289.536 114.912 289.313 114.857 289.086 114.857C288.86 114.857 288.636 114.912 288.436 115.018C288.436 115.018 280.607 118.975 271.342 112.719C269.972 111.654 268.386 110.899 266.695 110.507C265.004 110.115 263.248 110.095 261.548 110.449C258.616 111.298 256.07 113.14 254.346 115.659C250.538 113.887 246.217 113.555 242.184 114.725C236.012 116.592 230.871 121.998 226.859 130.816C226.729 131.085 226.688 131.388 226.743 131.682C226.799 131.975 226.947 132.243 227.166 132.446C227.381 132.639 227.651 132.76 227.938 132.792C228.225 132.825 228.515 132.767 228.768 132.627C229.45 132.424 230.176 132.424 230.858 132.627C229.161 137.246 229.161 142.317 230.858 146.935C233.114 152.605 238.172 156.966 245.876 159.905L244.998 171.05C241.57 170.793 238.124 170.981 234.744 171.607C227.291 173.001 221.677 176.609 218.319 182.028C212.457 173.578 209.335 163.53 209.375 153.246C209.373 145.483 211.15 137.822 214.571 130.853C217.991 123.884 222.964 117.792 229.107 113.046C235.25 108.299 242.4 105.024 250.007 103.473C257.613 101.921 265.474 102.135 272.986 104.096C280.497 106.057 287.459 109.715 293.335 114.788C299.212 119.86 303.848 126.213 306.886 133.357C309.924 140.501 311.283 148.246 310.86 155.998C310.436 163.75 308.241 171.301 304.443 178.072C300.091 175.404 295.087 173.992 289.982 173.99C289.537 174.059 288.993 174.087 288.464 174.115V174.115ZM244.831 173.906C244.831 174.143 244.831 174.296 244.831 174.31C244.774 176.059 245.069 177.802 245.699 179.435C246.329 181.068 247.28 182.557 248.498 183.815C249.715 185.073 251.172 186.072 252.784 186.755C254.395 187.438 256.127 187.79 257.878 187.79C259.628 187.79 261.36 187.438 262.971 186.755C264.583 186.072 266.04 185.073 267.257 183.815C268.475 182.557 269.426 181.068 270.056 179.435C270.686 177.802 270.981 176.059 270.924 174.31V173.934C274.96 173.625 279.019 173.992 282.933 175.021C277.008 176.611 271.771 180.106 268.03 184.968C264.288 189.83 262.251 195.788 262.231 201.922C262.231 202.637 262.259 203.348 262.315 204.054C261.618 204.054 260.922 204.123 260.225 204.123C252.506 204.153 244.882 202.411 237.943 199.029C231.003 195.647 224.933 190.718 220.2 184.619C226.191 173.419 240.651 173.6 244.831 173.906Z" fill="#321951"/>
<path d="M307.215 186.904L300.361 182.348C300.195 182.238 300.007 182.165 299.81 182.133C299.613 182.102 299.411 182.114 299.219 182.167C299.03 182.219 298.854 182.311 298.703 182.436C298.551 182.56 298.428 182.716 298.341 182.891L288.227 203.538L280.189 193.354C280.054 193.192 279.886 193.06 279.696 192.969C279.506 192.878 279.299 192.828 279.088 192.825C278.875 192.825 278.665 192.874 278.475 192.968C278.284 193.063 278.117 193.199 277.987 193.368L272.596 200.445C272.405 200.69 272.301 200.991 272.301 201.302C272.301 201.612 272.405 201.914 272.596 202.159L288.784 222.707C288.915 222.873 289.083 223.007 289.273 223.099C289.464 223.191 289.673 223.238 289.885 223.237H290.024C290.257 223.212 290.48 223.129 290.673 222.995C290.865 222.861 291.021 222.681 291.125 222.471L307.675 188.687C307.829 188.385 307.867 188.037 307.782 187.708C307.697 187.38 307.496 187.094 307.215 186.904ZM275.48 201.281L279.13 196.488L287.419 207.007C287.565 207.191 287.755 207.335 287.972 207.425C288.189 207.516 288.425 207.55 288.658 207.525C288.892 207.5 289.115 207.417 289.308 207.282C289.5 207.148 289.656 206.967 289.759 206.756L300.152 185.538L304.666 188.548L289.634 219.197L275.48 201.281Z" fill="#321951"/>
<path d="M258.762 140.08C258.851 139.948 258.972 139.841 259.113 139.768C259.254 139.695 259.411 139.659 259.57 139.662C259.732 139.674 259.887 139.728 260.022 139.819C260.156 139.909 260.264 140.033 260.336 140.178C260.454 140.405 260.632 140.595 260.851 140.728C261.07 140.861 261.321 140.931 261.576 140.93C261.799 140.926 262.017 140.873 262.217 140.777C262.544 140.605 262.789 140.31 262.899 139.958C263.009 139.605 262.974 139.223 262.802 138.896C262.518 138.321 262.088 137.832 261.554 137.476C261.021 137.121 260.403 136.912 259.764 136.871C259.124 136.83 258.485 136.959 257.91 137.243C257.336 137.528 256.846 137.958 256.491 138.492C256.363 138.639 256.268 138.812 256.211 138.999C256.154 139.186 256.137 139.382 256.161 139.576C256.185 139.77 256.249 139.956 256.35 140.123C256.45 140.291 256.585 140.435 256.745 140.547C256.905 140.659 257.087 140.736 257.278 140.773C257.47 140.81 257.667 140.807 257.858 140.763C258.048 140.719 258.227 140.635 258.382 140.518C258.538 140.4 258.668 140.251 258.762 140.08V140.08Z" fill="#321951"/>
<path d="M266.327 160.49C266.237 160.62 266.116 160.726 265.975 160.796C265.833 160.867 265.677 160.9 265.519 160.894C265.361 160.883 265.208 160.829 265.078 160.738C264.948 160.647 264.845 160.523 264.78 160.378C264.607 160.051 264.31 159.807 263.956 159.698C263.602 159.59 263.22 159.627 262.893 159.8C262.566 159.974 262.321 160.27 262.213 160.624C262.104 160.978 262.141 161.361 262.314 161.688C262.608 162.258 263.046 162.741 263.583 163.09C264.12 163.439 264.74 163.643 265.379 163.68H265.574C266.178 163.681 266.772 163.532 267.304 163.248C267.837 162.964 268.29 162.552 268.625 162.05C268.745 161.9 268.832 161.727 268.882 161.542C268.931 161.356 268.942 161.163 268.913 160.973C268.884 160.783 268.816 160.602 268.714 160.439C268.611 160.277 268.477 160.138 268.318 160.03C268.159 159.922 267.98 159.848 267.791 159.813C267.603 159.778 267.409 159.782 267.222 159.825C267.035 159.868 266.859 159.95 266.705 160.064C266.551 160.178 266.422 160.323 266.327 160.49V160.49Z" fill="#321951"/>
<path d="M273.502 141.362C273.586 141.227 273.706 141.118 273.848 141.046C273.991 140.973 274.15 140.941 274.309 140.953C274.467 140.964 274.62 141.019 274.751 141.111C274.881 141.202 274.984 141.328 275.048 141.473C275.166 141.701 275.344 141.891 275.563 142.024C275.781 142.156 276.032 142.226 276.288 142.226C276.506 142.224 276.721 142.172 276.915 142.073C277.078 141.989 277.223 141.873 277.341 141.733C277.46 141.593 277.549 141.431 277.605 141.257C277.661 141.082 277.681 140.898 277.666 140.715C277.65 140.532 277.599 140.355 277.514 140.192C277.229 139.618 276.797 139.129 276.263 138.775C275.729 138.421 275.111 138.214 274.471 138.174C273.832 138.135 273.193 138.264 272.619 138.55C272.045 138.836 271.557 139.267 271.203 139.802C271.084 139.952 270.996 140.125 270.947 140.31C270.898 140.496 270.887 140.689 270.916 140.879C270.945 141.069 271.012 141.25 271.115 141.413C271.217 141.575 271.352 141.714 271.511 141.822C271.669 141.93 271.849 142.004 272.037 142.039C272.226 142.074 272.42 142.07 272.607 142.027C272.794 141.984 272.97 141.902 273.124 141.788C273.278 141.674 273.406 141.529 273.502 141.362V141.362Z" fill="#321951"/>
<path d="M261.549 154.513C261.44 154.866 261.476 155.248 261.648 155.574C261.82 155.901 262.115 156.146 262.468 156.255L266.94 157.648C267.071 157.691 267.207 157.715 267.344 157.718C267.635 157.722 267.92 157.629 268.152 157.453C268.327 157.329 268.47 157.166 268.572 156.978C268.673 156.79 268.73 156.58 268.737 156.366L269.03 146.614C269.03 146.245 268.883 145.89 268.622 145.629C268.361 145.368 268.006 145.221 267.637 145.221C267.267 145.221 266.913 145.368 266.652 145.629C266.39 145.89 266.244 146.245 266.244 146.614L266.007 154.472L263.22 153.636C262.882 153.545 262.523 153.586 262.213 153.748C261.903 153.911 261.666 154.184 261.549 154.513V154.513Z" fill="#321951"/>
<path d="M131.624 306.143H158.094C158.463 306.143 158.817 305.996 159.079 305.735C159.34 305.474 159.487 305.119 159.487 304.75C159.487 304.536 159.434 304.325 159.333 304.137L153.956 283.95C155.184 282.263 155.922 280.268 156.087 278.188C156.252 276.107 155.838 274.022 154.892 272.162C153.945 270.302 152.502 268.74 150.723 267.649C148.943 266.558 146.897 265.98 144.81 265.98C142.723 265.98 140.676 266.558 138.897 267.649C137.118 268.74 135.675 270.302 134.728 272.162C133.782 274.022 133.368 276.107 133.533 278.188C133.698 280.268 134.436 282.263 135.664 283.95L130.231 304.401C130.174 304.608 130.166 304.825 130.208 305.035C130.249 305.245 130.338 305.443 130.468 305.613C130.604 305.787 130.781 305.926 130.982 306.018C131.183 306.11 131.403 306.153 131.624 306.143Z" fill="#321951"/>
<path d="M369.573 320.214C369.631 320.388 369.723 320.549 369.843 320.687C369.964 320.826 370.11 320.939 370.275 321.02C370.439 321.102 370.618 321.15 370.801 321.162C370.984 321.175 371.168 321.15 371.342 321.091C372.46 320.692 373.638 320.484 374.825 320.478C381.47 320.478 385.064 327.695 385.218 328.001C385.333 328.236 385.511 328.433 385.733 328.571C385.954 328.709 386.21 328.782 386.471 328.782C386.747 328.78 387.015 328.697 387.243 328.544C387.471 328.39 387.649 328.172 387.753 327.918C387.831 327.742 387.873 327.553 387.879 327.361C387.878 327.183 387.84 327.007 387.767 326.845C387.447 324.95 386.374 315.937 394.58 313.137C394.931 313.017 395.22 312.762 395.383 312.429C395.546 312.096 395.57 311.711 395.45 311.36C395.33 311.009 395.076 310.72 394.742 310.557C394.409 310.394 394.025 310.37 393.674 310.49C392.552 310.891 391.369 311.098 390.177 311.103C383.448 311.103 379.84 303.649 379.798 303.566C379.651 303.258 379.396 303.015 379.082 302.883C378.768 302.751 378.416 302.739 378.093 302.849C377.77 302.959 377.499 303.183 377.331 303.479C377.162 303.776 377.108 304.124 377.179 304.457C377.277 304.903 379.422 315.338 370.422 318.389C370.244 318.449 370.08 318.545 369.94 318.671C369.8 318.796 369.687 318.949 369.608 319.12C369.528 319.29 369.484 319.475 369.478 319.663C369.472 319.851 369.504 320.038 369.573 320.214ZM380.23 309.069C382.323 311.547 385.215 313.217 388.408 313.791C386.225 316.209 384.958 319.314 384.828 322.568C382.725 320.068 379.811 318.387 376.594 317.818C378.777 315.407 380.061 312.317 380.23 309.069Z" fill="#321951"/>
<path d="M398.077 311.339C399.382 315.159 399.208 319.33 397.589 323.028C397.515 323.196 397.475 323.377 397.472 323.561C397.468 323.745 397.501 323.927 397.569 324.098C397.636 324.269 397.736 324.425 397.864 324.557C397.992 324.689 398.145 324.794 398.313 324.867C398.486 324.937 398.67 324.975 398.857 324.978C399.129 324.979 399.395 324.901 399.623 324.752C399.85 324.604 400.03 324.392 400.138 324.142C401.753 320.448 402.146 316.334 401.262 312.401C400.377 308.467 398.261 304.918 395.221 302.27C395.087 302.13 394.926 302.019 394.747 301.944C394.568 301.87 394.375 301.834 394.182 301.838C393.988 301.842 393.797 301.886 393.622 301.968C393.446 302.05 393.29 302.168 393.162 302.314C393.035 302.46 392.939 302.631 392.881 302.816C392.824 303.001 392.805 303.196 392.827 303.388C392.849 303.581 392.911 303.767 393.009 303.934C393.107 304.101 393.239 304.246 393.396 304.36C395.539 306.238 397.153 308.644 398.077 311.339V311.339Z" fill="#321951"/>
<path d="M353.761 245.792L367.692 286.681C367.786 286.957 367.964 287.198 368.201 287.368C368.439 287.538 368.723 287.629 369.016 287.628C369.167 287.624 369.316 287.601 369.461 287.558C369.81 287.438 370.097 287.184 370.259 286.852C370.421 286.521 370.445 286.138 370.325 285.789L356.394 244.9C356.345 244.716 356.259 244.543 356.14 244.393C356.022 244.244 355.874 244.12 355.706 244.029C355.538 243.939 355.353 243.884 355.163 243.869C354.972 243.853 354.781 243.876 354.6 243.937C354.419 243.999 354.253 244.096 354.112 244.224C353.97 244.353 353.856 244.509 353.778 244.682C353.699 244.856 353.657 245.045 353.654 245.235C353.651 245.426 353.687 245.616 353.761 245.792V245.792Z" fill="#321951"/>
<path d="M503.607 338.102H393.995C398.673 335.682 402.451 331.825 404.772 327.097C407.094 322.369 407.835 317.02 406.888 311.839C405.941 306.658 403.356 301.917 399.512 298.316C395.669 294.715 390.77 292.443 385.538 291.835L370.214 246.976L376.984 244.678C377.333 244.555 377.618 244.3 377.778 243.967C377.94 243.637 377.965 243.257 377.848 242.908L374.839 234.104C374.782 233.93 374.69 233.769 374.571 233.63C374.451 233.492 374.306 233.378 374.142 233.296C373.805 233.141 373.423 233.116 373.07 233.226L366.327 235.538L364.14 229.144L370.896 226.845C371.245 226.725 371.532 226.471 371.694 226.139C371.856 225.808 371.88 225.425 371.76 225.076L367.497 212.538C367.439 212.364 367.347 212.203 367.226 212.064C367.106 211.926 366.959 211.813 366.795 211.731C366.63 211.65 366.451 211.601 366.268 211.589C366.085 211.577 365.901 211.601 365.728 211.66L357.842 214.349H357.647L344.984 218.654V94.2739H403.956C406.905 94.252 409.727 93.0708 411.812 90.9854C413.897 88.9 415.079 86.0779 415.101 83.1288V36.7232C416.208 35.7719 417.094 34.5914 417.7 33.2634C418.305 31.9354 418.615 30.4917 418.608 29.0322C418.6 27.5727 418.275 26.1323 417.656 24.8106C417.037 23.489 416.138 22.3178 415.021 21.378C413.904 20.4382 412.597 19.7523 411.189 19.3679C409.781 18.9834 408.306 18.9095 406.867 19.1513C405.427 19.3931 404.058 19.9448 402.853 20.7682C401.648 21.5917 400.636 22.6672 399.888 23.9202H344.998V23.6834C344.998 17.4022 342.503 11.3782 338.061 6.93671C333.62 2.49521 327.596 0 321.314 0H199.178C192.896 0 186.872 2.49521 182.431 6.93671C177.989 11.3782 175.494 17.4022 175.494 23.6834V177.054C167.461 169.276 156.724 164.916 145.542 164.892H144.148C132.694 164.892 121.71 169.442 113.61 177.542C105.511 185.641 100.961 196.626 100.961 208.08V228.35C100.94 228.479 100.94 228.611 100.961 228.74C96.623 230.534 92.912 233.569 90.2945 237.466C87.6769 241.363 86.2696 245.946 86.2495 250.64V317.163C86.2589 321.465 87.4401 325.684 89.6663 329.365C91.8925 333.047 95.0796 336.053 98.8852 338.06H1.36531C0.995826 338.06 0.641475 338.207 0.38021 338.468C0.118945 338.729 -0.027832 339.083 -0.027832 339.453C-0.027832 339.822 0.118945 340.177 0.38021 340.438C0.641475 340.699 0.995826 340.846 1.36531 340.846H503.607C503.976 340.846 504.331 340.699 504.592 340.438C504.853 340.177 505 339.822 505 339.453C505 339.083 504.853 338.729 504.592 338.468C504.331 338.207 503.976 338.06 503.607 338.06V338.102ZM89.1333 250.64C89.1333 245.098 91.3349 239.783 95.2539 235.864C99.1729 231.945 104.488 229.743 110.03 229.743H179.687C181.997 229.738 184.291 230.124 186.472 230.885C190.589 232.298 194.161 234.962 196.691 238.503C199.221 242.045 200.582 246.288 200.585 250.64V317.163C200.585 319.907 200.044 322.624 198.994 325.16C197.944 327.695 196.404 329.999 194.464 331.939C192.523 333.88 190.22 335.419 187.684 336.469C185.149 337.519 182.432 338.06 179.687 338.06H110.03C107.286 338.06 104.569 337.519 102.033 336.469C99.498 335.419 97.1944 333.88 95.2539 331.939C93.3134 329.999 91.7741 327.695 90.724 325.16C89.6738 322.624 89.1333 319.907 89.1333 317.163V250.64ZM144.176 167.679H145.569C156.275 167.708 166.535 171.974 174.105 179.544C181.675 187.115 185.941 197.374 185.971 208.08V227.82C183.935 227.249 181.83 226.958 179.715 226.957H174.825V208.08C174.825 200.32 171.743 192.879 166.257 187.393C160.77 181.906 153.329 178.824 145.569 178.824H144.176C136.417 178.824 128.976 181.906 123.489 187.393C118.003 192.879 114.92 200.32 114.92 208.08V226.957H110.03C107.918 226.96 105.815 227.241 103.775 227.793V208.08C103.775 197.365 108.032 187.088 115.608 179.512C123.185 171.935 133.461 167.679 144.176 167.679ZM199.178 2.78628H321.314C326.857 2.78628 332.172 4.98794 336.091 8.90691C340.01 12.8259 342.211 18.1411 342.211 23.6834V23.9202H331.902C328.946 23.9202 326.111 25.0945 324.021 27.1846C321.931 29.2747 320.757 32.1095 320.757 35.0654V83.1288C320.757 86.0846 321.931 88.9194 324.021 91.0096C326.111 93.0997 328.946 94.2739 331.902 94.2739H342.211V317.177C342.211 322.719 340.01 328.034 336.091 331.953C332.172 335.872 326.857 338.074 321.314 338.074H190.777C194.564 336.054 197.732 333.042 199.94 329.362C202.149 325.681 203.315 321.469 203.315 317.177V250.64C203.31 245.941 201.908 241.349 199.285 237.449C196.663 233.549 192.94 230.517 188.59 228.74C188.639 228.615 188.667 228.484 188.673 228.35V208.08C188.666 197.773 184.958 187.811 178.225 180.008V23.6834C178.225 20.9345 178.767 18.2125 179.821 15.6735C180.874 13.1345 182.419 10.8284 184.365 8.88717C186.311 6.94597 188.622 5.40786 191.163 4.36096C193.705 3.31406 196.429 2.77895 199.178 2.78628ZM358.372 217.163C358.437 217.169 358.502 217.169 358.567 217.163L365.324 214.864L368.695 224.756L361.938 227.054C361.589 227.175 361.302 227.428 361.14 227.76C360.978 228.092 360.955 228.474 361.075 228.824L364.153 237.851C364.212 238.025 364.304 238.186 364.424 238.324C364.545 238.463 364.691 238.576 364.856 238.658C365.02 238.739 365.199 238.787 365.382 238.8C365.565 238.812 365.749 238.788 365.923 238.729L372.666 236.416L374.783 242.588L368.012 244.886C367.663 245.007 367.376 245.261 367.214 245.592C367.053 245.924 367.029 246.307 367.149 246.656L383.142 293.619C383.229 293.878 383.39 294.106 383.605 294.275C383.821 294.443 384.081 294.544 384.354 294.566C389.346 294.97 394.047 297.08 397.667 300.541C401.287 304.001 403.607 308.602 404.236 313.571C404.865 318.54 403.765 323.573 401.122 327.827C398.478 332.081 394.451 335.296 389.718 336.931C387.735 337.607 385.666 338.001 383.574 338.102H381.805C377.469 337.921 373.286 336.454 369.788 333.887C366.29 331.32 363.636 327.769 362.164 323.687C360.692 319.606 360.469 315.178 361.523 310.97C362.577 306.761 364.86 302.961 368.082 300.055C368.281 299.872 368.423 299.635 368.49 299.372C368.557 299.11 368.546 298.834 368.458 298.578L344.998 229.687V221.719L358.372 217.163ZM325.201 30.1058C330.425 35.2186 335.761 40.1643 340.958 44.9706C345.304 49.0386 349.804 53.2598 354.22 57.5089C349.679 62.357 345.026 67.2609 340.512 71.9001C335.469 77.1522 330.258 82.5715 325.187 88.0326C324.123 86.6091 323.551 84.8781 323.557 83.1009V35.0654C323.552 33.2776 324.129 31.5367 325.201 30.1058ZM331.902 91.4876C330.21 91.4895 328.559 90.9636 327.179 89.983C332.264 84.5358 337.475 79.1165 342.504 73.8504C347.004 69.1695 351.643 64.3353 356.199 59.4872C356.589 59.9051 356.993 60.323 357.383 60.7549C358.051 61.4933 358.776 62.2595 359.5 62.97L360.28 63.7084C362.356 65.7145 364.934 68.2082 367.915 68.2222C370.896 68.2361 373.487 65.7284 375.535 63.7362L376.357 62.9561C377.082 62.2595 377.75 61.5629 378.405 60.7967C378.809 60.337 379.227 59.9051 379.631 59.4036C384.173 64.2656 388.826 69.1556 393.34 73.8087C398.383 79.0608 403.579 84.4801 408.664 89.9134C407.289 90.892 405.643 91.4179 403.956 91.418L331.902 91.4876ZM410.684 88.0605C405.599 82.6133 400.403 77.194 395.36 71.9418C390.846 67.2609 386.193 62.3849 381.637 57.5089C385.984 53.3295 390.428 49.15 394.733 45.1517L402.938 37.4337C404.301 38.3602 405.874 38.9321 407.513 39.0975C409.153 39.263 410.808 39.0167 412.328 38.3811V83.1009C412.333 84.8887 411.756 86.6296 410.684 88.0605ZM412.886 34.9539C411.539 35.9172 409.911 36.4056 408.256 36.3426C406.602 36.2795 405.016 35.6685 403.747 34.6056C402.951 33.9125 402.316 33.0557 401.883 32.0938C401.45 31.1319 401.23 30.0878 401.239 29.0331C401.232 27.937 401.48 26.8543 401.963 25.8706C402.546 24.6157 403.476 23.5545 404.644 22.8135C405.813 22.0725 407.169 21.6829 408.553 21.6912C410.095 21.6861 411.599 22.1693 412.849 23.0715C414.099 23.9738 415.032 25.2487 415.513 26.7135C415.994 28.1784 415.999 29.758 415.527 31.2258C415.055 32.6936 414.13 33.9743 412.886 34.8843V34.9539ZM400.849 35.5948C398.188 38.1164 395.499 40.6379 392.824 43.1456C388.185 47.4922 383.379 51.9781 378.74 56.4362L378.531 56.6451L378.363 56.7984C377.667 57.481 376.97 58.1915 376.385 58.902C375.8 59.6125 375.117 60.2952 374.477 60.9082L373.655 61.6883C371.927 63.3462 369.796 65.3941 367.957 65.408C366.118 65.4219 363.972 63.3322 362.245 61.6744L361.451 60.9082C360.782 60.2812 360.155 59.515 359.5 58.8602C358.846 58.2055 358.219 57.4671 357.508 56.7566L357.383 56.6451C357.321 56.5766 357.256 56.5115 357.188 56.4501C352.451 51.8945 347.589 47.3529 342.88 42.9506C337.726 38.1303 332.418 33.1986 327.249 28.1415C328.626 27.1921 330.258 26.6821 331.93 26.6787H398.801C398.617 27.4547 398.523 28.2494 398.522 29.047C398.502 31.438 399.331 33.7586 400.863 35.5948H400.849ZM172.011 226.957H117.679V208.08C117.679 201.059 120.467 194.327 125.432 189.363C130.396 184.399 137.128 181.61 144.148 181.61H145.542C152.562 181.61 159.294 184.399 164.258 189.363C169.222 194.327 172.011 201.059 172.011 208.08V226.957ZM332.39 338.102C336.177 336.082 339.345 333.07 341.553 329.389C343.761 325.709 344.928 321.497 344.928 317.204V238.339L365.463 298.62C362.676 301.335 360.572 304.672 359.322 308.356C358.071 312.041 357.711 315.969 358.269 319.819C358.827 323.67 360.289 327.334 362.535 330.511C364.78 333.689 367.746 336.29 371.189 338.102H332.39Z" fill="#321951"/>
<path d="M302.27 327.388H225.173C224.804 327.388 224.45 327.535 224.188 327.796C223.927 328.057 223.78 328.412 223.78 328.781C223.78 329.151 223.927 329.505 224.188 329.766C224.45 330.028 224.804 330.174 225.173 330.174H302.27C302.639 330.174 302.994 330.028 303.255 329.766C303.516 329.505 303.663 329.151 303.663 328.781C303.663 328.412 303.516 328.057 303.255 327.796C302.994 327.535 302.639 327.388 302.27 327.388Z" fill="#321951"/>
<path d="M248.397 323.209C248.767 323.209 249.121 323.062 249.382 322.801C249.643 322.54 249.79 322.185 249.79 321.816C249.79 321.447 249.643 321.092 249.382 320.831C249.121 320.57 248.767 320.423 248.397 320.423H235.399C235.03 320.423 234.675 320.57 234.414 320.831C234.153 321.092 234.006 321.447 234.006 321.816C234.006 322.185 234.153 322.54 234.414 322.801C234.675 323.062 235.03 323.209 235.399 323.209H248.397Z" fill="#321951"/>
<path d="M279.98 323.209C280.349 323.209 280.704 323.062 280.965 322.801C281.226 322.54 281.373 322.185 281.373 321.816C281.373 321.447 281.226 321.092 280.965 320.831C280.704 320.57 280.349 320.423 279.98 320.423H259.543C259.173 320.423 258.819 320.57 258.557 320.831C258.296 321.092 258.149 321.447 258.149 321.816C258.149 322.185 258.296 322.54 258.557 322.801C258.819 323.062 259.173 323.209 259.543 323.209H279.98Z" fill="#321951"/>
<path d="M228.197 30.4679H302.27C302.64 30.4679 302.994 30.3211 303.255 30.0599C303.517 29.7986 303.663 29.4443 303.663 29.0748C303.663 28.7053 303.517 28.3509 303.255 28.0897C302.994 27.8284 302.64 27.6816 302.27 27.6816H228.197C227.827 27.6816 227.473 27.8284 227.212 28.0897C226.95 28.3509 226.804 28.7053 226.804 29.0748C226.804 29.4443 226.95 29.7986 227.212 30.0599C227.473 30.3211 227.827 30.4679 228.197 30.4679Z" fill="#321951"/>
<path d="M397.812 85.915H355.182C354.812 85.915 354.458 86.0618 354.197 86.3231C353.935 86.5843 353.789 86.9387 353.789 87.3082C353.789 87.6777 353.935 88.032 354.197 88.2933C354.458 88.5545 354.812 88.7013 355.182 88.7013H397.812C398.181 88.7013 398.536 88.5545 398.797 88.2933C399.058 88.032 399.205 87.6777 399.205 87.3082C399.205 86.9387 399.058 86.5843 398.797 86.3231C398.536 86.0618 398.181 85.915 397.812 85.915Z" fill="#321951"/>
<path d="M371.69 84.0622H381.275C381.644 84.0622 381.999 83.9154 382.26 83.6541C382.521 83.3929 382.668 83.0385 382.668 82.669C382.668 82.2995 382.521 81.9452 382.26 81.6839C381.999 81.4227 381.644 81.2759 381.275 81.2759H371.69C371.321 81.2759 370.966 81.4227 370.705 81.6839C370.444 81.9452 370.297 82.2995 370.297 82.669C370.297 83.0385 370.444 83.3929 370.705 83.6541C370.966 83.9154 371.321 84.0622 371.69 84.0622Z" fill="#321951"/>
<path d="M255.642 34.3687C255.272 34.3687 254.918 34.5154 254.657 34.7767C254.395 35.038 254.249 35.3923 254.249 35.7618C254.249 36.1313 254.395 36.4856 254.657 36.7469C254.918 37.0082 255.272 37.1549 255.642 37.1549H274.811C275.181 37.1549 275.535 37.0082 275.796 36.7469C276.058 36.4856 276.204 36.1313 276.204 35.7618C276.204 35.3923 276.058 35.038 275.796 34.7767C275.535 34.5154 275.181 34.3687 274.811 34.3687H255.642Z" fill="#321951"/>
<path d="M96.0851 300.919V267.372C96.0851 267.002 95.9383 266.648 95.6771 266.387C95.4158 266.125 95.0615 265.979 94.692 265.979C94.3225 265.979 93.9681 266.125 93.7069 266.387C93.4456 266.648 93.2988 267.002 93.2988 267.372V300.919C93.2988 301.288 93.4456 301.642 93.7069 301.904C93.9681 302.165 94.3225 302.312 94.692 302.312C95.0615 302.312 95.4158 302.165 95.6771 301.904C95.9383 301.642 96.0851 301.288 96.0851 300.919V300.919Z" fill="#321951"/>
<path d="M195.458 321.314C195.827 321.314 196.181 321.168 196.443 320.906C196.704 320.645 196.851 320.291 196.851 319.921V279.52C196.851 279.151 196.704 278.796 196.443 278.535C196.181 278.274 195.827 278.127 195.458 278.127C195.088 278.127 194.734 278.274 194.472 278.535C194.211 278.796 194.064 279.151 194.064 279.52V319.921C194.064 320.291 194.211 320.645 194.472 320.906C194.734 321.168 195.088 321.314 195.458 321.314Z" fill="#321951"/>
<path d="M101.184 291.696C101.553 291.696 101.908 291.549 102.169 291.288C102.43 291.027 102.577 290.672 102.577 290.303V277.987C102.577 277.618 102.43 277.264 102.169 277.002C101.908 276.741 101.553 276.594 101.184 276.594C100.814 276.594 100.46 276.741 100.199 277.002C99.9373 277.264 99.7905 277.618 99.7905 277.987V290.303C99.7905 290.672 99.9373 291.027 100.199 291.288C100.46 291.549 100.814 291.696 101.184 291.696Z" fill="#321951"/>
<path d="M189.425 310.615C189.795 310.615 190.149 310.468 190.41 310.207C190.672 309.946 190.819 309.591 190.819 309.222V299.275C190.819 298.905 190.672 298.551 190.41 298.29C190.149 298.029 189.795 297.882 189.425 297.882C189.056 297.882 188.702 298.029 188.44 298.29C188.179 298.551 188.032 298.905 188.032 299.275V309.222C188.032 309.591 188.179 309.946 188.44 310.207C188.702 310.468 189.056 310.615 189.425 310.615Z" fill="#321951"/>
<path d="M252.632 22.0396C253.82 22.0396 254.981 21.6875 255.968 21.0277C256.956 20.3679 257.725 19.4302 258.18 18.333C258.634 17.2358 258.753 16.0285 258.521 14.8638C258.29 13.699 257.718 12.6292 256.878 11.7894C256.038 10.9497 254.969 10.3778 253.804 10.1461C252.639 9.91446 251.432 10.0334 250.335 10.4878C249.237 10.9423 248.3 11.7119 247.64 12.6993C246.98 13.6867 246.628 14.8476 246.628 16.0352C246.632 17.6266 247.265 19.1517 248.391 20.2769C249.516 21.4022 251.041 22.036 252.632 22.0396V22.0396Z" fill="#321951"/>
<path d="M270.534 20.8137C271.478 20.8082 272.399 20.5233 273.182 19.9949C273.964 19.4665 274.572 18.7183 274.929 17.8447C275.287 16.971 275.377 16.0111 275.19 15.086C275.002 14.1609 274.545 13.3121 273.876 12.6466C273.206 11.9811 272.355 11.5288 271.429 11.3466C270.502 11.1645 269.543 11.2607 268.671 11.6232C267.8 11.9857 267.055 12.5982 266.531 13.3834C266.008 14.1686 265.728 15.0913 265.728 16.0352C265.73 16.6646 265.856 17.2874 266.098 17.8682C266.341 18.4489 266.695 18.9762 267.142 19.4199C267.588 19.8636 268.117 20.2151 268.699 20.4542C269.281 20.6934 269.905 20.8155 270.534 20.8137V20.8137Z" fill="#321951"/>
</g>
<defs>
<clipPath id="clip0_2051_111718">
<rect width="505" height="340.902" fill="white"/>
</clipPath>
</defs>
</svg>
