<svg width="501" height="338" viewBox="0 0 501 338" fill="none" xmlns="http://www.w3.org/2000/svg">
<path d="M397.398 28.5358C397.398 30.7522 398.365 32.9686 400.022 34.4924C402.783 36.8473 406.925 36.9858 409.824 34.908C411.757 33.3842 413 31.0293 413 28.6744C413 24.3801 409.548 20.917 405.13 20.917C402.093 20.917 399.331 22.7178 398.089 25.3498C397.675 26.1809 397.398 27.2891 397.398 28.5358Z" fill="#F4825C"/>
<path d="M321.876 26.8741C323.809 24.9347 326.432 23.8265 329.193 23.8265H339.962V22.9954C339.962 11.2208 330.436 1.6626 318.7 1.6626H305.446C303.789 1.6626 302.546 2.90932 302.546 4.57161V7.61916C302.546 12.1905 298.818 15.7921 294.4 15.7921H222.053C217.497 15.7921 213.907 12.0519 213.907 7.61916V4.57161C213.907 2.90932 212.665 1.6626 211.008 1.6626H197.754C186.018 1.6626 176.491 11.2208 176.491 22.9954V178.697C183.118 186.454 186.846 196.29 186.846 206.402V226.488C186.846 226.765 186.708 227.042 186.432 227.181C195.406 230.505 201.343 239.094 201.343 248.652V314.867C201.343 324.563 195.406 332.875 186.846 336.2H318.7C330.436 336.2 339.962 326.641 339.962 314.867V219.285C339.962 219.146 339.962 218.869 339.962 218.731V92.8118H329.193C326.432 92.8118 323.809 91.7036 321.876 89.7643C319.805 87.8249 318.7 85.0544 318.7 82.2839V34.4929C318.7 31.5839 319.805 28.9519 321.876 26.8741ZM226.471 27.7052H299.923C300.337 27.7052 300.751 28.1208 300.751 28.5364C300.751 28.9519 300.337 29.3675 299.923 29.3675H226.471C226.057 29.3675 225.643 28.9519 225.643 28.5364C225.643 28.1208 225.919 27.7052 226.471 27.7052ZM273.414 35.1856C273.414 35.6011 273 36.0167 272.586 36.0167H253.533C253.118 36.0167 252.704 35.6011 252.704 35.1856C252.704 34.77 253.118 34.3544 253.533 34.3544H272.586C273.138 34.3544 273.414 34.77 273.414 35.1856ZM299.785 327.334H223.434C223.02 327.334 222.606 326.918 222.606 326.503C222.606 326.087 223.02 325.672 223.434 325.672H299.785C300.199 325.672 300.613 326.087 300.613 326.503C300.613 327.057 300.337 327.334 299.785 327.334ZM232.684 319.577C232.684 319.161 233.099 318.745 233.513 318.745H246.353C246.767 318.745 247.181 319.161 247.181 319.577C247.181 319.992 246.767 320.408 246.353 320.408H233.513C233.099 320.408 232.684 320.131 232.684 319.577ZM256.708 319.577C256.708 319.161 257.122 318.745 257.536 318.745H277.832C278.246 318.745 278.661 319.161 278.661 319.577C278.661 319.992 278.246 320.408 277.832 320.408H257.536C256.984 320.408 256.708 320.131 256.708 319.577ZM318.838 152.1C318.838 163.598 315.663 174.818 309.588 184.515C312.901 189.086 314.696 194.627 314.696 200.445C314.696 215.406 302.546 227.596 287.635 227.596C277.418 227.596 268.168 221.917 263.611 212.774C261.817 212.913 260.022 213.051 258.089 213.051C224.677 213.051 197.339 185.762 197.339 152.1C197.339 118.439 224.538 91.1495 258.089 91.1495C291.639 91.1495 318.838 118.439 318.838 152.1Z" fill="#F1E6FF"/>
<path d="M258.227 92.8115C225.644 92.8115 199.135 119.408 199.135 152.1C199.135 184.792 225.644 211.389 258.227 211.389C259.884 211.389 261.403 211.25 262.922 211.25C262.093 209.172 261.403 207.094 261.127 204.878C260.16 204.878 259.194 205.016 258.227 205.016C241.659 205.016 226.334 197.398 216.255 183.961C209.352 174.818 205.624 163.875 205.624 152.239C205.624 123.148 229.233 99.4607 258.089 99.4607C287.083 99.4607 310.693 123.148 310.693 152.239C310.693 161.52 308.208 170.662 303.651 178.697C305.446 179.943 307.103 181.606 308.484 183.268C314.144 173.987 317.182 163.321 317.182 152.239C317.182 119.408 290.811 92.8115 258.227 92.8115Z" fill="#00DA9C"/>
<path d="M307.931 184.93C306.274 182.713 304.341 180.913 302.132 179.389C297.852 176.48 292.882 174.956 287.773 174.956C287.221 174.956 286.531 174.956 285.979 174.956C272.724 175.926 262.369 187.008 262.369 200.306C262.369 201.414 262.507 202.522 262.645 203.631C262.921 206.263 263.75 208.895 264.992 211.388C269.272 220.254 277.971 225.795 287.773 225.795C301.718 225.795 313.178 214.436 313.178 200.306C313.04 194.765 311.383 189.363 307.931 184.93ZM304.756 187.008L288.326 220.531C288.188 220.808 287.911 220.946 287.635 220.946C287.635 220.946 287.635 220.946 287.497 220.946C287.221 220.946 286.945 220.808 286.807 220.669L270.791 200.168C270.515 199.89 270.515 199.475 270.791 199.198L276.176 192.133C276.314 191.995 276.59 191.856 276.866 191.856C277.142 191.856 277.418 191.995 277.556 192.133L286.117 202.938L296.472 181.605C296.61 181.328 296.748 181.19 297.024 181.19C297.3 181.19 297.438 181.19 297.714 181.328L304.48 185.899C304.756 186.177 304.894 186.592 304.756 187.008Z" fill="#00DA9C"/>
<path d="M302.271 177.588C306.689 169.831 309.036 161.104 309.036 152.1C309.036 123.979 286.255 100.984 258.089 100.984C230.062 100.984 207.281 123.841 207.281 152.1C207.281 162.905 210.594 173.017 216.669 181.744C223.573 169.416 239.865 170.108 243.592 170.385L244.559 158.334C244.559 158.334 244.559 158.334 244.421 158.334C236.827 155.425 231.719 151.13 229.51 145.589C227.024 139.356 228.819 133.399 229.648 131.183C227.577 130.49 226.61 131.044 226.61 131.044C226.334 131.183 225.92 131.183 225.644 130.906C225.368 130.629 225.368 130.352 225.506 129.936C229.371 121.347 234.342 116.084 240.279 114.283C245.801 112.62 250.634 114.56 252.291 115.391C253.257 114.006 255.604 110.958 259.332 109.988C262.231 109.296 265.407 109.988 268.582 112.205C277.971 118.577 285.979 114.56 286.117 114.56C286.393 114.421 286.669 114.421 286.945 114.56C287.221 114.698 287.359 114.975 287.359 115.252C288.326 123.287 284.46 126.888 282.251 128.274C284.598 129.52 286.393 128.966 286.393 128.966C286.807 128.828 287.083 129.105 287.359 129.382C287.498 129.659 287.498 130.075 287.221 130.352C284.736 132.707 281.699 134.507 278.385 135.477C278.523 139.217 278.937 162.074 267.892 168.446V170.385C270.515 170.108 278.523 169.831 285.703 173.294C286.255 173.294 286.807 173.294 287.359 173.294C292.882 173.294 297.991 174.679 302.271 177.588Z" fill="#8B6FE2"/>
<path d="M405.131 37.955C403.06 37.955 401.127 37.2623 399.608 36.0156C396.847 38.6476 393.947 41.4181 391.186 44.0501C386.768 48.2058 382.212 52.5001 377.793 56.6558C382.488 61.6427 387.182 66.6296 391.738 71.3394C396.847 76.7419 402.231 82.2829 407.34 87.8238C408.72 86.1615 409.411 84.2222 409.411 82.1443V36.9853C408.168 37.6779 406.649 37.955 405.131 37.955Z" fill="white"/>
<path d="M376.551 57.9028C375.999 58.4569 375.446 59.011 374.894 59.7037C374.204 60.3963 373.651 61.0889 372.823 61.7815C372.547 62.0586 372.271 62.3356 371.995 62.6127C370.062 64.552 367.577 66.9069 364.815 66.9069C362.054 66.9069 359.569 64.552 357.636 62.6127C357.36 62.3356 357.083 62.0586 356.807 61.92C356.117 61.2274 355.427 60.5348 354.736 59.7037C354.184 59.1496 353.632 58.5955 353.079 58.0414C348.385 63.0282 343.691 68.0151 339.135 72.725C334.026 78.1274 328.642 83.6684 323.533 89.2094C325.052 90.4561 326.985 91.1487 329.056 91.1487H400.436C402.507 91.1487 404.44 90.4561 405.959 89.2094C400.851 83.6684 395.466 78.1274 390.358 72.725C385.939 67.8766 381.107 62.8897 376.551 57.9028ZM368.681 81.0364H378.208C378.622 81.0364 379.036 81.452 379.036 81.8676C379.036 82.2832 378.622 82.6987 378.208 82.6987H368.681C368.267 82.6987 367.853 82.2832 367.853 81.8676C367.853 81.3135 368.129 81.0364 368.681 81.0364ZM395.328 86.4389C395.328 86.8545 394.914 87.2701 394.5 87.2701H352.251C351.837 87.2701 351.423 86.8545 351.423 86.4389C351.423 86.0233 351.837 85.6078 352.251 85.6078H394.5C394.914 85.6078 395.328 86.0233 395.328 86.4389Z" fill="white"/>
<path d="M353.908 56.1021L354.046 56.2406L354.184 56.3791C354.874 57.0717 355.427 57.7644 356.117 58.457C356.807 59.1496 357.36 59.8422 358.05 60.5349C358.326 60.8119 358.602 61.089 358.878 61.2275C360.673 62.8898 362.882 65.1062 364.953 65.1062C367.024 65.1062 369.233 63.0283 371.028 61.2275C371.304 60.9504 371.58 60.6734 371.857 60.3963C372.547 59.7037 373.099 59.0111 373.789 58.3185C374.342 57.6258 375.032 56.9332 375.722 56.2406L375.86 56.1021L375.999 55.9636C380.555 51.5308 385.387 47.098 389.943 42.6652C392.705 40.0332 395.466 37.4012 398.227 34.7693C396.571 32.9685 395.604 30.6135 395.604 28.2586C395.604 27.289 395.742 26.3193 396.018 25.3496H329.056C326.985 25.3496 325.052 26.0422 323.533 27.289C328.78 32.4144 334.302 37.5398 339.549 42.5267C344.381 47.098 349.214 51.6693 353.908 56.1021Z" fill="white"/>
<path d="M352.113 56.7948C347.557 52.5005 343 48.2063 338.582 43.912C333.336 38.9251 327.813 33.7997 322.566 28.6743C321.186 30.3366 320.357 32.276 320.357 34.4923V82.2833C320.357 84.3612 321.048 86.4391 322.428 87.9628C327.537 82.4219 332.921 76.8809 338.03 71.4784C342.724 66.7686 347.418 61.7817 352.113 56.7948Z" fill="white"/>
<path d="M286.945 205.016C286.807 205.293 286.531 205.432 286.255 205.432C285.979 205.432 285.703 205.293 285.565 205.154L276.867 194.072L272.586 199.752L287.36 218.591L302.823 186.869L297.438 183.268L286.945 205.016Z" fill="white"/>
<path d="M252.704 167.753C252.29 167.615 252.152 167.061 252.29 166.645C252.428 166.229 252.98 166.091 253.395 166.229C258.779 168.723 263.335 169.138 266.925 167.199C277.004 161.797 277.004 140.325 276.866 135.893C266.787 138.109 256.432 133.538 252.98 131.737C252.842 138.525 251.738 142.68 249.805 144.204C248.838 145.035 248.01 144.758 247.872 144.758C247.596 144.758 247.458 144.481 247.32 144.204C247.32 144.066 247.182 143.927 247.182 143.927C246.629 142.957 245.801 142.126 244.696 141.711C242.625 141.018 240.416 141.849 239.864 143.65C239.312 145.451 240.554 147.39 242.625 148.083C243.73 148.498 244.835 148.36 245.801 147.944C245.939 147.806 246.215 147.667 246.353 147.667C246.767 147.667 247.182 148.083 247.182 148.498C247.182 148.498 247.182 148.637 247.182 148.775L247.044 150.299C246.906 151.961 246.629 154.593 246.491 157.502L245.387 171.216C245.249 172.186 245.249 172.74 245.249 172.879C245.249 178.835 250.081 183.545 256.018 183.545C261.955 183.545 266.787 178.697 266.787 172.74V169C265.406 169.554 263.75 169.831 262.093 169.831C259.055 169.97 256.018 169.277 252.704 167.753ZM273.829 144.481C273.829 145.312 273.552 146.143 273.138 146.697C272.724 147.39 272.172 147.667 271.481 147.667C271.343 147.667 271.343 147.667 271.205 147.667C270.239 147.39 269.548 145.866 269.687 144.204C269.825 142.265 270.791 140.879 272.034 141.018C273.138 141.018 273.967 142.68 273.829 144.481ZM269.548 138.94C270.101 137.97 271.205 137.555 272.31 137.555C273.414 137.693 274.381 138.247 274.933 139.217C275.209 139.633 274.933 140.187 274.519 140.325C274.381 140.325 274.243 140.464 274.105 140.464C273.829 140.464 273.552 140.325 273.414 140.048C273.138 139.633 272.724 139.217 272.172 139.217C271.619 139.217 271.205 139.494 270.929 139.91C270.653 140.325 270.101 140.325 269.825 140.187C269.272 139.771 269.272 139.356 269.548 138.94ZM259.193 143.234C259.193 144.066 258.917 144.897 258.503 145.451C258.089 146.143 257.399 146.559 256.846 146.42C256.708 146.42 256.708 146.42 256.57 146.42C255.604 146.143 254.913 144.62 255.051 142.957C255.19 141.018 256.156 139.633 257.399 139.771C258.503 139.771 259.332 141.295 259.193 143.234ZM266.097 160.411C265.545 161.243 264.578 161.797 263.474 161.797H263.335C262.231 161.797 261.264 161.104 260.712 160.134C260.436 159.719 260.712 159.165 260.988 159.026C261.403 158.749 261.955 159.026 262.093 159.303C262.369 159.719 262.783 160.134 263.335 160.134C263.888 160.134 264.302 159.857 264.578 159.442C264.854 159.026 265.406 159.026 265.683 159.165C266.235 159.58 266.235 159.996 266.097 160.411ZM260.988 152.931L264.44 154.039L264.716 145.451C264.716 145.035 265.13 144.62 265.545 144.62C265.959 144.62 266.373 145.035 266.373 145.451L266.097 155.147C266.097 155.425 265.959 155.702 265.683 155.84C265.545 155.979 265.406 155.979 265.268 155.979C265.13 155.979 265.13 155.979 264.992 155.979L260.574 154.593C260.16 154.455 259.884 154.039 260.022 153.485C260.022 152.931 260.574 152.793 260.988 152.931ZM254.913 137.693C255.604 136.724 256.57 136.308 257.675 136.308C258.779 136.447 259.746 137.001 260.298 137.97C260.574 138.386 260.298 138.94 259.884 139.079C259.746 139.079 259.608 139.217 259.47 139.217C259.193 139.217 258.917 139.079 258.779 138.802C258.503 138.386 258.089 137.97 257.537 137.97C256.984 137.97 256.57 138.247 256.294 138.663C256.018 139.079 255.466 139.079 255.19 138.802C254.637 138.525 254.637 137.97 254.913 137.693Z" fill="#FDC8B4"/>
<path d="M400.574 306.971C397.674 298.521 390.081 292.703 381.244 292.01C380.968 292.01 380.692 291.733 380.554 291.456L364.676 244.773C364.538 244.358 364.814 243.804 365.229 243.665L372.408 241.172L369.923 233.968L362.743 236.462C362.467 236.6 362.329 236.462 362.053 236.462C361.915 236.323 361.639 236.185 361.639 236.046L358.601 227.042C358.463 226.627 358.739 226.072 359.154 225.934L366.333 223.441L362.605 212.497L355.426 214.991H355.288L341.619 219.7V228.15L364.952 296.72C365.09 296.997 364.952 297.413 364.676 297.551C358.049 303.508 355.702 312.789 358.463 321.239C361.501 329.966 369.371 335.922 378.621 336.338C379.173 336.338 379.726 336.338 380.416 336.338C382.487 336.2 384.696 335.784 386.629 335.091C398.227 331.213 404.44 318.607 400.574 306.971ZM366.195 284.945C366.057 284.945 366.057 284.945 365.919 284.945C365.643 284.945 365.229 284.668 365.091 284.391L351.284 243.804C351.146 243.388 351.422 242.834 351.836 242.695C352.25 242.557 352.803 242.834 352.941 243.25L366.747 283.837C366.885 284.391 366.609 284.807 366.195 284.945ZM391.185 310.434C382.487 313.343 383.73 322.901 384.006 324.702C384.006 324.841 384.144 324.979 384.144 325.118C384.144 325.256 384.144 325.395 384.006 325.395C383.868 325.672 383.591 325.949 383.177 325.949C382.901 325.949 382.625 325.81 382.487 325.533C382.349 325.256 378.621 317.776 371.718 317.776C370.475 317.776 369.371 318.053 368.128 318.468C367.714 318.607 367.161 318.33 367.023 317.914C366.885 317.499 367.161 316.945 367.576 316.806C376.964 313.62 374.755 302.677 374.617 302.261C374.479 301.845 374.755 301.43 375.169 301.291C375.584 301.153 375.998 301.291 376.136 301.707C376.136 301.845 379.864 309.464 386.905 309.464C388.148 309.464 389.252 309.187 390.495 308.772C390.909 308.633 391.461 308.91 391.599 309.326C391.875 309.88 391.599 310.295 391.185 310.434ZM396.294 321.654C396.156 321.931 395.879 322.209 395.603 322.209C395.465 322.209 395.327 322.209 395.327 322.07C394.913 321.931 394.775 321.377 394.913 320.962C396.57 317.083 396.708 312.927 395.465 308.91C394.499 306.14 392.842 303.646 390.633 301.707C390.357 301.43 390.219 300.876 390.495 300.599C390.771 300.322 391.323 300.183 391.599 300.46C394.085 302.538 395.879 305.309 396.846 308.356C398.365 312.789 398.088 317.499 396.294 321.654Z" fill="#FBC22D"/>
<path d="M268.168 172.047V173.017C268.168 179.943 262.645 185.484 255.742 185.484C248.976 185.484 243.316 179.943 243.316 173.017C243.316 173.017 243.316 172.602 243.316 172.047C239.864 171.77 223.848 170.939 217.635 183.129C227.3 195.874 242.073 203.077 257.951 203.077C258.917 203.077 259.746 203.077 260.574 202.938C260.436 202.107 260.436 201.138 260.436 200.307C260.436 187.147 269.963 176.065 282.527 173.71C276.59 171.493 270.239 171.77 268.168 172.047Z" fill="#FBC22D"/>
<path d="M199.548 315.005V248.79C199.548 239.648 193.749 231.613 185.189 228.566C182.98 227.735 180.633 227.458 178.286 227.458H109.253C106.767 227.458 104.282 227.873 101.935 228.704C93.5129 231.752 87.9902 239.786 87.9902 248.79V315.005C87.9902 326.78 97.5168 336.338 109.253 336.338H178.286C190.022 336.338 199.548 326.78 199.548 315.005ZM193.197 277.603C193.197 277.188 193.611 276.772 194.026 276.772C194.44 276.772 194.854 277.188 194.854 277.603V317.776C194.854 318.191 194.44 318.607 194.026 318.607C193.611 318.607 193.197 318.191 193.197 317.776V277.603ZM187.122 297.135C187.122 296.72 187.536 296.304 187.951 296.304C188.365 296.304 188.779 296.72 188.779 297.135V306.971C188.779 307.386 188.365 307.802 187.951 307.802C187.536 307.802 187.122 307.386 187.122 306.971V297.135ZM94.8936 298.798C94.8936 299.213 94.4794 299.629 94.0652 299.629C93.651 299.629 93.2368 299.213 93.2368 298.798V265.413C93.2368 264.998 93.651 264.582 94.0652 264.582C94.4794 264.582 94.8936 264.998 94.8936 265.413V298.798ZM101.383 288.27C101.383 288.685 100.969 289.101 100.554 289.101C100.14 289.101 99.7259 288.685 99.7259 288.27V276.08C99.7259 275.664 100.14 275.249 100.554 275.249C100.969 275.249 101.383 275.664 101.383 276.08V288.27ZM157.024 303.508H130.791C130.515 303.508 130.239 303.369 130.101 303.23C129.963 303.092 129.824 302.815 129.963 302.538L135.485 281.898C134.105 280.097 133.276 277.742 133.276 275.387C133.276 269.43 138.108 264.721 143.907 264.721C149.844 264.721 154.538 269.569 154.538 275.387C154.538 277.742 153.71 279.958 152.329 281.898L157.714 302.261C157.714 302.399 157.852 302.538 157.852 302.676C157.852 303.092 157.438 303.508 157.024 303.508Z" fill="#8B6FE2"/>
<path d="M109.253 225.795H114.638V206.402C114.638 190.61 127.34 177.866 143.079 177.866H144.46C160.2 177.866 172.902 190.61 172.902 206.402V225.795H178.286C180.634 225.795 182.843 226.211 185.052 226.903C185.052 226.765 185.052 226.765 185.052 226.626V206.54C185.052 196.705 181.462 187.147 174.973 179.666C167.241 170.801 156.196 165.814 144.46 165.814H143.079C120.713 165.814 102.488 184.099 102.488 206.54V226.626C102.488 226.765 102.488 226.765 102.488 226.903C104.697 226.211 107.044 225.795 109.253 225.795Z" fill="#8B6FE2"/>
<path d="M499.292 336.338H388.148H380.416C379.864 336.338 379.174 336.338 378.621 336.338H370.752H327.123H100.969H1.69901C1.28481 336.338 0.870605 336.753 0.870605 337.169C0.870605 337.585 1.28481 338 1.69901 338H378.621H380.554H499.43C499.844 338 500.258 337.585 500.258 337.169C500.12 336.753 499.844 336.338 499.292 336.338Z" fill="black"/>
<path d="M272.034 141.018C270.929 140.879 269.825 142.265 269.687 144.204C269.549 145.866 270.101 147.39 271.206 147.667C271.344 147.667 271.344 147.667 271.482 147.667C272.172 147.667 272.724 147.39 273.139 146.697C273.553 146.143 273.829 145.312 273.829 144.481C273.967 142.68 273.139 141.018 272.034 141.018Z" fill="#321951"/>
<path d="M257.399 139.633C256.156 139.495 255.19 140.88 255.052 142.819C254.914 144.481 255.466 146.005 256.57 146.282C256.708 146.282 256.708 146.282 256.846 146.282C257.399 146.282 258.089 146.005 258.503 145.313C258.917 144.758 259.194 143.927 259.194 143.096C259.332 141.295 258.503 139.772 257.399 139.633Z" fill="#321951"/>
<path d="M258.227 91.1489C224.815 91.1489 197.478 118.438 197.478 152.1C197.478 185.623 224.677 213.051 258.227 213.051C260.022 213.051 261.955 212.912 263.75 212.774C268.444 221.916 277.557 227.596 287.774 227.596C302.685 227.596 314.835 215.405 314.835 200.445C314.835 194.627 313.04 189.224 309.726 184.515C315.801 174.818 318.977 163.597 318.977 152.1C318.839 118.438 291.64 91.1489 258.227 91.1489ZM313.04 200.306C313.04 214.297 301.718 225.795 287.636 225.795C277.833 225.795 269.135 220.254 264.855 211.388C263.612 208.895 262.922 206.263 262.507 203.631C262.369 202.523 262.231 201.415 262.231 200.306C262.231 187.008 272.586 175.787 285.841 174.956C286.393 174.956 287.083 174.956 287.636 174.956C292.744 174.956 297.715 176.48 301.995 179.389C304.204 180.913 306.137 182.852 307.793 184.93C311.383 189.363 313.04 194.765 313.04 200.306ZM260.851 203.077C260.022 203.077 259.056 203.215 258.227 203.215C242.35 203.215 227.577 196.012 217.912 183.268C224.125 171.078 240.141 171.77 243.592 172.186C243.592 172.74 243.592 173.017 243.592 173.155C243.592 179.943 249.115 185.623 256.018 185.623C262.784 185.623 268.444 180.082 268.444 173.155V172.186C270.515 172.047 276.866 171.632 282.941 173.848C270.377 176.203 260.851 187.424 260.851 200.445C260.713 201.276 260.713 202.107 260.851 203.077ZM252.705 167.753C256.018 169.277 259.056 170.108 261.817 170.108C263.474 170.108 264.993 169.831 266.511 169.277V173.017C266.511 178.974 261.679 183.822 255.742 183.822C249.805 183.822 244.973 178.974 244.973 173.155C244.973 173.017 244.973 172.463 245.111 171.493L246.216 157.779C246.492 154.87 246.63 152.238 246.768 150.576L246.906 149.052C246.906 148.914 246.906 148.775 246.906 148.775C246.906 148.36 246.492 147.944 246.078 147.944C245.801 147.944 245.663 148.083 245.525 148.221C244.559 148.637 243.454 148.637 242.35 148.36C240.279 147.667 239.036 145.589 239.588 143.927C240.141 142.126 242.35 141.295 244.421 141.987C245.525 142.403 246.492 143.096 246.906 144.204C246.906 144.342 247.044 144.342 247.044 144.481C247.182 144.758 247.32 144.896 247.596 145.035C247.734 145.035 248.563 145.174 249.529 144.481C251.462 142.957 252.567 138.663 252.705 132.014C256.156 133.815 266.511 138.386 276.59 136.169C276.728 140.602 276.728 162.212 266.649 167.476C263.06 169.415 258.504 169 253.119 166.506C252.705 166.368 252.152 166.506 252.014 166.922C252.152 167.06 252.291 167.476 252.705 167.753ZM278.661 135.338C281.975 134.369 284.874 132.706 287.498 130.213C287.774 129.936 287.774 129.52 287.636 129.243C287.498 128.966 287.083 128.689 286.669 128.828C286.669 128.828 284.874 129.243 282.527 128.135C284.736 126.75 288.602 123.148 287.636 115.114C287.636 114.837 287.498 114.56 287.221 114.421C286.945 114.283 286.669 114.283 286.393 114.421C286.255 114.421 278.385 118.438 268.859 112.066C265.683 109.85 262.646 109.157 259.608 109.85C255.88 110.819 253.395 113.867 252.567 115.252C250.772 114.421 246.078 112.482 240.555 114.144C234.618 115.945 229.648 121.209 225.782 129.797C225.644 130.074 225.782 130.49 225.92 130.767C226.196 131.044 226.61 131.044 226.886 130.905C226.886 130.905 227.853 130.49 229.924 131.044C229.095 133.26 227.3 139.217 229.786 145.451C231.995 150.992 236.965 155.286 244.697 158.195C244.697 158.195 244.697 158.195 244.835 158.195L243.868 170.246C240.141 169.969 223.849 169.138 216.945 181.605C210.732 172.878 207.557 162.766 207.557 151.961C207.557 123.841 230.338 100.846 258.365 100.846C286.393 100.846 309.312 123.702 309.312 151.961C309.312 160.965 306.965 169.692 302.547 177.45C298.129 174.679 293.158 173.155 288.05 173.155C287.498 173.155 286.945 173.155 286.393 173.155C279.214 169.554 271.206 169.969 268.582 170.246V168.307C279.076 161.935 278.799 139.078 278.661 135.338ZM308.484 182.991C307.103 181.328 305.446 179.666 303.651 178.419C308.208 170.385 310.693 161.242 310.693 151.961C310.693 122.871 287.083 99.1833 258.089 99.1833C229.095 99.1833 205.624 122.871 205.624 151.961C205.624 163.459 209.214 174.402 216.255 183.683C226.334 196.982 241.659 204.739 258.227 204.739C259.194 204.739 260.16 204.739 261.127 204.601C261.403 206.817 262.093 209.033 262.922 210.973C261.403 211.111 259.746 211.111 258.227 211.111C225.644 211.111 199.135 184.515 199.135 151.823C199.135 119.131 225.644 92.5342 258.227 92.5342C290.811 92.5342 317.32 119.131 317.32 151.823C317.182 163.043 314.144 173.71 308.484 182.991Z" fill="#321951"/>
<path d="M304.479 185.9L297.714 181.328C297.576 181.19 297.3 181.19 297.024 181.19C296.748 181.19 296.61 181.467 296.472 181.606L286.117 202.938L277.556 192.133C277.418 191.995 277.142 191.856 276.866 191.856C276.59 191.856 276.314 191.995 276.176 192.133L270.791 199.198C270.515 199.475 270.515 199.891 270.791 200.168L286.807 220.669C286.945 220.808 287.221 220.947 287.497 220.947C287.497 220.947 287.497 220.947 287.635 220.947C287.911 220.947 288.188 220.808 288.326 220.531L304.756 187.008C304.894 186.592 304.756 186.177 304.479 185.9ZM287.359 218.592L272.586 199.752L276.866 194.073L285.564 205.155C285.702 205.432 285.978 205.432 286.255 205.432C286.531 205.432 286.807 205.293 286.945 205.016L297.576 183.406L302.961 187.008L287.359 218.592Z" fill="#321951"/>
<path d="M256.294 138.525C256.57 138.109 257.123 137.832 257.537 137.832C258.089 137.832 258.503 138.109 258.78 138.663C258.918 138.94 259.194 139.079 259.47 139.079C259.608 139.079 259.746 139.079 259.884 138.94C260.298 138.663 260.436 138.248 260.298 137.832C259.746 136.863 258.78 136.17 257.675 136.17C256.709 136.17 255.604 136.585 254.914 137.555C254.638 137.971 254.776 138.386 255.052 138.663C255.466 139.079 256.018 138.94 256.294 138.525Z" fill="#321951"/>
<path d="M264.716 159.442C264.44 159.857 264.026 160.134 263.473 160.134C262.921 160.134 262.507 159.857 262.231 159.303C261.955 158.887 261.541 158.749 261.126 159.026C260.712 159.303 260.574 159.719 260.85 160.134C261.402 161.104 262.369 161.796 263.473 161.796H263.612C264.578 161.796 265.545 161.242 266.235 160.411C266.511 159.996 266.373 159.58 265.959 159.303C265.406 159.026 264.854 159.164 264.716 159.442Z" fill="#321951"/>
<path d="M270.929 139.91C271.205 139.494 271.758 139.217 272.172 139.217C272.724 139.217 273.138 139.494 273.414 140.048C273.552 140.325 273.829 140.464 274.105 140.464C274.243 140.464 274.381 140.464 274.519 140.325C274.933 140.048 275.071 139.633 274.933 139.217C274.381 138.247 273.414 137.555 272.31 137.555C271.205 137.555 270.239 137.97 269.548 138.94C269.272 139.355 269.41 139.771 269.825 140.048C270.101 140.325 270.653 140.187 270.929 139.91Z" fill="#321951"/>
<path d="M259.884 153.485C259.746 153.901 260.022 154.455 260.436 154.593L264.854 155.979C264.993 155.979 264.993 155.979 265.131 155.979C265.269 155.979 265.407 155.979 265.545 155.84C265.821 155.702 265.821 155.425 265.959 155.147L266.235 145.451C266.235 145.035 265.959 144.62 265.407 144.62C264.993 144.62 264.578 145.035 264.578 145.451L264.302 154.039L260.851 152.931C260.574 152.793 260.022 152.931 259.884 153.485Z" fill="#321951"/>
<path d="M405.13 18.9779C401.678 18.9779 398.503 20.9172 396.846 23.8262H341.619V22.9951C341.619 10.2508 331.402 0 318.7 0H197.616C184.914 0 174.697 10.2508 174.697 22.9951V176.757C166.689 168.584 155.781 163.875 144.46 163.875H143.079C119.746 163.875 100.831 182.852 100.831 206.263V226.349C100.831 226.626 100.969 226.903 101.107 227.042C92.2707 230.366 86.1958 239.093 86.1958 248.513V314.728C86.1958 324.425 92.2707 332.736 100.693 336.061H327.122C335.544 332.736 341.619 324.425 341.619 314.728V232.998L363.158 296.443C356.393 302.815 353.907 312.65 356.945 321.516C359.292 328.303 364.4 333.567 370.751 336.061H378.621C369.371 335.645 361.501 329.827 358.464 320.962C355.564 312.512 358.049 303.23 364.677 297.274C364.953 296.997 364.953 296.72 364.953 296.443L341.619 227.873V219.423L355.288 214.713H355.426L362.606 212.22L366.333 223.163L359.154 225.657C358.74 225.795 358.464 226.211 358.602 226.765L361.639 235.769C361.777 236.046 361.915 236.184 362.053 236.184C362.191 236.323 362.467 236.323 362.744 236.184L369.923 233.691L372.408 240.894L365.229 243.388C364.815 243.526 364.538 243.942 364.677 244.496L380.554 291.179C380.692 291.456 380.968 291.733 381.245 291.733C390.081 292.425 397.675 298.382 400.574 306.693C404.44 318.33 398.227 330.935 386.767 334.952C384.696 335.645 382.625 336.061 380.554 336.199H388.286C400.022 331.628 406.373 318.33 402.231 306.278C399.193 297.412 391.323 291.179 382.073 290.209L366.609 244.773L373.789 242.28C374.065 242.141 374.203 242.002 374.203 241.864C374.341 241.725 374.341 241.448 374.203 241.171L371.166 232.444C371.028 232.167 370.89 232.029 370.751 232.029C370.613 231.89 370.337 231.89 370.061 232.029L362.882 234.522L360.396 227.18L367.576 224.687C367.99 224.548 368.266 224.133 368.128 223.579L363.848 211.111C363.71 210.696 363.296 210.419 362.744 210.557L354.874 213.189H354.736L341.481 217.761V92.8115H400.436C403.197 92.8115 405.682 91.7033 407.753 89.9025C409.824 87.9631 410.929 85.1926 410.929 82.2836V35.8779C413.138 34.0771 414.381 31.4451 414.381 28.5361C414.657 23.2721 410.377 18.9779 405.13 18.9779ZM396.156 25.6271C395.88 26.5967 395.742 27.5664 395.742 28.5361C395.742 31.0295 396.708 33.2459 398.365 35.0467C395.604 37.6787 392.842 40.3107 390.081 42.9426C385.525 47.2369 380.692 51.6697 376.136 56.241L375.998 56.3795L375.86 56.518C375.17 57.2107 374.479 57.9033 373.927 58.5959C373.237 59.2885 372.684 59.9812 371.994 60.6738C371.718 60.9508 371.442 61.2279 371.166 61.5049C369.371 63.1672 367.162 65.3836 365.091 65.3836C363.02 65.3836 360.811 63.1672 359.016 61.5049C358.74 61.2279 358.464 60.9508 358.187 60.8123C357.497 60.1197 356.807 59.4271 356.254 58.7344C355.564 58.0418 355.012 57.3492 354.322 56.6566L354.183 56.518C354.183 56.3795 354.045 56.3795 354.045 56.3795C349.351 51.8082 344.519 47.3754 339.825 42.9426C334.578 37.9557 329.193 32.8303 323.809 27.7049C325.328 26.4582 327.26 25.7656 329.331 25.7656H396.156V25.6271ZM352.112 56.7951C347.418 61.782 342.724 66.7689 338.168 71.4787C333.059 76.8812 327.675 82.4221 322.566 87.9631C321.186 86.3008 320.495 84.3615 320.495 82.2836V34.4926C320.495 32.4148 321.186 30.3369 322.704 28.6746C327.951 33.8 333.473 38.9254 338.72 43.9123C343 48.2066 347.556 52.5008 352.112 56.7951ZM102.488 226.626V206.54C102.488 184.099 120.712 165.814 143.079 165.814H144.46C156.058 165.814 167.103 170.801 174.973 179.666C181.462 187.147 185.052 196.705 185.052 206.54V226.626C185.052 226.765 185.052 226.765 185.052 226.903C182.843 226.211 180.633 225.795 178.286 225.795H172.902V206.402C172.902 190.61 160.2 177.866 144.46 177.866H143.079C127.34 177.866 114.638 190.61 114.638 206.402V225.795H109.253C106.906 225.795 104.697 226.211 102.488 226.903C102.488 226.765 102.488 226.765 102.488 226.626ZM171.245 206.54V225.934H116.294V206.54C116.294 191.718 128.306 179.666 143.079 179.666H144.46C159.233 179.666 171.245 191.718 171.245 206.54ZM109.253 336.338C97.5173 336.338 87.9907 326.78 87.9907 315.005V248.79C87.9907 239.925 93.6514 231.89 101.935 228.704C104.283 227.873 106.768 227.457 109.253 227.457H178.286C180.633 227.457 182.981 227.873 185.19 228.566C193.75 231.613 199.549 239.648 199.549 248.79V315.005C199.549 326.78 190.022 336.338 178.286 336.338H109.253ZM339.963 218.869C339.963 219.007 339.963 219.284 339.963 219.423V315.005C339.963 326.78 330.436 336.338 318.7 336.338H186.846C195.269 333.013 201.344 324.702 201.344 315.005V248.79C201.344 239.232 195.407 230.643 186.432 227.319C186.57 227.18 186.846 226.903 186.846 226.626V206.54C186.846 196.289 183.119 186.593 176.491 178.835V23.1336C176.491 11.359 186.018 1.80082 197.754 1.80082H211.008C212.665 1.80082 213.908 3.04754 213.908 4.70984V7.75738C213.908 12.3287 217.635 15.9303 222.054 15.9303H294.401C298.957 15.9303 302.546 12.1902 302.546 7.75738V4.70984C302.546 3.04754 303.789 1.80082 305.446 1.80082H318.7C330.436 1.80082 339.963 11.359 339.963 23.1336V23.9648H329.193C326.432 23.9648 323.809 25.073 321.876 27.0123C319.805 28.9516 318.7 31.7221 318.7 34.4926V82.2836C318.7 85.1926 319.805 87.8246 321.876 89.7639C323.809 91.7033 326.432 92.8115 329.193 92.8115H339.963V218.869ZM400.574 91.1492H329.193C327.122 91.1492 325.189 90.4566 323.671 89.2098C328.779 83.6689 334.164 78.1279 339.272 72.7254C343.828 67.8771 348.661 63.0287 353.217 58.0418C353.769 58.5959 354.322 59.15 354.874 59.7041C355.564 60.3967 356.254 61.2279 356.945 61.9205C357.221 62.1975 357.497 62.3361 357.773 62.6131C359.706 64.5525 362.191 66.9074 364.953 66.9074C367.714 66.9074 370.199 64.5525 372.132 62.6131C372.408 62.3361 372.684 62.059 372.961 61.782C373.651 61.0893 374.341 60.3967 375.032 59.7041C375.584 59.15 376.136 58.4574 376.688 57.9033C381.383 62.8902 386.077 67.8771 390.633 72.5869C395.742 77.9894 401.126 83.5303 406.235 89.0713C404.578 90.4566 402.645 91.1492 400.574 91.1492ZM409.41 82.2836C409.41 84.3615 408.72 86.4394 407.339 87.9631C402.231 82.4221 396.846 76.8812 391.738 71.4787C387.181 66.6303 382.349 61.6434 377.793 56.7951C382.211 52.5008 386.767 48.2066 391.185 44.1894C393.947 41.5574 396.846 38.9254 399.607 36.1549C401.264 37.4016 403.197 38.0943 405.13 38.0943C406.649 38.0943 408.168 37.6787 409.41 36.9861V82.2836ZM409.824 34.7697C407.063 36.8475 402.783 36.709 400.022 34.3541C398.365 32.8303 397.398 30.7525 397.398 28.3975C397.398 27.1508 397.674 26.0426 398.227 25.073C399.469 22.441 402.231 20.6402 405.268 20.6402C409.548 20.6402 413.138 24.1033 413.138 28.3975C413 31.0295 411.757 33.3844 409.824 34.7697Z" fill="#321951"/>
<path d="M152.329 281.898C153.71 280.097 154.538 277.742 154.538 275.387C154.538 269.431 149.706 264.721 143.907 264.721C137.97 264.721 133.276 269.569 133.276 275.387C133.276 277.742 134.104 279.958 135.485 281.898L129.962 302.538C129.962 302.815 129.962 303.092 130.1 303.231C130.239 303.369 130.515 303.508 130.791 303.508H157.024C157.438 303.508 157.852 303.092 157.852 302.676C157.852 302.538 157.852 302.399 157.714 302.261L152.329 281.898Z" fill="#321951"/>
<path d="M367.576 316.806C367.162 316.944 366.886 317.36 367.024 317.914C367.162 318.33 367.576 318.607 368.128 318.468C369.371 318.053 370.613 317.776 371.718 317.776C378.621 317.776 382.349 325.256 382.487 325.533C382.625 325.81 382.901 325.949 383.178 325.949C383.454 325.949 383.868 325.672 384.006 325.394C384.006 325.256 384.144 325.117 384.144 325.117C384.144 324.979 384.144 324.84 384.006 324.702C383.73 322.901 382.487 313.343 391.047 310.434C391.462 310.295 391.738 309.88 391.6 309.326C391.462 308.91 391.047 308.633 390.495 308.772C389.253 309.187 388.01 309.464 386.905 309.464C379.864 309.464 376.136 301.707 376.136 301.707C375.998 301.291 375.584 301.153 375.17 301.291C374.755 301.43 374.479 301.845 374.617 302.261C374.755 302.676 376.965 313.62 367.576 316.806ZM376.55 305.447C378.483 307.94 381.659 310.988 386.491 311.265C382.901 314.313 382.211 318.745 382.211 321.931C380.278 319.438 376.965 316.39 372.27 316.113C375.86 313.066 376.55 308.494 376.55 305.447Z" fill="#321951"/>
<path d="M395.189 322.07C395.327 322.07 395.466 322.208 395.466 322.208C395.742 322.208 396.156 322.07 396.156 321.654C397.951 317.498 398.227 312.789 396.708 308.494C395.742 305.447 393.809 302.676 391.462 300.598C391.047 300.321 390.633 300.321 390.357 300.737C390.081 301.014 390.081 301.568 390.495 301.845C392.704 303.784 394.361 306.278 395.327 309.048C396.708 312.927 396.432 317.221 394.775 321.1C394.637 321.516 394.775 321.931 395.189 322.07Z" fill="#321951"/>
<path d="M351.836 242.833C351.422 242.972 351.146 243.387 351.284 243.941L365.091 284.529C365.229 284.806 365.505 285.083 365.919 285.083C366.057 285.083 366.057 285.083 366.195 285.083C366.609 284.945 366.886 284.529 366.748 283.975L352.941 243.387C352.803 242.833 352.388 242.695 351.836 242.833Z" fill="#321951"/>
<path d="M299.785 325.671H223.434C223.02 325.671 222.606 326.087 222.606 326.503C222.606 326.918 223.02 327.334 223.434 327.334H299.785C300.2 327.334 300.614 326.918 300.614 326.503C300.614 326.087 300.338 325.671 299.785 325.671Z" fill="#321951"/>
<path d="M246.491 320.407C246.905 320.407 247.319 319.992 247.319 319.576C247.319 319.161 246.905 318.745 246.491 318.745H233.651C233.236 318.745 232.822 319.161 232.822 319.576C232.822 319.992 233.236 320.407 233.651 320.407H246.491Z" fill="#321951"/>
<path d="M277.695 320.407C278.109 320.407 278.523 319.992 278.523 319.576C278.523 319.161 278.109 318.745 277.695 318.745H257.399C256.985 318.745 256.57 319.161 256.57 319.576C256.57 319.992 256.985 320.407 257.399 320.407H277.695Z" fill="#321951"/>
<path d="M226.472 29.3674H299.923C300.338 29.3674 300.752 28.9518 300.752 28.5362C300.752 28.1207 300.338 27.7051 299.923 27.7051H226.472C226.058 27.7051 225.644 28.1207 225.644 28.5362C225.644 28.9518 225.92 29.3674 226.472 29.3674Z" fill="#321951"/>
<path d="M351.422 86.4395C351.422 86.8551 351.836 87.2707 352.25 87.2707H394.499C394.913 87.2707 395.327 86.8551 395.327 86.4395C395.327 86.024 394.913 85.6084 394.499 85.6084H352.25C351.836 85.6084 351.422 86.024 351.422 86.4395Z" fill="#321951"/>
<path d="M368.681 82.6989H378.208C378.622 82.6989 379.036 82.2833 379.036 81.8678C379.036 81.4522 378.622 81.0366 378.208 81.0366H368.681C368.267 81.0366 367.853 81.4522 367.853 81.8678C367.853 82.2833 368.129 82.6989 368.681 82.6989Z" fill="#321951"/>
<path d="M253.671 34.354C253.256 34.354 252.842 34.7696 252.842 35.1852C252.842 35.6007 253.256 36.0163 253.671 36.0163H272.724C273.138 36.0163 273.552 35.6007 273.552 35.1852C273.552 34.7696 273.138 34.354 272.724 34.354H253.671Z" fill="#321951"/>
<path d="M94.0662 264.582C93.652 264.582 93.2378 264.997 93.2378 265.413V298.797C93.2378 299.213 93.652 299.628 94.0662 299.628C94.4804 299.628 94.8946 299.213 94.8946 298.797V265.413C94.8946 264.997 94.6185 264.582 94.0662 264.582Z" fill="#321951"/>
<path d="M194.026 318.607C194.44 318.607 194.855 318.191 194.855 317.776V277.604C194.855 277.188 194.44 276.772 194.026 276.772C193.612 276.772 193.198 277.188 193.198 277.604V317.776C193.198 318.191 193.474 318.607 194.026 318.607Z" fill="#321951"/>
<path d="M100.554 275.248C100.14 275.248 99.7261 275.664 99.7261 276.079V288.269C99.7261 288.685 100.14 289.1 100.554 289.1C100.969 289.1 101.383 288.685 101.383 288.269V276.079C101.383 275.525 100.969 275.248 100.554 275.248Z" fill="#321951"/>
<path d="M187.951 296.304C187.537 296.304 187.123 296.72 187.123 297.135V306.971C187.123 307.386 187.537 307.802 187.951 307.802C188.365 307.802 188.779 307.386 188.779 306.971V297.135C188.779 296.72 188.503 296.304 187.951 296.304Z" fill="#321951"/>
</svg>
