<svg width="469" height="316" viewBox="0 0 469 316" fill="none" xmlns="http://www.w3.org/2000/svg">
<path d="M372.082 26.7361C372.082 28.8078 372.987 30.8795 374.538 32.3038C377.124 34.5049 381.004 34.6344 383.719 32.6922C385.529 31.2679 386.693 29.0668 386.693 26.8656C386.693 22.8517 383.46 19.6147 379.323 19.6147C376.478 19.6147 373.892 21.298 372.728 23.7581C372.34 24.535 372.082 25.5708 372.082 26.7361Z" fill="#F4825C"/>
<path d="M301.351 25.1825C303.161 23.3698 305.618 22.334 308.204 22.334H318.29V21.5571C318.29 10.5513 309.368 1.61719 298.377 1.61719H285.964C284.412 1.61719 283.248 2.78251 283.248 4.33626V7.18482C283.248 11.4577 279.757 14.8241 275.619 14.8241H207.863C203.596 14.8241 200.234 11.3282 200.234 7.18482V4.33626C200.234 2.78251 199.07 1.61719 197.518 1.61719H185.105C174.114 1.61719 165.192 10.5513 165.192 21.5571V167.092C171.399 174.343 174.89 183.536 174.89 192.988V211.763C174.89 212.022 174.761 212.281 174.502 212.41C182.907 215.518 188.467 223.546 188.467 232.48V294.371C188.467 303.435 182.907 311.203 174.89 314.311H298.377C309.368 314.311 318.29 305.377 318.29 294.371V205.03C318.29 204.9 318.29 204.641 318.29 204.512V86.8149H308.204C305.618 86.8149 303.161 85.779 301.351 83.9663C299.411 82.1536 298.377 79.564 298.377 76.9744V32.3039C298.377 29.5848 299.411 27.1247 301.351 25.1825ZM212.001 25.9594H280.791C281.179 25.9594 281.567 26.3478 281.567 26.7363C281.567 27.1247 281.179 27.5131 280.791 27.5131H212.001C211.613 27.5131 211.225 27.1247 211.225 26.7363C211.225 26.3478 211.483 25.9594 212.001 25.9594ZM255.965 32.9513C255.965 33.3397 255.577 33.7282 255.189 33.7282H237.345C236.957 33.7282 236.569 33.3397 236.569 32.9513C236.569 32.5629 236.957 32.1744 237.345 32.1744H255.189C255.706 32.1744 255.965 32.5629 255.965 32.9513ZM280.662 306.024H209.156C208.768 306.024 208.38 305.636 208.38 305.247C208.38 304.859 208.768 304.47 209.156 304.47H280.662C281.05 304.47 281.438 304.859 281.438 305.247C281.438 305.765 281.179 306.024 280.662 306.024ZM217.819 298.773C217.819 298.385 218.207 297.996 218.595 297.996H230.621C231.009 297.996 231.397 298.385 231.397 298.773C231.397 299.162 231.009 299.55 230.621 299.55H218.595C218.207 299.55 217.819 299.291 217.819 298.773ZM240.319 298.773C240.319 298.385 240.707 297.996 241.094 297.996H260.102C260.49 297.996 260.878 298.385 260.878 298.773C260.878 299.162 260.49 299.55 260.102 299.55H241.094C240.577 299.55 240.319 299.291 240.319 298.773ZM298.506 142.232C298.506 152.979 295.532 163.467 289.843 172.53C292.946 176.803 294.627 181.983 294.627 187.421C294.627 201.404 283.248 212.799 269.283 212.799C259.715 212.799 251.051 207.49 246.784 198.944C245.103 199.074 243.422 199.203 241.612 199.203C210.32 199.203 184.717 173.696 184.717 142.232C184.717 110.769 210.19 85.2611 241.612 85.2611C273.033 85.2611 298.506 110.769 298.506 142.232Z" fill="#F1E6FF"/>
<path d="M241.741 86.8149C211.225 86.8149 186.398 111.675 186.398 142.232C186.398 172.79 211.225 197.65 241.741 197.65C243.293 197.65 244.715 197.52 246.137 197.52C245.361 195.578 244.715 193.636 244.456 191.564C243.551 191.564 242.646 191.694 241.741 191.694C226.224 191.694 211.871 184.572 202.432 172.013C195.967 163.467 192.475 153.238 192.475 142.362C192.475 115.171 214.587 93.03 241.612 93.03C268.766 93.03 290.877 115.171 290.877 142.362C290.877 151.037 288.55 159.583 284.283 167.092C285.963 168.258 287.515 169.811 288.808 171.365C294.11 162.69 296.954 152.72 296.954 142.362C296.954 111.675 272.257 86.8149 241.741 86.8149Z" fill="#00DA9C"/>
<path d="M288.291 172.919C286.739 170.847 284.929 169.164 282.86 167.74C278.852 165.02 274.197 163.596 269.412 163.596C268.895 163.596 268.249 163.596 267.731 163.596C255.318 164.503 245.62 174.861 245.62 187.291C245.62 188.327 245.749 189.363 245.879 190.399C246.137 192.859 246.913 195.319 248.077 197.649C252.085 205.936 260.232 211.115 269.412 211.115C282.472 211.115 293.205 200.498 293.205 187.291C293.075 182.112 291.524 177.062 288.291 172.919ZM285.317 174.861L269.93 206.195C269.8 206.454 269.542 206.583 269.283 206.583C269.283 206.583 269.283 206.583 269.154 206.583C268.895 206.583 268.637 206.454 268.507 206.325L253.508 187.162C253.249 186.903 253.249 186.514 253.508 186.255L258.551 179.652C258.68 179.522 258.939 179.393 259.197 179.393C259.456 179.393 259.714 179.522 259.844 179.652L267.861 189.751L277.559 169.811C277.688 169.552 277.817 169.423 278.076 169.423C278.335 169.423 278.464 169.423 278.722 169.552L285.058 173.825C285.317 174.084 285.446 174.472 285.317 174.861Z" fill="#00DA9C"/>
<path d="M282.99 166.056C287.128 158.806 289.326 150.648 289.326 142.232C289.326 115.948 267.99 94.4541 241.612 94.4541C215.363 94.4541 194.027 115.818 194.027 142.232C194.027 152.332 197.131 161.784 202.82 169.941C209.285 158.417 224.544 159.065 228.035 159.323L228.94 148.059C228.94 148.059 228.94 148.059 228.811 148.059C221.699 145.34 216.914 141.326 214.846 136.147C212.518 130.32 214.199 124.752 214.975 122.681C213.035 122.033 212.13 122.551 212.13 122.551C211.872 122.681 211.484 122.681 211.225 122.422C210.966 122.163 210.966 121.904 211.096 121.515C214.716 113.488 219.371 108.567 224.931 106.884C230.104 105.33 234.629 107.143 236.181 107.92C237.086 106.625 239.284 103.777 242.776 102.87C245.491 102.223 248.465 102.87 251.439 104.942C260.232 110.898 267.732 107.143 267.861 107.143C268.12 107.014 268.378 107.014 268.637 107.143C268.895 107.273 269.025 107.532 269.025 107.791C269.93 115.3 266.309 118.667 264.24 119.962C266.439 121.127 268.12 120.609 268.12 120.609C268.508 120.48 268.766 120.738 269.025 120.997C269.154 121.256 269.154 121.645 268.895 121.904C266.568 124.105 263.723 125.788 260.62 126.695C260.749 130.191 261.137 151.555 250.793 157.511V159.323C253.249 159.065 260.749 158.806 267.473 162.043C267.99 162.043 268.508 162.043 269.025 162.043C274.197 162.043 278.981 163.337 282.99 166.056Z" fill="#8B6FE2"/>
<path d="M379.323 35.5407C377.383 35.5407 375.573 34.8933 374.151 33.728C371.564 36.1881 368.849 38.7777 366.263 41.2379C362.125 45.1222 357.858 49.1361 353.72 53.0205C358.117 57.6818 362.513 62.3431 366.78 66.7454C371.564 71.7951 376.607 76.9743 381.392 82.1535C382.685 80.5997 383.331 78.787 383.331 76.8448V34.6344C382.167 35.2818 380.745 35.5407 379.323 35.5407Z" fill="white"/>
<path d="M352.556 54.186C352.039 54.704 351.522 55.2219 351.005 55.8693C350.358 56.5167 349.841 57.1641 349.065 57.8115C348.806 58.0704 348.548 58.3294 348.289 58.5883C346.479 60.4011 344.151 62.6022 341.565 62.6022C338.979 62.6022 336.652 60.4011 334.841 58.5883C334.583 58.3294 334.324 58.0704 334.066 57.941C333.419 57.2936 332.773 56.6461 332.126 55.8693C331.609 55.3514 331.092 54.8334 330.574 54.3155C326.178 58.9768 321.782 63.6381 317.514 68.0404C312.73 73.0901 307.687 78.2693 302.903 83.4485C304.325 84.6138 306.135 85.2612 308.075 85.2612H374.926C376.866 85.2612 378.676 84.6138 380.098 83.4485C375.314 78.2693 370.271 73.0901 365.487 68.0404C361.349 63.5086 356.823 58.8473 352.556 54.186ZM345.186 75.8092H354.108C354.496 75.8092 354.884 76.1976 354.884 76.586C354.884 76.9745 354.496 77.3629 354.108 77.3629H345.186C344.798 77.3629 344.41 76.9745 344.41 76.586C344.41 76.0681 344.669 75.8092 345.186 75.8092ZM370.142 80.8589C370.142 81.2473 369.754 81.6357 369.366 81.6357H329.798C329.411 81.6357 329.023 81.2473 329.023 80.8589C329.023 80.4704 329.411 80.082 329.798 80.082H369.366C369.754 80.082 370.142 80.4704 370.142 80.8589Z" fill="white"/>
<path d="M331.35 52.5028L331.479 52.6323L331.609 52.7618C332.255 53.4092 332.773 54.0566 333.419 54.704C334.066 55.3514 334.583 55.9988 335.229 56.6462C335.488 56.9051 335.747 57.1641 336.005 57.2936C337.686 58.8473 339.755 60.919 341.695 60.919C343.634 60.919 345.703 58.9768 347.384 57.2936C347.643 57.0346 347.901 56.7756 348.16 56.5167C348.806 55.8693 349.324 55.2219 349.97 54.5745C350.487 53.9271 351.134 53.2797 351.78 52.6323L351.91 52.5028L352.039 52.3733C356.306 48.23 360.832 44.0866 365.099 39.9433C367.685 37.4832 370.271 35.023 372.857 32.5629C371.306 30.8797 370.401 28.6785 370.401 26.4774C370.401 25.571 370.53 24.6647 370.788 23.7583H308.075C306.135 23.7583 304.325 24.4057 302.903 25.571C307.816 30.3618 312.989 35.1525 317.902 39.8138C322.428 44.0866 326.954 48.3595 331.35 52.5028Z" fill="white"/>
<path d="M329.669 53.1501C325.402 49.1362 321.135 45.1224 316.997 41.1085C312.083 36.4472 306.911 31.6565 301.998 26.8657C300.705 28.4195 299.929 30.2322 299.929 32.3039V76.9744C299.929 78.9166 300.575 80.8588 301.868 82.2831C306.653 77.1039 311.696 71.9247 316.48 66.875C320.876 62.4727 325.273 57.8114 329.669 53.1501Z" fill="white"/>
<path d="M268.637 191.694C268.507 191.953 268.249 192.082 267.99 192.082C267.732 192.082 267.473 191.953 267.344 191.823L259.197 181.465L255.189 186.773L269.025 204.383L283.507 174.732L278.464 171.365L268.637 191.694Z" fill="white"/>
<path d="M236.569 156.863C236.181 156.734 236.052 156.216 236.181 155.828C236.31 155.439 236.827 155.31 237.215 155.439C242.258 157.77 246.525 158.158 249.887 156.346C259.327 151.296 259.327 131.226 259.197 127.083C249.758 129.155 240.06 124.882 236.827 123.199C236.698 129.543 235.664 133.428 233.853 134.852C232.948 135.629 232.172 135.37 232.043 135.37C231.784 135.37 231.655 135.111 231.526 134.852C231.526 134.722 231.397 134.593 231.397 134.593C230.879 133.687 230.103 132.91 229.069 132.521C227.129 131.874 225.061 132.651 224.543 134.334C224.026 136.017 225.19 137.83 227.129 138.477C228.164 138.866 229.198 138.736 230.103 138.348C230.233 138.218 230.491 138.089 230.621 138.089C231.009 138.089 231.397 138.477 231.397 138.866C231.397 138.866 231.397 138.995 231.397 139.125L231.267 140.549C231.138 142.103 230.879 144.563 230.75 147.282L229.716 160.1C229.586 161.007 229.586 161.525 229.586 161.654C229.586 167.222 234.112 171.624 239.672 171.624C245.232 171.624 249.758 167.092 249.758 161.525V158.029C248.465 158.547 246.913 158.806 245.362 158.806C242.517 158.935 239.672 158.288 236.569 156.863ZM256.353 135.111C256.353 135.888 256.094 136.665 255.706 137.183C255.318 137.83 254.801 138.089 254.154 138.089C254.025 138.089 254.025 138.089 253.896 138.089C252.991 137.83 252.344 136.406 252.473 134.852C252.603 133.039 253.508 131.744 254.672 131.874C255.706 131.874 256.482 133.428 256.353 135.111ZM252.344 129.932C252.861 129.025 253.896 128.637 254.93 128.637C255.965 128.766 256.87 129.284 257.387 130.191C257.646 130.579 257.387 131.097 256.999 131.226C256.87 131.226 256.74 131.356 256.611 131.356C256.353 131.356 256.094 131.226 255.965 130.968C255.706 130.579 255.318 130.191 254.801 130.191C254.284 130.191 253.896 130.45 253.637 130.838C253.379 131.226 252.861 131.226 252.603 131.097C252.085 130.709 252.085 130.32 252.344 129.932ZM242.646 133.946C242.646 134.722 242.388 135.499 242 136.017C241.612 136.665 240.965 137.053 240.448 136.924C240.319 136.924 240.319 136.924 240.189 136.924C239.284 136.665 238.638 135.24 238.767 133.687C238.896 131.874 239.801 130.579 240.965 130.709C242 130.709 242.775 132.133 242.646 133.946ZM249.111 150.001C248.594 150.778 247.689 151.296 246.655 151.296H246.525C245.491 151.296 244.586 150.648 244.068 149.742C243.81 149.354 244.068 148.836 244.327 148.706C244.715 148.447 245.232 148.706 245.362 148.965C245.62 149.354 246.008 149.742 246.525 149.742C247.043 149.742 247.43 149.483 247.689 149.095C247.948 148.706 248.465 148.706 248.723 148.836C249.241 149.224 249.241 149.613 249.111 150.001ZM244.327 143.009L247.56 144.045L247.818 136.017C247.818 135.629 248.206 135.24 248.594 135.24C248.982 135.24 249.37 135.629 249.37 136.017L249.111 145.081C249.111 145.34 248.982 145.599 248.723 145.728C248.594 145.858 248.465 145.858 248.336 145.858C248.206 145.858 248.206 145.858 248.077 145.858L243.939 144.563C243.551 144.433 243.293 144.045 243.422 143.527C243.422 143.009 243.939 142.88 244.327 143.009ZM238.638 128.766C239.284 127.86 240.189 127.472 241.224 127.472C242.258 127.601 243.163 128.119 243.681 129.025C243.939 129.414 243.681 129.932 243.293 130.061C243.163 130.061 243.034 130.191 242.905 130.191C242.646 130.191 242.388 130.061 242.258 129.802C242 129.414 241.612 129.025 241.094 129.025C240.577 129.025 240.189 129.284 239.931 129.673C239.672 130.061 239.155 130.061 238.896 129.802C238.379 129.543 238.379 129.025 238.638 128.766Z" fill="#FDC8B4"/>
<path d="M375.055 286.991C372.34 279.092 365.228 273.654 356.953 273.007C356.694 273.007 356.435 272.748 356.306 272.489L341.436 228.854C341.307 228.466 341.565 227.948 341.953 227.818L348.677 225.488L346.35 218.755L339.626 221.086C339.367 221.215 339.238 221.086 338.979 221.086C338.85 220.956 338.591 220.827 338.591 220.697L335.746 212.281C335.617 211.892 335.876 211.375 336.264 211.245L342.988 208.914L339.496 198.686L332.772 201.016H332.643L319.842 205.419V213.317L341.694 277.409C341.824 277.668 341.695 278.057 341.436 278.186C335.229 283.754 333.031 292.429 335.617 300.327C338.462 308.484 345.832 314.052 354.496 314.44C355.013 314.44 355.53 314.44 356.177 314.44C358.116 314.311 360.185 313.923 361.996 313.275C372.857 309.65 378.676 297.867 375.055 286.991ZM342.858 266.403C342.729 266.403 342.729 266.403 342.6 266.403C342.341 266.403 341.953 266.145 341.824 265.886L328.893 227.948C328.764 227.56 329.023 227.042 329.41 226.912C329.798 226.783 330.316 227.042 330.445 227.43L343.375 265.368C343.505 265.886 343.246 266.274 342.858 266.403ZM366.263 290.228C358.116 292.947 359.28 301.881 359.539 303.564C359.539 303.694 359.668 303.823 359.668 303.953C359.668 304.082 359.668 304.212 359.539 304.212C359.409 304.471 359.151 304.729 358.763 304.729C358.504 304.729 358.246 304.6 358.116 304.341C357.987 304.082 354.496 297.09 348.03 297.09C346.867 297.09 345.832 297.349 344.669 297.738C344.281 297.867 343.763 297.608 343.634 297.22C343.505 296.831 343.763 296.313 344.151 296.184C352.944 293.206 350.875 282.977 350.746 282.588C350.617 282.2 350.875 281.812 351.263 281.682C351.651 281.553 352.039 281.682 352.168 282.071C352.168 282.2 355.66 289.321 362.254 289.321C363.418 289.321 364.452 289.062 365.616 288.674C366.004 288.544 366.521 288.803 366.651 289.192C366.909 289.71 366.651 290.098 366.263 290.228ZM371.047 300.716C370.918 300.975 370.659 301.234 370.4 301.234C370.271 301.234 370.142 301.234 370.142 301.104C369.754 300.975 369.625 300.457 369.754 300.068C371.306 296.443 371.435 292.558 370.271 288.803C369.366 286.214 367.814 283.883 365.745 282.071C365.487 281.812 365.357 281.294 365.616 281.035C365.875 280.776 366.392 280.646 366.651 280.905C368.978 282.847 370.659 285.437 371.564 288.286C372.987 292.429 372.728 296.831 371.047 300.716Z" fill="#FBC22D"/>
<path d="M251.051 160.877V161.784C251.051 168.258 245.879 173.437 239.414 173.437C233.078 173.437 227.776 168.258 227.776 161.784C227.776 161.784 227.776 161.395 227.776 160.877C224.543 160.618 209.544 159.841 203.725 171.236C212.777 183.148 226.612 189.881 241.482 189.881C242.388 189.881 243.163 189.881 243.939 189.751C243.81 188.974 243.81 188.068 243.81 187.291C243.81 174.991 252.732 164.632 264.499 162.431C258.939 160.359 252.991 160.618 251.051 160.877Z" fill="#FBC22D"/>
<path d="M186.786 294.501V232.609C186.786 224.064 181.355 216.554 173.338 213.705C171.269 212.928 169.071 212.669 166.873 212.669H102.22C99.8922 212.669 97.5647 213.058 95.3665 213.835C87.4789 216.683 82.3066 224.193 82.3066 232.609V294.501C82.3066 305.506 91.2287 314.441 102.22 314.441H166.873C177.864 314.441 186.786 305.506 186.786 294.501ZM180.838 259.541C180.838 259.153 181.226 258.764 181.614 258.764C182.002 258.764 182.389 259.153 182.389 259.541V297.09C182.389 297.479 182.002 297.867 181.614 297.867C181.226 297.867 180.838 297.479 180.838 297.09V259.541ZM175.148 277.798C175.148 277.409 175.536 277.021 175.924 277.021C176.312 277.021 176.7 277.409 176.7 277.798V286.991C176.7 287.379 176.312 287.768 175.924 287.768C175.536 287.768 175.148 287.379 175.148 286.991V277.798ZM88.7719 279.352C88.7719 279.74 88.384 280.128 87.9961 280.128C87.6082 280.128 87.2203 279.74 87.2203 279.352V248.147C87.2203 247.758 87.6082 247.37 87.9961 247.37C88.384 247.37 88.7719 247.758 88.7719 248.147V279.352ZM94.8493 269.511C94.8493 269.899 94.4614 270.288 94.0735 270.288C93.6856 270.288 93.2976 269.899 93.2976 269.511V258.117C93.2976 257.728 93.6856 257.34 94.0735 257.34C94.4614 257.34 94.8493 257.728 94.8493 258.117V269.511ZM146.96 283.754H122.391C122.133 283.754 121.874 283.624 121.745 283.495C121.616 283.365 121.486 283.106 121.616 282.847L126.788 263.555C125.495 261.872 124.719 259.671 124.719 257.469C124.719 251.902 129.245 247.499 134.676 247.499C140.236 247.499 144.632 252.031 144.632 257.469C144.632 259.671 143.856 261.742 142.563 263.555L147.606 282.588C147.606 282.718 147.735 282.847 147.735 282.977C147.735 283.365 147.348 283.754 146.96 283.754Z" fill="#8B6FE2"/>
<path d="M102.22 211.116H107.263V192.988C107.263 178.228 119.159 166.316 133.9 166.316H135.193C149.934 166.316 161.83 178.228 161.83 192.988V211.116H166.873C169.071 211.116 171.14 211.504 173.209 212.151C173.209 212.022 173.209 212.022 173.209 211.892V193.118C173.209 183.925 169.847 174.991 163.769 167.999C156.528 159.712 146.184 155.051 135.193 155.051H133.9C112.952 155.051 95.8838 172.142 95.8838 193.118V211.892C95.8838 212.022 95.8838 212.022 95.8838 212.151C97.9527 211.504 100.151 211.116 102.22 211.116Z" fill="#8B6FE2"/>
<path d="M467.509 314.44H363.418H356.177C355.66 314.44 355.013 314.44 354.496 314.44H347.125H306.265H94.4616H1.49068C1.10276 314.44 0.714844 314.829 0.714844 315.217C0.714844 315.606 1.10276 315.994 1.49068 315.994H354.496H356.306H467.638C468.026 315.994 468.414 315.606 468.414 315.217C468.285 314.829 468.026 314.44 467.509 314.44Z" fill="black"/>
<path d="M254.672 131.874C253.637 131.744 252.603 133.039 252.474 134.852C252.344 136.405 252.862 137.83 253.896 138.089C254.025 138.089 254.025 138.089 254.155 138.089C254.801 138.089 255.318 137.83 255.706 137.182C256.094 136.664 256.353 135.888 256.353 135.111C256.482 133.427 255.706 131.874 254.672 131.874Z" fill="#321951"/>
<path d="M240.965 130.579C239.802 130.45 238.896 131.745 238.767 133.557C238.638 135.111 239.155 136.535 240.189 136.794C240.319 136.794 240.319 136.794 240.448 136.794C240.965 136.794 241.612 136.535 242 135.888C242.388 135.37 242.646 134.593 242.646 133.816C242.776 132.133 242 130.709 240.965 130.579Z" fill="#321951"/>
<path d="M241.741 85.2612C210.449 85.2612 184.847 110.769 184.847 142.232C184.847 173.566 210.32 199.203 241.741 199.203C243.422 199.203 245.233 199.074 246.914 198.944C251.31 207.49 259.844 212.799 269.413 212.799C283.378 212.799 294.757 201.405 294.757 187.421C294.757 181.983 293.076 176.933 289.972 172.531C295.662 163.467 298.636 152.979 298.636 142.232C298.507 110.769 273.033 85.2612 241.741 85.2612ZM293.076 187.291C293.076 200.369 282.473 211.116 269.283 211.116C260.103 211.116 251.956 205.936 247.948 197.65C246.784 195.319 246.138 192.859 245.75 190.399C245.62 189.363 245.491 188.327 245.491 187.291C245.491 174.861 255.189 164.373 267.602 163.596C268.12 163.596 268.766 163.596 269.283 163.596C274.068 163.596 278.723 165.021 282.731 167.74C284.8 169.164 286.61 170.977 288.162 172.919C291.524 177.062 293.076 182.112 293.076 187.291ZM244.198 189.881C243.422 189.881 242.517 190.01 241.741 190.01C226.871 190.01 213.035 183.277 203.984 171.365C209.803 159.971 224.802 160.618 228.035 161.007C228.035 161.525 228.035 161.784 228.035 161.913C228.035 168.258 233.207 173.566 239.672 173.566C246.008 173.566 251.31 168.387 251.31 161.913V161.007C253.25 160.877 259.198 160.489 264.887 162.561C253.12 164.762 244.198 175.25 244.198 187.421C244.069 188.198 244.069 188.975 244.198 189.881ZM236.569 156.864C239.672 158.288 242.517 159.065 245.103 159.065C246.655 159.065 248.077 158.806 249.5 158.288V161.784C249.5 167.351 244.974 171.883 239.414 171.883C233.854 171.883 229.328 167.351 229.328 161.913C229.328 161.784 229.328 161.266 229.457 160.359L230.492 147.541C230.75 144.822 230.88 142.362 231.009 140.808L231.138 139.384C231.138 139.254 231.138 139.125 231.138 139.125C231.138 138.736 230.75 138.348 230.362 138.348C230.104 138.348 229.974 138.477 229.845 138.607C228.94 138.995 227.906 138.995 226.871 138.736C224.932 138.089 223.768 136.147 224.285 134.593C224.802 132.91 226.871 132.133 228.811 132.78C229.845 133.169 230.75 133.816 231.138 134.852C231.138 134.981 231.267 134.981 231.267 135.111C231.397 135.37 231.526 135.499 231.785 135.629C231.914 135.629 232.69 135.758 233.595 135.111C235.405 133.687 236.44 129.673 236.569 123.458C239.802 125.141 249.5 129.414 258.939 127.342C259.068 131.486 259.068 151.684 249.629 156.605C246.267 158.417 242 158.029 236.957 155.698C236.569 155.569 236.052 155.698 235.923 156.087C236.052 156.216 236.181 156.605 236.569 156.864ZM260.879 126.565C263.982 125.659 266.697 124.105 269.154 121.775C269.413 121.516 269.413 121.127 269.283 120.868C269.154 120.609 268.766 120.35 268.378 120.48C268.378 120.48 266.697 120.868 264.499 119.832C266.568 118.538 270.189 115.171 269.283 107.661C269.283 107.402 269.154 107.143 268.896 107.014C268.637 106.884 268.378 106.884 268.12 107.014C267.99 107.014 260.62 110.769 251.698 104.813C248.724 102.741 245.879 102.094 243.034 102.741C239.543 103.647 237.216 106.496 236.44 107.791C234.759 107.014 230.362 105.201 225.19 106.755C219.63 108.438 214.975 113.358 211.354 121.386C211.225 121.645 211.354 122.033 211.484 122.292C211.742 122.551 212.13 122.551 212.389 122.422C212.389 122.422 213.294 122.033 215.234 122.551C214.458 124.623 212.777 130.191 215.104 136.017C217.173 141.196 221.828 145.21 229.069 147.929C229.069 147.929 229.069 147.929 229.199 147.929L228.293 159.194C224.802 158.935 209.544 158.158 203.079 169.812C197.26 161.654 194.286 152.202 194.286 142.103C194.286 115.818 215.621 94.3248 241.871 94.3248C268.12 94.3248 289.584 115.689 289.584 142.103C289.584 150.519 287.386 158.676 283.248 165.927C279.111 163.338 274.456 161.913 269.671 161.913C269.154 161.913 268.637 161.913 268.12 161.913C261.396 158.547 253.896 158.935 251.439 159.194V157.381C261.266 151.425 261.008 130.061 260.879 126.565ZM288.809 171.106C287.516 169.553 285.964 167.999 284.283 166.833C288.55 159.324 290.878 150.778 290.878 142.103C290.878 114.912 268.766 92.7711 241.612 92.7711C214.458 92.7711 192.476 114.912 192.476 142.103C192.476 152.85 195.838 163.079 202.432 171.754C211.872 184.184 226.225 191.435 241.741 191.435C242.646 191.435 243.552 191.435 244.457 191.305C244.715 193.377 245.362 195.449 246.138 197.261C244.715 197.391 243.164 197.391 241.741 197.391C211.225 197.391 186.398 172.531 186.398 141.973C186.398 111.416 211.225 86.556 241.741 86.556C272.257 86.556 297.084 111.416 297.084 141.973C296.955 152.461 294.11 162.431 288.809 171.106Z" fill="#321951"/>
<path d="M285.059 173.825L278.723 169.552C278.593 169.423 278.335 169.423 278.076 169.423C277.817 169.423 277.688 169.682 277.559 169.811L267.861 189.751L259.844 179.652C259.715 179.522 259.456 179.393 259.197 179.393C258.939 179.393 258.68 179.522 258.551 179.652L253.508 186.255C253.249 186.514 253.249 186.903 253.508 187.162L268.507 206.325C268.637 206.454 268.895 206.584 269.154 206.584C269.154 206.584 269.154 206.584 269.283 206.584C269.542 206.584 269.8 206.454 269.93 206.195L285.317 174.861C285.447 174.473 285.317 174.084 285.059 173.825ZM269.025 204.382L255.189 186.773L259.197 181.464L267.344 191.823C267.473 192.082 267.732 192.082 267.99 192.082C268.249 192.082 268.507 191.952 268.637 191.693L278.593 171.495L283.636 174.861L269.025 204.382Z" fill="#321951"/>
<path d="M239.931 129.543C240.19 129.155 240.707 128.896 241.095 128.896C241.612 128.896 242 129.155 242.259 129.673C242.388 129.932 242.647 130.061 242.905 130.061C243.034 130.061 243.164 130.061 243.293 129.932C243.681 129.673 243.81 129.284 243.681 128.896C243.164 127.99 242.259 127.342 241.224 127.342C240.319 127.342 239.285 127.731 238.638 128.637C238.379 129.026 238.509 129.414 238.767 129.673C239.155 130.061 239.672 129.932 239.931 129.543Z" fill="#321951"/>
<path d="M247.819 149.094C247.56 149.483 247.172 149.742 246.655 149.742C246.138 149.742 245.75 149.483 245.491 148.965C245.232 148.577 244.845 148.447 244.457 148.706C244.069 148.965 243.939 149.353 244.198 149.742C244.715 150.648 245.62 151.296 246.655 151.296H246.784C247.689 151.296 248.594 150.778 249.241 150.001C249.5 149.612 249.37 149.224 248.982 148.965C248.465 148.706 247.948 148.835 247.819 149.094Z" fill="#321951"/>
<path d="M253.637 130.838C253.896 130.449 254.413 130.19 254.801 130.19C255.318 130.19 255.706 130.449 255.965 130.967C256.094 131.226 256.353 131.356 256.611 131.356C256.74 131.356 256.87 131.356 256.999 131.226C257.387 130.967 257.516 130.579 257.387 130.19C256.87 129.284 255.965 128.637 254.93 128.637C253.896 128.637 252.991 129.025 252.344 129.932C252.085 130.32 252.215 130.708 252.603 130.967C252.861 131.226 253.378 131.097 253.637 130.838Z" fill="#321951"/>
<path d="M243.293 143.527C243.164 143.915 243.422 144.433 243.81 144.563L247.948 145.858C248.077 145.858 248.077 145.858 248.207 145.858C248.336 145.858 248.465 145.858 248.594 145.728C248.853 145.599 248.853 145.34 248.982 145.081L249.241 136.017C249.241 135.629 248.982 135.24 248.465 135.24C248.077 135.24 247.689 135.629 247.689 136.017L247.431 144.045L244.198 143.009C243.939 142.88 243.422 143.009 243.293 143.527Z" fill="#321951"/>
<path d="M379.323 17.8022C376.09 17.8022 373.116 19.6149 371.564 22.334H319.842V21.5571C319.842 9.64498 310.273 0.0634766 298.377 0.0634766H184.976C173.08 0.0634766 163.511 9.64498 163.511 21.5571V165.28C156.011 157.64 145.796 153.238 135.193 153.238H133.9C112.047 153.238 94.3324 170.977 94.3324 192.859V211.633C94.3324 211.892 94.4617 212.151 94.591 212.281C86.3154 215.388 80.626 223.546 80.626 232.35V294.242C80.626 303.305 86.3154 311.074 94.2031 314.181H306.265C314.152 311.074 319.842 303.305 319.842 294.242V217.848L340.014 277.15C333.678 283.106 331.35 292.299 334.195 300.586C336.393 306.931 341.177 311.851 347.125 314.181H354.496C345.832 313.793 338.462 308.355 335.617 300.068C332.902 292.17 335.229 283.495 341.436 277.927C341.695 277.668 341.695 277.409 341.695 277.15L319.842 213.058V205.159L332.643 200.757H332.772L339.496 198.426L342.988 208.655L336.264 210.986C335.876 211.116 335.617 211.504 335.747 212.022L338.591 220.438C338.721 220.697 338.85 220.826 338.979 220.826C339.108 220.956 339.367 220.956 339.626 220.826L346.35 218.496L348.677 225.229L341.953 227.559C341.565 227.689 341.307 228.077 341.436 228.595L356.306 272.23C356.435 272.489 356.694 272.748 356.953 272.748C365.228 273.395 372.34 278.963 375.056 286.732C378.676 297.608 372.857 309.391 362.125 313.146C360.185 313.793 358.246 314.181 356.306 314.311H363.547C374.538 310.038 380.486 297.608 376.607 286.343C373.762 278.057 366.392 272.23 357.729 271.324L343.246 228.854L349.97 226.524C350.229 226.394 350.358 226.265 350.358 226.135C350.487 226.006 350.487 225.747 350.358 225.488L347.513 217.331C347.384 217.072 347.255 216.942 347.125 216.942C346.996 216.813 346.738 216.813 346.479 216.942L339.755 219.273L337.427 212.41L344.151 210.08C344.539 209.95 344.798 209.562 344.669 209.044L340.66 197.391C340.531 197.002 340.143 196.743 339.626 196.873L332.255 199.333H332.126L319.713 203.606V86.8149H374.926C377.512 86.8149 379.84 85.7791 381.779 84.0959C383.719 82.2831 384.753 79.6935 384.753 76.9745V33.5987C386.822 31.9155 387.986 29.4554 387.986 26.7363C388.245 21.8161 384.236 17.8022 379.323 17.8022ZM370.918 24.0172C370.659 24.9236 370.53 25.83 370.53 26.7363C370.53 29.0669 371.435 31.1386 372.987 32.8219C370.401 35.282 367.814 37.7421 365.228 40.2022C360.961 44.2161 356.435 48.3594 352.168 52.6323L352.039 52.7617L351.91 52.8912C351.263 53.5386 350.617 54.186 350.099 54.8334C349.453 55.4808 348.936 56.1282 348.289 56.7756C348.031 57.0346 347.772 57.2935 347.513 57.5525C345.832 59.1063 343.763 61.1779 341.824 61.1779C339.884 61.1779 337.815 59.1063 336.134 57.5525C335.876 57.2935 335.617 57.0346 335.359 56.9051C334.712 56.2577 334.066 55.6103 333.548 54.9629C332.902 54.3155 332.385 53.6681 331.738 53.0207L331.609 52.8912C331.609 52.7617 331.479 52.7617 331.479 52.7617C327.083 48.4889 322.557 44.3456 318.161 40.2022C313.247 35.5409 308.204 30.7502 303.161 25.9594C304.584 24.7941 306.394 24.1467 308.334 24.1467H370.918V24.0172ZM329.669 53.1502C325.273 57.8115 320.876 62.4727 316.609 66.875C311.825 71.9248 306.782 77.1039 301.998 82.2831C300.705 80.7294 300.058 78.9167 300.058 76.9745V32.3039C300.058 30.3617 300.705 28.4195 302.127 26.8658C307.041 31.6565 312.213 36.4473 317.126 41.1086C321.135 45.1224 325.402 49.1363 329.669 53.1502ZM95.8841 211.892V193.118C95.8841 172.142 112.952 155.051 133.9 155.051H135.193C146.055 155.051 156.399 159.712 163.77 167.999C169.847 174.991 173.209 183.925 173.209 193.118V211.892C173.209 212.022 173.209 212.022 173.209 212.151C171.14 211.504 169.071 211.116 166.873 211.116H161.83V192.988C161.83 178.228 149.934 166.316 135.193 166.316H133.9C119.159 166.316 107.263 178.228 107.263 192.988V211.116H102.22C100.022 211.116 97.953 211.504 95.8841 212.151C95.8841 212.022 95.8841 212.022 95.8841 211.892ZM160.278 193.118V211.245H108.815V193.118C108.815 179.264 120.064 167.999 133.9 167.999H135.193C149.029 167.999 160.278 179.264 160.278 193.118ZM102.22 314.44C91.2291 314.44 82.307 305.506 82.307 294.5V232.609C82.307 224.322 87.6085 216.813 95.3669 213.835C97.5651 213.058 99.8926 212.669 102.22 212.669H166.873C169.071 212.669 171.269 213.058 173.338 213.705C181.355 216.554 186.786 224.064 186.786 232.609V294.5C186.786 305.506 177.864 314.44 166.873 314.44H102.22ZM318.29 204.642C318.29 204.771 318.29 205.03 318.29 205.159V294.5C318.29 305.506 309.368 314.44 298.377 314.44H174.89C182.778 311.333 188.467 303.564 188.467 294.5V232.609C188.467 223.675 182.907 215.647 174.502 212.54C174.631 212.41 174.89 212.151 174.89 211.892V193.118C174.89 183.536 171.399 174.473 165.192 167.222V21.6866C165.192 10.6808 174.114 1.74671 185.105 1.74671H197.519C199.07 1.74671 200.234 2.91203 200.234 4.46579V7.31434C200.234 11.5872 203.725 14.9537 207.863 14.9537H275.619C279.886 14.9537 283.248 11.4577 283.248 7.31434V4.46579C283.248 2.91203 284.412 1.74671 285.964 1.74671H298.377C309.368 1.74671 318.29 10.6808 318.29 21.6866V22.4635H308.204C305.618 22.4635 303.161 23.4993 301.351 25.312C299.412 27.1248 298.377 29.7143 298.377 32.3039V76.9745C298.377 79.6935 299.412 82.1537 301.351 83.9664C303.161 85.7791 305.618 86.8149 308.204 86.8149H318.29V204.642ZM375.056 85.2612H308.204C306.265 85.2612 304.454 84.6138 303.032 83.4485C307.816 78.2693 312.859 73.0901 317.644 68.0404C321.911 63.5086 326.436 58.9768 330.704 54.3155C331.221 54.8334 331.738 55.3513 332.255 55.8693C332.902 56.5167 333.548 57.2935 334.195 57.9409C334.453 58.1999 334.712 58.3294 334.971 58.5883C336.781 60.4011 339.108 62.6022 341.695 62.6022C344.281 62.6022 346.608 60.4011 348.418 58.5883C348.677 58.3294 348.936 58.0704 349.194 57.8115C349.841 57.1641 350.487 56.5167 351.134 55.8693C351.651 55.3513 352.168 54.7039 352.686 54.186C357.082 58.8473 361.478 63.5086 365.745 67.9109C370.53 72.9606 375.573 78.1398 380.357 83.319C378.805 84.6138 376.995 85.2612 375.056 85.2612ZM383.331 76.9745C383.331 78.9167 382.685 80.8589 381.392 82.2831C376.607 77.1039 371.564 71.9248 366.78 66.875C362.513 62.3432 357.987 57.682 353.72 53.1502C357.858 49.1363 362.125 45.1224 366.263 41.3675C368.849 38.9074 371.564 36.4473 374.15 33.8577C375.702 35.023 377.512 35.6704 379.323 35.6704C380.745 35.6704 382.167 35.282 383.331 34.6346V76.9745ZM383.719 32.5629C381.133 34.5051 377.124 34.3756 374.538 32.1745C372.987 30.7502 372.081 28.808 372.081 26.6068C372.081 25.4415 372.34 24.4057 372.857 23.4993C374.021 21.0392 376.607 19.356 379.452 19.356C383.46 19.356 386.822 22.593 386.822 26.6068C386.693 29.0669 385.529 31.2681 383.719 32.5629Z" fill="#321951"/>
<path d="M142.563 263.555C143.856 261.872 144.632 259.671 144.632 257.469C144.632 251.902 140.106 247.5 134.676 247.5C129.115 247.5 124.719 252.031 124.719 257.469C124.719 259.671 125.495 261.742 126.788 263.555L121.616 282.847C121.616 283.106 121.616 283.365 121.745 283.495C121.874 283.624 122.133 283.754 122.392 283.754H146.96C147.348 283.754 147.736 283.365 147.736 282.977C147.736 282.848 147.736 282.718 147.606 282.589L142.563 263.555Z" fill="#321951"/>
<path d="M344.151 296.184C343.764 296.313 343.505 296.702 343.634 297.219C343.764 297.608 344.151 297.867 344.669 297.737C345.832 297.349 346.996 297.09 348.031 297.09C354.496 297.09 357.987 304.082 358.117 304.341C358.246 304.6 358.504 304.729 358.763 304.729C359.022 304.729 359.41 304.47 359.539 304.211C359.539 304.082 359.668 303.952 359.668 303.952C359.668 303.823 359.668 303.693 359.539 303.564C359.28 301.881 358.116 292.947 366.133 290.228C366.521 290.098 366.78 289.71 366.651 289.192C366.521 288.803 366.133 288.544 365.616 288.674C364.452 289.062 363.289 289.321 362.254 289.321C355.66 289.321 352.168 282.07 352.168 282.07C352.039 281.682 351.651 281.552 351.263 281.682C350.875 281.811 350.617 282.2 350.746 282.588C350.875 282.977 352.944 293.206 344.151 296.184ZM352.556 285.566C354.367 287.897 357.341 290.745 361.866 291.004C358.504 293.853 357.858 297.996 357.858 300.974C356.048 298.644 352.944 295.795 348.548 295.536C351.91 292.688 352.556 288.415 352.556 285.566Z" fill="#321951"/>
<path d="M370.013 301.104C370.142 301.104 370.271 301.233 370.271 301.233C370.53 301.233 370.918 301.104 370.918 300.715C372.599 296.831 372.857 292.429 371.435 288.415C370.53 285.566 368.72 282.977 366.521 281.034C366.133 280.776 365.745 280.776 365.487 281.164C365.228 281.423 365.228 281.941 365.616 282.2C367.685 284.013 369.237 286.343 370.142 288.933C371.435 292.558 371.176 296.572 369.625 300.197C369.495 300.586 369.625 300.974 370.013 301.104Z" fill="#321951"/>
<path d="M329.411 227.041C329.023 227.171 328.764 227.559 328.894 228.077L341.824 266.015C341.953 266.274 342.212 266.533 342.6 266.533C342.729 266.533 342.729 266.533 342.859 266.533C343.246 266.403 343.505 266.015 343.376 265.497L330.445 227.559C330.316 227.041 329.928 226.912 329.411 227.041Z" fill="#321951"/>
<path d="M280.662 304.47H209.156C208.768 304.47 208.38 304.859 208.38 305.247C208.38 305.636 208.768 306.024 209.156 306.024H280.662C281.05 306.024 281.438 305.636 281.438 305.247C281.438 304.859 281.18 304.47 280.662 304.47Z" fill="#321951"/>
<path d="M230.75 299.55C231.138 299.55 231.526 299.162 231.526 298.773C231.526 298.385 231.138 297.997 230.75 297.997H218.725C218.337 297.997 217.949 298.385 217.949 298.773C217.949 299.162 218.337 299.55 218.725 299.55H230.75Z" fill="#321951"/>
<path d="M259.973 299.55C260.361 299.55 260.749 299.162 260.749 298.773C260.749 298.385 260.361 297.997 259.973 297.997H240.965C240.577 297.997 240.189 298.385 240.189 298.773C240.189 299.162 240.577 299.55 240.965 299.55H259.973Z" fill="#321951"/>
<path d="M212.001 27.5132H280.792C281.18 27.5132 281.567 27.1248 281.567 26.7364C281.567 26.3479 281.18 25.9595 280.792 25.9595H212.001C211.613 25.9595 211.225 26.3479 211.225 26.7364C211.225 27.1248 211.484 27.5132 212.001 27.5132Z" fill="#321951"/>
<path d="M329.022 80.8589C329.022 81.2473 329.41 81.6358 329.798 81.6358H369.366C369.754 81.6358 370.142 81.2473 370.142 80.8589C370.142 80.4705 369.754 80.082 369.366 80.082H329.798C329.41 80.082 329.022 80.4705 329.022 80.8589Z" fill="#321951"/>
<path d="M345.186 77.3628H354.108C354.496 77.3628 354.884 76.9744 354.884 76.586C354.884 76.1975 354.496 75.8091 354.108 75.8091H345.186C344.798 75.8091 344.41 76.1975 344.41 76.586C344.41 76.9744 344.669 77.3628 345.186 77.3628Z" fill="#321951"/>
<path d="M237.474 32.1743C237.086 32.1743 236.698 32.5628 236.698 32.9512C236.698 33.3396 237.086 33.7281 237.474 33.7281H255.318C255.706 33.7281 256.094 33.3396 256.094 32.9512C256.094 32.5628 255.706 32.1743 255.318 32.1743H237.474Z" fill="#321951"/>
<path d="M87.9965 247.37C87.6086 247.37 87.2207 247.758 87.2207 248.147V279.351C87.2207 279.74 87.6086 280.128 87.9965 280.128C88.3845 280.128 88.7724 279.74 88.7724 279.351V248.147C88.7724 247.758 88.5138 247.37 87.9965 247.37Z" fill="#321951"/>
<path d="M181.614 297.867C182.002 297.867 182.39 297.479 182.39 297.09V259.541C182.39 259.153 182.002 258.764 181.614 258.764C181.226 258.764 180.838 259.153 180.838 259.541V297.09C180.838 297.479 181.097 297.867 181.614 297.867Z" fill="#321951"/>
<path d="M94.0737 257.34C93.6858 257.34 93.2979 257.728 93.2979 258.117V269.511C93.2979 269.899 93.6858 270.288 94.0737 270.288C94.4616 270.288 94.8495 269.899 94.8495 269.511V258.117C94.8495 257.599 94.4616 257.34 94.0737 257.34Z" fill="#321951"/>
<path d="M175.924 277.021C175.536 277.021 175.148 277.409 175.148 277.797V286.99C175.148 287.379 175.536 287.767 175.924 287.767C176.312 287.767 176.7 287.379 176.7 286.99V277.797C176.7 277.409 176.441 277.021 175.924 277.021Z" fill="#321951"/>
</svg>
