<svg width="504" height="340" viewBox="0 0 504 340" fill="none" xmlns="http://www.w3.org/2000/svg">
<g clip-path="url(#clip0_2051_111550)">
<path d="M502.734 336.797H408.79C405.731 337.972 402.481 338.571 399.205 338.564H315.068C313.922 338.741 312.764 338.834 311.604 338.842H180.349C173.323 338.842 158.466 339.301 158.313 339.301H502.734C503.066 339.301 503.385 339.17 503.619 338.935C503.854 338.7 503.986 338.381 503.986 338.049C503.986 337.717 503.854 337.399 503.619 337.164C503.385 336.929 503.066 336.797 502.734 336.797Z" fill="black"/>
<path d="M156.977 338.049C156.504 338.049 156.045 338.049 155.586 338.049H155.461C153.342 338.024 151.246 337.599 149.284 336.797H1.25204C0.919976 336.797 0.601515 336.929 0.366713 337.164C0.131911 337.399 0 337.717 0 338.049C0 338.381 0.131911 338.7 0.366713 338.935C0.601515 339.17 0.919976 339.301 1.25204 339.301H158.229C157.903 339.303 157.59 339.178 157.353 338.954C157.232 338.837 157.136 338.696 157.071 338.541C157.006 338.385 156.974 338.218 156.977 338.049Z" fill="black"/>
<path d="M167.314 310.533C168.837 312.028 170.043 313.815 170.86 315.787C171.677 317.759 172.089 319.875 172.072 322.01C172.021 325.155 171.056 328.217 169.295 330.823C167.533 333.429 165.052 335.466 162.153 336.686C167.105 336.547 175.494 336.338 180.238 336.338H303.883C299.463 334.615 295.672 331.585 293.016 327.654C290.36 323.723 288.963 319.076 289.013 314.332C289.063 309.587 290.557 304.971 293.295 301.096C296.033 297.222 299.887 294.273 304.342 292.642C303.797 290.152 303.522 287.61 303.521 285.061C303.53 276.855 306.425 268.914 311.7 262.629C316.976 256.344 324.294 252.116 332.374 250.685V22.1191C332.374 11.296 323.025 2.50391 311.507 2.50391H180.349C168.872 2.50391 159.482 11.296 159.482 22.1191V220.97C185.669 222.196 210.402 233.366 228.636 252.202C229.485 253.073 230.152 254.105 230.596 255.237C231.04 256.37 231.252 257.58 231.221 258.796C231.19 260.013 230.916 261.21 230.414 262.319C229.913 263.427 229.195 264.424 228.302 265.251C226.535 266.886 224.213 267.791 221.805 267.782C220.551 267.776 219.311 267.519 218.157 267.026C217.003 266.534 215.959 265.817 215.086 264.917C200.411 249.736 180.561 240.632 159.482 239.417V248.932C178.067 250.14 195.536 258.229 208.478 271.622C209.321 272.49 209.982 273.517 210.423 274.644C210.865 275.77 211.077 276.973 211.049 278.183C211.02 279.392 210.751 280.584 210.257 281.688C209.763 282.793 209.055 283.788 208.172 284.615C206.414 286.248 204.102 287.153 201.703 287.147H201.634C200.381 287.139 199.142 286.883 197.989 286.393C196.835 285.904 195.791 285.191 194.914 284.295C185.516 274.594 172.937 268.603 159.482 267.421V276.867C170.475 278.036 180.705 283.04 188.376 291.001C189.228 291.87 189.896 292.901 190.341 294.033C190.786 295.166 190.998 296.376 190.966 297.592C190.933 298.808 190.656 300.005 190.152 301.112C189.647 302.219 188.925 303.214 188.028 304.036C186.28 305.664 183.976 306.564 181.587 306.554H181.504C180.246 306.554 179.002 306.301 177.844 305.808C176.687 305.316 175.642 304.595 174.77 303.688C170.65 299.432 165.297 296.576 159.468 295.522V306.206C162.434 306.893 165.15 308.391 167.314 310.533ZM255.471 10.2804C256.415 10.2804 257.337 10.5603 258.122 11.0846C258.907 11.6089 259.518 12.3542 259.88 13.2261C260.241 14.098 260.335 15.0574 260.151 15.983C259.967 16.9086 259.512 17.7588 258.845 18.4262C258.178 19.0935 257.328 19.5479 256.402 19.732C255.476 19.9162 254.517 19.8217 253.645 19.4605C252.773 19.0994 252.028 18.4878 251.504 17.7031C250.979 16.9184 250.699 15.9958 250.699 15.0521C250.703 13.7877 251.207 12.5761 252.101 11.6821C252.995 10.788 254.207 10.2841 255.471 10.2804ZM237.595 9.05623C238.781 9.05623 239.94 9.40788 240.926 10.0667C241.912 10.7255 242.68 11.662 243.134 12.7576C243.588 13.8532 243.707 15.0587 243.475 16.2218C243.244 17.3849 242.673 18.4533 241.835 19.2918C240.996 20.1303 239.928 20.7014 238.765 20.9327C237.601 21.1641 236.396 21.0454 235.3 20.5915C234.205 20.1377 233.268 19.3692 232.609 18.3832C231.951 17.3972 231.599 16.238 231.599 15.0521C231.601 14.2629 231.758 13.4817 232.062 12.7533C232.365 12.0249 232.81 11.3634 233.369 10.8066C233.928 10.2498 234.592 9.8087 235.322 9.50837C236.052 9.20803 236.833 9.0544 237.623 9.05623H237.595ZM201.731 27.5307H279.635C279.967 27.5307 280.286 27.6626 280.521 27.8974C280.755 28.1322 280.887 28.4507 280.887 28.7827C280.887 29.1148 280.755 29.4333 280.521 29.6681C280.286 29.9029 279.967 30.0348 279.635 30.0348H201.731C201.399 30.0348 201.08 29.9029 200.846 29.6681C200.611 29.4333 200.479 29.1148 200.479 28.7827C200.479 28.4507 200.611 28.1322 200.846 27.8974C201.08 27.6626 201.399 27.5307 201.731 27.5307ZM252.049 35.4324C252.049 35.7645 251.917 36.083 251.682 36.3178C251.447 36.5526 251.129 36.6845 250.797 36.6845H230.611C230.279 36.6845 229.961 36.5526 229.726 36.3178C229.491 36.083 229.359 35.7645 229.359 35.4324C229.359 35.1004 229.491 34.7819 229.726 34.5471C229.961 34.3123 230.279 34.1804 230.611 34.1804H250.797C250.961 34.1804 251.124 34.2128 251.276 34.2757C251.428 34.3386 251.566 34.4309 251.682 34.5471C251.798 34.6634 251.891 34.8014 251.954 34.9533C252.016 35.1052 252.049 35.268 252.049 35.4324ZM203.359 189.391C200.201 186.609 193.621 180.321 192.925 173.518C190.257 170.352 188.349 166.617 187.349 162.6C186.348 158.582 186.281 154.389 187.152 150.342C184.522 144.22 184.87 136.931 188.223 128.083C190.518 121.99 193.426 115.451 199.088 112.154C201.588 107.377 204.967 103.115 209.048 99.5923C216.922 92.6366 233.769 85.5695 245.858 89.117C248.641 88.5327 266.823 85.3469 279.246 99.648C288.706 100.9 296.079 112.572 299.682 119.5C303.758 127.374 308.446 138.322 305.706 147.643C306.415 149.882 310.408 165.491 292.907 185.913C283.03 197.446 274.822 200.437 270.106 201.063C270.017 201.194 269.903 201.307 269.772 201.397C263.823 205.072 256.983 207.054 249.99 207.128C246.499 207.211 243.037 206.483 239.876 205C237.442 205.739 234.854 205.821 232.378 205.236C220.219 202.885 210.022 195.067 203.414 189.391H203.359ZM217.27 312.661H241.699C242.031 312.661 242.349 312.793 242.584 313.028C242.819 313.262 242.951 313.581 242.951 313.913C242.951 314.245 242.819 314.564 242.584 314.798C242.349 315.033 242.031 315.165 241.699 315.165H217.354C217.022 315.165 216.703 315.033 216.468 314.798C216.233 314.564 216.102 314.245 216.102 313.913C216.102 313.581 216.233 313.262 216.468 313.028C216.703 312.793 217.022 312.661 217.354 312.661H217.27ZM199.436 321.55H267.991C268.324 321.55 268.642 321.682 268.877 321.917C269.112 322.152 269.243 322.47 269.243 322.802C269.243 323.135 269.112 323.453 268.877 323.688C268.642 323.923 268.324 324.055 267.991 324.055H199.547C199.215 324.055 198.896 323.923 198.662 323.688C198.427 323.453 198.295 323.135 198.295 322.802C198.295 322.47 198.427 322.152 198.662 321.917C198.896 321.682 199.215 321.55 199.547 321.55H199.436Z" fill="#F1E6FF"/>
<path d="M180.349 338.87H311.66C312.819 338.862 313.977 338.769 315.124 338.592H399.26C402.537 338.599 405.786 338 408.845 336.825C413.462 335.187 417.469 332.178 420.328 328.2C423.187 324.222 424.763 319.465 424.844 314.567C424.786 310.187 423.517 305.908 421.177 302.206C418.837 298.503 415.517 295.52 411.586 293.589C411.287 288.791 409.806 284.143 407.275 280.057C404.744 275.971 401.241 272.575 397.078 270.172C392.916 267.768 388.224 266.432 383.42 266.282C378.616 266.132 373.849 267.174 369.545 269.313C366.618 263.573 362.164 258.751 356.674 255.379C351.183 252.007 344.869 250.214 338.425 250.199C337.229 250.199 336.046 250.268 334.878 250.379V22.2306C334.878 10.0302 324.416 0.111328 311.548 0.111328H180.349C167.495 0.111328 157.033 10.0302 157.033 22.2306V220.887C156.393 220.887 155.753 220.887 155.113 220.887H154.307C127.323 220.798 101.378 231.285 82.0363 250.101C81.162 250.948 80.4669 251.962 79.9922 253.083C79.5176 254.204 79.2729 255.408 79.2729 256.626C79.2729 257.843 79.5176 259.048 79.9922 260.168C80.4669 261.289 81.162 262.303 82.0363 263.15C83.8137 264.871 86.1909 265.834 88.6651 265.834C91.1393 265.834 93.5164 264.871 95.2939 263.15C111.083 247.752 132.28 239.156 154.334 239.208H155.016L157.075 239.278V248.78C156.352 248.78 155.684 248.71 154.933 248.71H154.307C134.792 248.658 116.022 256.201 101.971 269.744C101.088 270.583 100.383 271.59 99.8975 272.707C99.4121 273.824 99.1566 275.027 99.1462 276.245C99.1359 277.463 99.3708 278.67 99.8371 279.795C100.303 280.92 100.991 281.94 101.86 282.793C103.618 284.539 105.989 285.528 108.466 285.549C110.944 285.57 113.331 284.621 115.118 282.904C125.647 272.756 139.71 267.098 154.334 267.129H154.793L157.075 267.212V276.63C156.282 276.63 155.503 276.63 154.71 276.547H154.334C142.28 276.522 130.671 281.1 121.879 289.345C120.985 290.171 120.267 291.167 119.767 292.277C119.268 293.386 118.997 294.584 118.971 295.8C118.937 297.014 119.149 298.222 119.597 299.351C120.044 300.48 120.716 301.506 121.573 302.367C123.307 304.134 125.661 305.157 128.137 305.217C130.612 305.276 133.013 304.369 134.83 302.687C140.106 297.734 147.071 294.978 154.307 294.98H154.543C155.378 294.98 156.212 295.049 157.047 295.119V305.761C156.574 305.761 156.101 305.678 155.656 305.678C151.354 305.647 147.212 307.312 144.128 310.311C141.043 313.31 139.262 317.402 139.171 321.704C139.165 324.946 140.134 328.115 141.953 330.799C143.771 333.483 146.355 335.559 149.368 336.756C151.33 337.557 153.425 337.982 155.545 338.008H155.67C156.143 338.008 156.602 338.008 157.061 338.008C157.058 338.176 157.09 338.344 157.154 338.499C157.219 338.655 157.315 338.795 157.437 338.912C157.673 339.137 157.987 339.261 158.313 339.26C158.41 339.302 173.268 338.87 180.349 338.87ZM155.517 335.573C153.723 335.56 151.949 335.193 150.297 334.494C148.645 333.794 147.146 332.777 145.888 331.498C144.629 330.22 143.634 328.706 142.96 327.044C142.286 325.381 141.946 323.602 141.96 321.808C141.974 320.014 142.341 318.24 143.04 316.588C143.739 314.936 144.757 313.438 146.035 312.179C147.313 310.92 148.827 309.925 150.49 309.251C152.152 308.577 153.932 308.238 155.726 308.251C159.428 308.261 162.977 309.731 165.603 312.341C166.897 313.607 167.921 315.124 168.613 316.798C169.304 318.471 169.647 320.268 169.623 322.079C169.532 325.723 168.015 329.185 165.398 331.721C162.781 334.258 159.273 335.666 155.628 335.643V336.881L155.517 335.573ZM128.264 302.701C127.335 302.704 126.414 302.521 125.556 302.163C124.698 301.804 123.921 301.278 123.27 300.614C122.65 299.986 122.163 299.24 121.835 298.42C121.508 297.601 121.348 296.724 121.364 295.842C121.383 294.957 121.582 294.086 121.947 293.28C122.313 292.474 122.839 291.751 123.493 291.154C131.826 283.35 142.82 279.017 154.237 279.037H154.599C160.573 279.058 166.483 280.276 171.979 282.62C177.475 284.964 182.445 288.386 186.595 292.684C187.212 293.315 187.696 294.064 188.018 294.886C188.34 295.707 188.494 296.585 188.47 297.467C188.447 298.349 188.247 299.218 187.882 300.021C187.517 300.824 186.994 301.546 186.345 302.144C185.054 303.338 183.359 303.999 181.601 303.994V305.232V303.994C180.677 303.991 179.764 303.803 178.913 303.442C178.063 303.081 177.293 302.555 176.648 301.894C173.785 298.926 170.357 296.562 166.565 294.942C162.773 293.322 158.694 292.479 154.571 292.462H154.32C146.444 292.444 138.858 295.428 133.105 300.809C131.797 302.041 130.062 302.719 128.264 302.701ZM174.77 303.633C175.642 304.539 176.687 305.26 177.844 305.753C179.001 306.245 180.246 306.499 181.504 306.498H181.587C183.976 306.509 186.28 305.609 188.028 303.98C188.925 303.158 189.647 302.164 190.152 301.057C190.656 299.95 190.933 298.753 190.966 297.537C190.998 296.32 190.785 295.11 190.341 293.978C189.896 292.845 189.227 291.814 188.376 290.945C180.696 283.005 170.467 278.021 159.482 276.867V267.421C172.935 268.624 185.504 274.635 194.886 284.351C195.763 285.247 196.808 285.96 197.961 286.449C199.114 286.939 200.353 287.195 201.606 287.203H201.675C204.092 287.201 206.416 286.275 208.172 284.616C209.065 283.789 209.783 282.792 210.284 281.684C210.786 280.575 211.06 279.378 211.091 278.161C211.122 276.945 210.91 275.735 210.466 274.603C210.022 273.47 209.355 272.438 208.506 271.567C195.548 258.188 178.069 250.118 159.482 248.933V239.417C180.546 240.643 200.38 249.745 215.044 264.917C215.917 265.817 216.961 266.535 218.115 267.027C219.269 267.519 220.509 267.776 221.763 267.783C224.171 267.791 226.493 266.886 228.26 265.251C229.153 264.424 229.871 263.427 230.373 262.319C230.874 261.211 231.148 260.013 231.18 258.797C231.211 257.58 230.998 256.37 230.554 255.238C230.11 254.105 229.443 253.073 228.594 252.202C210.37 233.375 185.654 222.206 159.482 220.97V22.1193C159.482 11.2962 168.816 2.50411 180.349 2.50411H311.66C323.137 2.50411 332.527 11.2962 332.527 22.1193V250.685C324.447 252.116 317.128 256.344 311.853 262.629C306.578 268.914 303.683 276.855 303.674 285.061C303.675 287.61 303.95 290.152 304.495 292.643C300.04 294.273 296.186 297.222 293.448 301.096C290.71 304.971 289.216 309.588 289.166 314.332C289.116 319.076 290.512 323.723 293.169 327.654C295.825 331.586 299.616 334.615 304.036 336.339H180.349C175.549 336.339 167.161 336.547 162.264 336.686C165.163 335.466 167.645 333.429 169.406 330.823C171.167 328.217 172.132 325.155 172.183 322.01C172.201 319.875 171.789 317.759 170.971 315.787C170.154 313.816 168.948 312.028 167.425 310.533C165.265 308.393 162.554 306.895 159.593 306.206V295.522C165.383 296.598 170.693 299.452 174.784 303.688L174.77 303.633ZM108.454 283.085C106.61 283.092 104.839 282.367 103.53 281.068C102.896 280.449 102.394 279.707 102.054 278.889C101.715 278.071 101.543 277.193 101.551 276.307C101.559 275.421 101.746 274.545 102.1 273.733C102.454 272.921 102.969 272.189 103.613 271.581C117.198 258.487 135.341 251.188 154.209 251.228H154.821C164.505 251.262 174.084 253.238 182.992 257.037C191.899 260.836 199.955 266.382 206.683 273.347C207.305 273.976 207.794 274.723 208.119 275.545C208.445 276.367 208.6 277.247 208.577 278.131C208.554 279.014 208.352 279.884 207.983 280.688C207.615 281.492 207.087 282.213 206.433 282.807C205.141 284.01 203.44 284.676 201.675 284.671V286.007V284.769C200.752 284.765 199.838 284.577 198.988 284.216C198.137 283.856 197.367 283.329 196.723 282.668C191.277 277.03 184.758 272.539 177.55 269.46C170.342 266.38 162.59 264.774 154.752 264.736H154.279C139.005 264.708 124.318 270.619 113.323 281.221C112.003 282.45 110.258 283.119 108.454 283.085ZM88.6025 263.345C86.7672 263.356 85.0021 262.641 83.6917 261.356C83.0551 260.742 82.5488 260.006 82.203 259.192C81.8571 258.378 81.6789 257.503 81.6789 256.619C81.6789 255.734 81.8571 254.859 82.203 254.045C82.5488 253.231 83.0551 252.496 83.6917 251.882C102.578 233.521 127.911 223.297 154.251 223.405H155.03C168.436 223.458 181.696 226.193 194.029 231.449C206.362 236.705 217.518 244.376 226.841 254.01C227.458 254.643 227.942 255.392 228.265 256.215C228.587 257.038 228.741 257.917 228.718 258.8C228.694 259.683 228.494 260.553 228.129 261.357C227.763 262.162 227.24 262.885 226.591 263.484C225.29 264.688 223.578 265.35 221.805 265.334V266.586V265.334C220.882 265.33 219.968 265.143 219.118 264.782C218.267 264.421 217.497 263.895 216.853 263.234C208.82 254.92 199.204 248.298 188.572 243.759C177.94 239.219 166.507 236.854 154.946 236.802H154.251C131.545 236.745 109.723 245.596 93.4715 261.453C92.1559 262.692 90.4097 263.371 88.6025 263.345ZM368.655 272.095C368.817 272.148 368.989 272.167 369.159 272.15C369.329 272.133 369.494 272.081 369.643 271.998C373.627 269.81 378.106 268.679 382.651 268.712C387.197 268.745 391.658 269.941 395.61 272.186C399.563 274.431 402.875 277.651 405.23 281.539C407.586 285.427 408.907 289.853 409.068 294.395C409.075 294.622 409.143 294.843 409.265 295.034C409.388 295.225 409.56 295.38 409.764 295.48C413.441 297.145 416.571 299.82 418.787 303.194C421.004 306.569 422.216 310.503 422.284 314.539C422.284 326.378 411.934 336.005 399.205 336.005H314.651C301.922 336.005 291.571 326.378 291.571 314.539C291.69 310.099 293.165 305.802 295.799 302.226C298.433 298.649 302.099 295.965 306.304 294.534C306.595 294.427 306.836 294.215 306.98 293.94C307.124 293.665 307.161 293.346 307.083 293.046C305.094 285.218 306.1 276.929 309.903 269.803C313.706 262.678 320.032 257.229 327.643 254.524C335.253 251.819 343.6 252.052 351.047 255.179C358.494 258.306 364.505 264.1 367.904 271.427C367.977 271.584 368.081 271.724 368.21 271.839C368.34 271.954 368.491 272.041 368.655 272.095Z" fill="#321951"/>
<path d="M201.731 30.0348H279.635C279.967 30.0348 280.285 29.9029 280.52 29.6681C280.755 29.4333 280.887 29.1149 280.887 28.7828C280.887 28.4507 280.755 28.1323 280.52 27.8975C280.285 27.6627 279.967 27.5308 279.635 27.5308H201.731C201.398 27.5308 201.08 27.6627 200.845 27.8975C200.61 28.1323 200.479 28.4507 200.479 28.7828C200.479 29.1149 200.61 29.4333 200.845 29.6681C201.08 29.9029 201.398 30.0348 201.731 30.0348Z" fill="#321951"/>
<path d="M199.519 324.055H267.991C268.323 324.055 268.642 323.923 268.876 323.688C269.111 323.453 269.243 323.135 269.243 322.803C269.243 322.471 269.111 322.152 268.876 321.917C268.642 321.683 268.323 321.551 267.991 321.551H199.546C199.214 321.551 198.896 321.683 198.661 321.917C198.426 322.152 198.294 322.471 198.294 322.803C198.294 323.135 198.426 323.453 198.661 323.688C198.896 323.923 199.214 324.055 199.546 324.055H199.519Z" fill="#321951"/>
<path d="M217.354 315.221H241.782C242.114 315.221 242.433 315.089 242.668 314.854C242.902 314.619 243.034 314.301 243.034 313.969C243.034 313.637 242.902 313.318 242.668 313.084C242.433 312.849 242.114 312.717 241.782 312.717H217.354C217.022 312.717 216.703 312.849 216.468 313.084C216.233 313.318 216.102 313.637 216.102 313.969C216.102 314.301 216.233 314.619 216.468 314.854C216.703 315.089 217.022 315.221 217.354 315.221Z" fill="#321951"/>
<path d="M230.611 34.2085C230.279 34.2085 229.96 34.3404 229.726 34.5752C229.491 34.81 229.359 35.1285 229.359 35.4605C229.359 35.7926 229.491 36.1111 229.726 36.3459C229.96 36.5807 230.279 36.7126 230.611 36.7126H250.797C251.129 36.7126 251.447 36.5807 251.682 36.3459C251.917 36.1111 252.049 35.7926 252.049 35.4605C252.049 35.1285 251.917 34.81 251.682 34.5752C251.447 34.3404 251.129 34.2085 250.797 34.2085H230.611Z" fill="#321951"/>
<path d="M155.572 335.545C159.217 335.568 162.725 334.16 165.342 331.624C167.959 329.087 169.476 325.625 169.567 321.982C169.592 320.171 169.248 318.374 168.557 316.7C167.866 315.026 166.842 313.51 165.547 312.244C162.921 309.633 159.372 308.164 155.67 308.154C153.876 308.14 152.097 308.48 150.434 309.154C148.771 309.828 147.257 310.822 145.979 312.081C144.701 313.34 143.683 314.838 142.984 316.491C142.285 318.143 141.918 319.916 141.904 321.71C141.891 323.504 142.23 325.284 142.904 326.946C143.578 328.609 144.573 330.123 145.832 331.401C147.091 332.679 148.589 333.697 150.241 334.396C151.893 335.095 153.667 335.462 155.461 335.476L155.572 336.714V335.545Z" fill="#00DA9C"/>
<path d="M154.487 292.517C158.611 292.534 162.689 293.378 166.481 294.998C170.273 296.618 173.702 298.982 176.565 301.949C177.209 302.611 177.979 303.137 178.83 303.498C179.68 303.858 180.594 304.046 181.517 304.05V305.288V304.092C183.276 304.097 184.97 303.435 186.261 302.241C186.91 301.644 187.433 300.922 187.798 300.118C188.163 299.315 188.363 298.447 188.387 297.564C188.41 296.682 188.256 295.804 187.934 294.983C187.612 294.161 187.128 293.413 186.511 292.782C182.361 288.484 177.391 285.062 171.895 282.718C166.4 280.374 160.49 279.155 154.515 279.134H154.153C142.737 279.114 131.742 283.448 123.409 291.251C122.755 291.848 122.23 292.571 121.864 293.377C121.498 294.183 121.299 295.055 121.28 295.939C121.264 296.822 121.424 297.698 121.752 298.518C122.079 299.337 122.567 300.083 123.186 300.711C124.457 302.016 126.189 302.77 128.01 302.811C129.831 302.853 131.595 302.179 132.924 300.934C138.677 295.554 146.263 292.569 154.139 292.587L154.487 292.517Z" fill="#00DA9C"/>
<path d="M154.71 264.666C162.548 264.704 170.3 266.31 177.508 269.39C184.716 272.469 191.235 276.96 196.681 282.598C197.326 283.26 198.096 283.786 198.946 284.147C199.796 284.507 200.71 284.695 201.633 284.699V285.937V284.699C203.398 284.704 205.099 284.037 206.391 282.835C207.046 282.24 207.573 281.519 207.941 280.716C208.31 279.912 208.512 279.042 208.535 278.158C208.559 277.274 208.403 276.395 208.078 275.573C207.752 274.751 207.264 274.003 206.642 273.375C199.921 266.41 191.873 260.861 182.972 257.058C174.072 253.254 164.5 251.271 154.821 251.228H154.209C135.345 251.181 117.202 258.469 103.613 271.552C102.969 272.161 102.454 272.893 102.1 273.705C101.745 274.517 101.559 275.393 101.551 276.279C101.543 277.165 101.714 278.043 102.054 278.861C102.394 279.679 102.896 280.421 103.529 281.04C104.819 282.326 106.561 283.055 108.381 283.07C110.202 283.086 111.956 282.387 113.268 281.124C124.263 270.522 138.949 264.61 154.223 264.638L154.71 264.666Z" fill="#00DA9C"/>
<path d="M154.932 236.746C166.493 236.798 177.926 239.163 188.558 243.703C199.19 248.242 208.806 254.864 216.839 263.178C217.483 263.839 218.253 264.366 219.104 264.726C219.954 265.087 220.867 265.275 221.791 265.278V266.53V265.278C223.564 265.294 225.275 264.632 226.577 263.428C227.226 262.829 227.749 262.106 228.115 261.302C228.48 260.497 228.68 259.627 228.703 258.744C228.727 257.861 228.573 256.982 228.251 256.159C227.928 255.336 227.444 254.587 226.827 253.954C217.504 244.32 206.348 236.65 194.015 231.393C181.682 226.137 168.422 223.402 155.016 223.349H154.237C127.901 223.271 102.585 233.52 83.7194 251.895C83.0828 252.509 82.5765 253.245 82.2306 254.059C81.8848 254.873 81.7065 255.748 81.7065 256.632C81.7065 257.517 81.8848 258.392 82.2306 259.206C82.5765 260.02 83.0828 260.755 83.7194 261.369C85.0297 262.624 86.774 263.325 88.5884 263.325C90.4028 263.325 92.1471 262.624 93.4574 261.369C109.709 245.513 131.531 236.662 154.237 236.718L154.932 236.746Z" fill="#00DA9C"/>
<path d="M338.481 252.619C333.539 252.627 328.664 253.762 324.228 255.94C319.792 258.117 315.912 261.279 312.884 265.184C309.855 269.088 307.758 273.633 306.753 278.471C305.748 283.31 305.86 288.314 307.082 293.102C307.16 293.402 307.124 293.721 306.98 293.996C306.836 294.271 306.595 294.483 306.303 294.59C302.111 296.032 298.461 298.721 295.84 302.297C293.219 305.872 291.754 310.163 291.641 314.595C291.641 326.434 301.991 336.06 314.72 336.06H399.274C412.003 336.06 422.353 326.434 422.353 314.595C422.286 310.558 421.073 306.624 418.856 303.25C416.64 299.876 413.511 297.201 409.833 295.536C409.629 295.435 409.457 295.281 409.335 295.09C409.212 294.899 409.144 294.678 409.137 294.451C408.976 289.902 407.65 285.47 405.288 281.579C402.926 277.688 399.605 274.467 395.644 272.225C391.682 269.982 387.212 268.793 382.66 268.77C378.108 268.748 373.626 269.892 369.642 272.095C369.493 272.179 369.329 272.23 369.159 272.247C368.989 272.264 368.817 272.245 368.655 272.193C368.491 272.139 368.339 272.051 368.21 271.937C368.081 271.822 367.977 271.682 367.904 271.525C365.309 265.898 361.162 261.13 355.949 257.781C350.737 254.432 344.676 252.641 338.481 252.619ZM389.411 276.408C389.532 276.1 389.769 275.853 390.07 275.718C390.372 275.582 390.714 275.571 391.024 275.684C396.177 277.648 400.376 281.518 402.752 286.494C402.892 286.793 402.909 287.135 402.8 287.447C402.69 287.759 402.464 288.016 402.168 288.163C401.998 288.244 401.813 288.287 401.625 288.288C401.389 288.29 401.158 288.224 400.958 288.098C400.758 287.972 400.599 287.792 400.498 287.579C398.4 283.179 394.689 279.757 390.134 278.022C389.829 277.906 389.581 277.674 389.446 277.377C389.311 277.08 389.298 276.742 389.411 276.436V276.408ZM316.32 271.539C318.665 267.633 321.98 264.399 325.943 262.152C329.907 259.904 334.384 258.719 338.94 258.712C339.272 258.712 339.59 258.844 339.825 259.079C340.06 259.314 340.192 259.632 340.192 259.964C340.192 260.296 340.06 260.615 339.825 260.85C339.59 261.085 339.272 261.216 338.94 261.216C334.815 261.226 330.764 262.302 327.178 264.339C323.592 266.377 320.594 269.308 318.476 272.846C318.363 273.033 318.204 273.188 318.014 273.295C317.824 273.403 317.609 273.459 317.391 273.459C317.17 273.458 316.954 273.398 316.763 273.287C316.573 273.175 316.415 273.015 316.306 272.823C316.198 272.631 316.141 272.414 316.144 272.193C316.146 271.973 316.207 271.756 316.32 271.567V271.539ZM369.768 306.874C370.94 305.899 372.416 305.365 373.941 305.365C375.466 305.365 376.943 305.899 378.115 306.874C378.675 307.353 379.126 307.948 379.435 308.619C379.743 309.289 379.903 310.018 379.903 310.755C379.903 311.493 379.743 312.222 379.435 312.892C379.126 313.562 378.675 314.157 378.115 314.637L361.198 329.578C360.04 330.58 358.556 331.124 357.025 331.108H356.913C355.382 331.127 353.896 330.582 352.74 329.578L335.81 314.567C335.245 314.09 334.79 313.496 334.479 312.826C334.167 312.155 334.006 311.425 334.006 310.686C334.006 309.947 334.167 309.216 334.479 308.546C334.79 307.875 335.245 307.281 335.81 306.804C336.983 305.832 338.459 305.299 339.983 305.299C341.507 305.299 342.983 305.832 344.157 306.804L351.112 312.953V290.987C351.237 289.496 351.918 288.106 353.02 287.093C354.121 286.08 355.563 285.518 357.059 285.518C358.556 285.518 359.998 286.08 361.099 287.093C362.201 288.106 362.882 289.496 363.007 290.987V312.87L369.768 306.874Z" fill="#8B6FE2"/>
<path d="M361.199 316.793C360.979 316.694 360.793 316.533 360.662 316.331C360.531 316.129 360.461 315.893 360.461 315.652V290.987C360.324 290.173 359.903 289.434 359.272 288.901C358.642 288.369 357.843 288.076 357.018 288.076C356.193 288.076 355.394 288.369 354.764 288.901C354.134 289.434 353.712 290.173 353.575 290.987V315.735C353.573 315.976 353.503 316.211 353.372 316.413C353.242 316.615 353.056 316.776 352.838 316.876C352.61 316.979 352.358 317.014 352.111 316.977C351.864 316.94 351.634 316.833 351.447 316.668L342.432 308.668C341.739 308.075 340.854 307.753 339.942 307.764C339.027 307.753 338.14 308.08 337.452 308.682C337.158 308.928 336.92 309.234 336.755 309.58C336.589 309.926 336.499 310.303 336.492 310.686C336.504 311.07 336.595 311.448 336.76 311.795C336.926 312.142 337.161 312.451 337.452 312.703L354.396 327.741C355.085 328.332 355.965 328.653 356.872 328.645H357.025C357.937 328.654 358.821 328.333 359.515 327.741L376.446 312.744C376.734 312.492 376.966 312.182 377.129 311.835C377.292 311.488 377.381 311.111 377.392 310.727C377.386 310.345 377.299 309.969 377.136 309.623C376.973 309.277 376.737 308.971 376.446 308.724C375.739 308.157 374.861 307.848 373.955 307.848C373.05 307.848 372.171 308.157 371.465 308.724L362.492 316.612C362.313 316.757 362.099 316.85 361.871 316.882C361.643 316.914 361.41 316.883 361.199 316.793Z" fill="white"/>
<path d="M357.025 285.561C355.52 285.501 354.052 286.037 352.939 287.053C351.827 288.068 351.161 289.482 351.085 290.987V312.953L344.129 306.804C342.956 305.831 341.48 305.299 339.956 305.299C338.432 305.299 336.956 305.831 335.782 306.804C335.217 307.281 334.763 307.875 334.452 308.545C334.14 309.216 333.979 309.946 333.979 310.685C333.979 311.425 334.14 312.155 334.452 312.825C334.763 313.496 335.217 314.09 335.782 314.567L352.713 329.577C353.869 330.582 355.354 331.126 356.886 331.108H357.025C358.556 331.124 360.041 330.58 361.199 329.577L378.129 314.567C378.69 314.087 379.14 313.492 379.449 312.822C379.758 312.152 379.918 311.423 379.918 310.685C379.918 309.948 379.758 309.219 379.449 308.549C379.14 307.879 378.69 307.283 378.129 306.804C376.957 305.829 375.48 305.295 373.955 305.295C372.431 305.295 370.954 305.829 369.782 306.804L362.938 312.87V290.987C362.862 289.487 362.199 288.078 361.093 287.063C359.987 286.047 358.526 285.508 357.025 285.561ZM376.501 308.682C376.793 308.929 377.029 309.236 377.192 309.581C377.355 309.927 377.442 310.303 377.447 310.685C377.437 311.069 377.348 311.446 377.185 311.793C377.022 312.14 376.789 312.45 376.501 312.703L359.474 327.741C358.78 328.333 357.895 328.654 356.983 328.645H356.872C355.965 328.653 355.085 328.332 354.396 327.741L337.452 312.744C337.161 312.493 336.926 312.184 336.76 311.836C336.595 311.489 336.504 311.111 336.492 310.727C336.5 310.344 336.589 309.967 336.755 309.622C336.92 309.276 337.158 308.97 337.452 308.724C338.14 308.122 339.027 307.795 339.942 307.806C340.854 307.795 341.739 308.116 342.432 308.71L351.461 316.612C351.648 316.777 351.878 316.885 352.125 316.922C352.372 316.959 352.624 316.924 352.852 316.82C353.07 316.72 353.256 316.559 353.386 316.357C353.517 316.155 353.587 315.92 353.589 315.68V290.987C353.726 290.173 354.148 289.434 354.778 288.901C355.408 288.368 356.207 288.076 357.032 288.076C357.857 288.076 358.656 288.368 359.286 288.901C359.917 289.434 360.338 290.173 360.475 290.987V315.652C360.475 315.893 360.545 316.129 360.676 316.331C360.807 316.533 360.993 316.694 361.213 316.793C361.439 316.899 361.692 316.936 361.94 316.899C362.187 316.862 362.418 316.752 362.604 316.584L371.535 308.668C372.233 308.131 373.091 307.841 373.972 307.843C374.853 307.846 375.708 308.141 376.404 308.682H376.501Z" fill="#321951"/>
<path d="M205.042 187.499C211.441 192.98 221.277 200.534 232.865 202.705C234.211 202.971 235.585 203.069 236.955 202.997L236.301 202.426C236.05 202.207 235.897 201.897 235.875 201.564C235.852 201.231 235.963 200.904 236.183 200.653C236.402 200.402 236.713 200.248 237.045 200.226C237.378 200.204 237.706 200.315 237.957 200.534L239.473 201.773C246.234 206.405 257.878 204.652 265.571 200.854C265.267 200.761 265.01 200.555 264.852 200.278C264.694 200.002 264.648 199.675 264.722 199.366C264.795 199.05 264.989 198.776 265.262 198.602C265.536 198.427 265.866 198.367 266.183 198.434L266.67 198.531C268.645 198.809 278.175 199.213 291.029 184.216C303.675 169.47 304.509 157.367 303.953 151.677C303.841 151.886 303.716 152.081 303.591 152.275C303.5 152.413 303.382 152.532 303.245 152.624C303.108 152.717 302.954 152.781 302.792 152.814C302.629 152.847 302.462 152.848 302.3 152.816C302.138 152.785 301.983 152.721 301.845 152.63C301.707 152.539 301.589 152.421 301.496 152.284C301.404 152.147 301.339 151.993 301.306 151.831C301.273 151.669 301.273 151.502 301.304 151.339C301.336 151.177 301.399 151.022 301.49 150.884C307.305 141.87 301.991 129.252 297.484 120.543C295.049 115.869 289.054 105.658 281.625 102.737C281.677 102.974 281.658 103.222 281.572 103.449C281.485 103.676 281.335 103.873 281.138 104.016C280.875 104.21 280.547 104.293 280.224 104.246C279.901 104.199 279.609 104.027 279.413 103.766L277.73 101.596C268.451 90.5779 255.471 90.4666 249.503 91.023C249.559 91.2758 249.53 91.54 249.42 91.7742C249.293 92.0728 249.055 92.31 248.756 92.4348C248.457 92.5597 248.121 92.5623 247.82 92.442L246.025 91.7464C238.151 89.2424 222.459 91.0648 210.76 101.401C207.728 104.084 205.083 107.174 202.9 110.583L203.526 110.43C203.847 110.343 204.189 110.387 204.477 110.553C204.765 110.719 204.976 110.992 205.063 111.313C205.15 111.634 205.105 111.976 204.939 112.265C204.774 112.553 204.5 112.763 204.179 112.85L202.232 113.448C196.083 115.897 193.036 122.672 190.671 128.96C188.084 135.818 187.402 141.605 188.612 146.53V146.405C188.749 146.113 188.994 145.885 189.295 145.771C189.596 145.657 189.93 145.665 190.226 145.793C190.525 145.919 190.763 146.156 190.89 146.455C191.017 146.753 191.024 147.089 190.908 147.392L189.698 150.606C187.861 157.256 189.837 164.364 193.231 169.623C193.323 169.338 193.514 169.095 193.768 168.937C194.023 168.779 194.326 168.716 194.622 168.761C194.936 168.818 195.216 168.995 195.403 169.255C195.589 169.514 195.669 169.835 195.624 170.152L195.36 172.197C195.332 178.429 201.967 184.856 205.042 187.499ZM226.994 145.765C225.928 145.763 224.876 145.515 223.92 145.041C223.153 146.533 222.219 147.933 221.138 149.215C221.023 149.354 220.878 149.467 220.714 149.544C220.551 149.62 220.372 149.66 220.192 149.66C219.953 149.661 219.719 149.593 219.517 149.465C219.316 149.337 219.155 149.153 219.054 148.937C218.953 148.721 218.916 148.48 218.948 148.243C218.979 148.006 219.078 147.784 219.232 147.601C220.229 146.431 221.084 145.147 221.777 143.775C222.006 143.323 222.21 142.858 222.39 142.384L222.473 142.162C222.626 141.743 222.756 141.315 222.863 140.882C222.867 140.808 222.867 140.733 222.863 140.659C222.96 140.242 223.043 139.839 223.099 139.435C223.099 139.435 223.099 139.324 223.099 139.254C223.154 138.862 223.181 138.467 223.183 138.072V137.96C223.211 137.571 223.211 137.181 223.183 136.792C223.087 135.741 222.854 134.707 222.487 133.717C222.145 132.715 221.643 131.775 220.998 130.935C220.785 130.689 220.673 130.371 220.686 130.045C220.699 129.719 220.835 129.411 221.068 129.182C221.298 128.962 221.605 128.839 221.924 128.839C222.242 128.839 222.549 128.962 222.779 129.182C223.639 130.274 224.319 131.495 224.796 132.799C225.494 132.558 226.228 132.436 226.966 132.438C228.745 132.438 230.45 133.144 231.708 134.402C232.965 135.659 233.672 137.365 233.672 139.143C233.672 140.921 232.965 142.627 231.708 143.884C230.45 145.142 228.745 145.848 226.966 145.848L226.994 145.765ZM256.556 195.944C253.557 197.407 250.267 198.177 246.929 198.197C244.835 198.194 242.756 197.837 240.781 197.14L240.53 197.057C240.002 196.848 239.459 196.625 238.916 196.361L238.541 196.18C237.408 195.597 236.336 194.903 235.341 194.107C235.115 193.891 234.979 193.598 234.958 193.286C234.937 192.974 235.034 192.665 235.229 192.421C235.425 192.177 235.705 192.014 236.014 191.966C236.323 191.918 236.639 191.987 236.899 192.16C237.471 192.61 238.07 193.023 238.694 193.398C238.645 193.075 238.617 192.75 238.61 192.424C238.693 190.515 239.51 188.711 240.89 187.39C242.27 186.068 244.107 185.33 246.018 185.33C247.929 185.33 249.766 186.068 251.147 187.39C252.527 188.711 253.343 190.515 253.426 192.424C253.425 193.186 253.298 193.943 253.051 194.664C253.846 194.408 254.622 194.096 255.374 193.732C255.667 193.575 256.011 193.541 256.329 193.638C256.647 193.734 256.914 193.953 257.071 194.246C257.228 194.54 257.262 194.883 257.165 195.202C257.069 195.52 256.85 195.787 256.556 195.944ZM288.455 177.316C287.478 180.657 285.607 183.668 283.044 186.025L282.932 186.122C282.571 186.456 282.195 186.776 281.806 187.082L281.541 187.291C281.18 187.569 280.804 187.847 280.401 188.111L279.997 188.376C279.622 188.612 279.232 188.835 278.829 189.057C278.703 189.127 278.606 189.21 278.481 189.266C277.745 189.66 276.988 190.013 276.213 190.323C276.066 190.377 275.911 190.405 275.754 190.407C275.461 190.409 275.176 190.308 274.95 190.122C274.723 189.936 274.569 189.676 274.514 189.388C274.46 189.1 274.508 188.802 274.651 188.546C274.793 188.289 275.021 188.091 275.295 187.986C275.726 187.819 276.116 187.638 276.505 187.458C275.59 186.891 274.834 186.101 274.308 185.161C273.783 184.222 273.505 183.164 273.5 182.088C273.506 181.238 273.679 180.398 274.009 179.615C274.339 178.833 274.82 178.123 275.425 177.526C276.029 176.929 276.745 176.457 277.532 176.137C278.319 175.817 279.162 175.655 280.011 175.661C281.077 175.659 282.128 175.918 283.071 176.415C284.014 176.912 284.822 177.632 285.423 178.513C285.685 177.936 285.903 177.341 286.076 176.732C286.166 176.424 286.371 176.163 286.647 176.001C286.924 175.84 287.252 175.791 287.564 175.864C287.876 175.937 288.148 176.127 288.324 176.394C288.5 176.662 288.567 176.987 288.511 177.302L288.455 177.316ZM281.903 120.112C281.98 119.966 282.086 119.838 282.213 119.733C282.341 119.629 282.488 119.551 282.646 119.505C282.804 119.458 282.97 119.444 283.134 119.462C283.298 119.48 283.456 119.531 283.6 119.611C284.495 120.118 285.327 120.73 286.076 121.434C286.97 120.734 288.072 120.352 289.207 120.348C290.537 120.341 291.817 120.861 292.766 121.794C293.715 122.727 294.256 123.998 294.27 125.329C294.266 126.352 293.944 127.349 293.348 128.182C292.752 129.014 291.913 129.641 290.946 129.975C291.232 131.277 291.377 132.607 291.377 133.94C291.377 134.272 291.245 134.591 291.01 134.825C290.775 135.06 290.457 135.192 290.125 135.192C289.793 135.192 289.474 135.06 289.239 134.825C289.005 134.591 288.873 134.272 288.873 133.94C288.869 132.746 288.734 131.557 288.469 130.393C288.372 130.003 288.274 129.641 288.177 129.28C288.169 129.229 288.169 129.177 288.177 129.127C288.052 128.765 287.927 128.417 287.788 128.083V128C286.987 126.18 285.801 124.557 284.31 123.242C283.743 122.715 283.123 122.249 282.459 121.851C282.305 121.777 282.167 121.673 282.055 121.544C281.942 121.415 281.857 121.265 281.805 121.102C281.753 120.939 281.735 120.767 281.751 120.597C281.768 120.427 281.82 120.262 281.903 120.112ZM278.968 144.109C279.361 143.22 279.826 142.364 280.359 141.55C280.543 141.273 280.83 141.081 281.156 141.016C281.482 140.95 281.821 141.017 282.098 141.202C282.375 141.386 282.567 141.673 282.632 141.999C282.697 142.325 282.63 142.664 282.446 142.941C280.21 146.88 279.239 151.411 279.663 155.92C279.663 156.115 279.663 156.31 279.663 156.518C279.663 156.727 279.775 157.117 279.83 157.409C279.886 157.701 279.969 158.16 280.067 158.549C280.339 159.673 280.706 160.772 281.166 161.833C281.297 162.135 281.303 162.478 281.183 162.785C281.064 163.092 280.827 163.34 280.526 163.474C280.363 163.544 280.188 163.581 280.011 163.585C279.769 163.584 279.532 163.512 279.329 163.379C279.127 163.246 278.967 163.056 278.87 162.834C278.44 161.841 278.082 160.818 277.799 159.774C276.577 160.334 275.248 160.624 273.904 160.622C272.499 160.613 271.116 160.275 269.865 159.636C268.613 158.998 267.529 158.075 266.697 156.943C265.866 155.81 265.311 154.499 265.076 153.114C264.841 151.729 264.934 150.308 265.346 148.965C265.757 147.622 266.478 146.394 267.448 145.378C268.419 144.363 269.614 143.588 270.937 143.117C272.261 142.645 273.676 142.489 275.07 142.661C276.464 142.834 277.799 143.33 278.968 144.109ZM253.927 100.705C253.927 100.705 253.927 100.705 254.01 100.705C254.095 100.616 254.194 100.541 254.303 100.483C254.441 100.41 254.592 100.368 254.748 100.358H254.831C255.692 100.33 256.553 100.377 257.405 100.497C258.016 99.4626 258.946 98.6542 260.055 98.1923C261.164 97.7304 262.393 97.6398 263.558 97.9342C264.723 98.2285 265.761 98.8919 266.518 99.8252C267.274 100.759 267.708 101.912 267.755 103.112C267.752 103.725 267.639 104.333 267.421 104.907L267.63 105.074C268.25 105.63 268.836 106.225 269.383 106.854C269.594 107.106 269.699 107.431 269.673 107.759C269.647 108.087 269.492 108.392 269.244 108.607C269.017 108.807 268.725 108.916 268.423 108.913C268.242 108.912 268.064 108.871 267.901 108.794C267.738 108.717 267.593 108.606 267.477 108.468C266.944 107.857 266.368 107.285 265.752 106.757C265.474 106.52 265.195 106.284 264.903 106.075C264.611 105.867 264.681 105.894 264.569 105.825C263.789 105.293 262.965 104.828 262.107 104.434H262.01L260.897 103.975H260.702C260.368 103.849 260.048 103.752 259.742 103.655H259.547L258.643 103.418H258.476L257.586 103.237H257.391L256.779 103.154H256.459H256.014H254.817C254.497 103.158 254.187 103.039 253.951 102.822C253.716 102.605 253.573 102.305 253.551 101.985C253.473 101.766 253.461 101.529 253.518 101.303C253.575 101.078 253.698 100.875 253.871 100.719L253.927 100.705ZM246.749 114.116C246.883 114.02 247.035 113.951 247.195 113.913C247.356 113.876 247.523 113.87 247.686 113.897C247.849 113.924 248.005 113.984 248.145 114.071C248.285 114.159 248.406 114.274 248.502 114.408C250.58 117.047 253.363 119.043 256.528 120.168H256.709L257.614 120.39L258.156 120.502L258.907 120.613C259.176 120.627 259.445 120.627 259.714 120.613C260.569 120.66 261.427 120.618 262.274 120.488C262.436 120.461 262.603 120.467 262.763 120.505C262.923 120.542 263.075 120.611 263.208 120.708C263.342 120.804 263.456 120.925 263.542 121.066C263.629 121.206 263.687 121.361 263.714 121.524C263.74 121.687 263.734 121.853 263.697 122.013C263.659 122.174 263.59 122.325 263.494 122.459C263.397 122.592 263.276 122.706 263.136 122.792C262.996 122.879 262.84 122.937 262.677 122.964C261.868 123.096 261.049 123.161 260.229 123.159H259.867C259.494 124.632 258.6 125.919 257.35 126.784C256.1 127.649 254.58 128.032 253.07 127.862C251.56 127.692 250.162 126.981 249.136 125.861C248.109 124.741 247.523 123.287 247.486 121.767C247.478 120.483 247.883 119.229 248.641 118.192C247.858 117.459 247.141 116.658 246.498 115.799C246.318 115.547 246.238 115.236 246.274 114.927C246.31 114.619 246.459 114.335 246.693 114.13L246.749 114.116ZM241.838 161.944C243.016 161.936 244.149 162.397 244.989 163.223C245.829 164.05 246.306 165.176 246.317 166.354C246.319 167.372 245.959 168.358 245.302 169.136C246.09 169.778 246.78 170.532 247.347 171.376C247.439 171.512 247.504 171.665 247.537 171.826C247.57 171.987 247.571 172.153 247.54 172.315C247.509 172.476 247.447 172.63 247.356 172.767C247.266 172.904 247.149 173.023 247.013 173.115C246.806 173.251 246.565 173.323 246.317 173.324C246.113 173.323 245.911 173.274 245.73 173.179C245.548 173.085 245.392 172.948 245.274 172.781C244.767 172.018 244.12 171.357 243.368 170.833L242.951 170.541L242.52 170.291L242.172 170.11L241.643 169.887L241.365 169.762L240.711 169.553H240.544C240.011 169.407 239.466 169.305 238.916 169.247H238.68H238.179H237.804C236.844 169.213 235.884 169.279 234.938 169.442C234.776 169.479 234.609 169.483 234.445 169.455C234.282 169.426 234.126 169.366 233.986 169.276C233.846 169.187 233.725 169.071 233.631 168.935C233.536 168.798 233.47 168.645 233.435 168.482C233.369 168.158 233.432 167.82 233.612 167.542C233.791 167.264 234.072 167.067 234.395 166.994C235.372 166.811 236.364 166.723 237.358 166.729C237.358 166.646 237.358 166.576 237.358 166.493C237.345 165.903 237.45 165.317 237.667 164.768C237.883 164.219 238.206 163.719 238.618 163.297C239.03 162.875 239.522 162.539 240.065 162.309C240.609 162.079 241.192 161.96 241.782 161.958L241.838 161.944ZM215.517 110.179C216.387 109.342 217.317 108.57 218.3 107.87L218.48 107.745C218.122 106.86 217.933 105.916 217.924 104.962C217.951 103.152 218.61 101.408 219.787 100.032C220.964 98.6564 222.585 97.7353 224.369 97.4282C226.154 97.1212 227.989 97.4476 229.559 98.3509C231.128 99.2542 232.332 100.678 232.962 102.375H233.171C234.446 102.232 235.729 102.185 237.011 102.236C237.18 102.246 237.346 102.291 237.498 102.367C237.65 102.443 237.784 102.55 237.894 102.68C238.003 102.81 238.085 102.961 238.134 103.124C238.183 103.287 238.198 103.458 238.179 103.627C238.172 103.792 238.132 103.954 238.061 104.103C237.991 104.253 237.891 104.387 237.768 104.497C237.645 104.607 237.501 104.691 237.344 104.745C237.188 104.799 237.022 104.821 236.858 104.809C231.854 104.745 226.916 105.946 222.501 108.301L221.917 108.621L220.985 109.205L220.136 109.776C219.117 110.488 218.158 111.284 217.27 112.155C217.034 112.382 216.721 112.511 216.394 112.516C216.146 112.516 215.904 112.441 215.698 112.303C215.493 112.164 215.333 111.968 215.239 111.738C215.145 111.509 215.121 111.257 215.171 111.014C215.22 110.771 215.341 110.548 215.517 110.374V110.179ZM211.344 166.813C213.124 166.798 214.836 167.49 216.107 168.737C217.377 169.983 218.1 171.683 218.119 173.463C218.116 174.744 217.742 175.996 217.04 177.068C216.339 178.14 215.341 178.985 214.168 179.5C214.168 179.5 214.168 179.598 214.168 179.639C214.515 180.577 214.771 181.546 214.933 182.533C214.973 182.857 214.885 183.184 214.687 183.443C214.49 183.703 214.199 183.876 213.876 183.924H213.737C213.437 183.927 213.147 183.822 212.919 183.628C212.692 183.433 212.542 183.163 212.499 182.867C212.341 181.911 212.07 180.977 211.692 180.085C211.622 179.904 211.525 179.723 211.441 179.542C211.358 179.361 211.163 178.972 211.01 178.707L210.801 178.387C210.607 178.095 210.398 177.789 210.189 177.525L210.078 177.4C207.734 174.805 204.572 173.092 201.119 172.544C200.793 172.499 200.497 172.329 200.294 172.069C200.091 171.809 199.998 171.481 200.034 171.153C200.076 170.825 200.245 170.527 200.506 170.324C200.766 170.121 201.097 170.029 201.425 170.068C202.647 170.27 203.845 170.596 205 171.042H205.084C205.59 169.793 206.458 168.723 207.575 167.97C208.693 167.217 210.01 166.814 211.358 166.813H211.344ZM198.392 129.252C198.596 129.035 198.871 128.897 199.168 128.865C199.464 128.832 199.762 128.906 200.009 129.074C200.255 129.242 200.434 129.492 200.513 129.779C200.591 130.067 200.564 130.373 200.437 130.643C200.052 131.241 199.717 131.869 199.436 132.521C199.667 132.507 199.9 132.507 200.131 132.521C200.936 132.482 201.741 132.607 202.497 132.888C203.252 133.17 203.942 133.601 204.526 134.157C205.11 134.714 205.574 135.382 205.892 136.123C206.209 136.864 206.373 137.662 206.373 138.468C206.373 139.274 206.209 140.072 205.892 140.813C205.574 141.554 205.11 142.223 204.526 142.779C203.942 143.335 203.252 143.767 202.497 144.048C201.741 144.329 200.936 144.454 200.131 144.415C199.577 144.414 199.025 144.339 198.49 144.193C198.674 144.978 198.911 145.749 199.199 146.502C199.313 146.812 199.301 147.155 199.166 147.456C199.031 147.758 198.783 147.994 198.476 148.116C198.333 148.168 198.183 148.196 198.031 148.199C197.775 148.2 197.525 148.123 197.314 147.979C197.103 147.835 196.941 147.631 196.848 147.392C195.672 144.461 195.202 141.293 195.478 138.147C195.753 135 196.766 131.962 198.434 129.28L198.392 129.252Z" fill="#FBC22D"/>
<path d="M215.517 110.179C216.387 109.342 217.317 108.57 218.3 107.87L218.48 107.745C218.122 106.86 217.933 105.916 217.924 104.962C217.951 103.152 218.61 101.408 219.787 100.032C220.964 98.6564 222.585 97.7353 224.369 97.4282C226.154 97.1212 227.989 97.4476 229.559 98.3509C231.128 99.2542 232.332 100.678 232.962 102.375H233.171C234.446 102.232 235.729 102.185 237.011 102.236C237.18 102.246 237.346 102.291 237.498 102.367C237.65 102.443 237.784 102.55 237.894 102.68C238.003 102.81 238.085 102.961 238.134 103.124C238.183 103.287 238.198 103.458 238.179 103.627C238.172 103.792 238.132 103.954 238.061 104.103C237.991 104.253 237.891 104.387 237.768 104.497C237.645 104.607 237.501 104.691 237.344 104.745C237.188 104.799 237.022 104.821 236.858 104.809C231.854 104.745 226.916 105.946 222.501 108.301L221.917 108.621L220.985 109.205L220.136 109.776C219.117 110.488 218.158 111.284 217.27 112.155C217.034 112.382 216.721 112.511 216.394 112.516C216.146 112.516 215.904 112.441 215.698 112.303C215.493 112.164 215.333 111.968 215.239 111.738C215.145 111.509 215.121 111.257 215.171 111.014C215.22 110.771 215.341 110.548 215.517 110.374V110.179Z" fill="#321951"/>
<path d="M239.876 204.931C243.037 206.413 246.499 207.142 249.99 207.059C256.982 206.984 263.822 205.003 269.772 201.327C269.903 201.238 270.016 201.125 270.106 200.994C274.877 200.368 283.029 197.377 292.907 185.844C310.407 165.422 306.415 149.813 305.705 147.573C308.488 138.253 303.758 127.304 299.682 119.43C296.078 112.475 288.705 100.831 279.246 99.5787C266.823 85.2776 248.64 88.4495 245.858 89.0477C233.769 85.5002 216.922 92.6368 209.048 99.5926C204.991 103.108 201.631 107.356 199.143 112.113C193.481 115.41 190.574 121.948 188.278 128.042C184.925 136.903 184.578 144.193 187.207 150.3C186.336 154.348 186.403 158.541 187.404 162.558C188.405 166.576 190.312 170.311 192.98 173.477C193.718 180.279 200.256 186.637 203.414 189.35C210.022 195.026 220.219 202.844 232.378 205.125C234.85 205.723 237.438 205.656 239.876 204.931ZM194.677 168.761C194.381 168.716 194.078 168.779 193.824 168.937C193.569 169.095 193.379 169.338 193.286 169.623C189.892 164.365 187.916 157.256 189.753 150.606L190.963 147.393C191.079 147.09 191.072 146.753 190.945 146.455C190.818 146.157 190.58 145.919 190.281 145.793C189.986 145.665 189.652 145.657 189.35 145.771C189.049 145.886 188.804 146.113 188.668 146.405V146.53C187.457 141.605 188.139 135.818 190.727 128.96C193.092 122.672 196.138 115.897 202.287 113.448L204.235 112.85C204.556 112.764 204.829 112.553 204.995 112.265C205.16 111.976 205.205 111.634 205.118 111.313C205.031 110.992 204.821 110.719 204.532 110.553C204.244 110.387 203.902 110.343 203.581 110.43L202.955 110.583C205.138 107.174 207.784 104.084 210.815 101.401C222.514 91.0648 238.207 89.2424 246.08 91.7465L247.875 92.4421C248.176 92.5623 248.512 92.5598 248.811 92.4349C249.11 92.3101 249.349 92.0729 249.475 91.7743C249.585 91.5401 249.615 91.2758 249.558 91.0231C255.554 90.3971 268.506 90.5779 277.785 101.596L279.385 103.766C279.581 104.027 279.873 104.199 280.196 104.246C280.519 104.293 280.847 104.211 281.11 104.016C281.306 103.873 281.457 103.676 281.544 103.449C281.63 103.222 281.648 102.974 281.597 102.737C289.025 105.658 295.021 115.869 297.456 120.543C301.963 129.252 307.277 141.87 301.462 150.884C301.371 151.022 301.308 151.177 301.276 151.339C301.244 151.502 301.245 151.669 301.278 151.831C301.311 151.993 301.375 152.147 301.468 152.284C301.56 152.421 301.679 152.539 301.817 152.63C301.955 152.722 302.109 152.785 302.272 152.816C302.434 152.848 302.601 152.847 302.763 152.814C302.925 152.781 303.08 152.717 303.217 152.624C303.354 152.532 303.471 152.413 303.563 152.275C303.688 152.081 303.813 151.886 303.925 151.677C304.481 157.367 303.646 169.47 291.001 184.216C278.146 199.213 268.617 198.809 266.642 198.531L266.155 198.434C265.838 198.367 265.507 198.428 265.234 198.602C264.961 198.776 264.767 199.05 264.694 199.366C264.62 199.675 264.666 200.002 264.824 200.278C264.982 200.555 265.239 200.761 265.543 200.854C257.85 204.652 246.206 206.419 239.445 201.773L237.928 200.534C237.677 200.315 237.35 200.204 237.017 200.226C236.684 200.248 236.374 200.402 236.155 200.653C235.935 200.904 235.824 201.231 235.846 201.564C235.869 201.897 236.022 202.207 236.273 202.426L236.927 202.997C235.557 203.069 234.183 202.971 232.837 202.705C221.276 200.534 211.441 192.967 205.014 187.499C201.939 184.856 195.276 178.429 195.387 172.197L195.651 170.152C195.697 169.839 195.621 169.522 195.44 169.263C195.259 169.004 194.987 168.825 194.677 168.761Z" fill="#321951"/>
<path d="M226.994 132.368C226.256 132.366 225.522 132.488 224.824 132.73C224.347 131.425 223.666 130.204 222.807 129.113C222.577 128.892 222.27 128.77 221.951 128.77C221.633 128.77 221.326 128.892 221.096 129.113C220.863 129.341 220.726 129.65 220.714 129.975C220.701 130.301 220.812 130.619 221.026 130.866C221.67 131.706 222.173 132.646 222.515 133.648C222.881 134.637 223.115 135.671 223.21 136.722C223.239 137.111 223.239 137.502 223.21 137.891V138.002C223.209 138.398 223.181 138.793 223.127 139.185C223.127 139.254 223.127 139.31 223.127 139.365C223.127 139.769 222.988 140.172 222.89 140.59C222.895 140.664 222.895 140.738 222.89 140.812C222.784 141.246 222.654 141.673 222.501 142.092L222.417 142.315C222.238 142.789 222.034 143.253 221.805 143.706C221.111 145.077 220.257 146.362 219.26 147.532C219.106 147.714 219.007 147.937 218.976 148.174C218.944 148.41 218.981 148.651 219.082 148.867C219.183 149.084 219.344 149.267 219.545 149.395C219.747 149.523 219.981 149.591 220.219 149.59C220.4 149.591 220.579 149.551 220.742 149.474C220.906 149.397 221.05 149.285 221.165 149.145C222.247 147.863 223.18 146.463 223.948 144.972C224.903 145.446 225.955 145.693 227.022 145.695C228.8 145.695 230.506 144.989 231.764 143.731C233.021 142.474 233.727 140.768 233.727 138.99C233.727 137.211 233.021 135.506 231.764 134.248C230.506 132.991 228.8 132.285 227.022 132.285L226.994 132.368Z" fill="#321951"/>
<path d="M237.386 166.604C236.392 166.598 235.4 166.686 234.423 166.869C234.1 166.942 233.818 167.139 233.639 167.417C233.46 167.695 233.396 168.033 233.463 168.357C233.497 168.519 233.564 168.673 233.658 168.81C233.753 168.946 233.873 169.062 234.013 169.151C234.153 169.241 234.309 169.301 234.473 169.33C234.636 169.358 234.803 169.354 234.965 169.317C235.911 169.153 236.872 169.088 237.831 169.122H238.207H238.707H238.944C239.494 169.18 240.038 169.282 240.572 169.428H240.738L241.392 169.637L241.671 169.762L242.199 169.985L242.547 170.166L242.978 170.416L243.382 170.694C244.134 171.218 244.781 171.879 245.288 172.642C245.405 172.809 245.562 172.946 245.743 173.04C245.925 173.135 246.126 173.184 246.331 173.185C246.578 173.184 246.82 173.112 247.026 172.976C247.163 172.884 247.279 172.765 247.37 172.628C247.46 172.491 247.523 172.337 247.554 172.176C247.585 172.014 247.583 171.848 247.55 171.687C247.517 171.526 247.453 171.373 247.36 171.237C246.793 170.393 246.104 169.639 245.315 168.997C245.973 168.219 246.333 167.233 246.331 166.215C246.331 165.027 245.859 163.887 245.019 163.047C244.179 162.207 243.039 161.735 241.851 161.735C240.663 161.735 239.524 162.207 238.684 163.047C237.844 163.887 237.372 165.027 237.372 166.215C237.302 166.451 237.386 166.521 237.386 166.604Z" fill="#321951"/>
<path d="M264.666 151.593C264.677 152.788 264.924 153.969 265.391 155.069C265.858 156.169 266.538 157.165 267.39 158.002C268.243 158.84 269.252 159.501 270.36 159.948C271.468 160.395 272.653 160.619 273.848 160.608C275.192 160.609 276.521 160.32 277.743 159.76C278.026 160.804 278.384 161.827 278.814 162.82C278.911 163.042 279.071 163.232 279.273 163.365C279.476 163.498 279.713 163.57 279.955 163.571C280.132 163.567 280.307 163.53 280.47 163.46C280.771 163.326 281.008 163.078 281.128 162.771C281.247 162.463 281.241 162.121 281.11 161.818C280.65 160.757 280.283 159.659 280.011 158.535C279.913 158.146 279.844 157.77 279.774 157.395C279.705 157.019 279.649 156.796 279.607 156.504C279.566 156.212 279.607 156.101 279.607 155.906C279.183 151.397 280.155 146.866 282.39 142.927C282.574 142.65 282.641 142.311 282.576 141.985C282.511 141.659 282.319 141.372 282.042 141.188C281.905 141.096 281.751 141.033 281.59 141.001C281.428 140.969 281.262 140.969 281.1 141.001C280.774 141.067 280.487 141.259 280.303 141.535C279.77 142.349 279.305 143.205 278.912 144.095C277.54 143.179 275.946 142.648 274.298 142.56C272.651 142.471 271.01 142.828 269.547 143.592C268.084 144.355 266.854 145.499 265.986 146.902C265.117 148.305 264.642 149.916 264.611 151.566L264.666 151.593Z" fill="#321951"/>
<path d="M205 171C203.844 170.554 202.646 170.228 201.424 170.027C201.096 169.987 200.766 170.079 200.505 170.282C200.245 170.486 200.075 170.784 200.033 171.112C199.998 171.439 200.091 171.768 200.294 172.027C200.496 172.287 200.792 172.458 201.118 172.503C204.572 173.05 207.733 174.764 210.077 177.358L210.189 177.483C210.397 177.747 210.606 178.053 210.801 178.346L211.01 178.666C211.163 178.93 211.302 179.222 211.441 179.5C211.58 179.779 211.622 179.862 211.691 180.043C212.07 180.935 212.34 181.869 212.498 182.825C212.542 183.121 212.691 183.392 212.919 183.586C213.147 183.78 213.437 183.886 213.736 183.882H213.917C214.24 183.834 214.531 183.662 214.728 183.402C214.926 183.142 215.014 182.815 214.974 182.491C214.812 181.505 214.556 180.536 214.209 179.598C214.209 179.598 214.209 179.514 214.209 179.459C215.382 178.943 216.38 178.099 217.081 177.027C217.783 175.955 218.158 174.702 218.16 173.421C218.136 171.859 217.572 170.354 216.566 169.16C215.559 167.966 214.17 167.156 212.635 166.868C211.1 166.58 209.513 166.831 208.142 167.579C206.771 168.327 205.7 169.526 205.111 170.973L205 171Z" fill="#321951"/>
<path d="M254.817 102.792H256.013H256.458H256.778L257.391 102.876H257.585L258.476 103.057H258.643L259.547 103.293H259.742C260.048 103.39 260.368 103.488 260.701 103.613H260.896L262.009 104.072H262.107C262.965 104.466 263.788 104.932 264.569 105.463C264.68 105.463 264.791 105.63 264.903 105.714C265.014 105.797 265.473 106.159 265.751 106.395C266.367 106.923 266.944 107.495 267.476 108.106C267.593 108.244 267.737 108.356 267.901 108.432C268.064 108.509 268.242 108.55 268.422 108.552C268.724 108.554 269.017 108.445 269.243 108.246C269.492 108.03 269.646 107.726 269.672 107.398C269.698 107.07 269.594 106.745 269.382 106.493C268.841 106.018 268.274 105.572 267.685 105.157L267.476 104.99C267.694 104.417 267.807 103.809 267.81 103.196C267.763 101.995 267.329 100.842 266.573 99.9088C265.816 98.9755 264.778 98.3121 263.613 98.0177C262.448 97.7234 261.22 97.8139 260.11 98.2758C259.001 98.7377 258.072 99.5462 257.46 100.58C256.608 100.46 255.747 100.414 254.886 100.441H254.803C254.647 100.451 254.496 100.494 254.358 100.566C254.249 100.625 254.151 100.7 254.066 100.789C254.066 100.789 254.066 100.789 253.982 100.789C253.868 100.908 253.78 101.051 253.725 101.207C253.67 101.363 253.649 101.528 253.662 101.693C253.697 101.982 253.831 102.25 254.042 102.45C254.253 102.651 254.527 102.772 254.817 102.792Z" fill="#321951"/>
<path d="M282.432 121.851C283.095 122.249 283.715 122.715 284.282 123.242C285.741 124.574 286.894 126.207 287.662 128.027V128.111C287.801 128.445 287.927 128.793 288.052 129.154C288.044 129.205 288.044 129.257 288.052 129.307C288.149 129.669 288.247 130.031 288.344 130.42C288.608 131.584 288.744 132.774 288.747 133.968C288.747 134.3 288.879 134.618 289.114 134.853C289.349 135.088 289.667 135.22 289.999 135.22C290.331 135.22 290.65 135.088 290.885 134.853C291.12 134.618 291.251 134.3 291.251 133.968C291.252 132.634 291.107 131.305 290.82 130.003C291.788 129.668 292.627 129.042 293.223 128.209C293.818 127.377 294.141 126.38 294.145 125.356C294.13 124.026 293.589 122.755 292.641 121.822C291.692 120.888 290.412 120.369 289.081 120.376C287.946 120.38 286.845 120.762 285.951 121.461C285.214 120.76 284.397 120.148 283.517 119.639C283.226 119.494 282.891 119.467 282.582 119.564C282.272 119.662 282.013 119.875 281.857 120.16C281.702 120.445 281.664 120.779 281.75 121.092C281.837 121.405 282.041 121.672 282.32 121.837L282.432 121.851Z" fill="#321951"/>
<path d="M287.468 175.828C287.145 175.753 286.805 175.809 286.524 175.983C286.242 176.158 286.041 176.437 285.965 176.76C285.792 177.369 285.573 177.964 285.311 178.54C284.71 177.66 283.903 176.94 282.96 176.443C282.016 175.946 280.966 175.687 279.9 175.689C279.05 175.683 278.208 175.845 277.421 176.165C276.634 176.485 275.918 176.957 275.313 177.554C274.709 178.151 274.228 178.861 273.898 179.643C273.567 180.426 273.395 181.266 273.389 182.116C273.393 183.192 273.671 184.25 274.197 185.189C274.723 186.129 275.479 186.919 276.394 187.486C276.005 187.666 275.615 187.847 275.184 188.014C274.91 188.119 274.682 188.317 274.539 188.574C274.397 188.83 274.348 189.128 274.403 189.416C274.458 189.704 274.612 189.964 274.838 190.15C275.065 190.336 275.35 190.437 275.643 190.435C275.799 190.433 275.955 190.405 276.102 190.351C276.877 190.041 277.634 189.688 278.369 189.294C278.495 189.294 278.592 189.155 278.717 189.085C279.121 188.863 279.51 188.64 279.886 188.404L280.289 188.139C280.693 187.875 281.068 187.597 281.43 187.319L281.694 187.11C282.084 186.804 282.459 186.484 282.821 186.15L282.932 186.053C285.495 183.696 287.366 180.685 288.344 177.344C288.425 177.027 288.379 176.691 288.215 176.407C288.051 176.124 287.783 175.916 287.468 175.828Z" fill="#321951"/>
<path d="M255.374 193.746C254.622 194.11 253.846 194.422 253.051 194.678C253.298 193.957 253.424 193.2 253.426 192.438C253.343 190.529 252.527 188.725 251.147 187.404C249.766 186.082 247.929 185.344 246.018 185.344C244.107 185.344 242.27 186.082 240.89 187.404C239.51 188.725 238.693 190.529 238.61 192.438C238.617 192.764 238.645 193.089 238.694 193.412C238.07 193.037 237.471 192.624 236.899 192.174C236.639 192.001 236.323 191.932 236.014 191.98C235.705 192.028 235.425 192.191 235.229 192.435C235.034 192.679 234.937 192.988 234.958 193.3C234.978 193.612 235.115 193.905 235.341 194.121C236.336 194.917 237.408 195.611 238.541 196.194L238.916 196.375C239.459 196.639 240.002 196.862 240.53 197.071L240.781 197.154C242.756 197.851 244.835 198.208 246.929 198.211C250.267 198.191 253.557 197.421 256.556 195.958C256.85 195.801 257.069 195.534 257.165 195.216C257.262 194.897 257.228 194.554 257.071 194.26C256.914 193.967 256.647 193.748 256.329 193.652C256.011 193.555 255.667 193.589 255.374 193.746Z" fill="#321951"/>
<path d="M198.044 148.199C198.196 148.196 198.347 148.168 198.489 148.116C198.797 147.994 199.044 147.758 199.18 147.456C199.315 147.155 199.327 146.812 199.213 146.502C198.925 145.749 198.688 144.977 198.503 144.193C199.038 144.339 199.59 144.413 200.145 144.415C200.95 144.454 201.755 144.329 202.51 144.048C203.266 143.767 203.956 143.335 204.54 142.779C205.123 142.223 205.588 141.554 205.906 140.813C206.223 140.072 206.387 139.274 206.387 138.468C206.387 137.662 206.223 136.864 205.906 136.123C205.588 135.382 205.123 134.713 204.54 134.157C203.956 133.601 203.266 133.169 202.51 132.888C201.755 132.607 200.95 132.482 200.145 132.521C199.913 132.506 199.681 132.506 199.449 132.521C199.731 131.868 200.066 131.24 200.451 130.643C200.578 130.373 200.605 130.067 200.526 129.779C200.448 129.492 200.269 129.241 200.023 129.074C199.776 128.906 199.478 128.832 199.182 128.864C198.885 128.897 198.61 129.034 198.406 129.252C196.749 131.934 195.746 134.969 195.478 138.11C195.21 141.252 195.684 144.412 196.862 147.337C196.945 147.585 197.104 147.802 197.316 147.956C197.528 148.111 197.782 148.195 198.044 148.199Z" fill="#321951"/>
<path d="M248.515 118.262C247.757 119.299 247.352 120.552 247.36 121.837C247.398 123.356 247.984 124.81 249.01 125.931C250.037 127.051 251.434 127.762 252.944 127.931C254.455 128.101 255.975 127.718 257.225 126.854C258.474 125.989 259.368 124.701 259.742 123.228H260.103C260.924 123.231 261.742 123.166 262.552 123.033C262.88 122.98 263.174 122.798 263.368 122.528C263.563 122.258 263.642 121.922 263.588 121.594C263.535 121.265 263.353 120.971 263.083 120.777C262.813 120.583 262.477 120.504 262.148 120.557C261.302 120.687 260.444 120.729 259.589 120.682C259.32 120.697 259.051 120.697 258.782 120.682L258.031 120.571L257.558 120.46L256.653 120.237H256.473C253.326 119.086 250.568 117.071 248.515 114.422C248.441 114.254 248.33 114.104 248.192 113.984C248.053 113.863 247.889 113.775 247.712 113.724C247.536 113.674 247.35 113.664 247.168 113.693C246.987 113.723 246.814 113.792 246.663 113.896C246.511 114 246.384 114.136 246.291 114.294C246.198 114.453 246.141 114.63 246.124 114.813C246.107 114.996 246.13 115.18 246.192 115.353C246.255 115.526 246.354 115.683 246.484 115.813C247.089 116.687 247.768 117.506 248.515 118.262Z" fill="#321951"/>
<path d="M316.751 273.278C316.944 273.395 317.165 273.458 317.391 273.459C317.61 273.459 317.824 273.403 318.014 273.295C318.204 273.188 318.364 273.033 318.476 272.846C320.595 269.308 323.593 266.377 327.178 264.339C330.764 262.302 334.816 261.226 338.94 261.216C339.272 261.216 339.591 261.085 339.825 260.85C340.06 260.615 340.192 260.296 340.192 259.964C340.192 259.632 340.06 259.314 339.825 259.079C339.591 258.844 339.272 258.712 338.94 258.712C334.381 258.722 329.903 259.911 325.939 262.164C321.975 264.416 318.662 267.655 316.32 271.567C316.151 271.851 316.102 272.191 316.183 272.511C316.264 272.832 316.468 273.107 316.751 273.278Z" fill="#321951"/>
<path d="M390.134 278.049C394.689 279.785 398.4 283.207 400.498 287.607C400.599 287.82 400.759 288 400.958 288.126C401.158 288.251 401.389 288.318 401.625 288.316C401.813 288.315 401.998 288.272 402.168 288.191C402.464 288.044 402.691 287.787 402.8 287.475C402.909 287.163 402.892 286.821 402.752 286.522C400.376 281.546 396.177 277.676 391.025 275.712C390.714 275.598 390.372 275.61 390.07 275.746C389.769 275.881 389.532 276.128 389.411 276.436C389.351 276.589 389.322 276.753 389.326 276.917C389.329 277.082 389.366 277.244 389.434 277.395C389.501 277.545 389.598 277.68 389.718 277.793C389.838 277.905 389.98 277.992 390.134 278.049Z" fill="#321951"/>
<path d="M237.622 21.0479C238.808 21.0479 239.967 20.6962 240.953 20.0374C241.939 19.3786 242.708 18.4421 243.162 17.3465C243.616 16.2509 243.734 15.0454 243.503 13.8823C243.272 12.7192 242.701 11.6508 241.862 10.8123C241.023 9.97377 239.955 9.40272 238.792 9.17136C237.629 8.94001 236.423 9.05875 235.328 9.51256C234.232 9.96638 233.296 10.7349 232.637 11.7209C231.978 12.7069 231.626 13.8661 231.626 15.052C231.63 16.6411 232.263 18.164 233.387 19.2877C234.51 20.4113 236.033 21.0442 237.622 21.0479Z" fill="#321951"/>
<path d="M255.471 19.8241C256.415 19.8241 257.337 19.5442 258.122 19.0199C258.907 18.4956 259.518 17.7503 259.879 16.8784C260.24 16.0065 260.335 15.0471 260.151 14.1215C259.967 13.1959 259.512 12.3457 258.845 11.6783C258.178 11.011 257.327 10.5566 256.402 10.3724C255.476 10.1883 254.517 10.2828 253.645 10.644C252.773 11.0051 252.028 11.6167 251.503 12.4014C250.979 13.1861 250.699 14.1087 250.699 15.0524C250.703 16.3168 251.207 17.5284 252.101 18.4224C252.995 19.3165 254.206 19.8204 255.471 19.8241Z" fill="#321951"/>
</g>
<defs>
<clipPath id="clip0_2051_111550">
<rect width="504" height="339.316" fill="white"/>
</clipPath>
</defs>
</svg>
