<svg width="504" height="337" viewBox="0 0 504 337" fill="none" xmlns="http://www.w3.org/2000/svg">
<path d="M158.262 335.481C157.847 335.481 157.295 335.481 156.881 335.481H156.743C154.534 335.481 152.462 335.068 150.667 334.24H3.75683C3.06646 334.24 2.51416 334.792 2.51416 335.481C2.51416 336.171 3.06646 336.723 3.75683 336.723H159.504C159.228 336.723 158.814 336.585 158.676 336.309C158.4 336.171 158.262 335.895 158.262 335.481Z" fill="black"/>
<path d="M501.375 334.24H408.175C405.276 335.344 401.962 336.033 398.648 336.033H315.113C314.009 336.171 312.904 336.309 311.661 336.309H181.458C174.416 336.309 159.78 336.723 159.642 336.723H501.513C502.203 336.723 502.756 336.171 502.756 335.481C502.756 334.792 502.065 334.24 501.375 334.24Z" fill="black"/>
<path d="M311.662 2.69287H296.336C294.817 2.69287 293.574 3.79665 293.574 5.17637V8.21176C293.574 12.9028 289.57 16.766 284.599 16.766H208.383C203.412 16.766 199.408 12.9028 199.408 8.21176V5.17637C199.408 3.79665 198.165 2.69287 196.646 2.69287H181.458C169.998 2.69287 160.747 11.3851 160.747 22.1469V219.309C186.843 220.551 211.144 231.451 229.37 250.353C231.027 252.147 231.993 254.492 231.993 256.838C231.993 259.321 230.889 261.529 229.094 263.184C227.299 264.84 225.09 265.668 222.604 265.668C220.119 265.668 217.634 264.702 215.977 262.77C201.203 247.593 181.734 238.763 160.885 237.521V246.904C179.387 248.145 196.508 256.01 209.487 269.393C211.144 271.187 212.111 273.532 212.111 275.878C212.111 278.361 211.006 280.569 209.211 282.224C207.416 283.88 205.207 284.708 202.86 284.708C200.374 284.708 198.027 283.742 196.232 281.949C186.843 272.29 174.416 266.358 161.023 265.116V274.498C171.931 275.74 182.01 280.569 189.743 288.571C191.399 290.365 192.366 292.71 192.366 295.056C192.366 297.539 191.261 299.747 189.466 301.403C187.671 303.058 185.462 303.886 183.115 303.886H182.977C180.492 303.886 178.006 302.92 176.349 300.989C172.207 296.712 166.96 293.952 161.161 292.848V303.472C164.061 304.162 166.822 305.68 168.893 307.749C171.931 310.785 173.588 314.786 173.588 319.063C173.588 325.548 169.446 331.205 163.785 333.688C168.755 333.55 177.04 333.274 181.734 333.274H304.482C295.783 329.549 289.708 321.271 289.708 311.751C289.708 302.368 295.783 293.814 304.896 289.951C304.344 287.467 304.068 284.984 304.068 282.362C304.068 265.254 316.494 251.181 332.649 248.283V22.1469C332.373 11.3851 323.122 2.69287 311.662 2.69287Z" fill="#F1E6FF"/>
<path d="M157.019 305.956C149.287 305.956 143.074 312.026 143.074 319.339C143.074 326.789 149.149 332.998 156.881 332.998L157.019 334.24V332.998C164.613 332.998 170.827 326.927 170.965 319.615C170.965 316.028 169.584 312.578 166.961 309.957C164.199 307.335 160.747 305.956 157.019 305.956Z" fill="#00DA9C"/>
<path d="M155.915 276.981H155.5C144.178 276.981 133.271 281.259 124.986 288.985C123.605 290.227 122.915 291.882 122.915 293.676C122.915 295.47 123.605 297.125 124.848 298.367C126.091 299.747 127.886 300.437 129.819 300.437C131.614 300.437 133.271 299.747 134.513 298.643C140.174 293.262 147.768 290.365 155.5 290.365H155.777C164.061 290.365 171.931 293.814 177.73 299.747C178.973 301.127 180.768 301.816 182.701 301.816V303.058V301.816C184.496 301.816 186.153 301.127 187.396 300.023C188.776 298.781 189.467 297.125 189.467 295.332C189.467 293.538 188.914 291.882 187.534 290.641C179.249 281.948 168.065 277.119 155.915 276.981Z" fill="#00DA9C"/>
<path d="M156.053 249.387H155.5C136.722 249.387 118.773 256.562 105.242 269.531C103.999 270.773 103.17 272.429 103.17 274.222C103.17 276.016 103.861 277.672 105.103 278.913C106.346 280.155 108.141 280.983 109.936 280.983C111.731 280.983 113.388 280.293 114.769 279.051C125.676 268.565 140.174 262.771 155.362 262.771H155.777C171.655 262.908 186.429 269.255 197.475 280.569C198.718 281.949 200.512 282.639 202.446 282.639V283.88V282.639C204.24 282.639 205.897 281.949 207.14 280.845C208.521 279.603 209.211 277.947 209.211 276.154C209.211 274.36 208.659 272.705 207.278 271.463C194.023 257.39 175.659 249.525 156.053 249.387Z" fill="#00DA9C"/>
<path d="M227.575 252.146C208.797 232.83 183.391 221.93 156.329 221.792H155.5C129.128 221.792 104.275 231.864 85.4969 250.077C84.2542 251.319 83.4258 252.974 83.4258 254.768C83.4258 256.561 84.1162 258.217 85.3588 259.459C86.6015 260.701 88.3964 261.391 90.1914 261.391C91.9864 261.391 93.7813 260.701 95.024 259.459C111.317 243.73 132.718 235.038 155.362 235.038H156.053C179.387 235.176 201.203 244.558 217.496 261.253C218.738 262.632 220.533 263.322 222.466 263.322V264.564V263.322C224.261 263.322 225.918 262.632 227.161 261.529C228.541 260.287 229.232 258.631 229.232 256.837C229.508 255.044 228.818 253.388 227.575 252.146Z" fill="#00DA9C"/>
<path d="M409.142 293.262C408.728 293.124 408.451 292.71 408.451 292.158C407.899 277.809 396.301 266.633 382.079 266.633C377.661 266.633 373.243 267.737 369.376 269.945C369.1 270.083 368.686 270.083 368.41 270.083C368.134 269.945 367.858 269.669 367.72 269.393C362.473 258.079 351.013 250.767 338.586 250.767C320.912 250.767 306.415 265.116 306.415 282.914C306.415 285.674 306.691 288.295 307.381 290.917C307.519 291.468 307.243 292.158 306.553 292.434C297.854 295.608 291.917 303.61 291.917 312.302C291.917 324.03 302.134 333.55 314.837 333.55H398.786C411.351 333.55 421.706 324.03 421.706 312.302C421.568 304.3 416.874 296.987 409.142 293.262Z" fill="#8B6FE2"/>
<path d="M360.954 314.372C360.54 314.235 360.264 313.683 360.264 313.269V288.848C360.264 287.192 358.745 285.95 356.812 285.95C354.879 285.95 353.36 287.192 353.36 288.848V313.407C353.36 313.959 353.084 314.372 352.67 314.51C352.255 314.648 351.703 314.648 351.289 314.372L342.314 306.508C341.624 305.956 340.795 305.68 339.829 305.68C338.862 305.68 338.034 305.956 337.343 306.646C336.791 307.198 336.377 307.888 336.377 308.578C336.377 309.267 336.653 310.095 337.343 310.509L354.189 325.41C354.879 325.962 355.707 326.238 356.674 326.238H356.812C357.778 326.238 358.607 325.962 359.297 325.41L376.142 310.509C376.695 309.957 377.109 309.267 377.109 308.578C377.109 307.888 376.833 307.06 376.142 306.646C374.9 305.542 372.552 305.542 371.172 306.646L362.335 314.51C361.921 314.51 361.368 314.648 360.954 314.372Z" fill="white"/>
<path d="M305 151.264C305.932 151.264 304.292 151.278 304.153 151.416C303.739 151.968 303.552 152.04 303 151.764C302.448 151.35 302.724 150.816 303 150.264C308.799 141.296 302.635 128.65 298.078 120.096C295.731 115.405 289.656 105.333 282.338 102.436C282.476 102.85 282.2 103.402 281.924 103.677C281.371 104.091 280.681 103.953 280.267 103.402L278.61 101.194C269.359 90.2942 256.518 90.1562 250.581 90.7081C250.581 90.9841 250.581 91.26 250.443 91.398C250.167 91.9499 249.476 92.3638 248.786 92.0878L246.991 91.398C239.121 88.9145 223.656 90.7081 211.92 100.918C208.882 103.54 205.983 106.989 204.05 110.024C204.188 110.024 204.464 109.886 204.74 109.886C205.431 109.748 205.983 110.162 206.259 110.714C206.397 111.404 206.121 112.094 205.431 112.232L203.498 112.784C197.422 115.267 194.385 121.89 192.037 128.099C189.414 134.859 188.724 140.654 189.966 145.483V145.345C190.242 144.793 190.933 144.517 191.623 144.793C192.176 145.069 192.59 145.759 192.314 146.311L191.071 149.484C189.276 156.107 191.209 163.144 194.523 168.386C194.661 167.835 195.351 167.421 195.904 167.559C196.594 167.697 197.008 168.248 196.87 168.938L196.594 171.008C196.456 177.217 203.083 183.563 206.121 186.185C212.472 191.566 222.276 199.154 233.736 201.224C235.255 201.5 236.635 201.638 237.74 201.5C237.464 201.362 237.326 201.086 237.05 200.948C236.497 200.534 236.497 199.706 236.911 199.292C237.326 198.74 238.154 198.74 238.568 199.154L240.087 200.396C246.853 204.949 258.865 203.627 266.597 199.764C265.907 199.626 265.079 198.602 265.217 197.912C265.355 197.223 265.914 197.07 266.466 197.208H266.966C268.966 197.708 279.797 198.165 292.5 183.264C305.479 168.915 305.552 156.921 305 151.264Z" fill="#FBC22D"/>
<path d="M410.937 291.469C409.97 276.154 397.543 264.288 382.079 264.288C377.661 264.288 373.242 265.254 369.376 267.324C363.439 255.734 351.565 248.422 338.448 248.422C337.205 248.422 336.101 248.422 334.996 248.56V22.2852C334.996 10.1437 324.64 0.347656 311.8 0.347656H181.458C168.755 0.347656 158.261 10.1437 158.261 22.2852V219.447C157.571 219.447 157.019 219.447 156.328 219.447H155.5C128.576 219.447 103.032 229.795 83.8396 248.422C82.0446 250.077 81.0781 252.423 81.0781 254.906C81.0781 257.39 82.0446 259.597 83.8396 261.391C85.6346 263.185 87.9818 264.15 90.4671 264.15C92.9525 264.15 95.2997 263.185 96.9566 261.529C112.697 246.214 133.546 237.798 155.5 237.798H156.19C156.881 237.798 157.571 237.798 158.261 237.798V247.18C157.571 247.18 156.881 247.18 156.19 247.18H155.638C136.17 247.18 117.668 254.63 103.722 268.014C101.927 269.669 100.961 272.015 100.961 274.498C100.961 276.982 101.927 279.189 103.584 280.983C105.379 282.777 107.726 283.742 110.212 283.742C112.697 283.742 115.044 282.777 116.701 281.121C127.195 271.049 141.002 265.53 155.638 265.53H156.052C156.743 265.53 157.571 265.53 158.261 265.668V275.05C157.433 275.05 156.743 275.05 155.914 274.912H155.5C143.488 274.912 132.027 279.465 123.329 287.606C121.534 289.261 120.567 291.607 120.429 293.952C120.429 296.436 121.258 298.781 123.053 300.437C124.848 302.231 127.195 303.197 129.818 303.197C132.165 303.197 134.513 302.369 136.308 300.713C141.554 295.746 148.458 293.125 155.638 293.125H155.914C156.743 293.125 157.571 293.125 158.4 293.263V303.748C157.985 303.748 157.433 303.611 157.019 303.611C148.044 303.611 140.726 310.785 140.726 319.477C140.726 326.238 144.868 332.033 150.805 334.378C152.738 335.206 154.81 335.62 156.881 335.62H157.019C157.433 335.62 157.985 335.62 158.4 335.62V335.758C158.4 336.034 158.538 336.448 158.814 336.586C159.09 336.862 159.366 337 159.642 337C159.78 337 174.554 336.586 181.458 336.586H311.8C312.904 336.586 314.147 336.448 315.251 336.31H398.786C402.1 336.31 405.414 335.62 408.313 334.516C417.564 330.929 424.192 322.513 424.192 312.441C424.054 303.611 419.083 295.608 410.937 291.469ZM156.19 235.038H155.5C132.856 235.038 111.454 243.731 95.1617 259.459C93.919 260.701 92.124 261.391 90.3291 261.391C88.5341 261.391 86.7392 260.701 85.4965 259.459C84.2538 258.218 83.5634 256.562 83.5634 254.768C83.5634 252.975 84.2538 251.319 85.6346 250.077C104.413 231.865 129.266 221.793 155.638 221.793H156.466C183.529 222.069 208.935 232.831 227.713 252.147C228.955 253.389 229.646 255.182 229.646 256.838C229.646 258.632 228.817 260.287 227.575 261.529C226.332 262.771 224.675 263.323 222.88 263.323V264.564V263.323C220.947 263.323 219.29 262.633 217.909 261.253C201.479 244.558 179.525 235.176 156.19 235.038ZM156.052 262.771H155.638C140.45 262.771 125.952 268.566 115.044 279.051C113.802 280.293 112.007 280.983 110.212 280.983C108.417 280.983 106.622 280.293 105.379 278.913C104.136 277.672 103.446 276.016 103.446 274.222C103.446 272.429 104.136 270.773 105.517 269.531C119.048 256.562 136.86 249.387 155.776 249.387H156.328C175.935 249.525 194.161 257.39 207.83 271.325C209.073 272.567 209.763 274.222 209.763 276.016C209.763 277.81 208.935 279.465 207.692 280.707C206.449 281.949 204.792 282.501 202.997 282.501V283.742V282.501C201.202 282.501 199.407 281.811 198.027 280.431C186.567 269.117 171.793 262.909 156.052 262.771ZM155.776 290.365H155.5C147.63 290.365 140.174 293.263 134.513 298.643C133.27 299.885 131.613 300.437 129.818 300.437C127.885 300.437 126.228 299.747 124.848 298.368C123.605 297.126 122.915 295.47 122.915 293.677C122.915 291.883 123.743 290.227 124.986 288.985C133.27 281.259 144.178 276.982 155.5 276.982H155.914C168.065 277.12 179.249 281.949 187.671 290.503C188.914 291.745 189.604 293.539 189.604 295.194C189.604 296.988 188.776 298.644 187.533 299.885C186.29 301.127 184.634 301.679 182.839 301.679V302.921V301.679C180.906 301.679 179.249 300.989 177.868 299.609C171.931 293.676 164.061 290.365 155.776 290.365ZM156.881 332.999V334.24V332.999C149.149 332.999 142.935 326.79 142.935 319.339C142.935 311.889 149.287 305.956 156.881 305.956C160.609 305.956 164.061 307.474 166.684 309.957C169.307 312.579 170.688 315.89 170.688 319.615C170.688 326.928 164.475 332.999 156.881 332.999ZM181.458 333.826C176.763 333.826 168.341 334.102 163.508 334.24C169.307 331.757 173.311 326.238 173.311 319.615C173.311 315.338 171.655 311.337 168.617 308.302C166.408 306.094 163.784 304.714 160.885 304.024V293.401C166.684 294.504 171.931 297.264 176.073 301.541C177.868 303.335 180.215 304.3 182.701 304.438H182.839C185.186 304.438 187.533 303.611 189.19 301.955C190.985 300.299 192.09 297.954 192.09 295.608C192.09 293.125 191.261 290.917 189.466 289.123C181.734 281.121 171.655 276.292 160.747 275.05V265.668C174.14 266.91 186.429 272.705 195.956 282.501C197.751 284.294 200.098 285.26 202.583 285.26C204.93 285.26 207.278 284.432 208.935 282.777C210.73 281.121 211.834 278.776 211.834 276.43C211.834 273.947 211.006 271.601 209.211 269.945C196.232 256.562 179.111 248.698 160.609 247.456V238.074C181.596 239.315 201.064 248.146 215.7 263.323C217.495 265.116 219.842 266.082 222.328 266.22C224.813 266.22 227.022 265.392 228.817 263.737C230.612 262.081 231.717 259.735 231.717 257.39C231.717 254.906 230.888 252.561 229.093 250.905C210.868 232.141 186.567 221.241 160.471 219.861V22.1473C160.471 11.3854 169.722 2.69318 181.182 2.69318H196.646C198.165 2.69318 199.407 3.79696 199.407 5.17668V8.21207C199.407 12.9031 203.412 16.7663 208.382 16.7663H284.599C289.57 16.7663 293.574 12.9031 293.574 8.21207V5.17668C293.574 3.79696 294.817 2.69318 296.335 2.69318H311.662C323.122 2.69318 332.373 11.3854 332.373 22.1473V248.836C316.08 251.733 303.791 265.944 303.791 282.915C303.791 285.398 304.067 288.02 304.62 290.503C295.507 294.228 289.432 302.921 289.432 312.303C289.432 321.823 295.507 330.101 304.206 333.826H181.458ZM398.648 333.55H314.699C302.134 333.55 291.779 324.03 291.779 312.303C291.779 303.611 297.716 295.608 306.415 292.435C306.967 292.159 307.381 291.607 307.243 290.917C306.553 288.296 306.277 285.674 306.277 282.915C306.277 265.254 320.636 250.767 338.448 250.767C350.875 250.767 362.473 258.08 367.581 269.393C367.72 269.669 367.996 269.945 368.272 270.083C368.548 270.221 368.962 270.221 369.238 269.945C373.104 267.876 377.523 266.634 381.941 266.634C396.301 266.634 407.899 277.81 408.313 292.159C408.313 292.573 408.589 292.987 409.004 293.263C416.598 296.988 421.43 304.162 421.43 312.165C421.568 324.03 411.351 333.55 398.648 333.55Z" fill="#321951"/>
<path d="M202.721 30.0113H280.043C280.733 30.0113 281.285 29.4594 281.285 28.7696C281.285 28.0797 280.733 27.5278 280.043 27.5278H202.721C202.031 27.5278 201.479 28.0797 201.479 28.7696C201.479 29.4594 202.031 30.0113 202.721 30.0113Z" fill="#321951"/>
<path d="M268.445 319.201H200.512C199.822 319.201 199.27 319.753 199.27 320.443C199.27 321.133 199.822 321.685 200.512 321.685H268.445C269.135 321.685 269.687 321.133 269.687 320.443C269.687 319.753 269.135 319.201 268.445 319.201Z" fill="#321951"/>
<path d="M218.185 312.855H242.486C243.176 312.855 243.729 312.303 243.729 311.613C243.729 310.923 243.176 310.371 242.486 310.371H218.185C217.495 310.371 216.942 310.923 216.942 311.613C216.942 312.303 217.495 312.855 218.185 312.855Z" fill="#321951"/>
<path d="M231.302 34.1504C230.612 34.1504 230.06 34.7023 230.06 35.3921C230.06 36.082 230.612 36.6339 231.302 36.6339H251.323C252.013 36.6339 252.566 36.082 252.566 35.3921C252.566 34.7023 252.013 34.1504 251.323 34.1504H231.302Z" fill="#321951"/>
<path d="M369.515 304.439L362.749 310.509V288.848C362.749 285.95 360.126 283.467 356.812 283.467C353.498 283.467 350.875 285.812 350.875 288.848V310.647L343.971 304.577C341.762 302.645 337.896 302.645 335.687 304.577C334.582 305.542 333.892 306.922 333.892 308.44C333.892 309.957 334.582 311.199 335.687 312.303L352.532 327.204C353.636 328.17 355.155 328.722 356.674 328.722H356.812C358.331 328.722 359.849 328.17 360.954 327.204L377.799 312.303C378.904 311.337 379.594 309.957 379.594 308.44C379.594 306.922 378.904 305.542 377.799 304.577C375.452 302.507 371.724 302.507 369.515 304.439ZM376.004 310.371L359.297 325.272C358.607 325.824 357.778 326.1 356.812 326.1H356.674C355.707 326.1 354.879 325.824 354.188 325.272L337.343 310.371C336.791 309.819 336.377 309.13 336.377 308.44C336.377 307.75 336.653 306.922 337.343 306.508C338.034 305.956 338.862 305.542 339.829 305.542C340.795 305.542 341.624 305.818 342.314 306.37L351.289 314.235C351.703 314.511 352.117 314.649 352.67 314.373C353.084 314.235 353.36 313.683 353.36 313.269V288.71C353.36 287.054 354.879 285.812 356.812 285.812C358.745 285.812 360.264 287.054 360.264 288.71V313.131C360.264 313.683 360.54 314.097 360.954 314.235C361.368 314.373 361.921 314.373 362.335 314.097L371.172 306.232C372.414 305.128 374.761 305.128 376.142 306.232C376.694 306.784 377.109 307.474 377.109 308.164C376.971 309.13 376.694 309.819 376.004 310.371Z" fill="#321951"/>
<path d="M293.159 184.54C310.557 164.258 306.553 148.806 305.862 146.598C308.624 137.354 303.929 126.454 299.925 118.728C296.335 111.829 289.017 100.239 279.628 98.9976C267.34 84.7865 249.252 87.9598 246.49 88.5117C234.478 85.0624 217.771 91.961 209.901 98.8596C206.587 101.757 202.307 106.586 200.098 111.415C194.437 114.726 191.537 121.211 189.328 127.282C186.014 136.112 185.6 143.287 188.223 149.357C186.29 156.808 188.499 165.638 193.884 172.399C194.575 179.159 201.064 185.506 204.24 188.128C210.867 193.784 220.947 201.511 232.959 203.718C235.997 204.27 238.482 204.132 240.415 203.442C243.315 204.96 246.905 205.512 250.495 205.512C257.674 205.512 265.268 203.029 270.101 199.855C270.239 199.717 270.377 199.717 270.377 199.579C275.21 198.889 283.356 195.992 293.159 184.54ZM267.063 197.096L266.511 196.958C265.821 196.82 265.268 197.234 265.13 197.924C264.992 198.613 265.407 199.165 265.959 199.441C258.365 203.167 246.767 204.96 240.001 200.407L238.482 199.165C237.93 198.751 237.239 198.751 236.825 199.303C236.411 199.855 236.411 200.545 236.963 200.959C237.239 201.097 237.378 201.373 237.654 201.511C236.411 201.649 235.168 201.511 233.65 201.235C222.189 199.027 212.386 191.577 206.035 186.196C202.997 183.575 196.37 177.228 196.508 171.019L196.784 168.949C196.922 168.26 196.37 167.708 195.817 167.57C195.127 167.432 194.575 167.846 194.437 168.398C191.123 163.155 189.052 156.118 190.985 149.495L192.227 146.322C192.504 145.632 192.227 144.942 191.537 144.804C190.985 144.528 190.156 144.804 189.88 145.356V145.494C188.637 140.665 189.328 134.87 191.951 128.11C194.298 121.901 197.336 115.14 203.411 112.795L205.344 112.243C206.035 112.105 206.311 111.415 206.173 110.725C206.035 110.035 205.344 109.621 204.654 109.897C204.378 109.897 204.24 110.035 203.964 110.035C205.897 107 208.796 103.551 211.834 100.929C223.432 90.7193 239.034 88.9256 246.905 91.4091L248.7 92.099C249.39 92.3749 250.08 92.099 250.356 91.4091C250.495 91.1332 250.495 90.8572 250.495 90.7193C256.432 90.0294 269.273 90.3053 278.524 101.205L280.18 103.413C280.595 103.965 281.423 104.103 281.837 103.689C282.252 103.413 282.39 102.861 282.252 102.447C289.569 105.344 295.645 115.416 297.992 120.107C302.41 128.8 307.795 141.217 301.996 150.185C301.582 150.737 301.858 151.565 302.41 151.841C302.963 152.255 303.791 151.979 304.067 151.427C304.205 151.289 304.343 151.013 304.481 150.875C305.034 156.532 304.205 168.536 291.641 183.161C278.524 197.786 269.135 197.372 267.063 197.096Z" fill="#321951"/>
<path d="M227.713 131.559C227.022 131.559 226.194 131.697 225.503 131.973C224.675 129.766 223.57 128.386 223.57 128.386C223.156 127.972 222.328 127.972 221.913 128.386C221.361 128.8 221.361 129.628 221.913 130.18C221.913 130.18 222.742 131.146 223.432 132.939C223.708 133.767 223.985 134.871 224.123 135.975C224.123 136.389 224.123 136.664 224.123 137.078V137.216C224.123 137.63 224.123 138.044 223.985 138.458V138.596C223.985 139.01 223.847 139.424 223.708 139.838C223.708 139.976 223.708 139.976 223.708 140.114C223.57 140.528 223.432 140.942 223.294 141.355C223.294 141.493 223.294 141.493 223.156 141.631C223.018 142.045 222.742 142.597 222.604 143.011C222.052 144.253 221.223 145.495 220.119 146.874C219.704 147.426 219.704 148.116 220.257 148.668C220.533 148.806 220.809 148.944 221.085 148.944C221.499 148.944 221.775 148.806 222.052 148.53C223.294 147.15 224.123 145.771 224.813 144.391C225.78 144.805 226.746 145.081 227.851 145.081C231.579 145.081 234.616 142.045 234.616 138.458C234.478 134.457 231.441 131.559 227.713 131.559Z" fill="#321951"/>
<path d="M238.483 167.984C238.621 167.984 238.759 167.984 238.897 167.984C239.035 167.984 239.173 167.984 239.449 167.984C239.587 167.984 239.587 167.984 239.725 167.984C240.277 167.984 240.83 168.122 241.382 168.26H241.52C241.796 168.26 241.934 168.398 242.211 168.398C242.349 168.398 242.349 168.536 242.487 168.536C242.625 168.674 242.901 168.674 243.039 168.812C243.177 168.812 243.315 168.95 243.315 168.95C243.453 169.088 243.591 169.088 243.729 169.226C243.867 169.364 244.005 169.364 244.144 169.502C244.834 170.054 245.524 170.605 246.077 171.433C246.353 171.847 246.767 171.985 247.043 171.985C247.319 171.985 247.457 171.985 247.733 171.709C248.286 171.295 248.424 170.605 248.01 170.054C247.457 169.088 246.767 168.398 245.939 167.846C246.629 167.156 246.905 166.19 246.905 165.087C246.905 162.741 244.972 160.671 242.487 160.671C240.001 160.671 238.068 162.603 238.068 165.087C238.068 165.224 238.068 165.224 238.068 165.362C236.411 165.362 235.307 165.638 235.169 165.638C234.478 165.776 234.064 166.466 234.202 167.156C234.34 167.846 235.031 168.26 235.721 168.122C235.583 168.122 236.826 167.846 238.483 167.984Z" fill="#321951"/>
<path d="M278.109 158.74C278.385 159.706 278.662 160.809 279.214 161.775C279.352 162.189 279.904 162.465 280.318 162.465C280.457 162.465 280.595 162.465 280.871 162.327C281.561 162.051 281.837 161.361 281.561 160.671C281.009 159.568 280.733 158.464 280.457 157.36C280.318 156.946 280.318 156.67 280.18 156.256C280.18 155.98 280.042 155.704 280.042 155.429C280.042 155.291 280.042 155.015 280.042 154.877C279.352 147.564 282.804 142.045 282.804 142.045C283.218 141.493 283.08 140.666 282.39 140.39C281.837 139.976 281.009 140.114 280.733 140.803C280.595 140.941 280.042 141.907 279.352 143.287C277.833 142.321 276.176 141.769 274.243 141.769C269.273 141.769 265.13 145.77 265.13 150.737C265.13 155.704 269.273 159.706 274.243 159.706C275.624 159.568 277.005 159.154 278.109 158.74Z" fill="#321951"/>
<path d="M212.249 165.638C209.487 165.638 207.002 167.294 206.035 169.777C206.035 169.777 206.035 169.777 205.897 169.777C203.964 169.087 202.445 168.812 202.307 168.812C201.617 168.674 201.065 169.225 200.927 169.915C200.788 170.605 201.341 171.157 202.031 171.295C202.169 171.295 207.554 171.985 210.868 176.124C210.868 176.124 210.868 176.262 211.006 176.262C211.282 176.538 211.42 176.814 211.558 177.09C211.558 177.228 211.696 177.366 211.834 177.366C211.972 177.642 212.111 177.918 212.249 178.194C212.387 178.332 212.387 178.608 212.525 178.746C212.939 179.573 213.215 180.539 213.353 181.505C213.491 182.057 214.044 182.609 214.596 182.609H214.734C215.424 182.471 215.839 181.919 215.839 181.229C215.7 180.125 215.424 179.297 215.01 178.332V178.194C217.357 177.09 218.876 174.882 218.876 172.261C219.014 168.674 215.977 165.638 212.249 165.638Z" fill="#321951"/>
<path d="M217.219 111.553C217.495 111.553 217.91 111.415 218.048 111.139C219.014 110.312 219.981 109.484 220.947 108.794C221.223 108.656 221.5 108.38 221.776 108.242C222.052 108.104 222.328 107.828 222.742 107.69C222.88 107.552 223.157 107.414 223.295 107.414C230.198 103.551 237.516 103.965 237.516 103.965C238.207 103.965 238.759 103.551 238.897 102.861C238.897 102.171 238.483 101.619 237.792 101.481C237.654 101.481 236.135 101.343 233.926 101.619H233.788C232.684 98.7219 229.922 96.6523 226.608 96.6523C222.328 96.6523 218.876 100.102 218.876 104.241C218.876 105.207 219.014 106.172 219.429 107L219.29 107.138C219.29 107.138 219.29 107.138 219.29 107.276C218.324 107.966 217.495 108.656 216.529 109.622C215.977 110.036 215.977 110.863 216.529 111.415C216.529 111.553 216.943 111.553 217.219 111.553Z" fill="#321951"/>
<path d="M266.235 106.035C266.787 106.586 267.34 107.138 267.892 107.69C268.168 107.966 268.444 108.104 268.858 108.104C269.135 108.104 269.411 107.966 269.687 107.828C270.239 107.414 270.239 106.586 269.825 106.035C269.273 105.345 268.72 104.793 268.168 104.379L268.03 104.241C268.168 103.689 268.306 103.137 268.306 102.447C268.306 99.4119 265.821 97.0664 262.783 97.0664C260.712 97.0664 258.917 98.1702 257.951 99.8258C256.57 99.6879 255.603 99.6879 255.327 99.6879C255.189 99.6879 255.051 99.6879 254.913 99.8258C254.775 99.8258 254.775 99.9638 254.637 100.102C254.637 100.102 254.637 100.102 254.499 100.102C254.223 100.378 254.223 100.654 254.223 101.068C254.223 101.757 254.775 102.171 255.465 102.171C255.465 102.171 255.603 102.171 256.018 102.171C256.156 102.171 256.294 102.171 256.432 102.171H256.57C256.708 102.171 256.846 102.171 256.984 102.171C257.122 102.171 257.122 102.171 257.26 102.171C257.398 102.171 257.675 102.171 257.813 102.309H257.951C258.227 102.309 258.503 102.447 258.779 102.447H258.917C259.193 102.447 259.469 102.585 259.746 102.723H259.884C260.16 102.861 260.574 102.861 260.85 102.999H260.988C261.402 103.137 261.679 103.275 262.093 103.413C262.093 103.413 262.093 103.413 262.231 103.413C263.059 103.827 263.888 104.241 264.716 104.793C264.854 104.931 264.992 104.931 264.992 105.069C265.683 105.621 265.959 105.897 266.235 106.035Z" fill="#321951"/>
<path d="M291.641 133.077C291.641 131.697 291.503 130.317 291.227 129.213C293.16 128.523 294.541 126.73 294.541 124.66C294.541 121.901 292.332 119.693 289.57 119.693C288.327 119.693 287.361 120.107 286.533 120.797C285.29 119.693 284.185 119.003 284.185 119.003C283.633 118.727 282.805 118.865 282.528 119.555C282.252 120.107 282.39 120.935 283.081 121.211C283.219 121.211 283.909 121.763 284.876 122.591C285.98 123.556 287.361 125.212 288.189 127.282C288.189 127.282 288.189 127.282 288.189 127.42C288.327 127.696 288.466 128.11 288.604 128.385V128.523C288.742 128.937 288.742 129.213 288.88 129.627C289.156 130.731 289.294 131.835 289.294 133.215C289.294 133.904 289.846 134.456 290.537 134.456C291.227 134.456 291.641 133.766 291.641 133.077Z" fill="#321951"/>
<path d="M287.775 174.607C287.085 174.469 286.394 174.882 286.256 175.572C286.256 175.572 286.118 176.262 285.566 177.366C284.461 175.71 282.39 174.607 280.181 174.607C276.591 174.607 273.691 177.504 273.691 180.953C273.691 183.161 274.934 185.092 276.729 186.334C276.315 186.472 275.901 186.748 275.486 186.886C274.796 187.162 274.52 187.852 274.796 188.542C274.934 189.094 275.486 189.37 275.901 189.37C276.039 189.37 276.177 189.37 276.315 189.232C277.143 188.956 277.834 188.542 278.524 188.128C278.662 188.128 278.8 187.99 278.938 187.99C279.352 187.714 279.767 187.576 280.043 187.3C280.181 187.162 280.319 187.162 280.457 187.024C280.871 186.748 281.285 186.472 281.562 186.196C281.7 186.196 281.7 186.058 281.838 186.058C282.252 185.782 282.666 185.368 282.942 185.092C282.942 185.092 283.08 185.092 283.08 184.954C287.223 180.953 288.327 176.538 288.465 176.262C288.88 175.434 288.465 174.744 287.775 174.607Z" fill="#321951"/>
<path d="M255.88 192.405C255.742 192.405 254.914 192.956 253.533 193.37C253.809 192.681 253.947 191.991 253.947 191.163C253.947 187.162 250.633 183.988 246.629 183.988C242.625 183.988 239.311 187.162 239.311 191.163C239.311 191.439 239.311 191.853 239.449 192.129C238.897 191.715 238.207 191.301 237.654 190.887C237.102 190.473 236.274 190.611 235.859 191.025C235.445 191.577 235.583 192.405 235.998 192.818C237.102 193.646 238.069 194.336 239.173 194.888C239.311 194.888 239.449 195.026 239.587 195.026C240.14 195.302 240.692 195.578 241.244 195.716C241.382 195.716 241.382 195.716 241.521 195.854C243.592 196.544 245.663 196.958 247.596 196.958C252.843 196.958 256.847 194.888 257.123 194.75C257.675 194.474 257.951 193.646 257.675 193.094C257.261 192.267 256.571 191.991 255.88 192.405Z" fill="#321951"/>
<path d="M199.407 143.287C199.959 143.425 200.512 143.563 201.064 143.563C204.378 143.563 207.139 140.941 207.139 137.63C207.139 134.319 204.516 131.697 201.064 131.697C200.788 131.697 200.65 131.697 200.374 131.697C200.926 130.593 201.34 129.903 201.34 129.903C201.754 129.352 201.616 128.524 201.064 128.11C200.512 127.696 199.683 127.834 199.269 128.386C198.993 128.662 193.884 136.25 197.75 146.322C197.888 146.874 198.441 147.15 198.855 147.15C198.993 147.15 199.131 147.15 199.269 147.012C199.959 146.736 200.235 146.046 199.959 145.356C199.821 144.666 199.683 143.977 199.407 143.287Z" fill="#321951"/>
<path d="M262.784 119.832C261.955 119.97 260.989 119.969 260.298 119.969C260.022 119.969 259.746 119.969 259.47 119.969C259.194 119.969 258.918 119.97 258.779 119.832C258.641 119.832 258.365 119.694 258.227 119.694C257.951 119.694 257.675 119.556 257.399 119.418H257.261C252.428 117.9 249.39 113.761 249.252 113.761C248.838 113.209 248.01 113.071 247.457 113.485C246.905 113.899 246.767 114.727 247.181 115.278C247.319 115.416 248.01 116.382 249.252 117.624C248.562 118.59 248.148 119.832 248.148 121.211C248.148 124.523 250.909 127.282 254.361 127.282C257.261 127.282 259.746 125.212 260.436 122.591C260.436 122.591 260.436 122.591 260.574 122.591H260.712C261.541 122.591 262.369 122.591 263.198 122.453C263.888 122.315 264.302 121.763 264.164 121.073C264.026 120.245 263.336 119.694 262.784 119.832Z" fill="#321951"/>
<path d="M340.104 258.08C340.104 257.39 339.552 256.838 338.862 256.838C329.749 256.838 321.05 261.667 316.356 269.531C315.941 270.083 316.218 270.911 316.77 271.187C316.908 271.325 317.184 271.325 317.46 271.325C317.875 271.325 318.289 271.049 318.565 270.773C322.845 263.599 330.577 259.183 338.862 259.183C339.552 259.321 340.104 258.77 340.104 258.08Z" fill="#321951"/>
<path d="M390.502 273.67C389.812 273.394 389.121 273.808 388.845 274.36C388.569 275.05 388.983 275.74 389.536 276.016C394.092 277.809 397.682 281.121 399.753 285.536C400.029 285.95 400.443 286.226 400.858 286.226C400.996 286.226 401.272 286.226 401.41 286.088C401.962 285.812 402.238 284.984 401.962 284.432C399.753 279.465 395.749 275.602 390.502 273.67Z" fill="#321951"/>
</svg>
