<svg width="485" height="325" viewBox="0 0 485 325" fill="none" xmlns="http://www.w3.org/2000/svg">
<path d="M162.86 323.252C162.472 323.252 161.956 323.252 161.569 323.252H161.44C159.375 323.252 157.44 322.865 155.762 322.09H18.4539C17.8087 322.09 17.2925 322.607 17.2925 323.252C17.2925 323.898 17.8087 324.414 18.4539 324.414H164.021C163.763 324.414 163.376 324.285 163.247 324.027C162.989 323.898 162.86 323.639 162.86 323.252Z" fill="black"/>
<path d="M483.546 322.09H396.438C393.728 323.123 390.631 323.769 387.533 323.769H309.459C308.427 323.898 307.394 324.027 306.233 324.027H184.54C177.958 324.027 164.279 324.414 164.15 324.414H483.675C484.32 324.414 484.836 323.898 484.836 323.252C484.836 322.607 484.191 322.09 483.546 322.09Z" fill="black"/>
<path d="M306.233 11.8765H291.909C290.489 11.8765 289.328 12.9092 289.328 14.2002V17.0402C289.328 21.4295 285.585 25.0441 280.939 25.0441H209.704C205.059 25.0441 201.316 21.4295 201.316 17.0402V14.2002C201.316 12.9092 200.155 11.8765 198.735 11.8765H184.54C173.829 11.8765 165.183 20.0094 165.183 30.0788V214.555C189.573 215.717 212.285 225.915 229.32 243.601C230.868 245.279 231.772 247.474 231.772 249.668C231.772 251.992 230.739 254.058 229.062 255.607C227.384 257.156 225.319 257.93 222.996 257.93C220.674 257.93 218.351 257.027 216.802 255.219C202.994 241.019 184.798 232.757 165.312 231.595V240.374C182.604 241.535 198.606 248.894 210.737 261.416C212.285 263.094 213.189 265.289 213.189 267.483C213.189 269.807 212.156 271.873 210.479 273.422C208.801 274.971 206.736 275.745 204.543 275.745C202.22 275.745 200.026 274.842 198.348 273.164C189.573 264.127 177.958 258.576 165.441 257.414V266.192C175.636 267.354 185.056 271.873 192.283 279.36C193.831 281.038 194.735 283.233 194.735 285.428C194.735 287.751 193.702 289.817 192.025 291.366C190.347 292.915 188.282 293.69 186.089 293.69H185.959C183.637 293.69 181.314 292.786 179.765 290.979C175.894 286.977 170.99 284.395 165.57 283.362V293.302C168.28 293.948 170.861 295.368 172.796 297.304C175.636 300.144 177.184 303.888 177.184 307.89C177.184 313.957 173.313 319.25 168.022 321.574C172.667 321.445 180.41 321.187 184.798 321.187H299.522C291.392 317.701 285.714 309.955 285.714 301.048C285.714 292.27 291.392 284.266 299.91 280.651C299.393 278.327 299.135 276.004 299.135 273.551C299.135 257.543 310.75 244.376 325.848 241.665V30.0788C325.59 20.0094 316.944 11.8765 306.233 11.8765Z" fill="#F1E6FF"/>
<path d="M161.698 295.626C154.471 295.626 148.664 301.306 148.664 308.148C148.664 315.119 154.342 320.928 161.569 320.928L161.698 322.09V320.928C168.796 320.928 174.603 315.248 174.732 308.406C174.732 305.05 173.441 301.823 170.99 299.37C168.409 296.917 165.182 295.626 161.698 295.626Z" fill="#00DA9C"/>
<path d="M160.666 268.516H160.279C149.697 268.516 139.502 272.518 131.759 279.747C130.468 280.909 129.823 282.458 129.823 284.137C129.823 285.815 130.468 287.364 131.63 288.526C132.791 289.817 134.469 290.462 136.276 290.462C137.953 290.462 139.502 289.817 140.663 288.784C145.954 283.749 153.052 281.038 160.279 281.038H160.537C168.28 281.038 175.636 284.266 181.056 289.817C182.217 291.108 183.895 291.753 185.701 291.753V292.915V291.753C187.379 291.753 188.928 291.108 190.089 290.075C191.38 288.913 192.025 287.364 192.025 285.686C192.025 284.007 191.509 282.458 190.218 281.296C182.475 273.164 172.022 268.645 160.666 268.516Z" fill="#00DA9C"/>
<path d="M160.795 242.697H160.279C142.728 242.697 125.952 249.41 113.305 261.545C112.143 262.707 111.369 264.256 111.369 265.934C111.369 267.612 112.014 269.162 113.176 270.323C114.337 271.485 116.015 272.26 117.693 272.26C119.37 272.26 120.919 271.614 122.209 270.453C132.404 260.641 145.954 255.219 160.15 255.219H160.537C175.377 255.349 189.186 261.287 199.51 271.873C200.671 273.164 202.349 273.809 204.155 273.809V274.971V273.809C205.833 273.809 207.382 273.164 208.543 272.131C209.833 270.969 210.479 269.42 210.479 267.742C210.479 266.063 209.962 264.514 208.672 263.352C196.283 250.185 179.12 242.826 160.795 242.697Z" fill="#00DA9C"/>
<path d="M227.642 245.279C210.091 227.206 186.346 217.008 161.053 216.878H160.279C135.63 216.878 112.401 226.302 94.8508 243.343C93.6893 244.505 92.915 246.054 92.915 247.732C92.915 249.41 93.5603 250.959 94.7217 252.121C95.8832 253.283 97.5608 253.929 99.2384 253.929C100.916 253.929 102.594 253.283 103.755 252.121C118.983 237.404 138.985 229.271 160.149 229.271H160.795C182.604 229.401 202.994 238.179 218.221 253.799C219.383 255.09 221.061 255.736 222.867 255.736V256.898V255.736C224.545 255.736 226.093 255.09 227.255 254.058C228.545 252.896 229.191 251.347 229.191 249.668C229.449 247.99 228.803 246.441 227.642 245.279Z" fill="#00DA9C"/>
<path d="M397.341 283.749C396.954 283.62 396.696 283.233 396.696 282.717C396.18 269.291 385.34 258.834 372.048 258.834C367.918 258.834 363.789 259.867 360.175 261.932C359.917 262.061 359.53 262.062 359.272 262.062C359.014 261.932 358.756 261.674 358.627 261.416C353.723 250.83 343.012 243.988 331.397 243.988C314.879 243.988 301.329 257.414 301.329 274.067C301.329 276.649 301.587 279.102 302.232 281.555C302.361 282.071 302.103 282.717 301.458 282.975C293.328 285.944 287.779 293.431 287.779 301.564C287.779 312.537 297.328 321.445 309.201 321.445H387.663C399.406 321.445 409.085 312.537 409.085 301.564C408.956 294.077 404.568 287.235 397.341 283.749Z" fill="#8B6FE2"/>
<path d="M352.303 303.501C351.916 303.372 351.658 302.856 351.658 302.468V279.619C351.658 278.07 350.238 276.908 348.432 276.908C346.625 276.908 345.206 278.07 345.206 279.619V302.598C345.206 303.114 344.947 303.501 344.56 303.63C344.173 303.759 343.657 303.759 343.27 303.501L334.882 296.143C334.236 295.626 333.462 295.368 332.559 295.368C331.655 295.368 330.881 295.626 330.236 296.272C329.72 296.788 329.333 297.434 329.333 298.079C329.333 298.725 329.591 299.499 330.236 299.887L345.98 313.829C346.625 314.345 347.399 314.603 348.303 314.603H348.432C349.335 314.603 350.109 314.345 350.755 313.829L366.499 299.887C367.015 299.37 367.402 298.725 367.402 298.079C367.402 297.434 367.144 296.659 366.499 296.272C365.337 295.239 363.143 295.239 361.853 296.272L353.594 303.63C353.207 303.63 352.69 303.759 352.303 303.501Z" fill="white"/>
<path d="M299.135 150.266C299.006 150.395 298.877 150.653 298.748 150.782C298.361 151.299 297.716 151.428 297.2 151.17C296.683 150.782 296.554 150.137 296.812 149.62C302.233 141.229 297.329 129.482 293.07 121.478C290.876 117.089 285.198 107.665 278.358 104.954C278.488 105.341 278.229 105.857 277.971 106.116C277.455 106.503 276.81 106.374 276.423 105.857L274.874 103.792C266.228 93.5935 254.226 93.4644 248.677 93.9808C248.677 94.239 248.677 94.4971 248.548 94.6262C248.29 95.1426 247.645 95.5299 247 95.2717L245.322 94.6262C237.966 92.3025 223.513 93.9808 212.544 103.534C209.705 105.987 206.994 109.214 205.188 112.054C205.317 112.054 205.575 111.925 205.833 111.925C206.478 111.796 206.994 112.183 207.253 112.699C207.382 113.345 207.124 113.99 206.478 114.119L204.672 114.636C198.993 116.96 196.154 123.156 193.961 128.965C191.509 135.291 190.863 140.713 192.025 145.231V145.102C192.283 144.586 192.928 144.328 193.573 144.586C194.09 144.844 194.477 145.489 194.219 146.006L193.057 148.975C191.38 155.172 193.186 161.755 196.283 166.661C196.412 166.145 197.058 165.757 197.574 165.886C198.219 166.015 198.606 166.532 198.477 167.177L198.219 169.114C198.09 174.923 204.284 180.861 207.124 183.314C213.06 188.349 222.222 195.449 232.933 197.385C234.353 197.644 235.643 197.773 236.676 197.644C236.418 197.514 236.289 197.256 236.03 197.127C235.514 196.74 235.514 195.965 235.901 195.578C236.289 195.062 237.063 195.062 237.45 195.449L238.87 196.611C245.193 200.871 255.904 199.322 263.131 195.707C262.485 195.578 262.227 194.933 262.356 194.287C262.485 193.642 263.131 193.254 263.647 193.383L264.163 193.513C265.97 193.771 274.874 194.158 286.747 180.216C298.877 166.79 299.652 155.559 299.135 150.266Z" fill="#FBC22D"/>
<path d="M399.019 282.071C398.116 267.742 386.501 256.64 372.048 256.64C367.918 256.64 363.789 257.543 360.175 259.48C354.626 248.636 343.528 241.794 331.268 241.794C330.107 241.794 329.074 241.794 328.042 241.923V30.2081C328.042 18.8478 318.363 9.68213 306.362 9.68213H184.54C172.667 9.68213 162.859 18.8478 162.859 30.2081V214.684C162.214 214.684 161.698 214.684 161.053 214.684H160.279C135.114 214.684 111.24 224.366 93.3022 241.794C91.6245 243.343 90.7212 245.538 90.7212 247.861C90.7212 250.185 91.6245 252.251 93.3022 253.929C94.9798 255.607 97.1736 256.511 99.4965 256.511C101.819 256.511 104.013 255.607 105.562 254.058C120.273 239.728 139.76 231.854 160.279 231.854H160.924C161.569 231.854 162.214 231.854 162.859 231.854V240.632C162.214 240.632 161.569 240.632 160.924 240.632H160.408C142.212 240.632 124.919 247.603 111.885 260.125C110.208 261.674 109.304 263.869 109.304 266.193C109.304 268.516 110.208 270.582 111.756 272.26C113.434 273.938 115.628 274.842 117.95 274.842C120.273 274.842 122.467 273.938 124.016 272.389C133.823 262.965 146.728 257.802 160.408 257.802H160.795C161.44 257.802 162.214 257.802 162.859 257.931V266.709C162.085 266.709 161.44 266.709 160.666 266.58H160.279C149.051 266.58 138.34 270.84 130.21 278.457C128.532 280.006 127.629 282.2 127.5 284.395C127.5 286.719 128.274 288.913 129.952 290.462C131.63 292.141 133.823 293.044 136.275 293.044C138.469 293.044 140.663 292.27 142.341 290.721C147.245 286.073 153.697 283.62 160.408 283.62H160.666C161.44 283.62 162.214 283.62 162.989 283.75V293.561C162.601 293.561 162.085 293.432 161.698 293.432C153.31 293.432 146.47 300.145 146.47 308.278C146.47 314.603 150.342 320.025 155.891 322.22C157.698 322.994 159.633 323.382 161.569 323.382H161.698C162.085 323.382 162.601 323.382 162.989 323.382V323.511C162.989 323.769 163.118 324.156 163.376 324.285C163.634 324.543 163.892 324.673 164.15 324.673C164.279 324.673 178.087 324.285 184.54 324.285H306.362C307.394 324.285 308.556 324.156 309.588 324.027H387.663C390.76 324.027 393.857 323.382 396.567 322.349C405.213 318.992 411.408 311.118 411.408 301.694C411.278 293.432 406.633 285.944 399.019 282.071ZM160.924 229.272H160.279C139.114 229.272 119.112 237.405 103.884 252.121C102.723 253.283 101.045 253.929 99.3675 253.929C97.6898 253.929 96.0122 253.283 94.8508 252.121C93.6893 250.96 93.0441 249.41 93.0441 247.732C93.0441 246.054 93.6893 244.505 94.9798 243.343C112.53 226.303 135.759 216.879 160.408 216.879H161.182C186.475 217.137 210.22 227.206 227.771 245.279C228.932 246.441 229.578 248.12 229.578 249.669C229.578 251.347 228.803 252.896 227.642 254.058C226.481 255.22 224.932 255.736 223.254 255.736V256.898V255.736C221.448 255.736 219.899 255.091 218.609 253.8C203.252 238.179 182.733 229.401 160.924 229.272ZM160.795 255.22H160.408C146.212 255.22 132.662 260.642 122.467 270.453C121.306 271.615 119.628 272.26 117.95 272.26C116.273 272.26 114.595 271.615 113.434 270.324C112.272 269.162 111.627 267.613 111.627 265.935C111.627 264.256 112.272 262.707 113.563 261.545C126.21 249.41 142.857 242.698 160.537 242.698H161.053C179.378 242.827 196.412 250.185 209.188 263.224C210.349 264.385 210.995 265.935 210.995 267.613C210.995 269.291 210.22 270.84 209.059 272.002C207.898 273.164 206.349 273.68 204.671 273.68V274.842V273.68C202.994 273.68 201.316 273.035 200.026 271.744C189.314 261.158 175.506 255.349 160.795 255.22ZM160.537 281.039H160.279C152.923 281.039 145.954 283.75 140.663 288.784C139.502 289.946 137.953 290.462 136.275 290.462C134.469 290.462 132.92 289.817 131.63 288.526C130.468 287.364 129.823 285.815 129.823 284.137C129.823 282.459 130.597 280.91 131.759 279.748C139.502 272.518 149.697 268.516 160.279 268.516H160.666C172.022 268.646 182.475 273.164 190.347 281.168C191.508 282.33 192.154 284.008 192.154 285.557C192.154 287.235 191.379 288.784 190.218 289.946C189.056 291.108 187.508 291.624 185.83 291.624V292.786V291.624C184.023 291.624 182.475 290.979 181.184 289.688C175.635 284.137 168.28 281.039 160.537 281.039ZM161.569 320.929V322.091V320.929C154.342 320.929 148.535 315.12 148.535 308.148C148.535 301.177 154.471 295.626 161.569 295.626C165.053 295.626 168.28 297.046 170.731 299.37C173.183 301.823 174.474 304.921 174.474 308.407C174.474 315.249 168.667 320.929 161.569 320.929ZM184.54 321.703C180.152 321.703 172.28 321.962 167.763 322.091C173.183 319.767 176.926 314.603 176.926 308.407C176.926 304.405 175.377 300.661 172.538 297.821C170.473 295.755 168.021 294.464 165.311 293.819V283.879C170.731 284.911 175.635 287.493 179.507 291.495C181.184 293.173 183.378 294.077 185.701 294.206H185.83C188.024 294.206 190.218 293.432 191.766 291.883C193.444 290.333 194.476 288.139 194.476 285.944C194.476 283.62 193.702 281.555 192.025 279.877C184.798 272.389 175.377 267.871 165.182 266.709V257.931C177.7 259.093 189.185 264.515 198.09 273.68C199.767 275.358 201.961 276.262 204.284 276.262C206.478 276.262 208.672 275.488 210.22 273.938C211.898 272.389 212.93 270.195 212.93 268C212.93 265.676 212.156 263.482 210.479 261.933C198.348 249.41 182.346 242.052 165.053 240.89V232.112C184.669 233.274 202.865 241.536 216.544 255.736C218.221 257.414 220.415 258.318 222.738 258.447C225.061 258.447 227.126 257.673 228.803 256.123C230.481 254.574 231.513 252.38 231.513 250.185C231.513 247.861 230.739 245.667 229.062 244.118C212.027 226.561 189.314 216.362 164.924 215.071V30.079C164.924 20.0097 173.571 11.8767 184.282 11.8767H198.735C200.155 11.8767 201.316 12.9095 201.316 14.2004V17.0405C201.316 21.4297 205.058 25.0444 209.704 25.0444H280.939C285.585 25.0444 289.327 21.4297 289.327 17.0405V14.2004C289.327 12.9095 290.489 11.8767 291.908 11.8767H306.233C316.944 11.8767 325.59 20.0097 325.59 30.079V242.181C310.362 244.892 298.877 258.189 298.877 274.068C298.877 276.391 299.135 278.844 299.651 281.168C291.134 284.653 285.456 292.786 285.456 301.565C285.456 310.472 291.134 318.218 299.264 321.703H184.54ZM387.534 321.445H309.072C297.328 321.445 287.65 312.538 287.65 301.565C287.65 293.432 293.199 285.944 301.329 282.975C301.845 282.717 302.232 282.2 302.103 281.555C301.458 279.102 301.2 276.649 301.2 274.068C301.2 257.543 314.621 243.989 331.268 243.989C342.883 243.989 353.723 250.831 358.497 261.416C358.627 261.674 358.885 261.933 359.143 262.062C359.401 262.191 359.788 262.191 360.046 261.933C363.659 259.996 367.789 258.834 371.919 258.834C385.34 258.834 396.18 269.291 396.567 282.717C396.567 283.104 396.825 283.491 397.212 283.75C404.31 287.235 408.827 293.948 408.827 301.436C408.956 312.538 399.406 321.445 387.534 321.445Z" fill="#321951"/>
<path d="M204.413 37.4375H276.681C277.326 37.4375 277.842 36.9211 277.842 36.2756C277.842 35.6301 277.326 35.1138 276.681 35.1138H204.413C203.768 35.1138 203.252 35.6301 203.252 36.2756C203.252 36.9211 203.768 37.4375 204.413 37.4375Z" fill="#321951"/>
<path d="M265.841 308.02H202.348C201.703 308.02 201.187 308.536 201.187 309.181C201.187 309.827 201.703 310.343 202.348 310.343H265.841C266.486 310.343 267.002 309.827 267.002 309.181C267.002 308.536 266.486 308.02 265.841 308.02Z" fill="#321951"/>
<path d="M218.867 302.081H241.579C242.224 302.081 242.741 301.565 242.741 300.919C242.741 300.274 242.224 299.757 241.579 299.757H218.867C218.221 299.757 217.705 300.274 217.705 300.919C217.705 301.565 218.221 302.081 218.867 302.081Z" fill="#321951"/>
<path d="M231.126 41.3101C230.481 41.3101 229.965 41.8264 229.965 42.4719C229.965 43.1174 230.481 43.6338 231.126 43.6338H249.838C250.484 43.6338 251 43.1174 251 42.4719C251 41.8264 250.484 41.3101 249.838 41.3101H231.126Z" fill="#321951"/>
<path d="M360.304 294.206L353.981 299.887V279.619C353.981 276.908 351.529 274.584 348.432 274.584C345.335 274.584 342.883 276.779 342.883 279.619V300.016L336.43 294.335C334.366 292.528 330.752 292.528 328.687 294.335C327.655 295.239 327.01 296.53 327.01 297.95C327.01 299.37 327.655 300.532 328.687 301.565L344.431 315.507C345.464 316.411 346.883 316.927 348.303 316.927H348.432C349.851 316.927 351.271 316.411 352.303 315.507L368.047 301.565C369.08 300.661 369.725 299.37 369.725 297.95C369.725 296.53 369.08 295.239 368.047 294.335C365.853 292.399 362.369 292.399 360.304 294.206ZM366.37 299.757L350.755 313.7C350.109 314.216 349.335 314.474 348.432 314.474H348.303C347.399 314.474 346.625 314.216 345.98 313.7L330.236 299.757C329.72 299.241 329.333 298.596 329.333 297.95C329.333 297.305 329.591 296.53 330.236 296.143C330.881 295.626 331.656 295.239 332.559 295.239C333.462 295.239 334.237 295.497 334.882 296.014L343.27 303.372C343.657 303.63 344.044 303.759 344.56 303.501C344.948 303.372 345.206 302.856 345.206 302.468V279.49C345.206 277.94 346.625 276.779 348.432 276.779C350.239 276.779 351.658 277.94 351.658 279.49V302.339C351.658 302.856 351.916 303.243 352.303 303.372C352.69 303.501 353.207 303.501 353.594 303.243L361.853 295.885C363.014 294.852 365.208 294.852 366.499 295.885C367.015 296.401 367.402 297.046 367.402 297.692C367.273 298.596 367.015 299.241 366.37 299.757Z" fill="#321951"/>
<path d="M288.94 182.023C305.2 163.046 301.458 148.588 300.812 146.522C303.393 137.873 299.006 127.674 295.263 120.445C291.908 113.99 285.069 103.146 276.293 101.985C264.808 88.6878 247.902 91.657 245.322 92.1734C234.094 88.946 218.479 95.4007 211.124 101.855C208.026 104.566 204.026 109.085 201.961 113.603C196.67 116.701 193.96 122.769 191.895 128.449C188.798 136.711 188.411 143.424 190.863 149.104C189.056 156.075 191.121 164.337 196.154 170.663C196.799 176.988 202.864 182.927 205.833 185.38C212.027 190.672 221.447 197.902 232.675 199.967C235.514 200.484 237.837 200.354 239.643 199.709C242.353 201.129 245.709 201.645 249.064 201.645C255.774 201.645 262.872 199.322 267.389 196.353C267.518 196.223 267.647 196.223 267.647 196.094C272.164 195.449 279.778 192.738 288.94 182.023ZM264.55 193.771L264.034 193.642C263.388 193.512 262.872 193.9 262.743 194.545C262.614 195.191 263.001 195.707 263.517 195.965C256.42 199.451 245.58 201.129 239.256 196.869L237.837 195.707C237.32 195.32 236.675 195.32 236.288 195.836C235.901 196.353 235.901 196.998 236.417 197.385C236.675 197.514 236.804 197.773 237.062 197.902C235.901 198.031 234.739 197.902 233.32 197.644C222.609 195.578 213.446 188.607 207.51 183.572C204.671 181.119 198.477 175.181 198.606 169.372L198.864 167.435C198.993 166.79 198.477 166.274 197.961 166.144C197.315 166.015 196.799 166.403 196.67 166.919C193.573 162.013 191.637 155.43 193.444 149.233L194.605 146.264C194.863 145.618 194.605 144.973 193.96 144.844C193.444 144.586 192.67 144.844 192.411 145.36V145.489C191.25 140.971 191.895 135.549 194.347 129.223C196.541 123.414 199.38 117.089 205.058 114.894L206.865 114.378C207.51 114.249 207.768 113.603 207.639 112.958C207.51 112.312 206.865 111.925 206.22 112.183C205.962 112.183 205.833 112.312 205.574 112.312C207.381 109.472 210.091 106.245 212.93 103.792C223.77 94.2389 238.353 92.5607 245.709 94.8844L247.386 95.5298C248.032 95.788 248.677 95.5298 248.935 94.8844C249.064 94.6262 249.064 94.368 249.064 94.2389C254.613 93.5934 266.615 93.8516 275.261 104.05L276.809 106.116C277.197 106.632 277.971 106.761 278.358 106.374C278.745 106.116 278.874 105.599 278.745 105.212C285.585 107.923 291.263 117.347 293.457 121.736C297.586 129.869 302.619 141.487 297.199 149.879C296.812 150.395 297.07 151.17 297.586 151.428C298.102 151.815 298.877 151.557 299.135 151.04C299.264 150.911 299.393 150.653 299.522 150.524C300.038 155.817 299.264 167.048 287.52 180.732C275.261 194.416 266.486 194.029 264.55 193.771Z" fill="#321951"/>
<path d="M227.771 132.451C227.126 132.451 226.352 132.58 225.706 132.838C224.932 130.773 223.9 129.482 223.9 129.482C223.512 129.095 222.738 129.095 222.351 129.482C221.835 129.869 221.835 130.644 222.351 131.16C222.351 131.16 223.125 132.064 223.771 133.742C224.029 134.517 224.287 135.549 224.416 136.582C224.416 136.969 224.416 137.228 224.416 137.615V137.744C224.416 138.131 224.416 138.518 224.287 138.906V139.035C224.287 139.422 224.158 139.809 224.029 140.197C224.029 140.326 224.029 140.326 224.029 140.455C223.9 140.842 223.771 141.229 223.642 141.617C223.642 141.746 223.642 141.746 223.512 141.875C223.383 142.262 223.125 142.779 222.996 143.166C222.48 144.328 221.706 145.49 220.673 146.781C220.286 147.297 220.286 147.942 220.802 148.459C221.061 148.588 221.319 148.717 221.577 148.717C221.964 148.717 222.222 148.588 222.48 148.33C223.642 147.039 224.416 145.748 225.061 144.457C225.964 144.844 226.868 145.102 227.9 145.102C231.384 145.102 234.224 142.262 234.224 138.906C234.094 135.162 231.255 132.451 227.771 132.451Z" fill="#321951"/>
<path d="M237.837 166.532C237.966 166.532 238.095 166.532 238.224 166.532C238.353 166.532 238.482 166.532 238.74 166.532C238.869 166.532 238.869 166.532 238.998 166.532C239.514 166.532 240.031 166.661 240.547 166.79H240.676C240.934 166.79 241.063 166.919 241.321 166.919C241.45 166.919 241.45 167.048 241.579 167.048C241.708 167.177 241.966 167.177 242.095 167.307C242.224 167.307 242.353 167.436 242.353 167.436C242.483 167.565 242.612 167.565 242.741 167.694C242.87 167.823 242.999 167.823 243.128 167.952C243.773 168.468 244.418 168.985 244.934 169.759C245.193 170.147 245.58 170.276 245.838 170.276C246.096 170.276 246.225 170.276 246.483 170.018C246.999 169.63 247.128 168.985 246.741 168.468C246.225 167.565 245.58 166.919 244.805 166.403C245.451 165.757 245.709 164.854 245.709 163.821C245.709 161.626 243.902 159.69 241.579 159.69C239.256 159.69 237.45 161.497 237.45 163.821C237.45 163.95 237.45 163.95 237.45 164.079C235.901 164.079 234.869 164.337 234.74 164.337C234.094 164.466 233.707 165.112 233.836 165.757C233.965 166.403 234.611 166.79 235.256 166.661C235.127 166.661 236.288 166.403 237.837 166.532Z" fill="#321951"/>
<path d="M274.874 157.883C275.132 158.786 275.39 159.819 275.906 160.723C276.035 161.11 276.551 161.368 276.939 161.368C277.068 161.368 277.197 161.368 277.455 161.239C278.1 160.981 278.358 160.335 278.1 159.69C277.584 158.657 277.326 157.624 277.068 156.592C276.939 156.204 276.939 155.946 276.809 155.559C276.809 155.301 276.68 155.042 276.68 154.784C276.68 154.655 276.68 154.397 276.68 154.268C276.035 147.426 279.261 142.262 279.261 142.262C279.649 141.746 279.52 140.971 278.874 140.713C278.358 140.326 277.584 140.455 277.326 141.1C277.197 141.229 276.68 142.133 276.035 143.424C274.616 142.52 273.067 142.004 271.26 142.004C266.615 142.004 262.743 145.748 262.743 150.395C262.743 155.042 266.615 158.786 271.26 158.786C272.551 158.657 273.841 158.27 274.874 157.883Z" fill="#321951"/>
<path d="M213.318 164.337C210.737 164.337 208.414 165.887 207.511 168.21C207.511 168.21 207.511 168.21 207.381 168.21C205.575 167.565 204.155 167.307 204.026 167.307C203.381 167.177 202.865 167.694 202.736 168.339C202.607 168.985 203.123 169.501 203.768 169.63C203.897 169.63 208.93 170.276 212.027 174.149C212.027 174.149 212.027 174.278 212.156 174.278C212.414 174.536 212.543 174.794 212.672 175.052C212.672 175.181 212.802 175.31 212.931 175.31C213.06 175.569 213.189 175.827 213.318 176.085C213.447 176.214 213.447 176.472 213.576 176.601C213.963 177.376 214.221 178.28 214.35 179.183C214.479 179.7 214.995 180.216 215.512 180.216H215.641C216.286 180.087 216.673 179.571 216.673 178.925C216.544 177.892 216.286 177.118 215.899 176.214V176.085C218.093 175.052 219.512 172.987 219.512 170.534C219.641 167.177 216.802 164.337 213.318 164.337Z" fill="#321951"/>
<path d="M217.964 113.732C218.222 113.732 218.609 113.603 218.738 113.345C219.641 112.57 220.545 111.796 221.448 111.15C221.706 111.021 221.964 110.763 222.222 110.634C222.48 110.505 222.738 110.247 223.125 110.118C223.255 109.988 223.513 109.859 223.642 109.859C230.094 106.245 236.934 106.632 236.934 106.632C237.579 106.632 238.095 106.245 238.224 105.599C238.224 104.954 237.837 104.437 237.192 104.308C237.063 104.308 235.643 104.179 233.578 104.437H233.449C232.417 101.726 229.836 99.79 226.739 99.79C222.738 99.79 219.512 103.017 219.512 106.89C219.512 107.794 219.641 108.698 220.028 109.472L219.899 109.601C219.899 109.601 219.899 109.601 219.899 109.73C218.996 110.376 218.222 111.021 217.318 111.925C216.802 112.312 216.802 113.087 217.318 113.603C217.318 113.732 217.705 113.732 217.964 113.732Z" fill="#321951"/>
<path d="M263.776 108.568C264.292 109.085 264.808 109.601 265.324 110.118C265.582 110.376 265.84 110.505 266.228 110.505C266.486 110.505 266.744 110.376 267.002 110.247C267.518 109.859 267.518 109.085 267.131 108.568C266.615 107.923 266.098 107.407 265.582 107.019L265.453 106.89C265.582 106.374 265.711 105.857 265.711 105.212C265.711 102.372 263.388 100.177 260.549 100.177C258.614 100.177 256.936 101.21 256.033 102.759C254.742 102.63 253.839 102.63 253.581 102.63C253.452 102.63 253.323 102.63 253.194 102.759C253.065 102.759 253.065 102.888 252.935 103.017C252.935 103.017 252.935 103.017 252.806 103.017C252.548 103.276 252.548 103.534 252.548 103.921C252.548 104.566 253.065 104.954 253.71 104.954C253.71 104.954 253.839 104.954 254.226 104.954C254.355 104.954 254.484 104.954 254.613 104.954H254.742C254.871 104.954 255 104.954 255.129 104.954C255.258 104.954 255.258 104.954 255.387 104.954C255.516 104.954 255.775 104.954 255.904 105.083H256.033C256.291 105.083 256.549 105.212 256.807 105.212H256.936C257.194 105.212 257.452 105.341 257.71 105.47H257.839C258.097 105.599 258.485 105.599 258.743 105.728H258.872C259.259 105.857 259.517 105.986 259.904 106.116C259.904 106.116 259.904 106.116 260.033 106.116C260.807 106.503 261.582 106.89 262.356 107.407C262.485 107.536 262.614 107.536 262.614 107.665C263.259 108.181 263.517 108.439 263.776 108.568Z" fill="#321951"/>
<path d="M287.521 133.871C287.521 132.58 287.392 131.289 287.134 130.256C288.94 129.611 290.231 127.933 290.231 125.996C290.231 123.414 288.166 121.349 285.585 121.349C284.424 121.349 283.52 121.736 282.746 122.382C281.585 121.349 280.552 120.703 280.552 120.703C280.036 120.445 279.262 120.574 279.004 121.22C278.745 121.736 278.874 122.511 279.52 122.769C279.649 122.769 280.294 123.285 281.197 124.06C282.23 124.963 283.52 126.513 284.295 128.449C284.295 128.449 284.295 128.449 284.295 128.578C284.424 128.836 284.553 129.224 284.682 129.482V129.611C284.811 129.998 284.811 130.256 284.94 130.644C285.198 131.676 285.327 132.709 285.327 134C285.327 134.645 285.843 135.162 286.488 135.162C287.134 135.162 287.521 134.516 287.521 133.871Z" fill="#321951"/>
<path d="M283.907 172.728C283.262 172.599 282.617 172.987 282.488 173.632C282.488 173.632 282.359 174.277 281.842 175.31C280.81 173.761 278.874 172.728 276.809 172.728C273.454 172.728 270.744 175.439 270.744 178.667C270.744 180.732 271.906 182.54 273.583 183.701C273.196 183.83 272.809 184.089 272.422 184.218C271.777 184.476 271.518 185.121 271.777 185.767C271.906 186.283 272.422 186.541 272.809 186.541C272.938 186.541 273.067 186.541 273.196 186.412C273.97 186.154 274.616 185.767 275.261 185.38C275.39 185.38 275.519 185.251 275.648 185.251C276.035 184.992 276.422 184.863 276.68 184.605C276.809 184.476 276.938 184.476 277.068 184.347C277.455 184.089 277.842 183.83 278.1 183.572C278.229 183.572 278.229 183.443 278.358 183.443C278.745 183.185 279.132 182.798 279.39 182.54C279.39 182.54 279.519 182.54 279.519 182.41C283.391 178.667 284.423 174.536 284.552 174.277C284.94 173.503 284.552 172.857 283.907 172.728Z" fill="#321951"/>
<path d="M254.097 189.382C253.968 189.382 253.194 189.898 251.903 190.285C252.161 189.64 252.291 188.994 252.291 188.22C252.291 184.476 249.193 181.507 245.451 181.507C241.709 181.507 238.611 184.476 238.611 188.22C238.611 188.478 238.611 188.865 238.74 189.123C238.224 188.736 237.579 188.349 237.063 187.962C236.547 187.574 235.772 187.703 235.385 188.091C234.998 188.607 235.127 189.382 235.514 189.769C236.547 190.543 237.45 191.189 238.482 191.705C238.611 191.705 238.74 191.834 238.869 191.834C239.386 192.093 239.902 192.351 240.418 192.48C240.547 192.48 240.547 192.48 240.676 192.609C242.612 193.254 244.548 193.642 246.354 193.642C251.258 193.642 255.001 191.705 255.259 191.576C255.775 191.318 256.033 190.543 255.775 190.027C255.388 189.252 254.742 188.994 254.097 189.382Z" fill="#321951"/>
<path d="M201.316 143.424C201.832 143.553 202.348 143.682 202.865 143.682C205.962 143.682 208.543 141.23 208.543 138.131C208.543 135.033 206.091 132.58 202.865 132.58C202.606 132.58 202.477 132.58 202.219 132.58C202.735 131.547 203.123 130.902 203.123 130.902C203.51 130.386 203.381 129.611 202.865 129.224C202.348 128.836 201.574 128.966 201.187 129.482C200.929 129.74 196.154 136.84 199.767 146.264C199.896 146.781 200.413 147.039 200.8 147.039C200.929 147.039 201.058 147.039 201.187 146.91C201.832 146.651 202.09 146.006 201.832 145.361C201.703 144.715 201.574 144.07 201.316 143.424Z" fill="#321951"/>
<path d="M260.549 121.478C259.775 121.607 258.872 121.607 258.226 121.607C257.968 121.607 257.71 121.607 257.452 121.607C257.194 121.607 256.936 121.607 256.807 121.478C256.678 121.478 256.42 121.349 256.291 121.349C256.033 121.349 255.775 121.22 255.516 121.091H255.387C250.871 119.671 248.032 115.798 247.903 115.798C247.515 115.281 246.741 115.152 246.225 115.54C245.709 115.927 245.58 116.701 245.967 117.218C246.096 117.347 246.741 118.251 247.903 119.412C247.257 120.316 246.87 121.478 246.87 122.769C246.87 125.867 249.451 128.449 252.677 128.449C255.387 128.449 257.71 126.513 258.355 124.06C258.355 124.06 258.355 124.06 258.485 124.06H258.614C259.388 124.06 260.162 124.06 260.936 123.931C261.582 123.802 261.969 123.285 261.84 122.64C261.711 121.865 261.065 121.349 260.549 121.478Z" fill="#321951"/>
<path d="M332.817 250.83C332.817 250.185 332.301 249.668 331.655 249.668C323.138 249.668 315.008 254.187 310.62 261.545C310.233 262.062 310.491 262.836 311.008 263.094C311.137 263.223 311.395 263.223 311.653 263.223C312.04 263.223 312.427 262.965 312.685 262.707C316.686 255.994 323.913 251.863 331.655 251.863C332.301 251.992 332.817 251.476 332.817 250.83Z" fill="#321951"/>
<path d="M379.92 265.418C379.275 265.16 378.629 265.547 378.371 266.064C378.113 266.709 378.5 267.355 379.016 267.613C383.275 269.291 386.63 272.389 388.566 276.52C388.824 276.907 389.211 277.166 389.598 277.166C389.728 277.166 389.986 277.166 390.115 277.037C390.631 276.778 390.889 276.004 390.631 275.487C388.566 270.84 384.824 267.225 379.92 265.418Z" fill="#321951"/>
</svg>
