<svg width="504" height="337" viewBox="0 0 504 337" fill="none" xmlns="http://www.w3.org/2000/svg">
<g clip-path="url(#clip0_1616_103148)">
<path d="M344.846 271.968C344.365 260.584 347.142 250.705 352.709 243.819C343.719 249.339 338.62 261.192 339.252 275.721C340.338 300.766 357.589 326.044 377.74 332.061C379.894 332.71 382.131 333.04 384.38 333.04C387.003 333.012 389.611 332.626 392.132 331.895C389.751 331.713 387.396 331.274 385.108 330.584C364.022 324.292 345.974 297.992 344.846 271.968Z" fill="#FBC22D"/>
<path d="M419.542 294.293C418.456 269.235 401.205 243.957 381.053 237.941C378.339 237.109 375.519 236.677 372.682 236.657C369.564 236.622 366.473 237.235 363.604 238.458C360.734 239.681 358.148 241.487 356.008 243.763C349.878 250.18 346.798 260.156 347.293 271.857C348.379 296.901 365.63 322.18 385.782 328.196C395.473 331.094 404.545 328.969 410.841 322.373C417.136 315.778 420.05 305.981 419.542 294.293Z" fill="#FBC22D"/>
<path d="M98.0802 324.044C90.8911 323.878 87.001 323.74 84.9116 323.505V333.633C89.0354 334.075 107.221 334.517 133.022 334.517C154.645 334.517 173.738 334.185 180.006 333.716V323.574C173.435 324.057 154.809 324.375 133.022 324.375C119.785 324.375 107.4 324.264 98.0802 324.044Z" fill="#FBC22D"/>
<path d="M98.0802 311.418C90.8911 311.252 87.001 311.114 84.9116 310.879V321.007C89.0354 321.449 107.221 321.891 133.022 321.891C154.645 321.891 173.751 321.559 180.006 321.09V310.962C173.435 311.431 154.809 311.762 133.022 311.762C119.785 311.762 107.4 311.638 98.0802 311.418Z" fill="#FBC22D"/>
<path d="M98.0802 298.723C90.8911 298.544 87.001 298.42 84.9116 298.185V308.382C89.0354 308.838 107.221 309.265 133.022 309.265C154.645 309.265 173.751 308.934 180.006 308.465V298.254C173.435 298.737 154.796 299.054 133.022 299.054C119.785 299.054 107.4 298.93 98.0802 298.723Z" fill="#FBC22D"/>
<path d="M98.0802 286.097C90.8911 285.932 87.001 285.794 84.9116 285.559V295.687C89.0354 296.129 107.221 296.57 133.022 296.57C154.645 296.57 173.738 296.239 180.006 295.77V285.628C173.435 286.111 154.809 286.428 133.022 286.428C119.785 286.442 107.4 286.304 98.0802 286.097Z" fill="#FBC22D"/>
<path d="M98.0802 273.472C90.8911 273.307 87.001 273.169 84.9116 272.934V283.062C89.0354 283.504 107.221 283.945 133.022 283.945C154.645 283.945 173.751 283.614 180.006 283.145V273.017C173.435 273.486 154.809 273.803 133.022 273.803C119.785 273.803 107.4 273.693 98.0802 273.472Z" fill="#FBC22D"/>
<path d="M98.0802 260.722C90.8911 260.557 87.001 260.419 84.9116 260.184V270.436C89.0354 270.878 107.221 271.319 133.022 271.319C154.645 271.319 173.751 270.988 180.006 270.519V260.225C173.421 260.708 154.782 261.026 133.022 261.026C119.785 261.053 107.4 260.929 98.0802 260.722Z" fill="#FBC22D"/>
<path d="M133.091 159.841C123.471 159.839 114.067 162.7 106.067 168.063C98.0671 173.426 91.8316 181.051 88.149 189.972C84.4663 198.893 83.5021 208.71 85.3782 218.181C87.2542 227.652 91.8864 236.352 98.6886 243.181C105.491 250.009 114.158 254.659 123.593 256.542C133.028 258.425 142.808 257.457 151.695 253.761C160.582 250.064 168.177 243.804 173.52 235.774C178.863 227.744 181.713 218.303 181.71 208.646C181.692 195.708 176.564 183.305 167.45 174.156C158.336 165.007 145.98 159.86 133.091 159.841Z" fill="#FBC22D"/>
<path d="M82.4375 334.613V334.061H4.23713C3.90902 334.061 3.59435 334.192 3.36235 334.425C3.13034 334.658 3 334.974 3 335.303C3 335.632 3.13034 335.948 3.36235 336.181C3.59435 336.414 3.90902 336.545 4.23713 336.545H93.5854C82.4375 336.241 82.4375 335.951 82.4375 334.613Z" fill="black"/>
<path d="M499.749 334.061H393.452C390.504 334.983 387.439 335.471 384.352 335.51C381.862 335.517 379.385 335.159 376.998 334.447L375.871 334.061H325.231C322.198 335.398 318.921 336.089 315.609 336.089H185.875C184.581 336.077 183.29 335.967 182.012 335.758C181.825 335.941 181.584 336.057 181.325 336.089C179.731 336.255 176.542 336.421 172.184 336.545H499.749C500.077 336.545 500.391 336.414 500.623 336.181C500.855 335.948 500.986 335.632 500.986 335.303C500.986 334.974 500.855 334.658 500.623 334.425C500.391 334.192 500.077 334.061 499.749 334.061Z" fill="black"/>
<path d="M315.623 2.48353H300.324C299.983 2.45923 299.64 2.50345 299.316 2.61361C298.993 2.72377 298.694 2.89766 298.438 3.12509C298.182 3.35252 297.974 3.62893 297.825 3.93813C297.677 4.24734 297.592 4.58313 297.574 4.92586V8.03051C297.51 10.3546 296.53 12.5583 294.85 14.1591C293.171 15.7599 290.928 16.6274 288.612 16.5718H212.817C210.502 16.6274 208.259 15.7599 206.579 14.1591C204.899 12.5583 203.92 10.3546 203.855 8.03051V4.95346C203.837 4.61073 203.752 4.27494 203.604 3.96573C203.455 3.65652 203.247 3.38012 202.991 3.15268C202.735 2.92525 202.437 2.75137 202.113 2.64121C201.789 2.53105 201.447 2.48682 201.106 2.51113H185.875C174.535 2.51113 165.256 11.2318 165.256 21.967V168.934C171.133 173.738 175.87 179.794 179.123 186.665C182.376 193.535 184.064 201.046 184.064 208.653C184.064 216.26 182.376 223.772 179.123 230.642C175.87 237.513 171.133 243.569 165.256 248.372V257.134C170.425 257.272 175.744 257.452 181.188 257.659C181.188 257.659 181.298 257.659 181.367 257.659H181.586L181.834 257.81L181.958 257.879C182.025 257.961 182.085 258.049 182.136 258.142L182.233 258.293C182.268 258.391 182.292 258.493 182.301 258.597C182.301 258.597 182.301 258.707 182.301 258.763V333.357C183.442 333.549 184.595 333.651 185.751 333.661H315.499C326.853 333.661 336.118 324.926 336.118 314.205V21.9394C336.2 11.2042 326.977 2.48353 315.623 2.48353Z" fill="#F1E6FF"/>
<path d="M303.004 72.2764H198.536C195.584 72.28 192.754 73.4587 190.667 75.554C188.579 77.6493 187.405 80.49 187.401 83.4531V121.633H314.139V83.4531C314.139 80.4889 312.965 77.646 310.877 75.55C308.789 73.4539 305.957 72.2764 303.004 72.2764Z" fill="#8B6FE2"/>
<path d="M187.401 138.647C187.405 141.61 188.579 144.451 190.667 146.546C192.754 148.642 195.584 149.82 198.536 149.824H303.004C305.957 149.824 308.789 148.646 310.877 146.55C312.965 144.454 314.139 141.612 314.139 138.647V138.192H187.401V138.647Z" fill="#8B6FE2"/>
<path d="M250.096 196.366C242.894 196.366 235.853 198.51 229.865 202.527C223.876 206.544 219.209 212.254 216.454 218.934C213.698 225.613 212.978 232.964 214.384 240.054C215.79 247.145 219.259 253.658 224.353 258.769C229.447 263.881 235.936 267.361 243.001 268.77C250.065 270.179 257.387 269.453 264.04 266.684C270.693 263.915 276.379 259.228 280.379 253.216C284.378 247.203 286.512 240.134 286.509 232.905C286.494 223.216 282.653 213.929 275.827 207.079C269.001 200.23 259.748 196.377 250.096 196.366Z" fill="#00DA9C"/>
<path d="M217.711 80.0171H200.46C198.866 80.0171 197.573 81.3144 197.573 82.9148V90.4349C197.573 92.0353 198.866 93.3326 200.46 93.3326H217.711C219.305 93.3326 220.598 92.0353 220.598 90.4349V82.9148C220.598 81.3144 219.305 80.0171 217.711 80.0171Z" fill="white"/>
<path d="M249.381 237.582C249.294 237.775 249.157 237.941 248.986 238.064C248.815 238.188 248.615 238.264 248.405 238.286C248.194 238.308 247.98 238.275 247.785 238.191C247.59 238.106 247.42 237.972 247.292 237.803L237.326 224.874L232.57 231.249L249.642 253.436L267.608 215.891L261.697 211.875L249.381 237.582Z" fill="white"/>
<path d="M379.143 273.761L378.964 273.472C377.941 274.961 376.621 276.221 375.088 277.171C373.555 278.121 371.841 278.741 370.057 278.991C374.961 282.461 378.86 287.174 381.356 292.652C382.521 295.053 383.504 297.539 384.297 300.089C385.374 296.092 387.619 292.511 390.744 289.809C385.415 285.696 381.385 280.123 379.143 273.761Z" fill="white"/>
<path d="M133.091 189.163C131.043 195.055 125.985 205.142 114.617 208.647C125.985 212.151 131.043 222.252 133.091 228.144C135.126 222.252 140.198 212.151 151.552 208.647C140.129 205.142 135.057 195.055 133.091 189.163Z" fill="white"/>
<path d="M213.945 29.7909H290.922C291.25 29.7909 291.564 29.66 291.796 29.4271C292.028 29.1942 292.159 28.8784 292.159 28.549C292.159 28.2196 292.028 27.9038 291.796 27.6709C291.564 27.438 291.25 27.3071 290.922 27.3071H213.945C213.617 27.3071 213.302 27.438 213.07 27.6709C212.838 27.9038 212.708 28.2196 212.708 28.549C212.708 28.8784 212.838 29.1942 213.07 29.4271C213.302 29.66 213.617 29.7909 213.945 29.7909Z" fill="#321951"/>
<path d="M242.481 33.9302C242.153 33.9302 241.838 34.061 241.606 34.2939C241.374 34.5268 241.244 34.8427 241.244 35.172C241.244 35.5014 241.374 35.8173 241.606 36.0502C241.838 36.2831 242.153 36.4139 242.481 36.4139H262.412C262.74 36.4139 263.055 36.2831 263.287 36.0502C263.519 35.8173 263.649 35.5014 263.649 35.172C263.649 34.8427 263.519 34.5268 263.287 34.2939C263.055 34.061 262.74 33.9302 262.412 33.9302H242.481Z" fill="#321951"/>
<path d="M254.151 316.178H252.46C252.132 316.178 251.817 316.309 251.585 316.542C251.353 316.775 251.223 317.091 251.223 317.42C251.223 317.749 251.353 318.065 251.585 318.298C251.817 318.531 252.132 318.662 252.46 318.662H265.986C266.314 318.662 266.629 318.531 266.861 318.298C267.093 318.065 267.223 317.749 267.223 317.42C267.223 317.091 267.093 316.775 266.861 316.542C266.629 316.309 266.314 316.178 265.986 316.178H254.151Z" fill="#321951"/>
<path d="M289.272 322.774H212.295C211.987 322.806 211.703 322.952 211.496 323.183C211.289 323.413 211.175 323.712 211.175 324.023C211.175 324.333 211.289 324.632 211.496 324.863C211.703 325.093 211.987 325.239 212.295 325.271H289.272C289.579 325.239 289.864 325.093 290.07 324.863C290.277 324.632 290.392 324.333 290.392 324.023C290.392 323.712 290.277 323.413 290.07 323.183C289.864 322.952 289.579 322.806 289.272 322.774Z" fill="#321951"/>
<path d="M303.004 69.8066H198.535C194.927 69.8103 191.468 71.2507 188.917 73.8117C186.365 76.3728 184.93 79.8453 184.927 83.4671V138.661C184.93 142.283 186.365 145.755 188.917 148.316C191.468 150.877 194.927 152.318 198.535 152.321H303.004C306.612 152.318 310.071 150.877 312.623 148.316C315.174 145.755 316.609 142.283 316.612 138.661V83.4671C316.609 79.8453 315.174 76.3728 312.623 73.8117C310.071 71.2507 306.612 69.8103 303.004 69.8066ZM314.138 138.661C314.138 141.625 312.965 144.468 310.877 146.564C308.789 148.66 305.957 149.838 303.004 149.838H198.535C195.583 149.834 192.753 148.655 190.666 146.56C188.579 144.465 187.405 141.624 187.401 138.661V138.206H314.138V138.661ZM314.138 121.647H187.401V83.4533C187.405 80.4902 188.579 77.6495 190.666 75.5542C192.753 73.4589 195.583 72.2802 198.535 72.2766H303.004C305.957 72.2766 308.789 73.4541 310.877 75.5502C312.965 77.6462 314.138 80.4891 314.138 83.4533V121.647Z" fill="#321951"/>
<path d="M217.697 77.5337H200.446C199.025 77.5373 197.664 78.1055 196.659 79.1139C195.655 80.1223 195.089 81.489 195.085 82.9151V90.5043C195.089 91.9304 195.655 93.297 196.659 94.3055C197.664 95.3139 199.025 95.882 200.446 95.8857H217.683C218.387 95.8857 219.084 95.7465 219.735 95.476C220.385 95.2056 220.976 94.8092 221.474 94.3095C221.972 93.8098 222.367 93.2165 222.636 92.5636C222.905 91.9107 223.044 91.211 223.044 90.5043V82.9151C223.044 81.4902 222.481 80.1236 221.479 79.1147C220.476 78.1059 219.116 77.5373 217.697 77.5337ZM220.584 90.4353C220.58 91.2027 220.275 91.9376 219.734 92.4802C219.194 93.0229 218.461 93.3293 217.697 93.333H200.446C199.681 93.3293 198.949 93.0229 198.409 92.4802C197.868 91.9376 197.563 91.2027 197.559 90.4353V82.9151C197.559 82.1466 197.863 81.4095 198.405 80.8661C198.946 80.3227 199.68 80.0174 200.446 80.0174H217.683C218.449 80.0174 219.183 80.3227 219.724 80.8661C220.266 81.4095 220.57 82.1466 220.57 82.9151L220.584 90.4353Z" fill="#321951"/>
<path d="M288.983 232.905C288.983 225.184 286.703 217.637 282.43 211.217C278.157 204.798 272.083 199.795 264.978 196.84C257.872 193.886 250.053 193.113 242.51 194.619C234.966 196.125 228.037 199.843 222.599 205.302C217.16 210.761 213.457 217.717 211.956 225.289C210.456 232.861 211.226 240.71 214.169 247.843C217.112 254.976 222.097 261.072 228.492 265.362C234.887 269.651 242.405 271.94 250.096 271.94C260.407 271.933 270.294 267.818 277.585 260.499C284.877 253.18 288.976 243.255 288.983 232.905ZM250.096 269.457C242.894 269.457 235.854 267.313 229.866 263.297C223.878 259.28 219.211 253.571 216.455 246.892C213.699 240.213 212.978 232.864 214.383 225.774C215.788 218.683 219.256 212.17 224.348 207.058C229.441 201.946 235.929 198.465 242.992 197.055C250.056 195.644 257.377 196.368 264.031 199.135C270.684 201.901 276.371 206.586 280.372 212.597C284.373 218.608 286.509 225.675 286.509 232.905C286.498 242.595 282.658 251.886 275.832 258.739C269.005 265.591 259.75 269.446 250.096 269.457Z" fill="#321951"/>
<path d="M269.876 214.442L261.986 209.061L261.739 208.909L261.505 208.826C261.252 208.749 260.98 208.757 260.732 208.849C260.484 208.941 260.272 209.113 260.13 209.337C260.061 209.433 260.01 209.54 259.979 209.654L247.979 234.699L238.357 222.128C238.196 221.901 237.971 221.728 237.711 221.631C237.464 221.555 237.2 221.557 236.955 221.636C236.709 221.715 236.493 221.867 236.336 222.073L230.054 230.518C229.89 230.734 229.802 230.998 229.802 231.27C229.802 231.541 229.89 231.805 230.054 232.022L248.941 256.542C249.057 256.691 249.205 256.811 249.374 256.895C249.543 256.979 249.729 257.023 249.917 257.024H250.055C250.264 256.997 250.464 256.919 250.637 256.796C250.809 256.674 250.949 256.51 251.044 256.321L270.289 216.002C270.416 215.735 270.445 215.431 270.369 215.146C270.293 214.86 270.119 214.61 269.876 214.442ZM249.642 253.437L232.57 231.249L237.326 224.874L247.292 237.803C247.42 237.973 247.59 238.106 247.785 238.191C247.98 238.276 248.194 238.308 248.405 238.286C248.615 238.264 248.815 238.188 248.986 238.065C249.158 237.941 249.294 237.775 249.381 237.582L261.752 211.876L267.663 215.891L249.642 253.437Z" fill="#321951"/>
<path d="M403.981 287.919C387.72 282.965 383.72 260.763 383.692 260.543C383.645 260.244 383.49 259.973 383.257 259.783C383.024 259.592 382.728 259.494 382.428 259.508C382.128 259.519 381.842 259.638 381.623 259.843C381.403 260.049 381.264 260.326 381.232 260.625C380.885 263.456 380.106 266.216 378.922 268.808C375.761 275.555 370.537 277.915 363.472 275.804C363.317 275.757 363.154 275.742 362.993 275.76C362.832 275.777 362.676 275.826 362.534 275.904C362.392 275.983 362.267 276.089 362.166 276.216C362.065 276.343 361.99 276.489 361.946 276.645C361.925 276.764 361.925 276.885 361.946 277.004C361.949 277.27 362.036 277.528 362.194 277.741C362.352 277.955 362.573 278.112 362.826 278.191C379.17 283.075 383.197 305.374 383.225 305.608C383.277 305.896 383.428 306.156 383.651 306.343C383.875 306.529 384.157 306.631 384.448 306.63C384.749 306.621 385.036 306.503 385.256 306.297C385.476 306.091 385.614 305.812 385.644 305.512C385.644 305.346 387.294 289.575 398.675 289.575C400.279 289.601 401.872 289.856 403.404 290.333C403.518 290.353 403.634 290.353 403.748 290.333C404.078 290.334 404.396 290.204 404.632 289.971C404.869 289.739 405.005 289.423 405.012 289.092C405 288.807 404.891 288.535 404.704 288.322C404.516 288.108 404.261 287.966 403.981 287.919ZM384.297 300.02C383.504 297.47 382.521 294.984 381.355 292.583C378.86 287.106 374.961 282.392 370.056 278.922C371.841 278.672 373.554 278.052 375.088 277.102C376.621 276.152 377.941 274.892 378.964 273.403L379.087 273.748C381.342 280.084 385.37 285.632 390.689 289.726C387.582 292.44 385.356 296.025 384.297 300.02ZM392.971 288.347C392.936 288.291 392.889 288.244 392.833 288.209C385.823 283.324 382.373 275.997 380.696 270.698C381.455 269.231 382.081 267.698 382.565 266.117C383.354 268.669 384.337 271.155 385.507 273.555C388.002 279.032 391.902 283.746 396.806 287.215C395.475 287.381 394.18 287.763 392.971 288.347Z" fill="#321951"/>
<path d="M422.016 294.183C420.889 268.146 402.841 241.846 381.782 235.554C378.839 234.661 375.784 234.196 372.71 234.174C369.416 234.161 366.15 234.779 363.088 235.995H362.991C362.106 236.351 361.243 236.761 360.407 237.223L354.593 239.983C346.977 243.226 341.465 250.18 338.716 259.301V21.9396C338.716 9.83831 328.379 0 315.664 0H185.876C173.174 0 162.837 9.83831 162.837 21.9396V167.03C156.925 162.777 150.176 159.841 143.042 158.417C135.907 156.994 128.553 157.116 121.469 158.776C114.386 160.436 107.737 163.596 101.969 168.044C96.2001 172.491 91.4443 178.124 88.0195 184.566C84.5947 191.008 82.58 198.109 82.1101 205.396C81.6402 212.682 82.726 219.985 85.2949 226.817C87.8637 233.648 91.8563 239.849 97.0056 245.007C102.155 250.164 108.342 254.157 115.153 256.721C95.9086 256.9 83.8398 257.424 83.6198 257.438C83.5467 257.43 83.473 257.43 83.3999 257.438H83.1662C83.0919 257.468 83.0259 257.515 82.9738 257.576C82.83 257.646 82.7138 257.763 82.6439 257.907C82.5947 257.971 82.5532 258.041 82.5201 258.114C82.5124 258.192 82.5124 258.271 82.5201 258.349C82.5136 258.422 82.5136 258.496 82.5201 258.57V334.461C82.5201 335.841 82.5201 336.089 93.6543 336.393L98.163 336.517C107.483 336.724 119.868 336.848 133.05 336.848C148.954 336.848 163.181 336.683 172.267 336.393C176.625 336.269 179.814 336.103 181.408 335.938C181.667 335.905 181.908 335.789 182.095 335.606C183.373 335.815 184.664 335.926 185.958 335.938H315.706C319.018 335.937 322.295 335.246 325.328 333.909C329.259 332.268 332.626 329.509 335.014 325.971C337.403 322.433 338.709 318.271 338.771 313.998V288.705C343.967 309.569 358.881 328.348 375.967 334.061L377.095 334.447C379.481 335.159 381.959 335.517 384.449 335.51C387.536 335.471 390.601 334.983 393.548 334.061C396.731 333.085 399.845 331.896 402.868 330.501C406.608 329.18 409.982 326.986 412.71 324.098C419.212 317.185 422.552 306.561 422.016 294.183ZM84.3896 208.633C84.3923 198.981 87.2452 189.546 92.5877 181.521C97.9301 173.496 105.522 167.241 114.405 163.546C123.288 159.852 133.062 158.883 142.494 160.762C151.925 162.642 160.589 167.286 167.392 174.107C174.195 180.928 178.831 189.62 180.714 199.085C182.597 208.55 181.643 218.363 177.972 227.284C174.301 236.205 168.078 243.834 160.09 249.206C152.102 254.578 142.706 257.452 133.091 257.466C120.186 257.469 107.806 252.329 98.6742 243.175C89.5421 234.021 84.4042 221.602 84.3896 208.647V208.633ZM162.837 250.249V257.065C158.714 256.955 154.59 256.872 150.576 256.803C154.944 255.201 159.07 253 162.837 250.263V250.249ZM179.951 333.702C173.683 334.171 154.59 334.503 132.968 334.503C107.222 334.503 88.9807 334.061 84.857 333.619V323.491C86.9463 323.726 90.8364 323.864 98.0255 324.029C107.345 324.25 119.73 324.361 132.913 324.361C154.7 324.361 173.326 324.043 179.896 323.56L179.951 333.702ZM179.951 321.077C173.697 321.546 154.59 321.877 132.968 321.877C107.222 321.877 88.9807 321.435 84.857 320.994V310.866C86.9463 311.1 90.8364 311.238 98.0255 311.404C107.345 311.625 119.73 311.749 132.913 311.749C154.7 311.749 173.326 311.418 179.896 310.948L179.951 321.077ZM179.951 308.451C173.697 308.92 154.59 309.251 132.968 309.251C107.222 309.251 88.9807 308.824 84.857 308.368V298.171C86.9463 298.406 90.8364 298.53 98.0255 298.709C107.345 298.916 119.73 299.04 132.913 299.04C154.686 299.04 173.326 298.723 179.896 298.24L179.951 308.451ZM179.951 295.756C173.683 296.226 154.59 296.557 132.968 296.557C107.222 296.557 88.9807 296.115 84.857 295.674V285.546C86.9463 285.78 90.8364 285.918 98.0255 286.084C107.345 286.291 119.73 286.415 132.913 286.415C154.7 286.415 173.326 286.097 179.896 285.615L179.951 295.756ZM179.951 283.131C173.697 283.6 154.59 283.931 132.968 283.931C107.222 283.931 88.9807 283.49 84.857 283.048V272.92C86.9463 273.154 90.8364 273.292 98.0255 273.458C107.345 273.679 119.73 273.789 132.913 273.789C154.7 273.789 173.326 273.472 179.896 273.003L179.951 283.131ZM179.951 270.505C173.697 270.974 154.59 271.306 132.968 271.306C107.222 271.306 88.9807 270.864 84.857 270.422V260.225C86.9463 260.46 90.8364 260.598 98.0255 260.763C107.345 260.97 119.73 261.095 132.913 261.095C154.672 261.095 173.312 260.777 179.896 260.294L179.951 270.505ZM336.201 314.136C336.201 324.857 326.977 333.592 315.582 333.592H185.876C184.719 333.582 183.566 333.48 182.425 333.288V258.845C182.425 258.845 182.425 258.735 182.425 258.68C182.416 258.576 182.393 258.474 182.357 258.376L182.26 258.225C182.209 258.132 182.149 258.044 182.082 257.962L181.958 257.893L181.711 257.742H181.491C181.491 257.742 181.367 257.742 181.312 257.742C175.814 257.535 170.549 257.355 165.38 257.217V248.455C171.257 243.652 175.994 237.596 179.247 230.725C182.5 223.855 184.188 216.343 184.188 208.736C184.188 201.129 182.5 193.618 179.247 186.748C175.994 179.877 171.257 173.82 165.38 169.017V21.9396C165.38 11.2044 174.604 2.48372 185.999 2.48372H201.271C201.612 2.45942 201.954 2.50364 202.278 2.61381C202.602 2.72397 202.9 2.89785 203.157 3.12528C203.413 3.35271 203.621 3.62912 203.769 3.93833C203.917 4.24754 204.003 4.58333 204.02 4.92605V8.03071C204.081 10.3281 205.036 12.5102 206.681 14.1093C208.325 15.7084 210.528 16.5974 212.817 16.5858H288.681C290.997 16.6414 293.24 15.7739 294.919 14.1731C296.599 12.5723 297.579 10.3686 297.643 8.04451V4.95365C297.661 4.61093 297.746 4.27513 297.894 3.96593C298.043 3.65672 298.251 3.38031 298.507 3.15288C298.763 2.92545 299.062 2.75156 299.385 2.6414C299.709 2.53124 300.052 2.48702 300.393 2.51132H315.692C327.046 2.51132 336.311 11.232 336.311 21.9672L336.201 314.136ZM384.311 333.026C382.062 333.026 379.826 332.695 377.672 332.046C357.548 326.03 340.297 300.751 339.183 275.707C338.551 261.177 343.651 249.325 352.641 243.805C347.142 250.704 344.297 260.57 344.778 271.954C345.905 297.978 363.954 324.278 385.012 330.57C387.3 331.26 389.655 331.699 392.036 331.881C389.538 332.611 386.954 333.001 384.353 333.04L384.311 333.026ZM410.841 322.318C404.545 328.914 395.473 331.039 385.782 328.141C365.658 322.125 348.407 296.846 347.294 271.802C346.799 260.101 349.878 250.125 356.008 243.709C358.148 241.432 360.734 239.626 363.604 238.403C366.474 237.18 369.565 236.567 372.682 236.602C375.52 236.622 378.339 237.054 381.053 237.886C401.177 243.902 418.429 269.181 419.542 294.239C420.051 305.981 416.958 315.957 410.841 322.318Z" fill="#321951"/>
<path d="M134.232 232.973C135.101 228.828 136.717 224.876 139.002 221.314C141.205 217.707 144.321 214.75 148.032 212.743C151.743 210.736 155.916 209.752 160.129 209.889C160.457 209.889 160.772 209.758 161.004 209.525C161.236 209.292 161.366 208.976 161.366 208.647C161.366 208.317 161.236 208.001 161.004 207.769C160.772 207.536 160.457 207.405 160.129 207.405C155.916 207.545 151.741 206.561 148.03 204.554C144.318 202.547 141.203 199.589 139.002 195.98C136.712 192.42 135.095 188.468 134.232 184.32C134.186 184.031 134.039 183.768 133.817 183.579C133.596 183.389 133.314 183.285 133.022 183.285C132.729 183.284 132.446 183.388 132.222 183.577C131.998 183.767 131.848 184.03 131.799 184.32C131.799 184.555 127.675 207.405 105.902 207.405C105.574 207.405 105.259 207.536 105.027 207.769C104.795 208.001 104.665 208.317 104.665 208.647C104.665 208.976 104.795 209.292 105.027 209.525C105.259 209.758 105.574 209.889 105.902 209.889C110.117 209.75 114.293 210.735 118.006 212.741C121.719 214.748 124.837 217.706 127.043 221.314C129.32 224.878 130.931 228.829 131.799 232.973C131.845 233.265 131.994 233.529 132.219 233.719C132.443 233.909 132.729 234.012 133.022 234.008C133.314 234.012 133.598 233.909 133.82 233.718C134.043 233.528 134.189 233.263 134.232 232.973ZM114.548 208.647C125.916 205.142 130.974 195.055 133.022 189.163C135.057 195.055 140.129 205.142 151.483 208.647C140.129 212.152 135.057 222.252 133.022 228.144C130.974 222.252 125.916 212.152 114.548 208.647Z" fill="#321951"/>
</g>
<defs>
<clipPath id="clip0_1616_103148">
<rect width="498" height="337" fill="white" transform="translate(3)"/>
</clipPath>
</defs>
</svg>
