<svg width="504" height="340" viewBox="0 0 504 340" fill="none" xmlns="http://www.w3.org/2000/svg">
<g clip-path="url(#clip0_2051_111513)">
<path d="M80.3946 337.354V336.797H1.25204C0.919976 336.797 0.601515 336.929 0.366713 337.164C0.131911 337.399 0 337.717 0 338.049C0 338.381 0.131911 338.7 0.366713 338.935C0.601515 339.17 0.919976 339.301 1.25204 339.301H91.6768C80.3946 338.995 80.3946 338.703 80.3946 337.354Z" fill="black"/>
<path d="M502.734 336.797H395.156C392.173 337.727 389.071 338.219 385.947 338.258C383.427 338.265 380.92 337.904 378.504 337.187L377.363 336.797H326.113C323.044 338.145 319.728 338.842 316.375 338.842H185.079C183.769 338.83 182.462 338.719 181.169 338.509C180.98 338.693 180.736 338.81 180.474 338.842C178.86 339.009 175.633 339.176 171.223 339.301H502.734C503.066 339.301 503.384 339.17 503.619 338.935C503.854 338.7 503.986 338.381 503.986 338.049C503.986 337.717 503.854 337.399 503.619 337.164C503.384 336.929 503.066 336.797 502.734 336.797Z" fill="black"/>
<path d="M164.267 170.318C170.214 175.161 175.008 181.267 178.301 188.194C181.593 195.12 183.301 202.693 183.301 210.363C183.301 218.032 181.593 225.605 178.301 232.532C175.008 239.458 170.214 245.565 164.267 250.407V259.241C169.498 259.38 174.882 259.561 180.391 259.769C180.391 259.769 180.502 259.769 180.571 259.769H180.794L181.044 259.922L181.17 259.992C181.238 260.074 181.298 260.163 181.35 260.256L181.448 260.409C181.484 260.508 181.508 260.611 181.517 260.715C181.517 260.715 181.517 260.827 181.517 260.882V336.088C182.671 336.282 183.839 336.384 185.009 336.394H316.32C327.811 336.394 337.187 327.588 337.187 316.779V22.1191C337.187 11.296 327.853 2.50391 316.32 2.50391H185.079C173.602 2.50391 164.211 11.296 164.211 22.1191L164.267 170.318ZM210.509 326.67C210.513 326.339 210.646 326.023 210.88 325.789C211.114 325.555 211.43 325.421 211.761 325.418H289.665C289.977 325.451 290.264 325.597 290.474 325.83C290.683 326.062 290.799 326.364 290.799 326.677C290.799 326.99 290.683 327.291 290.474 327.524C290.264 327.756 289.977 327.903 289.665 327.936H211.761C211.428 327.932 211.109 327.797 210.875 327.56C210.64 327.323 210.509 327.003 210.509 326.67ZM251.214 320.02C251.214 319.688 251.346 319.37 251.581 319.135C251.816 318.9 252.134 318.768 252.466 318.768H266.155C266.487 318.768 266.805 318.9 267.04 319.135C267.275 319.37 267.407 319.688 267.407 320.02C267.407 320.352 267.275 320.671 267.04 320.905C266.805 321.14 266.487 321.272 266.155 321.272H252.466C252.302 321.272 252.139 321.24 251.987 321.177C251.835 321.114 251.697 321.022 251.581 320.905C251.464 320.789 251.372 320.651 251.309 320.499C251.246 320.347 251.214 320.185 251.214 320.02ZM250.073 274.112C242.289 274.112 234.68 271.804 228.208 267.48C221.736 263.155 216.692 257.009 213.713 249.817C210.735 242.626 209.955 234.713 211.474 227.079C212.992 219.444 216.741 212.432 222.245 206.928C227.749 201.424 234.761 197.676 242.395 196.157C250.03 194.639 257.943 195.418 265.134 198.397C272.325 201.375 278.472 206.42 282.796 212.892C287.121 219.364 289.429 226.973 289.429 234.757C289.433 245.201 285.289 255.219 277.909 262.609C270.53 269.999 260.517 274.157 250.073 274.168V274.112ZM257.21 10.3778C257.892 10.3806 258.557 10.5852 259.123 10.966C259.688 11.3468 260.128 11.8866 260.387 12.5172C260.646 13.1479 260.713 13.8411 260.578 14.5094C260.443 15.1778 260.114 15.7912 259.631 16.2723C259.148 16.7534 258.533 17.0806 257.864 17.2126C257.195 17.3446 256.502 17.2755 255.872 17.014C255.243 16.7524 254.705 16.3102 254.326 15.7432C253.948 15.1761 253.746 14.5096 253.746 13.8279C253.761 12.9201 254.132 12.0547 254.781 11.4193C255.429 10.7839 256.302 10.4297 257.21 10.4335V10.3778ZM245.107 9.54313C245.954 9.54313 246.783 9.79443 247.487 10.2652C248.192 10.7361 248.741 11.4052 249.065 12.1882C249.39 12.9711 249.475 13.8326 249.309 14.6638C249.144 15.4949 248.736 16.2584 248.137 16.8576C247.537 17.4569 246.774 17.865 245.943 18.0303C245.112 18.1956 244.25 18.1108 243.467 17.7865C242.684 17.4622 242.015 16.913 241.544 16.2084C241.073 15.5037 240.822 14.6753 240.822 13.8279C240.837 12.7012 241.295 11.6256 242.097 10.834C242.899 10.0425 243.98 9.59868 245.107 9.59878V9.54313ZM213.486 27.5307H291.39C291.723 27.5307 292.041 27.6626 292.276 27.8974C292.511 28.1322 292.642 28.4507 292.642 28.7827C292.642 29.1148 292.511 29.4333 292.276 29.6681C292.041 29.9029 291.723 30.0348 291.39 30.0348H213.486C213.154 30.0348 212.835 29.9029 212.601 29.6681C212.366 29.4333 212.234 29.1148 212.234 28.7827C212.234 28.4507 212.366 28.1322 212.601 27.8974C212.835 27.6626 213.154 27.5307 213.486 27.5307ZM263.818 35.4324C263.818 35.7645 263.686 36.083 263.451 36.3178C263.216 36.5526 262.898 36.6845 262.566 36.6845H242.394C242.062 36.6845 241.744 36.5526 241.509 36.3178C241.274 36.083 241.142 35.7645 241.142 35.4324C241.142 35.1004 241.274 34.7819 241.509 34.5471C241.744 34.3123 242.062 34.1804 242.394 34.1804H262.566C262.898 34.1804 263.216 34.3123 263.451 34.5471C263.686 34.7819 263.818 35.1004 263.818 35.4324ZM184.147 84.1227C184.15 80.4712 185.603 76.9703 188.185 74.3882C190.767 71.8062 194.267 70.354 197.919 70.3503H303.646C307.298 70.354 310.799 71.8062 313.381 74.3882C315.963 76.9703 317.415 80.4712 317.419 84.1227V139.769C317.415 143.42 315.963 146.921 313.381 149.503C310.799 152.085 307.298 153.537 303.646 153.541H197.919C194.267 153.537 190.767 152.085 188.185 149.503C185.603 146.921 184.15 143.42 184.147 139.769V84.1227Z" fill="#F1E6FF"/>
<path d="M213.486 30.0348H291.39C291.722 30.0348 292.041 29.9029 292.276 29.6681C292.51 29.4333 292.642 29.1149 292.642 28.7828C292.642 28.4507 292.51 28.1323 292.276 27.8975C292.041 27.6627 291.722 27.5308 291.39 27.5308H213.486C213.154 27.5308 212.835 27.6627 212.601 27.8975C212.366 28.1323 212.234 28.4507 212.234 28.7828C212.234 29.1149 212.366 29.4333 212.601 29.6681C212.835 29.9029 213.154 30.0348 213.486 30.0348Z" fill="#321951"/>
<path d="M242.366 34.2085C242.034 34.2085 241.716 34.3404 241.481 34.5752C241.246 34.81 241.114 35.1285 241.114 35.4605C241.114 35.7926 241.246 36.1111 241.481 36.3459C241.716 36.5807 242.034 36.7126 242.366 36.7126H262.538C262.87 36.7126 263.189 36.5807 263.423 36.3459C263.658 36.1111 263.79 35.7926 263.79 35.4605C263.79 35.1285 263.658 34.81 263.423 34.5752C263.189 34.3404 262.87 34.2085 262.538 34.2085H242.366Z" fill="#321951"/>
<path d="M266.155 321.272C266.487 321.272 266.805 321.14 267.04 320.905C267.275 320.671 267.407 320.352 267.407 320.02C267.407 319.688 267.275 319.37 267.04 319.135C266.805 318.9 266.487 318.768 266.155 318.768H252.466C252.134 318.768 251.815 318.9 251.581 319.135C251.346 319.37 251.214 319.688 251.214 320.02C251.214 320.352 251.346 320.671 251.581 320.905C251.815 321.14 252.134 321.272 252.466 321.272H266.155Z" fill="#321951"/>
<path d="M289.721 327.936C290.032 327.903 290.32 327.756 290.529 327.524C290.739 327.291 290.854 326.99 290.854 326.677C290.854 326.364 290.739 326.062 290.529 325.83C290.32 325.597 290.032 325.451 289.721 325.418H211.817C211.505 325.451 211.217 325.597 211.008 325.83C210.799 326.062 210.683 326.364 210.683 326.677C210.683 326.99 210.799 327.291 211.008 327.524C211.217 327.756 211.505 327.903 211.817 327.936H289.721Z" fill="#321951"/>
<path d="M186.623 122.63H314.887V84.137C314.887 81.1484 313.7 78.2823 311.587 76.1691C309.474 74.0558 306.607 72.8687 303.619 72.8687H197.891C194.904 72.8723 192.04 74.0607 189.928 76.1731C187.815 78.2856 186.627 81.1496 186.623 84.137V122.63ZM194.413 83.5944C194.417 82.1566 194.99 80.7788 196.007 79.7621C197.023 78.7454 198.401 78.1726 199.839 78.1689H217.284C218.723 78.1689 220.103 78.7406 221.12 79.758C222.138 80.7755 222.709 82.1555 222.709 83.5944V91.2458C222.709 91.9582 222.569 92.6637 222.297 93.322C222.024 93.9802 221.624 94.5783 221.12 95.0822C220.617 95.586 220.019 95.9856 219.36 96.2582C218.702 96.5309 217.997 96.6712 217.284 96.6712H199.825C198.387 96.6676 197.009 96.0948 195.993 95.0781C194.976 94.0614 194.403 92.6836 194.4 91.2458L194.413 83.5944Z" fill="#8B6FE2"/>
<path d="M197.891 151.065H303.619C306.607 151.065 309.474 149.878 311.587 147.765C313.7 145.652 314.887 142.786 314.887 139.797V139.338H186.623V139.797C186.627 142.784 187.815 145.648 189.928 147.761C192.04 149.873 194.904 151.062 197.891 151.065Z" fill="#8B6FE2"/>
<path d="M197.891 153.555H303.618C307.27 153.551 310.771 152.099 313.353 149.517C315.935 146.935 317.387 143.434 317.391 139.783V84.1366C317.387 80.4851 315.935 76.9842 313.353 74.4022C310.771 71.8201 307.27 70.3679 303.618 70.3643H197.891C194.24 70.3679 190.739 71.8201 188.157 74.4022C185.575 76.9842 184.122 80.4851 184.119 84.1366V139.783C184.122 143.434 185.575 146.935 188.157 149.517C190.739 152.099 194.24 153.551 197.891 153.555ZM186.623 139.324H314.887V139.783C314.887 142.771 313.7 145.637 311.586 147.751C309.473 149.864 306.607 151.051 303.618 151.051H197.891C194.904 151.047 192.04 149.859 189.927 147.747C187.815 145.634 186.626 142.77 186.623 139.783V139.324ZM197.891 72.8683H303.618C306.607 72.8683 309.473 74.0555 311.586 76.1687C313.7 78.282 314.887 81.1481 314.887 84.1366V122.63H186.623V84.1366C186.626 81.1492 187.815 78.2852 189.927 76.1728C192.04 74.0604 194.904 72.872 197.891 72.8683Z" fill="#321951"/>
<path d="M217.298 80.6729H199.839C198.225 80.6729 196.917 81.9808 196.917 83.5943V91.176C196.917 92.7895 198.225 94.0975 199.839 94.0975H217.298C218.911 94.0975 220.219 92.7895 220.219 91.176V83.5943C220.219 81.9808 218.911 80.6729 217.298 80.6729Z" fill="white"/>
<path d="M199.825 96.6017H217.27C218.709 96.6017 220.089 96.0301 221.106 95.0126C222.124 93.9951 222.695 92.6151 222.695 91.1762V83.5944C222.695 82.1555 222.124 80.7755 221.106 79.758C220.089 78.7406 218.709 78.1689 217.27 78.1689H199.825C198.387 78.1726 197.009 78.7454 195.993 79.7621C194.976 80.7788 194.403 82.1566 194.399 83.5944V91.2458C194.421 92.6715 195.002 94.0316 196.017 95.0333C197.032 96.035 198.399 96.5982 199.825 96.6017ZM196.903 83.5944C196.903 82.8196 197.211 82.0766 197.759 81.5287C198.307 80.9808 199.05 80.673 199.825 80.673H217.27C218.045 80.673 218.788 80.9808 219.336 81.5287C219.884 82.0766 220.191 82.8196 220.191 83.5944V91.2458C220.188 92.0194 219.879 92.7604 219.332 93.3075C218.785 93.8546 218.044 94.1635 217.27 94.1672H199.825C199.051 94.1635 198.31 93.8546 197.763 93.3075C197.216 92.7604 196.907 92.0194 196.903 91.2458V83.5944Z" fill="#321951"/>
<path d="M250.073 197.975C242.784 197.975 235.659 200.136 229.598 204.186C223.538 208.236 218.814 213.992 216.026 220.727C213.237 227.461 212.508 234.872 213.931 242.021C215.354 249.17 218.865 255.736 224.02 260.889C229.175 266.042 235.743 269.551 242.892 270.971C250.042 272.392 257.452 271.66 264.185 268.869C270.919 266.077 276.673 261.352 280.721 255.29C284.769 249.228 286.928 242.101 286.925 234.812C286.91 225.044 283.022 215.681 276.114 208.775C269.206 201.87 259.841 197.986 250.073 197.975ZM270.523 217.84L251.047 258.49C250.951 258.681 250.809 258.846 250.635 258.969C250.46 259.093 250.258 259.172 250.045 259.199H249.906C249.716 259.198 249.528 259.153 249.357 259.069C249.186 258.984 249.036 258.863 248.919 258.712L229.804 233.991C229.638 233.774 229.549 233.507 229.549 233.233C229.549 232.959 229.638 232.693 229.804 232.475L236.162 223.961C236.321 223.754 236.539 223.6 236.788 223.521C237.036 223.441 237.303 223.44 237.553 223.516C237.816 223.613 238.044 223.788 238.207 224.017L247.945 236.69L260.09 211.441C260.121 211.326 260.172 211.217 260.243 211.121C260.386 210.895 260.6 210.722 260.851 210.629C261.103 210.536 261.377 210.528 261.634 210.606L261.87 210.69L262.121 210.843L270.106 216.268C270.351 216.438 270.528 216.689 270.605 216.977C270.681 217.265 270.652 217.571 270.523 217.84Z" fill="#00DA9C"/>
<path d="M289.429 234.812C289.429 227.028 287.121 219.419 282.796 212.947C278.472 206.475 272.326 201.431 265.134 198.452C257.943 195.474 250.03 194.694 242.396 196.213C234.761 197.731 227.749 201.48 222.245 206.984C216.741 212.488 212.993 219.5 211.474 227.134C209.955 234.769 210.735 242.682 213.714 249.873C216.692 257.064 221.737 263.211 228.209 267.535C234.681 271.86 242.29 274.168 250.073 274.168C260.509 274.161 270.515 270.012 277.894 262.633C285.273 255.254 289.422 245.248 289.429 234.812ZM250.073 271.664C242.785 271.664 235.66 269.503 229.6 265.453C223.54 261.404 218.816 255.648 216.027 248.915C213.238 242.181 212.508 234.771 213.93 227.623C215.352 220.474 218.862 213.908 224.015 208.754C229.169 203.6 235.736 200.091 242.884 198.669C250.033 197.247 257.442 197.977 264.176 200.766C270.91 203.555 276.665 208.278 280.714 214.339C284.764 220.399 286.925 227.524 286.925 234.812C286.914 244.582 283.028 253.949 276.119 260.858C269.211 267.767 259.844 271.653 250.073 271.664Z" fill="#321951"/>
<path d="M261.814 213.667L249.294 239.584C249.206 239.778 249.068 239.946 248.895 240.07C248.721 240.195 248.519 240.272 248.306 240.294C248.093 240.316 247.877 240.283 247.679 240.198C247.482 240.112 247.31 239.978 247.18 239.807L237.094 226.772L232.336 233.143L249.614 255.513L267.796 217.66L261.814 213.667Z" fill="white"/>
<path d="M270.092 216.199L262.107 210.773L261.856 210.62L261.62 210.537C261.364 210.459 261.089 210.466 260.837 210.559C260.586 210.652 260.372 210.825 260.229 211.052C260.159 211.148 260.107 211.256 260.076 211.371L247.931 236.621L238.193 223.947C238.03 223.718 237.803 223.544 237.539 223.447C237.289 223.37 237.022 223.372 236.774 223.451C236.525 223.531 236.307 223.685 236.148 223.892L229.79 232.406C229.624 232.624 229.535 232.89 229.535 233.164C229.535 233.438 229.624 233.704 229.79 233.922L248.905 258.643C249.022 258.793 249.172 258.915 249.343 258.999C249.514 259.084 249.702 259.128 249.892 259.13H250.032C250.244 259.102 250.446 259.023 250.621 258.9C250.795 258.776 250.937 258.611 251.033 258.42L270.509 217.771C270.638 217.502 270.667 217.196 270.591 216.908C270.514 216.62 270.337 216.368 270.092 216.199ZM232.336 233.143L237.15 226.716L247.235 239.751C247.366 239.922 247.538 240.057 247.735 240.142C247.932 240.227 248.148 240.26 248.362 240.238C248.574 240.216 248.777 240.139 248.95 240.014C249.124 239.89 249.261 239.722 249.35 239.528L261.87 213.611L267.852 217.659L249.67 255.513L232.336 233.143Z" fill="#321951"/>
<path d="M340.331 277.98C341.43 303.229 358.889 328.715 379.283 334.781C381.463 335.435 383.727 335.768 386.003 335.768C388.658 335.739 391.297 335.351 393.849 334.614C391.438 334.43 389.055 333.987 386.74 333.292C365.427 326.948 347.162 300.433 346.021 274.196C345.534 262.719 348.344 252.758 353.978 245.816C344.825 251.381 339.663 263.331 340.331 277.98Z" fill="#FBC22D"/>
<path d="M380.549 275.657L380.73 275.949L380.549 275.657Z" fill="#FBC22D"/>
<path d="M382.247 272.916C383.944 278.258 387.436 285.645 394.53 290.57C394.587 290.605 394.634 290.653 394.67 290.709C395.893 290.121 397.204 289.735 398.551 289.568C393.587 286.07 389.641 281.318 387.116 275.796C385.932 273.377 384.936 270.87 384.139 268.297C383.648 269.891 383.015 271.437 382.247 272.916Z" fill="#FBC22D"/>
<path d="M357.289 245.761C351.085 252.23 347.968 262.288 348.469 274.084C349.568 299.334 367.027 324.82 387.421 330.885C397.229 333.807 406.411 331.664 412.782 325.015C419.154 318.365 422.103 308.488 421.588 296.705C420.489 271.441 403.03 245.955 382.636 239.89C379.889 239.052 377.035 238.616 374.164 238.596C371.009 238.56 367.88 239.178 364.976 240.411C362.072 241.644 359.454 243.466 357.289 245.761ZM382.789 262.76C382.822 262.459 382.962 262.179 383.185 261.972C383.407 261.765 383.696 261.645 383.999 261.634C384.304 261.62 384.602 261.718 384.838 261.911C385.075 262.103 385.231 262.376 385.279 262.677C385.279 262.9 389.355 285.283 405.812 290.277C406.102 290.33 406.364 290.483 406.553 290.709C406.741 290.936 406.843 291.221 406.842 291.516C406.835 291.85 406.697 292.169 406.457 292.403C406.218 292.637 405.897 292.768 405.562 292.768C405.447 292.788 405.329 292.788 405.214 292.768C403.663 292.287 402.052 292.029 400.429 292.002C388.91 292.002 387.254 307.903 387.241 308.07C387.21 308.373 387.071 308.655 386.848 308.862C386.625 309.069 386.334 309.188 386.03 309.197C385.736 309.199 385.45 309.096 385.224 308.908C384.997 308.72 384.844 308.457 384.792 308.168C384.792 307.931 380.688 285.45 364.147 280.526C363.891 280.446 363.667 280.287 363.507 280.072C363.347 279.857 363.26 279.597 363.257 279.329C363.236 279.209 363.236 279.087 363.257 278.967C363.302 278.81 363.377 278.663 363.48 278.534C363.582 278.406 363.708 278.299 363.852 278.22C363.996 278.142 364.153 278.092 364.316 278.074C364.479 278.057 364.644 278.072 364.801 278.119C371.952 280.247 377.238 277.868 380.438 271.066C381.646 268.435 382.439 265.634 382.789 262.76Z" fill="#FBC22D"/>
<path d="M392.416 292.114C387.033 287.986 382.956 282.392 380.674 276.004L380.494 275.712C379.459 277.213 378.123 278.483 376.571 279.441C375.019 280.399 373.285 281.024 371.479 281.277C376.442 284.774 380.388 289.527 382.914 295.049C384.093 297.47 385.089 299.977 385.891 302.547C386.968 298.493 389.242 294.857 392.416 292.114Z" fill="white"/>
<path d="M380.452 271.01C377.252 277.813 371.966 280.192 364.815 278.063C364.658 278.016 364.493 278.001 364.33 278.019C364.167 278.036 364.01 278.086 363.866 278.165C363.722 278.244 363.596 278.35 363.494 278.479C363.392 278.607 363.316 278.754 363.271 278.912C363.25 279.031 363.25 279.154 363.271 279.273C363.274 279.541 363.361 279.802 363.521 280.017C363.681 280.232 363.906 280.39 364.162 280.47C380.702 285.394 384.778 307.875 384.806 308.112C384.859 308.402 385.011 308.664 385.238 308.852C385.464 309.04 385.75 309.143 386.044 309.141C386.349 309.133 386.639 309.014 386.862 308.806C387.085 308.599 387.224 308.317 387.255 308.015C387.255 307.848 388.924 291.947 400.443 291.947C402.066 291.973 403.677 292.231 405.228 292.712C405.343 292.732 405.461 292.732 405.576 292.712C405.911 292.712 406.232 292.581 406.471 292.347C406.711 292.113 406.849 291.794 406.856 291.46C406.857 291.165 406.755 290.88 406.567 290.653C406.378 290.427 406.116 290.274 405.826 290.222C389.369 285.228 385.321 262.844 385.293 262.621C385.245 262.32 385.089 262.048 384.852 261.855C384.616 261.663 384.318 261.564 384.013 261.578C383.71 261.589 383.421 261.71 383.199 261.916C382.977 262.123 382.836 262.403 382.803 262.705C382.453 265.578 381.66 268.38 380.452 271.01ZM385.891 302.478C385.089 299.907 384.093 297.401 382.914 294.98C380.388 289.458 376.442 284.705 371.479 281.207C373.285 280.955 375.019 280.33 376.571 279.372C378.123 278.414 379.459 277.144 380.494 275.643L380.619 275.99C382.9 282.378 386.977 287.972 392.36 292.1C389.216 294.836 386.963 298.45 385.891 302.478ZM384.138 268.297C384.936 270.87 385.932 273.376 387.115 275.796C389.641 281.317 393.587 286.07 398.551 289.568C397.204 289.735 395.893 290.121 394.669 290.709C394.634 290.653 394.586 290.605 394.53 290.57C387.435 285.645 383.944 278.258 382.246 272.916C383.015 271.436 383.648 269.891 384.138 268.297Z" fill="#321951"/>
<path d="M179.083 336.45V326.225C172.433 326.712 153.583 327.032 131.533 327.032C118.192 327.032 105.658 326.92 96.2257 326.698C88.9499 326.531 85.013 326.392 82.8984 326.155V336.366C87.0719 336.811 105.477 337.257 131.589 337.257C153.416 337.257 172.739 336.923 179.083 336.45Z" fill="#FBC22D"/>
<path d="M181.17 338.509C182.462 338.719 183.769 338.831 185.079 338.843H316.389C319.742 338.842 323.058 338.146 326.127 336.798C330.106 335.143 333.514 332.361 335.931 328.794C338.348 325.227 339.67 321.032 339.733 316.723V291.07C344.991 312.105 360.085 331.038 377.377 336.798L378.518 337.187C380.934 337.904 383.441 338.265 385.961 338.258C389.085 338.219 392.187 337.727 395.17 336.798C398.391 335.814 401.542 334.615 404.602 333.208C408.387 331.877 411.801 329.664 414.563 326.753C421.24 319.798 424.621 309.072 424.078 296.593C422.938 270.342 404.672 243.827 383.359 237.483C380.381 236.583 377.289 236.115 374.178 236.092C370.845 236.079 367.539 236.703 364.44 237.929H364.342C363.446 238.287 362.573 238.701 361.727 239.167L355.842 241.949C348.135 245.218 342.557 252.23 339.775 261.425V22.1193C339.775 9.9189 329.313 0 316.445 0H185.079C172.224 0 161.763 9.9189 161.763 22.1193V168.399C155.779 164.111 148.949 161.15 141.729 159.715C134.508 158.28 127.065 158.403 119.896 160.077C112.728 161.751 105.999 164.936 100.161 169.42C94.3228 173.904 89.5097 179.584 86.0437 186.078C82.5776 192.573 80.5386 199.732 80.0631 207.078C79.5875 214.425 80.6864 221.788 83.2862 228.675C85.886 235.562 89.9267 241.814 95.138 247.014C100.349 252.213 106.611 256.24 113.504 258.824C94.0278 259.004 81.8135 259.533 81.591 259.547C81.517 259.539 81.4424 259.539 81.3684 259.547H81.1319C81.0567 259.577 80.9898 259.625 80.9371 259.686C80.7916 259.757 80.6741 259.875 80.6032 260.02C80.5535 260.084 80.5115 260.154 80.478 260.229C80.4702 260.307 80.4702 260.387 80.478 260.465C80.4714 260.539 80.4714 260.614 80.478 260.688V337.201C80.478 338.592 80.478 338.843 91.7464 339.149L96.3093 339.274C105.741 339.483 118.276 339.608 131.617 339.608C147.712 339.608 162.111 339.441 171.306 339.149C175.716 339.023 178.944 338.857 180.557 338.69C180.774 338.685 180.985 338.623 181.17 338.509ZM82.9682 336.366V326.155C85.0827 326.392 89.0197 326.531 96.2954 326.698C105.727 326.92 118.262 327.032 131.603 327.032C153.653 327.032 172.503 326.712 179.152 326.225V336.45C172.809 336.923 153.486 337.257 131.603 337.257C105.477 337.257 87.0025 336.812 82.9682 336.366ZM131.658 161.151C141.394 161.151 150.91 164.038 159.004 169.447C167.099 174.856 173.407 182.543 177.132 191.538C180.857 200.532 181.831 210.429 179.931 219.977C178.03 229.525 173.341 238.295 166.457 245.178C159.572 252.061 150.801 256.747 141.252 258.645C131.704 260.542 121.807 259.566 112.814 255.838C103.82 252.111 96.1342 245.8 90.7277 237.704C85.3211 229.608 82.4368 220.091 82.4396 210.356C82.4543 197.308 87.645 184.799 96.8726 175.574C106.1 166.349 118.611 161.162 131.658 161.151ZM185.148 2.55972H316.459C327.95 2.55972 337.326 11.3518 337.326 22.1749V316.723C337.326 327.533 327.992 336.339 316.459 336.339H185.079C183.908 336.328 182.741 336.226 181.587 336.033V260.966C181.587 260.966 181.587 260.855 181.587 260.799C181.577 260.694 181.554 260.592 181.517 260.493L181.42 260.34C181.368 260.247 181.307 260.158 181.239 260.076L181.114 260.006L180.863 259.853H180.641C180.641 259.853 180.516 259.853 180.46 259.853C174.895 259.644 169.567 259.464 164.337 259.324V250.491C170.284 245.648 175.078 239.542 178.37 232.615C181.663 225.689 183.371 218.116 183.371 210.446C183.371 202.777 181.663 195.204 178.37 188.277C175.078 181.351 170.284 175.244 164.337 170.402V22.1193C164.267 11.2961 173.602 2.50407 185.079 2.50407L185.148 2.55972ZM82.9682 262.357C85.0827 262.594 89.0197 262.733 96.2954 262.9C105.727 263.108 118.262 263.234 131.603 263.234C153.625 263.234 172.489 262.914 179.152 262.427V272.777C172.823 273.25 153.486 273.584 131.603 273.584C105.547 273.584 87.086 273.139 82.9125 272.693L82.9682 262.357ZM149.423 258.963C153.845 257.343 158.021 255.119 161.833 252.355V259.227C157.52 259.074 153.374 258.991 149.354 258.921L149.423 258.963ZM96.2259 275.712C105.658 275.935 118.192 276.046 131.533 276.046C153.583 276.046 172.433 275.726 179.083 275.253V285.464C172.753 285.937 153.416 286.271 131.533 286.271C105.477 286.271 87.0164 285.826 82.843 285.381V275.17C85.0132 275.406 88.9501 275.545 96.2259 275.712ZM96.2259 288.441C105.658 288.65 118.192 288.775 131.533 288.775C153.583 288.775 172.433 288.455 179.083 287.968V298.193C172.739 298.666 153.416 299 131.533 299C105.477 299 87.0164 298.555 82.843 298.11V287.899C85.0132 288.135 88.9501 288.274 96.2259 288.441ZM96.2259 301.17C105.658 301.379 118.192 301.504 131.533 301.504C153.569 301.504 172.433 301.184 179.083 300.697V311.047C172.753 311.52 153.416 311.854 131.533 311.854C105.477 311.854 87.0164 311.423 82.843 310.964V300.683C85.0132 300.864 88.9501 300.989 96.2259 301.17ZM96.2259 313.969C105.658 314.191 118.192 314.317 131.533 314.317C153.583 314.317 172.433 313.983 179.083 313.51V323.721C172.753 324.194 153.416 324.528 131.533 324.528C105.477 324.528 87.0164 324.082 82.843 323.637V313.426C85.0132 313.663 88.9501 313.83 96.2259 313.969ZM382.636 239.89C403.002 245.955 420.461 271.441 421.588 296.705C422.103 308.488 418.973 318.546 412.782 325.015C406.592 331.483 397.229 333.807 387.422 330.885C367.055 324.82 349.596 299.334 348.469 274.085C347.969 262.288 351.085 252.23 357.289 245.761C359.455 243.466 362.072 241.644 364.976 240.411C367.881 239.178 371.009 238.56 374.164 238.596C377.036 238.616 379.889 239.052 382.636 239.89ZM353.923 245.816C348.358 252.772 345.478 262.719 345.965 274.196C347.106 300.433 365.372 326.948 386.684 333.292C388.999 333.987 391.383 334.43 393.793 334.613C391.242 335.351 388.602 335.739 385.947 335.768C383.671 335.768 381.407 335.435 379.228 334.78C358.861 328.715 341.402 303.229 340.275 277.98C339.663 263.331 344.825 251.381 353.923 245.816Z" fill="#321951"/>
<path d="M82.9683 323.637C87.1417 324.082 105.547 324.528 131.659 324.528C153.541 324.528 172.878 324.194 179.208 323.721V313.51C172.558 313.983 153.708 314.317 131.659 314.317C118.317 314.317 105.783 314.191 96.3511 313.969C89.0754 313.802 85.1385 313.663 83.0239 313.426L82.9683 323.637Z" fill="#FBC22D"/>
<path d="M82.9683 310.908C87.1417 311.367 105.547 311.798 131.659 311.798C153.541 311.798 172.878 311.465 179.208 310.992V300.697C172.558 301.184 153.694 301.504 131.659 301.504C118.317 301.504 105.783 301.379 96.3511 301.17C89.0754 300.989 85.1385 300.864 83.0239 300.627L82.9683 310.908Z" fill="#FBC22D"/>
<path d="M82.9683 298.11C87.1417 298.555 105.547 299 131.659 299C153.541 299 172.864 298.666 179.208 298.193V287.968C172.558 288.455 153.708 288.775 131.659 288.775C118.317 288.775 105.783 288.65 96.3511 288.441C89.0754 288.274 85.1385 288.135 83.0239 287.898L82.9683 298.11Z" fill="#FBC22D"/>
<path d="M82.9683 285.38C87.1417 285.826 105.547 286.271 131.659 286.271C153.541 286.271 172.878 285.937 179.208 285.464V275.253C172.558 275.726 153.708 276.046 131.659 276.046C118.317 276.046 105.783 275.935 96.3511 275.712C89.0754 275.545 85.1385 275.406 83.0239 275.169L82.9683 285.38Z" fill="#FBC22D"/>
<path d="M179.083 272.735V262.357C172.419 262.844 153.555 263.164 131.533 263.164C118.192 263.164 105.658 263.039 96.2257 262.83C88.9499 262.663 85.013 262.524 82.8984 262.288V272.624C87.0719 273.069 105.477 273.514 131.589 273.514C153.416 273.486 172.753 273.208 179.083 272.735Z" fill="#FBC22D"/>
<path d="M131.658 259.575C141.393 259.575 150.909 256.688 159.003 251.28C167.097 245.871 173.405 238.185 177.131 229.191C180.856 220.197 181.831 210.301 179.932 200.754C178.032 191.206 173.345 182.436 166.461 175.553C159.578 168.669 150.808 163.982 141.261 162.082C131.713 160.183 121.817 161.158 112.823 164.883C103.83 168.609 96.1426 174.917 90.7343 183.011C85.3261 191.105 82.4395 200.621 82.4395 210.356C82.4542 223.405 87.6445 235.915 96.8716 245.142C106.099 254.37 118.609 259.56 131.658 259.575ZM130.42 185.844C130.47 185.551 130.621 185.286 130.848 185.095C131.075 184.904 131.362 184.799 131.658 184.8C131.953 184.8 132.239 184.905 132.463 185.096C132.687 185.287 132.836 185.552 132.883 185.844C133.756 190.025 135.392 194.01 137.71 197.599C139.938 201.237 143.09 204.22 146.847 206.244C150.603 208.267 154.828 209.259 159.092 209.118C159.424 209.118 159.742 209.249 159.977 209.484C160.212 209.719 160.344 210.038 160.344 210.37C160.344 210.702 160.212 211.02 159.977 211.255C159.742 211.49 159.424 211.622 159.092 211.622C154.828 211.483 150.604 212.476 146.849 214.499C143.093 216.523 139.94 219.504 137.71 223.14C135.398 226.732 133.762 230.716 132.883 234.896C132.839 235.188 132.691 235.455 132.466 235.647C132.241 235.838 131.954 235.942 131.658 235.939C131.361 235.943 131.072 235.839 130.845 235.648C130.618 235.456 130.467 235.189 130.42 234.896C129.542 230.718 127.911 226.734 125.607 223.14C123.374 219.503 120.219 216.521 116.461 214.498C112.703 212.475 108.477 211.482 104.211 211.622C103.879 211.622 103.56 211.49 103.326 211.255C103.091 211.02 102.959 210.702 102.959 210.37C102.959 210.038 103.091 209.719 103.326 209.484C103.56 209.249 103.879 209.118 104.211 209.118C126.205 209.104 130.267 186.066 130.351 185.844H130.42Z" fill="#FBC22D"/>
<path d="M131.658 230.013C133.717 224.073 138.851 213.889 150.342 210.356C138.851 206.822 133.717 196.653 131.658 190.713C129.586 196.653 124.466 206.822 112.961 210.356C124.397 213.889 129.516 224.073 131.658 230.013Z" fill="white"/>
<path d="M102.89 210.356C102.89 210.688 103.022 211.006 103.256 211.241C103.491 211.476 103.81 211.608 104.142 211.608C108.407 211.469 112.634 212.461 116.392 214.484C120.15 216.507 123.305 219.489 125.538 223.127C127.842 226.721 129.473 230.704 130.351 234.882C130.398 235.176 130.549 235.442 130.776 235.634C131.003 235.826 131.292 235.929 131.589 235.925C131.885 235.929 132.172 235.825 132.397 235.633C132.622 235.441 132.77 235.174 132.813 234.882C133.693 230.702 135.329 226.718 137.641 223.127C139.871 219.49 143.024 216.509 146.779 214.486C150.535 212.463 154.759 211.47 159.023 211.608C159.355 211.608 159.673 211.476 159.908 211.241C160.143 211.006 160.275 210.688 160.275 210.356C160.275 210.024 160.143 209.705 159.908 209.471C159.673 209.236 159.355 209.104 159.023 209.104C154.759 209.245 150.533 208.253 146.777 206.23C143.021 204.206 139.869 201.224 137.641 197.585C135.323 193.997 133.687 190.012 132.813 185.83C132.767 185.539 132.618 185.274 132.394 185.082C132.169 184.891 131.884 184.786 131.589 184.787C131.293 184.786 131.005 184.89 130.779 185.081C130.552 185.272 130.4 185.538 130.351 185.83C130.351 186.066 126.178 209.104 104.142 209.104C103.81 209.104 103.491 209.236 103.256 209.471C103.022 209.705 102.89 210.024 102.89 210.356ZM131.659 190.713C133.718 196.653 138.851 206.822 150.342 210.356C138.851 213.889 133.718 224.073 131.659 230.013C129.586 224.073 124.466 213.889 112.962 210.356C124.397 206.822 129.516 196.653 131.659 190.713Z" fill="#321951"/>
<path d="M245.107 18.1686C245.954 18.1686 246.783 17.9173 247.487 17.4465C248.192 16.9757 248.741 16.3065 249.066 15.5236C249.39 14.7406 249.475 13.8791 249.309 13.048C249.144 12.2168 248.736 11.4533 248.137 10.8541C247.538 10.2549 246.774 9.84678 245.943 9.68145C245.112 9.51613 244.25 9.60098 243.467 9.92528C242.684 10.2496 242.015 10.7988 241.544 11.5034C241.074 12.208 240.822 13.0364 240.822 13.8839C240.822 14.4465 240.933 15.0037 241.148 15.5236C241.364 16.0434 241.679 16.5158 242.077 16.9136C242.475 17.3115 242.947 17.6271 243.467 17.8425C243.987 18.0578 244.544 18.1686 245.107 18.1686Z" fill="#321951"/>
<path d="M257.21 17.3337C257.892 17.3309 258.557 17.1262 259.123 16.7455C259.689 16.3647 260.129 15.8249 260.388 15.1943C260.647 14.5636 260.713 13.8704 260.578 13.2021C260.444 12.5337 260.114 11.9203 259.631 11.4392C259.148 10.9581 258.533 10.6309 257.864 10.4989C257.195 10.3669 256.502 10.436 255.873 10.6975C255.243 10.9591 254.705 11.4013 254.327 11.9683C253.948 12.5354 253.746 13.2019 253.746 13.8836C253.746 14.3379 253.836 14.7876 254.01 15.2071C254.184 15.6266 254.44 16.0076 254.762 16.3281C255.083 16.6487 255.465 16.9025 255.886 17.0751C256.306 17.2476 256.756 17.3355 257.21 17.3337Z" fill="#321951"/>
</g>
<defs>
<clipPath id="clip0_2051_111513">
<rect width="504" height="339.761" fill="white"/>
</clipPath>
</defs>
</svg>
