<svg width="504" height="340" viewBox="0 0 504 340" fill="none" xmlns="http://www.w3.org/2000/svg">
<path d="M345.695 274.421C345.143 262.997 348.04 252.966 353.556 246C344.592 251.573 339.489 263.554 340.041 278.183C341.144 303.539 358.383 329.034 378.657 335.025C380.863 335.721 383.07 336 385.277 336C387.897 336 390.518 335.582 393 334.885C390.655 334.746 388.311 334.328 385.966 333.632C364.865 327.223 346.798 300.752 345.695 274.421Z" fill="#FBC22D"/>
<path d="M420.938 297.221C419.828 271.81 402.477 246.26 382.072 240.257C379.157 239.419 376.381 239 373.605 239C367.081 239 361.251 241.513 356.809 246.26C350.563 252.683 347.509 262.875 348.064 274.742C349.175 300.153 366.526 325.703 386.93 331.707C396.647 334.639 405.808 332.544 412.193 325.843C418.301 319.141 421.493 309.088 420.938 297.221Z" fill="#FBC22D"/>
<path d="M96.3179 326.557C89.104 326.418 85.0809 326.278 83 326V336.165C87.1618 336.582 105.474 337 131.555 337C153.335 337 172.618 336.722 179 336.165V326C172.341 326.418 153.613 326.835 131.555 326.835C118.237 326.975 105.751 326.835 96.3179 326.557Z" fill="#FBC22D"/>
<path d="M96.3179 313.557C89.104 313.418 85.0809 313.278 83 313V323.165C87.1618 323.582 105.474 324 131.555 324C153.335 324 172.618 323.722 179 323.165V313C172.341 313.418 153.613 313.835 131.555 313.835C118.237 313.835 105.751 313.835 96.3179 313.557Z" fill="#FBC22D"/>
<path d="M96.3179 301.55C89.104 301.412 85.0809 301.275 83 301V311.175C87.1618 311.587 105.474 312 131.555 312C153.335 312 172.618 311.725 179 311.175V301C172.341 301.413 153.613 301.825 131.555 301.825C118.237 301.825 105.751 301.825 96.3179 301.55Z" fill="#FBC22D"/>
<path d="M96.3179 288.557C89.104 288.418 85.0809 288.278 83 288V298.165C87.1618 298.582 105.474 299 131.555 299C153.335 299 172.618 298.722 179 298.165V288C172.341 288.418 153.613 288.835 131.555 288.835C118.237 288.975 105.751 288.835 96.3179 288.557Z" fill="#FBC22D"/>
<path d="M96.3179 275.557C89.104 275.418 85.0809 275.278 83 275V285.165C87.1618 285.582 105.474 286 131.555 286C153.335 286 172.618 285.722 179 285.165V275C172.341 275.418 153.613 275.835 131.555 275.835C118.237 275.835 105.751 275.835 96.3179 275.557Z" fill="#FBC22D"/>
<path d="M96.3179 262.55C89.104 262.412 85.0809 262.275 83 262V272.175C87.1618 272.587 105.474 273 131.555 273C153.335 273 172.618 272.725 179 272.175V262C172.341 262.413 153.613 262.825 131.555 262.825C118.237 262.825 105.751 262.687 96.3179 262.55Z" fill="#FBC22D"/>
<path d="M131 161C104.008 161 82 183.233 82 210.5C82 237.767 104.008 260 131 260C157.992 260 180 237.767 180 210.5C180 183.093 158.13 161 131 161Z" fill="#FBC22D"/>
<path d="M80.5523 337.667V337H1.25645C0.558423 337 0 337.667 0 338.5C0 339.333 0.558423 340 1.25645 340H92C80.692 339.667 80.5523 339.333 80.5523 337.667Z" fill="black"/>
<path d="M502.608 337H394.995C391.933 338 388.87 338.833 385.807 338.833C383.301 338.833 380.796 338.333 378.429 337.5C378.011 337.333 377.594 337.167 377.315 337H326.084C323.161 338.5 319.82 339.5 316.339 339.5H184.921C183.529 339.5 182.276 339.333 181.023 339.167C180.884 339.333 180.606 339.5 180.327 339.5C178.657 339.667 175.455 339.833 171 340H502.747C503.443 340 504 339.333 504 338.5C504 337.667 503.304 337 502.608 337Z" fill="black"/>
<path d="M316.261 3H300.812C299.281 3 298.029 4.1138 298.029 5.50604V8.56899C298.029 13.3026 293.992 17.2009 288.982 17.2009H212.156C207.145 17.2009 203.109 13.3026 203.109 8.56899V5.50604C203.109 4.1138 201.856 3 200.326 3H184.877C173.325 3 164 11.7712 164 22.6307V170.905C175.552 180.372 183.067 194.852 183.067 211.002C183.067 227.152 175.691 241.631 164 251.098V260.009C169.289 260.148 174.578 260.287 180.145 260.566H180.284C180.423 260.566 180.423 260.566 180.562 260.566C180.701 260.566 180.701 260.705 180.841 260.705C180.841 260.705 180.98 260.705 180.98 260.844C181.119 260.983 181.119 260.983 181.119 261.123L181.258 261.262C181.258 261.401 181.258 261.401 181.258 261.54V261.679V274.349V274.488V287.158V287.297V299.966V312.636V312.775V325.444V325.584V336.722C182.372 336.861 183.624 337 184.738 337H316.122C327.674 337 336.998 328.229 336.998 317.369V22.6307C337.138 11.7712 327.674 3 316.261 3Z" fill="#F1E6FF"/>
<path d="M303.755 73H198.245C191.998 73 187 78.0279 187 84.3129V123H315V84.3129C315 78.0279 310.002 73 303.755 73Z" fill="#8B6FE2"/>
<path d="M187 139.429C187 145.857 191.998 151 198.245 151H303.755C310.002 151 315 145.857 315 139.429V139H187V139.429Z" fill="#8B6FE2"/>
<path d="M250 198C229.615 198 213 214.615 213 235C213 255.385 229.615 272 250 272C270.385 272 287 255.385 287 235C287 214.615 270.385 198 250 198Z" fill="#00DA9C"/>
<path d="M217.237 81H199.891C198.239 81 197 82.2187 197 83.8437V91.1563C197 92.7813 198.239 94 199.891 94H217.099C218.751 94 219.99 92.7813 219.99 91.1563V83.8437C220.128 82.2187 218.751 81 217.237 81Z" fill="white"/>
<path d="M248.882 239.953C248.745 240.372 248.333 240.651 247.922 240.651C247.51 240.651 247.098 240.512 246.824 240.233L236.804 227.116L232 233.535L249.02 256L267 218.047L261.098 214L248.882 239.953Z" fill="white"/>
<path d="M380.24 276.28L380.1 276C378 278.798 375.2 281.036 371 281.596C375.62 284.674 379.54 289.29 382.48 295.446C383.88 298.244 384.86 300.902 385.42 303C386.54 299.642 388.5 295.306 392 292.508C385.84 287.891 382.2 281.596 380.24 276.28Z" fill="white"/>
<path d="M131.5 191C129.429 196.947 124.321 207.043 113 210.5C124.459 213.957 129.429 224.191 131.5 230C133.571 224.053 138.679 213.957 150 210.5C138.679 207.043 133.571 196.947 131.5 191Z" fill="white"/>
<path d="M213.246 31H290.754C291.446 31 292 30.3333 292 29.5C292 28.6667 291.446 28 290.754 28H213.246C212.554 28 212 28.6667 212 29.5C212 30.3333 212.554 31 213.246 31Z" fill="#321951"/>
<path d="M242.27 34C241.564 34 241 34.6667 241 35.5C241 36.3333 241.564 37 242.27 37H262.73C263.436 37 264 36.3333 264 35.5C264 34.6667 263.436 34 262.73 34H242.27Z" fill="#321951"/>
<path d="M253.897 319H252.241C251.552 319 251 319.667 251 320.5C251 321.333 251.552 322 252.241 322H253.897H265.759C266.448 322 267 321.333 267 320.5C267 319.667 266.448 319 265.759 319H253.897Z" fill="#321951"/>
<path d="M289.754 326H212.246C211.554 326 211 326.667 211 327.5C211 328.333 211.554 329 212.246 329H289.754C290.446 329 291 328.333 291 327.5C291 326.667 290.446 326 289.754 326Z" fill="#321951"/>
<path d="M303.256 70H197.744C190.109 70 184 76.107 184 83.7408V139.259C184 146.893 190.109 153 197.744 153H303.256C310.891 153 317 146.893 317 139.259V83.7408C317 76.107 310.891 70 303.256 70ZM314.501 139.259C314.501 145.505 309.503 150.502 303.256 150.502H197.744C191.497 150.502 186.499 145.505 186.499 139.259V138.843H314.501V139.259ZM314.501 122.187H186.499V83.7408C186.499 77.495 191.497 72.4983 197.744 72.4983H303.256C309.503 72.4983 314.501 77.495 314.501 83.7408V122.187Z" fill="#321951"/>
<path d="M217.754 78H200.378C197.344 78 195 80.3182 195 83.3182V90.6818C195 93.6818 197.344 96 200.378 96H217.616C220.65 96 222.995 93.6818 222.995 90.6818V83.3182C223.132 80.4545 220.65 78 217.754 78ZM220.65 90.6818C220.65 92.3182 219.409 93.5455 217.754 93.5455H200.378C198.723 93.5455 197.482 92.3182 197.482 90.6818V83.3182C197.482 81.6818 198.723 80.4545 200.378 80.4545H217.616C219.271 80.4545 220.512 81.6818 220.512 83.3182V90.6818H220.65Z" fill="#321951"/>
<path d="M290 235.5C290 213.726 272.274 196 250.5 196C228.726 196 211 213.726 211 235.5C211 257.274 228.726 275 250.5 275C272.274 275 290 257.274 290 235.5ZM250.5 272.488C230.122 272.488 213.512 255.878 213.512 235.5C213.512 215.122 230.122 198.512 250.5 198.512C270.878 198.512 287.488 215.122 287.488 235.5C287.488 255.878 270.878 272.488 250.5 272.488Z" fill="#321951"/>
<path d="M270.48 216.801L262.565 211.331C262.426 211.331 262.426 211.191 262.287 211.191C262.148 211.191 262.148 211.191 262.009 211.051C261.454 210.91 260.898 211.051 260.62 211.612C260.62 211.752 260.482 211.752 260.482 211.892L248.4 237.419L238.679 224.655C238.54 224.375 238.263 224.235 237.985 224.094C237.429 223.954 236.874 224.094 236.596 224.515L230.208 233.071C229.931 233.492 229.931 234.193 230.208 234.614L249.233 259.579C249.511 259.86 249.789 260 250.205 260H250.344C250.761 260 251.177 259.719 251.316 259.299L270.758 218.344C271.174 217.923 271.036 217.222 270.48 216.801ZM250.066 256.494L232.847 233.912L237.707 227.461L247.845 240.645C248.122 240.925 248.539 241.206 248.955 241.065C249.372 241.065 249.789 240.785 249.928 240.364L262.426 214.276L268.397 218.344L250.066 256.494Z" fill="#321951"/>
<path d="M405.038 290.781C388.827 285.73 384.843 263.144 384.706 263.004C384.569 262.443 384.019 261.882 383.47 262.022C382.783 262.022 382.371 262.583 382.233 263.144C382.233 263.144 381.821 267.353 379.898 271.421C376.738 278.295 371.518 280.68 364.511 278.576C363.824 278.435 363.137 278.716 363 279.417C363 279.558 363 279.698 363 279.838C363 280.399 363.412 280.82 363.824 281.101C380.173 286.011 384.157 308.737 384.157 309.018C384.294 309.579 384.843 310 385.393 310C386.08 310 386.492 309.439 386.629 308.878C386.629 308.737 388.278 292.745 399.681 292.745C401.192 292.745 402.703 293.025 404.351 293.446C404.489 293.446 404.626 293.446 404.764 293.446C405.45 293.446 406 292.885 406 292.184C406 291.342 405.588 290.781 405.038 290.781ZM385.393 302.986C384.706 300.881 383.744 298.216 382.508 295.41C379.623 289.237 375.776 284.608 371.243 281.522C375.227 280.961 378.112 278.716 380.173 275.91C380.173 276.051 380.31 276.191 380.31 276.331C382.233 281.522 385.805 287.975 391.85 292.604C388.278 295.27 386.355 299.619 385.393 302.986ZM394.048 291.202L393.911 291.061C386.904 286.151 383.47 278.716 381.821 273.245C382.645 271.702 383.195 270.018 383.744 268.615C384.431 270.72 385.393 273.385 386.629 276.191C389.514 282.363 393.361 286.993 397.895 290.079C396.383 290.22 395.147 290.64 394.048 291.202Z" fill="#321951"/>
<path d="M423.942 296.839C422.831 270.524 404.634 244.07 383.241 237.666C380.185 236.691 376.99 236.274 374.073 236.274C370.601 236.274 367.406 236.97 364.35 238.084C364.35 238.084 364.35 238.084 364.211 238.084H364.072C363.238 238.501 362.266 238.919 361.432 239.337L355.598 242.121C347.958 245.463 342.402 252.424 339.624 261.613V22.1376C339.624 9.88534 329.205 0 316.287 0H185.155C172.375 0 161.818 9.88534 161.818 22.1376V168.608C153.345 162.482 142.926 158.862 131.675 158.862C103.198 158.862 80 182.113 80 210.655C80 232.793 94.03 251.728 113.616 259.107C94.1689 259.247 81.9448 259.803 81.8058 259.803C81.6669 259.803 81.6669 259.803 81.528 259.803C81.3891 259.803 81.3891 259.803 81.2502 259.803C81.1113 259.803 81.1113 259.943 81.1113 259.943L80.9724 260.082L80.8335 260.221L80.6946 260.36C80.6946 260.5 80.6946 260.5 80.6946 260.639C80.6946 260.778 80.6946 260.778 80.6946 260.917V273.587V273.726V286.396V286.536V299.206V311.875V312.015V324.685V324.824V337.076V337.633C80.6946 339.025 80.6945 339.304 91.9463 339.582C93.3354 339.582 94.8634 339.722 96.5303 339.722C105.976 340 118.478 340 131.814 340C147.927 340 162.235 339.861 171.403 339.582C175.848 339.443 179.043 339.304 180.71 339.165C180.988 339.165 181.266 339.025 181.405 338.886C182.655 339.025 184.044 339.165 185.294 339.165H316.426C319.898 339.165 323.232 338.468 326.149 337.076C334.206 333.595 339.762 325.938 339.762 317.027V291.409C345.041 312.432 360.043 331.368 377.407 337.215C377.824 337.355 378.102 337.494 378.518 337.633C381.019 338.329 383.38 338.747 385.881 338.747C389.076 338.747 392.132 338.19 395.049 337.215C398.244 336.241 401.439 334.988 404.495 333.595C408.245 332.342 411.579 330.115 414.496 327.191C421.025 320.09 424.498 309.369 423.942 296.839ZM82.7782 210.516C82.7782 183.366 104.865 161.228 131.952 161.228C159.04 161.228 181.127 183.366 181.127 210.516C181.127 237.666 159.04 259.803 131.952 259.803C104.726 259.803 82.7782 237.666 82.7782 210.516ZM161.957 252.563V259.386C157.79 259.247 153.623 259.247 149.594 259.107C154.039 257.576 158.207 255.209 161.957 252.563ZM179.321 336.798C172.931 337.215 153.623 337.633 131.814 337.633C105.837 337.633 87.3623 337.215 83.1949 336.798V326.634C85.2786 326.912 89.307 327.052 96.5303 327.191C105.976 327.469 118.478 327.469 131.814 327.469C153.761 327.469 172.653 327.191 179.321 326.634V336.798ZM179.321 323.989C172.931 324.406 153.761 324.824 131.814 324.824C105.837 324.824 87.3623 324.406 83.1949 323.989V313.825C85.2786 314.103 89.307 314.242 96.5303 314.382C105.976 314.66 118.478 314.66 131.814 314.66C153.761 314.66 172.653 314.382 179.321 313.825V323.989ZM179.321 311.319C172.931 311.736 153.623 312.154 131.814 312.154C105.837 312.154 87.3623 311.736 83.1949 311.319V301.016C85.2786 301.294 89.307 301.433 96.5303 301.572C105.976 301.851 118.478 301.851 131.814 301.851C153.761 301.851 172.653 301.572 179.321 301.016V311.319ZM179.321 298.509C172.931 298.927 153.623 299.345 131.814 299.345C105.837 299.345 87.3623 298.927 83.1949 298.509V288.346C85.2786 288.624 89.307 288.763 96.5303 288.903C105.976 289.181 118.478 289.181 131.814 289.181C153.761 289.181 172.653 288.903 179.321 288.346V298.509ZM179.321 285.7C172.931 286.118 153.761 286.536 131.814 286.536C105.837 286.536 87.3623 286.118 83.1949 285.7V275.536C85.2786 275.815 89.307 275.954 96.5303 276.093C105.976 276.372 118.478 276.372 131.814 276.372C153.761 276.372 172.653 276.093 179.321 275.536V285.7ZM179.321 273.03C172.931 273.448 153.623 273.866 131.814 273.866C105.837 273.866 87.3623 273.448 83.1949 273.03V262.588C85.2786 262.866 89.307 263.006 96.5303 263.145C105.976 263.423 118.478 263.423 131.814 263.423C153.761 263.423 172.653 263.145 179.321 262.588V273.03ZM337.262 317.027C337.262 327.887 327.955 336.658 316.426 336.658H185.294C184.044 336.658 182.933 336.519 181.821 336.38V325.242V325.102V312.432V312.293V299.623V286.953V286.814V274.144V274.005V261.196V261.056C181.821 260.917 181.821 260.778 181.821 260.778C181.821 260.778 181.821 260.639 181.682 260.639C181.682 260.5 181.544 260.5 181.544 260.36C181.544 260.36 181.405 260.36 181.405 260.221C181.266 260.221 181.266 260.082 181.127 260.082C180.988 260.082 180.988 260.082 180.849 260.082H180.71C175.154 259.803 169.875 259.664 164.596 259.525V250.614C176.126 241.147 183.627 226.667 183.627 210.516C183.627 194.365 176.265 179.885 164.596 170.418V22.1376C164.596 11.2776 173.903 2.50614 185.433 2.50614H200.852C202.38 2.50614 203.63 3.61998 203.63 5.01228V8.07535C203.63 12.8092 207.659 16.7076 212.659 16.7076H289.338C294.339 16.7076 298.367 12.8092 298.367 8.07535V5.01228C298.367 3.61998 299.617 2.50614 301.145 2.50614H316.564C328.094 2.50614 337.401 11.2776 337.401 22.1376V317.027H337.262ZM385.881 336.102C383.519 336.102 381.436 335.823 379.213 335.127C358.932 329.001 341.429 303.522 340.318 278.321C339.624 263.702 344.763 251.728 353.931 246.159C348.375 253.12 345.458 263.145 346.013 274.562C347.125 300.876 365.322 327.33 386.714 333.735C389.076 334.431 391.437 334.848 393.799 334.988C391.159 335.545 388.52 336.102 385.881 336.102ZM412.69 325.242C406.301 331.925 397.132 334.013 387.409 331.089C367.128 324.963 349.625 299.484 348.514 274.283C347.958 262.449 351.153 252.424 357.265 245.88C361.71 241.147 367.545 238.64 374.073 238.64C376.852 238.64 379.63 239.058 382.547 239.894C402.828 246.02 420.331 271.499 421.442 296.699C421.997 308.812 418.802 318.837 412.69 325.242Z" fill="#321951"/>
<path d="M132.673 235.033C132.673 235.033 133.639 229.089 137.504 223.285C142.472 215.683 149.649 211.813 158.758 211.813C159.448 211.813 160 211.26 160 210.569C160 209.878 159.448 209.325 158.758 209.325C149.649 209.325 142.472 205.455 137.504 197.854C133.777 192.049 132.673 186.244 132.673 186.106C132.535 185.553 132.121 185 131.431 185C130.879 185 130.327 185.415 130.189 186.106C130.189 186.382 126.048 209.187 104.242 209.187C103.552 209.187 103 209.74 103 210.431C103 211.122 103.552 211.675 104.242 211.675C113.351 211.675 120.528 215.545 125.496 223.146C129.223 228.951 130.327 234.756 130.327 234.894C130.465 235.447 130.879 236 131.569 236C132.259 236 132.673 235.585 132.673 235.033ZM112.937 210.569C124.392 207.114 129.361 196.886 131.431 191.081C133.501 197.024 138.608 207.114 149.925 210.569C138.47 214.024 133.501 224.252 131.431 230.057C129.499 224.252 124.392 214.163 112.937 210.569Z" fill="#321951"/>
</svg>
