<svg width="592" height="431" viewBox="0 0 592 431" fill="none" xmlns="http://www.w3.org/2000/svg">
<path d="M423.451 24.873H394.727V129.272H423.451V24.873Z" fill="#00DA9C" stroke="#321951" stroke-width="1.5" stroke-linecap="round" stroke-linejoin="round"/>
<path d="M461.427 71.1182H432.703V129.435H461.427V71.1182Z" fill="white" stroke="#321951" stroke-width="1.5" stroke-linecap="round" stroke-linejoin="round"/>
<path d="M499.404 53.5254H470.68V129.399H499.404V53.5254Z" fill="#FBC22D" stroke="#321951" stroke-width="1.5" stroke-linecap="round" stroke-linejoin="round"/>
<path d="M537.369 93.1182H508.645V129.68H537.369V93.1182Z" fill="#00DA9C" stroke="#321951" stroke-width="1.5" stroke-linecap="round" stroke-linejoin="round"/>
<path d="M574.505 114.023H545.781V129.969H574.505V114.023Z" fill="#F4825C" stroke="#321951" stroke-width="1.5" stroke-linecap="round" stroke-linejoin="round"/>
<path d="M585.72 97.6796L580.293 92.5574V100.033H561.888L558.37 81.9328C558.24 81.2603 557.88 80.6541 557.352 80.2182C556.824 79.7822 556.161 79.5438 555.476 79.5437L526.471 79.6885L511.485 27.869C511.313 27.2745 510.959 26.7493 510.472 26.3676C509.985 25.9859 509.39 25.7672 508.772 25.7423L470.787 25.6518C470.347 25.6263 469.907 25.702 469.501 25.873C469.095 26.044 468.734 26.3057 468.444 26.6382L448.249 47.7787L432.72 2.89136C432.519 2.30998 432.142 1.80581 431.641 1.44898C431.14 1.09214 430.54 0.900388 429.926 0.900391H397.909C397.127 0.900391 396.377 1.21122 395.825 1.7645C395.272 2.31778 394.961 3.06819 394.961 3.85064C394.961 4.6331 395.272 5.38351 395.825 5.93679C396.377 6.49007 397.127 6.8009 397.909 6.8009H427.827L444.324 54.4665C444.489 54.9553 444.781 55.3919 445.169 55.7323C445.556 56.0728 446.027 56.3051 446.533 56.406C447.039 56.5069 447.562 56.4728 448.051 56.307C448.539 56.1413 448.976 55.8499 449.316 55.462L471.945 31.6156L506.403 31.5432L521.416 83.4713C521.596 84.0854 521.97 84.6245 522.482 85.008C522.994 85.3914 523.616 85.5984 524.256 85.598L553.043 85.4623L556.552 103.562C556.682 104.234 557.042 104.841 557.571 105.277C558.099 105.713 558.762 105.951 559.446 105.951H580.248V113.073L585.674 107.942L591.101 102.82L585.72 97.6796Z" fill="#F4825C" stroke="#321951" stroke-width="1.5" stroke-linecap="round" stroke-linejoin="round"/>
<path d="M571.105 193.437H484.48V265.854H571.105V193.437Z" fill="white" stroke="#321951" stroke-width="1.5" stroke-linecap="round" stroke-linejoin="round"/>
<path d="M513.521 198.142H489.473V206.431H513.521V198.142Z" fill="#8B6FE2" stroke="#321951" stroke-width="1.5" stroke-linecap="round" stroke-linejoin="round"/>
<path d="M513.005 212.387H488.957V220.667H513.005V212.387Z" fill="#8B6FE2" stroke="#321951" stroke-width="1.5" stroke-linecap="round" stroke-linejoin="round"/>
<path d="M542.47 212.387H518.422V220.667H542.47V212.387Z" fill="#F4825C" stroke="#321951" stroke-width="1.5" stroke-linecap="round" stroke-linejoin="round"/>
<path d="M564.954 212.387H547.336V220.667H564.954V212.387Z" fill="#8B6FE2" stroke="#321951" stroke-width="1.5" stroke-linecap="round" stroke-linejoin="round"/>
<path d="M564.954 225.645H547.336V233.925H564.954V225.645Z" fill="#8B6FE2" stroke="#321951" stroke-width="1.5" stroke-linecap="round" stroke-linejoin="round"/>
<path d="M542.011 239.409H489.926V247.69H542.011V239.409Z" fill="#8B6FE2" stroke="#321951" stroke-width="1.5" stroke-linecap="round" stroke-linejoin="round"/>
<path d="M564.954 239.409H547.336V247.69H564.954V239.409Z" fill="#F4825C" stroke="#321951" stroke-width="1.5" stroke-linecap="round" stroke-linejoin="round"/>
<path d="M513.521 253.184H489.473V261.464H513.521V253.184Z" fill="#F4825C" stroke="#321951" stroke-width="1.5" stroke-linecap="round" stroke-linejoin="round"/>
<path d="M542.47 253.184H518.422V261.464H542.47V253.184Z" fill="#F4825C" stroke="#321951" stroke-width="1.5" stroke-linecap="round" stroke-linejoin="round"/>
<path d="M564.954 253.184H547.336V261.464H564.954V253.184Z" fill="#8B6FE2" stroke="#321951" stroke-width="1.5" stroke-linecap="round" stroke-linejoin="round"/>
<path d="M566.012 198.142H518.422V206.431H566.012V198.142Z" fill="#F4825C" stroke="#321951" stroke-width="1.5" stroke-linecap="round" stroke-linejoin="round"/>
<path d="M542.009 225.645H488.965V233.925H542.009V225.645Z" fill="#F4825C" stroke="#321951" stroke-width="1.5" stroke-linecap="round" stroke-linejoin="round"/>
<path d="M399.99 304.84H396.86V300.695H394.59V304.84H391.461V336.605H394.59V352.569H396.86V336.605H399.99V304.84Z" fill="#00DA9C" stroke="#321951" stroke-width="1.5" stroke-linecap="round" stroke-linejoin="round"/>
<path d="M412.698 336.532H409.559V321.754H407.289V336.532H404.16V352.931H407.289V362.994H409.559V352.931H412.698V336.532Z" fill="#F4825C" stroke="#321951" stroke-width="1.5" stroke-linecap="round" stroke-linejoin="round"/>
<path d="M555.169 362.125H552.04V347.347H549.77V362.125H546.641V378.533H549.77V388.587H552.04V378.533H555.169V362.125Z" fill="#00DA9C" stroke="#321951" stroke-width="1.5" stroke-linecap="round" stroke-linejoin="round"/>
<path d="M425.565 345.583H422.436V336.714H420.157V345.583H417.027V361.99H420.157V377.954H422.436V361.99H425.565V345.583Z" fill="#00DA9C" stroke="#321951" stroke-width="1.5" stroke-linecap="round" stroke-linejoin="round"/>
<path d="M451.525 333.764H448.395V327.257H446.125V333.764H442.996V370.262H446.125V399.221H448.395V370.262H451.525V333.764Z" fill="#00DA9C" stroke="#321951" stroke-width="1.5" stroke-linecap="round" stroke-linejoin="round"/>
<path d="M490.857 359.546H487.727V344.768H485.457V359.546H482.328V394.859H485.457V416.732H487.727V394.859H490.857V359.546Z" fill="#F4825C" stroke="#321951" stroke-width="1.5" stroke-linecap="round" stroke-linejoin="round"/>
<path d="M570.716 326.134H567.587V311.355H565.317V326.134H562.188V361.446H565.317V383.329H567.587V361.446H570.716V326.134Z" fill="#F4825C" stroke="#321951" stroke-width="1.5" stroke-linecap="round" stroke-linejoin="round"/>
<path d="M529.6 336.524H526.471V321.745H524.201V336.524H521.062V371.827H524.201V393.71H526.471V371.827H529.6V336.524Z" fill="#00DA9C" stroke="#321951" stroke-width="1.5" stroke-linecap="round" stroke-linejoin="round"/>
<path d="M503.634 378.017H500.505V367.963H498.235V378.017H495.105V413.33H498.235V429.294H500.505V413.33H503.634V378.017Z" fill="#00DA9C" stroke="#321951" stroke-width="1.5" stroke-linecap="round" stroke-linejoin="round"/>
<path d="M464.501 333.138H461.372V314.812H459.102V333.138H455.973V357.817H459.102V386.777H461.372V357.817H464.501V333.138Z" fill="#F4825C" stroke="#321951" stroke-width="1.5" stroke-linecap="round" stroke-linejoin="round"/>
<path d="M477.29 345.338H474.152V327.021H471.891V345.338H468.762V361.755H471.891V370.624H474.152V361.755H477.29V345.338Z" fill="#00DA9C" stroke="#321951" stroke-width="1.5" stroke-linecap="round" stroke-linejoin="round"/>
<path d="M582.681 383.293H579.552V364.977H577.282V383.293H574.152V399.71H577.282V408.579H579.552V399.71H582.681V383.293Z" fill="#00DA9C" stroke="#321951" stroke-width="1.5" stroke-linecap="round" stroke-linejoin="round"/>
<path d="M438.544 351.239H435.415V342.37H433.145V351.239H430.016V362.922H433.145V383.61H435.415V362.922H438.544V351.239Z" fill="#F4825C" stroke="#321951" stroke-width="1.5" stroke-linecap="round" stroke-linejoin="round"/>
<path d="M516.624 373.981H513.494V365.112H511.224V373.981H508.086V390.38H511.224V400.443H513.494V390.38H516.624V373.981Z" fill="#F4825C" stroke="#321951" stroke-width="1.5" stroke-linecap="round" stroke-linejoin="round"/>
<path d="M542.979 341.501H539.85V332.632H537.571V341.501H534.441V357.908H537.571V367.962H539.85V357.908H542.979V341.501Z" fill="#F4825C" stroke="#321951" stroke-width="1.5" stroke-linecap="round" stroke-linejoin="round"/>
<path d="M168.318 187.274C172.632 186.848 176.937 186.459 181.224 186.188V186.74C181.224 186.74 192.701 218.758 169.783 259.618C109.097 226.894 104.15 198.912 104.15 198.912L103.797 197.373C105.606 174.749 120.601 147.536 133.688 130.404C133.688 130.404 174.223 73.9874 233.598 67.4172C233.598 67.4172 242.298 67.2724 247.318 73.915C245.524 74.2042 243.751 74.6093 242.009 75.1277C234.159 77.4716 224.699 82.8201 218.286 94.8564C223.423 92.6664 229.899 90.9921 236.646 92.0148C251.921 94.3406 230.604 95.8338 231.617 97.2546C234.729 101.635 230.858 104.495 230.858 104.495L223.351 107.291C219.842 108.196 215.998 110.911 212.001 114.866C195.016 131.707 175.381 170.857 168.318 187.274Z" fill="#FDC8B4"/>
<path d="M332.295 32.7383C339.124 43.1366 339.703 51.6977 338.4 57.8516C337.615 61.854 335.783 65.5764 333.091 68.6391C342.741 70.3042 348.358 65.7522 348.656 65.5078C346.361 71.9459 342.806 77.8619 338.201 82.9107C335.527 85.8062 332.486 88.3404 329.157 90.4492C307.614 104.16 279.668 97.5534 279.668 97.5534C295.947 131.038 275.661 141.147 275.661 141.147C275.399 140.911 275.109 140.667 274.802 140.423C272.015 138.345 268.518 137.46 265.079 137.961C258.324 138.866 253.467 144.296 254.227 150.133C254.986 155.97 261.1 159.988 267.847 159.101C267.782 162.841 267.464 166.572 266.897 170.269C227.583 173.889 221.794 130.45 221.794 130.45C213.193 131.137 210.941 134.504 210.941 134.504C210.693 127.961 211.038 121.409 211.972 114.929C215.97 110.974 219.814 108.25 223.323 107.354L230.829 104.558C230.829 104.558 234.7 101.662 231.589 97.3181C230.576 95.8972 251.893 94.404 236.618 92.0782C229.871 91.0556 223.395 92.7298 218.258 94.9199C224.67 82.8835 234.131 77.5351 241.981 75.1912C244.098 75.1272 246.216 75.2484 248.312 75.5532C247.998 75.0052 247.647 74.4791 247.263 73.9785C250.145 73.4662 253.079 73.3082 255.999 73.5079C255.999 73.5079 257.238 43.6434 287.599 47.9149C317.96 52.1864 332.295 32.7383 332.295 32.7383Z" fill="#321951"/>
<path d="M345.691 310.713L343.936 315.808L344.253 347.093L340.934 347.129L340.617 315.745L338.754 310.776L345.691 310.713Z" fill="#F1E6FF"/>
<path d="M352.582 350.125C352.587 350.787 352.382 351.434 351.994 351.971C351.607 352.508 351.059 352.908 350.43 353.112L335.86 353.41C335.57 353.411 335.281 353.375 335 353.302C334.28 353.098 333.657 352.643 333.244 352.018C332.831 351.394 332.657 350.641 332.752 349.898C332.847 349.156 333.206 348.472 333.764 347.972C334.321 347.472 335.039 347.189 335.787 347.175H350.375C351.009 347.367 351.565 347.757 351.962 348.288C352.359 348.819 352.576 349.462 352.582 350.125Z" fill="#8B6FE2"/>
<path d="M350.455 353.193C350.229 353.383 345.806 357.284 347.886 362.243C344.269 362.69 340.717 363.064 337.232 363.365C340.407 357.782 334.953 353.411 334.953 353.411C335.234 353.484 335.522 353.52 335.812 353.519L350.382 353.221L350.455 353.193Z" fill="#8B6FE2"/>
<path d="M320.663 310.514C323.708 310.534 326.678 311.458 329.197 313.169C331.716 314.88 333.671 317.301 334.814 320.125C335.956 322.949 336.235 326.049 335.615 329.032C334.995 332.014 333.504 334.746 331.331 336.88C329.158 339.013 326.401 340.454 323.409 341.018C320.417 341.582 317.325 341.244 314.524 340.048C311.724 338.851 309.342 336.85 307.68 334.297C306.018 331.744 305.151 328.755 305.189 325.709C305.208 323.695 305.623 321.704 306.411 319.85C307.199 317.996 308.344 316.316 309.781 314.905C311.218 313.494 312.918 312.38 314.786 311.626C316.653 310.873 318.65 310.495 320.663 310.514ZM329.255 327.193L328.197 324.822L328.595 322.261L326.424 320.831L325.375 318.46H322.77L320.609 317.039L318.411 318.37H315.816L314.712 320.723L312.514 322.098L312.858 324.677L311.764 327.03L313.446 329.003L313.781 331.582L316.268 332.334L317.95 334.315L320.446 333.61L322.924 334.361L324.643 332.415L327.139 331.709L327.537 329.139L329.255 327.193Z" fill="#F1E6FF"/>
<path d="M327.961 339.257L327.717 364.026C322.462 364.334 317.397 364.497 312.559 364.542L312.812 339.121C315.109 340.456 317.713 341.17 320.368 341.194C323.024 341.217 325.64 340.55 327.961 339.257Z" fill="#F1E6FF"/>
<path d="M303.598 343.221C303.659 345.726 303.022 348.199 301.758 350.363C300.495 352.527 298.655 354.297 296.444 355.474L296.67 364.235C292.41 364.054 288.386 363.782 284.605 363.447L284.415 355.791C281.689 354.519 279.465 352.371 278.098 349.689C276.731 347.007 276.299 343.944 276.871 340.989C277.442 338.033 278.985 335.353 281.253 333.375C283.522 331.397 286.385 330.234 289.39 330.071L284.189 343.89L293.821 347.51L299.103 333.51C300.476 334.735 301.584 336.229 302.357 337.899C303.13 339.569 303.552 341.381 303.598 343.221Z" fill="#F1E6FF"/>
<path d="M280.137 315.111C280.223 318.367 279.401 321.582 277.761 324.396C276.122 327.21 273.731 329.51 270.857 331.039L271.671 362.035C265.34 361.13 260.022 360.225 255.971 359.32L255.247 331.428C252.69 330.238 250.458 328.448 248.741 326.209C247.024 323.97 245.872 321.35 245.385 318.57C244.897 315.791 245.088 312.934 245.94 310.244C246.793 307.555 248.283 305.11 250.282 303.12L258.105 320.912L270.333 315.537L262.645 298.034C267.212 298.031 271.599 299.815 274.868 303.007C278.137 306.198 280.028 310.543 280.137 315.111Z" fill="#F1E6FF"/>
<path d="M328.199 324.822L329.257 327.193L327.539 329.139L327.141 331.709L324.644 332.415L322.926 334.36L320.448 333.609L317.952 334.315L316.27 332.333L313.782 331.582L313.448 329.003L311.766 327.03L312.86 324.677L312.516 322.098L314.714 320.722L315.817 318.369L318.413 318.396L320.611 317.012L322.772 318.433L325.377 318.46L326.426 320.831L328.597 322.261L328.199 324.822Z" fill="#00DA9C"/>
<path d="M296.672 364.27C301.664 364.499 306.964 364.593 312.571 364.551C317.41 364.551 322.474 364.342 327.729 364.035C330.831 363.854 333.997 363.627 337.234 363.338C340.707 363.03 344.259 362.656 347.888 362.216C349.86 361.971 351.868 361.709 353.885 361.419C353.885 361.419 357.665 394.569 357.349 423.402C331.455 430.986 293.705 434.262 242.488 421.175C244.632 399.148 247.164 369.347 246.477 357.003C246.477 357.003 249.805 358.044 255.991 359.356C260.043 360.207 265.325 361.166 271.692 362.071C275.599 362.605 279.922 363.103 284.625 363.51C288.387 363.817 292.412 364.089 296.672 364.27Z" fill="#00DA9C"/>
<path d="M216.466 207.328C216.466 207.328 220.988 236.287 221.558 282.822C203.816 276.242 186.531 268.49 169.816 259.618C192.734 218.758 181.257 186.739 181.257 186.739V186.187C185.282 185.934 189.297 185.771 193.277 185.753C200.512 185.753 207.295 186.052 213.518 186.658C213.536 186.957 215.118 196.676 216.466 207.328Z" fill="#FBC22D"/>
<path d="M331.12 190.305C335.503 211.693 336.516 233.636 334.123 255.337C332.142 273.437 324.898 288.948 306.231 293.41C287.238 297.935 260.82 295.22 252.084 274.206C242.416 251.011 237.713 224.215 233.996 199.527L232.639 189.517L232.594 189.219C238.97 190.35 244.586 191.617 249.479 192.748C249.362 211.69 270.199 228.106 287.274 229.382C305.697 230.749 325.368 209.626 326.689 191.979C328.091 191.427 329.574 190.875 331.12 190.305Z" fill="#FBC22D"/>
<path d="M388.604 177.354L388.649 177.907C388.649 177.907 385.149 205.056 416.378 243.455C402.197 254.604 384.028 266.785 360.739 279.654C355.738 244.441 350.971 216.206 347.607 203.572C347.607 203.572 344.46 191.87 341.773 186.649C353.158 183.016 364.826 180.343 376.657 178.658C380.6 178.097 384.588 177.68 388.604 177.354Z" fill="#FBC22D"/>
<path d="M340.93 347.13H344.249L343.933 315.845L345.687 310.75L338.751 310.813L340.623 315.745L340.93 347.13ZM216.465 207.328C215.117 196.676 213.535 186.957 213.48 186.622H213.625L214.177 186.676H214.385H214.457C218.979 187.228 232.6 189.482 232.6 189.482L233.956 199.491C237.71 224.179 242.413 250.976 252.045 274.17C260.781 295.166 287.19 297.908 306.192 293.374C324.859 288.913 332.103 273.465 334.084 255.301C336.477 233.6 335.464 211.657 331.081 190.269L341.627 186.649H341.726C344.439 191.871 347.56 203.572 347.56 203.572C350.924 216.242 355.699 244.442 360.692 279.655C366.498 320.18 372.566 369.954 377.179 415.9C370.778 418.927 364.146 421.436 357.345 423.403C357.662 394.57 353.881 361.42 353.881 361.42C351.865 361.71 349.857 361.972 347.885 362.216C345.805 357.293 350.228 353.393 350.454 353.167V353.085C351.087 352.884 351.64 352.484 352.028 351.944C352.417 351.404 352.621 350.753 352.611 350.088C352.601 349.422 352.377 348.778 351.972 348.25C351.567 347.722 351.003 347.339 350.363 347.158H335.748C335 347.172 334.281 347.455 333.724 347.955C333.167 348.455 332.808 349.138 332.713 349.881C332.617 350.624 332.792 351.376 333.205 352.001C333.617 352.626 334.241 353.081 334.961 353.284C334.961 353.284 340.388 357.682 337.24 363.239C334.002 363.529 330.837 363.755 327.735 363.936L327.979 339.167C330.935 337.52 333.264 334.941 334.603 331.832C335.942 328.722 336.214 325.257 335.379 321.976C334.544 318.695 332.647 315.783 329.985 313.694C327.323 311.604 324.045 310.455 320.661 310.424C317.278 310.394 313.979 311.484 311.28 313.526C308.581 315.567 306.633 318.445 305.739 321.711C304.845 324.976 305.056 328.445 306.338 331.578C307.621 334.711 309.904 337.332 312.83 339.031L312.586 364.524C306.991 364.572 301.691 364.479 296.686 364.244L296.46 355.483C298.38 354.464 300.024 352.995 301.254 351.202C302.484 349.409 303.263 347.346 303.524 345.187C303.785 343.028 303.521 340.838 302.754 338.803C301.987 336.769 300.74 334.95 299.119 333.501L293.837 347.501L284.205 343.881L289.388 330.135C286.383 330.297 283.519 331.46 281.251 333.438C278.983 335.416 277.44 338.096 276.869 341.052C276.297 344.008 276.729 347.07 278.096 349.752C279.463 352.434 281.687 354.582 284.413 355.854L284.603 363.511C279.9 363.103 275.559 362.606 271.67 362.072L270.856 331.076C274.303 329.24 277.038 326.304 278.626 322.734C280.214 319.164 280.564 315.166 279.62 311.375C278.676 307.583 276.493 304.216 273.417 301.809C270.341 299.402 266.549 298.092 262.644 298.089L270.332 315.592L258.104 320.967L250.281 303.175C248.282 305.165 246.792 307.61 245.939 310.299C245.087 312.989 244.896 315.846 245.384 318.625C245.871 321.405 247.023 324.025 248.74 326.264C250.457 328.503 252.689 330.293 255.246 331.483L255.97 359.375C249.784 358.063 246.455 357.022 246.455 357.022C247.143 369.366 244.646 399.167 242.467 421.194C232.934 418.781 222.938 415.764 212.477 412.145L212.567 411.819C219.038 369.148 222.044 326.023 221.557 282.867C221.005 236.251 216.465 207.328 216.465 207.328Z" fill="#00DA9C"/>
<path d="M348.654 65.5077C348.355 65.7521 342.739 70.3042 333.089 68.639C335.781 65.5763 337.613 61.8539 338.398 57.8516C355.835 59.4715 366.923 67.2091 366.923 67.2091C388.782 80.3224 409.096 97.2547 427.518 115.219C442.957 130.314 461.778 155.038 466.815 177.183L466.698 178.749C466.698 178.749 465.278 204.993 416.349 243.455C385.12 205.066 388.62 177.907 388.62 177.907L388.574 177.355C392.861 177.002 397.175 176.758 401.508 176.559C389.949 157.825 354.379 107.409 335.485 105.418L334.581 105.617C331.759 96.7117 329.281 90.7116 329.281 90.7116L329.109 90.4492C332.439 88.3403 335.479 85.8061 338.153 82.9106C342.775 77.8658 346.345 71.9495 348.654 65.5077Z" fill="#FDC8B4"/>
<path d="M339.149 122.549C344.775 147.979 345.806 179.916 316.81 182.911C315.814 187.301 315.361 191.796 315.463 196.296C317.497 195.527 319.668 194.685 322.029 193.744C323.494 193.174 325.031 192.577 326.632 191.934C325.312 209.581 305.641 230.704 287.218 229.337C270.142 228.061 249.305 211.645 249.422 192.703C251.955 193.292 255.31 193.907 257.472 194.378C258.698 192.655 259.833 190.87 260.872 189.029C264.255 183.472 265.991 176.178 266.878 170.205C267.451 166.527 267.778 162.814 267.854 159.092C261.107 159.997 255.003 155.961 254.234 150.124C253.465 144.287 258.322 138.839 265.087 137.952C268.526 137.451 272.022 138.336 274.809 140.413C275.117 140.658 275.406 140.902 275.668 141.137C275.668 141.137 295.963 130.992 279.675 97.544C279.675 97.544 307.621 104.169 329.146 90.458L329.318 90.7204C329.318 90.7204 331.796 96.7205 334.618 105.626C334.916 106.531 335.206 107.508 335.522 108.485C335.342 108.468 335.16 108.468 334.98 108.485C332.402 108.829 330.847 112.286 331.362 116.494C331.869 120.295 333.931 123.191 336.264 123.363C336.463 123.382 336.662 123.382 336.861 123.363C337.736 123.232 338.526 122.769 339.068 122.069C339.104 122.323 339.122 122.485 339.149 122.549ZM317.66 126.259C318.235 124.62 318.402 122.865 318.149 121.146C317.633 117.001 315.173 113.979 312.659 114.295C310.145 114.612 308.526 118.06 309.095 122.304C309.575 126.096 311.628 128.992 313.952 129.164C314.163 129.182 314.375 129.182 314.585 129.164C315.924 128.965 317.009 127.943 317.66 126.259Z" fill="#FDC8B4"/>
<path d="M338.996 121.852L336.102 110.666C336.925 113.897 338.471 119.779 338.996 121.852Z" fill="#321951"/>
<path d="M335.766 109.544L335.621 108.992C335.666 109.146 335.712 109.318 335.766 109.544Z" fill="#321951"/>
<path d="M336.853 123.39C336.655 123.409 336.455 123.409 336.256 123.39C333.923 123.218 331.861 120.322 331.355 116.521C330.821 112.313 332.376 108.856 334.972 108.512C335.153 108.495 335.334 108.495 335.515 108.512L335.641 108.992L335.786 109.544L336.085 110.666L339.015 121.852L339.078 122.096C338.532 122.799 337.734 123.263 336.853 123.39Z" fill="#321951"/>
<path d="M318.151 121.146C318.405 122.865 318.237 124.619 317.663 126.259C317.012 127.942 315.927 128.974 314.588 129.155C314.377 129.173 314.166 129.173 313.955 129.155C311.631 128.983 309.578 126.087 309.098 122.295C308.529 118.051 310.075 114.63 312.662 114.286C315.248 113.942 317.636 117.001 318.151 121.146Z" fill="#321951"/>
<path d="M247.317 73.8877C247.702 74.3883 248.052 74.9144 248.366 75.4624C246.27 75.1576 244.152 75.0365 242.035 75.1004C243.768 74.5831 245.532 74.178 247.317 73.8877Z" fill="#321951"/>
<path d="M211.988 114.874C215.986 110.92 219.83 108.196 223.339 107.3L230.845 104.503C230.845 104.503 234.716 101.607 231.605 97.2634C230.592 95.8426 251.909 94.3494 236.633 92.0235C229.887 91.0009 223.411 92.6751 218.274 94.8652" stroke="#321951" stroke-width="1.5" stroke-linecap="round" stroke-linejoin="round"/>
<path d="M297.477 181.409C305.056 183.038 311.432 183.49 316.813 182.911C345.808 179.915 344.777 147.978 339.152 122.548C339.152 122.485 339.107 122.322 339.061 122.096L338.998 121.851L336.104 110.666L335.806 109.544L335.661 108.992L335.534 108.512C335.236 107.535 334.946 106.575 334.63 105.652C331.808 96.7471 329.33 90.7471 329.33 90.7471" stroke="#321951" stroke-width="1.5" stroke-linecap="round" stroke-linejoin="round"/>
<path d="M315.492 196.296C315.52 198.798 316.078 201.265 317.129 203.536" stroke="#321951" stroke-width="1.5" stroke-linecap="round" stroke-linejoin="round"/>
<path d="M316.811 182.911C315.814 187.3 315.362 191.796 315.463 196.296" stroke="#321951" stroke-width="1.5" stroke-linecap="round" stroke-linejoin="round"/>
<path d="M211.988 114.874C211.053 121.354 210.708 127.906 210.957 134.449C210.957 134.449 213.2 131.082 221.81 130.395C221.81 130.395 227.598 173.897 266.913 170.214" stroke="#321951" stroke-width="1.5" stroke-linecap="round" stroke-linejoin="round"/>
<path d="M242.043 75.1007C243.785 74.5822 245.558 74.1771 247.352 73.888C250.234 73.3757 253.168 73.2177 256.088 73.4174C256.088 73.4174 257.328 43.5529 287.689 47.8244C318.05 52.0959 332.33 32.7383 332.33 32.7383C339.159 43.1366 339.738 51.6977 338.435 57.8516C337.65 61.854 335.818 65.5764 333.126 68.6391C342.776 70.3042 348.393 65.7522 348.691 65.5078" stroke="#321951" stroke-width="1.5" stroke-linecap="round" stroke-linejoin="round"/>
<path d="M218.277 94.8381C224.69 82.8018 234.15 77.4533 242 75.1094" stroke="#321951" stroke-width="1.5" stroke-linecap="round" stroke-linejoin="round"/>
<path d="M348.665 65.498C346.37 71.9361 342.816 77.8521 338.21 82.9009C335.536 85.7964 332.496 88.3306 329.166 90.4395C307.614 104.159 279.668 97.5526 279.668 97.5526C295.947 131.037 275.661 141.146 275.661 141.146C275.399 140.911 275.11 140.666 274.802 140.422C272.015 138.345 268.518 137.459 265.08 137.96C258.324 138.865 253.467 144.295 254.227 150.132C254.986 155.969 261.1 159.988 267.847 159.101C271.142 158.712 274.171 157.096 276.331 154.576" stroke="#321951" stroke-width="1.5" stroke-linecap="round" stroke-linejoin="round"/>
<path d="M416.378 243.454C385.149 205.065 388.649 177.906 388.649 177.906" stroke="#321951" stroke-width="1.5" stroke-linecap="round" stroke-linejoin="round"/>
<path d="M341.773 186.649C353.158 183.017 364.826 180.344 376.657 178.658C380.6 178.097 384.588 177.681 388.604 177.355C392.891 177.002 397.205 176.758 401.537 176.559" stroke="#321951" stroke-width="1.5" stroke-linecap="round" stroke-linejoin="round"/>
<path d="M315.492 196.305C317.527 195.535 319.698 194.694 322.058 193.753C323.523 193.182 325.061 192.585 326.662 191.943C328.091 191.391 329.574 190.839 331.12 190.268C334.367 189.074 337.885 187.852 341.666 186.648" stroke="#321951" stroke-width="1.5" stroke-linecap="round" stroke-linejoin="round"/>
<path d="M314.154 106.748C313.605 106.066 312.888 105.54 312.072 105.224C311.257 104.908 310.372 104.812 309.508 104.945C308.644 105.079 307.83 105.438 307.149 105.987C306.467 106.535 305.941 107.253 305.625 108.069" stroke="#321951" stroke-width="1.5" stroke-linecap="round" stroke-linejoin="round"/>
<path d="M327.113 104.331C327.433 103.523 327.956 102.812 328.631 102.265C329.306 101.718 330.11 101.354 330.966 101.209C331.264 101.156 331.568 101.135 331.87 101.145" stroke="#321951" stroke-width="1.5" stroke-linecap="round" stroke-linejoin="round"/>
<path d="M330.269 122.358L334.647 142.802C334.647 142.802 329.148 143.779 327.574 142.802" stroke="#321951" stroke-width="1.5" stroke-linecap="round" stroke-linejoin="round"/>
<path d="M267.856 159.092C267.791 162.831 267.474 166.562 266.907 170.259C266.002 176.232 264.284 183.526 260.901 189.083C259.862 190.924 258.727 192.709 257.501 194.431C256.871 195.299 256.115 196.068 255.258 196.712" stroke="#321951" stroke-width="1.5" stroke-linecap="round" stroke-linejoin="round"/>
<path d="M418.313 197.835C418.313 197.835 414.985 196.07 410.535 190.595C408.115 187.577 405.969 184.348 404.123 180.948C403.49 179.816 402.622 178.332 401.545 176.576C389.987 157.843 354.417 107.427 335.523 105.436" stroke="#321951" stroke-width="1.5" stroke-linecap="round" stroke-linejoin="round"/>
<path d="M249.45 192.749C249.332 211.69 270.17 228.107 287.245 229.383C305.668 230.749 325.339 209.627 326.659 191.979" stroke="#321951" stroke-width="1.5" stroke-linecap="round" stroke-linejoin="round"/>
<path d="M357.347 423.403C357.664 394.57 353.883 361.42 353.883 361.42C351.866 361.71 349.859 361.972 347.887 362.216C344.269 362.663 340.718 363.037 337.233 363.339C333.995 363.628 330.83 363.854 327.728 364.035C322.473 364.343 317.408 364.506 312.57 364.551C306.974 364.6 301.675 364.506 296.67 364.271C292.41 364.09 288.386 363.818 284.605 363.483C279.902 363.076 275.561 362.578 271.672 362.044C265.341 361.14 260.023 360.235 255.972 359.33C249.785 358.017 246.457 356.977 246.457 356.977C247.145 369.321 244.648 399.122 242.469 421.149" stroke="#321951" stroke-width="1.5" stroke-linecap="round" stroke-linejoin="round"/>
<path d="M255.971 359.347L255.247 331.456C252.69 330.266 250.458 328.475 248.741 326.236C247.024 323.998 245.872 321.377 245.385 318.598C244.897 315.818 245.088 312.962 245.94 310.272C246.793 307.582 248.283 305.138 250.282 303.148L258.105 320.94L270.333 315.564L262.645 298.062C266.547 298.069 270.335 299.379 273.407 301.786C276.479 304.193 278.66 307.557 279.604 311.346C280.547 315.134 280.199 319.129 278.614 322.697C277.03 326.265 274.3 329.201 270.857 331.039L271.671 362.035" stroke="#321951" stroke-width="1.5" stroke-linecap="round" stroke-linejoin="round"/>
<path d="M284.605 363.483L284.415 355.827C281.689 354.555 279.465 352.407 278.098 349.725C276.731 347.043 276.299 343.98 276.871 341.025C277.442 338.069 278.985 335.389 281.253 333.411C283.522 331.433 286.385 330.27 289.39 330.107L284.189 343.89L293.821 347.51L299.103 333.51C300.72 334.959 301.964 336.777 302.729 338.81C303.493 340.842 303.756 343.03 303.495 345.186C303.234 347.342 302.457 349.403 301.229 351.194C300.002 352.985 298.36 354.454 296.444 355.474L296.67 364.234" stroke="#321951" stroke-width="1.5" stroke-linecap="round" stroke-linejoin="round"/>
<path d="M327.963 339.257C331.214 337.445 333.695 334.511 334.942 331.004C336.19 327.496 336.119 323.653 334.743 320.194C333.367 316.735 330.779 313.895 327.464 312.204C324.149 310.514 320.332 310.089 316.726 311.008C313.12 311.927 309.972 314.128 307.869 317.2C305.766 320.271 304.852 324.004 305.298 327.7C305.744 331.397 307.519 334.805 310.291 337.288C313.064 339.771 316.645 341.159 320.366 341.193C323.024 341.219 325.642 340.551 327.963 339.257Z" stroke="#321951" stroke-width="1.5" stroke-linecap="round" stroke-linejoin="round"/>
<path d="M320.611 317.012L322.772 318.433L325.377 318.46L326.426 320.831L328.597 322.261L328.199 324.822L329.257 327.193L327.539 329.139L327.141 331.709L324.644 332.415L322.926 334.36L320.448 333.609L317.952 334.315L316.27 332.333L313.782 331.582L313.448 329.003L311.766 327.03L312.86 324.677L312.516 322.098L314.714 320.722L315.817 318.369L318.413 318.396L320.611 317.012Z" stroke="#321951" stroke-width="1.5" stroke-linecap="round" stroke-linejoin="round"/>
<path d="M327.727 364.035L327.971 339.266" stroke="#321951" stroke-width="1.5" stroke-linecap="round" stroke-linejoin="round"/>
<path d="M312.57 364.542L312.824 339.121" stroke="#321951" stroke-width="1.5" stroke-linecap="round" stroke-linejoin="round"/>
<path d="M350.427 353.112C351.061 352.911 351.613 352.511 352.001 351.971C352.39 351.431 352.595 350.78 352.584 350.115C352.574 349.449 352.35 348.805 351.945 348.277C351.54 347.749 350.976 347.366 350.336 347.185H335.748C335 347.199 334.282 347.482 333.725 347.982C333.167 348.482 332.808 349.166 332.713 349.908C332.618 350.651 332.792 351.403 333.205 352.028C333.618 352.653 334.241 353.108 334.961 353.311C335.242 353.385 335.531 353.421 335.82 353.42L350.391 353.121L350.427 353.112Z" stroke="#321951" stroke-width="1.5" stroke-linecap="round" stroke-linejoin="round"/>
<path d="M334.953 353.348C334.953 353.348 340.38 357.746 337.232 363.302" stroke="#321951" stroke-width="1.5" stroke-linecap="round" stroke-linejoin="round"/>
<path d="M347.86 362.207C345.779 357.284 350.202 353.383 350.428 353.157" stroke="#321951" stroke-width="1.5" stroke-linecap="round" stroke-linejoin="round"/>
<path d="M345.691 310.713L343.936 315.808L344.253 347.093L340.934 347.129L340.617 315.745L338.754 310.776L345.691 310.713Z" stroke="#321951" stroke-width="1.5" stroke-linecap="round" stroke-linejoin="round"/>
<path d="M360.738 279.654C384.027 266.786 402.196 254.604 416.377 243.455C465.306 204.975 466.726 178.748 466.726 178.748L466.844 177.183C461.806 155.011 442.985 130.314 427.547 115.218C409.097 97.2545 388.784 80.3222 366.951 67.209C366.951 67.209 355.863 59.4713 338.426 57.8514C329.32 57.0243 320.141 57.9834 311.402 60.675" stroke="#321951" stroke-width="1.5" stroke-linecap="round" stroke-linejoin="round"/>
<path d="M169.816 259.627C192.734 218.766 181.257 186.748 181.257 186.748" stroke="#321951" stroke-width="1.5" stroke-linecap="round" stroke-linejoin="round"/>
<path d="M214.457 186.712C221.068 187.345 227.119 188.232 232.545 189.219C238.921 190.35 244.538 191.617 249.431 192.748C251.963 193.336 255.318 193.952 257.48 194.422" stroke="#321951" stroke-width="1.5" stroke-linecap="round" stroke-linejoin="round"/>
<path d="M168.316 187.273C172.63 186.848 176.935 186.459 181.222 186.187C185.247 185.934 189.263 185.771 193.242 185.753C200.477 185.753 207.26 186.052 213.483 186.658H213.627" stroke="#321951" stroke-width="1.5" stroke-linecap="round" stroke-linejoin="round"/>
<path d="M248.375 75.4624C248.061 74.9144 247.711 74.3883 247.326 73.8877C242.306 67.2451 233.606 67.3899 233.606 67.3899C174.231 73.9601 133.695 130.377 133.695 130.377C120.609 147.572 105.577 174.721 103.805 197.346L104.157 198.884C104.157 198.884 109.123 226.848 169.827 259.573C186.542 268.445 203.827 276.197 221.568 282.777" stroke="#321951" stroke-width="1.5" stroke-linecap="round" stroke-linejoin="round"/>
<path d="M349.741 89.6972C346.67 86.317 342.646 83.95 338.201 82.9098C335.115 82.2224 331.913 82.2502 328.84 82.9912" stroke="#321951" stroke-width="1.5" stroke-linecap="round" stroke-linejoin="round"/>
<path d="M154.812 210.766C154.812 210.766 157.842 208.54 161.451 202.459C163.405 199.122 165.057 195.618 166.389 191.988C166.85 190.775 167.501 189.173 168.315 187.273C175.379 170.884 194.996 131.707 211.989 114.874" stroke="#321951" stroke-width="1.5" stroke-linecap="round" stroke-linejoin="round"/>
<path d="M218.014 94.9463C214.231 96.5637 210.669 98.656 207.414 101.173" stroke="#321951" stroke-width="1.5" stroke-linecap="round" stroke-linejoin="round"/>
<path d="M218.274 94.8379L218.012 94.9555" stroke="#321951" stroke-width="1.5" stroke-linecap="round" stroke-linejoin="round"/>
<path d="M208.742 85.9867C208.742 85.9867 225.392 75.5523 241.997 75.1269C244.114 75.063 246.233 75.1841 248.328 75.4889C266.742 78.2039 256.812 81.2718 257.852 85.9053" stroke="#321951" stroke-width="1.5" stroke-linecap="round" stroke-linejoin="round"/>
<path d="M339.412 153.961C334.688 155.501 329.849 156.666 324.941 157.445" stroke="#321951" stroke-width="1.5" stroke-linecap="round" stroke-linejoin="round"/>
<path d="M232.6 189.517C232.6 189.517 218.943 187.264 214.457 186.712H214.385H214.177L213.625 186.657H213.48C213.535 186.992 215.117 196.712 216.465 207.364C216.465 207.364 220.987 236.323 221.557 282.858C222.044 326.014 219.038 369.138 212.567 411.809L212.477 412.135C222.95 415.755 232.946 418.771 242.467 421.185C293.702 434.271 331.452 430.995 357.327 423.411C364.128 421.444 370.76 418.935 377.161 415.909C372.566 369.953 366.498 320.179 360.737 279.654C355.735 244.441 350.969 216.205 347.605 203.572C347.605 203.572 344.457 191.87 341.771 186.648H341.672L331.126 190.268C335.509 211.657 336.522 233.599 334.129 255.301C332.148 273.4 324.904 288.912 306.237 293.373C287.244 297.898 260.826 295.183 252.09 274.17C242.422 250.975 237.719 224.178 234.002 199.49L232.645 189.481" stroke="#321951" stroke-width="1.5" stroke-linecap="round" stroke-linejoin="round"/>
<path d="M232.555 189.22V189.21" stroke="#321951" stroke-width="1.5" stroke-linecap="round" stroke-linejoin="round"/>
<path d="M232.555 189.219L232.6 189.517" stroke="#321951" stroke-width="1.5" stroke-linecap="round" stroke-linejoin="round"/>
<path d="M178.878 312.94C178.771 313.2 178.614 313.436 178.415 313.635C178.216 313.834 177.98 313.991 177.72 314.098C177.46 314.205 177.182 314.259 176.901 314.258C176.62 314.256 176.342 314.199 176.083 314.089L130.863 295.365L112.657 374.316C112.556 374.754 112.32 375.148 111.982 375.444C111.645 375.74 111.222 375.921 110.776 375.963H110.577C110.161 375.965 109.754 375.845 109.405 375.618C109.056 375.392 108.781 375.068 108.614 374.687L93.9716 341.51L80.4869 356.225C80.2525 356.481 79.9602 356.677 79.6344 356.797C79.3087 356.917 78.959 356.957 78.6147 356.913C78.2717 356.861 77.9461 356.728 77.6646 356.525C77.3831 356.322 77.1539 356.055 76.9958 355.746L55.091 312.035L31.5039 339.528C31.3051 339.757 31.0605 339.941 30.786 340.069C30.5116 340.196 30.2133 340.265 29.9107 340.27C29.608 340.275 29.3076 340.217 29.029 340.098C28.7504 339.98 28.4997 339.804 28.2933 339.583L10.205 319.727L1.75781 310.46C2.44272 309.155 3.54424 308.116 4.88708 307.51L13.4247 316.877L29.8308 334.886L53.9243 306.759C54.1535 306.49 54.4457 306.281 54.7749 306.153C55.1041 306.024 55.46 305.978 55.8109 306.02C56.1618 306.063 56.4969 306.191 56.7863 306.394C57.0757 306.597 57.3104 306.868 57.4696 307.184L79.3925 351.058L92.9587 336.216C93.1981 335.952 93.4997 335.752 93.836 335.635C94.1723 335.517 94.5327 335.486 94.8842 335.544C95.2358 335.601 95.5673 335.746 95.8487 335.964C96.13 336.183 96.3522 336.469 96.4949 336.795L109.862 367.094L127.182 291.98C127.255 291.68 127.391 291.399 127.581 291.155C127.771 290.912 128.011 290.712 128.285 290.569C128.563 290.424 128.868 290.342 129.18 290.328C129.493 290.314 129.805 290.369 130.094 290.487L177.684 310.18C178.207 310.389 178.625 310.797 178.849 311.314C179.072 311.831 179.083 312.415 178.878 312.94Z" fill="white" stroke="#321951" stroke-width="1.5" stroke-linecap="round" stroke-linejoin="round"/>
<path d="M14.3035 313.591C14.2933 314.749 13.9816 315.885 13.3991 316.885C12.8139 317.907 11.9698 318.756 10.952 319.347C9.93417 319.938 8.7786 320.25 7.6018 320.252C5.83713 320.25 4.14542 319.547 2.89761 318.299C1.6498 317.05 0.947726 315.357 0.945334 313.591C0.942538 312.497 1.21632 311.42 1.74122 310.46C2.4383 309.147 3.5545 308.105 4.91203 307.5C6.26956 306.895 7.79033 306.762 9.23213 307.122C10.6739 307.482 11.9538 308.315 12.868 309.487C13.7821 310.66 14.2779 312.104 14.2764 313.591H14.3035Z" fill="white" stroke="#321951" stroke-width="1.5" stroke-linecap="round" stroke-linejoin="round"/>
<path d="M197.004 414.298C196.36 414.297 195.742 414.047 195.277 413.601C182.326 401.23 161.813 381.8 156.486 377.266C153.411 379.764 145.272 387.149 137.919 393.981C137.599 394.283 137.205 394.494 136.776 394.593C136.348 394.693 135.901 394.677 135.481 394.547C135.061 394.417 134.683 394.179 134.385 393.855C134.087 393.531 133.881 393.135 133.786 392.705L115.951 313.066L107.006 329.121C106.827 329.44 106.581 329.717 106.284 329.93C105.987 330.144 105.646 330.29 105.287 330.358C104.928 330.426 104.558 330.415 104.203 330.325C103.848 330.235 103.518 330.068 103.235 329.836L89.75 318.741L54.297 401.728C54.1344 402.107 53.8803 402.44 53.5576 402.697C53.2349 402.954 52.8536 403.127 52.4478 403.201C52.042 403.274 51.6243 403.246 51.232 403.118C50.8398 402.991 50.4852 402.768 50.2 402.47L11.3103 361.746C10.8534 361.266 10.6057 360.624 10.6218 359.961C10.6379 359.298 10.9165 358.669 11.3962 358.212C11.876 357.754 12.5176 357.507 13.1799 357.523C13.8422 357.539 14.471 357.818 14.928 358.298L51.213 396.262L86.485 313.691C86.6371 313.334 86.8702 313.018 87.1657 312.767C87.4612 312.516 87.811 312.337 88.1875 312.245C88.564 312.153 88.9568 312.15 89.3347 312.236C89.7127 312.322 90.0654 312.495 90.365 312.741L104.112 324.053L114.784 304.885C115.029 304.441 115.404 304.083 115.858 303.857C116.312 303.632 116.824 303.55 117.326 303.622C117.828 303.695 118.296 303.919 118.667 304.264C119.039 304.61 119.296 305.06 119.406 305.555L137.729 387.366C154.623 371.682 155.455 371.682 156.577 371.682C157.915 371.682 158.241 371.682 178.916 391.176C188.783 400.47 198.65 409.891 198.75 409.99C199.113 410.336 199.364 410.783 199.47 411.273C199.575 411.764 199.531 412.274 199.343 412.739C199.155 413.204 198.831 413.601 198.414 413.879C197.996 414.157 197.505 414.303 197.004 414.298Z" fill="#F4825C" stroke="#321951" stroke-width="1.5" stroke-linecap="round" stroke-linejoin="round"/>
<path d="M131.119 413.819C130.56 413.82 130.018 413.632 129.581 413.285L111.547 399.176L106.265 408.742C106.062 409.111 105.769 409.423 105.413 409.649C105.057 409.875 104.651 410.008 104.23 410.036L74.5386 411.846C74.0314 411.876 73.5271 411.751 73.0926 411.487C72.6581 411.224 72.3139 410.835 72.1057 410.371C57.3638 377.402 50.2099 360.968 46.7822 352.687C44.4397 365.004 40.0533 388.886 36.906 406.226C36.7984 406.827 36.4735 407.368 35.9932 407.745C35.5128 408.122 34.9106 408.31 34.3013 408.271L16.0683 407.149C15.4107 407.105 14.7971 406.803 14.3614 406.308C13.9257 405.813 13.7033 405.166 13.7428 404.507C13.7822 403.849 14.0802 403.233 14.5718 402.794C15.0634 402.355 15.7086 402.128 16.3668 402.163L32.3568 403.122C33.2612 398.334 35.4137 386.352 37.6205 374.37C39.2756 365.393 40.605 358.235 41.5818 353.103C42.1244 350.198 42.5947 347.773 42.9294 346.081C43.1012 345.176 43.2459 344.533 43.3454 344.071C43.7614 342.183 44.7111 341.302 46.1943 341.429C46.7532 341.485 47.2778 341.725 47.6855 342.111C48.0931 342.498 48.3608 343.009 48.4463 343.565C49.3507 346.85 65.1146 382.479 75.9585 406.724L102.557 405.122L108.599 394.19C108.772 393.873 109.012 393.598 109.303 393.384C109.593 393.169 109.927 393.021 110.281 392.95C110.636 392.878 111.003 392.883 111.355 392.966C111.708 393.049 112.039 393.207 112.325 393.429L131.806 408.687L158.577 404.516L183.656 367.918C183.856 367.627 184.114 367.382 184.415 367.198C184.716 367.014 185.052 366.896 185.401 366.85C185.75 366.808 186.103 366.839 186.439 366.94C186.776 367.041 187.087 367.211 187.355 367.438L198.063 376.723C198.564 377.158 198.873 377.774 198.92 378.436C198.968 379.098 198.751 379.751 198.316 380.253C197.882 380.754 197.267 381.063 196.605 381.111C195.944 381.158 195.29 380.941 194.789 380.506L186.197 373.049L162.086 408.235C161.893 408.516 161.646 408.755 161.358 408.937C161.07 409.119 160.749 409.24 160.412 409.294L131.471 413.819C131.354 413.826 131.236 413.826 131.119 413.819Z" fill="#FBC22D" stroke="#321951" stroke-width="1.5" stroke-linecap="round" stroke-linejoin="round"/>
<path d="M16.2217 358.804C16.2234 360.124 15.834 361.414 15.1027 362.512C14.3714 363.61 13.331 364.467 12.1132 364.973C10.8954 365.479 9.55489 365.612 8.26131 365.356C6.96773 365.1 5.77921 364.465 4.84611 363.533C3.91302 362.6 3.27729 361.412 3.01937 360.118C2.76144 358.824 2.89291 357.482 3.39714 356.263C3.90137 355.044 4.7557 354.002 5.85204 353.268C6.94837 352.535 8.23744 352.144 9.55614 352.144C11.3224 352.144 13.0164 352.845 14.2662 354.094C15.5159 355.343 16.2193 357.037 16.2217 358.804Z" fill="#F4825C" stroke="#321951" stroke-width="1.5" stroke-linecap="round" stroke-linejoin="round"/>
<path d="M16.2217 403.9C16.2234 405.22 15.834 406.51 15.1027 407.608C14.3714 408.706 13.331 409.562 12.1132 410.068C10.8954 410.575 9.55489 410.708 8.26131 410.452C6.96773 410.195 5.77921 409.561 4.84611 408.628C3.91302 407.696 3.27729 406.508 3.01937 405.214C2.76144 403.919 2.89291 402.578 3.39714 401.359C3.90137 400.139 4.7557 399.097 5.85204 398.364C6.94837 397.631 8.23744 397.239 9.55614 397.239C11.3224 397.239 13.0164 397.941 14.2662 399.19C15.5159 400.438 16.2193 402.133 16.2217 403.9Z" fill="#FBC22D" stroke="#321951" stroke-width="1.5" stroke-linecap="round" stroke-linejoin="round"/>
<path d="M103.887 10.8828C112.796 14.0802 120.753 19.4789 127.018 26.5773C133.283 33.6757 137.654 42.2435 139.724 51.4848C141.794 60.726 141.496 70.3409 138.858 79.436C136.22 88.5312 131.327 96.8117 124.635 103.508L84.9219 63.7792L103.887 10.8828Z" fill="#F4825C"/>
<path d="M84.9194 63.7789L124.632 103.508C119.435 108.802 113.241 113.014 106.407 115.899C99.5744 118.785 92.2377 120.287 84.8211 120.32C77.4045 120.353 70.0549 118.915 63.1966 116.09C56.3383 113.265 50.1072 109.109 44.8631 103.861C39.619 98.6126 35.4658 92.3771 32.6433 85.5141C29.8208 78.6512 28.3849 71.2967 28.4185 63.8754C28.4522 56.4541 29.9547 49.113 32.8392 42.2759C35.7238 35.4388 39.9333 29.2412 45.2248 24.041L84.9194 63.7699V63.7789Z" fill="#FBC22D"/>
<path d="M103.887 10.8821L84.8945 63.7695V7.58799C91.3684 7.57604 97.795 8.69069 103.887 10.8821Z" fill="white"/>
<path d="M84.9212 7.58794V63.7695L45.2266 24.0406C50.4337 18.8169 56.6211 14.6742 63.4332 11.8507C70.2453 9.02726 77.5478 7.57858 84.9212 7.58794Z" fill="#00DA9C"/>
<path d="M103.885 10.8821C117.124 15.6283 128.103 25.1702 134.653 37.6228C141.203 50.0755 142.847 64.5332 139.261 78.1401C135.675 91.747 127.12 103.513 115.285 111.115C103.451 118.717 89.1974 121.601 75.3409 119.197C61.4845 116.794 49.0326 109.278 40.4451 98.1345C31.8576 86.9908 27.759 73.0296 28.9589 59.0089C30.1588 44.9882 36.57 31.9276 46.926 22.4072C57.282 12.8867 70.8296 7.59879 84.8927 7.58791C91.366 7.58218 97.7915 8.69665 103.885 10.8821V10.8821Z" stroke="#321951" stroke-width="1.5" stroke-linecap="round" stroke-linejoin="round"/>
<path d="M84.9219 7.58789V63.7694" stroke="#321951" stroke-width="1.5" stroke-linecap="round" stroke-linejoin="round"/>
<path d="M84.9212 63.7699L45.2266 24.041" stroke="#321951" stroke-width="1.5" stroke-linecap="round" stroke-linejoin="round"/>
<path d="M124.635 103.508L84.9219 63.7793" stroke="#321951" stroke-width="1.5" stroke-linecap="round" stroke-linejoin="round"/>
<path d="M103.887 10.8828L84.9219 63.7702V63.7792" stroke="#321951" stroke-width="1.5" stroke-linecap="round" stroke-linejoin="round"/>
<path d="M81.1558 210.676C81.1557 218.143 78.1921 225.304 72.9166 230.586L53.0195 210.676L62.5339 184.142C67.989 186.11 72.7044 189.714 76.0371 194.463C79.3697 199.211 81.1572 204.873 81.1558 210.676Z" fill="#F4825C"/>
<path d="M53.0207 210.676L72.9178 230.585C68.1798 235.331 61.9056 238.229 55.223 238.76C48.5405 239.291 41.8878 237.419 36.4609 233.481L53.0207 210.676Z" fill="#FBC22D"/>
<path d="M62.4913 184.133L53.0221 210.676L33.125 190.766C36.9048 186.991 41.6773 184.367 46.8882 183.197C52.0991 182.028 57.5347 182.362 62.5636 184.16L62.4913 184.133Z" fill="#F4825C"/>
<path d="M53.0204 210.676L36.4425 233.509C33.148 231.114 30.411 228.034 28.42 224.479C26.4289 220.925 25.2311 216.981 24.9088 212.919C24.5865 208.858 25.1474 204.774 26.553 200.95C27.9585 197.126 30.1754 193.652 33.051 190.767L53.0204 210.676Z" fill="#00DA9C"/>
<path d="M62.4906 184.132C69.147 186.513 74.6688 191.305 77.9641 197.563C81.2595 203.82 82.0885 211.087 80.2873 217.927C78.4862 224.767 74.1859 230.681 68.2367 234.501C62.2875 238.321 55.1225 239.769 48.1582 238.557C41.1939 237.346 34.9374 233.564 30.6255 227.959C26.3136 222.354 24.2602 215.335 24.8714 208.288C25.4825 201.241 28.7137 194.68 33.9261 189.903C39.1385 185.125 45.9527 182.478 53.0214 182.485C56.2487 182.488 59.4517 183.045 62.4906 184.132V184.132Z" stroke="#321951" stroke-width="1.5" stroke-linecap="round" stroke-linejoin="round"/>
<path d="M52.975 210.667L33.0508 190.739" stroke="#321951" stroke-width="1.5" stroke-linecap="round" stroke-linejoin="round"/>
<path d="M72.9008 230.613L52.9766 210.676" stroke="#321951" stroke-width="1.5" stroke-linecap="round" stroke-linejoin="round"/>
<path d="M36.4453 233.509L52.978 210.676" stroke="#321951" stroke-width="1.5" stroke-linecap="round" stroke-linejoin="round"/>
</svg>
