<svg width="108" height="129" viewBox="0 0 108 129" fill="none" xmlns="http://www.w3.org/2000/svg">
<path d="M60.2637 125.309C57.3065 125.309 54.6972 124.959 51.9139 124.085C26.5164 116.395 4.59799 84.4129 3.20635 52.7799C2.33657 34.4293 8.7729 19.3992 20.254 12.4085C13.2957 21.1469 9.64271 33.7302 10.3385 48.0612C11.7302 81.0923 34.5183 114.298 61.3075 122.338C64.2647 123.211 67.222 123.736 70.1792 123.91C66.874 124.609 63.5689 125.309 60.2637 125.309ZM93.8372 111.677C85.8352 120.066 74.3541 122.687 62.1772 119.017C36.7797 111.327 14.8614 79.3446 13.4697 47.7116C12.7739 32.8563 16.7749 20.2731 24.4289 12.059C29.9955 6.11687 37.3016 2.97105 45.4775 2.97105C48.9566 2.97105 52.4357 3.49534 56.0888 4.54395C81.4863 12.2337 103.405 44.2163 104.796 75.8493C105.492 91.0541 101.491 103.637 93.8372 111.677Z" fill="#321951"/>
<path fill-rule="evenodd" clip-rule="evenodd" d="M107.928 76.024C106.536 42.9929 83.7477 9.787 56.9586 1.74768C53.1316 0.524304 49.1306 0 45.4775 0C41.1286 0 37.1276 0.873818 33.3006 2.27196H33.1267H32.9527C31.909 2.79626 30.6913 3.32058 29.6476 3.84489L22.3415 7.34025C12.7739 11.5347 5.81567 20.2731 2.33656 31.8078C-1.977 49.1447 0.655227 63.965 2.51054 69.2081C9.12085 95.598 27.908 119.366 49.6525 126.707C50.1743 126.881 50.5222 127.056 51.0441 127.231C54.1753 128.105 57.1325 128.629 60.2637 128.629C64.2647 128.629 68.0917 127.93 71.7448 126.707C75.7458 125.483 79.7468 123.91 83.5738 122.163C88.2706 120.59 92.4455 117.794 96.0986 114.123C104.274 105.21 108.623 91.7531 107.928 76.024ZM51.9139 124.085C54.6972 124.959 57.3065 125.309 60.2637 125.309C63.5689 125.309 66.874 124.609 70.1792 123.91C67.222 123.736 64.2647 123.211 61.3075 122.338C34.5183 114.298 11.7302 81.0923 10.3385 48.0612C9.64271 33.7302 13.2957 21.1469 20.254 12.4085C8.7729 19.3992 2.33657 34.4293 3.20635 52.7799C4.59799 84.4129 26.5164 116.395 51.9139 124.085ZM62.1772 119.017C74.3541 122.687 85.8352 120.066 93.8372 111.677C101.491 103.637 105.492 91.0541 104.796 75.8493C103.405 44.2163 81.4863 12.2337 56.0888 4.54395C52.4357 3.49534 48.9566 2.97105 45.4775 2.97105C37.3016 2.97105 29.9955 6.11687 24.4289 12.059C16.7749 20.2731 12.7739 32.8563 13.4697 47.7116C14.8614 79.3446 36.7797 111.327 62.1772 119.017Z" fill="#321951"/>
<path d="M10.2697 47.4663C10.8088 33.4229 12.7798 22.1502 19.8531 13.3477C8.35908 20.3897 1.77311 33.7804 2.48043 52.2657C3.89508 84.3069 25.2228 116.882 51.2169 124.452C54.0462 125.332 55.573 126.202 59.9291 126.202C63.2889 126.202 67.2008 125.332 70.3837 124.452C67.3776 124.276 64.3712 123.214 61.3651 122.334C34.3099 114.236 12.5513 81.5388 10.2697 47.4663Z" fill="#FBC22D"/>
<path d="M104.282 75.3316C102.898 43.5122 81.2662 11.518 55.8272 4.00023C52.193 2.95124 48.7319 2.42676 45.2708 2.42676C37.1372 2.42676 29.869 5.57372 24.3312 11.518C16.5438 19.5603 12.7365 32.323 13.4287 47.1837C14.8132 79.0031 36.445 110.997 61.8841 118.515C73.9979 122.187 85.4195 119.564 93.3801 111.172C100.994 102.78 104.975 90.1923 104.282 75.3316Z" fill="#FBC22D"/>
<path d="M91.0047 63.5626C70.4181 57.3064 65.3586 29.3274 65.1842 29.1536C65.0097 28.4585 64.3119 27.7634 63.614 27.9372C62.7417 27.9372 62.2183 28.6323 62.0439 29.3274C62.0439 29.3274 61.5205 34.5409 59.078 39.5806C55.0654 48.0959 48.4358 51.0502 39.5382 48.4435C38.6659 48.2697 37.7936 48.6173 37.6191 49.4862C37.6191 49.66 37.6191 49.8338 37.6191 50.0075C37.6191 50.7027 38.1425 51.224 38.6659 51.5716C59.427 57.654 64.4863 85.8068 64.4863 86.1543C64.6608 86.8495 65.3586 87.3708 66.0565 87.3708C66.9288 87.3708 67.4522 86.6757 67.6267 85.9805C67.6267 85.8067 69.7202 65.9955 84.2006 65.9955C86.1197 65.9955 88.0388 66.3431 90.1323 66.8644C90.3068 66.8644 90.4812 66.8644 90.6557 66.8644C91.528 66.8644 92.2259 66.1693 92.2259 65.3004C92.2259 64.2577 91.7025 63.5626 91.0047 63.5626ZM66.0565 78.6817C65.1842 76.0749 63.963 72.773 62.3928 69.2974C58.7291 61.651 53.8441 55.9161 48.0869 52.0929C53.1463 51.3978 56.81 48.6173 59.4269 45.1416C59.4269 45.3154 59.6014 45.4892 59.6014 45.663C62.0439 52.0929 66.5799 60.0869 74.2562 65.8217C69.7202 69.1236 67.2777 74.5109 66.0565 78.6817ZM77.0477 64.0839L76.8732 63.9101C67.9756 57.8278 63.6141 48.6173 61.5205 41.8398C62.5673 39.9282 63.2651 37.8428 63.963 36.1049C64.8353 38.7117 66.0565 42.0135 67.6267 45.4892C71.2904 53.1356 76.1753 58.8705 81.9326 62.6937C80.0135 62.8675 78.4434 63.3888 77.0477 64.0839Z" fill="#321951"/>
<path d="M66.0565 78.6817C65.1842 76.0749 63.963 72.773 62.3928 69.2974C58.7291 61.651 53.8441 55.9161 48.0869 52.0929C53.1463 51.3978 56.81 48.6173 59.4269 45.1416C59.4269 45.3154 59.6014 45.4892 59.6014 45.663C62.0439 52.0929 66.5799 60.0869 74.2562 65.8217C69.7202 69.1236 67.2777 74.5109 66.0565 78.6817Z" fill="white"/>
</svg>
