<svg width="127" height="221" viewBox="0 0 127 221" fill="none" xmlns="http://www.w3.org/2000/svg">
<path fill-rule="evenodd" clip-rule="evenodd" d="M1 121.008H126V218.493L124.41 218.606C104.378 220.037 52.0111 222.038 2.5937 218.606L1 218.496V121.008ZM4.42466 125.468V136.583C21.7101 138.251 66.9173 140.363 122.575 136.534V125.412C67.204 129.207 22.131 127.149 4.42466 125.468ZM4.42466 168.184V156.31C20.652 157.991 63.6121 160.015 122.575 156.226V168.26C62.5164 172.084 19.3088 169.852 4.42466 168.184ZM4.42466 171.629V183.688C20.1346 185.352 63.1864 187.444 122.575 183.616V171.691C62.9864 175.474 19.8817 173.318 4.42466 171.629ZM4.42466 199.006V187.131C20.652 188.813 63.6121 190.837 122.575 187.048V199.082C62.5164 202.906 19.3088 200.674 4.42466 199.006ZM4.42466 202.451V215.299C51.9068 218.48 101.809 216.696 122.575 215.3V202.513C62.9864 206.296 19.8817 204.14 4.42466 202.451ZM122.575 152.794C63.1864 156.622 20.1346 154.53 4.42466 152.866V140.023C22.131 141.704 67.204 143.761 122.575 139.967V152.794Z" fill="#4A2577"/>
<path d="M4.42466 136.583V125.468C22.131 127.149 67.204 129.207 122.575 125.412V136.534C66.9173 140.363 21.7101 138.251 4.42466 136.583Z" fill="#FBC22D"/>
<path d="M4.42466 152.866C20.1346 154.53 63.1864 156.622 122.575 152.794V139.967C67.204 143.761 22.131 141.704 4.42466 140.023V152.866Z" fill="#FBC22D"/>
<path d="M4.42466 156.31V168.184C19.3088 169.852 62.5164 172.084 122.575 168.26V156.226C63.6121 160.015 20.652 157.991 4.42466 156.31Z" fill="#FBC22D"/>
<path d="M4.42466 183.688V171.629C19.8817 173.318 62.9864 175.474 122.575 171.691V183.616C63.1864 187.444 20.1346 185.352 4.42466 183.688Z" fill="#FBC22D"/>
<path d="M4.42466 202.451V215.299C51.9068 218.48 101.809 216.696 122.575 215.3V202.513C62.9864 206.296 19.8817 204.14 4.42466 202.451Z" fill="#FBC22D"/>
<path d="M4.42466 187.131V199.006C19.3088 200.674 62.5164 202.906 122.575 199.082V187.048C63.6121 190.837 20.652 188.813 4.42466 187.131Z" fill="#FBC22D"/>
<circle cx="63.5006" cy="62.7877" r="61.7877" fill="#FBC22D" stroke="#4A2577" stroke-width="2"/>
<path d="M63.4999 37.1025C60.9315 44.4656 53.5684 58.5066 39.5273 62.7875C53.7397 67.0683 60.9315 80.4245 63.4999 87.6162C66.0684 80.2532 72.5753 67.0683 86.6164 62.7875C72.5753 58.5066 66.0684 44.4656 63.4999 37.1025Z" fill="white"/>
<path d="M65.2125 93.0957C65.2125 93.0957 66.4112 85.7327 71.2057 78.5409C77.3701 69.1231 86.2742 64.3285 97.5755 64.3285C98.4317 64.3285 99.1166 63.6436 99.1166 62.7875C99.1166 61.9313 98.4317 61.2463 97.5755 61.2463C86.2742 61.2463 77.3701 56.4518 71.2057 47.034C66.5824 39.8422 65.2125 32.6505 65.2125 32.4792C65.0413 31.7943 64.5276 31.1094 63.6714 31.1094C62.9865 31.1094 62.3016 31.6231 62.1303 32.4792C62.1303 32.8217 56.9933 61.0751 29.9385 61.0751C29.0824 61.0751 28.3975 61.7601 28.3975 62.6162C28.3975 63.4724 29.0824 64.1573 29.9385 64.1573C41.2399 64.1573 50.144 68.9518 56.3084 78.3696C60.9317 85.5614 62.3016 92.7532 62.3016 92.9244C62.4728 93.6094 62.9865 94.2943 63.8427 94.2943C64.6988 94.2943 65.2125 93.7806 65.2125 93.0957ZM40.7262 62.7875C54.9386 58.5066 61.1029 45.8354 63.6714 38.6436C66.2399 46.0066 72.5755 58.5066 86.6166 62.7875C72.4043 67.0683 66.2399 79.7395 63.6714 86.9313C61.2742 79.7395 54.9386 67.2395 40.7262 62.7875Z" fill="#321951"/>
</svg>
