<svg width="577" height="398" viewBox="0 0 577 398" fill="none" xmlns="http://www.w3.org/2000/svg">
<g clip-path="url(#clip0_1277_82135)">
<path d="M282.861 255.328C279.546 250.858 269.827 239.797 250.357 232.064C242.952 229.16 235.261 227.042 227.412 225.745L222.584 224.925C214.04 223.446 205.239 221.967 196.727 220.745C200.283 224.974 207.652 235.456 206.767 248.833C210.178 248.736 213.831 248.736 218.159 248.833C218.273 248.781 218.397 248.754 218.522 248.754C218.647 248.754 218.77 248.781 218.884 248.833C232.899 249.186 247.847 250.617 265.885 252.45C271.601 253.033 277.272 253.994 282.861 255.328Z" fill="#E6EEF8"/>
<path d="M284.807 257.707C278.507 256.108 272.096 254.979 265.627 254.331C248.603 252.61 234.379 251.244 221.088 250.81C227.733 257.241 248.925 280.215 247.573 311.502C260.744 312.959 273.986 313.683 287.237 313.673C309.858 313.778 332.433 311.623 354.625 307.242C350.667 300.763 329.17 269.025 284.807 257.707Z" fill="#E6EEF8"/>
<path d="M136.515 135.549C136.071 130.5 137.554 125.469 140.666 121.466C135.603 117.059 130.769 112.396 126.184 107.494L103.802 86.7862C102.991 86.0853 101.937 85.7298 100.866 85.7959C99.7951 85.862 98.7929 86.3445 98.0738 87.1399L95.6441 89.7284L96.1591 90.1143C96.6758 90.6078 96.9814 91.2818 97.0119 91.9954C97.0277 92.7405 96.7504 93.4621 96.2395 94.0051L84.091 107.012C83.83 107.299 83.5121 107.529 83.1575 107.686C82.803 107.844 82.4195 107.926 82.0313 107.928C81.3645 107.935 80.7201 107.688 80.2292 107.237L79.7464 106.771L77.3489 109.407C76.5734 110.232 76.1568 111.331 76.1904 112.462C76.1947 112.962 76.2995 113.456 76.4985 113.914C76.6975 114.373 76.9867 114.786 77.3489 115.131L79.6499 117.285L79.7625 117.382L96.4004 132.832L98.9106 135.164C101.366 134.867 103.839 134.728 106.312 134.746C112.861 134.746 117.125 136.064 118.992 138.636C119.452 139.256 119.771 139.968 119.927 140.723C120.083 141.479 120.071 142.259 119.893 143.009C123.642 144.312 126.007 146.772 125.975 149.44C125.983 149.472 125.983 149.505 125.975 149.537C129.66 150.695 132.074 153.347 132.042 156.354C131.941 157.583 131.512 158.764 130.799 159.77C130.085 160.777 129.114 161.574 127.987 162.077L128.244 162.335C129.044 163.053 130.095 163.428 131.169 163.38C132.243 163.332 133.256 162.864 133.989 162.077L145.944 149.215C140.377 145.292 137.174 140.694 136.515 135.549Z" fill="#F1E6FF"/>
<path d="M26.4053 46.1426C31.5747 40.1106 37.9114 35.1852 45.0345 31.6625C52.1576 28.1398 59.92 26.0926 67.8552 25.6437C69.0714 25.6182 70.2277 25.1109 71.0696 24.2335C71.9115 23.3561 72.3701 22.1804 72.3445 20.9652C72.3189 19.7499 71.8112 18.5946 70.9331 17.7534C70.0549 16.9122 68.8783 16.4539 67.6621 16.4795H67.3724C58.2833 17.0203 49.3931 19.3651 41.2208 23.3768C33.0486 27.3886 25.7582 32.9869 19.7753 39.845C13.7924 46.703 9.23694 54.6834 6.37486 63.32C3.51277 71.9566 2.40145 81.0764 3.10579 90.1469C3.18751 91.2956 3.70361 92.3701 4.54932 93.1524C5.39504 93.9348 6.507 94.3662 7.65949 94.3592H8.01348C9.22923 94.2567 10.3555 93.6792 11.1477 92.7521C11.94 91.825 12.3344 90.6232 12.2454 89.4073C11.6173 81.618 12.5457 73.7816 14.9766 66.354C17.4075 58.9265 21.2924 52.0561 26.4053 46.1426Z" fill="#00DA9C"/>
<path d="M69.303 44.8884C69.919 44.8457 70.5205 44.6817 71.0728 44.4057C71.6251 44.1298 72.1173 43.7475 72.5212 43.2807C73.2778 42.3837 73.6735 41.2375 73.6314 40.0652C73.5577 38.9008 73.0421 37.8083 72.19 37.0107C71.3378 36.213 70.2132 35.7701 69.0455 35.7725H68.7881C62.2551 36.1603 55.8639 37.8389 49.9844 40.711C44.1049 43.5832 38.8539 47.5919 34.5352 52.5051C30.2165 57.4184 26.9158 63.1386 24.8242 69.3348C22.7327 75.5311 21.8917 82.0802 22.35 88.6033C22.3868 89.1985 22.5412 89.7805 22.8041 90.3157C23.0671 90.851 23.4336 91.329 23.8823 91.722C24.3311 92.1151 24.8533 92.4156 25.4188 92.606C25.9843 92.7965 26.5819 92.8732 27.1773 92.8317C28.3942 92.733 29.5235 92.1601 30.3213 91.2366C31.1191 90.3132 31.5214 89.1132 31.4413 87.8959C31.0595 82.5792 31.7398 77.2398 33.4427 72.1883C35.1456 67.1368 37.8372 62.4742 41.3606 58.4719C44.884 54.4696 49.169 51.2075 53.9661 48.8755C58.7633 46.5435 63.9767 45.1882 69.303 44.8884Z" fill="#00DA9C"/>
<path d="M73.8564 62.3969C74.6186 61.503 75.0151 60.3547 74.9667 59.1814C74.9088 58.0226 74.407 56.9305 73.5653 56.1314C72.7235 55.3322 71.6063 54.8872 70.4452 54.8887H70.1555C62.0984 55.3734 54.5623 59.0304 49.1994 65.058C43.8365 71.0856 41.0843 78.9919 41.5461 87.0438C41.5789 87.6431 41.7301 88.2299 41.9908 88.7706C42.2516 89.3112 42.6169 89.795 43.0656 90.194C43.5143 90.593 44.0375 90.8994 44.6052 91.0954C45.1729 91.2915 45.7738 91.3735 46.3733 91.3365C47.5813 91.2538 48.7093 90.7036 49.5175 89.8029C50.3258 88.9022 50.7507 87.722 50.7018 86.5132C50.5166 83.7241 50.8868 80.926 51.791 78.2807C52.6952 75.6355 54.1154 73.1956 55.9695 71.1024C57.8235 69.0091 60.0746 67.304 62.5925 66.0857C65.1103 64.8674 67.845 64.1601 70.6383 64.0047C71.2558 63.9691 71.8597 63.8082 72.413 63.5318C72.9663 63.2554 73.4574 62.8692 73.8564 62.3969Z" fill="#00DA9C"/>
<path d="M81.3233 83.2977C81.1487 80.939 80.0882 78.7335 78.3544 77.1233C76.6206 75.5132 74.3416 74.6175 71.9746 74.6158C70.0217 74.5944 68.1097 75.1754 66.4993 76.2794C64.8889 77.3835 63.6585 78.957 62.9758 80.7853C62.2931 82.6136 62.1914 84.6079 62.6846 86.4961C63.1777 88.3843 64.2416 90.0745 65.7313 91.3365C67.4334 92.7952 69.6035 93.594 71.8459 93.5873C73.1612 93.5874 74.4622 93.3148 75.6667 92.7869C76.8713 92.2589 77.9531 91.487 78.8438 90.52C79.7345 89.5529 80.4147 88.4118 80.8415 87.1686C81.2683 85.9255 81.4324 84.6074 81.3233 83.2977Z" fill="#00DA9C"/>
<path d="M293.207 145.614C291.549 159.818 286.739 173.473 279.127 185.583C287.285 185.422 295.669 185.776 302.668 188.589C312.081 177.769 322.651 168.011 334.19 159.489C334.296 159.417 334.414 159.367 334.54 159.341C334.665 159.315 334.794 159.314 334.919 159.338C335.045 159.362 335.164 159.41 335.271 159.48C335.378 159.55 335.47 159.641 335.542 159.746C335.614 159.852 335.664 159.97 335.69 160.095C335.716 160.22 335.717 160.349 335.693 160.475C335.669 160.6 335.621 160.72 335.55 160.826C335.48 160.933 335.39 161.025 335.284 161.097C323.636 169.707 312.982 179.586 303.521 190.551C299.675 194.924 295.99 199.538 292.563 204.265C277.84 224.539 261.283 230.069 254.219 231.597C275.603 240.938 284.26 253.703 285.676 256.003C331.97 267.98 353.66 301.824 356.637 306.808C360.74 305.939 364.425 305.055 367.9 304.139C391.924 287.595 418.715 245.375 420.582 241.083C417.363 234.909 414.741 231.018 414.708 230.97C414.568 230.756 414.518 230.496 414.569 230.246C414.62 229.996 414.769 229.776 414.982 229.635C415.197 229.499 415.456 229.452 415.705 229.503C415.954 229.554 416.174 229.699 416.317 229.909C416.317 229.909 419.053 234.073 422.48 240.552C427.389 249.67 431.326 259.278 434.227 269.218C451.701 242.176 481.356 240.874 490.223 241.131H490.802C480.986 204.619 454.292 177.223 438.571 163.669C434.338 169.441 429 174.315 422.866 178.01C416.989 181.558 410.263 183.457 403.397 183.509C395.865 183.392 388.503 181.26 382.076 177.335C378.319 175.342 375.093 172.479 372.669 168.985C370.245 165.492 368.692 161.469 368.142 157.254C367.351 150.973 368.057 144.594 370.201 138.636C360.547 135.919 350.136 135.18 339.452 134.633C323.361 133.829 307.399 135.437 293.722 137.157C293.713 139.984 293.541 142.807 293.207 145.614Z" fill="#F4825C"/>
<path d="M93.7775 339.236C106.312 321.133 119.41 302.435 133.425 285.489C134.729 283.881 136.064 282.273 137.448 280.489C140.151 277.08 142.951 273.559 145.976 270.199C152.734 262.659 158.849 258.109 164.995 255.89C177.807 251.497 191.229 249.137 204.772 248.896C205.85 233.687 195.31 221.999 193.701 220.311L188.729 219.683C163.354 216.581 135.63 215.809 121.534 233.623C108.839 249.7 86.1344 296.824 73.6801 323.448C67.6782 336.31 63.2854 346.053 62.0947 348.706C63.0119 348.995 63.913 349.285 64.8302 349.542C68.2889 350.306 71.5672 351.731 74.4846 353.738C76.4584 355.477 78.0948 357.565 79.3119 359.896C83.6886 353.754 88.0814 347.468 92.1845 341.519L93.7775 339.236Z" fill="#FDC8B4"/>
<path d="M218.159 250.714C213.332 250.617 209.422 250.617 205.721 250.714C192.072 250.867 178.538 253.218 165.639 257.676C159.749 259.782 153.957 264.107 147.408 271.454C144.415 274.782 141.647 278.271 138.96 281.647C137.576 283.4 136.225 285.088 134.905 286.679C120.954 303.561 107.921 322.275 95.3701 340.33L93.761 342.581C89.4648 348.771 84.8789 355.347 80.3252 361.746C80.5022 362.099 80.6953 362.437 80.8884 362.791C82.7549 366.344 84.541 369.688 87.3247 371.44C90.5429 373.418 94.6621 373.611 98.717 373.804C102.466 373.981 105.99 374.141 108.87 375.588C112.282 377.576 115.246 380.247 117.575 383.434C117.671 383.313 117.791 383.214 117.929 383.145C119.394 382.502 123.883 379.222 136.997 367.164C156.901 348.835 186.718 319.446 202.712 303.561L206.171 300.104C206.26 300.012 206.366 299.939 206.484 299.889C206.601 299.839 206.728 299.814 206.855 299.814C206.983 299.814 207.109 299.839 207.227 299.889C207.344 299.939 207.451 300.012 207.539 300.104C207.717 300.287 207.817 300.532 207.817 300.787C207.817 301.043 207.717 301.288 207.539 301.471L205.254 303.738C218.514 307.241 232.013 309.766 245.642 311.294C247.042 277.338 221.168 253.367 218.159 250.714Z" fill="#FDC8B4"/>
<path d="M85.9734 128.782L86.7297 128.91C87.6518 129.037 88.5831 129.086 89.5134 129.055L78.9578 119.264C78.4991 119.518 78.097 119.863 77.7761 120.277C77.4552 120.692 77.2222 121.168 77.0913 121.675C77.0672 121.862 77.0672 122.051 77.0913 122.238C77.1396 125.1 81.0496 127.897 85.9734 128.782Z" fill="#FDC8B4"/>
<path d="M114.035 156.676C114.169 157.646 114.629 158.541 115.339 159.216C117.138 160.854 119.503 161.73 121.936 161.66C123.304 161.695 124.665 161.46 125.942 160.968C128.436 160.02 129.997 158.235 130.013 156.322C130.029 154.409 128.195 152.319 125.444 151.402C124.011 154.505 119.506 156.676 114.035 156.676Z" fill="#FDC8B4"/>
<path d="M108.999 149.666C107.296 149.652 105.604 149.386 103.979 148.878C103.971 149.001 103.971 149.124 103.979 149.248C103.979 152.013 108.05 154.457 113.15 154.73H114.035C119.007 154.73 123.352 152.64 123.947 149.907C123.969 149.709 123.969 149.51 123.947 149.312C123.947 147.463 122.032 145.646 119.12 144.649C117.35 147.72 113.456 149.666 108.999 149.666Z" fill="#FDC8B4"/>
<path d="M101.163 145.646C101.972 146.075 102.811 146.446 103.673 146.756C105.377 147.393 107.18 147.725 108.999 147.736C113.682 147.736 116.803 145.389 117.721 143.202C117.974 142.642 118.072 142.024 118.004 141.413C117.936 140.802 117.705 140.221 117.334 139.73C115.886 137.688 112.041 136.627 106.232 136.627C103.734 136.628 101.239 136.805 98.7656 137.157C98.6183 137.179 98.4678 137.168 98.3256 137.123C98.1834 137.079 98.0533 137.002 97.945 136.9L95.8693 134.971C95.0668 136.136 94.7178 137.554 94.8878 138.958C95.2578 141.353 97.3657 143.604 101.163 145.646Z" fill="#FDC8B4"/>
<path d="M256.407 142.093L251.242 142.704C221.04 146.305 189.824 150.035 165.736 125.967C162.219 122.5 159.074 118.674 156.355 114.552C152.75 109.263 150.932 106.514 137.046 102.124C132.379 100.259 125.09 97.3815 123.352 96.7705C123.184 97.0604 123.085 97.3849 123.063 97.7191C122.95 98.941 123.385 101.658 127.52 106.144C132.314 111.231 137.373 116.061 142.677 120.614C142.776 120.695 142.857 120.796 142.915 120.91C142.974 121.024 143.009 121.149 143.018 121.276C143.027 121.404 143.01 121.532 142.968 121.653C142.926 121.774 142.86 121.885 142.774 121.98C142.774 121.98 137.528 128.041 138.478 135.325C139.121 140.148 142.307 144.537 147.971 148.299C149.304 149.179 150.685 149.984 152.107 150.711C152.332 150.831 152.502 151.034 152.581 151.277C152.659 151.52 152.639 151.784 152.525 152.013C152.442 152.171 152.317 152.302 152.163 152.393C152.01 152.484 151.834 152.53 151.656 152.527C151.506 152.528 151.358 152.495 151.222 152.431C149.918 151.756 148.728 151.064 147.601 150.341L138.494 160.132C142.098 162.013 145.735 163.83 149.355 165.534C200.266 189.409 238.176 187.512 265.853 186.114C269.73 185.921 273.399 185.744 276.891 185.647C284.73 173.532 289.684 159.781 291.373 145.453C291.693 142.786 291.86 140.102 291.871 137.415C287.012 138.047 282.158 138.701 277.309 139.376C270.438 140.309 263.326 141.289 256.407 142.093Z" fill="#FDC8B4"/>
<path d="M494.551 267.338C494.402 259.155 493.323 251.016 491.333 243.077H490.174C481.421 242.82 451.701 244.122 434.902 271.791C436.073 276.381 436.859 281.059 437.251 285.779C453.165 271.84 466.054 274.074 466.601 274.171C466.726 274.194 466.845 274.242 466.951 274.311C467.057 274.38 467.149 274.469 467.22 274.574C467.292 274.678 467.343 274.796 467.369 274.92C467.395 275.044 467.397 275.172 467.373 275.296C467.35 275.421 467.303 275.54 467.233 275.646C467.164 275.752 467.075 275.844 466.97 275.915C466.866 275.987 466.748 276.037 466.624 276.064C466.5 276.09 466.372 276.091 466.247 276.068C466.118 276.068 452.908 273.833 437.09 288.512C436.479 289.059 435.884 289.654 435.272 290.248C418.57 306.776 380.628 324.462 361.737 320.523C360.675 320.33 357.554 320.04 355.961 321.117C355.706 321.284 355.489 321.502 355.323 321.756C355.157 322.011 355.045 322.297 354.995 322.597C354.255 326.552 359.227 329.028 362.107 329.815C367.262 329.105 372.323 327.833 377.201 326.021C377.289 325.916 377.4 325.831 377.525 325.772C377.65 325.714 377.787 325.684 377.925 325.683C378.181 325.683 378.426 325.785 378.607 325.966C378.788 326.147 378.89 326.392 378.89 326.648C378.89 328.931 362.381 331.729 362.22 331.745C355.134 332.96 347.936 333.397 340.755 333.047C340.642 333.047 335.767 332.516 333.514 334.526C333.153 334.846 332.868 335.244 332.681 335.689C332.495 336.135 332.411 336.616 332.436 337.099C332.436 340.523 334.56 342.292 338.76 342.388H340.578H340.771C346 342.066 367.433 340.507 367.659 340.491C367.914 340.477 368.164 340.564 368.356 340.732C368.549 340.9 368.668 341.137 368.688 341.391C368.697 341.518 368.681 341.645 368.64 341.766C368.6 341.886 368.536 341.997 368.452 342.093C368.368 342.188 368.266 342.266 368.152 342.323C368.038 342.379 367.914 342.412 367.787 342.42C367.578 342.42 346 344.028 340.867 344.317H339.725H338.888C336.974 344.398 334.705 344.478 332.951 344.317C332.854 344.317 328.22 343.819 325.903 345.925C325.474 346.319 325.137 346.803 324.917 347.342C324.697 347.881 324.6 348.463 324.632 349.044C324.589 349.671 324.675 350.3 324.886 350.891C325.096 351.483 325.426 352.026 325.855 352.485C327.464 353.98 330.231 353.819 331.422 353.755H331.905C332.114 353.755 334.013 353.626 337.553 353.353C338.543 353.196 339.543 353.11 340.546 353.096C351.327 352.26 368.222 350.877 368.222 350.877L368.383 352.806C368.383 352.806 351.455 354.189 340.69 355.025L337.826 355.266C334.496 355.781 330.602 357.195 330.891 361.086C330.903 361.489 331 361.884 331.174 362.247C331.349 362.61 331.598 362.932 331.905 363.192C332.565 363.739 334.206 364.607 337.875 364.205C341.543 363.803 345.679 363.401 349.54 362.935C364.022 361.118 375.157 359.012 375.286 358.98C375.41 358.957 375.538 358.958 375.662 358.985C375.787 359.011 375.904 359.061 376.009 359.133C376.113 359.204 376.203 359.296 376.272 359.402C376.341 359.508 376.389 359.627 376.412 359.752C376.435 359.876 376.434 360.004 376.408 360.128C376.381 360.252 376.331 360.37 376.259 360.474C376.187 360.579 376.096 360.668 375.99 360.737C375.883 360.806 375.764 360.854 375.64 360.877C375.543 360.877 364.376 363.032 349.814 364.848C348.382 365.106 343.828 366.167 343.925 369.238C343.923 369.615 344.007 369.988 344.172 370.328C344.336 370.668 344.577 370.966 344.874 371.199C347.175 373.064 352.742 372.55 353.981 372.324C358.406 371.504 363.008 370.492 367.626 369.334C375.962 367.212 381.159 365.395 381.207 365.379C445.297 347.163 473.584 320.362 484.751 306.069C487.371 302.831 489.592 299.29 491.365 295.522C493.284 287.81 494.363 279.912 494.583 271.968V271.647C494.583 270.811 494.583 270.039 494.583 269.38C494.583 268.721 494.567 268.013 494.551 267.338Z" fill="#FDC8B4"/>
<path d="M383.074 175.664C396.478 183.397 409.544 183.703 421.917 176.339C427.849 172.731 433.016 167.995 437.123 162.4C432.457 158.461 428.804 155.76 427.002 154.474C426.868 156.772 426.895 159.076 427.082 161.371C427.093 161.498 427.079 161.625 427.041 161.747C427.002 161.868 426.94 161.98 426.858 162.077C426.775 162.174 426.675 162.254 426.561 162.312C426.448 162.371 426.324 162.406 426.197 162.416H426.117C425.877 162.417 425.645 162.329 425.466 162.168C425.288 162.008 425.176 161.786 425.152 161.548C424.902 158.595 424.902 155.626 425.152 152.673C425.582 146.748 427.225 140.975 429.979 135.711C431.308 133.152 432.969 130.779 434.919 128.653C432.71 126.871 431.159 124.404 430.51 121.643C430.472 121.516 430.461 121.382 430.478 121.25C430.494 121.118 430.538 120.991 430.606 120.876C430.674 120.762 430.764 120.663 430.873 120.586C430.981 120.508 431.104 120.454 431.234 120.426C431.364 120.398 431.498 120.398 431.629 120.424C431.759 120.451 431.883 120.504 431.991 120.581C432.1 120.657 432.192 120.755 432.261 120.869C432.33 120.983 432.375 121.109 432.392 121.241C433.04 123.896 434.651 126.217 436.914 127.753C441.516 130.968 447.469 130.373 450.189 126.466C450.775 125.598 451.183 124.623 451.39 123.596C451.597 122.57 451.599 121.513 451.396 120.486C450.772 117.695 449.119 115.242 446.766 113.615C444.413 111.988 441.533 111.307 438.7 111.707C438.41 111.707 438.089 111.836 437.767 111.916C437.58 111.962 437.384 111.952 437.203 111.886C437.023 111.82 436.866 111.702 436.753 111.546C436.64 111.37 424.942 94.6971 450.269 74.8896C444.284 72.9924 425.409 65.9344 415.465 49.8086C414.033 51.0626 410.284 54.3907 405.682 59.021C405.591 59.1108 405.483 59.1813 405.364 59.2282C405.245 59.2752 405.118 59.2977 404.99 59.2944C404.831 60.9845 404.425 62.6422 403.783 64.2141C405.81 64.9697 410.461 67.2367 411.828 72.1242C416.318 69.5518 421.306 69.1177 424.926 71.4008C430.494 74.97 430.671 83.0088 425.184 90.115C420.357 96.5461 412.778 99.44 407.275 97.1088C406.777 96.8863 406.294 96.6339 405.827 96.3531C404.4 95.3909 403.257 94.0651 402.516 92.5132C401.775 90.9614 401.462 89.2397 401.611 87.5266C401.938 83.9109 403.314 80.4692 405.569 77.6228C406.854 75.9374 408.384 74.4527 410.107 73.2175C410.107 73.0889 410.107 72.9603 410.107 72.8477C409.077 68.6354 404.909 66.6579 403.172 66.0148H403.059C402.48 67.1957 401.802 68.3252 401.031 69.3911C397.813 73.9732 393.437 76.9154 389.494 77.5585C389.531 77.801 389.473 78.0482 389.333 78.2498C379.55 91.8997 375.608 103.443 377.619 112.591C378.987 118.813 383.203 123.958 390.154 127.881C394.475 130.242 399.075 132.052 403.847 133.267C403.969 133.299 404.084 133.355 404.184 133.431C404.285 133.507 404.369 133.603 404.432 133.712C404.495 133.822 404.535 133.942 404.551 134.067C404.567 134.193 404.557 134.319 404.523 134.441C404.47 134.648 404.349 134.831 404.18 134.962C404.011 135.093 403.804 135.164 403.59 135.164H403.332C398.612 133.966 394.053 132.206 389.752 129.923C386.382 133.418 383.899 137.669 382.511 142.319C381.878 144.424 381.404 146.574 381.095 148.75C381.064 148.979 380.95 149.188 380.775 149.339C380.6 149.49 380.377 149.572 380.146 149.57H380.017C379.891 149.552 379.77 149.51 379.661 149.445C379.551 149.381 379.456 149.295 379.379 149.193C379.303 149.092 379.248 148.976 379.216 148.853C379.185 148.73 379.178 148.602 379.196 148.477C379.478 146.477 379.903 144.499 380.467 142.56C377.758 141.235 374.95 140.122 372.068 139.232C370.008 144.941 369.314 151.053 370.041 157.078C370.583 160.987 372.048 164.71 374.314 167.942C376.58 171.173 379.583 173.82 383.074 175.664Z" fill="#FDC8B4"/>
<path d="M354.883 319.525C357.474 317.756 361.915 318.592 362.108 318.625C379.003 322.146 415.867 306.824 433.873 288.817C434.372 288.302 434.886 287.82 435.385 287.354C435.066 282.097 434.231 276.884 432.891 271.791C430.197 261.837 426.42 252.208 421.628 243.076C416.8 252.015 394.064 285.987 373.033 302.66C391.747 297.258 406.824 290.183 416.704 282.064C416.902 281.902 417.157 281.826 417.412 281.851C417.667 281.877 417.901 282.003 418.064 282.201C418.226 282.399 418.302 282.654 418.277 282.908C418.251 283.163 418.125 283.397 417.927 283.559C406.937 292.563 389.864 300.296 368.544 305.907C364.843 306.904 360.853 307.853 356.363 308.801C333.62 313.42 310.462 315.699 287.253 315.602C273.63 315.622 260.016 314.865 246.479 313.335C232.032 311.76 217.727 309.072 203.694 305.296C187.893 320.988 159.171 349.285 139.411 367.549C147.811 371.102 156.596 374.333 165.591 377.195C168.384 376.683 171.242 376.624 174.055 377.018C177.852 377.613 181.424 379.719 185.206 381.954L187.33 383.192C190.463 385.198 193.972 386.543 197.644 387.147C201.361 387.565 205.383 386.295 209.631 384.945C213.879 383.594 218.401 382.163 222.858 382.469C226.881 382.758 230.903 384.671 234.749 386.52C238.595 388.369 243.02 390.491 247.22 390.604C251.113 390.732 255.072 388.996 259.271 387.388C263.471 385.781 267.655 383.932 271.983 383.867C276.312 383.803 280.254 385.379 284.293 386.906C288.331 388.433 292.821 390.121 296.924 389.864C301.027 389.607 304.728 387.613 308.799 385.491C312.87 383.369 316.732 381.343 320.964 380.877C325.195 380.411 329.395 381.568 333.563 382.694C337.73 383.819 342.332 385.041 346.435 384.382C350.539 383.723 354.062 381.279 357.94 378.69C361.158 376.262 364.736 374.353 368.544 373.031L368.094 371.246C363.427 372.42 358.793 373.433 354.32 374.269C353.112 374.459 351.89 374.55 350.667 374.542C348.192 374.702 345.729 374.072 343.636 372.742C343.13 372.333 342.724 371.815 342.445 371.228C342.167 370.641 342.024 369.999 342.026 369.349C342.005 368.645 342.137 367.945 342.415 367.298C342.693 366.651 343.11 366.072 343.636 365.603L338.133 366.166C337.475 366.24 336.815 366.278 336.153 366.278C334.196 366.412 332.256 365.842 330.682 364.671C330.178 364.244 329.766 363.719 329.472 363.127C329.179 362.535 329.01 361.89 328.977 361.23C328.872 360.178 329.042 359.117 329.471 358.15C329.9 357.184 330.572 356.345 331.423 355.716H330.345C328.273 355.841 326.229 355.188 324.616 353.883C323.988 353.253 323.5 352.498 323.184 351.667C322.868 350.836 322.731 349.947 322.782 349.059C322.746 348.203 322.901 347.35 323.235 346.56C323.569 345.771 324.073 345.065 324.713 344.493C327.271 342.21 331.567 342.339 332.758 342.435C332.007 341.775 331.414 340.953 331.024 340.032C330.634 339.11 330.457 338.113 330.505 337.114C330.482 336.359 330.623 335.608 330.921 334.914C331.218 334.219 331.664 333.598 332.227 333.094C335.124 330.522 340.691 331.117 340.916 331.149C346.704 331.422 352.505 331.163 358.246 330.377C354.931 328.625 352.437 325.779 353.097 322.339C353.184 321.772 353.387 321.229 353.695 320.745C354.002 320.26 354.407 319.845 354.883 319.525Z" fill="#FBC22D"/>
<path d="M188.954 217.738C190.724 217.942 192.494 218.167 194.264 218.413C203.629 219.683 213.396 221.356 222.842 222.963L227.669 223.799C235.579 225.133 243.329 227.288 250.791 230.23C252.755 230.053 273.125 227.77 291.018 203.204C294.237 198.75 297.728 194.393 301.333 190.245C294.253 187.593 285.676 187.4 277.422 187.625C273.801 187.737 269.956 187.93 265.901 188.123C238.08 189.522 200.025 191.435 148.856 167.544C88.3065 190.599 52.1505 228.639 52.1505 269.476C52.1183 287.483 59.0052 304.911 72.5215 321.245C87.679 288.833 107.921 247.691 119.973 232.433C134.616 213.831 163.064 214.571 188.954 217.738Z" fill="#FBC22D"/>
<path d="M388.464 101.578C387.891 101.825 387.263 101.92 386.643 101.852C386.022 101.784 385.43 101.557 384.924 101.192C384.429 100.824 384.038 100.335 383.79 99.7711C383.542 99.2074 383.445 98.5889 383.508 97.9762C383.527 97.7204 383.444 97.4674 383.276 97.2729C383.109 97.0785 382.871 96.9584 382.615 96.9392C382.359 96.92 382.105 97.0033 381.911 97.1706C381.716 97.338 381.596 97.5757 381.577 97.8315C381.486 98.7744 381.642 99.7247 382.028 100.59C382.414 101.455 383.018 102.205 383.781 102.767C384.713 103.453 385.842 103.819 386.999 103.812C387.755 103.81 388.504 103.663 389.204 103.378C389.321 103.33 389.428 103.259 389.517 103.169C389.607 103.079 389.678 102.973 389.727 102.855C389.776 102.738 389.8 102.613 389.8 102.486C389.8 102.359 389.775 102.233 389.727 102.116C389.678 101.999 389.607 101.893 389.517 101.803C389.427 101.713 389.321 101.642 389.204 101.594C389.086 101.545 388.961 101.52 388.834 101.52C388.707 101.52 388.581 101.545 388.464 101.594V101.578Z" fill="#321951"/>
<path d="M398.746 75.42L388.915 87.3335C388.83 87.4327 388.766 87.5485 388.728 87.6735C388.69 87.7985 388.678 87.9301 388.693 88.0599C388.708 88.1897 388.75 88.315 388.816 88.428C388.882 88.5409 388.97 88.639 389.076 88.7161C390.057 89.4718 393.356 91.9316 395.255 91.9316H395.367C395.494 91.9255 395.618 91.8943 395.733 91.8401C395.848 91.7858 395.951 91.7094 396.036 91.6153C396.121 91.5212 396.187 91.4113 396.23 91.2917C396.272 91.1722 396.291 91.0455 396.284 90.9188C396.264 90.6643 396.145 90.4278 395.952 90.2597C395.76 90.0916 395.51 90.005 395.255 90.0184C393.749 89.5358 392.347 88.778 391.119 87.7836L400.291 76.658C400.375 76.5611 400.439 76.4481 400.478 76.3259C400.517 76.2038 400.531 76.0749 400.519 75.9471C400.507 75.8194 400.469 75.6954 400.408 75.5827C400.347 75.47 400.263 75.3709 400.162 75.2914C400.063 75.2016 399.947 75.1334 399.82 75.091C399.693 75.0485 399.559 75.0329 399.426 75.045C399.293 75.0571 399.164 75.0966 399.047 75.1612C398.93 75.2257 398.827 75.3139 398.746 75.42Z" fill="#321951"/>
<path d="M101.05 394.672C98.9312 391.756 96.237 389.305 93.1338 387.469C90.313 386.336 87.2909 385.789 84.2516 385.861C80.7277 385.684 77.0751 385.508 74.3719 383.819C72.0065 382.308 70.4618 379.398 68.8366 376.311C67.5009 373.323 65.5932 370.625 63.221 368.369C60.6796 366.639 57.8274 365.416 54.8216 364.768C53.9366 364.494 53.0355 364.237 52.1666 363.948C51.9212 363.871 51.6556 363.894 51.4269 364.012C51.1983 364.129 51.0248 364.331 50.9437 364.575C50.8671 364.816 50.8883 365.077 51.0027 365.302C51.117 365.528 51.3154 365.7 51.5551 365.78L54.2745 366.616C57.0524 367.216 59.6902 368.34 62.0463 369.928C64.2142 372.025 65.9571 374.52 67.1793 377.276C68.7884 380.491 70.5905 383.707 73.3903 385.508C76.6085 387.485 80.422 387.662 84.2034 387.839C86.9485 387.769 89.681 388.233 92.2488 389.205C95.1098 390.927 97.5944 393.207 99.554 395.91L101.05 397.678C101.142 397.779 101.254 397.86 101.379 397.915C101.503 397.971 101.638 397.999 101.775 398C102.011 397.998 102.239 397.913 102.418 397.759C102.508 397.67 102.579 397.565 102.627 397.449C102.676 397.333 102.701 397.209 102.701 397.083C102.701 396.958 102.676 396.833 102.627 396.717C102.579 396.602 102.508 396.496 102.418 396.408L101.05 394.672Z" fill="#321951"/>
<path d="M452.57 347.838L454.372 345.635L454.517 345.507C456.333 343.2 458.505 341.197 460.953 339.574L461.388 339.349C464.841 337.753 468.521 336.701 472.297 336.23C476.996 335.378 481.855 334.494 485.572 331.793C485.778 331.641 485.917 331.415 485.96 331.163C486.002 330.911 485.943 330.652 485.797 330.442C485.722 330.339 485.628 330.253 485.519 330.187C485.411 330.121 485.29 330.077 485.165 330.057C485.039 330.038 484.911 330.043 484.788 330.073C484.664 330.104 484.548 330.158 484.446 330.233C481.083 332.661 476.4 333.449 471.943 334.333C469.578 334.745 467.236 335.281 464.927 335.941C473.216 327.357 480.351 317.731 486.151 307.306V307.226C488.909 303.873 491.228 300.183 493.054 296.245C495.028 288.35 496.134 280.263 496.353 272.129C496.353 272.129 496.353 272.032 496.353 271.984C496.353 271.936 496.353 271.904 496.353 271.855C496.36 271.807 496.36 271.759 496.353 271.711H496.449C496.449 270.987 496.449 270.264 496.449 269.524C496.449 268.785 496.449 268.109 496.449 267.418C496.287 258.959 495.142 250.548 493.038 242.353C493.033 242.158 492.972 241.968 492.861 241.806C482.965 203.654 454.855 175.245 438.941 161.692C432.762 156.435 428.208 153.219 427.018 152.399C427.476 147.289 428.89 142.31 431.185 137.72C437.057 141.471 443.863 143.503 450.832 143.589C468.87 143.589 482.354 129.408 485.218 126.128C490.592 129.682 491.059 132.672 491.059 132.688C491.08 132.892 491.167 133.084 491.306 133.235C491.445 133.385 491.629 133.487 491.831 133.524C492.033 133.568 492.243 133.547 492.431 133.463C492.619 133.379 492.775 133.237 492.877 133.058C503.191 114.504 506.039 98.4268 501.309 85.3075C497.994 76.1782 491.237 68.706 482.483 64.487C483.609 61.6413 486.521 52.7022 482.933 44.1489C480.326 37.9912 474.888 33.4252 466.842 30.5795C441.725 21.7207 438.04 1.0289 438.008 0.819896C437.986 0.665776 437.927 0.519253 437.836 0.393238C437.745 0.267223 437.624 0.165585 437.484 0.0972815C437.344 0.0289777 437.189 -0.00389487 437.034 0.00155985C436.878 0.00701456 436.726 0.0506294 436.592 0.128561C419.374 9.7751 419.535 22.9587 420.292 27.8302C416.434 26.4489 413.236 23.6722 411.329 20.0487C411.242 19.8537 411.096 19.6913 410.911 19.5844C410.726 19.4776 410.512 19.4319 410.299 19.4538C410.089 19.4857 409.894 19.584 409.743 19.7345C409.593 19.8849 409.494 20.0795 409.462 20.2898C408.102 29.8627 409.856 39.6192 414.467 48.1201C413.308 49.1169 409.639 52.3806 404.925 57.0431C404.847 55.86 404.508 54.7087 403.932 53.6719C403.356 52.6351 402.558 51.7385 401.594 51.0462C396.944 47.9271 389.188 51.0462 384.184 58.1042C382.041 61.0117 380.669 64.4128 380.193 67.9919C379.888 71.7541 381.03 74.7284 383.411 76.4166C383.805 76.6714 384.219 76.8919 384.65 77.0758C385.444 77.406 386.287 77.6016 387.145 77.6546C377.313 91.4973 373.403 103.379 375.511 113.025C376.927 119.456 381.143 124.826 387.965 128.958C384.8 132.32 382.406 136.33 380.95 140.711C378.01 139.241 374.953 138.02 371.81 137.061C361.641 134.039 350.763 133.283 339.628 132.72C323.119 131.868 306.642 133.572 292.724 135.341C287.494 136 282.265 136.724 277.051 137.447C270.213 138.396 263.165 139.376 256.262 140.18L251.097 140.791C221.361 144.344 190.595 148.01 167.183 124.601C163.746 121.221 160.677 117.486 158.028 113.459C154.295 107.977 152.235 104.97 137.721 100.308C123.963 94.8254 123.513 94.7772 123.336 94.7611C122.948 94.7666 122.572 94.8915 122.258 95.1189C121.944 95.3462 121.708 95.6648 121.582 96.0312C121.27 96.7634 121.11 97.5508 121.11 98.3464C121.11 99.142 121.27 99.9294 121.582 100.662L105.121 85.3718C103.932 84.3222 102.378 83.7826 100.793 83.8699C99.2094 83.9571 97.7235 84.6642 96.6573 85.838L94.3081 88.3783L78.3621 105.469L75.9002 108.089C74.8044 109.302 74.2269 110.894 74.2911 112.527C74.3148 113.283 74.4876 114.028 74.7996 114.717C75.1116 115.407 75.5567 116.029 76.1094 116.546L77.5898 117.929C76.409 118.719 75.5791 119.935 75.2727 121.321C75.2336 121.652 75.2336 121.987 75.2727 122.318C75.3692 126.08 79.7781 129.601 85.7639 130.694L86.6167 130.823C87.4747 130.945 88.3406 131.004 89.2073 131C89.9884 130.999 90.7683 130.94 91.5405 130.823L94.5816 133.653C93.373 135.239 92.8409 137.239 93.1013 139.216C93.5518 142.27 95.9976 144.987 100.374 147.254C100.983 147.588 101.612 147.883 102.257 148.139C102.173 148.475 102.129 148.821 102.128 149.168C102.128 152.865 106.344 155.92 112.233 156.499C112.339 158.018 113.004 159.444 114.1 160.502C116.261 162.493 119.11 163.57 122.049 163.509H122.193C123.543 163.507 124.884 163.296 126.168 162.882L127.053 163.702C128.113 164.721 129.524 165.296 130.995 165.309C131.841 165.308 132.679 165.135 133.456 164.801C134.233 164.466 134.934 163.978 135.517 163.364L137.126 161.579C140.247 163.187 143.401 164.795 146.539 166.306C86.134 189.731 50.1871 228.157 50.1871 269.396C50.1871 288.206 57.428 306.294 71.6683 323.143C65.6826 336.005 61.338 345.651 60.26 348.047C58.1239 347.351 56.1792 346.167 54.5799 344.59C52.2789 342.098 51.4905 338.272 50.6538 334.22C50.1507 330.638 48.9829 327.181 47.2103 324.027C47.0632 323.829 46.8457 323.695 46.6027 323.652C46.3596 323.609 46.1094 323.661 45.9034 323.797C45.6974 323.933 45.5513 324.142 45.4951 324.383C45.4389 324.623 45.4769 324.875 45.6012 325.088C47.2438 328.045 48.3343 331.276 48.8194 334.622C49.6722 338.738 50.5572 342.999 53.2283 345.876C55.2507 347.894 57.7451 349.375 60.4852 350.185C61.7242 350.619 63.0115 350.989 64.2827 351.359C67.4935 352.056 70.5413 353.36 73.2613 355.201C75.3553 357.13 77.0642 359.438 78.2977 362.002C78.3255 362.077 78.3634 362.147 78.4104 362.211L79.1988 363.69C81.1136 367.308 83.1089 371.054 86.2788 373.064C89.8509 375.315 94.3242 375.524 98.6204 375.733C102.144 375.893 105.475 376.054 107.985 377.34C111.348 378.948 113.971 382.164 116.385 385.058C118.798 387.951 121.341 390.958 124.43 392.148C127.306 393.244 130.363 393.789 133.441 393.755C136.355 393.7 139.257 393.383 142.114 392.807C143.556 392.426 145.051 392.285 146.539 392.389C146.786 392.46 147.052 392.433 147.28 392.313C147.508 392.193 147.68 391.99 147.762 391.746C147.799 391.624 147.812 391.497 147.8 391.37C147.787 391.244 147.75 391.121 147.69 391.009C147.631 390.897 147.549 390.798 147.451 390.718C147.353 390.637 147.24 390.577 147.118 390.54C145.336 390.292 143.522 390.418 141.792 390.91C137.351 391.698 131.301 392.759 125.138 390.363C122.64 389.068 120.48 387.207 118.83 384.929C121.212 383.836 127.455 378.626 137.898 369.044C145.509 372.26 153.49 375.298 161.648 377.935L159.894 378.321C155.743 379.221 151.849 380.09 148.631 379.398C148.506 379.372 148.377 379.37 148.252 379.393C148.127 379.417 148.007 379.465 147.9 379.534C147.794 379.603 147.701 379.693 147.629 379.798C147.557 379.903 147.507 380.021 147.48 380.146C147.454 380.27 147.452 380.399 147.475 380.524C147.499 380.649 147.546 380.769 147.616 380.875C147.685 380.982 147.775 381.074 147.88 381.146C147.985 381.218 148.104 381.269 148.228 381.295C151.881 382.067 156.016 381.167 160.377 380.202C162.115 379.816 163.917 379.43 165.558 379.141H165.751C168.406 378.656 171.121 378.591 173.797 378.948C177.208 379.479 180.635 381.488 184.256 383.627C184.964 384.045 185.688 384.479 186.412 384.881C189.75 386.978 193.477 388.384 197.37 389.013C201.505 389.479 205.914 388.08 210.242 386.73C214.571 385.379 218.658 384.061 222.745 384.35C226.397 384.607 230.05 386.36 233.928 388.225C238.176 390.251 242.569 392.357 247.187 392.485H247.589C251.757 392.485 255.956 390.749 260.027 389.077C264.098 387.405 268.073 385.765 272.031 385.701C276.038 385.991 279.963 386.976 283.632 388.611C288.009 390.218 292.531 391.987 297.068 391.698C301.606 391.408 305.645 389.238 309.716 387.099C313.465 385.138 317.327 383.112 321.204 382.694C325.082 382.276 328.896 383.337 333.079 384.463C337.601 385.668 342.267 386.923 346.708 386.183C351.149 385.443 355.092 382.791 358.953 380.202C362.003 377.898 365.39 376.076 368.994 374.8L369.718 374.623C373.387 373.787 377.426 374.366 381.706 374.977C386.34 375.652 391.151 376.343 395.48 374.977C399.808 373.61 403.445 370.475 406.968 367.372C410.074 364.655 413.26 361.825 416.8 360.491C420.34 359.157 424.572 359.157 428.691 359.141C430.686 359.141 432.746 359.14 434.677 358.98C434.757 358.995 434.838 358.995 434.918 358.98C437.49 358.856 440.016 358.257 442.368 357.211C446.439 355.314 449.561 351.504 452.57 347.838ZM494.551 267.322C494.551 267.997 494.551 268.704 494.551 269.379C494.551 270.055 494.551 270.81 494.551 271.646V271.968C494.33 279.912 493.251 287.809 491.332 295.522C489.561 299.22 487.357 302.695 484.767 305.876C473.6 320.217 445.313 346.97 381.223 365.186C381.223 365.186 375.978 367.018 367.643 369.141C363.024 370.298 358.422 371.311 353.997 372.131C352.759 372.356 347.191 372.871 344.89 371.006C344.593 370.773 344.352 370.475 344.188 370.135C344.023 369.795 343.939 369.422 343.941 369.044C343.844 365.973 348.398 364.912 349.83 364.655C364.392 362.838 375.575 360.7 375.656 360.684C375.78 360.661 375.899 360.613 376.006 360.544C376.112 360.475 376.203 360.386 376.275 360.281C376.347 360.177 376.397 360.059 376.424 359.935C376.45 359.811 376.451 359.683 376.428 359.559C376.405 359.434 376.357 359.315 376.288 359.209C376.219 359.103 376.129 359.011 376.025 358.94C375.92 358.868 375.803 358.818 375.679 358.791C375.554 358.765 375.426 358.764 375.302 358.787C375.189 358.787 364.038 360.925 349.556 362.742C345.695 363.208 341.785 363.642 337.891 364.012C333.997 364.382 332.581 363.546 331.921 362.999C331.614 362.738 331.365 362.416 331.19 362.053C331.016 361.691 330.919 361.295 330.907 360.893C330.618 357.002 334.512 355.587 337.842 355.073L340.707 354.832C351.471 353.996 368.399 352.613 368.399 352.613L368.238 350.684C368.238 350.684 351.343 352.066 340.562 352.902C339.559 352.916 338.559 353.002 337.569 353.16C334.029 353.433 332.13 353.562 331.921 353.562H331.438C330.247 353.562 327.464 353.787 325.871 352.291C325.442 351.832 325.112 351.29 324.902 350.698C324.691 350.106 324.605 349.477 324.648 348.851C324.616 348.269 324.713 347.688 324.933 347.149C325.153 346.609 325.49 346.125 325.919 345.732C328.236 343.674 332.87 344.124 332.967 344.124C334.721 344.237 336.99 344.124 338.904 344.124H339.741H340.884C346.016 343.802 367.594 342.243 367.803 342.227C367.93 342.219 368.054 342.186 368.168 342.129C368.282 342.073 368.384 341.995 368.468 341.899C368.552 341.804 368.616 341.693 368.656 341.572C368.697 341.452 368.713 341.325 368.705 341.198C368.684 340.943 368.565 340.707 368.373 340.539C368.18 340.371 367.93 340.284 367.675 340.298C367.449 340.298 346.016 341.905 340.787 342.195H340.594H338.776C334.576 342.098 332.452 340.33 332.452 336.905C332.427 336.423 332.511 335.941 332.697 335.496C332.884 335.051 333.169 334.653 333.53 334.333C335.783 332.323 340.658 332.854 340.771 332.854C347.952 333.204 355.15 332.767 362.236 331.551C362.397 331.551 378.906 328.738 378.906 326.455C378.906 326.199 378.804 325.954 378.623 325.773C378.442 325.592 378.197 325.49 377.941 325.49C377.803 325.49 377.666 325.521 377.541 325.579C377.416 325.637 377.305 325.722 377.217 325.828C372.339 327.64 367.278 328.912 362.123 329.622C359.243 328.818 354.271 326.407 355.011 322.403C355.061 322.104 355.173 321.817 355.339 321.563C355.505 321.308 355.722 321.091 355.977 320.924C357.586 319.847 360.691 320.136 361.753 320.329C380.644 324.268 418.586 306.647 435.24 289.991C435.851 289.396 436.447 288.801 437.058 288.255C452.875 273.576 466.022 275.794 466.215 275.81C466.467 275.857 466.727 275.802 466.938 275.658C467.149 275.513 467.294 275.29 467.341 275.039C467.388 274.787 467.333 274.527 467.188 274.316C467.043 274.105 466.821 273.96 466.569 273.913C466.022 273.817 453.133 271.582 437.219 285.521C436.826 280.802 436.041 276.123 434.87 271.534C451.669 243.864 481.388 242.594 490.142 242.819H491.3C493.319 250.835 494.41 259.057 494.551 267.322ZM372.067 139.183C374.949 140.074 377.758 141.186 380.467 142.511C379.902 144.451 379.478 146.428 379.196 148.428C379.178 148.554 379.184 148.682 379.216 148.805C379.247 148.928 379.303 149.043 379.379 149.145C379.455 149.246 379.551 149.332 379.66 149.397C379.769 149.461 379.891 149.504 380.016 149.521H380.145C380.376 149.523 380.6 149.441 380.775 149.29C380.949 149.139 381.063 148.93 381.094 148.701C381.404 146.525 381.877 144.375 382.51 142.27C383.899 137.62 386.382 133.369 389.751 129.874C394.009 132.13 398.519 133.873 403.187 135.068H403.445C403.658 135.067 403.866 134.996 404.035 134.865C404.204 134.734 404.324 134.551 404.378 134.344C404.412 134.223 404.421 134.096 404.406 133.971C404.39 133.845 404.349 133.725 404.286 133.615C404.223 133.506 404.139 133.411 404.039 133.334C403.939 133.258 403.824 133.202 403.702 133.17C398.93 131.955 394.329 130.145 390.009 127.784C383.057 123.861 378.842 118.717 377.474 112.495C375.463 103.347 379.405 91.8028 389.188 78.153C389.328 77.9513 389.385 77.7041 389.349 77.4616C393.291 76.8185 397.652 73.8763 400.886 69.2942C401.657 68.2283 402.335 67.0988 402.914 65.9179H403.026C404.764 66.561 408.931 68.5386 409.961 72.7509C409.961 72.8634 409.961 72.9921 409.961 73.1207C408.238 74.3558 406.709 75.8405 405.424 77.5259C403.168 80.3723 401.793 83.8141 401.465 87.4297C401.317 89.1429 401.63 90.8645 402.371 92.4164C403.112 93.9683 404.255 95.294 405.681 96.2563C406.148 96.5371 406.632 96.7894 407.129 97.0119C412.632 99.3432 420.195 96.3849 425.038 90.0182C430.525 82.9119 430.348 74.8731 424.781 71.3039C421.161 69.0209 416.172 69.455 411.683 72.0274C410.331 67.2041 405.681 64.8729 403.638 64.1172C404.279 62.5454 404.686 60.8877 404.844 59.1975C404.972 59.2009 405.099 59.1784 405.218 59.1314C405.337 59.0844 405.445 59.014 405.536 58.9242C410.138 54.2939 413.887 50.9658 415.32 49.7118C425.264 65.7893 444.138 72.8956 450.124 74.7927C424.797 94.6003 436.495 111.273 436.608 111.45C436.721 111.605 436.877 111.723 437.058 111.789C437.239 111.855 437.435 111.866 437.621 111.819C437.943 111.819 438.265 111.659 438.555 111.61C441.388 111.21 444.268 111.891 446.621 113.518C448.974 115.145 450.627 117.598 451.25 120.389C451.454 121.416 451.452 122.473 451.245 123.5C451.037 124.526 450.629 125.501 450.043 126.37C447.324 130.276 441.371 130.839 436.769 127.656C434.506 126.12 432.895 123.8 432.247 121.144C432.229 121.013 432.185 120.886 432.116 120.772C432.047 120.658 431.955 120.56 431.846 120.484C431.737 120.407 431.614 120.354 431.483 120.327C431.353 120.301 431.219 120.301 431.088 120.329C430.958 120.357 430.835 120.411 430.727 120.489C430.619 120.566 430.528 120.665 430.46 120.78C430.392 120.894 430.349 121.021 430.332 121.153C430.316 121.285 430.327 121.419 430.364 121.546C431.014 124.307 432.565 126.774 434.773 128.556C432.824 130.682 431.163 133.055 429.833 135.614C427.08 140.879 425.437 146.652 425.006 152.576C424.757 155.529 424.757 158.498 425.006 161.451C425.03 161.69 425.142 161.911 425.321 162.071C425.499 162.232 425.732 162.32 425.972 162.319H426.052C426.179 162.309 426.303 162.274 426.416 162.216C426.529 162.158 426.63 162.078 426.712 161.98C426.795 161.883 426.857 161.771 426.895 161.65C426.934 161.528 426.948 161.401 426.937 161.274C426.75 158.98 426.723 156.675 426.857 154.377C428.659 155.663 432.311 158.364 436.978 162.303C432.87 167.898 427.704 172.634 421.772 176.242C409.398 183.525 396.332 183.3 382.929 175.567C379.443 173.711 376.45 171.053 374.195 167.813C371.94 164.573 370.488 160.844 369.96 156.933C369.274 150.933 369.995 144.856 372.067 139.183ZM293.223 145.614C293.557 142.808 293.729 139.984 293.737 137.158C307.415 135.437 323.425 133.83 339.467 134.633C350.152 135.18 360.546 135.92 370.217 138.637C368.067 144.593 367.356 150.972 368.141 157.255C368.698 161.455 370.25 165.463 372.668 168.944C375.086 172.425 378.3 175.28 382.044 177.271C388.471 181.196 395.833 183.328 403.364 183.445C410.231 183.393 416.956 181.494 422.834 177.946C428.967 174.251 434.305 169.377 438.539 163.605C454.259 177.159 480.954 204.555 490.769 241.067H490.19C481.324 240.81 451.669 242.112 434.194 269.154C431.294 259.215 427.357 249.606 422.448 240.488C419.02 234.057 416.317 229.893 416.285 229.845C416.141 229.635 415.922 229.49 415.672 229.439C415.423 229.388 415.164 229.435 414.949 229.571C414.736 229.712 414.588 229.932 414.537 230.182C414.485 230.432 414.535 230.693 414.676 230.906C414.676 230.906 417.267 234.845 420.549 241.019C418.683 245.311 391.891 287.531 367.868 304.075C364.424 304.991 360.74 305.876 356.604 306.744C353.627 301.76 331.937 267.916 285.644 255.939C284.228 253.64 275.571 240.874 254.186 231.533C261.25 230.038 277.808 224.507 292.531 204.201C295.958 199.474 299.643 194.86 303.488 190.487C312.95 179.522 323.603 169.643 335.252 161.033C335.465 160.888 335.612 160.664 335.66 160.411C335.709 160.158 335.654 159.895 335.509 159.682C335.364 159.469 335.14 159.322 334.887 159.274C334.633 159.226 334.371 159.28 334.158 159.425C322.61 167.966 312.034 177.746 302.62 188.59C295.62 185.776 287.237 185.374 279.079 185.583C286.708 173.478 291.534 159.822 293.206 145.614H293.223ZM221.104 250.81C234.395 251.244 248.619 252.611 265.643 254.331C272.111 254.98 278.522 256.108 284.823 257.707C329.186 268.961 350.683 300.763 354.641 307.178C332.449 311.559 309.874 313.714 287.253 313.609C274.002 313.62 260.76 312.895 247.589 311.438C248.925 280.216 227.733 257.225 221.087 250.81H221.104ZM196.678 220.697C205.19 221.919 213.991 223.398 222.536 224.877L227.363 225.697C235.212 226.993 242.903 229.111 250.308 232.015C269.778 239.749 279.497 250.81 282.812 255.279C277.202 253.949 271.509 252.993 265.772 252.418C247.718 250.585 232.786 249.202 218.77 248.8C218.657 248.748 218.533 248.721 218.408 248.721C218.283 248.721 218.16 248.748 218.046 248.8C213.718 248.704 210.001 248.704 206.654 248.8C207.587 235.408 200.218 224.925 196.662 220.697H196.678ZM86.7293 128.91L85.9731 128.781C81.0493 127.897 77.1392 125.035 77.0748 122.238C77.0508 122.051 77.0508 121.862 77.0748 121.675C77.2076 121.166 77.4431 120.689 77.7668 120.275C78.0906 119.86 78.4957 119.516 78.9575 119.263L89.4969 129.055C88.572 129.084 87.6461 129.036 86.7293 128.91ZM101.211 145.647C97.4136 143.605 95.3057 141.354 94.9356 138.958C94.7656 137.554 95.1147 136.136 95.9172 134.971L97.9929 136.9C98.1012 137.003 98.2313 137.079 98.3735 137.124C98.5157 137.168 98.6662 137.18 98.8135 137.158C101.297 136.804 103.803 136.627 106.312 136.627C112.121 136.627 115.966 137.688 117.414 139.73C117.785 140.221 118.016 140.802 118.084 141.413C118.152 142.025 118.054 142.643 117.801 143.203C116.883 145.389 113.762 147.737 109.079 147.737C107.26 147.726 105.457 147.394 103.753 146.756C102.864 146.45 101.998 146.079 101.163 145.647H101.211ZM113.15 154.73C108.05 154.457 103.946 152.013 103.979 149.248C103.971 149.125 103.971 149.001 103.979 148.878C105.604 149.387 107.296 149.652 108.999 149.666C113.456 149.666 117.35 147.721 119.072 144.746C122.049 145.743 123.996 147.56 123.899 149.409C123.921 149.606 123.921 149.806 123.899 150.004C123.304 152.672 118.959 154.827 113.987 154.827L113.15 154.73ZM126.023 160.968C124.746 161.46 123.384 161.695 122.016 161.66C119.584 161.73 117.219 160.854 115.419 159.216C114.71 158.541 114.25 157.646 114.116 156.676C119.587 156.676 124.14 154.505 125.524 151.402C128.276 152.319 130.126 154.248 130.094 156.322C130.062 158.396 128.437 160.02 125.943 160.968H126.023ZM134.068 162.046C133.349 162.846 132.343 163.331 131.269 163.398C130.194 163.464 129.137 163.105 128.324 162.399L128.067 162.142C129.187 161.619 130.146 160.804 130.843 159.783C131.539 158.761 131.948 157.572 132.025 156.338C132.025 153.332 129.643 150.679 125.959 149.521C125.966 149.49 125.966 149.456 125.959 149.425C125.959 146.724 123.626 144.264 119.876 142.994C120.054 142.243 120.066 141.463 119.91 140.708C119.755 139.952 119.435 139.24 118.975 138.621C117.044 136.016 112.748 134.746 106.312 134.746C103.869 134.753 101.429 134.914 99.0066 135.228L96.4964 132.897L79.7781 117.382L79.6655 117.286L77.3484 115.131C76.9774 114.791 76.6793 114.379 76.4719 113.92C76.2645 113.462 76.1521 112.966 76.1416 112.462C76.108 111.331 76.5246 110.233 77.3001 109.408L79.7137 106.819L80.1965 107.285C80.6874 107.736 81.3318 107.984 81.9986 107.977C82.3868 107.975 82.7703 107.893 83.1248 107.735C83.4794 107.577 83.7973 107.347 84.0582 107.06L96.2068 94.0537C96.7177 93.5107 96.995 92.7891 96.9792 92.044C96.9487 91.3304 96.6431 90.6564 96.1263 90.1629L95.6275 89.7288L98.0573 87.0921C98.7763 86.2966 99.7785 85.8141 100.849 85.748C101.92 85.6819 102.974 86.0374 103.786 86.7384L126.104 107.495C130.688 112.396 135.522 117.06 140.585 121.466C137.473 125.469 135.99 130.5 136.434 135.55C137.094 140.695 140.296 145.293 145.863 149.248L134.068 162.046ZM138.493 160.132L147.633 150.341C148.759 151.065 149.95 151.756 151.253 152.431C151.389 152.495 151.538 152.528 151.688 152.528C151.866 152.531 152.042 152.484 152.195 152.393C152.348 152.302 152.474 152.171 152.557 152.013C152.671 151.785 152.69 151.52 152.612 151.277C152.534 151.034 152.364 150.831 152.138 150.711C150.716 149.984 149.336 149.179 148.003 148.299C142.339 144.537 139.153 140.164 138.51 135.325C137.56 128.042 142.757 122.045 142.806 121.98C142.892 121.886 142.958 121.774 143 121.653C143.041 121.532 143.058 121.404 143.049 121.277C143.04 121.149 143.006 121.024 142.947 120.91C142.889 120.797 142.808 120.696 142.709 120.614C137.405 116.061 132.345 111.231 127.552 106.144C123.416 101.658 122.982 98.9412 123.095 97.7194C123.117 97.3852 123.216 97.0606 123.384 96.7708C125.122 97.3817 132.411 100.26 137.077 102.125C151.012 106.594 152.83 109.263 156.386 114.553C159.106 118.674 162.25 122.5 165.767 125.968C189.904 150.084 221.071 146.306 251.274 142.704L256.439 142.093C263.358 141.29 270.422 140.309 277.26 139.36C282.098 138.685 286.952 138.031 291.823 137.399C291.811 140.086 291.645 142.77 291.324 145.438C289.635 159.766 284.681 173.516 276.842 185.631C273.35 185.728 269.682 185.905 265.804 186.098C238.128 187.496 200.218 189.313 149.306 165.518C145.654 163.83 142.017 162.078 138.493 160.132ZM52.1985 269.46C52.1985 228.671 88.3545 190.583 148.904 167.528C200.073 191.419 238.128 189.506 265.949 188.107C270.004 187.914 273.849 187.722 277.47 187.609C285.724 187.384 294.301 187.609 301.381 190.23C297.776 194.378 294.317 198.735 291.066 203.188C273.238 227.755 252.867 230.038 250.839 230.215C243.377 227.272 235.627 225.117 227.717 223.784L222.89 222.947C213.444 221.34 203.677 219.732 194.312 218.398C192.542 218.162 190.772 217.937 189.002 217.722C163.112 214.507 134.664 213.815 120.069 232.385C108.017 247.659 87.727 288.801 72.5211 321.246C59.0049 304.911 52.118 287.483 52.118 269.396L52.1985 269.46ZM74.5647 353.771C71.6472 351.763 68.3689 350.338 64.9102 349.574C63.993 349.317 63.0919 349.028 62.1748 348.738C63.3655 346.086 67.7583 336.294 73.7601 323.48C86.1822 296.856 108.919 249.797 121.614 233.655C135.629 215.841 163.45 216.613 188.809 219.716L193.781 220.343C195.39 222.031 205.93 233.719 204.852 248.929C191.307 249.18 177.885 251.55 165.075 255.955C158.864 258.173 152.814 262.723 146.056 270.264C143.031 273.624 140.231 277.145 137.528 280.553C136.144 282.29 134.809 283.962 133.505 285.553C119.41 302.435 106.312 321.133 93.7771 339.236L92.168 341.487C88.0327 347.436 83.6399 353.722 79.2954 359.864C78.0831 357.534 76.4522 355.447 74.4842 353.706L74.5647 353.771ZM137.077 367.228C123.963 379.286 119.474 382.565 118.01 383.209C117.872 383.278 117.751 383.377 117.656 383.498C115.322 380.309 112.353 377.638 108.935 375.652C106.054 374.205 102.498 374.044 98.7813 373.868C94.7265 373.675 90.5267 373.482 87.389 371.504C84.6536 369.752 82.8675 366.408 80.9527 362.854C80.7596 362.501 80.5665 362.163 80.3895 361.809C84.9432 355.378 89.5291 348.835 93.8254 342.645L95.4344 340.394C107.921 322.275 120.954 303.56 134.905 286.711C136.225 285.103 137.576 283.496 138.96 281.679C141.647 278.303 144.415 274.814 147.408 271.486C153.957 264.202 159.749 259.813 165.639 257.707C178.538 253.25 192.072 250.899 205.721 250.746C209.422 250.617 213.396 250.617 218.159 250.746C221.168 253.398 247.122 277.37 245.642 311.326C232.012 309.798 218.514 307.272 205.254 303.769L207.539 301.502C207.717 301.319 207.816 301.074 207.816 300.819C207.816 300.564 207.717 300.319 207.539 300.136C207.45 300.044 207.344 299.971 207.227 299.921C207.109 299.871 206.983 299.845 206.855 299.845C206.727 299.845 206.601 299.871 206.484 299.921C206.366 299.971 206.26 300.044 206.171 300.136L202.712 303.56C186.766 319.445 156.901 348.835 136.997 367.163L137.077 367.228ZM441.596 355.603C439.408 356.558 437.062 357.103 434.677 357.211H434.516C432.633 357.356 430.654 357.356 428.723 357.356C424.427 357.356 419.986 357.356 416.156 358.835C412.327 360.314 408.964 363.24 405.746 366.07C402.222 369.173 398.907 372.115 394.981 373.273C391.055 374.43 386.469 373.771 382.028 373.144C377.587 372.517 373.355 371.89 369.332 372.806L368.56 372.999C364.751 374.321 361.173 376.231 357.956 378.659C354.078 381.247 350.441 383.691 346.451 384.35C342.46 385.009 337.955 383.82 333.578 382.662C329.202 381.504 325.098 380.379 320.979 380.845C316.86 381.311 312.725 383.418 308.815 385.459C304.904 387.501 300.914 389.591 296.94 389.833C292.965 390.074 288.492 388.466 284.308 386.874C280.125 385.283 276.102 383.787 271.999 383.836C267.896 383.884 263.406 385.652 259.287 387.357C255.168 389.061 251.129 390.733 247.235 390.572C243.035 390.46 238.82 388.45 234.765 386.488C230.71 384.527 226.896 382.726 222.874 382.437C218.416 382.131 213.959 383.546 209.647 384.913C205.335 386.279 201.376 387.533 197.659 387.115C193.988 386.512 190.478 385.166 187.345 383.16L185.221 381.922C181.44 379.688 177.868 377.581 174.07 376.987C171.258 376.592 168.4 376.652 165.606 377.163C156.612 374.366 147.907 371.134 139.427 367.517C159.186 349.253 187.908 320.892 203.709 305.265C217.743 309.04 232.047 311.728 246.495 313.303C260.032 314.834 273.646 315.591 287.269 315.57C310.478 315.667 333.635 313.388 356.379 308.77C360.868 307.821 364.859 306.872 368.56 305.876C389.88 300.264 406.952 292.531 417.942 283.528C418.141 283.366 418.267 283.132 418.292 282.877C418.318 282.622 418.241 282.367 418.079 282.169C417.917 281.971 417.683 281.845 417.428 281.819C417.173 281.794 416.918 281.87 416.719 282.033C406.808 290.152 391.763 297.226 373.049 302.628C394.08 285.955 416.832 251.984 421.643 243.044C426.436 252.176 430.213 261.805 432.907 271.759C434.246 276.852 435.082 282.065 435.401 287.322C434.902 287.788 434.387 288.271 433.888 288.785C415.883 306.792 379.019 322.114 362.123 318.593C361.93 318.593 357.489 317.725 354.899 319.493C354.433 319.803 354.035 320.203 353.728 320.67C353.421 321.137 353.212 321.661 353.113 322.21C352.453 325.731 354.947 328.641 358.262 330.249C352.521 331.035 346.72 331.294 340.932 331.021C340.707 331.021 335.139 330.394 332.243 332.966C331.68 333.47 331.234 334.091 330.936 334.785C330.639 335.48 330.497 336.231 330.521 336.986C330.472 337.985 330.649 338.982 331.039 339.903C331.429 340.825 332.022 341.646 332.774 342.307C331.503 342.211 327.206 342.082 324.728 344.365C324.089 344.937 323.584 345.642 323.251 346.432C322.917 347.221 322.762 348.075 322.797 348.931C322.746 349.819 322.883 350.707 323.199 351.538C323.516 352.37 324.004 353.125 324.632 353.754C326.245 355.059 328.289 355.713 330.36 355.587H331.438C330.588 356.217 329.915 357.055 329.487 358.022C329.058 358.989 328.888 360.05 328.992 361.102C329.026 361.762 329.194 362.407 329.488 362.999C329.781 363.591 330.193 364.116 330.698 364.543C332.271 365.713 334.212 366.284 336.169 366.15C336.83 366.149 337.491 366.112 338.148 366.038L343.651 365.475C343.125 365.944 342.709 366.523 342.431 367.17C342.153 367.817 342.02 368.517 342.042 369.221C342.039 369.871 342.182 370.513 342.461 371.1C342.739 371.687 343.146 372.204 343.651 372.613C345.745 373.944 348.207 374.574 350.683 374.414C351.906 374.422 353.127 374.33 354.335 374.141C358.809 373.305 363.443 372.292 368.109 371.118C376.525 368.98 381.802 367.131 381.786 367.131C435.256 351.938 464.059 330.764 478.798 315.683C473.505 323.656 467.359 331.031 460.47 337.677L460.116 337.87C457.489 339.576 455.153 341.693 453.197 344.14L453.069 344.253L451.154 346.584C448.193 350.185 445.216 353.771 441.515 355.539L441.596 355.603Z" fill="#321951"/>
<path d="M210.516 213.157H210.741C231.012 208.394 251.702 205.631 272.514 204.909C272.64 204.905 272.764 204.876 272.878 204.823C272.993 204.77 273.096 204.696 273.181 204.603C273.267 204.51 273.333 204.401 273.376 204.282C273.418 204.164 273.437 204.038 273.431 203.912C273.414 203.659 273.302 203.422 273.117 203.248C272.931 203.075 272.687 202.979 272.433 202.979C251.498 203.718 230.685 206.496 210.29 211.276C210.065 211.335 209.869 211.473 209.738 211.666C209.608 211.858 209.551 212.091 209.578 212.322C209.605 212.553 209.715 212.766 209.888 212.922C210.06 213.079 210.283 213.168 210.516 213.173V213.157Z" fill="#321951"/>
<path d="M262.972 211.758C257.71 212.112 252.449 212.594 247.364 213.173C247.131 213.214 246.92 213.339 246.774 213.525C246.627 213.71 246.553 213.943 246.567 214.18C246.581 214.416 246.681 214.639 246.849 214.806C247.017 214.973 247.24 215.073 247.476 215.086H247.589C252.642 214.507 257.855 214.041 263.101 213.687C263.227 213.679 263.351 213.646 263.465 213.589C263.579 213.533 263.681 213.455 263.764 213.359C263.848 213.264 263.912 213.153 263.953 213.032C263.994 212.912 264.01 212.785 264.002 212.658C263.993 212.532 263.96 212.408 263.904 212.294C263.847 212.18 263.769 212.079 263.673 211.995C263.578 211.911 263.467 211.847 263.346 211.807C263.226 211.766 263.099 211.75 262.972 211.758Z" fill="#321951"/>
<path d="M293.046 335.715C289.409 335.812 285.709 335.86 282.056 335.86C268.508 335.879 254.97 335.133 241.507 333.625C231.181 332.475 220.923 330.784 210.774 328.561C210.529 328.519 210.278 328.573 210.073 328.711C209.867 328.849 209.722 329.061 209.669 329.302C209.615 329.544 209.656 329.797 209.784 330.009C209.912 330.221 210.116 330.376 210.355 330.442C220.567 332.684 230.89 334.385 241.282 335.538C254.82 337.059 268.433 337.811 282.056 337.789C285.725 337.789 289.442 337.789 293.094 337.645C293.22 337.642 293.345 337.615 293.46 337.565C293.576 337.514 293.68 337.441 293.767 337.35C293.854 337.258 293.921 337.151 293.966 337.033C294.011 336.915 294.032 336.79 294.027 336.664C294.015 336.411 293.907 336.172 293.725 335.995C293.542 335.819 293.3 335.719 293.046 335.715Z" fill="#321951"/>
<path d="M251.934 348.577C247.831 348.24 244.049 347.87 240.381 347.452C237.677 347.146 235.022 346.809 232.335 346.455C232.21 346.437 232.083 346.444 231.961 346.476C231.839 346.507 231.724 346.563 231.624 346.639C231.524 346.715 231.439 346.811 231.376 346.92C231.313 347.029 231.273 347.15 231.257 347.275C231.239 347.401 231.246 347.529 231.277 347.652C231.308 347.775 231.364 347.89 231.44 347.992C231.516 348.094 231.612 348.179 231.721 348.244C231.831 348.308 231.952 348.351 232.078 348.368C234.733 348.722 237.404 349.06 240.123 349.365C243.824 349.783 247.621 350.153 251.741 350.491C251.983 350.491 252.217 350.401 252.396 350.237C252.575 350.073 252.686 349.848 252.706 349.606C252.73 349.369 252.664 349.132 252.521 348.941C252.378 348.75 252.168 348.621 251.934 348.577Z" fill="#321951"/>
<path d="M60.5984 174.007C63.9578 173.929 67.2604 174.883 70.0598 176.741C73.1443 178.777 76.7742 179.831 80.4705 179.763C80.7072 179.733 80.9246 179.617 81.0822 179.438C81.2397 179.259 81.3266 179.029 81.3266 178.791C81.3266 178.552 81.2397 178.322 81.0822 178.143C80.9246 177.964 80.7072 177.848 80.4705 177.818C77.1185 177.895 73.8228 176.947 71.0252 175.101C67.8931 173.13 64.2674 172.085 60.5662 172.085C56.865 172.085 53.2393 173.13 50.1072 175.101C47.3059 176.952 44.0035 177.901 40.6458 177.818C37.2938 177.895 33.9981 176.947 31.2005 175.101C28.1074 173.074 24.4719 172.031 20.7736 172.11C17.0754 172.031 13.4399 173.074 10.3468 175.101C7.54556 176.952 4.24317 177.901 0.885419 177.818C0.648776 177.848 0.431341 177.964 0.273773 178.143C0.116206 178.322 0.0292969 178.552 0.0292969 178.791C0.0292969 179.029 0.116206 179.259 0.273773 179.438C0.431341 179.617 0.648776 179.733 0.885419 179.763C4.60888 179.846 8.26898 178.792 11.3766 176.741C14.1769 174.885 17.4788 173.931 20.838 174.007C24.1975 173.929 27.5 174.883 30.2994 176.741C33.3884 178.78 37.0245 179.834 40.7262 179.763C44.4245 179.843 48.06 178.8 51.1531 176.773C53.9447 174.908 57.2411 173.943 60.5984 174.007Z" fill="#321951"/>
<path d="M576.035 144.811C573.178 144.869 570.371 144.056 567.989 142.48C565.272 140.778 562.129 139.875 558.922 139.875C555.715 139.875 552.572 140.778 549.855 142.48C547.427 144.002 544.619 144.81 541.753 144.81C538.887 144.81 536.079 144.002 533.651 142.48C530.931 140.778 527.786 139.876 524.576 139.876C521.367 139.876 518.222 140.778 515.501 142.48C513.119 144.057 510.312 144.871 507.456 144.811C507.2 144.811 506.954 144.913 506.773 145.093C506.592 145.274 506.49 145.52 506.49 145.776C506.49 146.031 506.592 146.277 506.773 146.458C506.954 146.639 507.2 146.74 507.456 146.74C510.668 146.813 513.827 145.91 516.515 144.152C518.941 142.619 521.754 141.805 524.625 141.805C527.496 141.805 530.308 142.619 532.734 144.152C535.456 145.843 538.597 146.739 541.801 146.739C545.006 146.739 548.147 145.843 550.869 144.152C553.292 142.618 556.102 141.804 558.97 141.804C561.839 141.804 564.649 142.618 567.072 144.152C569.766 145.91 572.93 146.812 576.147 146.74C576.403 146.74 576.649 146.639 576.83 146.458C577.011 146.277 577.113 146.031 577.113 145.776C577.114 145.639 577.085 145.503 577.03 145.378C576.975 145.253 576.893 145.142 576.791 145.05C576.689 144.959 576.569 144.891 576.439 144.849C576.308 144.808 576.171 144.795 576.035 144.811Z" fill="#321951"/>
<path d="M524.512 379.977C521.222 380.056 517.987 379.124 515.243 377.309C512.175 375.392 508.629 374.376 505.01 374.376C501.391 374.376 497.845 375.392 494.776 377.309C492 379.053 488.787 379.978 485.508 379.978C482.228 379.978 479.015 379.053 476.239 377.309C473.171 375.392 469.624 374.376 466.006 374.376C462.387 374.376 458.841 375.392 455.772 377.309C453.028 379.124 449.793 380.056 446.504 379.977C446.247 379.977 446.002 380.079 445.821 380.26C445.64 380.441 445.538 380.686 445.538 380.942C445.538 381.198 445.64 381.443 445.821 381.624C446.002 381.805 446.247 381.907 446.504 381.907C450.132 381.984 453.699 380.964 456.737 378.981C459.51 377.227 462.724 376.296 466.006 376.296C469.287 376.296 472.501 377.227 475.274 378.981C478.343 380.897 481.889 381.913 485.508 381.913C489.127 381.913 492.673 380.897 495.741 378.981C498.514 377.227 501.728 376.296 505.01 376.296C508.291 376.296 511.505 377.227 514.278 378.981C517.316 380.964 520.883 381.984 524.512 381.907C524.768 381.907 525.013 381.805 525.194 381.624C525.375 381.443 525.477 381.198 525.477 380.942C525.477 380.686 525.375 380.441 525.194 380.26C525.013 380.079 524.768 379.977 524.512 379.977Z" fill="#321951"/>
<path d="M185.157 98.6521C189.021 98.7383 192.808 97.5581 195.938 95.2919C198.793 93.2926 202.194 92.2201 205.681 92.2201C209.167 92.2201 212.569 93.2926 215.424 95.2919C218.592 97.481 222.352 98.6536 226.204 98.6536C230.056 98.6536 233.817 97.481 236.985 95.2919C239.838 93.294 243.237 92.2222 246.72 92.2222C250.204 92.2222 253.603 93.294 256.455 95.2919C259.621 97.4796 263.379 98.6515 267.228 98.6515C271.077 98.6515 274.835 97.4796 278.001 95.2919C280.856 93.2926 284.257 92.2201 287.744 92.2201C291.23 92.2201 294.632 93.2926 297.487 95.2919C300.612 97.5548 304.393 98.7348 308.251 98.6521C308.508 98.6521 308.753 98.5505 308.934 98.3696C309.115 98.1887 309.217 97.9433 309.217 97.6874C309.217 97.4316 309.115 97.1862 308.934 97.0053C308.753 96.8244 308.508 96.7228 308.251 96.7228C304.759 96.7998 301.338 95.7263 298.517 93.6681C295.355 91.4695 291.596 90.291 287.744 90.291C283.892 90.291 280.132 91.4695 276.971 93.6681C274.112 95.6563 270.712 96.7222 267.228 96.7222C263.744 96.7222 260.344 95.6563 257.485 93.6681C254.326 91.4709 250.569 90.2931 246.72 90.2931C242.871 90.2931 239.115 91.4709 235.956 93.6681C233.094 95.6577 229.691 96.7242 226.204 96.7242C222.718 96.7242 219.315 95.6577 216.453 93.6681C213.292 91.4695 209.533 90.291 205.681 90.291C201.829 90.291 198.069 91.4695 194.908 93.6681C192.081 95.7286 188.655 96.8021 185.157 96.7228C184.901 96.7228 184.655 96.8244 184.474 97.0053C184.293 97.1862 184.191 97.4316 184.191 97.6874C184.191 97.9433 184.293 98.1887 184.474 98.3696C184.655 98.5505 184.901 98.6521 185.157 98.6521Z" fill="#321951"/>
<path d="M63.3336 76.6897C62.1581 78.1045 61.3474 79.7856 60.9725 81.5858C60.5976 83.3861 60.6699 85.2507 61.1831 87.0166C61.6962 88.7824 62.6346 90.3958 63.9161 91.7155C65.1977 93.0352 66.7833 94.021 68.5344 94.5868C70.2854 95.1526 72.1485 95.281 73.9607 94.9609C75.773 94.6408 77.4791 93.8818 78.9299 92.7505C80.3806 91.6192 81.5319 90.1499 82.2829 88.4711C83.0339 86.7924 83.3618 84.9554 83.2379 83.1207C83.1429 81.634 82.7491 80.1816 82.0801 78.8502C81.4111 77.5187 80.4805 76.3356 79.3439 75.3714C78.2166 74.3908 76.9053 73.6443 75.4864 73.1751C74.0675 72.706 72.5693 72.5238 71.0792 72.639C69.5891 72.7542 68.1368 73.1646 66.807 73.8463C65.4772 74.5279 64.2964 75.4672 63.3336 76.6093V76.6897ZM81.3231 83.2976C81.4158 84.5983 81.2396 85.9042 80.8055 87.1339C80.3713 88.3636 79.6885 89.4909 78.7994 90.4456C77.9104 91.4002 76.8342 92.1618 75.6379 92.6829C74.4416 93.2041 73.1507 93.4736 71.8456 93.4747C70.0412 93.4795 68.2738 92.9633 66.756 91.9882C65.2383 91.0131 64.0348 89.6206 63.2903 87.9783C62.5458 86.336 62.292 84.5137 62.5594 82.7307C62.8269 80.9476 63.6042 79.2798 64.7978 77.9277C65.6836 76.8904 66.7838 76.0572 68.0226 75.4855C69.2615 74.9137 70.6097 74.617 71.9743 74.6157C74.3414 74.6174 76.6203 75.5131 78.3541 77.1232C80.088 78.7334 81.1485 80.9389 81.3231 83.2976Z" fill="#321951"/>
<path d="M70.0436 52.9913C61.4769 53.4969 53.461 57.3786 47.7561 63.7842C42.0512 70.1898 39.1235 78.5957 39.6159 87.1562C39.6985 88.8054 40.413 90.3598 41.6112 91.4971C42.8094 92.6345 44.3995 93.2677 46.0522 93.2656H46.4706C48.1968 93.1498 49.8079 92.3594 50.9553 91.0656C52.1026 89.7717 52.6939 88.0785 52.6012 86.3523C52.3066 81.2492 54.0508 76.238 57.4508 72.4187C60.8508 68.5995 65.6288 66.2845 70.7355 65.982C71.6144 65.9375 72.4748 65.7133 73.2636 65.3234C74.0524 64.9335 74.7527 64.3861 75.3214 63.7151C76.1852 62.7602 76.7424 61.5683 76.9208 60.2935C77.0993 59.0188 76.8908 57.7198 76.3223 56.5648C75.7538 55.4097 74.8516 54.4517 73.7322 53.8146C72.6128 53.1776 71.3279 52.8908 70.0436 52.9913ZM73.8571 62.3967C73.4581 62.8691 72.967 63.2552 72.4137 63.5316C71.8604 63.8081 71.2566 63.9689 70.639 64.0045C67.8457 64.1599 65.1111 64.8672 62.5932 66.0855C60.0753 67.3039 57.8242 69.009 55.9702 71.1022C54.1161 73.1955 52.6959 75.6353 51.7917 78.2805C50.8875 80.9258 50.5173 83.7239 50.7025 86.5131C50.7514 87.7218 50.3266 88.902 49.5183 89.8027C48.71 90.7034 47.582 91.2536 46.3741 91.3363C45.7745 91.3733 45.1736 91.2914 44.6059 91.0953C44.0382 90.8992 43.515 90.5928 43.0663 90.1938C42.6176 89.7948 42.2523 89.3111 41.9916 88.7704C41.7308 88.2297 41.5796 87.6429 41.5468 87.0436C41.085 78.9918 43.8372 71.0854 49.2001 65.0578C54.5631 59.0302 62.0991 55.3732 70.1563 54.8885H70.4459C71.607 54.8871 72.7242 55.332 73.566 56.1312C74.4078 56.9303 74.9096 58.0225 74.9674 59.1812C75.0158 60.3545 74.6193 61.5028 73.8571 62.3967Z" fill="#321951"/>
<path d="M69.013 33.7789H68.6268C61.83 34.1746 55.1795 35.9156 49.0617 38.901C42.9439 41.8863 37.4808 46.0565 32.9896 51.1693C28.4984 56.282 25.0687 62.2355 22.8996 68.6838C20.7306 75.1321 19.8654 81.9468 20.3544 88.732C20.4569 90.367 21.18 91.9013 22.3761 93.0218C23.5722 94.1422 25.1512 94.7643 26.7907 94.7611H27.3056C29.0293 94.6213 30.6287 93.8093 31.7579 92.5005C32.8871 91.1917 33.4553 89.4915 33.3397 87.7674C32.9686 82.7032 33.6108 77.616 35.2289 72.8025C36.8469 67.9891 39.4084 63.5459 42.7637 59.7324C46.119 55.9188 50.201 52.8113 54.7714 50.5912C59.3418 48.3711 64.309 47.0829 69.3831 46.8018C71.1137 46.694 72.7314 45.9066 73.883 44.6114C75.0346 43.3161 75.6266 41.6182 75.5298 39.8884C75.4466 38.2251 74.7209 36.659 73.5055 35.5195C72.29 34.38 70.6796 33.756 69.013 33.7789ZM72.5208 43.2808C72.117 43.7475 71.6247 44.1299 71.0724 44.4058C70.5201 44.6818 69.9187 44.8458 69.3026 44.8885C63.9819 45.1965 58.7755 46.5578 53.9858 48.8934C49.1961 51.229 44.9186 54.4923 41.4019 58.4938C37.8852 62.4952 35.1994 67.155 33.5005 72.2025C31.8015 77.25 31.1233 82.5844 31.5053 87.896C31.5854 89.1133 31.1831 90.3132 30.3853 91.2367C29.5875 92.1602 28.4582 92.7331 27.2413 92.8318C26.6459 92.8733 26.0483 92.7965 25.4828 92.6061C24.9173 92.4156 24.3951 92.1152 23.9463 91.7221C23.4976 91.329 23.1311 90.8511 22.8681 90.3158C22.6052 89.7805 22.4508 89.1986 22.414 88.6034C21.9466 82.0828 22.7777 75.5342 24.8592 69.3366C26.9407 63.1389 30.2314 57.4151 34.5409 52.4961C38.8503 47.5772 44.0931 43.5608 49.9659 40.6792C55.8387 37.7977 62.2251 36.1081 68.7555 35.7082H69.013C70.1807 35.7059 71.3053 36.1487 72.1575 36.9464C73.0096 37.7441 73.5251 38.8365 73.5989 40.0009C73.6662 41.1909 73.2812 42.3624 72.5208 43.2808Z" fill="#321951"/>
<path d="M7.6597 96.2885H8.1746C9.89874 96.149 11.4976 95.3335 12.6221 94.0201C13.7466 92.7068 14.3054 91.0023 14.1765 89.2787C13.5791 81.6806 14.504 74.0398 16.8969 66.803C19.2899 59.5662 23.1029 52.8788 28.113 47.1318C33.1231 41.3849 39.2297 36.6937 46.0757 33.3326C52.9217 29.9715 60.3697 28.008 67.9841 27.557C68.8535 27.508 69.7039 27.2833 70.4839 26.8964C71.2638 26.5095 71.9571 25.9685 72.5217 25.3061C73.3927 24.3509 73.9554 23.1558 74.1367 21.8764C74.318 20.597 74.1093 19.2927 73.5379 18.1335C72.9665 16.9744 72.0589 16.014 70.9334 15.3777C69.8078 14.7414 68.5166 14.4587 67.2278 14.5663C57.882 15.1171 48.7399 17.5238 40.3357 21.6456C31.9315 25.7674 24.4339 31.5217 18.281 38.5721C12.1282 45.6226 7.44352 53.8277 4.5009 62.7079C1.55828 71.5882 0.416718 80.9654 1.14292 90.2916C1.27997 91.9251 2.02564 93.4477 3.2324 94.5582C4.43916 95.6687 6.01912 96.2862 7.6597 96.2885ZM19.4221 40.1939C25.3975 33.2104 32.727 27.5087 40.9682 23.433C49.2094 19.3572 58.1915 16.9918 67.3727 16.4795H67.6945C68.9107 16.4539 70.0873 16.9122 70.9655 17.7534C71.8436 18.5946 72.3513 19.7499 72.3769 20.9652C72.4025 22.1804 71.9439 23.3561 71.102 24.2335C70.2601 25.1109 69.1038 25.6181 67.8876 25.6437C60.018 26.1029 52.3192 28.1258 45.2416 31.5941C38.164 35.0623 31.8498 39.9062 26.6685 45.8422C21.4872 51.7783 17.5429 58.6873 15.0664 66.165C12.5899 73.6427 11.6309 81.5388 12.2456 89.3913C12.3346 90.6071 11.9402 91.8089 11.1479 92.736C10.3557 93.6631 9.22944 94.2406 8.01369 94.3431H7.6597C6.50721 94.3501 5.39525 93.9187 4.54954 93.1364C3.70382 92.354 3.18772 91.2795 3.106 90.1308C2.38145 81.1424 3.45063 72.0996 6.25149 63.5273C9.05236 54.955 13.5291 47.0238 19.4221 40.1939Z" fill="#321951"/>
</g>
<defs>
<clipPath id="clip0_1277_82135">
<rect width="577" height="398" fill="white"/>
</clipPath>
</defs>
</svg>
