<svg width="261" height="171" viewBox="0 0 261 171" fill="none" xmlns="http://www.w3.org/2000/svg">
<path d="M2.37146 106.407C7.51845 149.391 69.0411 176.24 139.852 166.35C210.664 156.461 263.823 113.694 258.676 70.7095C253.529 27.7253 191.966 0.919873 121.195 10.7659C50.4234 20.6119 -2.77553 63.4226 2.37146 106.407Z" fill="#FBC22D"/>
<path d="M111.061 170.558C52.2729 170.558 4.94473 144.707 0.360694 106.711C-2.2128 85.1103 9.04624 62.9893 32.1675 44.2949C55.2887 25.6005 86.4522 13.2821 120.993 8.46752C192.689 -1.42188 255.378 26.3378 260.646 70.3196C265.913 114.301 211.83 158.413 140.013 168.433C130.415 169.811 120.744 170.521 111.061 170.558V170.558ZM150.267 10.8531C140.626 10.8808 130.997 11.5617 121.436 12.8917C87.5379 17.6195 56.6559 30.2415 34.4997 47.895C12.3435 65.5484 1.96913 86.1513 4.34157 106.147C9.36793 147.873 70.0059 173.941 139.571 164.226C209.136 154.51 261.651 112.697 256.665 70.9702C252.362 35.1429 207.045 10.8531 150.267 10.8531Z" fill="#321951"/>
<path d="M156.419 142.972C155.957 142.964 155.512 142.789 155.154 142.474C154.797 142.159 154.548 141.723 154.449 141.237C154.39 140.958 154.385 140.668 154.432 140.386C154.48 140.105 154.58 139.836 154.727 139.597C154.873 139.358 155.063 139.153 155.285 138.995C155.506 138.837 155.755 138.73 156.017 138.678C198.64 128.832 231.412 107.622 239.575 84.59C239.793 84.0957 240.176 83.7084 240.647 83.5059C241.119 83.3034 241.644 83.3007 242.117 83.4983C242.59 83.6959 242.976 84.0792 243.199 84.5713C243.421 85.0633 243.462 85.6278 243.315 86.1515C234.709 110.485 200.772 132.779 156.821 142.929L156.419 142.972Z" fill="#321951"/>
<path d="M107.241 148.61C94.3597 148.694 81.5043 147.343 68.8802 144.576C68.6162 144.516 68.3657 144.401 68.143 144.237C67.9203 144.073 67.7297 143.863 67.5822 143.619C67.4347 143.375 67.3332 143.103 67.2834 142.817C67.2336 142.531 67.2365 142.237 67.2919 141.952C67.3473 141.667 67.4543 141.397 67.6065 141.157C67.7588 140.917 67.9534 140.711 68.1793 140.552C68.4052 140.393 68.658 140.283 68.9231 140.23C69.1883 140.176 69.4606 140.179 69.7247 140.239C83.8293 143.285 98.2126 144.565 112.589 144.056C112.859 144.023 113.132 144.055 113.389 144.149C113.646 144.243 113.881 144.397 114.077 144.6C114.272 144.803 114.424 145.049 114.522 145.323C114.619 145.596 114.66 145.889 114.64 146.181C114.652 146.475 114.606 146.768 114.507 147.042C114.408 147.316 114.258 147.565 114.065 147.772C113.872 147.98 113.641 148.143 113.387 148.25C113.134 148.357 112.862 148.405 112.589 148.393L107.241 148.61Z" fill="#321951"/>
<path d="M102.134 118.032C95.0975 118.032 89.5886 116.254 87.0956 112.914C86.7713 112.459 86.6273 111.884 86.6951 111.315C86.763 110.746 87.0371 110.229 87.4575 109.877C87.6616 109.696 87.8974 109.561 88.1509 109.481C88.4044 109.4 88.6704 109.375 88.9331 109.407C89.1957 109.439 89.4496 109.529 89.6797 109.669C89.9097 109.809 90.1113 109.998 90.2722 110.224C92.524 113.304 101.451 114.952 112.549 112.48C123.647 110.008 131.167 104.542 132.051 100.769C132.193 100.207 132.534 99.7281 133.001 99.4358C133.467 99.1435 134.022 99.0614 134.544 99.2074C135.055 99.3596 135.489 99.7229 135.752 100.218C136.016 100.714 136.087 101.301 135.952 101.853C134.464 108.012 125.376 113.998 113.353 116.731C109.663 117.563 105.905 117.999 102.134 118.032V118.032Z" fill="#321951"/>
<path d="M170.935 92.2238C168.19 92.4039 165.465 91.6119 163.175 89.9683C162.79 89.6046 162.548 89.0963 162.498 88.5468C162.448 87.9974 162.595 87.4482 162.908 87.0113C163.22 86.5743 163.676 86.2825 164.181 86.1952C164.687 86.108 165.204 86.2319 165.627 86.5417C168.482 88.9273 177.691 88.2333 187.743 82.9416C197.796 77.6499 204.029 70.4064 204.109 66.4593C204.109 66.1765 204.161 65.8965 204.263 65.6358C204.364 65.3751 204.513 65.1388 204.7 64.9409C204.888 64.743 205.11 64.5873 205.353 64.4831C205.597 64.3789 205.858 64.3282 206.12 64.3339V64.3339C206.387 64.3339 206.652 64.3914 206.899 64.5031C207.145 64.6148 207.369 64.7784 207.556 64.9844C207.743 65.1904 207.89 65.4346 207.989 65.7028C208.088 65.9709 208.136 66.2576 208.13 66.546C208.13 72.9221 200.53 81.0765 189.472 86.8453C183.724 90.0556 177.401 91.8901 170.935 92.2238V92.2238Z" fill="#321951"/>
<path d="M77.1638 67.4997C74.7442 67.8031 72.2928 67.5752 69.957 66.8298C67.6213 66.0844 65.4495 64.8368 63.5725 63.1623C63.2259 62.7251 63.0545 62.1574 63.0959 61.5839C63.1374 61.0104 63.3884 60.4782 63.7936 60.1044C64.1989 59.7305 64.7252 59.5456 65.2569 59.5903C65.7885 59.6351 66.2819 59.9058 66.6285 60.3429C69.0009 63.2924 78.0082 64.6804 88.9455 61.6875C99.8829 58.6947 107.282 53.0126 108.086 49.1957C108.198 48.6205 108.517 48.1168 108.973 47.7955C109.43 47.4742 109.985 47.3616 110.519 47.4824C111.052 47.6032 111.519 47.9475 111.817 48.4396C112.115 48.9317 112.219 49.5314 112.107 50.1065C110.82 56.3525 101.934 62.6852 90.0312 65.8949C85.8167 66.9815 81.4969 67.5203 77.1638 67.4997V67.4997Z" fill="#321951"/>
<path d="M238.329 70.3194C237.918 70.3074 237.52 70.1652 237.184 69.9107C236.848 69.6561 236.589 69.3005 236.439 68.888C234.188 63.3173 230.877 58.3188 226.721 54.2166C222.565 50.1145 217.656 47.0001 212.312 45.0754C211.806 44.9047 211.381 44.5293 211.126 44.0279C210.872 43.5265 210.807 42.9381 210.945 42.3862C211.094 41.834 211.441 41.3684 211.908 41.0919C212.376 40.8153 212.926 40.7504 213.438 40.9115C219.396 43.0011 224.869 46.4439 229.488 51.0081C234.108 55.5722 237.767 61.1515 240.219 67.3699C240.402 67.9051 240.382 68.4965 240.164 69.0161C239.945 69.5357 239.546 69.9416 239.052 70.1459C238.821 70.245 238.577 70.3036 238.329 70.3194V70.3194Z" fill="#321951"/>
<path d="M25.5728 117.294C25.0663 117.296 24.5779 117.091 24.2051 116.721C23.8324 116.352 23.6028 115.843 23.5623 115.299C23.3968 108.803 24.5243 102.345 26.8689 96.359C29.2134 90.3732 32.7205 84.9992 37.1536 80.5993C37.3493 80.3965 37.5811 80.2385 37.8349 80.1349C38.0888 80.0313 38.3594 79.9843 38.6306 79.9965C38.9018 80.0088 39.1678 80.0802 39.4128 80.2063C39.6577 80.3325 39.8764 80.5109 40.0557 80.7306C40.235 80.9504 40.3711 81.2071 40.456 81.4852C40.5409 81.7632 40.5727 82.057 40.5495 82.3487C40.5263 82.6403 40.4486 82.924 40.3211 83.1824C40.1936 83.4408 40.0188 83.6687 39.8075 83.8524C35.9028 87.8557 32.8136 92.6923 30.7367 98.0541C28.6598 103.416 27.6407 109.185 27.7442 114.995C27.7605 115.28 27.7246 115.566 27.6383 115.836C27.5521 116.106 27.4174 116.354 27.2418 116.568C27.0662 116.782 26.8532 116.956 26.6151 117.08C26.3771 117.205 26.1185 117.278 25.8543 117.294H25.5728Z" fill="#321951"/>
<path d="M187.582 27.3784C187.162 27.3636 186.756 27.2124 186.416 26.9447C184.526 25.5133 177.087 20.6554 161.043 18.2698C151.693 17.5792 142.314 19.0582 133.539 22.6072C133.064 22.8645 132.514 22.9085 132.009 22.7297C131.505 22.5509 131.086 22.1638 130.845 21.653C130.721 21.4005 130.646 21.1238 130.624 20.8394C130.601 20.5549 130.632 20.2685 130.715 19.9973C130.798 19.7261 130.93 19.4756 131.104 19.2607C131.279 19.0459 131.491 18.8711 131.729 18.7469C141.226 14.7401 151.438 13.0945 161.606 13.9323C178.535 16.448 186.657 21.7831 188.748 23.3446C189.179 23.6837 189.47 24.1904 189.56 24.7572C189.65 25.324 189.532 25.9063 189.231 26.3808C189.056 26.6828 188.813 26.9325 188.525 27.1068C188.237 27.2811 187.913 27.3745 187.582 27.3784V27.3784Z" fill="#321951"/>
<path d="M234.187 62.2953C234.378 62.5566 234.623 62.7669 234.902 62.9099C235.181 63.0528 235.487 63.1245 235.795 63.1194C236.008 63.1618 236.226 63.1618 236.439 63.1194C237.463 62.7441 238.378 62.0861 239.093 61.2109C239.723 60.4663 240.203 59.5879 240.501 58.6318C240.798 57.6758 240.908 56.6632 240.822 55.6589C240.42 51.5081 238.547 47.6851 235.594 44.9888C230.528 40.0007 223.531 38.9164 220.314 42.69C219.601 43.5363 219.102 44.5673 218.867 45.6828C218.761 46.113 218.786 46.5684 218.938 46.9821C219.09 47.3958 219.361 47.7461 219.711 47.9817C222.412 49.9311 224.966 52.1065 227.351 54.4878C229.832 56.8753 232.119 59.4873 234.187 62.2953V62.2953Z" fill="#321951"/>
<path d="M109.091 96.8652C103.612 97.3878 98.5364 100.187 94.9364 104.673C94.2472 105.65 93.7582 106.774 93.5017 107.97C93.2452 109.167 93.2271 110.408 93.4486 111.613C93.726 113.101 94.3485 114.488 95.2581 115.646C95.5847 116.067 96.0422 116.344 96.5448 116.427C98.307 116.641 100.079 116.742 101.853 116.731C105.21 116.727 108.56 116.407 111.865 115.777C117.38 114.781 122.714 112.848 127.668 110.051C127.95 109.884 128.191 109.648 128.373 109.361C128.555 109.075 128.671 108.747 128.714 108.403C128.834 107.409 128.834 106.403 128.714 105.41C127.708 99.8581 122.119 96.3447 114.117 96.3447C112.431 96.3686 110.75 96.5427 109.091 96.8652V96.8652Z" fill="#321951"/>
<path d="M201.898 76.6525C202.137 76.4132 202.317 76.1135 202.422 75.7804C202.528 75.4473 202.555 75.0912 202.501 74.7441C202.445 73.7563 202.227 72.7871 201.857 71.8814C199.324 65.939 191.282 65.0715 181.752 69.5391C177.731 71.3175 171.016 75.0911 169.005 80.6864C168.587 81.6886 168.37 82.7753 168.37 83.8744C168.37 84.9736 168.587 86.0602 169.005 87.0624C169.61 88.4265 170.522 89.6047 171.659 90.489C172.006 90.7735 172.43 90.926 172.865 90.9228H173.107C183.758 89.1865 193.738 84.2398 201.898 76.6525V76.6525Z" fill="#321951"/>
<path d="M71.8151 65.3317C71.9783 65.5453 72.1801 65.7209 72.4083 65.8477C72.6364 65.9744 72.8861 66.0498 73.1421 66.069C74.2278 66.069 75.3939 66.069 76.56 66.069C80.5591 66.0926 84.5491 65.6563 88.4624 64.7678C93.9424 63.5664 99.2094 61.4286 104.064 58.4351C104.341 58.2592 104.573 58.0132 104.741 57.7184C104.909 57.4236 105.008 57.0889 105.029 56.7435C105.19 55.7534 105.19 54.7407 105.029 53.7507C103.863 48.2855 97.9522 44.5986 90.2719 44.5986C88.4882 44.6075 86.7099 44.811 84.9641 45.2059C79.5739 46.0556 74.7155 49.1749 71.4532 53.8808C70.7421 54.9712 70.2465 56.2078 69.9975 57.5136C69.7484 58.8195 69.7512 60.1667 70.0056 61.4713C70.3171 62.8944 70.9373 64.2175 71.8151 65.3317V65.3317Z" fill="#321951"/>
<path d="M73.9466 23.0413C74.0871 23.4604 74.3439 23.8227 74.682 24.0788C75.0202 24.335 75.4233 24.4725 75.8365 24.4726H76.5603C77.0247 24.2773 77.4052 23.9029 77.6281 23.422C77.851 22.9411 77.9004 22.3881 77.7666 21.8702L101.411 14.67L101.773 15.1037C102.065 15.5379 102.497 15.8396 102.984 15.9503C103.471 16.061 103.979 15.9729 104.409 15.7031C104.839 15.4332 105.162 15.0008 105.313 14.4895C105.465 13.9781 105.436 13.4243 105.231 12.935C102.376 7.59994 95.0171 4.99747 87.3368 6.55895C82.5164 7.33697 78.1784 10.1445 75.2735 14.3664C74.5295 15.5058 74.0161 16.8014 73.7667 18.169C73.5173 19.5365 73.5375 20.9454 73.826 22.3039L73.9466 23.0413Z" fill="#321951"/>
<path d="M198.238 15.3642C198.685 15.5217 199.169 15.5084 199.608 15.3268C200.048 15.1452 200.416 14.8062 200.651 14.3666L223.289 24.9066C223.289 24.9066 223.289 25.297 223.289 25.5139C223.22 26.0816 223.356 26.6566 223.671 27.1177C223.986 27.5788 224.455 27.8901 224.978 27.9862H225.179C225.657 27.9915 226.119 27.8097 226.482 27.4747C226.844 27.1396 227.082 26.674 227.15 26.1645C228.034 20.3089 223.692 13.8461 216.333 10.0725C210.945 7.29655 199.726 7.12305 197.273 11.8509C197.176 12.1046 197.095 12.3655 197.032 12.6316L198.841 13.5425L197.032 12.7617C196.944 13.0175 196.906 13.29 196.92 13.5622C196.934 13.8345 197 14.1008 197.113 14.3446C197.226 14.5885 197.384 14.8048 197.578 14.9802C197.771 15.1555 197.996 15.2862 198.238 15.3642V15.3642Z" fill="#321951"/>
<path d="M11.6598 72.0545C12.0314 72.0452 12.3933 71.9251 12.7053 71.7075C12.9334 71.5604 13.1322 71.366 13.2902 71.1355C13.4482 70.9051 13.5623 70.6431 13.6258 70.3648C13.6894 70.0865 13.7012 69.7974 13.6605 69.5141C13.6199 69.2309 13.5275 68.9591 13.3889 68.7146C13.2848 68.5551 13.2035 68.3796 13.1477 68.1941L30.1971 49.1093C30.5688 49.4812 31.0572 49.6879 31.5642 49.6879C32.0713 49.6879 32.5596 49.4812 32.9314 49.1093C33.2998 48.7039 33.5061 48.1589 33.5061 47.5912C33.5061 47.0235 33.2998 46.4785 32.9314 46.0731C32.7194 45.7959 32.4763 45.5482 32.2076 45.3357C28.1865 41.9959 17.973 46.8105 14.0323 51.625C8.60382 58.1312 6.91497 65.9386 10.0112 70.9701C10.1766 71.2883 10.4152 71.5551 10.7039 71.7451C10.9927 71.935 11.3219 72.0415 11.6598 72.0545V72.0545Z" fill="#321951"/>
<path d="M22.2755 109.357C23.066 109.708 23.9137 109.885 24.7686 109.877H25.3316C25.7594 109.835 26.1643 109.649 26.489 109.346C26.8136 109.042 27.0417 108.637 27.1411 108.186C27.8873 104.874 28.8963 101.638 30.1569 98.5132C31.3877 95.4259 32.8257 92.4396 34.4594 89.578C34.6929 89.215 34.818 88.7837 34.818 88.3419C34.818 87.9 34.6929 87.4687 34.4594 87.1057C33.8357 86.2192 33.0024 85.53 32.0468 85.1104C27.7844 83.1586 22.0745 87.0623 19.4608 93.7854C16.8471 100.508 17.9328 107.535 22.2755 109.357Z" fill="#321951"/>
<path d="M176.927 21.5229C177.295 21.5314 177.658 21.4261 177.972 21.2193C178.252 21.0269 178.486 20.7652 178.654 20.456C178.822 20.1467 178.919 19.7988 178.937 19.441C179.098 12.0239 171.82 2.39477 162.008 0.920032C152.197 -0.554703 141.903 6.21173 140.938 14.236C140.797 15.0094 140.797 15.8049 140.938 16.5782C140.993 16.8665 141.104 17.1393 141.262 17.3792C141.42 17.619 141.623 17.8208 141.858 17.9717C142.092 18.1226 142.353 18.2193 142.624 18.2557C142.895 18.2921 143.169 18.2674 143.431 18.1831C148.898 16.7222 154.56 16.3111 160.159 16.9686C165.574 17.462 170.874 18.928 175.841 21.3061C176.178 21.482 176.553 21.5569 176.927 21.5229V21.5229Z" fill="#321951"/>
</svg>
