<svg width="110" height="49" viewBox="0 0 110 49" fill="none" xmlns="http://www.w3.org/2000/svg">
<path d="M99.46 4.82696C99.1553 4.8969 98.8505 4.92023 98.5223 4.92023C96.2716 4.92023 94.3961 3.14801 94.068 0.83947C92.3566 0.303142 90.5279 0 88.629 0C79.2513 0 71.5383 7.15882 70.7411 16.2764C70.6943 16.8127 70.6709 17.3258 70.6709 17.8621C70.6709 17.8913 70.6709 17.9204 70.6711 17.9496C70.6746 18.965 71.5306 19.7275 72.546 19.7275H79.4521C80.4025 19.7275 81.1035 18.8125 81.1035 17.8621C81.1035 17.3258 81.1737 16.7894 81.2675 16.2764C81.9943 12.8952 85.0185 10.3768 88.629 10.3768C92.2393 10.3768 95.2401 12.8952 95.9903 16.2764C96.1076 16.7894 96.1545 17.3258 96.1545 17.8621C96.1545 18.8225 96.8442 19.7275 97.8046 19.7275H104.712C105.727 19.7275 106.583 18.965 106.587 17.9496C106.587 17.9204 106.587 17.8913 106.587 17.8621C106.587 17.3258 106.564 16.7894 106.517 16.2764C106.282 13.6414 105.485 11.1696 104.219 9.00098C104.125 9.00098 104.008 9.02431 103.914 9.02431C101.64 9.02431 99.7414 7.20545 99.46 4.82696Z" fill="#FDBB5A"/>
<path d="M7.92721 31.1307C7.25877 31.1307 6.70523 31.3041 6.26657 31.6509C5.84879 31.9977 5.63991 32.4974 5.63991 33.1502C5.63991 33.803 5.83835 34.3333 6.23523 34.7413C6.63212 35.1289 7.14389 35.4349 7.77054 35.6592C8.41809 35.8632 9.1283 36.0672 9.90117 36.2712C10.6949 36.4548 11.4783 36.6894 12.2511 36.975C13.024 37.2401 13.7238 37.5767 14.3504 37.9847C14.998 38.3927 15.5202 38.974 15.9171 39.7288C16.314 40.4631 16.5124 41.3505 16.5124 42.3908C16.5124 44.2063 15.75 45.7668 14.2251 47.0723C12.7211 48.3574 10.7263 49 8.24053 49C5.77568 49 3.78083 48.4186 2.25596 47.2559C0.99449 46.2807 0.262053 44.961 0.0586518 43.2969C-0.00836443 42.7486 0.452006 42.299 1.00958 42.299H4.77472C5.29934 42.299 5.71557 42.7052 5.87301 43.2009C6.22628 44.3131 7.06768 44.8693 8.3972 44.8693C9.17007 44.8693 9.77584 44.6755 10.2145 44.2879C10.6532 43.8799 10.8725 43.37 10.8725 42.758C10.8725 42.146 10.674 41.6463 10.2772 41.2587C9.88028 40.8711 9.35807 40.5651 8.71053 40.3407C8.08387 40.1164 7.37366 39.9124 6.57989 39.7288C5.80702 39.5248 5.03414 39.28 4.26126 38.9944C3.48839 38.7089 2.77818 38.3723 2.13063 37.9847C1.50398 37.5767 0.992206 37.0056 0.595324 36.2712C0.198441 35.5165 0 34.6291 0 33.6092C0 31.6101 0.762432 30.0088 2.2873 28.8053C3.81216 27.6018 5.7548 27 8.1152 27C10.4965 27 12.4182 27.5304 13.8804 28.5911C15.1124 29.4676 15.8476 30.7785 16.0861 32.5238C16.1623 33.0817 15.6985 33.548 15.1301 33.548H11.2474C10.7313 33.548 10.3211 33.1524 10.1423 32.6729C10.0072 32.3108 9.81198 32.0109 9.55651 31.7733C9.13874 31.3449 8.59564 31.1307 7.92721 31.1307Z" fill="white"/>
<path d="M35.0759 28.2448C35.0759 27.6925 35.5279 27.2448 36.0855 27.2448H39.4242C39.9818 27.2448 40.4338 27.6925 40.4338 28.2448V47.7858C40.4338 48.3381 39.9818 48.7858 39.4242 48.7858H35.6216C35.281 48.7858 34.9635 48.6158 34.7769 48.3336L26.1147 35.2309V47.7858C26.1147 48.3381 25.6627 48.7858 25.1051 48.7858H21.7664C21.2088 48.7858 20.7568 48.3381 20.7568 47.7858V28.2448C20.7568 27.6925 21.2088 27.2448 21.7664 27.2448H25.569C25.9095 27.2448 26.2271 27.4148 26.4136 27.697L35.0759 40.7997V28.2448Z" fill="white"/>
<path d="M59.8445 48.7858C59.4106 48.7858 59.0252 48.5112 58.8873 48.1037L57.8962 45.1752H50.0003L49.0092 48.1037C48.8713 48.5112 48.4859 48.7858 48.052 48.7858H44.5008C43.8048 48.7858 43.3176 48.1046 43.5484 47.4542L50.4838 27.9131C50.6259 27.5127 51.0077 27.2448 51.4362 27.2448H56.522C56.951 27.2448 57.3331 27.5133 57.4749 27.9143L64.3818 47.4554C64.6117 48.1056 64.1245 48.7858 63.429 48.7858H59.8445ZM51.3476 41.1975H56.5489L53.9483 33.548L51.3476 41.1975Z" fill="white"/>
<path d="M69.4546 45.879C67.2822 43.7983 66.196 41.1669 66.196 37.9847C66.196 34.8025 67.2822 32.1813 69.4546 30.121C71.6479 28.0403 74.3216 27 77.4758 27C79.9198 27 82.0922 27.6324 83.993 28.8971C85.5143 29.9092 86.6676 31.2349 87.453 32.8741C87.7482 33.4903 87.262 34.1599 86.5734 34.1599H82.1896C81.8149 34.1599 81.4782 33.9492 81.2675 33.6423C80.4261 32.4167 79.1935 31.8039 77.5698 31.8039C75.7316 31.8039 74.2798 32.3649 73.2145 33.4868C72.1701 34.6087 71.6479 36.108 71.6479 37.9847C71.6479 39.8614 72.1701 41.3607 73.2145 42.4826C74.2798 43.6045 75.7316 44.1655 77.5698 44.1655C79.1935 44.1655 80.4261 43.5527 81.2675 42.3271C81.4782 42.0202 81.8149 41.8095 82.1896 41.8095H86.5734C87.262 41.8095 87.7482 42.4791 87.453 43.0953C86.6676 44.7345 85.5143 46.0602 83.993 47.0723C82.0922 48.337 79.9198 48.9694 77.4758 48.9694C74.3216 48.9694 71.6479 47.9393 69.4546 45.879Z" fill="white"/>
<path d="M96.7665 47.7858C96.7665 48.3381 96.3145 48.7858 95.757 48.7858H92.4182C91.8606 48.7858 91.4086 48.3381 91.4086 47.7858V29.306C91.4086 28.2014 92.3126 27.306 93.4278 27.306H94.7474C95.8625 27.306 96.7665 28.2014 96.7665 29.306V36.7302L103.43 28.0918C103.812 27.5965 104.405 27.306 105.034 27.306H108.896C109.752 27.306 110.22 28.2958 109.671 28.947L101.999 38.0459L109.671 47.1448C110.22 47.7959 109.752 48.7858 108.896 48.7858H104.657C104.344 48.7858 104.049 48.6422 103.858 48.397L96.7665 39.3004V47.7858Z" fill="white"/>
</svg>
