<svg width="109" height="49" viewBox="0 0 109 49" fill="none" xmlns="http://www.w3.org/2000/svg">
<path d="M98.8564 4.89364C98.5509 4.96455 98.2455 4.9882 97.9164 4.9882C95.6605 4.9882 93.7806 3.1915 93.4517 0.851066C91.7363 0.307329 89.9034 0 88 0C78.6005 0 70.8694 7.25771 70.0704 16.5013C70.0235 17.045 70 17.5651 70 18.1088C70 18.1458 70.0001 18.1828 70.0002 18.2198C70.0047 19.2361 70.8613 20.0001 71.8776 20.0001H78.7805C79.745 20.0001 80.4569 19.0733 80.4569 18.1088C80.4569 17.5651 80.5273 17.0214 80.6213 16.5013C81.3498 13.0733 84.3811 10.5201 88 10.5201C91.6187 10.5201 94.6266 13.0733 95.3786 16.5013C95.4962 17.0214 95.5431 17.5651 95.5431 18.1088C95.5431 19.0833 96.2439 20.0001 97.2183 20.0001H104.122C105.139 20.0001 105.995 19.2361 106 18.2198C106 18.1828 106 18.1458 106 18.1088C106 17.5651 105.977 17.0214 105.93 16.5013C105.695 13.8298 104.896 11.3239 103.627 9.12532C103.533 9.12532 103.415 9.14897 103.321 9.14897C101.042 9.14897 99.1384 7.30499 98.8564 4.89364Z" fill="#FDBB5A"/>
<path d="M7.86176 31.1308C7.19885 31.1308 6.64987 31.3041 6.21483 31.6509C5.80051 31.9977 5.59335 32.4975 5.59335 33.1502C5.59335 33.803 5.79015 34.3334 6.18376 34.7413C6.57736 35.1289 7.08491 35.4349 7.70639 35.6593C8.34859 35.8633 9.05294 36.0673 9.81943 36.2712C10.6066 36.4548 11.3835 36.6894 12.15 36.975C12.9165 37.2402 13.6105 37.5768 14.232 37.9847C14.8742 38.3927 15.3921 38.9741 15.7857 39.7288C16.1793 40.4632 16.3761 41.3505 16.3761 42.3909C16.3761 44.2064 15.6199 45.7669 14.1077 47.0724C12.6161 48.3575 10.6377 49.0001 8.1725 49.0001C5.728 49.0001 3.74962 48.4187 2.23734 47.256C0.98628 46.2807 0.259889 44.9611 0.0581676 43.297C-0.00829537 42.7487 0.448275 42.2991 1.00125 42.2991H4.73531C5.25559 42.2991 5.66838 42.7053 5.82452 43.201C6.17488 44.3132 7.00933 44.8693 8.32787 44.8693C9.09437 44.8693 9.69514 44.6755 10.1302 44.288C10.5652 43.88 10.7827 43.37 10.7827 42.7581C10.7827 42.1461 10.5859 41.6463 10.1923 41.2587C9.79872 40.8712 9.28082 40.5652 8.63862 40.3408C8.01713 40.1164 7.31279 39.9124 6.52557 39.7288C5.75908 39.5248 4.99258 39.2801 4.22609 38.9945C3.45959 38.7089 2.75524 38.3723 2.11304 37.9847C1.49156 37.5768 0.984015 37.0056 0.590409 36.2712C0.196803 35.5165 0 34.6291 0 33.6092C0 31.6101 0.756138 30.0088 2.26841 28.8053C3.78069 27.6018 5.70729 27 8.04821 27C10.4098 27 12.3157 27.5304 13.7659 28.5911C14.9876 29.4676 15.7168 30.7785 15.9533 32.5238C16.0289 33.0818 15.5689 33.548 15.0052 33.548H11.1545C10.6427 33.548 10.2358 33.1524 10.0585 32.6729C9.92461 32.3108 9.73098 32.0109 9.47762 31.7733C9.0633 31.3449 8.52468 31.1308 7.86176 31.1308Z" fill="white"/>
<path d="M34.7863 28.2448C34.7863 27.6925 35.2346 27.2448 35.7876 27.2448H39.0987C39.6517 27.2448 40.1 27.6925 40.1 28.2448V47.7859C40.1 48.3382 39.6517 48.7859 39.0987 48.7859H35.3275C34.9898 48.7859 34.6748 48.6159 34.4898 48.3337L25.8991 35.2309V47.7859C25.8991 48.3382 25.4508 48.7859 24.8978 48.7859H21.5867C21.0337 48.7859 20.5854 48.3382 20.5854 47.7859V28.2448C20.5854 27.6925 21.0337 27.2448 21.5867 27.2448H25.3579C25.6956 27.2448 26.0106 27.4148 26.1956 27.697L34.7863 40.7998V28.2448Z" fill="white"/>
<path d="M59.3505 48.7859C58.9202 48.7859 58.538 48.5112 58.4012 48.1037L57.4182 45.1753H49.5876L48.6046 48.1037C48.4678 48.5112 48.0856 48.7859 47.6553 48.7859H44.1335C43.4432 48.7859 42.9599 48.1047 43.1889 47.4542L50.067 27.9131C50.208 27.5127 50.5866 27.2448 51.0116 27.2448H56.0554C56.4808 27.2448 56.8598 27.5133 57.0004 27.9143L63.8503 47.4554C64.0783 48.1056 63.5951 48.7859 62.9053 48.7859H59.3505ZM50.9237 41.1975H56.0821L53.5029 33.548L50.9237 41.1975Z" fill="white"/>
<path d="M68.8812 45.8791C66.7267 43.7984 65.6495 41.1669 65.6495 37.9847C65.6495 34.8025 66.7267 32.1813 68.8812 30.121C71.0564 28.0403 73.7081 27 76.8362 27C79.26 27 81.4145 27.6324 83.2996 28.8971C84.8083 29.9092 85.9521 31.2349 86.731 32.8741C87.0238 33.4903 86.5416 34.16 85.8587 34.16H81.5111C81.1395 34.16 80.8055 33.9492 80.5966 33.6423C79.7622 32.4167 78.5398 31.8039 76.9294 31.8039C75.1064 31.8039 73.6666 32.3649 72.6101 33.4868C71.5743 34.6087 71.0564 36.1081 71.0564 37.9847C71.0564 39.8614 71.5743 41.3607 72.6101 42.4827C73.6666 43.6046 75.1064 44.1656 76.9294 44.1656C78.5398 44.1656 79.7622 43.5528 80.5966 42.3272C80.8055 42.0203 81.1395 41.8095 81.5111 41.8095H85.8587C86.5416 41.8095 87.0238 42.4792 86.731 43.0953C85.9521 44.7346 84.8083 46.0603 83.2996 47.0724C81.4145 48.3371 79.26 48.9695 76.8362 48.9695C73.7081 48.9695 71.0564 47.9393 68.8812 45.8791Z" fill="white"/>
<path d="M95.9677 47.7859C95.9677 48.3382 95.5194 48.7859 94.9664 48.7859H91.6553C91.1023 48.7859 90.654 48.3382 90.654 47.7859V29.306C90.654 28.2014 91.5506 27.306 92.6565 27.306H93.9652C95.0711 27.306 95.9677 28.2014 95.9677 29.306V36.7302L102.576 28.0918C102.955 27.5965 103.543 27.306 104.167 27.306H107.997C108.846 27.306 109.31 28.2959 108.765 28.947L101.157 38.0459L108.765 47.1449C109.31 47.796 108.846 48.7859 107.997 48.7859H103.793C103.483 48.7859 103.19 48.6423 103.001 48.3971L95.9677 39.3005V47.7859Z" fill="white"/>
</svg>
